<?xml version="1.0" standalone="no"?>
<!DOCTYPE svg PUBLIC "-//W3C//DTD SVG 1.1//EN" "http://www.w3.org/Graphics/SVG/1.1/DTD/svg11.dtd" >
<svg xmlns="http://www.w3.org/2000/svg" xmlns:xlink="http://www.w3.org/1999/xlink" version="1.1">
<metadata>
Created by FontForge 20201107 at Wed Jan 24 08:11:58 2024
 By 
Digitised data copyright Rui Abreu 2014 Portugal. All rights reserved.
</metadata>
<defs>
<font id="MontblancType-Light" horiz-adv-x="1212" >
  <font-face 
    font-family="Montblanc Type Light"
    font-weight="350"
    font-stretch="normal"
    units-per-em="2048"
    panose-1="2 11 4 3 3 3 3 2 2 4"
    ascent="1581"
    descent="-467"
    x-height="1008"
    cap-height="1483"
    bbox="-190 -557 2646 2034"
    underline-thickness="102"
    underline-position="-245"
    unicode-range="U+000D-FB02"
  />
<missing-glyph horiz-adv-x="1175" 
d="M109 0v1389h952v-1389h-952zM584 799l303 483h-604zM946 221v946l-297 -473zM283 106h604l-303 484zM221 221l299 473l-299 473v-946z" />
    <glyph glyph-name="fi" unicode="fi" horiz-adv-x="1181" 
d="M690 1567v-109q-68 21 -147 21q-60 0 -100 -19t-60.5 -58t-28.5 -85.5t-8 -112.5v-196h311v-107h-311v-901h-121v901h-225l-2 4l92 103h135v188q0 110 20 185.5t70 123.5q85 82 228 82q79 0 147 -20zM883 0v1008h121v-1008h-121zM854 1360q0 37 26 62.5t64 25.5
q37 0 62.5 -26t25.5 -64q0 -37 -26 -62.5t-64 -25.5q-37 0 -62.5 26t-25.5 64z" />
    <glyph glyph-name="fl" unicode="fl" horiz-adv-x="1181" 
d="M690 1567v-109q-68 21 -147 21q-60 0 -100 -19t-60.5 -58t-28.5 -85.5t-8 -112.5v-196h311v-107h-311v-901h-121v901h-225l-2 4l92 103h135v188q0 110 20 185.5t70 123.5q85 82 228 82q79 0 147 -20zM883 0v1565h121v-1565h-121z" />
    <glyph glyph-name=".notdef" horiz-adv-x="1175" 
d="M109 0v1389h952v-1389h-952zM584 799l303 483h-604zM946 221v946l-297 -473zM283 106h604l-303 484zM221 221l299 473l-299 473v-946z" />
    <glyph glyph-name=".null" horiz-adv-x="2" 
 />
    <glyph glyph-name="nonmarkingreturn" horiz-adv-x="682" 
 />
    <glyph glyph-name="CR" unicode="&#xd;" horiz-adv-x="708" 
 />
    <glyph glyph-name="space" unicode=" " horiz-adv-x="501" 
 />
    <glyph glyph-name="exclam" unicode="!" horiz-adv-x="643" 
d="M268 430l-10 1053h127l-10 -1053h-107zM225 74q0 40 28.5 68t68.5 28t68 -28t28 -68t-28 -68.5t-68 -28.5t-68.5 28.5t-28.5 68.5z" />
    <glyph glyph-name="quotedbl" unicode="&#x22;" horiz-adv-x="700" 
d="M154 985l-21 535h119l-21 -535h-77zM469 985l-20 535h118l-20 -535h-78z" />
    <glyph glyph-name="numbersign" unicode="#" horiz-adv-x="1247" 
d="M166 0l139 477h-272l24 88h273l102 353h-272l24 88h273l137 477h90l-137 -477h305l139 477h90l-137 -477h270l-24 -88h-270l-103 -353h270l-24 -88h-270l-138 -477h-92l139 477h-307l-137 -477h-92zM420 565h305l104 353h-307z" />
    <glyph glyph-name="dollar" unicode="$" horiz-adv-x="1150" 
d="M518 -156v254q-199 13 -346 105v135q88 -63 197 -96t213 -33q143 0 227 60t84 175q0 36 -9.5 65.5t-24 51.5t-41.5 41t-52.5 32t-66.5 25.5t-74.5 21t-85.5 19.5q-67 15 -113.5 28.5t-103.5 41t-92 61.5t-59 89t-24 124q0 150 101 239t270 101v254h100v-254
q190 -12 340 -100v-133q-85 59 -188.5 91t-204.5 32q-134 0 -213.5 -57.5t-79.5 -165.5q0 -28 6 -51.5t15 -42t27 -35.5t33 -28.5t42.5 -23.5t46.5 -19t54.5 -16t56.5 -14t61 -14q56 -12 98 -24.5t92 -32t85 -45.5t65.5 -61.5t46 -84t15.5 -108.5q0 -159 -108.5 -252.5
t-289.5 -102.5v-252h-100z" />
    <glyph glyph-name="percent" unicode="%" horiz-adv-x="1904" 
d="M410 0l964 1483h121l-965 -1483h-120zM469 840q105 0 176.5 81t71.5 201t-72 201.5t-176 81.5q-106 0 -177 -81.5t-71 -201.5t71 -201t177 -81zM469 739q-152 0 -252 110t-100 273t100 273t252 110t252 -110t100 -273t-100 -273t-252 -110zM1436 643q-104 0 -176 -81.5
t-72 -201.5t71.5 -201t176.5 -81q106 0 176.5 81t70.5 201t-70.5 201.5t-176.5 81.5zM1436 743q152 0 252 -110t100 -273t-100 -273t-252 -110t-252.5 110t-100.5 273t100.5 273t252.5 110z" />
    <glyph glyph-name="ampersand" unicode="&#x26;" horiz-adv-x="1511" 
d="M1499 1051v-107h-237q8 -109 8 -250q0 -172 -27 -296t-100 -216q-79 -100 -202.5 -152.5t-276.5 -52.5q-247 0 -397 130t-150 333q0 169 107 285.5t290 155.5l-348 598l2 4h727v-113h-526l-2 -4l321 -553l-2 -4q-93 -7 -171 -31t-141 -66t-98.5 -109.5t-35.5 -153.5
q0 -162 117 -260.5t311 -98.5q126 0 226.5 44.5t160.5 127.5q54 73 76 178t22 260q0 132 -8 244h-236v107h590z" />
    <glyph glyph-name="quotesingle" unicode="'" horiz-adv-x="385" 
d="M154 985l-21 535h119l-21 -535h-77z" />
    <glyph glyph-name="parenleft" unicode="(" horiz-adv-x="665" 
d="M586 -436h-121q-131 174 -214 423t-83 556t83 556t214 423h121q-138 -179 -222.5 -431.5t-84.5 -547.5t84.5 -547.5t222.5 -431.5z" />
    <glyph glyph-name="parenright" unicode=")" horiz-adv-x="665" 
d="M80 -436q138 179 222.5 431.5t84.5 547.5t-84.5 547.5t-222.5 431.5h121q131 -174 214 -423t83 -556t-83 -556t-214 -423h-121z" />
    <glyph glyph-name="asterisk" unicode="*" horiz-adv-x="944" 
d="M426 688l8 336l-289 -176l-47 80l299 162l-299 161l47 80l289 -176l-8 336h92l-8 -336l289 176l47 -80l-299 -161l299 -162l-47 -80l-289 176l8 -336h-92z" />
    <glyph glyph-name="plus" unicode="+" horiz-adv-x="1193" 
d="M547 238v454h-438v99h438v454h100v-454h438v-99h-438v-454h-100z" />
    <glyph glyph-name="comma" unicode="," horiz-adv-x="614" 
d="M141 -301l119 559h125l-154 -559h-90z" />
    <glyph glyph-name="hyphen" unicode="-" horiz-adv-x="733" 
d="M129 514v107h477v-107h-477z" />
    <glyph glyph-name="period" unicode="." horiz-adv-x="614" 
d="M211 74q0 40 28 68t68 28t68 -28t28 -68t-28 -68.5t-68 -28.5t-68 28.5t-28 68.5z" />
    <glyph glyph-name="slash" unicode="/" horiz-adv-x="894" 
d="M51 -78l690 1639h103l-690 -1639h-103z" />
    <glyph glyph-name="zero" unicode="0" horiz-adv-x="1241" 
d="M274 745q0 -204 23 -327t74 -195q90 -129 252 -129t251 129q51 73 73 195t22 319q0 204 -23 327.5t-74 195.5q-90 129 -251 129q-163 0 -252 -129q-50 -73 -72.5 -195.5t-22.5 -319.5zM150 741q0 227 28.5 365t89.5 223q61 84 151.5 130t203.5 46q111 0 202 -46t150 -130
q61 -87 90 -224.5t29 -363.5t-29 -364t-90 -223q-128 -177 -354 -177q-111 0 -202.5 46.5t-150.5 130.5q-61 86 -89.5 223.5t-28.5 363.5z" />
    <glyph glyph-name="one" unicode="1" horiz-adv-x="1026" 
d="M166 1239l481 281l4 -2v-1518h-125v1315l-360 -209v133z" />
    <glyph glyph-name="two" unicode="2" horiz-adv-x="1136" 
d="M66 4l491 563q138 158 202 276t64 234q0 140 -89 226t-228 86q-102 0 -192.5 -47t-159.5 -132v140q65 73 159 114t199 41q190 0 313 -117t123 -307q0 -140 -73.5 -276.5t-221.5 -304.5l-336 -381l2 -4h691v-115h-942z" />
    <glyph glyph-name="three" unicode="3" horiz-adv-x="1110" 
d="M154 1368v115h802l2 -4l-438 -590q120 -11 213 -52.5t148.5 -105t83.5 -138.5t28 -159q0 -131 -63 -235.5t-172.5 -163t-245.5 -58.5q-118 0 -221.5 42t-175.5 112v148q81 -90 184.5 -137.5t210.5 -47.5q156 0 257 95t101 245q0 161 -127.5 256.5t-347.5 95.5
q-57 0 -86 -2l-2 4l428 576l-2 4h-577z" />
    <glyph glyph-name="four" unicode="4" horiz-adv-x="1286" 
d="M811 0v391h-758l-2 4l881 1135h4v-1028h295v-111h-295v-391h-125zM598 920l-322 -414l3 -4h532v393q0 199 2 297l-4 2q-120 -158 -211 -274z" />
    <glyph glyph-name="five" unicode="5" horiz-adv-x="1097" 
d="M313 913h41q136 0 244.5 -26.5t178 -70.5t115.5 -106t65.5 -128.5t19.5 -141.5q0 -203 -139 -333t-351 -130q-105 0 -201.5 33.5t-166.5 91.5l10 140q157 -148 360 -148q158 0 260.5 95.5t102.5 248.5q0 168 -139.5 267.5t-395.5 99.5q-59 0 -133 -4l52 682h708l-8 -115
h-588z" />
    <glyph glyph-name="six" unicode="6" horiz-adv-x="1191" 
d="M592 90q147 0 250.5 92t103.5 242q0 142 -98 237t-248 95q-151 0 -256.5 -93t-105.5 -231q0 -136 99 -239t255 -103zM322 756l4 -2q115 112 299 112q190 0 318 -125t128 -313q0 -194 -136 -322.5t-345 -128.5q-210 0 -344.5 134.5t-134.5 337.5q0 103 37 204t126 254
l336 576h140l-355 -600q-41 -68 -73 -127z" />
    <glyph glyph-name="seven" unicode="7" horiz-adv-x="1124" 
d="M272 0l584 1368h-750v115h926l2 -4l-631 -1479h-131z" />
    <glyph glyph-name="eight" unicode="8" horiz-adv-x="1208" 
d="M811 784v-4q116 -32 193 -131.5t77 -242.5q0 -188 -131.5 -308.5t-345.5 -120.5t-345.5 120.5t-131.5 308.5q0 143 77 242.5t193 131.5v4q-108 37 -169.5 124t-61.5 206q0 171 122 281t316 110t316 -110t122 -281q0 -119 -61.5 -206t-169.5 -124zM604 831
q135 0 226.5 78.5t91.5 202.5q0 123 -91 203t-227 80t-226.5 -79.5t-90.5 -203.5t91.5 -202.5t225.5 -78.5zM252 403q0 -140 101 -227.5t251 -87.5t251 87.5t101 227.5q0 142 -101.5 233t-250.5 91t-250.5 -91t-101.5 -233z" />
    <glyph glyph-name="nine" unicode="9" horiz-adv-x="1163" 
d="M571 729q153 0 254 97t101 231q0 86 -44 163t-125.5 125t-181.5 48q-93 0 -172.5 -40t-129.5 -117.5t-50 -176.5q0 -141 97.5 -235.5t250.5 -94.5zM819 707l-4 2q-112 -91 -272 -91q-186 0 -315.5 125t-129.5 312q0 194 138.5 322t343.5 128q203 0 338 -129.5t135 -331.5
q0 -111 -42 -214.5t-126 -235.5l-377 -594h-139l409 641q7 11 21 33.5t20 32.5z" />
    <glyph glyph-name="colon" unicode=":" horiz-adv-x="614" 
d="M211 74q0 40 28 68t68 28t68 -28t28 -68t-28 -68.5t-68 -28.5t-68 28.5t-28 68.5zM211 934q0 40 28 68t68 28t68 -28t28 -68t-28 -68t-68 -28t-68 28t-28 68z" />
    <glyph glyph-name="semicolon" unicode=";" horiz-adv-x="614" 
d="M141 -301l119 559h125l-154 -559h-90zM211 934q0 40 28 68t68 28t68 -28t28 -68t-28 -68t-68 -28t-68 28t-28 68z" />
    <glyph glyph-name="less" unicode="&#x3c;" horiz-adv-x="1376" 
d="M193 700v78l993 447v-105l-838 -379v-4l838 -379v-104z" />
    <glyph glyph-name="equal" unicode="=" horiz-adv-x="1193" 
d="M109 893v98h976v-98h-976zM109 492v98h976v-98h-976z" />
    <glyph glyph-name="greater" unicode="&#x3e;" horiz-adv-x="1376" 
d="M193 254v104l837 379v4l-837 379v105l993 -447v-78z" />
    <glyph glyph-name="question" unicode="?" horiz-adv-x="954" 
d="M246 385l-4 352q46 -4 92 -4q175 0 288 86.5t113 241.5q0 143 -95 235.5t-241 92.5q-134 0 -252 -76v125q112 67 256 67q193 0 325 -123t132 -313q0 -194 -141 -317t-367 -123l-2 -244h-104zM395 74q0 -40 -28 -68.5t-68 -28.5t-68 28.5t-28 68.5t28 68t68 28t68 -28
t28 -68z" />
    <glyph glyph-name="at" unicode="@" horiz-adv-x="1671" 
d="M1032 440l27 305q-96 56 -201 56q-122 0 -205 -86q-94 -97 -94 -246q0 -118 66 -190t172 -72q126 0 235 115q-4 32 -4 53q0 25 4 65zM1178 866l-37 -432q-2 -20 -2 -51q0 -87 39.5 -133.5t115.5 -46.5q89 0 143 77.5t54 225.5q0 180 -79 330.5t-229 241.5t-341 91
q-146 0 -270.5 -52.5t-208.5 -143t-131.5 -212t-47.5 -257.5t47.5 -258t132 -212t208 -143t268.5 -53q254 0 448 158v-119q-86 -64 -203.5 -100.5t-244.5 -36.5q-215 0 -389.5 101.5t-272.5 276t-98 386.5q0 158 58 299.5t158 243.5t241.5 161.5t302.5 59.5t302.5 -60
t240 -161t155.5 -239t57 -290q0 -186 -81.5 -297.5t-229.5 -111.5q-160 0 -225 129q-120 -129 -281 -129q-140 0 -234.5 97.5t-94.5 256.5q0 90 33.5 174t97.5 145q117 117 286 117q91 0 209 -49z" />
    <glyph glyph-name="A" unicode="A" horiz-adv-x="1400" 
d="M381 543h635l-148 329q-134 303 -168 383h-4q-60 -140 -168 -381zM1257 0l-190 428h-737l-193 -428h-131l690 1530h4l695 -1530h-138z" />
    <glyph glyph-name="B" unicode="B" horiz-adv-x="1273" 
d="M184 0v1483h363q144 0 234.5 -18.5t158.5 -61.5q80 -51 124 -131t44 -176q0 -128 -71 -215.5t-195 -120.5v-4q136 -27 215.5 -119.5t79.5 -230.5q0 -100 -42.5 -181.5t-119.5 -134.5q-70 -47 -167.5 -68.5t-260.5 -21.5h-363zM309 115h240q140 0 219.5 17t132.5 54
q111 78 111 222q0 133 -102.5 210.5t-270.5 77.5h-330v-581zM309 1368v-561h324q155 0 252.5 73t97.5 207q0 143 -119 220q-52 33 -124.5 47t-198.5 14h-232z" />
    <glyph glyph-name="C" unicode="C" horiz-adv-x="1386" 
d="M1278 223v-141q-178 -105 -412 -105q-221 0 -397.5 100.5t-273.5 274.5t-97 387q0 158 56 298.5t155 243.5t243 163.5t312 60.5q203 0 389 -94v-139q-172 117 -389 117q-186 0 -333.5 -86.5t-227.5 -234t-80 -327.5q0 -135 47 -254t130.5 -205.5t205.5 -137t264 -50.5
q227 0 408 129z" />
    <glyph glyph-name="D" unicode="D" horiz-adv-x="1509" 
d="M184 0v1483h379q352 0 565 -152q136 -98 213.5 -252t77.5 -334q0 -173 -70 -319.5t-186 -243.5q-110 -92 -262 -137t-364 -45h-353zM309 115h244q338 0 520 147q103 83 162 208t59 271q0 154 -63.5 282t-171.5 210q-178 135 -508 135h-242v-1253z" />
    <glyph glyph-name="E" unicode="E" horiz-adv-x="1130" 
d="M184 0v1483h822v-115h-697v-547h617v-114h-617v-592h715v-115h-840z" />
    <glyph glyph-name="F" unicode="F" horiz-adv-x="1124" 
d="M184 0v1483h842v-115h-717v-575h637v-115h-637v-678h-125z" />
    <glyph glyph-name="G" unicode="G" horiz-adv-x="1492" 
d="M838 596v115h501v-600q-98 -64 -222 -99t-255 -35q-164 0 -306.5 58.5t-242.5 160t-157.5 242.5t-57.5 301q0 213 96 387.5t274 276.5t404 102q223 0 424 -108v-144q-187 136 -428 136q-189 0 -337.5 -87t-228 -234t-79.5 -327q0 -134 46.5 -252.5t129.5 -206.5
t205.5 -139t267.5 -51q190 0 342 84v420h-376z" />
    <glyph glyph-name="H" unicode="H" horiz-adv-x="1515" 
d="M184 0v1483h125v-662h897v662h125v-1483h-125v707h-897v-707h-125z" />
    <glyph glyph-name="I" unicode="I" horiz-adv-x="493" 
d="M184 0v1483h125v-1483h-125z" />
    <glyph glyph-name="J" unicode="J" horiz-adv-x="811" 
d="M78 23v120q113 -49 213 -49q54 0 92.5 15.5t61.5 40.5t36 66t17 83.5t4 101.5v1082h125v-1077q0 -126 -19 -201t-57 -123q-84 -105 -258 -105q-105 0 -215 46z" />
    <glyph glyph-name="K" unicode="K" horiz-adv-x="1257" 
d="M184 0v1483h125v-697l4 -2l717 699h158l-729 -707l790 -776h-168l-768 756l-4 -2v-754h-125z" />
    <glyph glyph-name="L" unicode="L" horiz-adv-x="1122" 
d="M184 0v1483h125v-1368h735v-115h-860z" />
    <glyph glyph-name="M" unicode="M" horiz-adv-x="1847" 
d="M184 0v1528l4 2l736 -830l735 830l4 -2v-1528h-125v883q0 227 2 327l-4 2q-113 -132 -229 -262l-385 -434l-385 434q-142 159 -230 262l-4 -2q2 -100 2 -327v-883h-121z" />
    <glyph glyph-name="N" unicode="N" horiz-adv-x="1566" 
d="M1378 -47l-798 932q-162 189 -273 319l-4 -2q2 -127 2 -385v-817h-121v1528l4 2l799 -932q162 -189 273 -319l4 2q-2 127 -2 385v817h120v-1528z" />
    <glyph glyph-name="O" unicode="O" horiz-adv-x="1687" 
d="M96 741q0 211 97.5 386.5t269.5 276.5t381 101q157 0 296 -59.5t237.5 -161.5t156 -243.5t57.5 -299.5t-57.5 -299.5t-156 -243.5t-237.5 -161.5t-296 -59.5q-209 0 -381 101t-269.5 276.5t-97.5 386.5zM221 741q0 -178 80 -326t223 -234.5t320 -86.5q176 0 319.5 86.5
t223 234.5t79.5 326t-79.5 326.5t-223 235t-319.5 86.5t-319.5 -86.5t-223.5 -235t-80 -326.5z" />
    <glyph glyph-name="P" unicode="P" horiz-adv-x="1245" 
d="M184 0v1483h369q149 0 252 -21t182 -73q180 -122 180 -340q0 -111 -46 -198t-128 -144q-79 -54 -190 -75.5t-273 -21.5h-221v-610h-125zM309 723h236q151 0 233.5 18.5t141.5 59.5q120 87 120 243q0 165 -131 252q-63 40 -147 56t-217 16h-236v-645z" />
    <glyph glyph-name="Q" unicode="Q" horiz-adv-x="1687" 
d="M221 741q0 -178 80 -326t223 -234.5t320 -86.5q176 0 319.5 86.5t223 234.5t79.5 326t-79.5 326.5t-223 235t-319.5 86.5t-319.5 -86.5t-223.5 -235t-80 -326.5zM1235 -383l-215 381q-86 -21 -176 -21q-209 0 -381 101t-269.5 276.5t-97.5 386.5t97.5 386.5t269.5 276.5
t381 101q157 0 296 -59.5t237.5 -161.5t156 -243.5t57.5 -299.5q0 -239 -124 -429t-330 -277l249 -418h-151z" />
    <glyph glyph-name="R" unicode="R" horiz-adv-x="1292" 
d="M1096 0l-478 653h-309v-653h-125v1483h381q137 0 235.5 -20t174.5 -70q79 -52 125.5 -134t46.5 -188q0 -100 -42 -182t-114 -135q-87 -63 -233 -90l489 -664h-151zM309 762h295q115 0 191.5 21t132.5 67q94 79 94 215q0 152 -121 235q-57 38 -136 53t-208 15h-248v-606z
" />
    <glyph glyph-name="S" unicode="S" horiz-adv-x="1136" 
d="M135 111v141q95 -80 207 -119t219 -39q152 0 245 78.5t93 214.5q0 44 -11.5 82t-28 65t-48 51.5t-57 39.5t-70 32t-72 25.5t-77.5 22.5q-73 20 -124.5 38.5t-111.5 51.5t-97 73t-62 101.5t-25 138.5q0 181 120 289t320 108q107 0 214 -33t189 -90v-137
q-91 69 -197.5 106.5t-205.5 37.5q-144 0 -229.5 -72.5t-85.5 -198.5q0 -57 23.5 -103.5t46.5 -72.5t85.5 -54.5t88.5 -37t106 -31.5q8 -3 12 -4q74 -21 129 -42.5t113 -56.5t95 -77.5t61 -104.5t24 -139q0 -193 -127 -305.5t-332 -112.5q-116 0 -231 36t-199 98z" />
    <glyph glyph-name="T" unicode="T" horiz-adv-x="1267" 
d="M571 0v1368h-510v115h1145v-115h-510v-1368h-125z" />
    <glyph glyph-name="U" unicode="U" horiz-adv-x="1480" 
d="M1315 1483v-766q0 -190 -22.5 -311.5t-82.5 -212.5q-70 -104 -189.5 -160t-281.5 -56q-296 0 -444 187q-73 92 -101 221t-28 320v778h125v-768q0 -175 23 -288t79 -185q114 -148 352 -148q132 0 224.5 46t144.5 128q45 72 62.5 176.5t17.5 266.5v772h121z" />
    <glyph glyph-name="V" unicode="V" horiz-adv-x="1335" 
d="M150 1483l344 -811q129 -305 174 -416h4q65 158 174 414l346 813h131l-653 -1530h-4l-654 1530h138z" />
    <glyph glyph-name="W" unicode="W" horiz-adv-x="2062" 
d="M156 1483l280 -776q97 -270 144 -404h4q78 220 145 402l303 823h4l303 -823q93 -253 146 -402h4q80 231 143 404l281 776h131l-553 -1528h-4l-336 911q-70 191 -117 324h-4q-51 -146 -119 -330l-331 -905h-5l-557 1528h138z" />
    <glyph glyph-name="X" unicode="X" horiz-adv-x="1327" 
d="M25 0l559 786l-490 697h148l221 -318q62 -88 201 -293h4q16 23 84.5 124t109.5 159l230 328h141l-490 -697l560 -786h-148l-274 387q-94 132 -217 313h-5q-146 -210 -219 -313l-274 -387h-141z" />
    <glyph glyph-name="Y" unicode="Y" horiz-adv-x="1318" 
d="M598 0v662l-573 821h145l238 -342q96 -138 251 -367h5q109 162 251 367l238 342h141l-571 -819v-664h-125z" />
    <glyph glyph-name="Z" unicode="Z" horiz-adv-x="1267" 
d="M1182 0h-1125l-2 4l920 1360l-2 4h-867v115h1090l2 -4l-919 -1360l2 -4h901v-115z" />
    <glyph glyph-name="bracketleft" unicode="[" horiz-adv-x="692" 
d="M307 -338h305v-98h-415v1958h415v-99h-305v-1761z" />
    <glyph glyph-name="backslash" unicode="\" horiz-adv-x="894" 
d="M739 -78l-688 1639h105l688 -1639h-105z" />
    <glyph glyph-name="bracketright" unicode="]" horiz-adv-x="692" 
d="M80 -338h305v1761h-305v99h416v-1958h-416v98z" />
    <glyph glyph-name="asciicircum" unicode="^" horiz-adv-x="1196" 
d="M168 741l428 764h4l428 -764h-106l-322 584h-4l-322 -584h-106z" />
    <glyph glyph-name="underscore" unicode="_" horiz-adv-x="946" 
d="M0 -199h946v-75h-946v75z" />
    <glyph glyph-name="grave" unicode="`" horiz-adv-x="995" 
d="M508 1153l-215 336h133l176 -336h-94z" />
    <glyph glyph-name="a" unicode="a" 
d="M913 92l-4 2q-60 -54 -143.5 -85.5t-177.5 -31.5q-101 0 -189.5 37t-153.5 103.5t-103 162.5t-38 209q0 150 63 272.5t182 195.5t272 73q145 0 297 -76l116 21v-975h-121v92zM913 215v623q-142 84 -292 84q-178 0 -287 -120.5t-109 -303.5q0 -180 104 -296t275 -116
q183 0 309 129z" />
    <glyph glyph-name="b" unicode="b" horiz-adv-x="1208" 
d="M178 27v1538h121v-645l4 -2q147 112 320 112q207 0 346 -145t139 -371q0 -151 -65.5 -273.5t-185 -193t-271.5 -70.5q-144 0 -291 70zM299 160q145 -76 291 -76q179 0 288 121.5t109 302.5q0 179 -105.5 296.5t-273.5 117.5q-180 0 -309 -129v-633z" />
    <glyph glyph-name="c" unicode="c" horiz-adv-x="1042" 
d="M926 184v-133q-129 -74 -293 -74q-232 0 -381.5 149.5t-149.5 373.5q0 229 153 379.5t386 150.5q145 0 268 -63v-129q-127 82 -272 82q-183 0 -298.5 -119.5t-115.5 -300.5q0 -180 117 -296t297 -116q169 0 289 96z" />
    <glyph glyph-name="d" unicode="d" 
d="M913 94l-4 2q-133 -119 -323 -119q-100 0 -188.5 36.5t-153.5 101.5t-102.5 161t-37.5 209q0 111 36.5 210.5t102.5 173.5t164.5 117.5t215.5 43.5q134 0 286 -72l4 3v604h121v-1565h-121v94zM913 213v627q-140 82 -286 82q-183 0 -292.5 -122t-109.5 -306
q0 -179 104 -293.5t275 -114.5q182 0 309 127z" />
    <glyph glyph-name="e" unicode="e" horiz-adv-x="1159" 
d="M227 571h703q-1 78 -23.5 140t-56.5 100.5t-79 64.5t-87.5 36t-85.5 10q-142 0 -246.5 -97t-124.5 -254zM989 203v-131q-70 -44 -162 -69.5t-184 -25.5q-153 0 -276 66t-193 186.5t-70 274.5q0 114 39.5 213t107 167t159 107t192.5 39q190 0 318.5 -128t128.5 -345
q0 -23 -5 -86h-819q10 -177 129 -281t297 -104q180 0 338 117z" />
    <glyph glyph-name="f" unicode="f" horiz-adv-x="704" 
d="M690 1567v-109q-68 21 -147 21q-60 0 -100 -19t-60.5 -58t-28.5 -85.5t-8 -112.5v-196h311v-107h-311v-901h-121v901h-225l-2 4l92 103h135v188q0 110 20 185.5t70 123.5q85 82 228 82q79 0 147 -20z" />
    <glyph glyph-name="g" unicode="g" horiz-adv-x="1206" 
d="M231 -395v129q151 -96 312 -96q168 0 266 96t98 264v111l-4 2q-130 -113 -315 -113q-207 0 -345.5 141.5t-138.5 360.5q0 85 21.5 164t65 145.5t104 116.5t142.5 78t177 28q151 0 297 -78l117 21v-975q0 -216 -129.5 -344.5t-355.5 -128.5q-169 0 -312 78zM907 229v607
q-132 86 -295 86q-173 0 -279 -118.5t-106 -295.5q0 -175 105 -288.5t272 -113.5q86 0 166 32.5t137 90.5z" />
    <glyph glyph-name="h" unicode="h" 
d="M178 0v1565h121v-699l4 -2q177 166 387 166q162 0 258 -102q47 -51 68.5 -121t21.5 -180v-627h-120v604q0 95 -15 150t-51 92q-66 72 -182 72q-197 0 -371 -181v-737h-121z" />
    <glyph glyph-name="i" unicode="i" horiz-adv-x="477" 
d="M178 0v1008h121v-1008h-121zM150 1360q0 37 26 62.5t64 25.5q37 0 62.5 -26t25.5 -64q0 -37 -26 -62.5t-64 -25.5q-37 0 -62.5 26t-25.5 64z" />
    <glyph glyph-name="j" unicode="j" horiz-adv-x="481" 
d="M182 -145v1153h121v-1147q0 -175 -65 -250q-73 -84 -215 -84q-53 0 -111 14v109q70 -12 108 -12q93 0 127.5 54t34.5 163zM154 1360q0 37 26 62.5t64 25.5q37 0 62.5 -26t25.5 -64q0 -37 -26 -62.5t-64 -25.5q-37 0 -62.5 26t-25.5 64z" />
    <glyph glyph-name="k" unicode="k" horiz-adv-x="1034" 
d="M178 0v1565h121v-1002l2 -2l510 447h156l-516 -451l569 -557h-162l-557 549l-2 -2v-547h-121z" />
    <glyph glyph-name="l" unicode="l" horiz-adv-x="477" 
d="M178 0v1565h121v-1565h-121z" />
    <glyph glyph-name="m" unicode="m" horiz-adv-x="1914" 
d="M1620 0v612q0 167 -64 236q-64 70 -182 70q-96 0 -189.5 -48.5t-170.5 -128.5q6 -49 6 -108v-633h-121v612q0 91 -13.5 145t-47.5 91q-67 70 -185 70q-181 0 -354 -173v-745h-121v1008h121v-138l4 -2q176 162 373 162q104 0 188 -46.5t123 -139.5q195 186 408 186
q166 0 258 -100q46 -50 67 -119t21 -178v-633h-121z" />
    <glyph glyph-name="n" unicode="n" 
d="M178 0v1008h121v-142l4 -2q180 166 387 166q162 0 258 -102q47 -51 68.5 -121t21.5 -180v-627h-120v604q0 172 -64 242q-66 72 -188 72q-99 0 -194 -49.5t-173 -131.5v-737h-121z" />
    <glyph glyph-name="o" unicode="o" horiz-adv-x="1249" 
d="M102 504q0 147 67.5 267.5t187.5 189.5t268 69q111 0 208.5 -40.5t166 -110.5t108 -167.5t39.5 -207.5q0 -147 -67 -267.5t-187 -190t-268 -69.5t-268 69.5t-187.5 190t-67.5 267.5zM223 504q0 -178 115 -297t287 -119t286.5 119t114.5 297t-114.5 297t-286.5 119
t-287 -119t-115 -297z" />
    <glyph glyph-name="p" unicode="p" 
d="M299 63v-514h-121v1459h121v-86l4 -2q148 110 318 110q211 0 349 -148t138 -376q0 -232 -143.5 -380.5t-362.5 -148.5q-161 0 -299 89zM299 188q60 -47 139.5 -75.5t163.5 -28.5q172 0 278.5 116.5t106.5 299.5q0 181 -106 301.5t-277 120.5q-84 0 -164 -31.5t-141 -89.5
v-613z" />
    <glyph glyph-name="q" unicode="q" 
d="M913 86l-4 2q-141 -111 -315 -111q-209 0 -349.5 147t-140.5 372q0 150 64 271.5t183 192t270 70.5q145 0 297 -76l116 21v-1426h-121v537zM913 205v633q-145 84 -295 84q-177 0 -285 -120t-108 -298q0 -179 107 -299.5t274 -120.5q84 0 164.5 32t142.5 89z" />
    <glyph glyph-name="r" unicode="r" horiz-adv-x="718" 
d="M178 0v1008h121v-164l4 -2q61 81 146 128.5t180 47.5q32 0 59 -6v-117q-27 6 -63 6q-195 0 -326 -196v-705h-121z" />
    <glyph glyph-name="s" unicode="s" horiz-adv-x="966" 
d="M111 70v131q80 -55 178.5 -84t195.5 -29q124 0 195.5 46.5t71.5 133.5q0 34 -10.5 61t-35 46.5t-48 32.5t-65.5 24t-71 16.5t-80 14.5q-57 10 -98.5 20t-91.5 31.5t-81.5 49.5t-53 74t-21.5 105q0 136 103 211.5t276 75.5q93 0 184.5 -23t161.5 -63v-129
q-158 105 -350 105q-117 0 -185.5 -43.5t-68.5 -126.5q0 -37 16 -64.5t38.5 -44t65.5 -30.5t76.5 -21t92.5 -17q8 -1 12 -2q61 -11 105 -22.5t94 -33.5t81.5 -51.5t52.5 -77t21 -107.5q0 -145 -108 -223.5t-285 -78.5q-99 0 -197.5 25t-170.5 68z" />
    <glyph glyph-name="t" unicode="t" horiz-adv-x="731" 
d="M678 901h-367v-512q0 -168 56 -237q52 -64 157 -64q85 0 154 37v-113q-82 -35 -174 -35q-155 0 -234 95q-80 96 -80 297v532h-170l-2 4l289 320l4 -2v-215h367v-107z" />
    <glyph glyph-name="u" unicode="u" 
d="M913 143l-4 2q-175 -168 -383 -168q-170 0 -264 107q-46 53 -67 127.5t-21 187.5v609h121v-586q0 -187 63 -258q67 -76 191 -76q189 0 364 186v734h121v-1008h-121v143z" />
    <glyph glyph-name="v" unicode="v" horiz-adv-x="1069" 
d="M1036 1008l-499 -1053h-5l-499 1053h131l209 -445q127 -272 162 -348h4q69 151 161 348l209 445h127z" />
    <glyph glyph-name="w" unicode="w" horiz-adv-x="1679" 
d="M180 1008l172 -422q102 -249 140 -346h4q43 104 145 346l199 467h4l198 -467q118 -279 146 -346h4q66 167 139 346l172 422h125l-434 -1053h-4l-242 567q-25 57 -106 252h-4q-58 -138 -107 -252l-242 -567h-4l-434 1053h129z" />
    <glyph glyph-name="x" unicode="x" horiz-adv-x="1005" 
d="M860 0l-178 227q-98 125 -178 232h-4q-46 -61 -183 -236l-176 -223h-137l422 535l-373 473h144l157 -201q133 -172 150 -195h4q65 87 151 197l156 199h137l-370 -471l422 -537h-144z" />
    <glyph glyph-name="y" unicode="y" horiz-adv-x="1071" 
d="M334 -451h-129l272 560l-426 899h133l201 -426q113 -241 156 -336h4q113 245 155 334l203 428h127z" />
    <glyph glyph-name="z" unicode="z" horiz-adv-x="964" 
d="M899 0h-846l-2 4l641 889l-2 4h-600v111h819l2 -4l-641 -889l2 -4h627v-111z" />
    <glyph glyph-name="braceleft" unicode="{" horiz-adv-x="737" 
d="M291 -143v448q0 43 -3 69t-12.5 51.5t-28.5 39t-51.5 21.5t-80.5 8h-49v98h49q60 0 96 10.5t53 37t22 56.5t5 84v449q0 165 64 240t210 75q67 0 115 -10v-98q-48 10 -105 10q-100 0 -137 -52.5t-37 -176.5v-433q0 -101 -25.5 -160t-96.5 -79v-4q71 -20 96.5 -79
t25.5 -161v-432q0 -124 37 -176.5t137 -52.5q57 0 105 10v-99q-48 -10 -115 -10q-146 0 -210 75.5t-64 240.5z" />
    <glyph glyph-name="bar" unicode="|" horiz-adv-x="653" 
d="M276 -451v2089h101v-2089h-101z" />
    <glyph glyph-name="braceright" unicode="}" horiz-adv-x="737" 
d="M336 -131v432q0 101 26 160.5t97 79.5v4q-71 20 -97 79t-26 160v433q0 124 -37 176.5t-137 52.5q-57 0 -105 -10v98q48 10 115 10q146 0 210 -75t64 -240v-449q0 -54 5 -84t22.5 -56.5t53.5 -37t96 -10.5h49v-98h-49q-60 0 -96 -10.5t-53.5 -37.5t-22.5 -57t-5 -84v-448
q0 -165 -64 -240.5t-210 -75.5q-67 0 -115 10v99q48 -10 105 -10q100 0 137 52.5t37 176.5z" />
    <glyph glyph-name="asciitilde" unicode="~" horiz-adv-x="1130" 
d="M979 852v-135q-30 -50 -82 -77.5t-113 -27.5q-55 0 -109 20.5t-130 61.5q-46 25 -69.5 37t-60 23.5t-69.5 11.5q-68 0 -111.5 -37.5t-78.5 -99.5l-4 2v135q30 50 81.5 77t112.5 27q55 0 110 -20.5t130 -61.5q45 -25 69 -37t60 -23t69 -11q68 0 112.5 37.5t78.5 99.5z" />
    <glyph glyph-name="uni00A0" unicode="&#xa0;" horiz-adv-x="501" 
 />
    <glyph glyph-name="exclamdown" unicode="&#xa1;" horiz-adv-x="643" 
d="M375 578l10 -1053h-127l10 1053h107zM418 934q0 -40 -28 -68t-68 -28t-68.5 28t-28.5 68t28.5 68t68.5 28t68 -28t28 -68z" />
    <glyph glyph-name="cent" unicode="&#xa2;" horiz-adv-x="1069" 
d="M541 -37v258q-197 31 -318 173t-121 341q0 202 121.5 346.5t317.5 178.5v260h100v-252q154 0 279 -66v-127q-133 82 -277 82q-187 0 -303.5 -119.5t-116.5 -300.5t117.5 -296t300.5 -115q171 0 295 96v-131q-122 -73 -295 -76v-252h-100z" />
    <glyph glyph-name="sterling" unicode="&#xa3;" horiz-adv-x="1148" 
d="M358 115h684v-115h-901v4l49 64q75 95 119.5 190.5t44.5 208.5q0 97 -32 195h-162v102h129q-24 65 -38 107t-26 103t-12 116q0 192 128.5 303.5t322.5 111.5q93 0 179 -26t146 -68v-137q-142 115 -321 115q-143 0 -236.5 -81.5t-93.5 -224.5q0 -26 3.5 -55t8 -50.5
t14.5 -55.5t15 -49.5t19 -56t18 -52.5h407v-102h-374q28 -107 28 -195q0 -191 -119 -352z" />
    <glyph glyph-name="currency" unicode="&#xa4;" horiz-adv-x="1245" 
d="M287 717q0 -143 96 -240.5t240 -97.5t239.5 97.5t95.5 240.5t-95.5 240.5t-239.5 97.5t-240 -97.5t-96 -240.5zM121 301l151 150q-86 116 -86 266t86 266l-151 150l80 79l149 -149q117 90 273 90q155 0 272 -90l149 149l80 -79l-151 -150q86 -116 86 -266t-86 -266
l151 -150l-80 -80l-149 150q-117 -90 -272 -90q-156 0 -273 90l-149 -150z" />
    <glyph glyph-name="yen" unicode="&#xa5;" horiz-adv-x="1347" 
d="M182 858v98h279l-371 527h146l184 -262q126 -179 252 -363h4q80 117 252 363l184 262h141l-372 -527h282v-98h-350l-78 -113v-172h428v-100h-428v-473h-125v473h-428v100h428v172l-80 113h-348z" />
    <glyph glyph-name="brokenbar" unicode="&#xa6;" horiz-adv-x="653" 
d="M276 836v802h101v-802h-101zM276 352h101v-803h-101v803z" />
    <glyph glyph-name="section" unicode="&#xa7;" horiz-adv-x="1136" 
d="M248 -113q150 -96 305 -96q116 0 189 54.5t73 156.5q0 32 -9.5 59.5t-21.5 48t-40.5 42t-49 34t-66.5 32t-72 29.5t-85 32q-60 22 -101.5 40t-93.5 50t-83.5 66.5t-53.5 86.5t-22 113q0 110 62 184.5t169 108.5v4q-131 93 -131 244q0 147 105.5 233t265.5 86
q157 0 284 -76v-121q-134 88 -282 88q-112 0 -183 -54t-71 -152q0 -55 19 -93.5t76 -73t95 -51t143 -54.5q5 -2 7 -3q54 -20 88.5 -35t81 -39t75.5 -50t57 -61t41 -79.5t13 -97.5q0 -112 -61 -185t-166 -104v-4q129 -87 129 -248q0 -150 -105.5 -234.5t-273.5 -84.5
q-86 0 -167.5 22t-139.5 57v125zM618 809q-133 50 -159 61q-223 -51 -223 -225q0 -33 9 -61.5t21.5 -50t38 -42t47 -35t60 -31.5t65.5 -27.5t74 -28.5q90 -33 145 -60q217 48 217 226q0 44 -15 81t-38.5 63t-64.5 50.5t-79.5 41t-97.5 38.5z" />
    <glyph glyph-name="dieresis" unicode="&#xa8;" horiz-adv-x="995" 
d="M602 1321q0 35 24.5 59.5t59.5 24.5t59.5 -24.5t24.5 -59.5t-24.5 -59.5t-59.5 -24.5t-59.5 24.5t-24.5 59.5zM225 1321q0 35 24.5 59.5t59.5 24.5t59.5 -24.5t24.5 -59.5t-24.5 -59.5t-59.5 -24.5t-59.5 24.5t-24.5 59.5z" />
    <glyph glyph-name="copyright" unicode="&#xa9;" horiz-adv-x="1683" 
d="M80 741q0 212 99 387t274 276t389 101q215 0 390 -101t273.5 -275.5t98.5 -387.5t-98.5 -387.5t-273.5 -275.5t-390 -101q-214 0 -389 101t-274 276t-99 387zM184 741q0 -185 82.5 -336t233.5 -239t342 -88t342 88t233 239t82 336q0 139 -48.5 261t-133.5 211
t-208.5 140.5t-266.5 51.5q-191 0 -342 -88t-233.5 -239.5t-82.5 -336.5zM1114 516v-121q-98 -61 -240 -61q-186 0 -305.5 118t-119.5 296q0 181 121 301t309 120q124 0 223 -55v-119q-106 72 -223 72q-139 0 -228.5 -91t-89.5 -226q0 -137 89.5 -224.5t230.5 -87.5
q136 0 233 78z" />
    <glyph glyph-name="ordfeminine" unicode="&#xaa;" horiz-adv-x="806" 
d="M602 891l-4 2q-85 -72 -201 -72q-135 0 -225 92t-90 240q0 152 94 252t246 100q92 0 180 -43l94 17v-643h-94v55zM602 981v389q-89 51 -180 51q-110 0 -177 -74.5t-67 -187.5q0 -110 65 -183t169 -73q109 0 190 78z" />
    <glyph glyph-name="guillemotleft" unicode="&#xab;" horiz-adv-x="1114" 
d="M584 952l-342 -448l342 -449h-129l-342 449l342 448h129zM987 952l-342 -448l342 -449h-129l-342 449l342 448h129z" />
    <glyph glyph-name="logicalnot" unicode="&#xac;" horiz-adv-x="1196" 
d="M111 692v99h976v-553h-102v454h-874z" />
    <glyph glyph-name="uni00AD" unicode="&#xad;" horiz-adv-x="733" 
d="M129 514v107h477v-107h-477z" />
    <glyph glyph-name="registered" unicode="&#xae;" horiz-adv-x="921" 
d="M461 743q-166 0 -274.5 108.5t-108.5 272.5t108.5 272.5t274.5 108.5t274.5 -108.5t108.5 -272.5t-108.5 -272.5t-274.5 -108.5zM461 795q144 0 237 93t93 236t-93 236.5t-237 93.5t-237 -93.5t-93 -236.5t93 -236t237 -93zM563 918l-98 155h-78v-155h-61v413h139
q69 0 112.5 -34.5t43.5 -96.5q0 -44 -26 -74.5t-69 -44.5l109 -163h-72zM387 1126h76q44 0 69 19.5t25 54.5t-25 54.5t-69 19.5h-76v-148z" />
    <glyph glyph-name="macron" unicode="&#xaf;" horiz-adv-x="995" 
d="M227 1274v94h541v-94h-541z" />
    <glyph glyph-name="degree" unicode="&#xb0;" horiz-adv-x="802" 
d="M193 1204q0 -87 59 -148t149 -61q91 0 151 61t60 148t-60 147t-151 60q-90 0 -149 -60t-59 -147zM94 1204q0 127 88 214t219 87q132 0 220 -87t88 -214t-88 -214t-220 -87q-131 0 -219 87t-88 214z" />
    <glyph glyph-name="plusminus" unicode="&#xb1;" horiz-adv-x="1193" 
d="M547 487v394h-416v98h416v393h100v-393h416v-98h-416v-394h-100zM133 178v98h930v-98h-930z" />
    <glyph glyph-name="two.superior" unicode="&#xb2;" horiz-adv-x="737" 
d="M45 868l305 344q84 96 121 162t37 131q0 77 -51 123.5t-133 46.5q-123 0 -215 -102v110q91 84 221 84q122 0 200 -71t78 -189q0 -84 -44.5 -163.5t-135.5 -182.5l-180 -203l2 -4h395v-90h-598z" />
    <glyph glyph-name="three.superior" unicode="&#xb3;" horiz-adv-x="716" 
d="M104 1663v90h512l2 -4l-268 -346q141 -16 213 -91.5t72 -181.5q0 -122 -87 -201t-220 -79q-144 0 -246 84v115q110 -107 244 -107q93 0 151 51.5t58 134.5q0 93 -78 146t-215 53q-40 0 -58 -2l-2 4l256 330l-2 4h-332z" />
    <glyph glyph-name="acute" unicode="&#xb4;" horiz-adv-x="995" 
d="M702 1489l-215 -336h-94l176 336h133z" />
    <glyph glyph-name="mu" unicode="&#xb5;" horiz-adv-x="1226" 
d="M307 -451h-127v1459h121v-586q0 -186 64 -258q67 -76 190 -76q190 0 365 186v734h120v-1008h-120v143l-5 2q-175 -168 -383 -168q-70 0 -132.5 21.5t-100.5 62.5l-4 -2z" />
    <glyph glyph-name="paragraph" unicode="&#xb6;" horiz-adv-x="1128" 
d="M506 -451v1192q-155 0 -265 108.5t-110 262.5t110 262.5t265 108.5h393v-1934h-102v1837h-189v-1837h-102z" />
    <glyph glyph-name="periodcentered" unicode="&#xb7;" horiz-adv-x="612" 
d="M211 612q0 40 28 68.5t68 28.5t68 -28.5t28 -68.5t-28 -68t-68 -28t-68 28t-28 68z" />
    <glyph glyph-name="cedilla" unicode="&#xb8;" horiz-adv-x="995" 
d="M403 -168l66 215l80 -14l-39 -131q182 -41 182 -181q0 -79 -54 -126.5t-146 -47.5q-84 0 -160 37l26 82q72 -37 131 -37q46 0 77.5 23.5t31.5 62.5q0 102 -195 117z" />
    <glyph glyph-name="one.superior" unicode="&#xb9;" horiz-adv-x="661" 
d="M111 1597l313 179l4 -2v-910h-100v754l-217 -123v102z" />
    <glyph glyph-name="ordmasculine" unicode="&#xba;" horiz-adv-x="843" 
d="M422 821q-150 0 -244 96.5t-94 245.5t94 245.5t244 96.5t244 -96.5t94 -245.5t-94 -245.5t-244 -96.5zM422 907q107 0 175.5 71.5t68.5 184.5t-68.5 184.5t-175.5 71.5t-175.5 -71.5t-68.5 -184.5t68.5 -184.5t175.5 -71.5z" />
    <glyph glyph-name="guillemotright" unicode="&#xbb;" horiz-adv-x="1114" 
d="M127 55l342 449l-342 448h129l342 -448l-342 -449h-129zM530 55l342 449l-342 448h129l342 -448l-342 -449h-129z" />
    <glyph glyph-name="onequarter" unicode="&#xbc;" horiz-adv-x="1873" 
d="M489 -27h-114l983 1510h115zM1485 0v229h-467l-2 4l563 687l4 -2v-601h174v-88h-174v-229h-98zM1485 483q0 122 2 183l-4 2q-54 -70 -115 -144l-168 -205l2 -2h283v166zM127 1335l313 178l4 -2v-909h-100v754l-217 -123v102z" />
    <glyph glyph-name="onehalf" unicode="&#xbd;" horiz-adv-x="1949" 
d="M1196 4l305 344q84 96 121 162t37 131q0 77 -51 123.5t-133 46.5q-123 0 -215 -102v110q91 84 221 84q122 0 200 -71t78 -189q0 -84 -44.5 -163.5t-135.5 -182.5l-180 -203l2 -4h395v-90h-598zM489 -27h-114l983 1510h115zM127 1335l313 178l4 -2v-909h-100v754
l-217 -123v102z" />
    <glyph glyph-name="threequarters" unicode="&#xbe;" horiz-adv-x="1937" 
d="M141 1401v90h512l2 -4l-268 -346q141 -16 213 -91.5t72 -181.5q0 -122 -87 -201t-220 -79q-144 0 -246 84v114q109 -106 243 -106q93 0 151 51.5t58 134.5q0 94 -77.5 146.5t-214.5 52.5q-40 0 -58 -2l-2 4l256 330l-2 4h-332zM553 -27h-115l983 1510h115zM1548 0v229
h-467l-2 4l563 687l5 -2v-601h174v-88h-174v-229h-99zM1548 483q0 122 2 183l-4 2q-74 -95 -114 -144l-168 -205l2 -2h282v166z" />
    <glyph glyph-name="questiondown" unicode="&#xbf;" horiz-adv-x="954" 
d="M709 623l4 -353q-46 4 -92 4q-114 0 -204 -36.5t-144 -112t-54 -178.5q0 -143 95 -235.5t241 -92.5q134 0 252 76v-125q-114 -68 -256 -68q-193 0 -325 123.5t-132 313.5q0 194 141 317t367 123l2 244h105zM559 934q0 40 28 68t68 28t68.5 -28t28.5 -68t-28.5 -68
t-68.5 -28t-68 28t-28 68z" />
    <glyph glyph-name="Agrave" unicode="&#xc0;" horiz-adv-x="1400" 
d="M381 543h635l-148 329q-134 303 -168 383h-4q-60 -140 -168 -381zM1257 0l-190 428h-737l-193 -428h-131l690 1530h4l695 -1530h-138zM709 1597l-215 336h133l176 -336h-94z" />
    <glyph glyph-name="Aacute" unicode="&#xc1;" horiz-adv-x="1400" 
d="M381 543h635l-148 329q-134 303 -168 383h-4q-60 -140 -168 -381zM1257 0l-190 428h-737l-193 -428h-131l690 1530h4l695 -1530h-138zM903 1933l-215 -336h-94l176 336h133z" />
    <glyph glyph-name="Acircumflex" unicode="&#xc2;" horiz-adv-x="1400" 
d="M381 543h635l-148 329q-134 303 -168 383h-4q-60 -140 -168 -381zM1257 0l-190 428h-737l-193 -428h-131l690 1530h4l695 -1530h-138zM508 1606h-113l301 348h4l301 -348h-112l-191 204z" />
    <glyph glyph-name="Atilde" unicode="&#xc3;" horiz-adv-x="1400" 
d="M381 543h635l-148 329q-134 303 -168 383h-4q-60 -140 -168 -381zM1257 0l-190 428h-737l-193 -428h-131l690 1530h4l695 -1530h-138zM1010 1872v-115q-61 -90 -162 -90q-72 0 -162 55q-33 20 -49 29t-40 17t-46 8q-89 0 -160 -107l-4 2v115q61 90 162 90q67 0 162 -55
q33 -20 49 -29t40 -17t46 -8q89 0 160 107z" />
    <glyph glyph-name="Adieresis" unicode="&#xc4;" horiz-adv-x="1400" 
d="M381 543h635l-148 329q-134 303 -168 383h-4q-60 -140 -168 -381zM1257 0l-190 428h-737l-193 -428h-131l690 1530h4l695 -1530h-138zM803 1765q0 35 24.5 59.5t59.5 24.5t59.5 -24.5t24.5 -59.5t-24.5 -59.5t-59.5 -24.5t-59.5 24.5t-24.5 59.5zM426 1765
q0 35 24.5 59.5t59.5 24.5t59.5 -24.5t24.5 -59.5t-24.5 -59.5t-59.5 -24.5t-59.5 24.5t-24.5 59.5z" />
    <glyph glyph-name="Aring" unicode="&#xc5;" horiz-adv-x="1400" 
d="M381 543h635l-148 329q-134 303 -168 383h-4q-60 -140 -168 -381zM1257 0l-190 428h-737l-193 -428h-131l690 1530h4l695 -1530h-138zM698 1579q-98 0 -163.5 65t-65.5 162t65.5 162.5t163.5 65.5t164 -65.5t66 -162.5t-66 -162t-164 -65zM698 1653q68 0 110 44t42 109
t-42.5 109.5t-109.5 44.5t-109 -44.5t-42 -109.5t42 -109t109 -44z" />
    <glyph glyph-name="AE" unicode="&#xc6;" horiz-adv-x="1863" 
d="M938 543v362q0 246 2 369h-4q-114 -191 -207 -340l-240 -391h449zM1063 115h694v-115h-819v428h-520l-262 -428h-140l912 1483h811v-115h-676v-547h596v-114h-596v-592z" />
    <glyph glyph-name="Ccedilla" unicode="&#xc7;" horiz-adv-x="1386" 
d="M866 -23h-32l-23 -75q182 -41 182 -181q0 -79 -54 -126.5t-146 -47.5q-84 0 -160 37l26 82q72 -37 132 -37q46 0 77 23.5t31 62.5q0 102 -194 117l47 154q-192 25 -341 129t-231 266.5t-82 357.5q0 158 56 298.5t155 243.5t243 163.5t312 60.5q203 0 389 -94v-139
q-172 117 -389 117q-186 0 -333.5 -86.5t-227.5 -234t-80 -327.5q0 -135 47 -254t130.5 -205.5t205.5 -137t264 -50.5q227 0 408 129v-141q-178 -105 -412 -105z" />
    <glyph glyph-name="Egrave" unicode="&#xc8;" horiz-adv-x="1130" 
d="M184 0v1483h822v-115h-697v-547h617v-114h-617v-592h715v-115h-840zM608 1597l-215 336h133l176 -336h-94z" />
    <glyph glyph-name="Eacute" unicode="&#xc9;" horiz-adv-x="1130" 
d="M184 0v1483h822v-115h-697v-547h617v-114h-617v-592h715v-115h-840zM803 1933l-215 -336h-94l176 336h133z" />
    <glyph glyph-name="Ecircumflex" unicode="&#xca;" horiz-adv-x="1130" 
d="M184 0v1483h822v-115h-697v-547h617v-114h-617v-592h715v-115h-840zM408 1606h-113l301 348h4l301 -348h-113l-190 204z" />
    <glyph glyph-name="Edieresis" unicode="&#xcb;" horiz-adv-x="1130" 
d="M184 0v1483h822v-115h-697v-547h617v-114h-617v-592h715v-115h-840zM702 1765q0 35 24.5 59.5t59.5 24.5t59.5 -24.5t24.5 -59.5t-24.5 -59.5t-59.5 -24.5t-59.5 24.5t-24.5 59.5zM326 1765q0 35 24.5 59.5t59.5 24.5t59.5 -24.5t24.5 -59.5t-24.5 -59.5t-59.5 -24.5
t-59.5 24.5t-24.5 59.5z" />
    <glyph glyph-name="Igrave" unicode="&#xcc;" horiz-adv-x="493" 
d="M184 0v1483h125v-1483h-125zM256 1597l-215 336h133l176 -336h-94z" />
    <glyph glyph-name="Iacute" unicode="&#xcd;" horiz-adv-x="493" 
d="M184 0v1483h125v-1483h-125zM451 1933l-215 -336h-95l176 336h134z" />
    <glyph glyph-name="Icircumflex" unicode="&#xce;" horiz-adv-x="493" 
d="M184 0v1483h125v-1483h-125zM55 1606h-112l301 348h4l301 -348h-113l-190 204z" />
    <glyph glyph-name="Idieresis" unicode="&#xcf;" horiz-adv-x="493" 
d="M184 0v1483h125v-1483h-125zM350 1765q0 35 24.5 59.5t59.5 24.5t59.5 -24.5t24.5 -59.5t-24.5 -59.5t-59.5 -24.5t-59.5 24.5t-24.5 59.5zM-27 1765q0 35 24.5 59.5t59.5 24.5t59.5 -24.5t24.5 -59.5t-24.5 -59.5t-59.5 -24.5t-59.5 24.5t-24.5 59.5z" />
    <glyph glyph-name="Eth" unicode="&#xd0;" horiz-adv-x="1527" 
d="M10 705v104h193v674h379q352 0 565 -152q136 -98 213.5 -252t77.5 -334q0 -173 -70 -319.5t-186 -243.5q-110 -92 -262.5 -137t-364.5 -45h-352v705h-193zM328 115h243q339 0 521 147q103 83 162 208t59 271q0 153 -64 281.5t-172 210.5q-178 135 -508 135h-241v-559h350
v-104h-350v-590z" />
    <glyph glyph-name="Ntilde" unicode="&#xd1;" horiz-adv-x="1566" 
d="M1378 -47l-798 932q-162 189 -273 319l-4 -2q2 -127 2 -385v-817h-121v1528l4 2l799 -932q162 -189 273 -319l4 2q-2 127 -2 385v817h120v-1528zM1094 1872v-115q-61 -90 -162 -90q-72 0 -162 55q-33 20 -49 29t-40 17t-46 8q-89 0 -160 -107l-4 2v115q61 90 162 90
q67 0 162 -55q33 -20 49 -29t40 -17t46 -8q89 0 160 107z" />
    <glyph glyph-name="Ograve" unicode="&#xd2;" horiz-adv-x="1687" 
d="M96 741q0 211 97.5 386.5t269.5 276.5t381 101q157 0 296 -59.5t237.5 -161.5t156 -243.5t57.5 -299.5t-57.5 -299.5t-156 -243.5t-237.5 -161.5t-296 -59.5q-209 0 -381 101t-269.5 276.5t-97.5 386.5zM221 741q0 -178 80 -326t223 -234.5t320 -86.5q176 0 319.5 86.5
t223 234.5t79.5 326t-79.5 326.5t-223 235t-319.5 86.5t-319.5 -86.5t-223.5 -235t-80 -326.5zM854 1597l-215 336h133l176 -336h-94z" />
    <glyph glyph-name="Oacute" unicode="&#xd3;" horiz-adv-x="1687" 
d="M96 741q0 211 97.5 386.5t269.5 276.5t381 101q157 0 296 -59.5t237.5 -161.5t156 -243.5t57.5 -299.5t-57.5 -299.5t-156 -243.5t-237.5 -161.5t-296 -59.5q-209 0 -381 101t-269.5 276.5t-97.5 386.5zM221 741q0 -178 80 -326t223 -234.5t320 -86.5q176 0 319.5 86.5
t223 234.5t79.5 326t-79.5 326.5t-223 235t-319.5 86.5t-319.5 -86.5t-223.5 -235t-80 -326.5zM1049 1933l-215 -336h-95l176 336h134z" />
    <glyph glyph-name="Ocircumflex" unicode="&#xd4;" horiz-adv-x="1687" 
d="M96 741q0 211 97.5 386.5t269.5 276.5t381 101q157 0 296 -59.5t237.5 -161.5t156 -243.5t57.5 -299.5t-57.5 -299.5t-156 -243.5t-237.5 -161.5t-296 -59.5q-209 0 -381 101t-269.5 276.5t-97.5 386.5zM221 741q0 -178 80 -326t223 -234.5t320 -86.5q176 0 319.5 86.5
t223 234.5t79.5 326t-79.5 326.5t-223 235t-319.5 86.5t-319.5 -86.5t-223.5 -235t-80 -326.5zM653 1606h-112l301 348h4l301 -348h-113l-190 204z" />
    <glyph glyph-name="Otilde" unicode="&#xd5;" horiz-adv-x="1687" 
d="M96 741q0 211 97.5 386.5t269.5 276.5t381 101q157 0 296 -59.5t237.5 -161.5t156 -243.5t57.5 -299.5t-57.5 -299.5t-156 -243.5t-237.5 -161.5t-296 -59.5q-209 0 -381 101t-269.5 276.5t-97.5 386.5zM221 741q0 -178 80 -326t223 -234.5t320 -86.5q176 0 319.5 86.5
t223 234.5t79.5 326t-79.5 326.5t-223 235t-319.5 86.5t-319.5 -86.5t-223.5 -235t-80 -326.5zM1155 1872v-115q-61 -90 -162 -90q-72 0 -162 55q-33 20 -49 29t-40 17t-46 8q-88 0 -159 -107l-5 2v115q61 90 162 90q67 0 162 -55q33 -20 49 -29t40 -17t46 -8q89 0 160 107z
" />
    <glyph glyph-name="Odieresis" unicode="&#xd6;" horiz-adv-x="1687" 
d="M96 741q0 211 97.5 386.5t269.5 276.5t381 101q157 0 296 -59.5t237.5 -161.5t156 -243.5t57.5 -299.5t-57.5 -299.5t-156 -243.5t-237.5 -161.5t-296 -59.5q-209 0 -381 101t-269.5 276.5t-97.5 386.5zM221 741q0 -178 80 -326t223 -234.5t320 -86.5q176 0 319.5 86.5
t223 234.5t79.5 326t-79.5 326.5t-223 235t-319.5 86.5t-319.5 -86.5t-223.5 -235t-80 -326.5zM948 1765q0 35 24.5 59.5t59.5 24.5t59.5 -24.5t24.5 -59.5t-24.5 -59.5t-59.5 -24.5t-59.5 24.5t-24.5 59.5zM571 1765q0 35 24.5 59.5t59.5 24.5t59.5 -24.5t24.5 -59.5
t-24.5 -59.5t-59.5 -24.5t-59.5 24.5t-24.5 59.5z" />
    <glyph glyph-name="multiply" unicode="&#xd7;" horiz-adv-x="1193" 
d="M250 326l-68 67l346 348l-346 349l68 67l346 -348l348 348l68 -67l-348 -349l348 -348l-68 -67l-348 348z" />
    <glyph glyph-name="Oslash" unicode="&#xd8;" horiz-adv-x="1687" 
d="M391 289l828 977q-161 123 -375 123q-176 0 -319.5 -86.5t-223.5 -235t-80 -326.5q0 -130 44.5 -246.5t125.5 -205.5zM182 41l131 156q-103 104 -160 244.5t-57 299.5q0 211 97.5 386.5t269.5 276.5t381 101q254 0 452 -149l129 153l80 -67l-131 -156q103 -104 160 -245
t57 -300q0 -158 -57.5 -299.5t-156 -243.5t-237.5 -161.5t-296 -59.5q-254 0 -453 150l-129 -154zM1296 1194l-827 -977q161 -123 375 -123q176 0 319.5 86.5t223 234.5t79.5 326q0 130 -44.5 247t-125.5 206z" />
    <glyph glyph-name="Ugrave" unicode="&#xd9;" horiz-adv-x="1480" 
d="M1315 1483v-766q0 -190 -22.5 -311.5t-82.5 -212.5q-70 -104 -189.5 -160t-281.5 -56q-296 0 -444 187q-73 92 -101 221t-28 320v778h125v-768q0 -175 23 -288t79 -185q114 -148 352 -148q132 0 224.5 46t144.5 128q45 72 62.5 176.5t17.5 266.5v772h121zM752 1597
l-215 336h133l176 -336h-94z" />
    <glyph glyph-name="Uacute" unicode="&#xda;" horiz-adv-x="1480" 
d="M1315 1483v-766q0 -190 -22.5 -311.5t-82.5 -212.5q-70 -104 -189.5 -160t-281.5 -56q-296 0 -444 187q-73 92 -101 221t-28 320v778h125v-768q0 -175 23 -288t79 -185q114 -148 352 -148q132 0 224.5 46t144.5 128q45 72 62.5 176.5t17.5 266.5v772h121zM946 1933
l-215 -336h-94l176 336h133z" />
    <glyph glyph-name="Ucircumflex" unicode="&#xdb;" horiz-adv-x="1480" 
d="M1315 1483v-766q0 -190 -22.5 -311.5t-82.5 -212.5q-70 -104 -189.5 -160t-281.5 -56q-296 0 -444 187q-73 92 -101 221t-28 320v778h125v-768q0 -175 23 -288t79 -185q114 -148 352 -148q132 0 224.5 46t144.5 128q45 72 62.5 176.5t17.5 266.5v772h121zM551 1606h-113
l301 348h4l301 -348h-112l-191 204z" />
    <glyph glyph-name="Udieresis" unicode="&#xdc;" horiz-adv-x="1480" 
d="M1315 1483v-766q0 -190 -22.5 -311.5t-82.5 -212.5q-70 -104 -189.5 -160t-281.5 -56q-296 0 -444 187q-73 92 -101 221t-28 320v778h125v-768q0 -175 23 -288t79 -185q114 -148 352 -148q132 0 224.5 46t144.5 128q45 72 62.5 176.5t17.5 266.5v772h121zM846 1765
q0 35 24.5 59.5t59.5 24.5t59.5 -24.5t24.5 -59.5t-24.5 -59.5t-59.5 -24.5t-59.5 24.5t-24.5 59.5zM469 1765q0 35 24.5 59.5t59.5 24.5t59.5 -24.5t24.5 -59.5t-24.5 -59.5t-59.5 -24.5t-59.5 24.5t-24.5 59.5z" />
    <glyph glyph-name="Yacute" unicode="&#xdd;" horiz-adv-x="1318" 
d="M598 0v662l-573 821h145l238 -342q96 -138 251 -367h5q109 162 251 367l238 342h141l-571 -819v-664h-125zM868 1933l-215 -336h-94l176 336h133z" />
    <glyph glyph-name="Thorn" unicode="&#xde;" horiz-adv-x="1263" 
d="M184 0v1483h125v-305h262q147 0 251 -22t184 -73q180 -119 180 -338q0 -109 -46 -195t-128 -142q-79 -53 -190 -74t-273 -21h-240v-313h-125zM309 424h254q143 0 229.5 17t145.5 59q121 84 121 243q0 162 -131 246q-63 40 -148 57t-217 17h-254v-639z" />
    <glyph glyph-name="germandbls" unicode="&#xdf;" horiz-adv-x="1226" 
d="M178 0v1198q0 95 35.5 173t99.5 130q106 86 267 86q174 0 289.5 -99t115.5 -267q0 -110 -53.5 -193.5t-149.5 -118.5v-4q165 -37 256.5 -156.5t91.5 -283.5q0 -211 -140.5 -349.5t-352.5 -138.5q-88 0 -168 25v115q82 -29 166 -29q164 0 269.5 106.5t105.5 268.5
q0 161 -107.5 264.5t-294.5 103.5h-76v107h62q126 0 198 77.5t72 194.5q0 124 -78 195.5t-206 71.5q-114 0 -189 -62q-92 -79 -92 -215v-1200h-121z" />
    <glyph glyph-name="agrave" unicode="&#xe0;" 
d="M913 92l-4 2q-60 -54 -143.5 -85.5t-177.5 -31.5q-101 0 -189.5 37t-153.5 103.5t-103 162.5t-38 209q0 150 63 272.5t182 195.5t272 73q145 0 297 -76l116 21v-975h-121v92zM913 215v623q-142 84 -292 84q-178 0 -287 -120.5t-109 -303.5q0 -180 104 -296t275 -116
q183 0 309 129zM621 1153l-215 336h133l176 -336h-94z" />
    <glyph glyph-name="aacute" unicode="&#xe1;" 
d="M913 92l-4 2q-60 -54 -143.5 -85.5t-177.5 -31.5q-101 0 -189.5 37t-153.5 103.5t-103 162.5t-38 209q0 150 63 272.5t182 195.5t272 73q145 0 297 -76l116 21v-975h-121v92zM913 215v623q-142 84 -292 84q-178 0 -287 -120.5t-109 -303.5q0 -180 104 -296t275 -116
q183 0 309 129zM815 1489l-215 -336h-94l176 336h133z" />
    <glyph glyph-name="acircumflex" unicode="&#xe2;" 
d="M913 92l-4 2q-60 -54 -143.5 -85.5t-177.5 -31.5q-101 0 -189.5 37t-153.5 103.5t-103 162.5t-38 209q0 150 63 272.5t182 195.5t272 73q145 0 297 -76l116 21v-975h-121v92zM913 215v623q-142 84 -292 84q-178 0 -287 -120.5t-109 -303.5q0 -180 104 -296t275 -116
q183 0 309 129zM420 1161h-113l301 348h4l301 -348h-112l-191 205z" />
    <glyph glyph-name="atilde" unicode="&#xe3;" 
d="M913 92l-4 2q-60 -54 -143.5 -85.5t-177.5 -31.5q-101 0 -189.5 37t-153.5 103.5t-103 162.5t-38 209q0 150 63 272.5t182 195.5t272 73q145 0 297 -76l116 21v-975h-121v92zM913 215v623q-142 84 -292 84q-178 0 -287 -120.5t-109 -303.5q0 -180 104 -296t275 -116
q183 0 309 129zM922 1427v-114q-61 -90 -162 -90q-72 0 -162 55q-32 19 -48.5 28.5t-40.5 17t-46 7.5q-90 0 -160 -106l-4 2v114q27 40 69 65.5t93 25.5q65 0 162 -56q32 -19 48.5 -28.5t40.5 -17t46 -7.5q89 0 160 107z" />
    <glyph glyph-name="adieresis" unicode="&#xe4;" 
d="M913 92l-4 2q-60 -54 -143.5 -85.5t-177.5 -31.5q-101 0 -189.5 37t-153.5 103.5t-103 162.5t-38 209q0 150 63 272.5t182 195.5t272 73q145 0 297 -76l116 21v-975h-121v92zM913 215v623q-142 84 -292 84q-178 0 -287 -120.5t-109 -303.5q0 -180 104 -296t275 -116
q183 0 309 129zM715 1321q0 35 24.5 59.5t59.5 24.5t59.5 -24.5t24.5 -59.5t-24.5 -59.5t-59.5 -24.5t-59.5 24.5t-24.5 59.5zM338 1321q0 35 24.5 59.5t59.5 24.5t59.5 -24.5t24.5 -59.5t-24.5 -59.5t-59.5 -24.5t-59.5 24.5t-24.5 59.5z" />
    <glyph glyph-name="aring" unicode="&#xe5;" 
d="M913 92l-4 2q-60 -54 -143.5 -85.5t-177.5 -31.5q-101 0 -189.5 37t-153.5 103.5t-103 162.5t-38 209q0 150 63 272.5t182 195.5t272 73q145 0 297 -76l116 21v-975h-121v92zM913 215v623q-142 84 -292 84q-178 0 -287 -120.5t-109 -303.5q0 -180 104 -296t275 -116
q183 0 309 129zM610 1135q-98 0 -163.5 65t-65.5 162t65.5 162t163.5 65t164 -65t66 -162t-66 -162t-164 -65zM610 1208q67 0 109.5 44.5t42.5 109.5t-42.5 109.5t-109.5 44.5t-109 -44.5t-42 -109.5t42 -109.5t109 -44.5z" />
    <glyph glyph-name="ae" unicode="&#xe6;" horiz-adv-x="1910" 
d="M868 502v372q-117 48 -237 48q-189 0 -297.5 -119.5t-108.5 -304.5q0 -180 102.5 -296t268.5 -116q193 0 334 154q-62 118 -62 262zM989 571h694q0 110 -47.5 191.5t-120.5 120.5t-157 39q-140 0 -246 -96t-123 -255zM987 840l4 -2q57 90 156 141t217 51q89 0 168 -32.5
t138.5 -91.5t94.5 -149.5t35 -199.5q0 -40 -4 -86h-807q10 -122 69 -210.5t148.5 -131.5t198.5 -43q181 0 336 117v-131q-69 -44 -160.5 -69.5t-183.5 -25.5q-124 0 -231 47.5t-179 133.5q-175 -181 -397 -181q-210 0 -348 142.5t-138 369.5q0 113 37 211.5t104.5 171.5
t167 115.5t218.5 42.5q165 0 356 -80v-110z" />
    <glyph glyph-name="ccedilla" unicode="&#xe7;" horiz-adv-x="1042" 
d="M926 184v-133q-129 -74 -293 -74q-18 0 -39 3l-21 -78q183 -41 183 -181q0 -78 -54.5 -126t-146.5 -48q-84 0 -160 37l27 82q72 -37 131 -37q46 0 77.5 23.5t31.5 62.5q0 102 -195 117l45 158q-184 37 -297 177t-113 333q0 229 153 379.5t386 150.5q145 0 268 -63v-129
q-127 82 -272 82q-183 0 -298.5 -119.5t-115.5 -300.5q0 -180 117 -296t297 -116q169 0 289 96z" />
    <glyph glyph-name="egrave" unicode="&#xe8;" horiz-adv-x="1159" 
d="M227 571h703q-1 78 -23.5 140t-56.5 100.5t-79 64.5t-87.5 36t-85.5 10q-142 0 -246.5 -97t-124.5 -254zM989 203v-131q-70 -44 -162 -69.5t-184 -25.5q-153 0 -276 66t-193 186.5t-70 274.5q0 114 39.5 213t107 167t159 107t192.5 39q190 0 318.5 -128t128.5 -345
q0 -23 -5 -86h-819q10 -177 129 -281t297 -104q180 0 338 117zM600 1153l-215 336h133l176 -336h-94z" />
    <glyph glyph-name="eacute" unicode="&#xe9;" horiz-adv-x="1159" 
d="M227 571h703q-1 78 -23.5 140t-56.5 100.5t-79 64.5t-87.5 36t-85.5 10q-142 0 -246.5 -97t-124.5 -254zM989 203v-131q-70 -44 -162 -69.5t-184 -25.5q-153 0 -276 66t-193 186.5t-70 274.5q0 114 39.5 213t107 167t159 107t192.5 39q190 0 318.5 -128t128.5 -345
q0 -23 -5 -86h-819q10 -177 129 -281t297 -104q180 0 338 117zM795 1489l-215 -336h-95l177 336h133z" />
    <glyph glyph-name="ecircumflex" unicode="&#xea;" horiz-adv-x="1159" 
d="M227 571h703q-1 78 -23.5 140t-56.5 100.5t-79 64.5t-87.5 36t-85.5 10q-142 0 -246.5 -97t-124.5 -254zM989 203v-131q-70 -44 -162 -69.5t-184 -25.5q-153 0 -276 66t-193 186.5t-70 274.5q0 114 39.5 213t107 167t159 107t192.5 39q190 0 318.5 -128t128.5 -345
q0 -23 -5 -86h-819q10 -177 129 -281t297 -104q180 0 338 117zM399 1161h-112l301 348h4l301 -348h-113l-190 205z" />
    <glyph glyph-name="edieresis" unicode="&#xeb;" horiz-adv-x="1159" 
d="M227 571h703q-1 78 -23.5 140t-56.5 100.5t-79 64.5t-87.5 36t-85.5 10q-142 0 -246.5 -97t-124.5 -254zM989 203v-131q-70 -44 -162 -69.5t-184 -25.5q-153 0 -276 66t-193 186.5t-70 274.5q0 114 39.5 213t107 167t159 107t192.5 39q190 0 318.5 -128t128.5 -345
q0 -23 -5 -86h-819q10 -177 129 -281t297 -104q180 0 338 117zM694 1321q0 35 24.5 59.5t59.5 24.5t59.5 -24.5t24.5 -59.5t-24.5 -59.5t-59.5 -24.5t-59.5 24.5t-24.5 59.5zM317 1321q0 35 24.5 59.5t59.5 24.5t59.5 -24.5t24.5 -59.5t-24.5 -59.5t-59.5 -24.5t-59.5 24.5
t-24.5 59.5z" />
    <glyph glyph-name="igrave" unicode="&#xec;" horiz-adv-x="477" 
d="M178 0v1008h121v-1008h-121zM248 1153l-215 336h133l176 -336h-94z" />
    <glyph glyph-name="iacute" unicode="&#xed;" horiz-adv-x="477" 
d="M178 0v1008h121v-1008h-121zM442 1489l-215 -336h-94l176 336h133z" />
    <glyph glyph-name="icircumflex" unicode="&#xee;" horiz-adv-x="477" 
d="M178 0v1008h121v-1008h-121zM47 1161h-113l302 348h4l301 -348h-113l-190 205z" />
    <glyph glyph-name="idieresis" unicode="&#xef;" horiz-adv-x="477" 
d="M178 0v1008h121v-1008h-121zM342 1321q0 35 24.5 59.5t59.5 24.5t59.5 -24.5t24.5 -59.5t-24.5 -59.5t-59.5 -24.5t-59.5 24.5t-24.5 59.5zM-35 1321q0 35 24.5 59.5t59.5 24.5t59.5 -24.5t24.5 -59.5t-24.5 -59.5t-59.5 -24.5t-59.5 24.5t-24.5 59.5z" />
    <glyph glyph-name="eth" unicode="&#xf0;" horiz-adv-x="1193" 
d="M342 1118l-23 94l254 97q-105 83 -239 145l72 82q162 -78 284 -182l205 78l25 -95l-150 -57q163 -165 248.5 -367t85.5 -393q0 -133 -41.5 -238.5t-113 -171t-162.5 -99.5t-195 -34q-222 0 -363 144t-141 364t139.5 363t360.5 143q193 0 323 -123l4 2q-88 205 -258 367z
M209 489q0 -174 107.5 -287.5t279.5 -113.5q176 0 282.5 119t106.5 291q0 91 -32 166t-87 123t-125.5 74t-148.5 26q-169 0 -276 -112.5t-107 -285.5z" />
    <glyph glyph-name="ntilde" unicode="&#xf1;" 
d="M178 0v1008h121v-142l4 -2q180 166 387 166q162 0 258 -102q47 -51 68.5 -121t21.5 -180v-627h-120v604q0 172 -64 242q-66 72 -188 72q-99 0 -194 -49.5t-173 -131.5v-737h-121zM918 1427v-114q-61 -90 -162 -90q-72 0 -162 55q-32 19 -48.5 28.5t-40.5 17t-46 7.5
q-90 0 -160 -106l-4 2v114q27 40 69 65.5t93 25.5q64 0 161 -56q46 -28 75 -40.5t61 -12.5q88 0 159 107z" />
    <glyph glyph-name="ograve" unicode="&#xf2;" horiz-adv-x="1249" 
d="M102 504q0 147 67.5 267.5t187.5 189.5t268 69q111 0 208.5 -40.5t166 -110.5t108 -167.5t39.5 -207.5q0 -147 -67 -267.5t-187 -190t-268 -69.5t-268 69.5t-187.5 190t-67.5 267.5zM223 504q0 -178 115 -297t287 -119t286.5 119t114.5 297t-114.5 297t-286.5 119
t-287 -119t-115 -297zM635 1153l-215 336h133l176 -336h-94z" />
    <glyph glyph-name="oacute" unicode="&#xf3;" horiz-adv-x="1249" 
d="M102 504q0 147 67.5 267.5t187.5 189.5t268 69q111 0 208.5 -40.5t166 -110.5t108 -167.5t39.5 -207.5q0 -147 -67 -267.5t-187 -190t-268 -69.5t-268 69.5t-187.5 190t-67.5 267.5zM223 504q0 -178 115 -297t287 -119t286.5 119t114.5 297t-114.5 297t-286.5 119
t-287 -119t-115 -297zM829 1489l-215 -336h-94l176 336h133z" />
    <glyph glyph-name="ocircumflex" unicode="&#xf4;" horiz-adv-x="1249" 
d="M102 504q0 147 67.5 267.5t187.5 189.5t268 69q111 0 208.5 -40.5t166 -110.5t108 -167.5t39.5 -207.5q0 -147 -67 -267.5t-187 -190t-268 -69.5t-268 69.5t-187.5 190t-67.5 267.5zM223 504q0 -178 115 -297t287 -119t286.5 119t114.5 297t-114.5 297t-286.5 119
t-287 -119t-115 -297zM434 1161h-112l301 348h4l301 -348h-113l-190 205z" />
    <glyph glyph-name="otilde" unicode="&#xf5;" horiz-adv-x="1249" 
d="M102 504q0 147 67.5 267.5t187.5 189.5t268 69q111 0 208.5 -40.5t166 -110.5t108 -167.5t39.5 -207.5q0 -147 -67 -267.5t-187 -190t-268 -69.5t-268 69.5t-187.5 190t-67.5 267.5zM223 504q0 -178 115 -297t287 -119t286.5 119t114.5 297t-114.5 297t-286.5 119
t-287 -119t-115 -297zM936 1427v-114q-61 -90 -162 -90q-72 0 -162 55q-32 19 -48.5 28.5t-40.5 17t-46 7.5q-90 0 -160 -106l-4 2v114q27 40 69 65.5t93 25.5q65 0 162 -56q32 -19 48.5 -28.5t40.5 -17t46 -7.5q89 0 160 107z" />
    <glyph glyph-name="odieresis" unicode="&#xf6;" horiz-adv-x="1249" 
d="M102 504q0 147 67.5 267.5t187.5 189.5t268 69q111 0 208.5 -40.5t166 -110.5t108 -167.5t39.5 -207.5q0 -147 -67 -267.5t-187 -190t-268 -69.5t-268 69.5t-187.5 190t-67.5 267.5zM223 504q0 -178 115 -297t287 -119t286.5 119t114.5 297t-114.5 297t-286.5 119
t-287 -119t-115 -297zM729 1321q0 35 24.5 59.5t59.5 24.5t59.5 -24.5t24.5 -59.5t-24.5 -59.5t-59.5 -24.5t-59.5 24.5t-24.5 59.5zM352 1321q0 35 24.5 59.5t59.5 24.5t59.5 -24.5t24.5 -59.5t-24.5 -59.5t-59.5 -24.5t-59.5 24.5t-24.5 59.5z" />
    <glyph glyph-name="divide" unicode="&#xf7;" horiz-adv-x="1193" 
d="M506 1190q0 38 27 65t65 27t65 -27t27 -65t-27 -65t-65 -27t-65 27t-27 65zM111 692v99h974v-99h-974zM506 295q0 38 27 65t65 27t65 -27t27 -65t-27 -65t-65 -27t-65 27t-27 65z" />
    <glyph glyph-name="oslash" unicode="&#xf8;" horiz-adv-x="1249" 
d="M326 221l532 627q-101 72 -233 72q-172 0 -287 -119t-115 -297q0 -162 103 -283zM154 20l94 111q-69 72 -107.5 169t-38.5 204q0 147 67.5 267.5t187.5 189.5t268 69q175 0 307 -96l94 110l70 -57l-95 -110q69 -72 107.5 -169t38.5 -204q0 -147 -67 -267.5t-187 -190
t-268 -69.5q-174 0 -308 97l-94 -111zM924 786l-533 -626q101 -72 234 -72q172 0 286.5 119t114.5 297q0 162 -102 282z" />
    <glyph glyph-name="ugrave" unicode="&#xf9;" 
d="M913 143l-4 2q-175 -168 -383 -168q-170 0 -264 107q-46 53 -67 127.5t-21 187.5v609h121v-586q0 -187 63 -258q67 -76 191 -76q189 0 364 186v734h121v-1008h-121v143zM616 1153l-215 336h134l176 -336h-95z" />
    <glyph glyph-name="uacute" unicode="&#xfa;" 
d="M913 143l-4 2q-175 -168 -383 -168q-170 0 -264 107q-46 53 -67 127.5t-21 187.5v609h121v-586q0 -187 63 -258q67 -76 191 -76q189 0 364 186v734h121v-1008h-121v143zM811 1489l-215 -336h-94l176 336h133z" />
    <glyph glyph-name="ucircumflex" unicode="&#xfb;" 
d="M913 143l-4 2q-175 -168 -383 -168q-170 0 -264 107q-46 53 -67 127.5t-21 187.5v609h121v-586q0 -187 63 -258q67 -76 191 -76q189 0 364 186v734h121v-1008h-121v143zM416 1161h-113l301 348h4l301 -348h-112l-191 205z" />
    <glyph glyph-name="udieresis" unicode="&#xfc;" 
d="M913 143l-4 2q-175 -168 -383 -168q-170 0 -264 107q-46 53 -67 127.5t-21 187.5v609h121v-586q0 -187 63 -258q67 -76 191 -76q189 0 364 186v734h121v-1008h-121v143zM711 1321q0 35 24.5 59.5t59.5 24.5t59.5 -24.5t24.5 -59.5t-24.5 -59.5t-59.5 -24.5t-59.5 24.5
t-24.5 59.5zM334 1321q0 35 24.5 59.5t59.5 24.5t59.5 -24.5t24.5 -59.5t-24.5 -59.5t-59.5 -24.5t-59.5 24.5t-24.5 59.5z" />
    <glyph glyph-name="yacute" unicode="&#xfd;" horiz-adv-x="1071" 
d="M334 -451h-129l272 560l-426 899h133l201 -426q113 -241 156 -336h4q113 245 155 334l203 428h127zM748 1489l-216 -336h-94l176 336h134z" />
    <glyph glyph-name="thorn" unicode="&#xfe;" 
d="M178 -451v2016h121v-645l4 -2q148 112 320 112q208 0 346.5 -146.5t138.5 -373.5q0 -232 -145 -382.5t-369 -150.5q-146 0 -291 76l-4 -2v-502h-121zM299 799v-625q138 -90 297 -90q176 0 283.5 118.5t107.5 301.5q0 180 -105.5 299t-275.5 119q-174 0 -307 -123z" />
    <glyph glyph-name="ydieresis" unicode="&#xff;" horiz-adv-x="1071" 
d="M334 -451h-129l272 560l-426 899h133l201 -426q113 -241 156 -336h4q113 245 155 334l203 428h127zM647 1321q0 35 24.5 59.5t59.5 24.5t59.5 -24.5t24.5 -59.5t-24.5 -59.5t-59.5 -24.5t-59.5 24.5t-24.5 59.5zM270 1321q0 35 24.5 59.5t59.5 24.5t59.5 -24.5
t24.5 -59.5t-24.5 -59.5t-59.5 -24.5t-59.5 24.5t-24.5 59.5z" />
    <glyph glyph-name="Amacron" unicode="&#x100;" horiz-adv-x="1400" 
d="M381 543h635l-148 329q-134 303 -168 383h-4q-60 -140 -168 -381zM1257 0l-190 428h-737l-193 -428h-131l690 1530h4l695 -1530h-138zM428 1718v94h541v-94h-541z" />
    <glyph glyph-name="amacron" unicode="&#x101;" 
d="M913 92l-4 2q-60 -54 -143.5 -85.5t-177.5 -31.5q-101 0 -189.5 37t-153.5 103.5t-103 162.5t-38 209q0 150 63 272.5t182 195.5t272 73q145 0 297 -76l116 21v-975h-121v92zM913 215v623q-142 84 -292 84q-178 0 -287 -120.5t-109 -303.5q0 -180 104 -296t275 -116
q183 0 309 129zM340 1274v94h541v-94h-541z" />
    <glyph glyph-name="Abreve" unicode="&#x102;" horiz-adv-x="1400" 
d="M381 543h635l-148 329q-134 303 -168 383h-4q-60 -140 -168 -381zM1257 0l-190 428h-737l-193 -428h-131l690 1530h4l695 -1530h-138zM889 1911h80q-3 -128 -72.5 -210.5t-198.5 -82.5t-198 82.5t-72 210.5h80q8 -94 53.5 -153.5t136.5 -59.5t137 59.5t54 153.5z" />
    <glyph glyph-name="abreve" unicode="&#x103;" 
d="M913 92l-4 2q-60 -54 -143.5 -85.5t-177.5 -31.5q-101 0 -189.5 37t-153.5 103.5t-103 162.5t-38 209q0 150 63 272.5t182 195.5t272 73q145 0 297 -76l116 21v-975h-121v92zM913 215v623q-142 84 -292 84q-178 0 -287 -120.5t-109 -303.5q0 -180 104 -296t275 -116
q183 0 309 129zM801 1466h80q-3 -127 -72.5 -209.5t-198.5 -82.5t-198 82t-72 210h80q8 -94 53.5 -153.5t136.5 -59.5t137 59.5t54 153.5z" />
    <glyph glyph-name="Aogonek" unicode="&#x104;" horiz-adv-x="1400" 
d="M381 543h635l-148 329q-134 303 -168 383h-4q-60 -140 -168 -381zM700 1530l695 -1530q-84 -51 -139.5 -126.5t-55.5 -145.5q0 -53 31.5 -82t85.5 -29q41 0 78 12v-86q-43 -16 -97 -16q-94 0 -148 52.5t-54 137.5q0 77 44.5 154t112.5 137l-186 420h-737l-193 -428h-131
l690 1530h4z" />
    <glyph glyph-name="aogonek" unicode="&#x105;" 
d="M913 92l-4 2q-60 -54 -143.5 -85.5t-177.5 -31.5q-101 0 -189.5 37t-153.5 103.5t-103 162.5t-38 209q0 150 63 272.5t182 195.5t272 73q145 0 297 -76l116 21v-975q-83 -62 -128.5 -131.5t-45.5 -136.5q0 -57 31 -86t84 -29q37 0 78 12v-88q-51 -14 -97 -14
q-92 0 -146 52.5t-54 135.5q0 148 157 285v92zM913 215v623q-142 84 -292 84q-178 0 -287 -120.5t-109 -303.5q0 -180 104 -296t275 -116q183 0 309 129z" />
    <glyph glyph-name="Cacute" unicode="&#x106;" horiz-adv-x="1386" 
d="M1278 223v-141q-178 -105 -412 -105q-221 0 -397.5 100.5t-273.5 274.5t-97 387q0 158 56 298.5t155 243.5t243 163.5t312 60.5q203 0 389 -94v-139q-172 117 -389 117q-186 0 -333.5 -86.5t-227.5 -234t-80 -327.5q0 -135 47 -254t130.5 -205.5t205.5 -137t264 -50.5
q227 0 408 129zM1102 1933l-215 -336h-94l176 336h133z" />
    <glyph glyph-name="cacute" unicode="&#x107;" horiz-adv-x="1042" 
d="M926 184v-133q-129 -74 -293 -74q-232 0 -381.5 149.5t-149.5 373.5q0 229 153 379.5t386 150.5q145 0 268 -63v-129q-127 82 -272 82q-183 0 -298.5 -119.5t-115.5 -300.5q0 -180 117 -296t297 -116q169 0 289 96zM848 1489l-215 -336h-94l176 336h133z" />
    <glyph glyph-name="Ccircumflex" unicode="&#x108;" horiz-adv-x="1386" 
d="M1278 223v-141q-178 -105 -412 -105q-221 0 -397.5 100.5t-273.5 274.5t-97 387q0 158 56 298.5t155 243.5t243 163.5t312 60.5q203 0 389 -94v-139q-172 117 -389 117q-186 0 -333.5 -86.5t-227.5 -234t-80 -327.5q0 -135 47 -254t130.5 -205.5t205.5 -137t264 -50.5
q227 0 408 129zM604 1606h-112l301 348h4l301 -348h-113l-190 204z" />
    <glyph glyph-name="ccircumflex" unicode="&#x109;" horiz-adv-x="1042" 
d="M926 184v-133q-129 -74 -293 -74q-232 0 -381.5 149.5t-149.5 373.5q0 229 153 379.5t386 150.5q145 0 268 -63v-129q-127 82 -272 82q-183 0 -298.5 -119.5t-115.5 -300.5q0 -180 117 -296t297 -116q169 0 289 96zM391 1161h-112l301 348h4l301 -348h-113l-190 205z" />
    <glyph glyph-name="Cdotaccent" unicode="&#x10a;" horiz-adv-x="1386" 
d="M1278 223v-141q-178 -105 -412 -105q-221 0 -397.5 100.5t-273.5 274.5t-97 387q0 158 56 298.5t155 243.5t243 163.5t312 60.5q203 0 389 -94v-139q-172 117 -389 117q-186 0 -333.5 -86.5t-227.5 -234t-80 -327.5q0 -135 47 -254t130.5 -205.5t205.5 -137t264 -50.5
q227 0 408 129zM795 1681q-35 0 -59.5 24.5t-24.5 59.5t24.5 59.5t59.5 24.5t59.5 -24.5t24.5 -59.5t-24.5 -59.5t-59.5 -24.5z" />
    <glyph glyph-name="cdotaccent" unicode="&#x10b;" horiz-adv-x="1042" 
d="M926 184v-133q-129 -74 -293 -74q-232 0 -381.5 149.5t-149.5 373.5q0 229 153 379.5t386 150.5q145 0 268 -63v-129q-127 82 -272 82q-183 0 -298.5 -119.5t-115.5 -300.5q0 -180 117 -296t297 -116q169 0 289 96zM582 1237q-35 0 -59.5 24.5t-24.5 59.5t24.5 59.5
t59.5 24.5t59.5 -24.5t24.5 -59.5t-24.5 -59.5t-59.5 -24.5z" />
    <glyph glyph-name="Ccaron" unicode="&#x10c;" horiz-adv-x="1386" 
d="M1278 223v-141q-178 -105 -412 -105q-221 0 -397.5 100.5t-273.5 274.5t-97 387q0 158 56 298.5t155 243.5t243 163.5t312 60.5q203 0 389 -94v-139q-172 117 -389 117q-186 0 -333.5 -86.5t-227.5 -234t-80 -327.5q0 -135 47 -254t130.5 -205.5t205.5 -137t264 -50.5
q227 0 408 129zM985 1925h113l-301 -348h-4l-301 348h112l191 -205z" />
    <glyph glyph-name="ccaron" unicode="&#x10d;" horiz-adv-x="1042" 
d="M926 184v-133q-129 -74 -293 -74q-232 0 -381.5 149.5t-149.5 373.5q0 229 153 379.5t386 150.5q145 0 268 -63v-129q-127 82 -272 82q-183 0 -298.5 -119.5t-115.5 -300.5q0 -180 117 -296t297 -116q169 0 289 96zM772 1481h113l-301 -348h-4l-301 348h112l191 -205z
" />
    <glyph glyph-name="Dcaron" unicode="&#x10e;" horiz-adv-x="1509" 
d="M184 0v1483h379q352 0 565 -152q136 -98 213.5 -252t77.5 -334q0 -173 -70 -319.5t-186 -243.5q-110 -92 -262 -137t-364 -45h-353zM309 115h244q338 0 520 147q103 83 162 208t59 271q0 154 -63.5 282t-171.5 210q-178 135 -508 135h-242v-1253zM883 1925h112l-301 -348
h-4l-301 348h113l190 -205z" />
    <glyph glyph-name="dcaron" unicode="&#x10f;" horiz-adv-x="1380" 
d="M913 94l-4 2q-133 -119 -323 -119q-100 0 -188.5 36.5t-153.5 101.5t-102.5 161t-37.5 209q0 111 36.5 210.5t102.5 173.5t164.5 117.5t215.5 43.5q134 0 286 -72l4 3v604h121v-1565h-121v94zM913 213v627q-140 82 -286 82q-183 0 -292.5 -122t-109.5 -306
q0 -179 104 -293.5t275 -114.5q182 0 309 127zM1292 1565h119l-147 -447h-88z" />
    <glyph glyph-name="Dcroat" unicode="&#x110;" horiz-adv-x="1527" 
d="M10 705v104h193v674h379q352 0 565 -152q136 -98 213.5 -252t77.5 -334q0 -173 -70 -319.5t-186 -243.5q-110 -92 -262.5 -137t-364.5 -45h-352v705h-193zM328 115h243q339 0 521 147q103 83 162 208t59 271q0 153 -64 281.5t-172 210.5q-178 135 -508 135h-241v-559h350
v-104h-350v-590z" />
    <glyph glyph-name="dcroat" unicode="&#x111;" 
d="M528 1225v100h385v240h121v-240h150v-100h-150v-1225h-121v94l-4 2q-133 -119 -323 -119q-100 0 -188.5 36.5t-153.5 101.5t-102.5 161t-37.5 209q0 111 36.5 210.5t102.5 173.5t164.5 117.5t215.5 43.5q134 0 286 -72l4 3v264h-385zM913 213v627q-140 82 -286 82
q-183 0 -292.5 -122t-109.5 -306q0 -179 104 -293.5t275 -114.5q182 0 309 127z" />
    <glyph glyph-name="Emacron" unicode="&#x112;" horiz-adv-x="1130" 
d="M184 0v1483h822v-115h-697v-547h617v-114h-617v-592h715v-115h-840zM328 1718v94h540v-94h-540z" />
    <glyph glyph-name="emacron" unicode="&#x113;" horiz-adv-x="1159" 
d="M227 571h703q-1 78 -23.5 140t-56.5 100.5t-79 64.5t-87.5 36t-85.5 10q-142 0 -246.5 -97t-124.5 -254zM989 203v-131q-70 -44 -162 -69.5t-184 -25.5q-153 0 -276 66t-193 186.5t-70 274.5q0 114 39.5 213t107 167t159 107t192.5 39q190 0 318.5 -128t128.5 -345
q0 -23 -5 -86h-819q10 -177 129 -281t297 -104q180 0 338 117zM319 1274v94h541v-94h-541z" />
    <glyph glyph-name="Ebreve" unicode="&#x114;" horiz-adv-x="1130" 
d="M184 0v1483h822v-115h-697v-547h617v-114h-617v-592h715v-115h-840zM788 1911h80q-3 -128 -72 -210.5t-198 -82.5t-198 82.5t-72 210.5h80q8 -94 53.5 -153.5t136.5 -59.5t136.5 59.5t53.5 153.5z" />
    <glyph glyph-name="ebreve" unicode="&#x115;" horiz-adv-x="1159" 
d="M227 571h703q-1 78 -23.5 140t-56.5 100.5t-79 64.5t-87.5 36t-85.5 10q-142 0 -246.5 -97t-124.5 -254zM989 203v-131q-70 -44 -162 -69.5t-184 -25.5q-153 0 -276 66t-193 186.5t-70 274.5q0 114 39.5 213t107 167t159 107t192.5 39q190 0 318.5 -128t128.5 -345
q0 -23 -5 -86h-819q10 -177 129 -281t297 -104q180 0 338 117zM780 1466h80q-3 -128 -72 -210t-198 -82t-198.5 82.5t-72.5 209.5h80q8 -94 54 -153.5t137 -59.5t136.5 59.5t53.5 153.5z" />
    <glyph glyph-name="Edotaccent" unicode="&#x116;" horiz-adv-x="1130" 
d="M184 0v1483h822v-115h-697v-547h617v-114h-617v-592h715v-115h-840zM598 1681q-35 0 -59.5 24.5t-24.5 59.5t24.5 59.5t59.5 24.5t59.5 -24.5t24.5 -59.5t-24.5 -59.5t-59.5 -24.5z" />
    <glyph glyph-name="edotaccent" unicode="&#x117;" horiz-adv-x="1159" 
d="M227 571h703q-1 78 -23.5 140t-56.5 100.5t-79 64.5t-87.5 36t-85.5 10q-142 0 -246.5 -97t-124.5 -254zM989 203v-131q-70 -44 -162 -69.5t-184 -25.5q-153 0 -276 66t-193 186.5t-70 274.5q0 114 39.5 213t107 167t159 107t192.5 39q190 0 318.5 -128t128.5 -345
q0 -23 -5 -86h-819q10 -177 129 -281t297 -104q180 0 338 117zM590 1237q-35 0 -59.5 24.5t-24.5 59.5t24.5 59.5t59.5 24.5t59.5 -24.5t24.5 -59.5t-24.5 -59.5t-59.5 -24.5z" />
    <glyph glyph-name="Eogonek" unicode="&#x118;" horiz-adv-x="1130" 
d="M184 0v1483h822v-115h-697v-547h617v-114h-617v-592h715v-115q-90 -61 -142.5 -131.5t-52.5 -138.5q0 -54 31.5 -83.5t83.5 -29.5q42 0 80 12v-86q-43 -16 -94 -16q-95 0 -150 52.5t-55 135.5q0 73 42 146.5t112 134.5l-2 4h-693z" />
    <glyph glyph-name="eogonek" unicode="&#x119;" horiz-adv-x="1159" 
d="M227 571h703q-1 78 -23.5 140t-56.5 100.5t-79 64.5t-87.5 36t-85.5 10q-142 0 -246.5 -97t-124.5 -254zM760 -14v2q-72 -11 -117 -11q-153 0 -276 66t-193 186.5t-70 274.5q0 114 39.5 213t107 167t159 107t192.5 39q190 0 318.5 -128t128.5 -345q0 -23 -5 -86h-819
q10 -177 129 -281t297 -104q180 0 338 117v-131q-126 -87 -191 -177.5t-65 -162.5q0 -57 31.5 -86t85.5 -29q40 0 78 12v-88q-47 -14 -94 -14q-95 0 -150 52.5t-55 135.5q0 133 131 271z" />
    <glyph glyph-name="Ecaron" unicode="&#x11a;" horiz-adv-x="1130" 
d="M184 0v1483h822v-115h-697v-547h617v-114h-617v-592h715v-115h-840zM788 1925h113l-301 -348h-4l-301 348h113l190 -205z" />
    <glyph glyph-name="ecaron" unicode="&#x11b;" horiz-adv-x="1159" 
d="M227 571h703q-1 78 -23.5 140t-56.5 100.5t-79 64.5t-87.5 36t-85.5 10q-142 0 -246.5 -97t-124.5 -254zM989 203v-131q-70 -44 -162 -69.5t-184 -25.5q-153 0 -276 66t-193 186.5t-70 274.5q0 114 39.5 213t107 167t159 107t192.5 39q190 0 318.5 -128t128.5 -345
q0 -23 -5 -86h-819q10 -177 129 -281t297 -104q180 0 338 117zM780 1481h113l-301 -348h-4l-301 348h112l191 -205z" />
    <glyph glyph-name="Gcircumflex" unicode="&#x11c;" horiz-adv-x="1492" 
d="M838 596v115h501v-600q-98 -64 -222 -99t-255 -35q-164 0 -306.5 58.5t-242.5 160t-157.5 242.5t-57.5 301q0 213 96 387.5t274 276.5t404 102q223 0 424 -108v-144q-187 136 -428 136q-189 0 -337.5 -87t-228 -234t-79.5 -327q0 -134 46.5 -252.5t129.5 -206.5
t205.5 -139t267.5 -51q190 0 342 84v420h-376zM633 1606h-113l301 348h4l301 -348h-112l-191 204z" />
    <glyph glyph-name="gcircumflex" unicode="&#x11d;" horiz-adv-x="1206" 
d="M231 -395v129q151 -96 312 -96q168 0 266 96t98 264v111l-4 2q-130 -113 -315 -113q-207 0 -345.5 141.5t-138.5 360.5q0 85 21.5 164t65 145.5t104 116.5t142.5 78t177 28q151 0 297 -78l117 21v-975q0 -216 -129.5 -344.5t-355.5 -128.5q-169 0 -312 78zM907 229v607
q-132 86 -295 86q-173 0 -279 -118.5t-106 -295.5q0 -175 105 -288.5t272 -113.5q86 0 166 32.5t137 90.5zM422 1161h-113l301 348h4l301 -348h-112l-191 205z" />
    <glyph glyph-name="Gbreve" unicode="&#x11e;" horiz-adv-x="1492" 
d="M838 596v115h501v-600q-98 -64 -222 -99t-255 -35q-164 0 -306.5 58.5t-242.5 160t-157.5 242.5t-57.5 301q0 213 96 387.5t274 276.5t404 102q223 0 424 -108v-144q-187 136 -428 136q-189 0 -337.5 -87t-228 -234t-79.5 -327q0 -134 46.5 -252.5t129.5 -206.5
t205.5 -139t267.5 -51q190 0 342 84v420h-376zM1014 1911h80q-3 -128 -72.5 -210.5t-198.5 -82.5t-198 82.5t-72 210.5h80q8 -94 53.5 -153.5t136.5 -59.5t137 59.5t54 153.5z" />
    <glyph glyph-name="gbreve" unicode="&#x11f;" horiz-adv-x="1206" 
d="M231 -395v129q151 -96 312 -96q168 0 266 96t98 264v111l-4 2q-130 -113 -315 -113q-207 0 -345.5 141.5t-138.5 360.5q0 85 21.5 164t65 145.5t104 116.5t142.5 78t177 28q151 0 297 -78l117 21v-975q0 -216 -129.5 -344.5t-355.5 -128.5q-169 0 -312 78zM907 229v607
q-132 86 -295 86q-173 0 -279 -118.5t-106 -295.5q0 -175 105 -288.5t272 -113.5q86 0 166 32.5t137 90.5zM803 1466h80q-3 -127 -72.5 -209.5t-198.5 -82.5t-198 82t-72 210h80q8 -94 53.5 -153.5t136.5 -59.5t137 59.5t54 153.5z" />
    <glyph glyph-name="Gdotaccent" unicode="&#x120;" horiz-adv-x="1492" 
d="M838 596v115h501v-600q-98 -64 -222 -99t-255 -35q-164 0 -306.5 58.5t-242.5 160t-157.5 242.5t-57.5 301q0 213 96 387.5t274 276.5t404 102q223 0 424 -108v-144q-187 136 -428 136q-189 0 -337.5 -87t-228 -234t-79.5 -327q0 -134 46.5 -252.5t129.5 -206.5
t205.5 -139t267.5 -51q190 0 342 84v420h-376zM823 1681q-35 0 -59.5 24.5t-24.5 59.5t24.5 59.5t59.5 24.5t59.5 -24.5t24.5 -59.5t-24.5 -59.5t-59.5 -24.5z" />
    <glyph glyph-name="gdotaccent" unicode="&#x121;" horiz-adv-x="1206" 
d="M231 -395v129q151 -96 312 -96q168 0 266 96t98 264v111l-4 2q-130 -113 -315 -113q-207 0 -345.5 141.5t-138.5 360.5q0 85 21.5 164t65 145.5t104 116.5t142.5 78t177 28q151 0 297 -78l117 21v-975q0 -216 -129.5 -344.5t-355.5 -128.5q-169 0 -312 78zM907 229v607
q-132 86 -295 86q-173 0 -279 -118.5t-106 -295.5q0 -175 105 -288.5t272 -113.5q86 0 166 32.5t137 90.5zM612 1237q-35 0 -59.5 24.5t-24.5 59.5t24.5 59.5t59.5 24.5t59.5 -24.5t24.5 -59.5t-24.5 -59.5t-59.5 -24.5z" />
    <glyph glyph-name="Gcommaaccent" unicode="&#x122;" horiz-adv-x="1492" 
d="M838 596v115h501v-600q-98 -64 -222 -99t-255 -35q-164 0 -306.5 58.5t-242.5 160t-157.5 242.5t-57.5 301q0 213 96 387.5t274 276.5t404 102q223 0 424 -108v-144q-187 136 -428 136q-189 0 -337.5 -87t-228 -234t-79.5 -327q0 -134 46.5 -252.5t129.5 -206.5
t205.5 -139t267.5 -51q190 0 342 84v420h-376zM821 -111h119l-147 -446h-88z" />
    <glyph glyph-name="gcommaaccent" unicode="&#x123;" horiz-adv-x="1206" 
d="M231 -395v129q151 -96 312 -96q168 0 266 96t98 264v111l-4 2q-130 -113 -315 -113q-207 0 -345.5 141.5t-138.5 360.5q0 85 21.5 164t65 145.5t104 116.5t142.5 78t177 28q151 0 297 -78l117 21v-975q0 -216 -129.5 -344.5t-355.5 -128.5q-169 0 -312 78zM907 229v607
q-132 86 -295 86q-173 0 -279 -118.5t-106 -295.5q0 -175 105 -288.5t272 -113.5q86 0 166 32.5t137 90.5zM496 1139l147 446h88l-117 -446h-118z" />
    <glyph glyph-name="Hcircumflex" unicode="&#x124;" horiz-adv-x="1515" 
d="M184 0v1483h125v-662h897v662h125v-1483h-125v707h-897v-707h-125zM567 1606h-112l301 348h4l301 -348h-113l-190 204z" />
    <glyph glyph-name="hcircumflex" unicode="&#x125;" 
d="M178 0v1565h121v-699l4 -2q177 166 387 166q162 0 258 -102q47 -51 68.5 -121t21.5 -180v-627h-120v604q0 95 -15 150t-51 92q-66 72 -182 72q-197 0 -371 -181v-737h-121zM47 1669h-113l302 348h4l301 -348h-113l-190 205z" />
    <glyph glyph-name="Hbar" unicode="&#x126;" horiz-adv-x="1515" 
d="M8 1102v104h176v277h125v-277h897v277h125v-277h176v-104h-176v-1102h-125v707h-897v-707h-125v1102h-176zM309 821h897v281h-897v-281z" />
    <glyph glyph-name="hbar" unicode="&#x127;" 
d="M29 1225v100h149v240h121v-240h385v-100h-385v-359l4 -2q177 166 387 166q162 0 258 -102q47 -51 68.5 -121t21.5 -180v-627h-120v604q0 95 -15 150t-51 92q-66 72 -182 72q-197 0 -371 -181v-737h-121v1225h-149z" />
    <glyph glyph-name="Itilde" unicode="&#x128;" horiz-adv-x="493" 
d="M184 0v1483h125v-1483h-125zM557 1872v-115q-61 -90 -162 -90q-72 0 -162 55q-33 20 -49 29t-40 17t-46 8q-88 0 -159 -107l-5 2v115q61 90 162 90q67 0 162 -55q33 -20 49 -29t40 -17t46 -8q89 0 160 107z" />
    <glyph glyph-name="itilde" unicode="&#x129;" horiz-adv-x="477" 
d="M178 0v1008h121v-1008h-121zM549 1427v-114q-61 -90 -162 -90q-72 0 -162 55q-32 19 -48.5 28.5t-40.5 17t-46 7.5q-90 0 -160 -106l-4 2v114q27 40 69 65.5t93 25.5q65 0 162 -56q32 -19 48.5 -28.5t40.5 -17t46 -7.5q89 0 160 107z" />
    <glyph glyph-name="Imacron" unicode="&#x12a;" horiz-adv-x="493" 
d="M184 0v1483h125v-1483h-125zM-25 1718v94h541v-94h-541z" />
    <glyph glyph-name="imacron" unicode="&#x12b;" horiz-adv-x="477" 
d="M178 0v1008h121v-1008h-121zM-33 1274v94h541v-94h-541z" />
    <glyph glyph-name="Ibreve" unicode="&#x12c;" horiz-adv-x="493" 
d="M184 0v1483h125v-1483h-125zM436 1911h80q-3 -128 -72 -210.5t-198 -82.5t-198.5 82.5t-72.5 210.5h80q8 -94 54 -153.5t137 -59.5t136.5 59.5t53.5 153.5z" />
    <glyph glyph-name="ibreve" unicode="&#x12d;" horiz-adv-x="477" 
d="M178 0v1008h121v-1008h-121zM428 1466h80q-3 -128 -72 -210t-198 -82t-198.5 82.5t-72.5 209.5h80q8 -94 54 -153.5t137 -59.5t136.5 59.5t53.5 153.5z" />
    <glyph glyph-name="Iogonek" unicode="&#x12e;" horiz-adv-x="493" 
d="M358 -373v-86q-41 -14 -92 -14q-94 0 -148.5 54.5t-54.5 142.5q0 137 121 276v1483h125v-1483q-141 -138 -141 -262q0 -59 30 -90t83 -31q35 0 77 10z" />
    <glyph glyph-name="iogonek" unicode="&#x12f;" horiz-adv-x="477" 
d="M178 0v1008h121v-1008q-137 -140 -137 -262q0 -59 29.5 -90t84.5 -31q34 0 76 10v-86q-51 -14 -90 -14q-95 0 -150 54.5t-55 142.5q0 129 121 276zM150 1360q0 37 26 62.5t64 25.5q37 0 62.5 -26t25.5 -64q0 -37 -26 -62.5t-64 -25.5q-37 0 -62.5 26t-25.5 64z" />
    <glyph glyph-name="Idotaccent" unicode="&#x130;" horiz-adv-x="493" 
d="M184 0v1483h125v-1483h-125zM246 1712q-35 0 -59.5 24.5t-24.5 59.5t24.5 59.5t59.5 24.5t59.5 -24.5t24.5 -59.5t-24.5 -59.5t-59.5 -24.5z" />
    <glyph glyph-name="dotlessi" unicode="&#x131;" horiz-adv-x="477" 
d="M178 0v1008h121v-1008h-121z" />
    <glyph glyph-name="IJ" unicode="&#x132;" horiz-adv-x="1304" 
d="M184 0v1483h125v-1483h-125zM571 23v120q113 -49 213 -49q54 0 92.5 15.5t61.5 40.5t36 66t17 83.5t4 101.5v1082h125v-1077q0 -126 -19 -201t-57 -123q-84 -105 -258 -105q-105 0 -215 46z" />
    <glyph glyph-name="ij" unicode="&#x133;" horiz-adv-x="958" 
d="M178 0v1008h121v-1008h-121zM150 1360q0 37 26 62.5t64 25.5q37 0 62.5 -26t25.5 -64q0 -37 -26 -62.5t-64 -25.5q-37 0 -62.5 26t-25.5 64zM659 -145v1153h121v-1147q0 -175 -65 -250q-73 -84 -215 -84q-53 0 -111 14v109q70 -12 109 -12q92 0 126.5 54t34.5 163z
M631 1360q0 37 26 62.5t64 25.5q37 0 62.5 -26t25.5 -64q0 -37 -26 -62.5t-64 -25.5q-37 0 -62.5 26t-25.5 64z" />
    <glyph glyph-name="Jcircumflex" unicode="&#x134;" horiz-adv-x="811" 
d="M78 23v120q113 -49 213 -49q54 0 92.5 15.5t61.5 40.5t36 66t17 83.5t4 101.5v1082h125v-1077q0 -126 -19 -201t-57 -123q-84 -105 -258 -105q-105 0 -215 46zM373 1606h-113l301 348h4l301 -348h-112l-191 204z" />
    <glyph glyph-name="jcircumflex" unicode="&#x135;" horiz-adv-x="481" 
d="M182 -145v1153h121v-1147q0 -175 -65 -250q-73 -84 -215 -84q-53 0 -111 14v109q70 -12 108 -12q93 0 127.5 54t34.5 163zM53 1161h-112l301 348h4l301 -348h-113l-190 205z" />
    <glyph glyph-name="Kcommaaccent" unicode="&#x136;" horiz-adv-x="1257" 
d="M184 0v1483h125v-697l4 -2l717 699h158l-729 -707l790 -776h-168l-768 756l-4 -2v-754h-125zM627 -111h118l-147 -446h-88z" />
    <glyph glyph-name="kcommaaccent" unicode="&#x137;" horiz-adv-x="1034" 
d="M178 0v1565h121v-1002l2 -2l510 447h156l-516 -451l569 -557h-162l-557 549l-2 -2v-547h-121zM514 -111h119l-148 -446h-88z" />
    <glyph glyph-name="kgreenlandic" unicode="&#x138;" horiz-adv-x="1034" 
d="M178 0v1008h121v-445l2 -2l510 447h156l-516 -451l569 -557h-162l-557 549l-2 -2v-547h-121z" />
    <glyph glyph-name="Lacute" unicode="&#x139;" horiz-adv-x="1122" 
d="M184 0v1483h125v-1368h735v-115h-860zM500 1933l-215 -336h-95l177 336h133z" />
    <glyph glyph-name="lacute" unicode="&#x13a;" horiz-adv-x="477" 
d="M178 0v1565h121v-1565h-121zM442 1997l-215 -336h-94l176 336h133z" />
    <glyph glyph-name="Lcommaaccent" unicode="&#x13b;" horiz-adv-x="1122" 
d="M184 0v1483h125v-1368h735v-115h-860zM600 -111h119l-148 -446h-88z" />
    <glyph glyph-name="lcommaaccent" unicode="&#x13c;" horiz-adv-x="477" 
d="M178 0v1565h121v-1565h-121zM236 -111h118l-147 -446h-88z" />
    <glyph glyph-name="Lcaron" unicode="&#x13d;" horiz-adv-x="1122" 
d="M184 0v1483h125v-1368h735v-115h-860zM541 1063l116 534h121l-153 -534h-84z" />
    <glyph glyph-name="lcaron" unicode="&#x13e;" horiz-adv-x="645" 
d="M178 0v1565h121v-1565h-121zM557 1565h119l-148 -447h-88z" />
    <glyph glyph-name="Ldot" unicode="&#x13f;" horiz-adv-x="1122" 
d="M184 0v1483h125v-1368h735v-115h-860zM709 768q0 40 28 68t68 28t68 -28t28 -68t-28 -68t-68 -28t-68 28t-28 68z" />
    <glyph glyph-name="ldot" unicode="&#x140;" horiz-adv-x="647" 
d="M178 0v1565h121v-1565h-121zM559 590q-35 0 -59.5 24.5t-24.5 59.5t24.5 59.5t59.5 24.5t59.5 -24.5t24.5 -59.5t-24.5 -59.5t-59.5 -24.5z" />
    <glyph glyph-name="Lslash" unicode="&#x141;" horiz-adv-x="1130" 
d="M193 0v598l-199 -135v123l199 135v762h124v-678l269 182v-123l-269 -182v-567h736v-115h-860z" />
    <glyph glyph-name="lslash" unicode="&#x142;" horiz-adv-x="497" 
d="M188 0v641l-176 -121v119l176 121v805h121v-725l176 121v-119l-176 -121v-721h-121z" />
    <glyph glyph-name="Nacute" unicode="&#x143;" horiz-adv-x="1566" 
d="M1378 -47l-798 932q-162 189 -273 319l-4 -2q2 -127 2 -385v-817h-121v1528l4 2l799 -932q162 -189 273 -319l4 2q-2 127 -2 385v817h120v-1528zM987 1933l-215 -336h-94l176 336h133z" />
    <glyph glyph-name="nacute" unicode="&#x144;" 
d="M178 0v1008h121v-142l4 -2q180 166 387 166q162 0 258 -102q47 -51 68.5 -121t21.5 -180v-627h-120v604q0 172 -64 242q-66 72 -188 72q-99 0 -194 -49.5t-173 -131.5v-737h-121zM811 1489l-215 -336h-94l176 336h133z" />
    <glyph glyph-name="Ncommaaccent" unicode="&#x145;" horiz-adv-x="1566" 
d="M1378 -47l-798 932q-162 189 -273 319l-4 -2q2 -127 2 -385v-817h-121v1528l4 2l799 -932q162 -189 273 -319l4 2q-2 127 -2 385v817h120v-1528zM780 -111h119l-147 -446h-88z" />
    <glyph glyph-name="ncommaaccent" unicode="&#x146;" 
d="M178 0v1008h121v-142l4 -2q180 166 387 166q162 0 258 -102q47 -51 68.5 -121t21.5 -180v-627h-120v604q0 172 -64 242q-66 72 -188 72q-99 0 -194 -49.5t-173 -131.5v-737h-121zM604 -111h119l-148 -446h-88z" />
    <glyph glyph-name="Ncaron" unicode="&#x147;" horiz-adv-x="1566" 
d="M1378 -47l-798 932q-162 189 -273 319l-4 -2q2 -127 2 -385v-817h-121v1528l4 2l799 -932q162 -189 273 -319l4 2q-2 127 -2 385v817h120v-1528zM973 1925h112l-301 -348h-4l-301 348h113l190 -205z" />
    <glyph glyph-name="ncaron" unicode="&#x148;" 
d="M178 0v1008h121v-142l4 -2q180 166 387 166q162 0 258 -102q47 -51 68.5 -121t21.5 -180v-627h-120v604q0 172 -64 242q-66 72 -188 72q-99 0 -194 -49.5t-173 -131.5v-737h-121zM797 1481h112l-301 -348h-4l-301 348h113l190 -205z" />
    <glyph glyph-name="napostrophe" unicode="&#x149;" 
d="M178 0v1008h121v-142l4 -2q180 166 387 166q162 0 258 -102q47 -51 68.5 -121t21.5 -180v-627h-120v604q0 172 -64 242q-66 72 -188 72q-99 0 -194 -49.5t-173 -131.5v-737h-121zM262 1581h119l-148 -446h-88z" />
    <glyph glyph-name="Eng" unicode="&#x14a;" horiz-adv-x="1566" 
d="M305 0h-121v1528l4 2l799 -932q162 -189 273 -319l4 2q-2 127 -2 385v817h120v-1528q0 -126 -18.5 -201t-56.5 -123q-83 -104 -258 -104q-107 0 -215 45v121q113 -49 213 -49q67 0 110 21.5t64 66t28.5 94.5t7.5 125v143l-677 791q-162 189 -273 319l-4 -2q2 -127 2 -385
v-817z" />
    <glyph glyph-name="eng" unicode="&#x14b;" 
d="M178 0v1008h121v-142l4 -2q180 166 387 166q162 0 258 -102q47 -51 68.5 -121t21.5 -180v-766q0 -175 -65 -250q-73 -84 -215 -84q-53 0 -111 14v109q70 -12 109 -12q93 0 127.5 54t34.5 163v749q0 172 -64 242q-66 72 -188 72q-99 0 -194 -49.5t-173 -131.5v-737h-121z
" />
    <glyph glyph-name="Omacron" unicode="&#x14c;" horiz-adv-x="1687" 
d="M96 741q0 211 97.5 386.5t269.5 276.5t381 101q157 0 296 -59.5t237.5 -161.5t156 -243.5t57.5 -299.5t-57.5 -299.5t-156 -243.5t-237.5 -161.5t-296 -59.5q-209 0 -381 101t-269.5 276.5t-97.5 386.5zM221 741q0 -178 80 -326t223 -234.5t320 -86.5q176 0 319.5 86.5
t223 234.5t79.5 326t-79.5 326.5t-223 235t-319.5 86.5t-319.5 -86.5t-223.5 -235t-80 -326.5zM573 1718v94h541v-94h-541z" />
    <glyph glyph-name="omacron" unicode="&#x14d;" horiz-adv-x="1249" 
d="M102 504q0 147 67.5 267.5t187.5 189.5t268 69q111 0 208.5 -40.5t166 -110.5t108 -167.5t39.5 -207.5q0 -147 -67 -267.5t-187 -190t-268 -69.5t-268 69.5t-187.5 190t-67.5 267.5zM223 504q0 -178 115 -297t287 -119t286.5 119t114.5 297t-114.5 297t-286.5 119
t-287 -119t-115 -297zM354 1274v94h541v-94h-541z" />
    <glyph glyph-name="Obreve" unicode="&#x14e;" horiz-adv-x="1687" 
d="M96 741q0 211 97.5 386.5t269.5 276.5t381 101q157 0 296 -59.5t237.5 -161.5t156 -243.5t57.5 -299.5t-57.5 -299.5t-156 -243.5t-237.5 -161.5t-296 -59.5q-209 0 -381 101t-269.5 276.5t-97.5 386.5zM221 741q0 -178 80 -326t223 -234.5t320 -86.5q176 0 319.5 86.5
t223 234.5t79.5 326t-79.5 326.5t-223 235t-319.5 86.5t-319.5 -86.5t-223.5 -235t-80 -326.5zM1034 1911h80q-3 -128 -72 -210.5t-198 -82.5t-198.5 82.5t-72.5 210.5h80q8 -94 54 -153.5t137 -59.5t136.5 59.5t53.5 153.5z" />
    <glyph glyph-name="obreve" unicode="&#x14f;" horiz-adv-x="1249" 
d="M102 504q0 147 67.5 267.5t187.5 189.5t268 69q111 0 208.5 -40.5t166 -110.5t108 -167.5t39.5 -207.5q0 -147 -67 -267.5t-187 -190t-268 -69.5t-268 69.5t-187.5 190t-67.5 267.5zM223 504q0 -178 115 -297t287 -119t286.5 119t114.5 297t-114.5 297t-286.5 119
t-287 -119t-115 -297zM815 1466h80q-3 -128 -72 -210t-198 -82t-198.5 82.5t-72.5 209.5h80q8 -94 54 -153.5t137 -59.5t136.5 59.5t53.5 153.5z" />
    <glyph glyph-name="Ohungarumlaut" unicode="&#x150;" horiz-adv-x="1687" 
d="M96 741q0 211 97.5 386.5t269.5 276.5t381 101q157 0 296 -59.5t237.5 -161.5t156 -243.5t57.5 -299.5t-57.5 -299.5t-156 -243.5t-237.5 -161.5t-296 -59.5q-209 0 -381 101t-269.5 276.5t-97.5 386.5zM221 741q0 -178 80 -326t223 -234.5t320 -86.5q176 0 319.5 86.5
t223 234.5t79.5 326t-79.5 326.5t-223 235t-319.5 86.5t-319.5 -86.5t-223.5 -235t-80 -326.5zM881 1597l182 336h111l-209 -336h-84zM621 1597l182 336h110l-208 -336h-84z" />
    <glyph glyph-name="ohungarumlaut" unicode="&#x151;" horiz-adv-x="1249" 
d="M102 504q0 147 67.5 267.5t187.5 189.5t268 69q111 0 208.5 -40.5t166 -110.5t108 -167.5t39.5 -207.5q0 -147 -67 -267.5t-187 -190t-268 -69.5t-268 69.5t-187.5 190t-67.5 267.5zM223 504q0 -178 115 -297t287 -119t286.5 119t114.5 297t-114.5 297t-286.5 119
t-287 -119t-115 -297zM662 1153l182 336h110l-209 -336h-83zM401 1153l183 336h110l-209 -336h-84z" />
    <glyph glyph-name="OE" unicode="&#x152;" horiz-adv-x="1923" 
d="M997 115v1253q-203 0 -330 -35.5t-225 -113.5q-109 -90 -165 -213.5t-56 -266.5q0 -152 62 -276.5t176 -212.5q96 -73 216 -104t322 -31zM1122 115h695v-115h-838q-204 0 -343.5 36.5t-246.5 115.5q-139 102 -216 253t-77 334q0 172 67.5 317t186.5 244
q111 92 262.5 137.5t372.5 45.5h813v-115h-676v-547h596v-114h-596v-592z" />
    <glyph glyph-name="oe" unicode="&#x153;" horiz-adv-x="2058" 
d="M1137 571h694q0 110 -48 191.5t-121 120.5t-157 39q-140 0 -245.5 -96t-122.5 -255zM621 88q171 0 284 118.5t113 295.5q0 180 -114 299t-286 119q-170 0 -282.5 -118.5t-112.5 -295.5q0 -180 113.5 -299t284.5 -119zM1073 756h4q60 126 174.5 200t259.5 74
q119 0 217.5 -55t159 -164t60.5 -254q0 -40 -4 -86h-807q10 -122 68.5 -210.5t148 -131.5t198.5 -43q181 0 336 117v-131q-69 -44 -160.5 -69.5t-183.5 -25.5q-160 0 -284 73t-183 200h-4q-66 -129 -182 -201t-268 -72q-226 0 -373.5 150.5t-147.5 374.5q0 148 67 268.5
t186.5 190t267.5 69.5q153 0 270.5 -74t179.5 -200z" />
    <glyph glyph-name="Racute" unicode="&#x154;" horiz-adv-x="1292" 
d="M1096 0l-478 653h-309v-653h-125v1483h381q137 0 235.5 -20t174.5 -70q79 -52 125.5 -134t46.5 -188q0 -100 -42 -182t-114 -135q-87 -63 -233 -90l489 -664h-151zM309 762h295q115 0 191.5 21t132.5 67q94 79 94 215q0 152 -121 235q-57 38 -136 53t-208 15h-248v-606z
M817 1933l-215 -336h-94l176 336h133z" />
    <glyph glyph-name="racute" unicode="&#x155;" horiz-adv-x="718" 
d="M178 0v1008h121v-164l4 -2q61 81 146 128.5t180 47.5q32 0 59 -6v-117q-27 6 -63 6q-195 0 -326 -196v-705h-121zM578 1489l-216 -336h-94l176 336h134z" />
    <glyph glyph-name="Rcommaaccent" unicode="&#x156;" horiz-adv-x="1292" 
d="M1096 0l-478 653h-309v-653h-125v1483h381q137 0 235.5 -20t174.5 -70q79 -52 125.5 -134t46.5 -188q0 -100 -42 -182t-114 -135q-87 -63 -233 -90l489 -664h-151zM309 762h295q115 0 191.5 21t132.5 67q94 79 94 215q0 152 -121 235q-57 38 -136 53t-208 15h-248v-606z
M610 -111h119l-147 -446h-88z" />
    <glyph glyph-name="rcommaaccent" unicode="&#x157;" horiz-adv-x="718" 
d="M178 0v1008h121v-164l4 -2q61 81 146 128.5t180 47.5q32 0 59 -6v-117q-27 6 -63 6q-195 0 -326 -196v-705h-121zM268 -111h119l-147 -446h-88z" />
    <glyph glyph-name="Rcaron" unicode="&#x158;" horiz-adv-x="1292" 
d="M1096 0l-478 653h-309v-653h-125v1483h381q137 0 235.5 -20t174.5 -70q79 -52 125.5 -134t46.5 -188q0 -100 -42 -182t-114 -135q-87 -63 -233 -90l489 -664h-151zM309 762h295q115 0 191.5 21t132.5 67q94 79 94 215q0 152 -121 235q-57 38 -136 53t-208 15h-248v-606z
M803 1925h112l-301 -348h-4l-301 348h113l190 -205z" />
    <glyph glyph-name="rcaron" unicode="&#x159;" horiz-adv-x="718" 
d="M178 0v1008h121v-164l4 -2q61 81 146 128.5t180 47.5q32 0 59 -6v-117q-27 6 -63 6q-195 0 -326 -196v-705h-121zM563 1481h113l-301 -348h-4l-301 348h112l191 -205z" />
    <glyph glyph-name="Sacute" unicode="&#x15a;" horiz-adv-x="1136" 
d="M135 111v141q95 -80 207 -119t219 -39q152 0 245 78.5t93 214.5q0 44 -11.5 82t-28 65t-48 51.5t-57 39.5t-70 32t-72 25.5t-77.5 22.5q-73 20 -124.5 38.5t-111.5 51.5t-97 73t-62 101.5t-25 138.5q0 181 120 289t320 108q107 0 214 -33t189 -90v-137
q-91 69 -197.5 106.5t-205.5 37.5q-144 0 -229.5 -72.5t-85.5 -198.5q0 -57 23.5 -103.5t46.5 -72.5t85.5 -54.5t88.5 -37t106 -31.5q8 -3 12 -4q74 -21 129 -42.5t113 -56.5t95 -77.5t61 -104.5t24 -139q0 -193 -127 -305.5t-332 -112.5q-116 0 -231 36t-199 98zM776 1933
l-215 -336h-94l176 336h133z" />
    <glyph glyph-name="sacute" unicode="&#x15b;" horiz-adv-x="966" 
d="M111 70v131q80 -55 178.5 -84t195.5 -29q124 0 195.5 46.5t71.5 133.5q0 34 -10.5 61t-35 46.5t-48 32.5t-65.5 24t-71 16.5t-80 14.5q-57 10 -98.5 20t-91.5 31.5t-81.5 49.5t-53 74t-21.5 105q0 136 103 211.5t276 75.5q93 0 184.5 -23t161.5 -63v-129
q-158 105 -350 105q-117 0 -185.5 -43.5t-68.5 -126.5q0 -37 16 -64.5t38.5 -44t65.5 -30.5t76.5 -21t92.5 -17q8 -1 12 -2q61 -11 105 -22.5t94 -33.5t81.5 -51.5t52.5 -77t21 -107.5q0 -145 -108 -223.5t-285 -78.5q-99 0 -197.5 25t-170.5 68zM680 1489l-215 -336h-94
l176 336h133z" />
    <glyph glyph-name="Scircumflex" unicode="&#x15c;" horiz-adv-x="1136" 
d="M135 111v141q95 -80 207 -119t219 -39q152 0 245 78.5t93 214.5q0 44 -11.5 82t-28 65t-48 51.5t-57 39.5t-70 32t-72 25.5t-77.5 22.5q-73 20 -124.5 38.5t-111.5 51.5t-97 73t-62 101.5t-25 138.5q0 181 120 289t320 108q107 0 214 -33t189 -90v-137
q-91 69 -197.5 106.5t-205.5 37.5q-144 0 -229.5 -72.5t-85.5 -198.5q0 -57 23.5 -103.5t46.5 -72.5t85.5 -54.5t88.5 -37t106 -31.5q8 -3 12 -4q74 -21 129 -42.5t113 -56.5t95 -77.5t61 -104.5t24 -139q0 -193 -127 -305.5t-332 -112.5q-116 0 -231 36t-199 98zM381 1606
h-113l301 348h4l301 -348h-112l-191 204z" />
    <glyph glyph-name="scircumflex" unicode="&#x15d;" horiz-adv-x="966" 
d="M111 70v131q80 -55 178.5 -84t195.5 -29q124 0 195.5 46.5t71.5 133.5q0 34 -10.5 61t-35 46.5t-48 32.5t-65.5 24t-71 16.5t-80 14.5q-57 10 -98.5 20t-91.5 31.5t-81.5 49.5t-53 74t-21.5 105q0 136 103 211.5t276 75.5q93 0 184.5 -23t161.5 -63v-129
q-158 105 -350 105q-117 0 -185.5 -43.5t-68.5 -126.5q0 -37 16 -64.5t38.5 -44t65.5 -30.5t76.5 -21t92.5 -17q8 -1 12 -2q61 -11 105 -22.5t94 -33.5t81.5 -51.5t52.5 -77t21 -107.5q0 -145 -108 -223.5t-285 -78.5q-99 0 -197.5 25t-170.5 68zM285 1161h-113l301 348h4
l301 -348h-112l-191 205z" />
    <glyph glyph-name="Scedilla" unicode="&#x15e;" horiz-adv-x="1136" 
d="M958 1382v-137q-91 69 -197.5 106.5t-205.5 37.5q-144 0 -229.5 -72.5t-85.5 -198.5q0 -57 23.5 -103.5t46.5 -72.5t85.5 -54.5t88.5 -37t106 -31.5q8 -3 12 -4q74 -21 129 -42.5t113 -56.5t95 -77.5t61 -104.5t24 -139q0 -183 -115 -293.5t-305 -121.5l-22 -78
q182 -41 182 -181q0 -78 -54.5 -126t-146.5 -48q-84 0 -160 37l27 82q72 -37 131 -37q46 0 77.5 23.5t31.5 62.5q0 102 -195 117l45 148q-106 6 -208 40.5t-177 90.5v141q95 -80 207 -119t219 -39q152 0 245 78.5t93 214.5q0 44 -11.5 82t-28 65t-48 51.5t-57 39.5t-70 32
t-72 25.5t-77.5 22.5q-73 20 -124.5 38.5t-111.5 51.5t-97 73t-62 101.5t-25 138.5q0 181 120 289t320 108q107 0 214 -33t189 -90z" />
    <glyph glyph-name="scedilla" unicode="&#x15f;" horiz-adv-x="966" 
d="M821 944v-129q-158 105 -350 105q-117 0 -185.5 -43.5t-68.5 -126.5q0 -37 16 -64.5t38.5 -44t65.5 -30.5t76.5 -21t92.5 -17q8 -1 12 -2q61 -11 105 -22.5t94 -33.5t81.5 -51.5t52.5 -77t21 -107.5q0 -137 -96.5 -215t-259.5 -87l-22 -75q182 -41 182 -181
q0 -78 -54.5 -126t-146.5 -48q-84 0 -160 37l27 82q72 -37 131 -37q46 0 77.5 23.5t31.5 62.5q0 102 -195 117l45 148q-188 9 -321 90v131q80 -55 178.5 -84t195.5 -29q124 0 195.5 46.5t71.5 133.5q0 34 -10.5 61t-35 46.5t-48 32.5t-65.5 24t-71 16.5t-80 14.5
q-57 10 -98.5 20t-91.5 31.5t-81.5 49.5t-53 74t-21.5 105q0 136 103 211.5t276 75.5q93 0 184.5 -23t161.5 -63z" />
    <glyph glyph-name="Scaron" unicode="&#x160;" horiz-adv-x="1136" 
d="M135 111v141q95 -80 207 -119t219 -39q152 0 245 78.5t93 214.5q0 44 -11.5 82t-28 65t-48 51.5t-57 39.5t-70 32t-72 25.5t-77.5 22.5q-73 20 -124.5 38.5t-111.5 51.5t-97 73t-62 101.5t-25 138.5q0 181 120 289t320 108q107 0 214 -33t189 -90v-137
q-91 69 -197.5 106.5t-205.5 37.5q-144 0 -229.5 -72.5t-85.5 -198.5q0 -57 23.5 -103.5t46.5 -72.5t85.5 -54.5t88.5 -37t106 -31.5q8 -3 12 -4q74 -21 129 -42.5t113 -56.5t95 -77.5t61 -104.5t24 -139q0 -193 -127 -305.5t-332 -112.5q-116 0 -231 36t-199 98zM762 1925
h112l-301 -348h-4l-301 348h113l190 -205z" />
    <glyph glyph-name="scaron" unicode="&#x161;" horiz-adv-x="966" 
d="M111 70v131q80 -55 178.5 -84t195.5 -29q124 0 195.5 46.5t71.5 133.5q0 34 -10.5 61t-35 46.5t-48 32.5t-65.5 24t-71 16.5t-80 14.5q-57 10 -98.5 20t-91.5 31.5t-81.5 49.5t-53 74t-21.5 105q0 136 103 211.5t276 75.5q93 0 184.5 -23t161.5 -63v-129
q-158 105 -350 105q-117 0 -185.5 -43.5t-68.5 -126.5q0 -37 16 -64.5t38.5 -44t65.5 -30.5t76.5 -21t92.5 -17q8 -1 12 -2q61 -11 105 -22.5t94 -33.5t81.5 -51.5t52.5 -77t21 -107.5q0 -145 -108 -223.5t-285 -78.5q-99 0 -197.5 25t-170.5 68zM666 1481h112l-301 -348h-4
l-301 348h113l190 -205z" />
    <glyph glyph-name="Tcommaaccent" unicode="&#x162;" horiz-adv-x="1267" 
d="M571 0v1368h-510v115h1145v-115h-510v-1368h-20l-29 -98q182 -41 182 -181q0 -79 -54 -126.5t-146 -47.5q-84 0 -160 37l27 82q72 -37 131 -37q46 0 77 23.5t31 62.5q0 102 -194 117l51 168h-21z" />
    <glyph glyph-name="tcommaaccent" unicode="&#x163;" horiz-adv-x="731" 
d="M678 901h-367v-512q0 -168 56 -237q52 -64 157 -64q85 0 154 37v-113q-82 -35 -174 -35q-42 0 -82 9l-25 -84q183 -41 183 -181q0 -78 -54.5 -126t-146.5 -48q-84 0 -160 37l27 82q72 -37 131 -37q46 0 77 23.5t31 62.5q0 102 -194 117l55 180q-38 16 -76 60
q-80 96 -80 297v532h-170l-2 4l289 320l4 -2v-215h367v-107z" />
    <glyph glyph-name="Tcaron" unicode="&#x164;" horiz-adv-x="1267" 
d="M571 0v1368h-510v115h1145v-115h-510v-1368h-125zM823 1925h113l-301 -348h-4l-301 348h112l191 -205z" />
    <glyph glyph-name="tcaron" unicode="&#x165;" horiz-adv-x="731" 
d="M678 901h-367v-512q0 -168 56 -237q52 -64 157 -64q85 0 154 37v-113q-82 -35 -174 -35q-155 0 -234 95q-80 96 -80 297v532h-170l-2 4l289 320l4 -2v-215h367v-107zM641 1581h119l-148 -446h-88z" />
    <glyph glyph-name="Tbar" unicode="&#x166;" horiz-adv-x="1267" 
d="M289 694v105h282v569h-510v115h1145v-115h-510v-569h283v-105h-283v-694h-125v694h-282z" />
    <glyph glyph-name="tbar" unicode="&#x167;" horiz-adv-x="731" 
d="M311 901v-289h367v-106h-367v-117q0 -168 56 -237q52 -64 157 -64q85 0 154 37v-113q-82 -35 -174 -35q-155 0 -234 95q-80 96 -80 297v137h-170l-2 4l172 190v201h-170l-2 4l289 320l4 -2v-215h367v-107h-367z" />
    <glyph glyph-name="Utilde" unicode="&#x168;" horiz-adv-x="1480" 
d="M1315 1483v-766q0 -190 -22.5 -311.5t-82.5 -212.5q-70 -104 -189.5 -160t-281.5 -56q-296 0 -444 187q-73 92 -101 221t-28 320v778h125v-768q0 -175 23 -288t79 -185q114 -148 352 -148q132 0 224.5 46t144.5 128q45 72 62.5 176.5t17.5 266.5v772h121zM1053 1872v-115
q-61 -90 -162 -90q-72 0 -162 55q-33 20 -49 29t-40 17t-46 8q-89 0 -160 -107l-4 2v115q61 90 162 90q67 0 162 -55q33 -20 49 -29t40 -17t46 -8q89 0 160 107z" />
    <glyph glyph-name="utilde" unicode="&#x169;" 
d="M913 143l-4 2q-175 -168 -383 -168q-170 0 -264 107q-46 53 -67 127.5t-21 187.5v609h121v-586q0 -187 63 -258q67 -76 191 -76q189 0 364 186v734h121v-1008h-121v143zM918 1427v-114q-61 -90 -162 -90q-72 0 -162 55q-32 19 -48.5 28.5t-40.5 17t-46 7.5
q-90 0 -160 -106l-4 2v114q27 40 69 65.5t93 25.5q64 0 161 -56q46 -28 75 -40.5t61 -12.5q88 0 159 107z" />
    <glyph glyph-name="Umacron" unicode="&#x16a;" horiz-adv-x="1480" 
d="M1315 1483v-766q0 -190 -22.5 -311.5t-82.5 -212.5q-70 -104 -189.5 -160t-281.5 -56q-296 0 -444 187q-73 92 -101 221t-28 320v778h125v-768q0 -175 23 -288t79 -185q114 -148 352 -148q132 0 224.5 46t144.5 128q45 72 62.5 176.5t17.5 266.5v772h121zM471 1718v94
h541v-94h-541z" />
    <glyph glyph-name="umacron" unicode="&#x16b;" 
d="M913 143l-4 2q-175 -168 -383 -168q-170 0 -264 107q-46 53 -67 127.5t-21 187.5v609h121v-586q0 -187 63 -258q67 -76 191 -76q189 0 364 186v734h121v-1008h-121v143zM336 1274v94h541v-94h-541z" />
    <glyph glyph-name="Ubreve" unicode="&#x16c;" horiz-adv-x="1480" 
d="M1315 1483v-766q0 -190 -22.5 -311.5t-82.5 -212.5q-70 -104 -189.5 -160t-281.5 -56q-296 0 -444 187q-73 92 -101 221t-28 320v778h125v-768q0 -175 23 -288t79 -185q114 -148 352 -148q132 0 224.5 46t144.5 128q45 72 62.5 176.5t17.5 266.5v772h121zM932 1911h80
q-3 -128 -72.5 -210.5t-198.5 -82.5t-198 82.5t-72 210.5h80q8 -94 53.5 -153.5t136.5 -59.5t137 59.5t54 153.5z" />
    <glyph glyph-name="ubreve" unicode="&#x16d;" 
d="M913 143l-4 2q-175 -168 -383 -168q-170 0 -264 107q-46 53 -67 127.5t-21 187.5v609h121v-586q0 -187 63 -258q67 -76 191 -76q189 0 364 186v734h121v-1008h-121v143zM797 1466h80q-3 -127 -72.5 -209.5t-198.5 -82.5t-198 82t-72 210h80q8 -94 53.5 -153.5
t136.5 -59.5t137 59.5t54 153.5z" />
    <glyph glyph-name="Uring" unicode="&#x16e;" horiz-adv-x="1480" 
d="M1315 1483v-766q0 -190 -22.5 -311.5t-82.5 -212.5q-70 -104 -189.5 -160t-281.5 -56q-296 0 -444 187q-73 92 -101 221t-28 320v778h125v-768q0 -175 23 -288t79 -185q114 -148 352 -148q132 0 224.5 46t144.5 128q45 72 62.5 176.5t17.5 266.5v772h121zM741 1579
q-98 0 -163.5 65t-65.5 162t65.5 162.5t163.5 65.5t164 -65.5t66 -162.5t-66 -162t-164 -65zM741 1653q68 0 110 44t42 109t-42.5 109.5t-109.5 44.5t-109 -44.5t-42 -109.5t42 -109t109 -44z" />
    <glyph glyph-name="uring" unicode="&#x16f;" 
d="M913 143l-4 2q-175 -168 -383 -168q-170 0 -264 107q-46 53 -67 127.5t-21 187.5v609h121v-586q0 -187 63 -258q67 -76 191 -76q189 0 364 186v734h121v-1008h-121v143zM606 1135q-98 0 -163.5 65t-65.5 162t65.5 162t163.5 65t164 -65t66 -162t-66 -162t-164 -65z
M606 1208q67 0 109.5 44.5t42.5 109.5t-42.5 109.5t-109.5 44.5t-109 -44.5t-42 -109.5t42 -109.5t109 -44.5z" />
    <glyph glyph-name="Uhungarumlaut" unicode="&#x170;" horiz-adv-x="1480" 
d="M1315 1483v-766q0 -190 -22.5 -311.5t-82.5 -212.5q-70 -104 -189.5 -160t-281.5 -56q-296 0 -444 187q-73 92 -101 221t-28 320v778h125v-768q0 -175 23 -288t79 -185q114 -148 352 -148q132 0 224.5 46t144.5 128q45 72 62.5 176.5t17.5 266.5v772h121zM778 1597
l183 336h110l-209 -336h-84zM518 1597l182 336h111l-209 -336h-84z" />
    <glyph glyph-name="uhungarumlaut" unicode="&#x171;" 
d="M913 143l-4 2q-175 -168 -383 -168q-170 0 -264 107q-46 53 -67 127.5t-21 187.5v609h121v-586q0 -187 63 -258q67 -76 191 -76q189 0 364 186v734h121v-1008h-121v143zM643 1153l182 336h111l-209 -336h-84zM383 1153l182 336h111l-209 -336h-84z" />
    <glyph glyph-name="Uogonek" unicode="&#x172;" horiz-adv-x="1480" 
d="M1194 1483h121v-766q0 -190 -22.5 -311.5t-82.5 -212.5q-116 -173 -356 -207q-158 -129 -158 -256q0 -54 31.5 -83.5t83.5 -29.5q43 0 80 12v-86q-43 -16 -94 -16q-95 0 -150 52.5t-55 135.5q0 132 129 258l-2 4q-284 9 -424 187q-73 92 -101 221t-28 320v778h125v-768
q0 -175 23 -288t79 -185q114 -148 352 -148q132 0 224.5 46t144.5 128q45 72 62.5 176.5t17.5 266.5v772z" />
    <glyph glyph-name="uogonek" unicode="&#x173;" 
d="M913 143l-4 2q-175 -168 -383 -168q-170 0 -264 107q-46 53 -67 127.5t-21 187.5v609h121v-586q0 -187 63 -258q67 -76 191 -76q189 0 364 186v734h121v-1008q-83 -62 -128.5 -131.5t-45.5 -136.5q0 -57 30.5 -86t82.5 -29q39 0 80 12v-88q-51 -14 -95 -14
q-94 0 -148 52.5t-54 135.5q0 148 157 285v143z" />
    <glyph glyph-name="Wcircumflex" unicode="&#x174;" horiz-adv-x="2062" 
d="M156 1483l280 -776q97 -270 144 -404h4q78 220 145 402l303 823h4l303 -823q93 -253 146 -402h4q80 231 143 404l281 776h131l-553 -1528h-4l-336 911q-70 191 -117 324h-4q-51 -146 -119 -330l-331 -905h-5l-557 1528h138zM844 1606h-113l301 348h4l301 -348h-112
l-191 204z" />
    <glyph glyph-name="wcircumflex" unicode="&#x175;" horiz-adv-x="1679" 
d="M180 1008l172 -422q102 -249 140 -346h4q43 104 145 346l199 467h4l198 -467q118 -279 146 -346h4q66 167 139 346l172 422h125l-434 -1053h-4l-242 567q-25 57 -106 252h-4q-58 -138 -107 -252l-242 -567h-4l-434 1053h129zM651 1161h-112l301 348h4l301 -348h-113
l-190 205z" />
    <glyph glyph-name="Ycircumflex" unicode="&#x176;" horiz-adv-x="1318" 
d="M598 0v662l-573 821h145l238 -342q96 -138 251 -367h5q109 162 251 367l238 342h141l-571 -819v-664h-125zM473 1606h-113l302 348h4l301 -348h-113l-190 204z" />
    <glyph glyph-name="ycircumflex" unicode="&#x177;" horiz-adv-x="1071" 
d="M334 -451h-129l272 560l-426 899h133l201 -426q113 -241 156 -336h4q113 245 155 334l203 428h127zM352 1161h-112l301 348h4l301 -348h-113l-190 205z" />
    <glyph glyph-name="Ydieresis" unicode="&#x178;" horiz-adv-x="1318" 
d="M598 0v662l-573 821h145l238 -342q96 -138 251 -367h5q109 162 251 367l238 342h141l-571 -819v-664h-125zM768 1765q0 35 24.5 59.5t59.5 24.5t59.5 -24.5t24.5 -59.5t-24.5 -59.5t-59.5 -24.5t-59.5 24.5t-24.5 59.5zM391 1765q0 35 24.5 59.5t59.5 24.5t59.5 -24.5
t24.5 -59.5t-24.5 -59.5t-59.5 -24.5t-59.5 24.5t-24.5 59.5z" />
    <glyph glyph-name="Zacute" unicode="&#x179;" horiz-adv-x="1267" 
d="M1182 0h-1125l-2 4l920 1360l-2 4h-867v115h1090l2 -4l-919 -1360l2 -4h901v-115zM848 1933l-215 -336h-94l176 336h133z" />
    <glyph glyph-name="zacute" unicode="&#x17a;" horiz-adv-x="964" 
d="M899 0h-846l-2 4l641 889l-2 4h-600v111h819l2 -4l-641 -889l2 -4h627v-111zM688 1489l-215 -336h-94l176 336h133z" />
    <glyph glyph-name="Zdotaccent" unicode="&#x17b;" horiz-adv-x="1267" 
d="M1182 0h-1125l-2 4l920 1360l-2 4h-867v115h1090l2 -4l-919 -1360l2 -4h901v-115zM643 1681q-35 0 -59.5 24.5t-24.5 59.5t24.5 59.5t59.5 24.5t59.5 -24.5t24.5 -59.5t-24.5 -59.5t-59.5 -24.5z" />
    <glyph glyph-name="zdotaccent" unicode="&#x17c;" horiz-adv-x="964" 
d="M899 0h-846l-2 4l641 889l-2 4h-600v111h819l2 -4l-641 -889l2 -4h627v-111zM483 1237q-35 0 -59.5 24.5t-24.5 59.5t24.5 59.5t59.5 24.5t59.5 -24.5t24.5 -59.5t-24.5 -59.5t-59.5 -24.5z" />
    <glyph glyph-name="Zcaron" unicode="&#x17d;" horiz-adv-x="1267" 
d="M1182 0h-1125l-2 4l920 1360l-2 4h-867v115h1090l2 -4l-919 -1360l2 -4h901v-115zM834 1925h112l-301 -348h-4l-301 348h113l190 -205z" />
    <glyph glyph-name="zcaron" unicode="&#x17e;" horiz-adv-x="964" 
d="M899 0h-846l-2 4l641 889l-2 4h-600v111h819l2 -4l-641 -889l2 -4h627v-111zM674 1481h112l-301 -348h-4l-301 348h113l190 -205z" />
    <glyph glyph-name="longs" unicode="&#x17f;" horiz-adv-x="557" 
d="M690 1567v-109q-68 21 -147 21q-60 0 -100 -19t-60.5 -58t-28.5 -85.5t-8 -112.5v-1204h-121v901h-225l-2 4l92 103h135v188q0 110 20 185.5t70 123.5q85 82 228 82q79 0 147 -20z" />
    <glyph glyph-name="florin" unicode="&#x192;" horiz-adv-x="1009" 
d="M260 899l19 109h170l45 252q54 309 364 309q54 0 111 -13v-112q-49 14 -117 14q-207 0 -242 -198l-45 -252h279l-19 -109h-278l-189 -1079q-51 -293 -323 -293q-61 0 -105 12v115q58 -16 111 -16q168 0 203 192l186 1069h-170z" />
    <glyph glyph-name="AEacute" unicode="&#x1fc;" horiz-adv-x="1863" 
d="M938 543v362q0 246 2 369h-4q-114 -191 -207 -340l-240 -391h449zM1063 115h694v-115h-819v428h-520l-262 -428h-140l912 1483h811v-115h-676v-547h596v-114h-596v-592zM1444 1933l-215 -336h-94l176 336h133z" />
    <glyph glyph-name="aeacute" unicode="&#x1fd;" horiz-adv-x="1910" 
d="M868 502v372q-117 48 -237 48q-189 0 -297.5 -119.5t-108.5 -304.5q0 -180 102.5 -296t268.5 -116q193 0 334 154q-62 118 -62 262zM989 571h694q0 110 -47.5 191.5t-120.5 120.5t-157 39q-140 0 -246 -96t-123 -255zM987 840l4 -2q57 90 156 141t217 51q89 0 168 -32.5
t138.5 -91.5t94.5 -149.5t35 -199.5q0 -40 -4 -86h-807q10 -122 69 -210.5t148.5 -131.5t198.5 -43q181 0 336 117v-131q-69 -44 -160.5 -69.5t-183.5 -25.5q-124 0 -231 47.5t-179 133.5q-175 -181 -397 -181q-210 0 -348 142.5t-138 369.5q0 113 37 211.5t104.5 171.5
t167 115.5t218.5 42.5q165 0 356 -80v-110zM1231 1489l-215 -336h-94l176 336h133z" />
    <glyph glyph-name="Oslashacute" unicode="&#x1fe;" horiz-adv-x="1687" 
d="M391 289l828 977q-161 123 -375 123q-176 0 -319.5 -86.5t-223.5 -235t-80 -326.5q0 -130 44.5 -246.5t125.5 -205.5zM182 41l131 156q-103 104 -160 244.5t-57 299.5q0 211 97.5 386.5t269.5 276.5t381 101q254 0 452 -149l129 153l80 -67l-131 -156q103 -104 160 -245
t57 -300q0 -158 -57.5 -299.5t-156 -243.5t-237.5 -161.5t-296 -59.5q-254 0 -453 150l-129 -154zM1296 1194l-827 -977q161 -123 375 -123q176 0 319.5 86.5t223 234.5t79.5 326q0 130 -44.5 247t-125.5 206zM1049 1933l-215 -336h-95l176 336h134z" />
    <glyph glyph-name="oslashacute" unicode="&#x1ff;" horiz-adv-x="1249" 
d="M326 221l532 627q-101 72 -233 72q-172 0 -287 -119t-115 -297q0 -162 103 -283zM154 20l94 111q-69 72 -107.5 169t-38.5 204q0 147 67.5 267.5t187.5 189.5t268 69q175 0 307 -96l94 110l70 -57l-95 -110q69 -72 107.5 -169t38.5 -204q0 -147 -67 -267.5t-187 -190
t-268 -69.5q-174 0 -308 97l-94 -111zM924 786l-533 -626q101 -72 234 -72q172 0 286.5 119t114.5 297q0 162 -102 282zM829 1489l-215 -336h-94l176 336h133z" />
    <glyph glyph-name="Scommaaccent" unicode="&#x218;" horiz-adv-x="1136" 
d="M135 111v141q95 -80 207 -119t219 -39q152 0 245 78.5t93 214.5q0 44 -11.5 82t-28 65t-48 51.5t-57 39.5t-70 32t-72 25.5t-77.5 22.5q-73 20 -124.5 38.5t-111.5 51.5t-97 73t-62 101.5t-25 138.5q0 181 120 289t320 108q107 0 214 -33t189 -90v-137
q-91 69 -197.5 106.5t-205.5 37.5q-144 0 -229.5 -72.5t-85.5 -198.5q0 -57 23.5 -103.5t46.5 -72.5t85.5 -54.5t88.5 -37t106 -31.5q8 -3 12 -4q74 -21 129 -42.5t113 -56.5t95 -77.5t61 -104.5t24 -139q0 -193 -127 -305.5t-332 -112.5q-116 0 -231 36t-199 98zM569 -111
h119l-147 -446h-88z" />
    <glyph glyph-name="scommaaccent" unicode="&#x219;" horiz-adv-x="966" 
d="M111 70v131q80 -55 178.5 -84t195.5 -29q124 0 195.5 46.5t71.5 133.5q0 34 -10.5 61t-35 46.5t-48 32.5t-65.5 24t-71 16.5t-80 14.5q-57 10 -98.5 20t-91.5 31.5t-81.5 49.5t-53 74t-21.5 105q0 136 103 211.5t276 75.5q93 0 184.5 -23t161.5 -63v-129
q-158 105 -350 105q-117 0 -185.5 -43.5t-68.5 -126.5q0 -37 16 -64.5t38.5 -44t65.5 -30.5t76.5 -21t92.5 -17q8 -1 12 -2q61 -11 105 -22.5t94 -33.5t81.5 -51.5t52.5 -77t21 -107.5q0 -145 -108 -223.5t-285 -78.5q-99 0 -197.5 25t-170.5 68zM473 -111h119l-148 -446
h-88z" />
    <glyph glyph-name="uni021A" unicode="&#x21a;" horiz-adv-x="1267" 
d="M571 0v1368h-510v115h1145v-115h-510v-1368h-125zM631 -111h119l-148 -446h-88z" />
    <glyph glyph-name="uni021B" unicode="&#x21b;" horiz-adv-x="731" 
d="M678 901h-367v-512q0 -168 56 -237q52 -64 157 -64q85 0 154 37v-113q-82 -35 -174 -35q-155 0 -234 95q-80 96 -80 297v532h-170l-2 4l289 320l4 -2v-215h367v-107zM397 -111h119l-147 -446h-88z" />
    <glyph glyph-name="circumflex" unicode="&#x2c6;" horiz-adv-x="995" 
d="M307 1161h-112l301 348h4l301 -348h-113l-190 205z" />
    <glyph glyph-name="caron" unicode="&#x2c7;" horiz-adv-x="995" 
d="M688 1481h113l-301 -348h-4l-301 348h112l191 -205z" />
    <glyph glyph-name="breve" unicode="&#x2d8;" horiz-adv-x="995" 
d="M688 1466h80q-3 -128 -72 -210t-198 -82t-198.5 82.5t-72.5 209.5h80q8 -94 54 -153.5t137 -59.5t136.5 59.5t53.5 153.5z" />
    <glyph glyph-name="dotaccent" unicode="&#x2d9;" horiz-adv-x="995" 
d="M498 1237q-35 0 -59.5 24.5t-24.5 59.5t24.5 59.5t59.5 24.5t59.5 -24.5t24.5 -59.5t-24.5 -59.5t-59.5 -24.5z" />
    <glyph glyph-name="ring" unicode="&#x2da;" horiz-adv-x="995" 
d="M498 1135q-98 0 -164 65t-66 162t66 162t164 65t163.5 -65t65.5 -162t-65.5 -162t-163.5 -65zM498 1208q67 0 109 44.5t42 109.5t-42 109.5t-109 44.5t-109.5 -44.5t-42.5 -109.5t42.5 -109.5t109.5 -44.5z" />
    <glyph glyph-name="ogonek" unicode="&#x2db;" horiz-adv-x="995" 
d="M678 -371v-86q-43 -16 -94 -16q-95 0 -150 52.5t-55 135.5q0 82 53 164.5t143 151.5l95 -23q-187 -140 -187 -278q0 -54 31.5 -83.5t83.5 -29.5q42 0 80 12z" />
    <glyph glyph-name="tilde" unicode="&#x2dc;" horiz-adv-x="995" 
d="M809 1427v-114q-61 -90 -162 -90q-72 0 -162 55q-32 19 -48.5 28.5t-40.5 17t-46 7.5q-90 0 -160 -106l-4 2v114q27 40 69 65.5t93 25.5q65 0 162 -56q32 -19 48.5 -28.5t40.5 -17t46 -7.5q89 0 160 107z" />
    <glyph glyph-name="hungarumlaut" unicode="&#x2dd;" horiz-adv-x="995" 
d="M535 1153l182 336h110l-209 -336h-83zM274 1153l183 336h110l-209 -336h-84z" />
    <glyph glyph-name="uni0394" unicode="&#x394;" horiz-adv-x="1363" 
d="M12 4l666 1526h4l670 -1526l-2 -4h-1336zM516 866l-326 -751h977l-323 749q-132 308 -162 381h-4q-45 -109 -162 -379z" />
    <glyph glyph-name="uni03A9" unicode="&#x3a9;" horiz-adv-x="1519" 
d="M926 0v86q172 151 268 335t96 390q0 255 -142.5 416.5t-387.5 161.5t-388 -161.5t-143 -416.5q0 -206 96.5 -390t268.5 -335v-86h-553v115h381l2 4q-152 147 -236 328.5t-84 373.5q0 193 80 348t230.5 245.5t345.5 90.5t345.5 -90.5t230 -245.5t79.5 -348
q0 -192 -83.5 -373.5t-235.5 -328.5l2 -4h381v-115h-553z" />
    <glyph glyph-name="uni03BC" unicode="&#x3bc;" horiz-adv-x="1226" 
d="M307 -451h-127v1459h121v-586q0 -186 64 -258q67 -76 190 -76q190 0 365 186v734h120v-1008h-120v143l-5 2q-175 -168 -383 -168q-70 0 -132.5 21.5t-100.5 62.5l-4 -2z" />
    <glyph glyph-name="pi" unicode="&#x3c0;" horiz-adv-x="1304" 
d="M254 0v899h-217v109h1208v-109h-225v-618q0 -96 29.5 -140.5t113.5 -44.5q49 0 82 10v-108q-40 -12 -92 -12q-133 0 -197 75q-30 35 -43.5 85t-13.5 137v616h-524v-899h-121z" />
    <glyph glyph-name="uni0401" unicode="&#x401;" horiz-adv-x="1130" 
d="M184 0v1483h822v-115h-697v-547h617v-114h-617v-592h715v-115h-840zM702 1765q0 35 24.5 59.5t59.5 24.5t59.5 -24.5t24.5 -59.5t-24.5 -59.5t-59.5 -24.5t-59.5 24.5t-24.5 59.5zM326 1765q0 35 24.5 59.5t59.5 24.5t59.5 -24.5t24.5 -59.5t-24.5 -59.5t-59.5 -24.5
t-59.5 24.5t-24.5 59.5z" />
    <glyph glyph-name="uni0402" unicode="&#x402;" horiz-adv-x="1581" 
d="M631 0h-125v1368h-445v115h1170v-115h-600v-528q184 88 364 88q223 0 349 -125.5t126 -343.5q0 -223 -127 -352.5t-350 -129.5q-90 0 -174 25v119q89 -29 176 -29q170 0 260.5 96t90.5 263q0 168 -95 264t-272 96q-173 0 -348 -84v-727z" />
    <glyph glyph-name="uni0403" unicode="&#x403;" horiz-adv-x="1067" 
d="M184 0v1483h822v-115h-697v-1368h-125zM803 1933l-215 -336h-94l176 336h133z" />
    <glyph glyph-name="uni0404" unicode="&#x404;" horiz-adv-x="1366" 
d="M1067 702h-844q7 -130 55.5 -241.5t131 -193t200 -127.5t256.5 -46q229 0 408 127v-137q-173 -107 -412 -107q-168 0 -311 58t-242 159t-155 242t-56 303q0 214 92 387.5t267 276t403 102.5q219 0 402 -100v-139q-175 123 -402 123q-265 0 -437 -160t-196 -412h840v-115z
" />
    <glyph glyph-name="uni0405" unicode="&#x405;" horiz-adv-x="1136" 
d="M135 111v141q95 -80 207 -119t219 -39q152 0 245 78.5t93 214.5q0 44 -11.5 82t-28 65t-48 51.5t-57 39.5t-70 32t-72 25.5t-77.5 22.5q-73 20 -124.5 38.5t-111.5 51.5t-97 73t-62 101.5t-25 138.5q0 181 120 289t320 108q107 0 214 -33t189 -90v-137
q-91 69 -197.5 106.5t-205.5 37.5q-144 0 -229.5 -72.5t-85.5 -198.5q0 -57 23.5 -103.5t46.5 -72.5t85.5 -54.5t88.5 -37t106 -31.5q8 -3 12 -4q74 -21 129 -42.5t113 -56.5t95 -77.5t61 -104.5t24 -139q0 -193 -127 -305.5t-332 -112.5q-116 0 -231 36t-199 98z" />
    <glyph glyph-name="uni0406" unicode="&#x406;" horiz-adv-x="493" 
d="M184 0v1483h125v-1483h-125z" />
    <glyph glyph-name="uni0407" unicode="&#x407;" horiz-adv-x="493" 
d="M184 0v1483h125v-1483h-125zM307 1765q0 35 24.5 59.5t59.5 24.5t59.5 -24.5t24.5 -59.5t-24.5 -59.5t-59.5 -24.5t-59.5 24.5t-24.5 59.5zM16 1765q0 35 24.5 59.5t59.5 24.5t59.5 -24.5t24.5 -59.5t-24.5 -59.5t-59.5 -24.5t-59.5 24.5t-24.5 59.5z" />
    <glyph glyph-name="uni0408" unicode="&#x408;" horiz-adv-x="811" 
d="M78 23v120q113 -49 213 -49q54 0 92.5 15.5t61.5 40.5t36 66t17 83.5t4 101.5v1082h125v-1077q0 -126 -19 -201t-57 -123q-84 -105 -258 -105q-105 0 -215 46z" />
    <glyph glyph-name="uni0409" unicode="&#x409;" horiz-adv-x="2025" 
d="M1012 0v1368h-566v-362q0 -309 -25.5 -511t-105.5 -329q-110 -176 -288 -176q-17 0 -27 2v114h18q125 0 201 136q62 110 84.5 287.5t22.5 469.5v484h811v-619h198q146 0 249.5 -20.5t182.5 -71.5q181 -115 181 -338q0 -110 -45 -196.5t-127 -141.5q-78 -53 -188.5 -74.5
t-272.5 -21.5h-303zM1137 115h190q146 0 230.5 17t144.5 58q121 84 121 242q0 162 -131 246q-62 39 -146.5 55.5t-218.5 16.5h-190v-635z" />
    <glyph glyph-name="uni040A" unicode="&#x40a;" horiz-adv-x="2109" 
d="M164 0v1483h125v-625h807v625h125v-625h200q148 0 249 -20t181 -72q181 -117 181 -336q0 -108 -46 -194t-126 -140q-80 -53 -189.5 -74.5t-269.5 -21.5h-305v743h-807v-743h-125zM1221 115h194q143 0 227 17t144 58q121 83 121 238q0 165 -131 246q-60 38 -145 53.5
t-218 15.5h-192v-628z" />
    <glyph glyph-name="uni040B" unicode="&#x40b;" horiz-adv-x="1574" 
d="M631 0h-125v1368h-445v115h1170v-115h-600v-512q177 92 362 92q217 0 326 -106q104 -101 104 -314v-528h-125v510q0 172 -77 246q-81 78 -244 78q-181 0 -346 -91v-743z" />
    <glyph glyph-name="uni040C" unicode="&#x40c;" horiz-adv-x="1257" 
d="M184 0v1483h125v-697l4 -2l717 699h158l-729 -707l790 -776h-168l-768 756l-4 -2v-754h-125zM889 1933l-215 -336h-94l176 336h133z" />
    <glyph glyph-name="uni040E" unicode="&#x40e;" horiz-adv-x="1204" 
d="M1196 1483l-434 -948q-66 -145 -126.5 -244.5t-129.5 -172.5t-146.5 -107t-169.5 -34q-60 0 -104 15v117q54 -15 107 -15q65 0 124 27.5t108.5 79t89 110t79.5 135.5l-563 1037h135l276 -512q123 -227 211 -396h4q35 78 164 365l246 543h129zM621 1552q-138 0 -227.5 76
t-119.5 203l103 29q23 -96 86 -155.5t158 -59.5t157.5 59.5t85.5 155.5l103 -29q-31 -127 -119.5 -203t-226.5 -76z" />
    <glyph glyph-name="uni040F" unicode="&#x40f;" horiz-adv-x="1456" 
d="M184 0v1483h125v-1368h838v1368h125v-1483h-486v-342h-116v342h-486z" />
    <glyph glyph-name="uni0410" unicode="&#x410;" horiz-adv-x="1400" 
d="M381 543h635l-148 329q-134 303 -168 383h-4q-60 -140 -168 -381zM1257 0l-190 428h-737l-193 -428h-131l690 1530h4l695 -1530h-138z" />
    <glyph glyph-name="uni0411" unicode="&#x411;" 
d="M184 1483h811v-115h-686v-524h215q143 0 245 -20.5t177 -69.5q176 -114 176 -330q0 -105 -44.5 -189.5t-123.5 -140.5q-73 -52 -182 -73t-268 -21h-320v1483zM309 115h209q139 0 222.5 16.5t140.5 56.5q116 82 116 234q0 158 -125 237q-110 70 -354 70h-209v-614z" />
    <glyph glyph-name="uni0412" unicode="&#x412;" horiz-adv-x="1273" 
d="M184 0v1483h363q144 0 234.5 -18.5t158.5 -61.5q80 -51 124 -131t44 -176q0 -128 -71 -215.5t-195 -120.5v-4q136 -27 215.5 -119.5t79.5 -230.5q0 -100 -42.5 -181.5t-119.5 -134.5q-70 -47 -167.5 -68.5t-260.5 -21.5h-363zM309 115h240q140 0 219.5 17t132.5 54
q111 78 111 222q0 133 -102.5 210.5t-270.5 77.5h-330v-581zM309 1368v-561h324q155 0 252.5 73t97.5 207q0 143 -119 220q-52 33 -124.5 47t-198.5 14h-232z" />
    <glyph glyph-name="uni0413" unicode="&#x413;" horiz-adv-x="1067" 
d="M184 0v1483h822v-115h-697v-1368h-125z" />
    <glyph glyph-name="uni0414" unicode="&#x414;" horiz-adv-x="1357" 
d="M1016 113v1255h-578v-326q0 -299 -39 -521t-137 -408h754zM1141 113h164v-414h-117v301h-1061v-301h-117v414h115q112 183 152 398.5t40 526.5v445h824v-1370z" />
    <glyph glyph-name="uni0415" unicode="&#x415;" horiz-adv-x="1130" 
d="M184 0v1483h822v-115h-697v-547h617v-114h-617v-592h715v-115h-840z" />
    <glyph glyph-name="uni0416" unicode="&#x416;" horiz-adv-x="1751" 
d="M813 0v762l-4 2l-633 -764h-156l652 782l-586 701h150l573 -690l4 2v688h125v-688l4 -2l574 690h149l-586 -701l652 -782h-156l-633 764l-4 -2v-762h-125z" />
    <glyph glyph-name="uni0417" unicode="&#x417;" horiz-adv-x="1124" 
d="M356 696v111h144q148 0 241 78t93 215q0 140 -98 214.5t-249 74.5q-202 0 -381 -144v131q77 59 179.5 94t201.5 35q208 0 339.5 -104.5t131.5 -286.5q0 -128 -67.5 -219.5t-188.5 -128.5v-2q143 -29 222.5 -126.5t79.5 -238.5q0 -132 -71 -229t-187.5 -145t-262.5 -48
q-228 0 -391 113v141q165 -137 395 -137q169 0 280.5 79.5t111.5 227.5q0 136 -99 215.5t-270 79.5h-154z" />
    <glyph glyph-name="uni0418" unicode="&#x418;" horiz-adv-x="1538" 
d="M1354 1528v-1528h-125v780q0 285 2 426l-4 2q-48 -60 -271 -329l-768 -926l-4 2v1528h125v-774q0 -285 -2 -426l4 -2q48 60 271 329l768 920z" />
    <glyph glyph-name="uni0419" unicode="&#x419;" horiz-adv-x="1538" 
d="M1354 1528v-1528h-125v780q0 285 2 426l-4 2q-48 -60 -271 -329l-768 -926l-4 2v1528h125v-774q0 -285 -2 -426l4 -2q48 60 271 329l768 920zM768 1552q-138 0 -226.5 76t-119.5 203l102 29q23 -96 86 -155.5t158 -59.5t158 59.5t86 155.5l102 -29q-31 -127 -119.5 -203
t-226.5 -76z" />
    <glyph glyph-name="uni041A" unicode="&#x41a;" horiz-adv-x="1257" 
d="M184 0v1483h125v-697l4 -2l717 699h158l-729 -707l790 -776h-168l-768 756l-4 -2v-754h-125z" />
    <glyph glyph-name="uni041B" unicode="&#x41b;" horiz-adv-x="1331" 
d="M0 -8v114h18q125 0 201 136q62 110 84.5 287.5t22.5 469.5v484h823v-1483h-125v1368h-578v-362q0 -309 -25.5 -511t-105.5 -329q-110 -176 -288 -176q-17 0 -27 2z" />
    <glyph glyph-name="uni041C" unicode="&#x41c;" horiz-adv-x="1847" 
d="M184 0v1528l4 2l736 -830l735 830l4 -2v-1528h-125v883q0 227 2 327l-4 2q-113 -132 -229 -262l-385 -434l-385 434q-142 159 -230 262l-4 -2q2 -100 2 -327v-883h-121z" />
    <glyph glyph-name="uni041D" unicode="&#x41d;" horiz-adv-x="1515" 
d="M184 0v1483h125v-662h897v662h125v-1483h-125v707h-897v-707h-125z" />
    <glyph glyph-name="uni041E" unicode="&#x41e;" horiz-adv-x="1687" 
d="M96 741q0 211 97.5 386.5t269.5 276.5t381 101q157 0 296 -59.5t237.5 -161.5t156 -243.5t57.5 -299.5t-57.5 -299.5t-156 -243.5t-237.5 -161.5t-296 -59.5q-209 0 -381 101t-269.5 276.5t-97.5 386.5zM221 741q0 -178 80 -326t223 -234.5t320 -86.5q176 0 319.5 86.5
t223 234.5t79.5 326t-79.5 326.5t-223 235t-319.5 86.5t-319.5 -86.5t-223.5 -235t-80 -326.5z" />
    <glyph glyph-name="uni041F" unicode="&#x41f;" horiz-adv-x="1476" 
d="M184 0v1483h1108v-1483h-125v1368h-858v-1368h-125z" />
    <glyph glyph-name="uni0420" unicode="&#x420;" horiz-adv-x="1245" 
d="M184 0v1483h369q149 0 252 -21t182 -73q180 -122 180 -340q0 -111 -46 -198t-128 -144q-79 -54 -190 -75.5t-273 -21.5h-221v-610h-125zM309 723h236q151 0 233.5 18.5t141.5 59.5q120 87 120 243q0 165 -131 252q-63 40 -147 56t-217 16h-236v-645z" />
    <glyph glyph-name="uni0421" unicode="&#x421;" horiz-adv-x="1386" 
d="M1278 223v-141q-178 -105 -412 -105q-221 0 -397.5 100.5t-273.5 274.5t-97 387q0 158 56 298.5t155 243.5t243 163.5t312 60.5q203 0 389 -94v-139q-172 117 -389 117q-186 0 -333.5 -86.5t-227.5 -234t-80 -327.5q0 -135 47 -254t130.5 -205.5t205.5 -137t264 -50.5
q227 0 408 129z" />
    <glyph glyph-name="uni0422" unicode="&#x422;" horiz-adv-x="1267" 
d="M571 0v1368h-510v115h1145v-115h-510v-1368h-125z" />
    <glyph glyph-name="uni0423" unicode="&#x423;" horiz-adv-x="1204" 
d="M1196 1483l-434 -948q-66 -145 -126.5 -244.5t-129.5 -172.5t-146.5 -107t-169.5 -34q-60 0 -104 15v117q54 -15 107 -15q65 0 124 27.5t108.5 79t89 110t79.5 135.5l-563 1037h135l276 -512q123 -227 211 -396h4q35 78 164 365l246 543h129z" />
    <glyph glyph-name="uni0424" unicode="&#x424;" horiz-adv-x="1562" 
d="M842 1260v-959q237 3 377.5 135.5t140.5 343.5q0 212 -142 344.5t-376 135.5zM721 301v959q-237 -3 -377.5 -135.5t-140.5 -344.5t142 -344t376 -135zM842 1581v-209q145 -2 265.5 -47.5t202.5 -124t127.5 -186.5t45.5 -234q0 -259 -177 -424t-464 -168v-211h-121v211
q-145 2 -265.5 47.5t-202.5 124t-127.5 186.5t-45.5 234q0 259 177 424t464 168v209h121z" />
    <glyph glyph-name="uni0425" unicode="&#x425;" horiz-adv-x="1327" 
d="M25 0l559 786l-490 697h148l221 -318q62 -88 201 -293h4q16 23 84.5 124t109.5 159l230 328h141l-490 -697l560 -786h-148l-274 387q-94 132 -217 313h-5q-146 -210 -219 -313l-274 -387h-141z" />
    <glyph glyph-name="uni0426" unicode="&#x426;" horiz-adv-x="1478" 
d="M1309 -301v301h-1125v1483h125v-1368h828v1368h125v-1368h163v-416h-116z" />
    <glyph glyph-name="uni0427" unicode="&#x427;" horiz-adv-x="1302" 
d="M993 0v659q-200 -81 -387 -81q-233 0 -352 110q-113 104 -113 316v479h125v-461q0 -170 84 -248q88 -82 271 -82q175 0 372 80v711h125v-1483h-125z" />
    <glyph glyph-name="uni0428" unicode="&#x428;" horiz-adv-x="1943" 
d="M1759 0h-1575v1483h125v-1368h600v1368h125v-1368h600v1368h125v-1483z" />
    <glyph glyph-name="uni0429" unicode="&#x429;" horiz-adv-x="1970" 
d="M1800 -301v301h-1622v1483h125v-1368h600v1368h125v-1368h600v1368h125v-1368h164v-416h-117z" />
    <glyph glyph-name="uni042A" unicode="&#x42a;" horiz-adv-x="1476" 
d="M61 1368v115h527v-619h203q148 0 251.5 -20.5t182.5 -71.5q180 -117 180 -338q0 -110 -46 -196t-128 -142q-78 -53 -188.5 -74.5t-272.5 -21.5h-307v1368h-402zM588 115h196q145 0 229 17t144 58q123 86 123 242q0 165 -131 246q-64 39 -148.5 55.5t-218.5 16.5h-194
v-635z" />
    <glyph glyph-name="uni042B" unicode="&#x42b;" horiz-adv-x="1576" 
d="M184 1483h125v-619h162q147 0 250.5 -20.5t183.5 -71.5q180 -114 180 -338q0 -110 -46 -196t-128 -142q-78 -53 -188 -74.5t-272 -21.5h-267v1483zM309 115h154q146 0 230.5 17t144.5 58q123 86 123 242q0 161 -134 246q-62 39 -146 55.5t-218 16.5h-154v-635zM1268 0
v1483h125v-1483h-125z" />
    <glyph glyph-name="uni042C" unicode="&#x42c;" horiz-adv-x="1196" 
d="M184 1483h125v-619h203q146 0 249.5 -20.5t182.5 -71.5q180 -115 180 -338q0 -109 -45.5 -195.5t-126.5 -142.5q-78 -53 -188 -74.5t-272 -21.5h-308v1483zM309 115h195q146 0 230.5 17t144.5 58q120 84 120 242q0 165 -131 246q-62 39 -147 55.5t-217 16.5h-195v-635z
" />
    <glyph glyph-name="uni042D" unicode="&#x42d;" horiz-adv-x="1378" 
d="M100 1264v139q175 102 414 102q225 0 400 -98t270.5 -271.5t95.5 -392.5q0 -163 -54.5 -303.5t-152.5 -243t-242 -161t-315 -58.5q-234 0 -420 109v139q186 -131 420 -131q274 0 448 166.5t189 431.5h-842v115h842q-22 259 -196 420.5t-449 161.5q-228 0 -408 -125z" />
    <glyph glyph-name="uni042E" unicode="&#x42e;" horiz-adv-x="2193" 
d="M1370 94q173 0 311.5 86.5t214.5 234t76 326.5t-76 327t-214.5 234.5t-311.5 86.5q-166 0 -298 -87t-203.5 -234.5t-71.5 -326.5t71.5 -326.5t203.5 -234t298 -86.5zM309 821h367q12 145 69.5 271t147.5 217t214.5 143.5t264.5 52.5q206 0 372.5 -101.5t259.5 -276
t93 -386.5t-93 -386.5t-259.5 -276t-372.5 -101.5q-195 0 -353 96.5t-248.5 262.5t-98.5 371h-363v-707h-125v1483h125v-662z" />
    <glyph glyph-name="uni042F" unicode="&#x42f;" horiz-adv-x="1288" 
d="M979 731v637h-240q-135 0 -218 -16.5t-144 -57.5q-123 -84 -123 -245q0 -160 123 -244q59 -40 140.5 -57t221.5 -17h240zM743 1483h361v-1483h-125v623h-234q-73 0 -108 2l-457 -625h-147l473 639q-168 29 -272.5 138t-104.5 276q0 215 174 333q79 53 184.5 75t255.5 22z
" />
    <glyph glyph-name="uni0430" unicode="&#x430;" 
d="M913 92l-4 2q-60 -54 -143.5 -85.5t-177.5 -31.5q-101 0 -189.5 37t-153.5 103.5t-103 162.5t-38 209q0 150 63 272.5t182 195.5t272 73q145 0 297 -76l116 21v-975h-121v92zM913 215v623q-142 84 -292 84q-178 0 -287 -120.5t-109 -303.5q0 -180 104 -296t275 -116
q183 0 309 129z" />
    <glyph glyph-name="uni0431" unicode="&#x431;" horiz-adv-x="1267" 
d="M999 1585v-117q-114 -33 -247 -57q-146 -27 -232.5 -71.5t-146.5 -118.5q-124 -153 -142 -486h5q50 118 162 193.5t261 75.5q104 0 198 -39.5t161.5 -107.5t107 -163t39.5 -202q0 -217 -148.5 -366t-369.5 -149q-118 0 -215.5 45t-165.5 121q-76 87 -110.5 214.5
t-34.5 314.5q0 441 184 645q83 92 188 138t242 71q150 26 264 59zM649 88q169 0 282 115.5t113 288.5q0 172 -113.5 287.5t-283.5 115.5q-168 0 -280.5 -115t-112.5 -286q0 -173 113 -289.5t282 -116.5z" />
    <glyph glyph-name="uni0432" unicode="&#x432;" horiz-adv-x="1091" 
d="M178 0v1008h354q108 0 175.5 -13t119.5 -43q125 -72 125 -209q0 -85 -51.5 -143t-138.5 -80v-2q99 -24 156 -85.5t57 -153.5q0 -142 -127 -220q-52 -32 -123 -45.5t-190 -13.5h-357zM297 559h295q106 0 172.5 44t66.5 124q0 89 -81 135q-64 37 -222 37h-231v-340z
M297 109h238q175 0 241 41q78 49 78 135q0 83 -69.5 129.5t-186.5 46.5h-301v-352z" />
    <glyph glyph-name="uni0433" unicode="&#x433;" horiz-adv-x="872" 
d="M178 0v1008h653v-111h-532v-897h-121z" />
    <glyph glyph-name="uni0434" unicode="&#x434;" horiz-adv-x="1142" 
d="M815 109v788h-426v-145q0 -415 -158 -643h584zM936 109h125v-365h-113v256h-835v-256h-113v365h92q178 211 178 643v256h666v-899z" />
    <glyph glyph-name="uni0435" unicode="&#x435;" horiz-adv-x="1159" 
d="M227 571h703q-1 78 -23.5 140t-56.5 100.5t-79 64.5t-87.5 36t-85.5 10q-142 0 -246.5 -97t-124.5 -254zM989 203v-131q-70 -44 -162 -69.5t-184 -25.5q-153 0 -276 66t-193 186.5t-70 274.5q0 114 39.5 213t107 167t159 107t192.5 39q190 0 318.5 -128t128.5 -345
q0 -23 -5 -86h-819q10 -177 129 -281t297 -104q180 0 338 117z" />
    <glyph glyph-name="uni0436" unicode="&#x436;" horiz-adv-x="1341" 
d="M610 0v508l-2 2l-436 -510h-147l456 526l-424 482h144l407 -469l2 2v467h119v-467l2 -2l410 469h143l-424 -482l457 -526h-148l-438 510l-2 -2v-508h-119z" />
    <glyph glyph-name="uni0437" unicode="&#x437;" horiz-adv-x="980" 
d="M104 74v125q159 -111 353 -111q126 0 205 47t79 139q0 85 -68.5 134t-189.5 49h-172v102h168q112 0 178 47t66 129q0 92 -78 138.5t-199 46.5q-186 0 -335 -115v117q141 108 344 108q108 0 195 -31.5t140.5 -96t53.5 -152.5q0 -86 -50 -147.5t-139 -86.5v-2
q98 -23 152.5 -88.5t54.5 -159.5q0 -137 -115.5 -213t-289.5 -76q-202 0 -353 97z" />
    <glyph glyph-name="uni0438" unicode="&#x438;" horiz-adv-x="1234" 
d="M182 -45l-4 2v1051h121v-478q0 -190 -2 -284l4 -2q102 111 219 237l533 572l4 -2v-1051h-121v477q0 191 2 285l-4 2q-190 -207 -219 -238z" />
    <glyph glyph-name="uni0439" unicode="&#x439;" horiz-adv-x="1234" 
d="M182 -45l-4 2v1051h121v-478q0 -190 -2 -284l4 -2q102 111 219 237l533 572l4 -2v-1051h-121v477q0 191 2 285l-4 2q-190 -207 -219 -238zM618 1108q-132 0 -217 73t-116 195l100 27q21 -92 81 -148.5t152 -56.5t152.5 56.5t81.5 148.5l100 -27q-31 -122 -116.5 -195
t-217.5 -73z" />
    <glyph glyph-name="uni043A" unicode="&#x43a;" horiz-adv-x="1017" 
d="M178 0v1008h121v-469l2 -2l520 471h156l-531 -476l558 -532h-162l-541 522l-2 -2v-520h-121z" />
    <glyph glyph-name="uni043B" unicode="&#x43b;" horiz-adv-x="1128" 
d="M829 0v897h-454v-211q0 -206 -21 -340.5t-82 -222.5q-42 -61 -104.5 -95t-136.5 -34q-23 0 -31 2v113h20q103 0 160 88q44 70 59 185t15 304v322h696v-1008h-121z" />
    <glyph glyph-name="uni043C" unicode="&#x43c;" horiz-adv-x="1384" 
d="M688 303l-215 244q-130 149 -174 201l-4 -3q2 -82 2 -245v-500h-119v1051l4 2l508 -576l508 576l4 -2v-1051h-121v502q0 164 2 246l-4 2q-116 -135 -174 -201z" />
    <glyph glyph-name="uni043D" unicode="&#x43d;" horiz-adv-x="1208" 
d="M178 0v1008h121v-437h610v437h121v-1008h-121v461h-610v-461h-121z" />
    <glyph glyph-name="uni043E" unicode="&#x43e;" horiz-adv-x="1249" 
d="M102 504q0 147 67.5 267.5t187.5 189.5t268 69q111 0 208.5 -40.5t166 -110.5t108 -167.5t39.5 -207.5q0 -147 -67 -267.5t-187 -190t-268 -69.5t-268 69.5t-187.5 190t-67.5 267.5zM223 504q0 -178 115 -297t287 -119t286.5 119t114.5 297t-114.5 297t-286.5 119
t-287 -119t-115 -297z" />
    <glyph glyph-name="uni043F" unicode="&#x43f;" horiz-adv-x="1189" 
d="M178 0v1008h834v-1008h-121v897h-592v-897h-121z" />
    <glyph glyph-name="uni0440" unicode="&#x440;" 
d="M299 63v-514h-121v1459h121v-86l4 -2q148 110 318 110q211 0 349 -148t138 -376q0 -232 -143.5 -380.5t-362.5 -148.5q-161 0 -299 89zM299 188q60 -47 139.5 -75.5t163.5 -28.5q172 0 278.5 116.5t106.5 299.5q0 181 -106 301.5t-277 120.5q-84 0 -164 -31.5t-141 -89.5
v-613z" />
    <glyph glyph-name="uni0441" unicode="&#x441;" horiz-adv-x="1042" 
d="M926 184v-133q-129 -74 -293 -74q-232 0 -381.5 149.5t-149.5 373.5q0 229 153 379.5t386 150.5q145 0 268 -63v-129q-127 82 -272 82q-183 0 -298.5 -119.5t-115.5 -300.5q0 -180 117 -296t297 -116q169 0 289 96z" />
    <glyph glyph-name="uni0442" unicode="&#x442;" horiz-adv-x="944" 
d="M412 0v897h-371v111h862v-111h-371v-897h-120z" />
    <glyph glyph-name="uni0443" unicode="&#x443;" horiz-adv-x="1071" 
d="M334 -451h-129l272 560l-426 899h133l201 -426q113 -241 156 -336h4q113 245 155 334l203 428h127z" />
    <glyph glyph-name="uni0444" unicode="&#x444;" horiz-adv-x="1452" 
d="M786 915v-827q198 2 321.5 115.5t123.5 298.5q0 184 -124 297.5t-321 115.5zM666 88v827q-198 -2 -321.5 -115t-123.5 -298q0 -184 124 -298t321 -116zM786 1565v-541q251 -3 408.5 -147.5t157.5 -374.5q0 -231 -157.5 -375t-408.5 -147v-431h-120v431
q-251 3 -408.5 147.5t-157.5 374.5q0 231 157.5 375t408.5 147v541h120z" />
    <glyph glyph-name="uni0445" unicode="&#x445;" horiz-adv-x="1005" 
d="M860 0l-178 227q-98 125 -178 232h-4q-46 -61 -183 -236l-176 -223h-137l422 535l-373 473h144l157 -201q133 -172 150 -195h4q65 87 151 197l156 199h137l-370 -471l422 -537h-144z" />
    <glyph glyph-name="uni0446" unicode="&#x446;" horiz-adv-x="1200" 
d="M1006 -256v256h-828v1008h121v-897h573v897h121v-897h125v-367h-112z" />
    <glyph glyph-name="uni0447" unicode="&#x447;" horiz-adv-x="1083" 
d="M784 0v381q-131 -55 -278 -55q-196 0 -299 98q-101 95 -101 303v281h121v-275q0 -89 18.5 -142.5t57.5 -88.5q75 -66 217 -66q130 0 264 56v516h121v-1008h-121z" />
    <glyph glyph-name="uni0448" unicode="&#x448;" horiz-adv-x="1619" 
d="M1442 0h-1264v1008h121v-897h451v897h120v-897h451v897h121v-1008z" />
    <glyph glyph-name="uni0449" unicode="&#x449;" horiz-adv-x="1648" 
d="M1454 -256v256h-1276v1008h121v-897h451v897h120v-897h451v897h121v-897h125v-367h-113z" />
    <glyph glyph-name="uni044A" unicode="&#x44a;" horiz-adv-x="1179" 
d="M340 0v897h-299v111h418v-392h196q221 0 324 -63q139 -84 139 -242q0 -160 -133 -243q-109 -68 -340 -68h-305zM459 109h194q101 0 159 10.5t99 36.5q86 54 86 151q0 103 -92 156q-78 45 -254 45h-192v-399z" />
    <glyph glyph-name="uni044B" unicode="&#x44b;" horiz-adv-x="1396" 
d="M1098 0v1008h121v-1008h-121zM178 0v1008h121v-383h170q216 0 326 -66q139 -82 139 -244q0 -164 -131 -245q-113 -70 -344 -70h-281zM299 109h168q183 0 260 49q86 54 86 153q0 105 -92 158q-81 47 -256 47h-166v-407z" />
    <glyph glyph-name="uni044C" unicode="&#x44c;" horiz-adv-x="1021" 
d="M178 0v1008h121v-392h199q220 0 323 -63q140 -85 140 -242q0 -160 -134 -243q-109 -68 -340 -68h-309zM299 109h197q101 0 159 10.5t99 36.5q86 54 86 151q0 103 -92 156q-78 45 -254 45h-195v-399z" />
    <glyph glyph-name="uni044D" unicode="&#x44d;" horiz-adv-x="1044" 
d="M106 834v129q128 67 291 67q241 0 393 -148t152 -376q0 -112 -39.5 -209.5t-109.5 -168t-172.5 -111t-223.5 -40.5q-164 0 -291 68v129q140 -86 291 -86q174 0 288.5 102t133.5 265h-583v104h583q-19 160 -134.5 260.5t-293.5 100.5q-158 0 -285 -86z" />
    <glyph glyph-name="uni044E" unicode="&#x44e;" horiz-adv-x="1654" 
d="M1044 88q169 0 278.5 118.5t109.5 297.5t-109.5 297.5t-278.5 118.5q-163 0 -267.5 -118t-104.5 -298t104.5 -298t267.5 -118zM299 569h256q20 200 156 330.5t333 130.5q146 0 262.5 -69.5t181 -189.5t64.5 -267t-64.5 -267.5t-181 -190t-262.5 -69.5q-203 0 -340 137
t-151 345h-254v-459h-121v1008h121v-439z" />
    <glyph glyph-name="uni044F" unicode="&#x44f;" horiz-adv-x="1091" 
d="M795 514v385h-213q-96 0 -151.5 -9.5t-94.5 -35.5q-78 -53 -78 -147q0 -102 86 -150q76 -43 240 -43h211zM590 1008h323v-1008h-118v414h-269l-317 -414h-137l329 426q-113 16 -188.5 91.5t-75.5 189.5q0 153 125 233q107 68 328 68z" />
    <glyph glyph-name="uni0451" unicode="&#x451;" horiz-adv-x="1159" 
d="M227 571h703q-1 78 -23.5 140t-56.5 100.5t-79 64.5t-87.5 36t-85.5 10q-142 0 -246.5 -97t-124.5 -254zM989 203v-131q-70 -44 -162 -69.5t-184 -25.5q-153 0 -276 66t-193 186.5t-70 274.5q0 114 39.5 213t107 167t159 107t192.5 39q190 0 318.5 -128t128.5 -345
q0 -23 -5 -86h-819q10 -177 129 -281t297 -104q180 0 338 117zM694 1321q0 35 24.5 59.5t59.5 24.5t59.5 -24.5t24.5 -59.5t-24.5 -59.5t-59.5 -24.5t-59.5 24.5t-24.5 59.5zM317 1321q0 35 24.5 59.5t59.5 24.5t59.5 -24.5t24.5 -59.5t-24.5 -59.5t-59.5 -24.5t-59.5 24.5
t-24.5 59.5z" />
    <glyph glyph-name="uni0452" unicode="&#x452;" 
d="M1038 569v-708q0 -175 -65 -250q-73 -84 -215 -84q-53 0 -111 14v109q70 -12 109 -12q93 0 127.5 54t34.5 163v692q0 94 -15 149t-51 92q-66 72 -182 72q-198 0 -371 -180v-680h-121v1182h-213l-2 4l88 98h127v281h121v-281h408v-102h-408v-373l4 -2q177 166 387 166
q162 0 258 -103q47 -51 68.5 -121t21.5 -180z" />
    <glyph glyph-name="uni0453" unicode="&#x453;" horiz-adv-x="872" 
d="M178 0v1008h653v-111h-532v-897h-121zM741 1489l-215 -336h-94l176 336h133z" />
    <glyph glyph-name="uni0454" unicode="&#x454;" horiz-adv-x="1046" 
d="M809 461h-584q14 -164 131 -268.5t297 -104.5q158 0 291 88v-129q-131 -70 -295 -70q-241 0 -394 148.5t-153 374.5q0 228 152.5 379t394.5 151q155 0 285 -65v-127q-132 82 -285 82q-172 0 -286.5 -99t-135.5 -256h582v-104z" />
    <glyph glyph-name="uni0455" unicode="&#x455;" horiz-adv-x="966" 
d="M111 70v131q80 -55 178.5 -84t195.5 -29q124 0 195.5 46.5t71.5 133.5q0 34 -10.5 61t-35 46.5t-48 32.5t-65.5 24t-71 16.5t-80 14.5q-57 10 -98.5 20t-91.5 31.5t-81.5 49.5t-53 74t-21.5 105q0 136 103 211.5t276 75.5q93 0 184.5 -23t161.5 -63v-129
q-158 105 -350 105q-117 0 -185.5 -43.5t-68.5 -126.5q0 -37 16 -64.5t38.5 -44t65.5 -30.5t76.5 -21t92.5 -17q8 -1 12 -2q61 -11 105 -22.5t94 -33.5t81.5 -51.5t52.5 -77t21 -107.5q0 -145 -108 -223.5t-285 -78.5q-99 0 -197.5 25t-170.5 68z" />
    <glyph glyph-name="uni0456" unicode="&#x456;" horiz-adv-x="477" 
d="M178 0v1008h121v-1008h-121zM150 1360q0 37 26 62.5t64 25.5q37 0 62.5 -26t25.5 -64q0 -37 -26 -62.5t-64 -25.5q-37 0 -62.5 26t-25.5 64z" />
    <glyph glyph-name="uni0457" unicode="&#x457;" horiz-adv-x="477" 
d="M178 0v1008h121v-1008h-121zM299 1321q0 35 24.5 59.5t59.5 24.5t59.5 -24.5t24.5 -59.5t-24.5 -59.5t-59.5 -24.5t-59.5 24.5t-24.5 59.5zM8 1321q0 35 24.5 59.5t59.5 24.5t59.5 -24.5t24.5 -59.5t-24.5 -59.5t-59.5 -24.5t-59.5 24.5t-24.5 59.5z" />
    <glyph glyph-name="uni0458" unicode="&#x458;" horiz-adv-x="481" 
d="M182 -145v1153h121v-1147q0 -175 -65 -250q-73 -84 -215 -84q-53 0 -111 14v109q70 -12 108 -12q93 0 127.5 54t34.5 163zM154 1360q0 37 26 62.5t64 25.5q37 0 62.5 -26t25.5 -64q0 -37 -26 -62.5t-64 -25.5q-37 0 -62.5 26t-25.5 64z" />
    <glyph glyph-name="uni0459" unicode="&#x459;" horiz-adv-x="1593" 
d="M778 0v897h-403v-211q0 -206 -21 -340.5t-82 -222.5q-42 -61 -104.5 -95t-136.5 -34q-23 0 -31 2v113h20q103 0 160 88q44 70 59 185t15 304v322h643v-392h172q221 0 324 -63q139 -84 139 -242q0 -160 -133 -243q-109 -68 -340 -68h-281zM897 109h170q101 0 159 10.5
t99 36.5q86 54 86 151q0 103 -92 156q-78 45 -254 45h-168v-399z" />
    <glyph glyph-name="uni045A" unicode="&#x45a;" horiz-adv-x="1665" 
d="M852 0v498h-553v-498h-121v1008h121v-402h553v402h121v-402h172q216 0 321 -63q138 -82 138 -238t-131 -237q-109 -68 -336 -68h-285zM973 109h170q99 0 157 10.5t99 36.5q84 54 84 147q0 96 -90 150q-75 45 -252 45h-168v-389z" />
    <glyph glyph-name="uni045B" unicode="&#x45b;" 
d="M1038 569v-569h-120v547q0 94 -15 149t-51 92q-66 72 -182 72q-198 0 -371 -180v-680h-121v1182h-213l-2 4l88 98h127v281h121v-281h408v-102h-408v-373l4 -2q177 166 387 166q162 0 258 -103q47 -51 68.5 -121t21.5 -180z" />
    <glyph glyph-name="uni045C" unicode="&#x45c;" horiz-adv-x="1017" 
d="M178 0v1008h121v-469l2 -2l520 471h156l-531 -476l558 -532h-162l-541 522l-2 -2v-520h-121zM786 1489l-215 -336h-94l176 336h133z" />
    <glyph glyph-name="uni045E" unicode="&#x45e;" horiz-adv-x="1071" 
d="M334 -451h-129l272 560l-426 899h133l201 -426q113 -241 156 -336h4q113 245 155 334l203 428h127zM543 1108q-132 0 -217.5 73t-116.5 195l100 27q21 -92 81.5 -148.5t152.5 -56.5t152 56.5t81 148.5l101 -27q-31 -122 -116.5 -195t-217.5 -73z" />
    <glyph glyph-name="uni045F" unicode="&#x45f;" horiz-adv-x="1177" 
d="M178 0v1008h121v-897h580v897h120v-1008h-354v-293h-113v293h-354z" />
    <glyph glyph-name="uni0462" unicode="&#x462;" horiz-adv-x="1378" 
d="M0 1165v115h367v203h125v-203h530v-115h-530v-301h202q146 0 249.5 -20.5t182.5 -71.5q181 -115 181 -338q0 -109 -45.5 -195.5t-126.5 -142.5q-78 -53 -188.5 -74.5t-272.5 -21.5h-307v1165h-367zM492 115h194q146 0 230.5 17t144.5 58q121 84 121 242q0 165 -131 246
q-62 39 -147 55.5t-218 16.5h-194v-635z" />
    <glyph glyph-name="uni0463" unicode="&#x463;" horiz-adv-x="1159" 
d="M41 901v107h299v557h121v-557h391v-107h-391v-293h180q216 0 320 -61q137 -82 137 -240q0 -161 -129 -241q-108 -66 -336 -66h-293v901h-299zM461 109h180q180 0 252 45q84 52 84 149q0 98 -90 152q-75 45 -248 45h-178v-391z" />
    <glyph glyph-name="uni0474" unicode="&#x474;" horiz-adv-x="1413" 
d="M639 -47l-625 1530h138l346 -854q85 -211 143 -361h4q69 174 154 383l239 590q55 134 132.5 200t201.5 66q33 0 60 -6v-117q-25 5 -54 5q-85 0 -135.5 -47t-91.5 -146l-508 -1243h-4z" />
    <glyph glyph-name="uni0475" unicode="&#x475;" horiz-adv-x="1097" 
d="M651 520l137 309q42 95 104.5 148t160.5 53q31 0 63 -8v-109q-25 5 -53 5q-61 0 -99.5 -33t-68.5 -99l-375 -831h-4l-475 1053h131l217 -488q51 -115 129 -295h4q52 120 129 295z" />
    <glyph glyph-name="uni0490" unicode="&#x490;" horiz-adv-x="1067" 
d="M184 0v1483h705v301h117v-416h-697v-1368h-125z" />
    <glyph glyph-name="uni0491" unicode="&#x491;" horiz-adv-x="872" 
d="M178 0v1008h541v221h112v-332h-532v-897h-121z" />
    <glyph glyph-name="uni04D9" unicode="&#x4d9;" horiz-adv-x="1161" 
d="M229 461v-17q0 -78 21 -141t54.5 -103t79 -66t91.5 -37t94 -11q65 0 125.5 22t113.5 65.5t87.5 118t40.5 169.5h-707zM172 807v129q70 43 163 68.5t187 25.5q232 0 383.5 -146.5t151.5 -379.5q0 -231 -140 -379t-352 -148q-196 0 -325 127.5t-129 346.5q0 65 10 110h813
q-19 165 -135 263t-285 98q-186 0 -342 -115z" />
    <glyph glyph-name="uni04E8" unicode="&#x4e8;" horiz-adv-x="1687" 
d="M1464 690h-1241q9 -125 59 -235t131 -189.5t192.5 -125.5t238.5 -46q169 0 307 79t220 214.5t93 302.5zM223 805h1241q-14 164 -96.5 297t-219.5 210t-304 77q-125 0 -236 -45t-191.5 -123t-131.5 -185.5t-62 -230.5zM844 1505q157 0 296 -59.5t237.5 -161.5t156 -243.5
t57.5 -299.5t-57.5 -299.5t-156 -243.5t-237.5 -161.5t-296 -59.5q-209 0 -381 101t-269.5 276.5t-97.5 386.5t97.5 386.5t269.5 276.5t381 101z" />
    <glyph glyph-name="uni04E9" unicode="&#x4e9;" horiz-adv-x="1253" 
d="M1028 457h-803q15 -161 127 -265t275 -104t274.5 104t126.5 265zM225 557h803q-19 160 -129.5 261.5t-271.5 101.5t-272 -101.5t-130 -261.5zM627 1030q227 0 375.5 -151t148.5 -375t-148.5 -375.5t-375.5 -151.5t-376 151.5t-149 375.5t149 375t376 151z" />
    <glyph glyph-name="Wgrave" unicode="&#x1e80;" horiz-adv-x="2062" 
d="M156 1483l280 -776q97 -270 144 -404h4q78 220 145 402l303 823h4l303 -823q93 -253 146 -402h4q80 231 143 404l281 776h131l-553 -1528h-4l-336 911q-70 191 -117 324h-4q-51 -146 -119 -330l-331 -905h-5l-557 1528h138zM1044 1597l-215 336h134l176 -336h-95z" />
    <glyph glyph-name="wgrave" unicode="&#x1e81;" horiz-adv-x="1679" 
d="M180 1008l172 -422q102 -249 140 -346h4q43 104 145 346l199 467h4l198 -467q118 -279 146 -346h4q66 167 139 346l172 422h125l-434 -1053h-4l-242 567q-25 57 -106 252h-4q-58 -138 -107 -252l-242 -567h-4l-434 1053h129zM852 1153l-215 336h133l176 -336h-94z" />
    <glyph glyph-name="Wacute" unicode="&#x1e82;" horiz-adv-x="2062" 
d="M156 1483l280 -776q97 -270 144 -404h4q78 220 145 402l303 823h4l303 -823q93 -253 146 -402h4q80 231 143 404l281 776h131l-553 -1528h-4l-336 911q-70 191 -117 324h-4q-51 -146 -119 -330l-331 -905h-5l-557 1528h138zM1239 1933l-215 -336h-94l176 336h133z" />
    <glyph glyph-name="wacute" unicode="&#x1e83;" horiz-adv-x="1679" 
d="M180 1008l172 -422q102 -249 140 -346h4q43 104 145 346l199 467h4l198 -467q118 -279 146 -346h4q66 167 139 346l172 422h125l-434 -1053h-4l-242 567q-25 57 -106 252h-4q-58 -138 -107 -252l-242 -567h-4l-434 1053h129zM1047 1489l-216 -336h-94l176 336h134z" />
    <glyph glyph-name="Wdieresis" unicode="&#x1e84;" horiz-adv-x="2062" 
d="M156 1483l280 -776q97 -270 144 -404h4q78 220 145 402l303 823h4l303 -823q93 -253 146 -402h4q80 231 143 404l281 776h131l-553 -1528h-4l-336 911q-70 191 -117 324h-4q-51 -146 -119 -330l-331 -905h-5l-557 1528h138zM1139 1765q0 35 24.5 59.5t59.5 24.5
t59.5 -24.5t24.5 -59.5t-24.5 -59.5t-59.5 -24.5t-59.5 24.5t-24.5 59.5zM762 1765q0 35 24.5 59.5t59.5 24.5t59.5 -24.5t24.5 -59.5t-24.5 -59.5t-59.5 -24.5t-59.5 24.5t-24.5 59.5z" />
    <glyph glyph-name="wdieresis" unicode="&#x1e85;" horiz-adv-x="1679" 
d="M180 1008l172 -422q102 -249 140 -346h4q43 104 145 346l199 467h4l198 -467q118 -279 146 -346h4q66 167 139 346l172 422h125l-434 -1053h-4l-242 567q-25 57 -106 252h-4q-58 -138 -107 -252l-242 -567h-4l-434 1053h129zM946 1321q0 35 24.5 59.5t59.5 24.5
t59.5 -24.5t24.5 -59.5t-24.5 -59.5t-59.5 -24.5t-59.5 24.5t-24.5 59.5zM569 1321q0 35 24.5 59.5t59.5 24.5t59.5 -24.5t24.5 -59.5t-24.5 -59.5t-59.5 -24.5t-59.5 24.5t-24.5 59.5z" />
    <glyph glyph-name="Ygrave" unicode="&#x1ef2;" horiz-adv-x="1318" 
d="M598 0v662l-573 821h145l238 -342q96 -138 251 -367h5q109 162 251 367l238 342h141l-571 -819v-664h-125zM674 1597l-215 336h133l176 -336h-94z" />
    <glyph glyph-name="ygrave" unicode="&#x1ef3;" horiz-adv-x="1071" 
d="M334 -451h-129l272 560l-426 899h133l201 -426q113 -241 156 -336h4q113 245 155 334l203 428h127zM553 1153l-215 336h133l176 -336h-94z" />
    <glyph glyph-name="endash" unicode="&#x2013;" horiz-adv-x="1019" 
d="M109 518v98h802v-98h-802z" />
    <glyph glyph-name="emdash" unicode="&#x2014;" horiz-adv-x="1617" 
d="M78 524v88h1462v-88h-1462z" />
    <glyph glyph-name="quoteleft" unicode="&#x2018;" horiz-adv-x="548" 
d="M152 985l153 535h84l-117 -535h-120z" />
    <glyph glyph-name="quoteright" unicode="&#x2019;" horiz-adv-x="548" 
d="M160 985l116 535h121l-153 -535h-84z" />
    <glyph glyph-name="quotesinglbase" unicode="&#x201a;" horiz-adv-x="548" 
d="M152 -199l116 535h121l-153 -535h-84z" />
    <glyph glyph-name="quotedblleft" unicode="&#x201c;" horiz-adv-x="856" 
d="M152 985l153 535h84l-117 -535h-120zM457 985l153 535h84l-116 -535h-121z" />
    <glyph glyph-name="quotedblright" unicode="&#x201d;" horiz-adv-x="856" 
d="M160 985l116 535h121l-153 -535h-84zM465 985l117 535h120l-153 -535h-84z" />
    <glyph glyph-name="quotedblbase" unicode="&#x201e;" horiz-adv-x="854" 
d="M152 -199l116 535h121l-153 -535h-84zM457 -199l116 535h121l-153 -535h-84z" />
    <glyph glyph-name="dagger" unicode="&#x2020;" horiz-adv-x="1253" 
d="M571 -451v1330h-432v106h432v498h111v-498h432v-106h-432v-1330h-111z" />
    <glyph glyph-name="daggerdbl" unicode="&#x2021;" horiz-adv-x="1253" 
d="M139 47v107h432v725h-432v106h432v498h111v-498h432v-106h-432v-725h432v-107h-432v-498h-111v498h-432z" />
    <glyph glyph-name="bullet" unicode="&#x2022;" horiz-adv-x="796" 
d="M193 608q0 85 59.5 145t144.5 60t145 -60t60 -145t-60 -145t-145 -60t-144.5 60t-59.5 145z" />
    <glyph glyph-name="ellipsis" unicode="&#x2026;" horiz-adv-x="1708" 
d="M211 74q0 40 28 68t68 28t68 -28t28 -68t-28 -68.5t-68 -28.5t-68 28.5t-28 68.5zM758 74q0 40 28 68t68 28t68 -28t28 -68t-28 -68.5t-68 -28.5t-68 28.5t-28 68.5zM1305 74q0 40 28 68t68 28t68 -28t28 -68t-28 -68.5t-68 -28.5t-68 28.5t-28 68.5z" />
    <glyph glyph-name="perthousand" unicode="&#x2030;" horiz-adv-x="2762" 
d="M410 0l964 1483h121l-965 -1483h-120zM469 840q105 0 176.5 81t71.5 201t-72 201.5t-176 81.5q-106 0 -177 -81.5t-71 -201.5t71 -201t177 -81zM469 739q-152 0 -252 110t-100 273t100 273t252 110t252 -110t100 -273t-100 -273t-252 -110zM1436 643q-104 0 -176 -81.5
t-72 -201.5t71.5 -201t176.5 -81q106 0 176.5 81t70.5 201t-70.5 201.5t-176.5 81.5zM1436 743q152 0 252 -110t100 -273t-100 -273t-252 -110t-252.5 110t-100.5 273t100.5 273t252.5 110zM2294 643q-104 0 -176 -81.5t-72 -201.5t71.5 -201t176.5 -81q106 0 177 81t71 201
t-71 201.5t-177 81.5zM2294 743q152 0 252 -110t100 -273t-100 -273t-252 -110t-252 110t-100 273t100 273t252 110z" />
    <glyph glyph-name="minute" unicode="&#x2032;" horiz-adv-x="448" 
d="M135 985l72 535h125l-109 -535h-88z" />
    <glyph glyph-name="second" unicode="&#x2033;" horiz-adv-x="757" 
d="M135 985l72 535h125l-109 -535h-88zM444 985l72 535h125l-109 -535h-88z" />
    <glyph glyph-name="uni2034" unicode="&#x2034;" horiz-adv-x="1067" 
d="M135 985l72 535h125l-109 -535h-88zM444 985l72 535h125l-109 -535h-88zM754 985l71 535h125l-108 -535h-88z" />
    <glyph glyph-name="guilsinglleft" unicode="&#x2039;" horiz-adv-x="710" 
d="M584 952l-342 -448l342 -449h-129l-342 449l342 448h129z" />
    <glyph glyph-name="guilsinglright" unicode="&#x203a;" horiz-adv-x="710" 
d="M127 55l342 449l-342 448h129l342 -448l-342 -449h-129z" />
    <glyph glyph-name="fraction" unicode="&#x2044;" horiz-adv-x="716" 
d="M-76 -27h-114l983 1510h114z" />
    <glyph glyph-name="four.superior" unicode="&#x2074;" horiz-adv-x="827" 
d="M506 864v230h-467l-2 4l563 686l4 -2v-600h174v-88h-174v-230h-98zM506 1348q0 121 2 182l-4 2q-39 -50 -115 -143l-168 -205l2 -2h283v166z" />
    <glyph glyph-name="Euro" unicode="&#x20ac;" horiz-adv-x="1232" 
d="M29 532v101h166q-7 61 -7 110q0 65 9 127h-168v99h186q60 245 241.5 390.5t454.5 145.5q112 0 217 -30v-125q-109 39 -223 39q-212 0 -359 -114t-202 -306h463v-99h-485q-9 -62 -9 -127q0 -57 6 -110h488v-101h-467q54 -201 202 -319.5t363 -118.5q139 0 248 45v-125
q-109 -37 -252 -37q-274 0 -454 151.5t-236 403.5h-182z" />
    <glyph glyph-name="trademark" unicode="&#x2122;" horiz-adv-x="1382" 
d="M260 889v516h-199v78h484v-78h-199v-516h-86zM723 889h-80v612l4 2l301 -348l303 348l4 -2v-612h-86v266q0 84 2 131l-4 2q-23 -28 -96 -112l-125 -144l-129 150q-57 66 -92 108l-4 -2q2 -47 2 -131v-268z" />
    <glyph glyph-name="Omega" unicode="&#x2126;" horiz-adv-x="1519" 
d="M926 0v86q172 151 268 335t96 390q0 255 -142.5 416.5t-387.5 161.5t-388 -161.5t-143 -416.5q0 -206 96.5 -390t268.5 -335v-86h-553v115h381l2 4q-152 147 -236 328.5t-84 373.5q0 193 80 348t230.5 245.5t345.5 90.5t345.5 -90.5t230 -245.5t79.5 -348
q0 -192 -83.5 -373.5t-235.5 -328.5l2 -4h381v-115h-553z" />
    <glyph glyph-name="estimated" unicode="&#x212e;" horiz-adv-x="1540" 
d="M356 281q0 -64 42 -115.5t107.5 -81.5t137 -45.5t139.5 -15.5q137 0 270 61.5t218 179.5l67 -14q-208 -285 -561 -285q-148 0 -277.5 52t-219.5 140.5t-141.5 210t-51.5 257.5q0 137 52 259t142 210.5t218.5 140t275.5 51.5q136 0 259.5 -44t217.5 -123t149.5 -198
t55.5 -259q0 -33 -10.5 -40.5t-54.5 -7.5h-969q-49 0 -57.5 -9t-8.5 -56v-268zM422 672h700q49 0 57.5 9t8.5 56v256q0 98 -122 167t-294 69t-294 -69t-122 -167v-256q0 -47 8.5 -56t57.5 -9z" />
    <glyph glyph-name="partialdiff" unicode="&#x2202;" horiz-adv-x="1142" 
d="M260 1397v114q126 78 281 78q108 0 193.5 -45t141 -121t92.5 -181.5t52.5 -220.5t15.5 -245q0 -134 -17 -249.5t-55.5 -218t-97 -175t-147 -114.5t-199.5 -42q-199 0 -318.5 122t-119.5 319q0 98 31.5 187.5t89 159.5t147 111.5t197.5 41.5q206 0 368 -144l3 2
q-1 64 -5.5 124t-16 132t-30 133.5t-49 121t-70.5 100.5t-97.5 66.5t-127.5 25.5q-140 0 -262 -82zM203 420q0 -148 86 -240t233 -92q186 0 281.5 149.5t109.5 411.5q-66 72 -156 117t-196 45q-71 0 -130.5 -22.5t-101 -60.5t-70.5 -88.5t-42.5 -106t-13.5 -113.5z" />
    <glyph glyph-name="Delta" unicode="&#x2206;" horiz-adv-x="1363" 
d="M12 4l666 1526h4l670 -1526l-2 -4h-1336zM516 866l-326 -751h977l-323 749q-132 308 -162 381h-4q-45 -109 -162 -379z" />
    <glyph glyph-name="product" unicode="&#x220f;" horiz-adv-x="1595" 
d="M338 -238v1606h-262v115h1444v-115h-263v-1606h-124v1606h-670v-1606h-125z" />
    <glyph glyph-name="summation" unicode="&#x2211;" horiz-adv-x="1251" 
d="M84 -233l520 903l-506 809l2 4h1000v-115h-791l436 -696l-458 -795h848v-115h-1049z" />
    <glyph glyph-name="minus" unicode="&#x2212;" horiz-adv-x="1193" 
d="M109 692v99h976v-99h-976z" />
    <glyph glyph-name="radical" unicode="&#x221a;" horiz-adv-x="1363" 
d="M702 -31h5q85 261 120 361l502 1468h105l-699 -2036h-57l-432 1121l-221 -92l-35 86l317 133l262 -684q74 -193 133 -357z" />
    <glyph glyph-name="infinity" unicode="&#x221e;" horiz-adv-x="1552" 
d="M412 233q49 0 91 16.5t71.5 40.5t59.5 65t48 74.5t43 84.5q-28 64 -55 110.5t-64 88.5t-86 64t-108 22q-109 0 -174.5 -79.5t-65.5 -203.5q0 -121 64.5 -202t175.5 -81zM774 418h-4q-66 -136 -151 -209.5t-209 -73.5q-151 0 -244.5 111t-93.5 270q0 160 92.5 270.5
t249.5 110.5q68 0 126 -23.5t102 -66.5t75.5 -88.5t60.5 -104.5h4q66 135 151.5 209t209.5 74q151 0 244.5 -111t93.5 -270q0 -160 -92.5 -270.5t-249.5 -110.5q-68 0 -126 23.5t-102.5 66.5t-76 88.5t-60.5 104.5zM1141 799q-49 0 -91 -16.5t-72 -40.5t-60 -65t-48.5 -74.5
t-42.5 -84.5q27 -64 54.5 -110.5t65 -88.5t86.5 -64t108 -22q108 0 173.5 79.5t65.5 203.5q0 121 -64 202t-175 81z" />
    <glyph glyph-name="integral" unicode="&#x222b;" horiz-adv-x="706" 
d="M111 -254q58 -10 110 -10q209 0 209 201q0 60 -24 182l-222 1061q-26 132 -26 209q0 150 88.5 226.5t234.5 76.5q51 0 115 -11v-110q-58 10 -111 10q-209 0 -209 -201q0 -55 25 -182l221 -1061q27 -137 27 -209q0 -149 -89 -226t-235 -77q-56 0 -114 10v111z" />
    <glyph glyph-name="approxequal" unicode="&#x2248;" horiz-adv-x="1193" 
d="M188 813l-34 78q72 141 217 141q68 0 151.5 -28.5t163 -57t137.5 -28.5q65 0 107 29.5t78 90.5l34 -77q-73 -142 -217 -142q-54 0 -119 18t-115 39.5t-110.5 39.5t-107.5 18q-65 0 -106.5 -29.5t-78.5 -91.5zM188 444l-34 78q73 142 217 142q54 0 119 -18t115 -39.5
t110.5 -39.5t107.5 -18q65 0 106.5 29.5t78.5 91.5l34 -78q-72 -141 -217 -141q-68 0 -151.5 28.5t-163 57t-137.5 28.5q-65 0 -106.5 -29.5t-78.5 -91.5z" />
    <glyph glyph-name="notequal" unicode="&#x2260;" horiz-adv-x="1193" 
d="M109 893v98h634l252 318l66 -52l-211 -266h235v-98h-315l-240 -303h555v-98h-634l-252 -318l-66 51l211 267h-235v98h315l240 303h-555z" />
    <glyph glyph-name="lessequal" unicode="&#x2264;" horiz-adv-x="1376" 
d="M193 743v78l993 447v-105l-838 -379v-4l838 -379v-104zM193 0v90h993v-90h-993z" />
    <glyph glyph-name="greaterequal" unicode="&#x2265;" horiz-adv-x="1376" 
d="M193 297v104l837 379v4l-837 379v105l993 -447v-78zM193 0v90h993v-90h-993z" />
    <glyph glyph-name="lozenge" unicode="&#x25ca;" horiz-adv-x="1091" 
d="M512 -39l-379 776l379 774h66l378 -776l-378 -774h-66zM543 104h4l309 631l-309 633h-4l-310 -631z" />
    <glyph glyph-name="dotlessj" unicode="&#xf6be;" horiz-adv-x="481" 
d="M182 -145v1153h121v-1147q0 -175 -65 -250q-73 -84 -215 -84q-53 0 -111 14v109q70 -12 108 -12q93 0 127.5 54t34.5 163z" />
    <glyph glyph-name="commaaccent" unicode="&#xf6c3;" horiz-adv-x="995" 
d="M496 -111h118l-147 -446h-88z" />
    <glyph glyph-name="uniF6CC" unicode="&#xf6cc;" horiz-adv-x="995" 
d="M813 1765q0 -35 -24.5 -59.5t-59.5 -24.5t-59.5 24.5t-24.5 59.5t24.5 59.5t59.5 24.5t59.5 -24.5t24.5 -59.5zM350 1765q0 -35 -24.5 -59.5t-59.5 -24.5t-59.5 24.5t-24.5 59.5t24.5 59.5t59.5 24.5t59.5 -24.5t24.5 -59.5zM358 1597l177 336h133l-215 -336h-95z" />
    <glyph glyph-name="uniF6CD" unicode="&#xf6cd;" horiz-adv-x="995" 
d="M561 1597l-215 336h133l176 -336h-94zM813 1765q0 -35 -24.5 -59.5t-59.5 -24.5t-59.5 24.5t-24.5 59.5t24.5 59.5t59.5 24.5t59.5 -24.5t24.5 -59.5zM350 1765q0 -35 -24.5 -59.5t-59.5 -24.5t-59.5 24.5t-24.5 59.5t24.5 59.5t59.5 24.5t59.5 -24.5t24.5 -59.5z" />
    <glyph glyph-name="uniF6D1" unicode="&#xf6d1;" horiz-adv-x="995" 
d="M498 1552q-138 0 -226.5 76t-119.5 203l102 29q23 -96 86 -155.5t158 -59.5t157.5 59.5t85.5 155.5l103 -29q-31 -127 -119.5 -203t-226.5 -76z" />
    <glyph glyph-name="uniF6D2" unicode="&#xf6d2;" horiz-adv-x="995" 
d="M498 1937q129 0 198 -82t72 -210h-80q-8 94 -53.5 153.5t-136.5 59.5t-137 -59.5t-54 -153.5h-80q3 127 72.5 209.5t198.5 82.5z" />
    <glyph glyph-name="uniF6D3" unicode="&#xf6d3;" horiz-adv-x="995" 
d="M279 1933l182 -336h-84l-209 336h111zM539 1933l182 -336h-84l-209 336h111z" />
    <glyph glyph-name="uniF6D4" unicode="&#xf6d4;" horiz-adv-x="995" 
d="M498 1108q-132 0 -217.5 73t-116.5 195l100 27q21 -92 81.5 -148.5t152.5 -56.5t152 56.5t81 148.5l100 -27q-31 -122 -116 -195t-217 -73z" />
    <glyph glyph-name="uniF6D5" unicode="&#xf6d5;" horiz-adv-x="995" 
d="M498 1493q129 0 198 -82.5t72 -210.5h-80q-8 94 -53.5 153.5t-136.5 59.5t-137 -59.5t-54 -153.5h-80q3 128 72.5 210.5t198.5 82.5z" />
    <glyph glyph-name="uniF6D6" unicode="&#xf6d6;" horiz-adv-x="995" 
d="M279 1489l182 -336h-84l-209 336h111zM539 1489l182 -336h-84l-209 336h111z" />
    <glyph glyph-name="uniF6D7" unicode="&#xf6d7;" horiz-adv-x="995" 
d="M813 1321q0 -35 -24.5 -59.5t-59.5 -24.5t-59.5 24.5t-24.5 59.5t24.5 59.5t59.5 24.5t59.5 -24.5t24.5 -59.5zM350 1321q0 -35 -24.5 -59.5t-59.5 -24.5t-59.5 24.5t-24.5 59.5t24.5 59.5t59.5 24.5t59.5 -24.5t24.5 -59.5zM358 1153l177 336h133l-215 -336h-95z" />
    <glyph glyph-name="uniF6D8" unicode="&#xf6d8;" horiz-adv-x="995" 
d="M561 1153l-215 336h133l176 -336h-94zM813 1321q0 -35 -24.5 -59.5t-59.5 -24.5t-59.5 24.5t-24.5 59.5t24.5 59.5t59.5 24.5t59.5 -24.5t24.5 -59.5zM350 1321q0 -35 -24.5 -59.5t-59.5 -24.5t-59.5 24.5t-24.5 59.5t24.5 59.5t59.5 24.5t59.5 -24.5t24.5 -59.5z" />
    <glyph glyph-name="ff" unicode="&#xfb00;" horiz-adv-x="1355" 
d="M225 0v901h-225l-2 4l92 103h135v188q0 110 20 185.5t70 123.5q85 82 228 82q79 0 147 -20v-109q-68 21 -147 21q-60 0 -100 -19t-60.5 -58t-28.5 -85.5t-8 -112.5v-196h531v188q0 110 20 185.5t70 123.5q85 82 227 82q79 0 147 -20v-109q-68 21 -147 21q-60 0 -100 -19
t-60.5 -58t-28.5 -85.5t-8 -112.5v-196h312v-107h-312v-901h-120v901h-531v-901h-121z" />
    <glyph glyph-name="i.TRK" horiz-adv-x="477" 
d="M178 0v1008h121v-1008h-121z" />
    <glyph glyph-name="grave.cap" horiz-adv-x="995" 
d="M508 1597l-215 336h133l176 -336h-94z" />
    <glyph glyph-name="acute.cap" horiz-adv-x="995" 
d="M702 1933l-215 -336h-94l176 336h133z" />
    <glyph glyph-name="circumflex.cap" horiz-adv-x="995" 
d="M307 1606h-112l301 348h4l301 -348h-113l-190 204z" />
    <glyph glyph-name="caron.cap" horiz-adv-x="995" 
d="M688 1925h113l-301 -348h-4l-301 348h112l191 -205z" />
    <glyph glyph-name="commaaccent.alt" horiz-adv-x="995" 
d="M381 1139l147 446h88l-116 -446h-119z" />
    <glyph glyph-name="tilde.cap" horiz-adv-x="995" 
d="M809 1872v-115q-61 -90 -162 -90q-72 0 -162 55q-33 20 -49 29t-40 17t-46 8q-89 0 -160 -107l-4 2v115q61 90 162 90q67 0 162 -55q33 -20 49 -29t40 -17t46 -8q89 0 160 107z" />
    <glyph glyph-name="dieresis.cap" horiz-adv-x="995" 
d="M602 1765q0 35 24.5 59.5t59.5 24.5t59.5 -24.5t24.5 -59.5t-24.5 -59.5t-59.5 -24.5t-59.5 24.5t-24.5 59.5zM225 1765q0 35 24.5 59.5t59.5 24.5t59.5 -24.5t24.5 -59.5t-24.5 -59.5t-59.5 -24.5t-59.5 24.5t-24.5 59.5z" />
    <glyph glyph-name="macron.cap" horiz-adv-x="995" 
d="M227 1718v94h541v-94h-541z" />
    <glyph glyph-name="breve.cap" horiz-adv-x="995" 
d="M688 1911h80q-3 -128 -72 -210.5t-198 -82.5t-198.5 82.5t-72.5 210.5h80q8 -94 54 -153.5t137 -59.5t136.5 59.5t53.5 153.5z" />
    <glyph glyph-name="ring.cap" horiz-adv-x="995" 
d="M498 1579q-98 0 -164 65t-66 162t66 162.5t164 65.5t163.5 -65.5t65.5 -162.5t-65.5 -162t-163.5 -65zM498 1653q67 0 109 44t42 109t-42 109.5t-109 44.5t-109.5 -44.5t-42.5 -109.5t42 -109t110 -44z" />
    <glyph glyph-name="hungarumlaut.cap" horiz-adv-x="995" 
d="M535 1597l182 336h110l-209 -336h-83zM274 1597l183 336h110l-209 -336h-84z" />
    <glyph glyph-name="dotaccent.cap" horiz-adv-x="995" 
d="M498 1681q-35 0 -59.5 24.5t-24.5 59.5t24.5 59.5t59.5 24.5t59.5 -24.5t24.5 -59.5t-24.5 -59.5t-59.5 -24.5z" />
    <glyph glyph-name="hyphen.cap" horiz-adv-x="733" 
d="M129 686v107h477v-107h-477z" />
    <glyph glyph-name="exclamdown.cap" horiz-adv-x="643" 
d="M375 1053l10 -1053h-127l10 1053h107zM418 1409q0 -40 -28 -68t-68 -28t-68.5 28t-28.5 68t28.5 68t68.5 28t68 -28t28 -68z" />
    <glyph glyph-name="questiondown.cap" horiz-adv-x="954" 
d="M709 1100l4 -352q-46 4 -92 4q-175 0 -288.5 -86.5t-113.5 -241.5q0 -143 95 -235.5t241 -92.5q134 0 252 76v-125q-112 -67 -256 -67q-193 0 -325 123t-132 313q0 194 141 317t367 123l2 244h105zM559 1411q0 40 28 68t68 28t68.5 -28t28.5 -68t-28.5 -68t-68.5 -28
t-68 28t-28 68z" />
    <glyph glyph-name="guilsinglleft.cap" horiz-adv-x="710" 
d="M584 1190l-342 -449l342 -448h-129l-342 448l342 449h129z" />
    <glyph glyph-name="guilsinglright.cap" horiz-adv-x="710" 
d="M127 293l342 448l-342 449h129l342 -449l-342 -448h-129z" />
    <glyph glyph-name="guillemotleft.cap" horiz-adv-x="1114" 
d="M584 1190l-342 -449l342 -448h-129l-342 448l342 449h129zM987 1190l-342 -449l342 -448h-129l-342 448l342 449h129z" />
    <glyph glyph-name="guillemotright.cap" horiz-adv-x="1114" 
d="M127 293l342 448l-342 449h129l342 -449l-342 -448h-129zM530 293l342 448l-342 449h129l342 -449l-342 -448h-129z" />
    <glyph glyph-name="endash.cap" horiz-adv-x="1019" 
d="M109 690v98h802v-98h-802z" />
    <glyph glyph-name="emdash.cap" horiz-adv-x="1617" 
d="M78 696v88h1462v-88h-1462z" />
    <glyph glyph-name="periodcentered.cap" horiz-adv-x="612" 
d="M211 735q0 40 28 68t68 28t68 -28t28 -68t-28 -68t-68 -28t-68 28t-28 68z" />
    <glyph glyph-name="parenleft.cap" horiz-adv-x="665" 
d="M586 -238h-121q-131 174 -214 423t-83 556t83 556t214 423h121q-138 -179 -222.5 -431.5t-84.5 -547.5t84.5 -547.5t222.5 -431.5z" />
    <glyph glyph-name="parenright.cap" horiz-adv-x="665" 
d="M80 -238q138 179 222.5 431.5t84.5 547.5t-84.5 547.5t-222.5 431.5h121q131 -174 214 -423t83 -556t-83 -556t-214 -423h-121z" />
    <glyph glyph-name="bracketleft.cap" horiz-adv-x="692" 
d="M307 -139h305v-99h-415v1958h415v-98h-305v-1761z" />
    <glyph glyph-name="bracketright.cap" horiz-adv-x="692" 
d="M80 -139h305v1761h-305v98h416v-1958h-416v99z" />
    <glyph glyph-name="braceleft.cap" horiz-adv-x="737" 
d="M291 55v449q0 54 -5 84t-22 56.5t-53 37t-96 10.5h-49v99h49q60 0 96 10.5t53 37t22 56.5t5 84v448q0 165 64 240.5t210 75.5q67 0 115 -10v-99q-53 11 -105 11q-100 0 -137 -53t-37 -177v-432q0 -102 -25.5 -161t-96.5 -79v-4q71 -20 96.5 -79t25.5 -160v-432
q0 -124 37 -177t137 -53q57 0 105 10v-98q-48 -10 -115 -10q-146 0 -210 75t-64 240z" />
    <glyph glyph-name="braceright.cap" horiz-adv-x="737" 
d="M336 68v432q0 101 26 160t97 79v4q-71 20 -97 79.5t-26 160.5v432q0 124 -37 177t-137 53q-52 0 -105 -11v99q48 10 115 10q146 0 210 -75.5t64 -240.5v-448q0 -54 5 -84t22.5 -56.5t53.5 -37t96 -10.5h49v-99h-49q-60 0 -96 -10.5t-53.5 -37t-22.5 -56.5t-5 -84v-449
q0 -165 -64 -240t-210 -75q-67 0 -115 10v98q48 -10 105 -10q100 0 137 53t37 177z" />
    <glyph glyph-name="at.cap" horiz-adv-x="1671" 
d="M1032 678l27 305q-94 55 -201 55q-122 0 -205 -86q-94 -97 -94 -245q0 -118 66 -190.5t172 -72.5q126 0 235 115q-4 32 -4 53q0 26 4 66zM1178 1104l-37 -432q-2 -20 -2 -51q0 -87 39.5 -134t115.5 -47q89 0 143 77.5t54 225.5q0 134 -46.5 255.5t-130 212t-206 143.5
t-266.5 53q-146 0 -270.5 -53t-208.5 -143t-131.5 -212t-47.5 -258t47.5 -257.5t132 -212t208 -143t268.5 -52.5q255 0 448 157v-118q-86 -64 -203.5 -101t-244.5 -37q-215 0 -389.5 101.5t-272.5 276t-98 386.5q0 158 58 299.5t158 243.5t241.5 161.5t302.5 59.5
q214 0 388 -101.5t270.5 -272.5t96.5 -375q0 -186 -81.5 -298t-229.5 -112q-160 0 -225 129q-120 -129 -281 -129q-140 0 -234.5 97.5t-94.5 256.5q0 90 33.5 174.5t97.5 145.5q117 117 286 117q88 0 209 -50z" />
    <glyph glyph-name="zero.oldstyle" horiz-adv-x="1304" 
d="M106 526q0 153 70.5 278.5t195.5 198t279 72.5t279 -72.5t195.5 -198t70.5 -278.5t-70.5 -278.5t-195.5 -198t-279 -72.5t-279 72.5t-195.5 198t-70.5 278.5zM227 526q0 -187 121 -312.5t303 -125.5t303 125.5t121 312.5q0 188 -121.5 313.5t-302.5 125.5t-302.5 -125.5
t-121.5 -313.5z" />
    <glyph glyph-name="one.oldstyle" horiz-adv-x="942" 
d="M168 834l465 272l4 -2v-1104h-121v911l-348 -202v125z" />
    <glyph glyph-name="two.oldstyle" horiz-adv-x="1003" 
d="M829 729q0 -115 -73 -225q-47 -71 -230 -242l-159 -147l2 -4h540v-111h-813l-2 4l338 318q167 157 213 223q64 94 64 182q0 108 -75.5 173t-191.5 65q-174 0 -317 -146v131q139 125 324 125q167 0 273.5 -96t106.5 -250z" />
    <glyph glyph-name="three.oldstyle" horiz-adv-x="1034" 
d="M135 942v111h760l2 -4l-414 -580q114 -10 202 -50.5t140.5 -101.5t78.5 -133t26 -151q0 -195 -130 -318t-331 -123q-107 0 -203 37t-166 101v139q80 -82 176 -124t193 -42q150 0 245 90.5t95 237.5q0 156 -120.5 248t-334.5 92q-52 0 -75 -2l-3 4l404 565l-2 4h-543z" />
    <glyph glyph-name="four.oldstyle" horiz-adv-x="1259" 
d="M793 -385v385h-732l-2 4l850 1096l4 -2v-989h287v-109h-287v-385h-120zM588 510l-307 -397l2 -4h510v380q0 189 2 285l-4 2q-105 -140 -203 -266z" />
    <glyph glyph-name="five.oldstyle" horiz-adv-x="1024" 
d="M287 489h37q151 0 267 -35.5t185.5 -98t104 -143t34.5 -175.5q0 -194 -133 -319.5t-338 -125.5q-201 0 -348 117l10 129q153 -135 340 -135q152 0 250.5 92.5t98.5 237.5q0 165 -136 258.5t-370 93.5q-53 0 -131 -4l51 672h674l-9 -111h-552z" />
    <glyph glyph-name="six.oldstyle" horiz-adv-x="1191" 
d="M612 86q147 0 250 95.5t103 246.5q0 148 -99 246t-250 98t-254.5 -95.5t-103.5 -240.5q0 -142 99 -246t255 -104zM348 770l4 -2q109 109 285 109q193 0 320.5 -126t127.5 -319q0 -195 -135 -325t-340 -130q-208 0 -341.5 136t-133.5 338q0 99 36.5 198t121.5 246l311 543
h131l-327 -564q-50 -85 -60 -104z" />
    <glyph glyph-name="seven.oldstyle" horiz-adv-x="1089" 
d="M270 -385l564 1327h-728v111h891l2 -4l-606 -1434h-123z" />
    <glyph glyph-name="eight.oldstyle" horiz-adv-x="1175" 
d="M129 393q0 139 73 235t187 128v4q-105 37 -163 121t-58 200q0 167 116.5 273t303.5 106t304.5 -106.5t117.5 -272.5q0 -116 -59.5 -200t-164.5 -121v-4q114 -32 187.5 -128t73.5 -235q0 -182 -126 -299t-333 -117t-333 117t-126 299zM588 807q130 0 217.5 75t87.5 195
q0 121 -86.5 198t-218.5 77q-130 0 -216.5 -77.5t-86.5 -197.5q0 -119 87.5 -194.5t215.5 -75.5zM250 391q0 -136 97 -220.5t241 -84.5t241 84.5t97 220.5q0 138 -98 226t-240 88t-240 -88t-98 -226z" />
    <glyph glyph-name="nine.oldstyle" horiz-adv-x="1185" 
d="M575 281q154 0 254.5 100t100.5 242q0 139 -99.5 241.5t-250.5 102.5q-146 0 -249.5 -95.5t-103.5 -246.5q0 -148 98 -246t250 -98zM821 266l-4 2q-99 -90 -266 -90q-188 0 -316.5 126.5t-128.5 316.5q0 195 136.5 324.5t339.5 129.5q202 0 335.5 -131t133.5 -334
q0 -107 -39.5 -208t-120.5 -230l-348 -557h-131z" />
    <glyph glyph-name="litre" horiz-adv-x="880" 
d="M121 295l-68 117q123 114 164 157v529q0 209 83 323.5t210 114.5q109 0 173.5 -85t64.5 -232q0 -321 -326 -672v-135q0 -154 29.5 -216.5t95.5 -62.5q48 0 89.5 28t90.5 85l76 -99q-123 -176 -303 -176q-141 0 -211 94t-70 252v72q-5 -5 -28.5 -30t-41 -41.5t-28.5 -22.5
zM422 743q83 112 128.5 237t45.5 239q0 77 -20.5 121t-57.5 44q-45 0 -70.5 -67t-25.5 -203v-371z" />
    </font>
</defs>
</svg>
