<?xml version="1.0" standalone="no"?>
<!DOCTYPE svg PUBLIC "-//W3C//DTD SVG 1.1//EN" "http://www.w3.org/Graphics/SVG/1.1/DTD/svg11.dtd" >
<svg xmlns="http://www.w3.org/2000/svg" xmlns:xlink="http://www.w3.org/1999/xlink" version="1.1">
<metadata>
Created by FontForge 20201107 at Wed Jan  3 16:14:26 2024
 By 
2010 Copyright Jean Francois Porchez, Typofonderie. All rights reserved. Distributed exclusively by Typofonderie, France. Singulier is an exclusive sanserif typeface available in 6 weights, with Latin, Greek and Cyrillic scripts support designed solely and exclusively for YSL Beaute. This font software may not be reproduced, modified, disclosed or transferred without the express written approval of Jean Francois Porchez, Typofonderie.
</metadata>
<defs>
<font id="Singulier-Bold" horiz-adv-x="1105" >
  <font-face 
    font-family="Singulier"
    font-weight="700"
    font-stretch="normal"
    units-per-em="2048"
    panose-1="2 11 7 3 5 6 3 6 2 4"
    ascent="1638"
    descent="-410"
    x-height="1053"
    cap-height="1397"
    bbox="-272 -498 2724 2021"
    underline-thickness="274"
    underline-position="-257"
    unicode-range="U+000D-FB06"
  />
<missing-glyph horiz-adv-x="512" 
 />
    <glyph glyph-name="f_b" unicode="fb" horiz-adv-x="1988" 
d="M1927 526q0 -261 -133.5 -412t-347.5 -151q-170 0 -311 105h-2l-293 -93h-6v1209q-71 84 -183 84q-67 0 -107 -35t-40 -96v-84h233v-287h-233v-766h-332v766h-121v10l121 277v116q0 175 105.5 278t287.5 103q101 0 169.5 -19.5t127.5 -62.5h2l295 93h6v-586h2
q134 115 306 115q203 0 328.5 -154.5t125.5 -409.5zM1581 526q0 127 -61 199t-158 72q-115 0 -197 -105v-344q80 -92 191 -92q100 0 162.5 71t62.5 199z" />
    <glyph glyph-name="f_f_b" unicode="ffb" horiz-adv-x="2648" 
d="M2587 526q0 -261 -134 -412t-348 -151q-170 0 -311 105h-2l-293 -93h-6v1209q-71 84 -182 84q-68 0 -107 -35t-39 -96v-84h232v-287h-232v-766h-331v766h-330v-766h-332v766h-121v10l121 277v116q0 176 111 278.5t323 102.5q214 0 363 -80q99 80 258 80q100 0 168 -19.5
t127 -62.5h2l295 93h6v-586h2q134 115 305 115q205 0 330 -154t125 -410zM2241 526q0 127 -61.5 199t-158.5 72q-114 0 -196 -105v-344q80 -92 190 -92q100 0 163 71t63 199zM834 1053v116q0 43 8 64q-74 47 -180 47q-158 0 -158 -143v-84h330z" />
    <glyph glyph-name="f_h" unicode="fh" horiz-adv-x="1998" 
d="M1847 0h-331v608q0 92 -45.5 140.5t-120.5 48.5q-109 0 -185 -105v-692h-331v1184q-71 84 -183 84q-67 0 -107 -35t-40 -96v-84h233v-287h-233v-766h-332v766h-121v10l121 277v116q0 175 105.5 278t287.5 103q101 0 169.5 -19.5t127.5 -62.5h2l295 93h6v-586h2
q128 115 299 115q77 0 144.5 -23t121 -68t84.5 -118t31 -166v-715z" />
    <glyph glyph-name="f_f_h" unicode="ffh" horiz-adv-x="2658" 
d="M2507 0h-332v608q0 92 -45.5 140.5t-120.5 48.5q-105 0 -184 -105v-692h-332v1184q-71 84 -182 84q-68 0 -107 -35t-39 -96v-84h232v-287h-232v-766h-331v766h-330v-766h-332v766h-121v10l121 277v116q0 176 111 278.5t323 102.5q214 0 363 -80q99 80 258 80
q100 0 168 -19.5t127 -62.5h2l295 93h6v-586h2q128 115 299 115q77 0 144.5 -23t121 -68t84.5 -118t31 -166v-715zM834 1053v116q0 40 8 64q-74 47 -180 47q-158 0 -158 -143v-84h330z" />
    <glyph glyph-name="f_j" unicode="fj" horiz-adv-x="1316" 
d="M795 -395q-140 0 -236 51v276h6q66 -59 144 -59q125 0 125 139v754h-330v-766h-332v766h-121v10l121 277v116q0 187 139 284t408 97q259 0 448 -77v-297h-8q-58 46 -161 72t-214 26q-150 0 -215 -36t-65 -108v-77h661v-1061q0 -193 -98 -290t-272 -97z" />
    <glyph glyph-name="f_f_j" unicode="ffj" horiz-adv-x="1976" 
d="M1454 -395q-139 0 -235 51v276h6q62 -59 143 -59q125 0 125 141v752h-328v-766h-331v766h-330v-766h-332v766h-121v10l121 277v116q0 176 111 278.5t323 102.5q228 0 383 -88q139 88 389 88q263 0 449 -77v-297h-8q-58 46 -161 72t-212 26q-151 0 -216 -36t-65 -108v-77
h660v-1057q0 -196 -98.5 -293.5t-272.5 -97.5zM834 1053v116q0 40 8 64q-74 47 -180 47q-158 0 -158 -143v-84h330z" />
    <glyph glyph-name="f_k" unicode="fk" horiz-adv-x="1925" 
d="M1165 0h-331v1184q-71 84 -183 84q-67 0 -107 -35t-40 -96v-84h233v-287h-233v-766h-332v766h-121v10l121 277v116q0 175 105.5 278t287.5 103q101 0 169.5 -19.5t127.5 -62.5h2l295 93h6v-1561zM1898 0h-391l-327 528v9l311 516h381l-326 -514v-4z" />
    <glyph glyph-name="f_f_k" unicode="ffk" horiz-adv-x="2584" 
d="M1825 0h-332v1184q-71 84 -182 84q-68 0 -107 -35t-39 -96v-84h232v-287h-232v-766h-331v766h-330v-766h-332v766h-121v10l121 277v116q0 176 111 278.5t323 102.5q214 0 363 -80q99 80 258 80q100 0 168 -19.5t127 -62.5h2l295 93h6v-1561zM2558 0h-391l-328 528v9
l311 516h381l-325 -514v-4zM834 1053v116q0 40 8 64q-74 47 -180 47q-158 0 -158 -143v-84h330z" />
    <glyph glyph-name="f_t" unicode="ft" horiz-adv-x="1443" 
d="M1165 0h-331v766h-330v-766h-332v766h-121v10l121 277v116q0 178 97 279.5t266 101.5q127 0 223 -51v-291h-6q-58 58 -138 58q-110 0 -110 -131v-82h330v311h331v-311h232v-287h-232v-766z" />
    <glyph glyph-name="f_f_t" unicode="fft" horiz-adv-x="2103" 
d="M1825 0h-332v766h-328v-766h-331v766h-330v-766h-332v766h-121v10l121 277v116q0 176 111 278.5t323 102.5q207 0 357 -75q91 75 229 75q128 0 227 -51v-291h-8q-61 58 -137 58q-55 0 -82 -35t-27 -96v-82h328v311h332v-311h231v-287h-231v-766zM834 1053v116q0 33 6 68
q-79 43 -178 43q-158 0 -158 -143v-84h330z" />
    <glyph glyph-name="f_f" unicode="ff" horiz-adv-x="1402" 
d="M1165 0h-331v766h-330v-766h-332v766h-121v10l121 277v116q0 176 111 278.5t323 102.5q217 0 357 -77q96 77 243 77q144 0 240 -51v-295h-8q-67 64 -150 64q-63 0 -93 -35.5t-30 -95.5v-84h232v-287h-232v-766zM834 1053v116q0 38 6 68q-64 43 -178 43q-158 0 -158 -143
v-84h330z" />
    <glyph glyph-name="fi" unicode="fi" horiz-adv-x="1316" 
d="M1165 0h-331v766h-330v-766h-332v766h-121v10l121 277v116q0 187 139 284t408 97q259 0 448 -77v-297h-8q-58 46 -161 72t-214 26q-150 0 -215 -36t-65 -108v-77h661v-1053z" />
    <glyph glyph-name="fl" unicode="fl" horiz-adv-x="1316" 
d="M1165 0h-331v1184q-71 84 -183 84q-67 0 -107 -35t-40 -96v-84h233v-287h-233v-766h-332v766h-121v10l121 277v116q0 175 105.5 278t287.5 103q101 0 169.5 -19.5t127.5 -62.5h2l295 93h6v-1561z" />
    <glyph glyph-name="f_f_i" unicode="ffi" horiz-adv-x="1976" 
d="M1825 0h-332v766h-328v-766h-331v766h-330v-766h-332v766h-121v10l121 277v116q0 176 111 278.5t323 102.5q228 0 383 -88q139 88 389 88q263 0 449 -77v-297h-8q-58 46 -161 72t-212 26q-151 0 -216 -36t-65 -108v-77h660v-1053zM834 1053v116q0 40 8 64q-74 47 -180 47
q-158 0 -158 -143v-84h330z" />
    <glyph glyph-name="f_f_l" unicode="ffl" horiz-adv-x="1976" 
d="M1825 0h-332v1184q-71 84 -182 84q-68 0 -107 -35t-39 -96v-84h232v-287h-232v-766h-331v766h-330v-766h-332v766h-121v10l121 277v116q0 176 111 278.5t323 102.5q214 0 363 -80q99 80 258 80q100 0 168 -19.5t127 -62.5h2l295 93h6v-1561zM834 1053v116q0 40 8 64
q-74 47 -180 47q-158 0 -158 -143v-84h330z" />
    <glyph glyph-name=".notdef" horiz-adv-x="512" 
 />
    <glyph glyph-name=".null" horiz-adv-x="0" 
 />
    <glyph glyph-name=".null" horiz-adv-x="0" 
 />
    <glyph glyph-name="nonmarkingreturn" horiz-adv-x="682" 
 />
    <glyph glyph-name="CR" unicode="&#xd;" horiz-adv-x="0" 
 />
    <glyph glyph-name="space" unicode=" " horiz-adv-x="552" 
 />
    <glyph glyph-name="space" unicode="&#xa0;" horiz-adv-x="552" 
 />
    <glyph glyph-name="exclam" unicode="!" horiz-adv-x="643" 
d="M463 473h-285l-37 1063h361zM477 0h-315v315h315v-315z" />
    <glyph glyph-name="quotedbl" unicode="&#x22;" horiz-adv-x="1009" 
d="M434 782h-289l-6 615h301zM864 782h-289l-6 615h301z" />
    <glyph glyph-name="numbersign" unicode="#" horiz-adv-x="1163" 
d="M850 389l-47 -389h-228l48 389h-160l-47 -389h-230l45 389h-176v195h199l29 231h-179v195h203l47 387h228l-47 -387h161l47 387h228l-45 -387h182v-195h-207l-29 -231h187v-195h-209zM645 584l29 231h-162l-27 -231h160z" />
    <glyph glyph-name="dollar" unicode="$" horiz-adv-x="1077" 
d="M639 -291h-256v260q-169 17 -301 97v319h8q96 -99 293 -127v332q-64 28 -111.5 59t-92 78.5t-68 115t-23.5 152.5q0 76 19.5 143.5t59.5 127t110 100.5t163 57v265h256v-265q139 -23 258 -92v-307h-8q-111 88 -250 111v-320q64 -29 111 -60.5t92.5 -79t69.5 -116
t24 -153.5q0 -163 -92 -279t-262 -150v-268zM717 383q0 57 -78 102v-215q78 31 78 113zM367 1022q0 -57 73 -98v204q-73 -29 -73 -106z" />
    <glyph glyph-name="percent" unicode="%" horiz-adv-x="1878" 
d="M745 944q0 -125 -29 -219.5t-80.5 -150t-115 -82.5t-139.5 -27q-75 0 -138.5 27t-114 82.5t-79.5 150t-29 219.5t29 219t79.5 149t114 82t138.5 27q76 0 139.5 -27t115 -82t80.5 -149t29 -219zM498 944q0 100 -15.5 159t-39.5 79t-60 20q-37 0 -60.5 -20t-39 -78.5
t-15.5 -159.5q0 -140 29 -200t84 -60q57 0 87 60t30 200zM1858 455q0 -125 -29 -219.5t-80.5 -150t-115.5 -83t-140 -27.5q-75 0 -138 27.5t-114 83t-79.5 150t-28.5 219.5t28.5 219t79.5 149t114 82t138 27q76 0 140 -27t115.5 -82t80.5 -149t29 -219zM1610 455
q0 100 -15.5 159t-39.5 79t-60 20q-37 0 -60.5 -20t-39 -78.5t-15.5 -159.5q0 -140 29 -200t84 -60q57 0 87 60t30 200zM741 0h-274l670 1397h274z" />
    <glyph glyph-name="ampersand" unicode="&#x26;" horiz-adv-x="1546" 
d="M702 -37q-310 0 -468 110t-158 310q0 137 75 230t211 135v2q-200 95 -200 315q0 159 123.5 264t357.5 105q196 0 350 -74v-328h-8q-122 109 -287 109q-84 0 -132 -35.5t-48 -99.5q0 -59 41 -95.5t109 -36.5h61v-292h-162q-68 -19 -104.5 -59.5t-36.5 -98.5q0 -88 68 -129
t211 -41q270 0 270 174q0 60 -36.5 99.5t-104.5 54.5v6l65 286h574v-292h-242v-2q94 -94 94 -218q0 -189 -156.5 -294t-466.5 -105z" />
    <glyph glyph-name="quotesingle" unicode="'" horiz-adv-x="552" 
d="M420 782h-289l-6 615h301z" />
    <glyph glyph-name="parenleft" unicode="(" horiz-adv-x="768" 
d="M754 -291h-320q-151 173 -234 395t-83 467t83.5 467.5t233.5 395.5h320q-150 -173 -233 -395.5t-83 -467.5t83 -467t233 -395z" />
    <glyph glyph-name="parenright" unicode=")" horiz-adv-x="768" 
d="M336 -291h-322q151 174 234.5 396t83.5 466q0 245 -83.5 467t-234.5 396h322q149 -174 232 -396t83 -467q0 -244 -83 -466t-232 -396z" />
    <glyph glyph-name="asterisk" unicode="*" horiz-adv-x="1163" 
d="M971 571l-193 -157l-196 254l-197 -254l-192 157l196 252l-315 115l86 231l299 -108v336h246v-336l299 108l86 -231l-318 -115z" />
    <glyph glyph-name="plus" unicode="+" 
d="M678 109h-250v354h-350v246h350v358h248v-358h352v-246h-350v-354z" />
    <glyph glyph-name="comma" unicode="," horiz-adv-x="552" 
d="M307 -283h-303l162 615h309v-10z" />
    <glyph glyph-name="hyphen" unicode="-" horiz-adv-x="552" 
d="M547 399h-541v303h541v-303z" />
    <glyph glyph-name="period" unicode="." horiz-adv-x="552" 
d="M442 0h-331v332h331v-332z" />
    <glyph glyph-name="slash" unicode="/" horiz-adv-x="899" 
d="M317 0h-323l588 1397h325z" />
    <glyph glyph-name="zero" unicode="0" horiz-adv-x="1294" 
d="M1214 698q0 -155 -30 -279.5t-81.5 -208.5t-124 -140.5t-155 -81.5t-176.5 -25q-119 0 -219 42t-179 127.5t-124 230t-45 335.5q0 155 30 280t81.5 209t124 140.5t155 81.5t176.5 25q119 0 219 -42t179 -127t124 -230t45 -337zM868 698q0 227 -56.5 326.5t-164.5 99.5
q-107 0 -163 -99.5t-56 -326.5t56 -326.5t163 -99.5q108 0 164.5 99.5t56.5 326.5z" />
    <glyph glyph-name="one" unicode="1" horiz-adv-x="907" 
d="M737 0h-342v1036l-321 -78h-6v322l663 154h6v-1434z" />
    <glyph glyph-name="two" unicode="2" horiz-adv-x="1163" 
d="M1112 0h-1024v250q163 130 269.5 232.5t162.5 183t77 141.5t21 127q0 97 -52 151t-138 54q-160 0 -305 -148h-6v334q183 109 379 109q100 0 186.5 -29.5t152.5 -85.5t104 -144.5t38 -199.5q0 -63 -10.5 -120.5t-25 -104t-45.5 -98.5t-56 -88t-73.5 -90t-81.5 -87.5
t-95 -95.5v-2h522v-289z" />
    <glyph glyph-name="three" unicode="3" horiz-adv-x="1118" 
d="M1042 356q0 -185 -132 -289t-361 -104q-241 0 -424 103v331h6q64 -63 166 -102t190 -39q94 0 149.5 39t55.5 113q0 65 -51 103t-145 38h-213v293h211q114 45 114 147q0 70 -49.5 110t-134.5 40q-78 0 -152 -38.5t-133 -101.5h-6v334q174 101 373 101q202 0 329.5 -104
t127.5 -281q0 -214 -195 -326v-2q126 -30 200 -124.5t74 -240.5z" />
    <glyph glyph-name="four" unicode="4" horiz-adv-x="1163" 
d="M1122 291h-168v-291h-340v291h-563v268l629 875h274v-867h168v-276zM623 567v371h-2l-256 -369v-2h258z" />
    <glyph glyph-name="five" unicode="5" horiz-adv-x="1091" 
d="M1018 440q0 -225 -142 -351t-372 -126q-231 0 -404 103v331h9q65 -65 158.5 -104t185.5 -39q97 0 157 47t60 135q0 89 -71 139t-200 50q-136 0 -272 -56h-6l131 828h719v-295h-477l-37 -215q78 10 112 10q196 0 322.5 -124.5t126.5 -332.5z" />
    <glyph glyph-name="six" unicode="6" horiz-adv-x="1208" 
d="M1137 428q0 -221 -147.5 -343t-383.5 -122q-242 0 -387 123t-145 342q0 82 19 147t61 134l434 688h407v-4l-338 -525v-4q61 3 113 -2q159 -23 263 -139.5t104 -294.5zM786 428q0 87 -46.5 140t-131.5 53q-87 0 -136.5 -49t-49.5 -144q0 -87 45.5 -138.5t132.5 -51.5
q86 0 136 48t50 142z" />
    <glyph glyph-name="seven" unicode="7" horiz-adv-x="1163" 
d="M522 2h-370v4l507 1073v2h-596v318h1084v-21z" />
    <glyph glyph-name="eight" unicode="8" horiz-adv-x="1193" 
d="M1122 393q0 -201 -143 -315.5t-381 -114.5q-242 0 -384 114t-142 316q0 121 56 211.5t159 140.5v3q-164 96 -164 301q0 180 129 282.5t346 102.5q215 0 344 -103t129 -282q0 -200 -164 -301v-3q103 -50 159 -139.5t56 -212.5zM772 410q0 78 -45.5 125t-128.5 47
q-86 0 -132 -46.5t-46 -125.5t46 -125.5t132 -46.5q82 0 128 47t46 125zM752 1010q0 68 -40.5 108.5t-113.5 40.5q-75 0 -117.5 -41t-42.5 -108q0 -68 42 -111t118 -43q72 0 113 43t41 111z" />
    <glyph glyph-name="nine" unicode="9" horiz-adv-x="1208" 
d="M623 0h-408v4l338 524v4q-41 -4 -113 3q-159 23 -262.5 139t-103.5 295q0 221 146.5 343t383.5 122q241 0 387 -123t146 -342q0 -85 -23.5 -155t-85.5 -169zM788 969q0 87 -46 138.5t-132 51.5t-137 -48t-51 -142q0 -87 47 -140t133 -53t136 49.5t50 143.5z" />
    <glyph glyph-name="colon" unicode=":" horiz-adv-x="552" 
d="M442 0h-331v332h331v-332zM442 721h-331v332h331v-332z" />
    <glyph glyph-name="semicolon" unicode=";" horiz-adv-x="552" 
d="M442 721h-331v332h331v-332zM281 -283h-306l164 615h307v-10z" />
    <glyph glyph-name="less" unicode="&#x3c;" 
d="M1028 123l-950 342v240l950 344v-283l-594 -176v-4l594 -183v-280z" />
    <glyph glyph-name="equal" unicode="=" 
d="M1028 240h-950v239h950v-239zM1028 696h-950v242h950v-242z" />
    <glyph glyph-name="greater" unicode="&#x3e;" 
d="M1028 465l-950 -342v280l594 183v4l-594 176v283l950 -344v-240z" />
    <glyph glyph-name="question" unicode="?" horiz-adv-x="1077" 
d="M623 473h-283l-8 223q145 135 206.5 222t61.5 176q0 82 -52.5 122.5t-131.5 40.5q-90 0 -178.5 -36.5t-155.5 -98.5h-8v324q181 104 413 104q215 0 344.5 -103.5t129.5 -281.5q0 -144 -79 -267.5t-251 -283.5zM639 0h-317v315h317v-315z" />
    <glyph glyph-name="at" unicode="@" horiz-adv-x="1855" 
d="M932 350q89 0 147 76v274q-58 66 -141 66q-81 0 -129.5 -54t-48.5 -155q0 -99 47.5 -153t124.5 -54zM1018 -328q-284 0 -495 102.5t-328 302.5t-117 476q0 200 62 365.5t173.5 278.5t269 175t345.5 62q143 0 271.5 -32.5t234 -97.5t182.5 -157.5t119.5 -218t42.5 -273.5
q0 -264 -120.5 -401t-344.5 -137h-215v65h-2q-109 -98 -256 -98q-170 0 -276.5 129.5t-106.5 343.5q0 218 113 345.5t292 127.5q148 0 262 -88h2l232 76h14v-682q76 0 122 79.5t46 221.5q0 188 -76 319t-210.5 194.5t-317.5 63.5q-278 0 -446 -176.5t-168 -484.5
q0 -304 186.5 -475.5t523.5 -171.5q355 0 567 147h9v-258q-106 -57 -264.5 -90t-325.5 -33z" />
    <glyph glyph-name="A" unicode="A" horiz-adv-x="1447" 
d="M1427 0h-385l-104 305h-444l-103 -305h-371l545 1434h316zM842 612l-125 365h-2l-125 -365h252z" />
    <glyph glyph-name="B" unicode="B" horiz-adv-x="1329" 
d="M1235 377q0 -377 -502 -377h-557v1397h539q201 0 320.5 -93.5t119.5 -263.5q0 -108 -52.5 -189.5t-141.5 -131.5v-2q114 -28 194 -115t80 -225zM883 434q0 59 -45 91t-121 32h-191v-256h185q172 0 172 133zM799 977q0 54 -40.5 86.5t-107.5 32.5h-125v-248h162
q111 38 111 129z" />
    <glyph glyph-name="C" unicode="C" horiz-adv-x="1249" 
d="M1153 463v-377q-181 -123 -428 -123q-139 0 -257 49.5t-205 141.5t-136 232t-49 312q0 332 174.5 534t464.5 202q253 0 428 -123v-377h-8q-64 77 -157 121.5t-196 44.5q-158 0 -250 -108.5t-92 -293.5q0 -183 93 -292t256 -109q101 0 196 44.5t158 121.5h8z" />
    <glyph glyph-name="D" unicode="D" horiz-adv-x="1495" 
d="M1417 698q0 -138 -37 -253t-102.5 -196.5t-155.5 -138t-195 -83.5t-222 -27h-529v1397h529q146 0 273 -44t226 -128t156 -220t57 -307zM1063 698q0 181 -103.5 278t-267.5 97h-166v-749h166q164 0 267.5 96t103.5 278z" />
    <glyph glyph-name="E" unicode="E" horiz-adv-x="1138" 
d="M1030 0h-854v1397h801v-314h-451v-217h430v-313h-430v-240h504v-313z" />
    <glyph glyph-name="F" unicode="F" horiz-adv-x="1064" 
d="M526 0h-350v1397h801v-324h-451v-268h430v-324h-430v-481z" />
    <glyph glyph-name="G" unicode="G" horiz-adv-x="1464" 
d="M758 -37q-148 0 -273 50.5t-215 143.5t-141 232t-51 309q0 331 190.5 533.5t517.5 202.5q269 0 490 -127v-359h-8q-84 80 -195 125t-237 45q-191 0 -292.5 -115.5t-101.5 -316.5q0 -207 89.5 -314.5t224.5 -107.5q112 0 184 56.5t82 171.5h-338v10l100 297h598
q4 -74 4 -148q0 -172 -46 -304t-130 -215.5t-198 -126t-254 -42.5z" />
    <glyph glyph-name="H" unicode="H" horiz-adv-x="1572" 
d="M1397 0h-350v555h-521v-555h-350v1397h350v-510h521v510h350v-1397z" />
    <glyph glyph-name="I" unicode="I" horiz-adv-x="702" 
d="M526 0h-350v1397h350v-1397z" />
    <glyph glyph-name="J" unicode="J" horiz-adv-x="937" 
d="M352 -37q-135 0 -243 60v346h8q33 -38 77 -59t87 -21q79 0 115 43t36 133v598h-342v12l109 322h581v-1004q0 -94 -23 -169.5t-71.5 -135.5t-133.5 -92.5t-200 -32.5z" />
    <glyph glyph-name="K" unicode="K" horiz-adv-x="1386" 
d="M526 0h-350v1397h350v-1397zM1346 0h-406l-393 702v13l373 682h399l-389 -682v-4z" />
    <glyph glyph-name="L" unicode="L" horiz-adv-x="1064" 
d="M989 0h-813v1397h350v-1065h463v-332z" />
    <glyph glyph-name="M" unicode="M" horiz-adv-x="1824" 
d="M1696 0h-353l-59 649h-2l-356 -686h-25l-362 688h-2l-56 -651h-352l123 1409h285l374 -760h2l375 760h285z" />
    <glyph glyph-name="N" unicode="N" horiz-adv-x="1587" 
d="M1411 -12h-289l-594 753h-2v-741h-350v1280l-72 102v15h357l598 -774h2v774h350v-1409z" />
    <glyph glyph-name="O" unicode="O" horiz-adv-x="1560" 
d="M1483 698q0 -336 -195 -535.5t-512 -199.5q-150 0 -278 51t-221.5 144.5t-146 232.5t-52.5 307q0 223 89.5 390.5t249.5 256.5t369 89q149 0 277 -51.5t221 -145t146 -232.5t53 -307zM1118 698q0 192 -91 302t-241 110q-153 0 -247.5 -107t-94.5 -305q0 -193 90.5 -303
t241.5 -110q152 0 247 107.5t95 305.5z" />
    <glyph glyph-name="P" unicode="P" horiz-adv-x="1294" 
d="M1206 950q0 -246 -166.5 -380t-513.5 -171v-399h-350v1397h524q146 0 258.5 -49.5t180 -152.5t67.5 -245zM854 918q0 78 -51 121.5t-137 43.5h-140v-370q167 6 247.5 61.5t80.5 143.5z" />
    <glyph glyph-name="Q" unicode="Q" horiz-adv-x="1560" 
d="M1483 698q0 -272 -132 -456.5t-354 -247.5l322 -389h-401l-269 370q-255 38 -413 230t-158 493q0 336 195.5 536t512.5 200q149 0 277 -51.5t221 -145t146 -232.5t53 -307zM1118 698q0 192 -91 302t-241 110q-152 0 -248 -107.5t-96 -304.5q0 -192 92 -301.5t242 -109.5
q152 0 247 107t95 304z" />
    <glyph glyph-name="R" unicode="R" horiz-adv-x="1394" 
d="M1348 0h-410l-391 666v12q182 30 260 87t78 146q0 82 -57 128t-160 46h-142v-1085h-350v1397h559q228 0 365 -111.5t137 -324.5q0 -145 -54.5 -243.5t-174.5 -168.5v-4z" />
    <glyph glyph-name="S" unicode="S" horiz-adv-x="1140" 
d="M1053 406q0 -194 -133.5 -318.5t-368.5 -124.5q-248 0 -428 113v344h6q73 -74 183 -116t210 -42q180 0 180 117q0 42 -31.5 74.5t-82 56t-111.5 48.5t-122.5 59.5t-112 80.5t-82 120.5t-31.5 170.5q0 88 26.5 165t81 141t149.5 101.5t220 37.5q108 0 212.5 -29t185.5 -84
v-344h-7q-71 75 -167.5 115.5t-190.5 40.5q-76 0 -117 -29t-41 -80q0 -37 24.5 -67t65 -50.5t91.5 -44.5t105 -46.5t105 -59.5t91.5 -81.5t65 -114t24.5 -154.5z" />
    <glyph glyph-name="T" unicode="T" horiz-adv-x="1196" 
d="M774 -2h-350v1065h-363v332h1074v-332h-361v-1065z" />
    <glyph glyph-name="U" unicode="U" horiz-adv-x="1402" 
d="M702 -37q-257 0 -401.5 127t-144.5 367v940h350v-910q0 -200 188 -200q90 0 138.5 49.5t48.5 150.5v910h366v-940q0 -239 -144.5 -366.5t-400.5 -127.5z" />
    <glyph glyph-name="V" unicode="V" horiz-adv-x="1400" 
d="M844 -37h-287l-541 1434h387l304 -914h2l303 914h370z" />
    <glyph glyph-name="W" unicode="W" horiz-adv-x="2072" 
d="M1554 -37h-286l-230 651h-2l-229 -651h-289l-491 1434h383l274 -856h2l182 575l-86 281h361l266 -856h2l268 856h367z" />
    <glyph glyph-name="X" unicode="X" horiz-adv-x="1476" 
d="M1423 0h-419l-267 444h-2l-243 -444h-410l399 711l-428 686h418l260 -441h2l246 441h410l-400 -690z" />
    <glyph glyph-name="Y" unicode="Y" horiz-adv-x="1357" 
d="M856 0h-350v526l-492 871h416l244 -486h2l262 486h405l-487 -869v-528z" />
    <glyph glyph-name="Z" unicode="Z" horiz-adv-x="1378" 
d="M1274 0h-1174v20l549 1035v2h-504v340h1084v-21l-549 -1034v-2h594v-340z" />
    <glyph glyph-name="bracketleft" unicode="[" horiz-adv-x="763" 
d="M690 -291h-532v1725h532v-269h-229v-1188h229v-268z" />
    <glyph glyph-name="backslash" unicode="\" horiz-adv-x="899" 
d="M907 0h-325l-588 1397h323z" />
    <glyph glyph-name="bracketright" unicode="]" horiz-adv-x="763" 
d="M76 1434h532v-1725h-532v268h229v1188h-229v269z" />
    <glyph glyph-name="asciicircum" unicode="^" 
d="M1016 408h-285l-178 546h-4l-178 -546h-283l344 862h240z" />
    <glyph glyph-name="underscore" unicode="_" 
d="M1085 -395h-1065v274h1065v-274z" />
    <glyph glyph-name="grave" unicode="`" horiz-adv-x="1024" 
d="M788 1159h-282l-270 377h337z" />
    <glyph glyph-name="grave" unicode="&#x300;" horiz-adv-x="1024" 
d="M788 1159h-282l-270 377h337z" />
    <glyph glyph-name="grave" unicode="&#x2cb;" horiz-adv-x="1024" 
d="M788 1159h-282l-270 377h337z" />
    <glyph glyph-name="a" unicode="a" horiz-adv-x="1210" 
d="M1073 0h-323v74h-2q-124 -111 -293 -111q-152 0 -254.5 91.5t-102.5 252.5q0 157 103.5 251.5t290.5 94.5q140 0 249 -57v49q0 84 -68 125t-179 41q-89 0 -176.5 -35.5t-149.5 -93.5h-6v305q170 103 401 103q110 0 200.5 -26t161 -79.5t109.5 -143.5t39 -210v-631z
M741 303v66q-70 39 -170 39q-147 0 -147 -89q0 -40 37 -67t104 -27q110 0 176 78z" />
    <glyph glyph-name="b" unicode="b" horiz-adv-x="1314" 
d="M1247 526q0 -261 -133.5 -412t-347.5 -151q-170 0 -311 105h-2l-293 -93h-6v1561h331v-561h2q134 115 306 115q203 0 328.5 -154.5t125.5 -409.5zM901 526q0 127 -61 199t-158 72q-115 0 -197 -105v-344q80 -92 191 -92q100 0 162.5 70.5t62.5 199.5z" />
    <glyph glyph-name="c" unicode="c" horiz-adv-x="972" 
d="M893 389v-332q-137 -94 -328 -94q-106 0 -198 38t-160.5 108t-108 177.5t-39.5 239.5q0 253 138.5 408.5t363.5 155.5q192 0 326 -95v-329h-6q-42 57 -109 93t-139 36q-102 0 -163.5 -74.5t-61.5 -196.5q0 -120 64 -194t175 -74q68 0 133.5 37.5t106.5 95.5h6z" />
    <glyph glyph-name="d" unicode="d" horiz-adv-x="1314" 
d="M1163 0h-329v78h-3q-137 -115 -309 -115q-204 0 -329 154t-125 409q0 260 134 412t347 152q166 0 280 -80h2v526h332v-1536zM831 360v342q-83 95 -192 95q-100 0 -161.5 -71t-61.5 -200q0 -128 60 -199t157 -71q116 0 198 104z" />
    <glyph glyph-name="e" unicode="e" horiz-adv-x="1189" 
d="M1061 63q-155 -100 -408 -100q-175 0 -309 66t-209.5 194.5t-75.5 302.5q0 256 142.5 410t392.5 154q144 0 260.5 -59t187 -176.5t70.5 -274.5q0 -68 -6 -123h-696q19 -104 100 -161.5t213 -57.5q93 0 181.5 35t150.5 92h6v-302zM764 707q-9 58 -55 94.5t-117 36.5
q-74 0 -121.5 -34t-60.5 -97h354z" />
    <glyph glyph-name="f" unicode="f" horiz-adv-x="784" 
d="M504 0h-332v766h-121v10l121 277v116q0 179 98.5 280t276.5 101q140 0 239 -51v-295h-6q-71 64 -151 64q-62 0 -93.5 -35.5t-31.5 -95.5v-84h233v-287h-233v-766z" />
    <glyph glyph-name="g" unicode="g" horiz-adv-x="1296" 
d="M821 377v344q-33 34 -79 55t-93 21q-102 0 -164.5 -67t-62.5 -185q0 -116 62 -184t159 -68q110 0 178 84zM631 -410q-116 0 -229.5 26.5t-196.5 78.5v309h8q141 -135 367 -135q116 0 178.5 50t62.5 134v60h-2q-128 -113 -309 -113q-91 0 -170.5 35t-140.5 101.5t-96 172
t-35 236.5q0 260 132.5 402.5t344.5 142.5q171 0 307 -105h4l291 92h6v-999q0 -229 -144 -358.5t-378 -129.5z" />
    <glyph glyph-name="h" unicode="h" horiz-adv-x="1310" 
d="M1167 0h-331v608q0 92 -45.5 140.5t-120.5 48.5q-106 0 -185 -105v-692h-331v1536h331v-561h2q128 115 299 115q77 0 144.5 -23t121 -68t84.5 -118t31 -166v-715z" />
    <glyph glyph-name="i" unicode="i" horiz-adv-x="636" 
d="M485 0h-331v1053h331v-1053zM494 1262h-349v274h349v-274z" />
    <glyph glyph-name="j" unicode="j" horiz-adv-x="636" 
d="M117 -395q-142 0 -238 51v276h6q62 -59 146 -59q123 0 123 139v1041h331v-1057q0 -197 -97.5 -294t-270.5 -97zM494 1262h-349v274h349v-274z" />
    <glyph glyph-name="k" unicode="k" horiz-adv-x="1247" 
d="M485 0h-331v1536h331v-1536zM1219 0h-390l-327 528v9l311 516h381l-326 -516v-5z" />
    <glyph glyph-name="l" unicode="l" horiz-adv-x="636" 
d="M485 0h-331v1536h331v-1536z" />
    <glyph glyph-name="m" unicode="m" horiz-adv-x="1992" 
d="M1849 0h-331v608q0 93 -45 141t-121 48q-113 0 -191 -113q6 -37 6 -76v-608h-331v608q0 92 -45.5 140.5t-120.5 48.5q-106 0 -185 -105v-692h-331v1053h329v-80h2q126 117 306 117q99 0 183 -41t134 -119h2q93 85 176 122.5t187 37.5q76 0 142.5 -23t119 -68t83.5 -118
t31 -166v-715z" />
    <glyph glyph-name="n" unicode="n" horiz-adv-x="1335" 
d="M1192 0h-332v608q0 92 -48 140.5t-128 48.5q-116 0 -199 -105v-692h-331v1053h329v-80h2q133 117 312 117q80 0 150 -23t125.5 -68t87.5 -118t32 -166v-715z" />
    <glyph glyph-name="o" unicode="o" horiz-adv-x="1265" 
d="M858 526q0 128 -60 203.5t-161 75.5q-104 0 -166.5 -73.5t-62.5 -205.5q0 -129 60 -203.5t163 -74.5t165 73t62 205zM1208 526q0 -256 -158.5 -409.5t-418.5 -153.5q-255 0 -413.5 153t-158.5 410q0 256 158.5 410t419.5 154q253 0 412 -153.5t159 -410.5z" />
    <glyph glyph-name="p" unicode="p" horiz-adv-x="1314" 
d="M1247 526q0 -261 -133.5 -412t-347.5 -151q-168 0 -279 80h-2v-438h-331v1448h329v-80h2q133 117 308 117q203 0 328.5 -154.5t125.5 -409.5zM901 526q0 127 -61 199t-158 72q-115 0 -197 -105v-344q80 -92 191 -92q100 0 162.5 70.5t62.5 199.5z" />
    <glyph glyph-name="q" unicode="q" horiz-adv-x="1314" 
d="M1163 -395h-332v473h-2q-134 -115 -307 -115q-204 0 -329 154t-125 409q0 260 134 412t347 152q174 0 311 -105h2l295 92h6v-1472zM831 360v342q-83 95 -192 95q-100 0 -161.5 -71t-61.5 -200q0 -128 60 -199t157 -71q116 0 198 104z" />
    <glyph glyph-name="r" unicode="r" horiz-adv-x="884" 
d="M487 0h-331v1053h315v-84h2q131 121 256 121q59 0 109 -21v-324h-9q-62 41 -135 41q-56 0 -104 -23t-103 -69v-694z" />
    <glyph glyph-name="s" unicode="s" horiz-adv-x="1001" 
d="M901 315q0 -163 -107.5 -257.5t-318.5 -94.5q-215 0 -360 82v305h6q58 -59 150 -93t180 -34q129 0 129 72q0 26 -25.5 45t-66 33.5t-89.5 30t-98.5 41.5t-90 61.5t-66 96.5t-25.5 140q0 161 103 254t296 93q207 0 346 -84v-304h-6q-59 57 -142.5 92t-164.5 35
q-53 0 -79 -19t-26 -50q0 -26 25 -45t65 -33t89 -29.5t97.5 -41.5t88.5 -61.5t65 -96t25 -138.5z" />
    <glyph glyph-name="t" unicode="t" horiz-adv-x="784" 
d="M504 0h-332v766h-121v10l121 277v311h332v-311h233v-287h-233v-766z" />
    <glyph glyph-name="u" unicode="u" horiz-adv-x="1288" 
d="M1151 1053v-609q0 -225 -134 -353t-376 -128q-236 0 -370 128t-134 353v609h332v-611q0 -97 46 -145.5t128 -48.5q81 0 128.5 49t47.5 145v611h332z" />
    <glyph glyph-name="v" unicode="v" horiz-adv-x="1216" 
d="M735 -37h-254l-465 1090h377l215 -613h2l213 613h377z" />
    <glyph glyph-name="w" unicode="w" horiz-adv-x="1804" 
d="M1364 -37h-225l-234 459h-2l-239 -459h-226l-415 1090h372l185 -529h2l307 566h29l303 -566h2l184 529h373z" />
    <glyph glyph-name="x" unicode="x" horiz-adv-x="1212" 
d="M1194 0h-389l-201 317h-2l-180 -317h-379l324 537l-347 516h388l198 -316h2l180 316h381l-327 -525z" />
    <glyph glyph-name="y" unicode="y" horiz-adv-x="1218" 
d="M657 -395h-370l164 397l-437 1051h379l225 -631h3l204 631h371z" />
    <glyph glyph-name="z" unicode="z" horiz-adv-x="1081" 
d="M1014 0h-973v20l410 744v2h-371v287h897v-23l-412 -743v-2h449v-285z" />
    <glyph glyph-name="braceleft" unicode="{" horiz-adv-x="813" 
d="M745 -291q-161 0 -263 24t-162.5 82.5t-83.5 144t-23 220.5v246l-135 141v8l135 142v246q0 135 23 220.5t83.5 144t162.5 82.5t263 24v-269q-135 0 -182 -48t-47 -159v-249l-127 -138l127 -137v-250q0 -111 47 -159t182 -48v-268z" />
    <glyph glyph-name="bar" unicode="|" horiz-adv-x="552" 
d="M414 -389h-275v2007h275v-2007z" />
    <glyph glyph-name="braceright" unicode="}" horiz-adv-x="813" 
d="M70 1434q129 0 218.5 -16.5t151.5 -49.5t97 -90.5t50 -132t15 -182.5v-246l133 -142v-8l-133 -141v-246q0 -108 -15 -182.5t-50 -132t-97 -90.5t-151.5 -49.5t-218.5 -16.5v268q70 0 115 12t69.5 39.5t33.5 64t9 91.5v250l127 137l-127 138v249q0 55 -9 91.5t-33.5 64
t-69.5 39.5t-115 12v269z" />
    <glyph glyph-name="asciitilde" unicode="~" 
d="M1006 518q-101 -106 -236 -106q-52 0 -113 20t-107.5 43.5t-104.5 43.5t-103 20q-129 0 -242 -127v260q104 104 238 104q51 0 111.5 -19.5t107.5 -43t104.5 -43t102.5 -19.5q134 0 242 123v-256z" />
    <glyph glyph-name="exclamdown" unicode="&#xa1;" horiz-adv-x="643" 
d="M502 -483h-361l37 1063h285zM481 737h-317v316h317v-316z" />
    <glyph glyph-name="cent" unicode="&#xa2;" horiz-adv-x="1101" 
d="M842 -291h-254v256q-241 19 -378.5 172.5t-137.5 415.5q0 253 138 411t378 177v256h254v-281q96 -24 168 -72v-325h-9q-64 77 -159 110v-555q100 38 166 113h8v-326q-78 -53 -174 -73v-279zM420 553q0 -225 168 -281v564q-168 -57 -168 -283z" />
    <glyph glyph-name="sterling" unicode="&#xa3;" horiz-adv-x="1163" 
d="M1051 0h-963v289h184l-28 256h-156v274h127l-8 86q-8 74 -8 111q0 186 128.5 302t364.5 116q102 0 202 -26t177 -75v-342h-8q-60 66 -147.5 106t-176.5 40q-95 0 -143.5 -49t-48.5 -127q0 -2 6 -89l6 -53h383v-274h-354l28 -256h435v-289z" />
    <glyph glyph-name="currency" unicode="&#xa4;" 
d="M901 592q0 -69 -35 -137l135 -136l-174 -172l-137 134q-64 -33 -137 -33q-64 0 -139 33l-140 -138l-174 172l142 142q-33 75 -33 135q0 64 33 135l-140 141l174 174l140 -137q68 35 137 35q66 0 141 -35l137 142l173 -177l-138 -135q35 -75 35 -143zM684 592
q0 58 -37.5 101.5t-93.5 43.5q-57 0 -95 -43t-38 -102q0 -57 38 -99t95 -42q56 0 93.5 42t37.5 99z" />
    <glyph glyph-name="yen" unicode="&#xa5;" horiz-adv-x="1163" 
d="M774 0h-342v276h-358v232h358v86h-358v231h256l-279 572h371l180 -473h2l166 473h352l-256 -572h234v-231h-326v-86h326v-232h-326v-276z" />
    <glyph glyph-name="brokenbar" unicode="&#xa6;" horiz-adv-x="552" 
d="M414 784h-275v834h275v-834zM414 -389h-275v833h275v-833z" />
    <glyph glyph-name="section" unicode="&#xa7;" horiz-adv-x="1163" 
d="M1085 559q0 -126 -54.5 -215t-149.5 -137v-2q100 -71 100 -187q0 -158 -107.5 -253t-316.5 -95q-217 0 -362 84v291h6q58 -56 149.5 -88.5t175.5 -32.5q131 0 131 82q0 32 -24 54t-53.5 31t-82.5 23.5t-85 26.5q-158 39 -247 145.5t-89 272.5q0 125 56 214.5t153 139.5v2
q-88 70 -88 179q0 158 103 249t298 91q203 0 344 -82v-293h-6q-57 57 -141.5 89t-161.5 32q-109 0 -109 -78q0 -20 8.5 -35.5t20 -25t34.5 -19t40.5 -14.5t49.5 -13.5t50 -13.5q165 -31 261.5 -141t96.5 -281zM735 559q0 75 -39 120.5t-112 45.5q-74 0 -117 -42.5
t-43 -123.5q0 -76 39 -122t112 -46q74 0 117 42.5t43 125.5z" />
    <glyph glyph-name="dieresis" unicode="&#xa8;" horiz-adv-x="1024" 
d="M434 1262h-321v274h321v-274zM909 1262h-319v274h319v-274z" />
    <glyph glyph-name="dieresis" unicode="&#x308;" horiz-adv-x="1024" 
d="M434 1262h-321v274h321v-274zM909 1262h-319v274h319v-274z" />
    <glyph glyph-name="copyright" unicode="&#xa9;" horiz-adv-x="1613" 
d="M825 270q-167 0 -273 114t-106 312q0 191 101.5 308.5t273.5 117.5q138 0 248 -65v-240h-4q-35 36 -88.5 59t-110.5 23q-85 0 -131.5 -54t-46.5 -149q0 -94 47 -149t133 -55q56 0 110 22t91 59h4v-237q-109 -66 -248 -66zM803 -37q-208 0 -372 87.5t-258.5 255.5
t-94.5 392q0 223 93 390.5t259.5 256.5t382.5 89q155 0 287.5 -51.5t229 -145t151.5 -232.5t55 -307q0 -223 -92.5 -390.5t-258.5 -256t-382 -88.5zM797 127q117 0 216 36t174 105.5t117 180t42 251.5q0 265 -145.5 417.5t-381.5 152.5q-117 0 -216 -36t-174.5 -105
t-118 -179t-42.5 -250q0 -267 146 -420t383 -153z" />
    <glyph glyph-name="ordfeminine" unicode="&#xaa;" horiz-adv-x="802" 
d="M715 238h-621v217h621v-217zM713 604h-230v47h-2q-78 -71 -188 -71q-97 0 -164.5 60.5t-67.5 164.5q0 102 67 163.5t189 61.5q97 0 160 -37v33q0 48 -43.5 72t-114.5 24q-58 0 -114 -21t-96 -57h-7v207q121 64 269 64q73 0 133 -17t108 -52t74.5 -95.5t26.5 -140.5v-406z
M477 791v59q-49 22 -94 22q-90 0 -90 -59q0 -26 21 -41.5t61 -15.5q58 0 102 35z" />
    <glyph glyph-name="guillemotleft" unicode="&#xab;" horiz-adv-x="1099" 
d="M602 154h-303l-238 391v12l238 391h303l-225 -397zM1040 154h-303l-237 391v12l237 391h303l-225 -397z" />
    <glyph glyph-name="logicalnot" unicode="&#xac;" 
d="M1028 346h-248v338h-702v246h950v-584z" />
    <glyph glyph-name="registered" unicode="&#xae;" horiz-adv-x="1613" 
d="M721 291h-232v811h351q134 0 214.5 -66t80.5 -192q0 -81 -32 -131.5t-106 -89.5v-5l199 -327h-264l-201 389v8q92 15 132 45t40 80q0 41 -29 64.5t-79 23.5h-74v-610zM803 -37q-208 0 -372 87.5t-258.5 255.5t-94.5 392q0 223 93 390.5t259.5 256.5t382.5 89
q155 0 287.5 -51.5t229 -145t151.5 -232.5t55 -307q0 -223 -92.5 -390.5t-258.5 -256t-382 -88.5zM797 127q117 0 216 36t174 105.5t117 180t42 251.5q0 265 -145.5 417.5t-381.5 152.5q-117 0 -216 -36t-174.5 -105t-118 -179t-42.5 -250q0 -267 146 -420t383 -153z" />
    <glyph glyph-name="macron" unicode="&#xaf;" horiz-adv-x="1024" 
d="M897 1274h-770v248h770v-248z" />
    <glyph glyph-name="macron" unicode="&#x304;" horiz-adv-x="1024" 
d="M897 1274h-770v248h770v-248z" />
    <glyph glyph-name="macron" unicode="&#x2c9;" horiz-adv-x="1024" 
d="M897 1274h-770v248h770v-248z" />
    <glyph glyph-name="degree" unicode="&#xb0;" horiz-adv-x="757" 
d="M696 1135q0 -126 -85.5 -205.5t-231.5 -79.5q-145 0 -231.5 80t-86.5 205t86.5 204.5t233.5 79.5q145 0 230 -79.5t85 -204.5zM475 1135q0 62 -25 95.5t-69 33.5q-45 0 -70.5 -33.5t-25.5 -95.5t25 -95.5t69 -33.5q45 0 70.5 33.5t25.5 95.5z" />
    <glyph glyph-name="plusminus" unicode="&#xb1;" 
d="M1028 115h-950v243h950v-243zM676 426h-244v246h-354v241h350v258h246v-258h354v-241h-352v-246z" />
    <glyph glyph-name="twosuperior" unicode="&#xb2;" horiz-adv-x="765" 
d="M733 604h-674v178q138 107 215 190t99 132.5t22 101.5q0 58 -32 90.5t-87 32.5q-92 0 -194 -88h-4v225q120 70 248 70q138 0 228.5 -78t90.5 -221q0 -54 -12.5 -103.5t-28.5 -84t-53 -82t-61.5 -73.5t-79.5 -83v-2h323v-205z" />
    <glyph glyph-name="threesuperior" unicode="&#xb3;" horiz-adv-x="765" 
d="M709 838q0 -121 -86.5 -189.5t-237.5 -68.5q-158 0 -283 67v225h7q42 -38 109 -63t122 -25q57 0 90 23t33 65q0 37 -30.5 58.5t-86.5 21.5h-141v207h135q66 24 66 84q0 40 -29 63t-80 23q-98 0 -184 -86h-4v227q112 66 247 66q134 0 217.5 -67.5t83.5 -182.5
q0 -145 -133 -213v-2q87 -19 136 -79.5t49 -153.5z" />
    <glyph glyph-name="acute" unicode="&#xb4;" horiz-adv-x="1024" 
d="M518 1157h-282l227 379h325z" />
    <glyph glyph-name="acute" unicode="&#x301;" horiz-adv-x="1024" 
d="M518 1157h-282l227 379h325z" />
    <glyph glyph-name="acute" unicode="&#x2ca;" horiz-adv-x="1024" 
d="M518 1157h-282l227 379h325z" />
    <glyph glyph-name="mu" unicode="&#xb5;" horiz-adv-x="1318" 
d="M1167 0h-315v78h-2q-42 -49 -100.5 -82t-120.5 -33q-120 0 -180 78h-3q30 -220 39 -334l-329 -102h-2v1448h331v-602q0 -98 47.5 -146.5t126.5 -48.5q62 0 109 34.5t68 102.5v660h331v-1053z" />
    <glyph glyph-name="paragraph" unicode="&#xb6;" horiz-adv-x="1284" 
d="M1100 -291h-332v697q-352 40 -516 167.5t-164 376.5q0 112 38.5 199t107.5 140.5t159.5 80.5t200.5 27h506v-1688z" />
    <glyph glyph-name="periodcentered" unicode="&#xb7;" horiz-adv-x="552" 
d="M442 387h-331v332h331v-332z" />
    <glyph glyph-name="periodcentered" unicode="&#x2219;" horiz-adv-x="552" 
d="M442 387h-331v332h331v-332z" />
    <glyph glyph-name="cedilla" unicode="&#xb8;" horiz-adv-x="1024" 
d="M764 -227q0 -74 -68 -121t-198 -47q-147 0 -238 35v147h6q73 -41 166 -41q68 0 68 33q0 23 -35 32.5t-123 14.5l47 174h234l-19 -72q160 -34 160 -155z" />
    <glyph glyph-name="cedilla" unicode="&#x327;" horiz-adv-x="1024" 
d="M764 -227q0 -74 -68 -121t-198 -47q-147 0 -238 35v147h6q73 -41 166 -41q68 0 68 33q0 23 -35 32.5t-123 14.5l47 174h234l-19 -72q160 -34 160 -155z" />
    <glyph glyph-name="onesuperior" unicode="&#xb9;" horiz-adv-x="765" 
d="M575 604h-241v651l-211 -47h-4v228l452 100h4v-932z" />
    <glyph glyph-name="ordmasculine" unicode="&#xba;" horiz-adv-x="833" 
d="M727 238h-621v217h621v-217zM549 946q0 73 -34.5 116.5t-94.5 43.5q-63 0 -100 -41.5t-37 -118.5q0 -71 36 -115.5t95 -44.5q62 0 98.5 42t36.5 118zM797 946q0 -166 -104.5 -266t-278.5 -100q-167 0 -272 100t-105 266q0 168 104.5 268.5t278.5 100.5q167 0 272 -101
t105 -268z" />
    <glyph glyph-name="guillemotright" unicode="&#xbb;" horiz-adv-x="1099" 
d="M365 154h-304l226 397l-226 397h304l237 -391v-12zM803 154h-303l225 397l-225 397h303l237 -391v-12z" />
    <glyph glyph-name="onequarter" unicode="&#xbc;" horiz-adv-x="1783" 
d="M1753 188h-104v-188h-242v188h-354v185l397 559h199v-555h104v-189zM715 0h-275l670 1397h274zM575 489h-241v652l-211 -47h-4v227l452 100h4v-932zM1415 377v211h-2l-143 -211h145z" />
    <glyph glyph-name="onehalf" unicode="&#xbd;" horiz-adv-x="1878" 
d="M1845 0h-674v178q138 107 215 190t99 132.5t22 101.5q0 58 -31.5 90.5t-86.5 32.5q-93 0 -195 -88h-4v225q120 70 248 70q138 0 228.5 -78t90.5 -221q0 -54 -12.5 -103.5t-28.5 -84t-53 -82t-61.5 -73.5t-79.5 -83v-2h323v-205zM575 489h-241v652l-211 -47h-4v227
l452 100h4v-932zM715 0h-275l670 1397h274z" />
    <glyph glyph-name="threequarters" unicode="&#xbe;" horiz-adv-x="1816" 
d="M1788 188h-105v-188h-241v188h-355v185l398 559h198v-555h105v-189zM748 0h-275l670 1397h274zM709 723q0 -121 -86.5 -189.5t-237.5 -68.5q-158 0 -283 67v226h7q42 -38 109 -63t122 -25q57 0 90 23t33 65q0 37 -30.5 58.5t-86.5 21.5h-141v206h135q66 24 66 84
q0 40 -29 63t-80 23q-98 0 -184 -86h-4v228q110 65 247 65q134 0 217.5 -67.5t83.5 -182.5q0 -145 -133 -213v-2q87 -19 136 -79.5t49 -153.5zM1450 377v211h-2l-143 -211h145z" />
    <glyph glyph-name="questiondown" unicode="&#xbf;" horiz-adv-x="1077" 
d="M453 580h286l6 -224q-144 -133 -206 -220.5t-62 -176.5q0 -83 51.5 -123.5t130.5 -40.5q92 0 181 36.5t153 98.5h8v-323q-177 -105 -411 -105q-214 0 -344.5 104t-130.5 281q0 75 21 144t66.5 136.5t102 129.5t141.5 141zM438 1053h316v-316h-316v316z" />
    <glyph glyph-name="Agrave" unicode="&#xc0;" horiz-adv-x="1447" 
d="M1427 0h-385l-104 305h-444l-103 -305h-371l545 1434h4l-172 204h338l125 -204h21zM842 612l-125 365h-2l-125 -365h252z" />
    <glyph glyph-name="Aacute" unicode="&#xc1;" horiz-adv-x="1447" 
d="M1427 0h-385l-104 305h-444l-103 -305h-371l545 1434h23l125 204h338l-174 -204h4zM842 612l-125 365h-2l-125 -365h252z" />
    <glyph glyph-name="Acircumflex" unicode="&#xc2;" horiz-adv-x="1447" 
d="M1110 1397h-215l532 -1397h-385l-104 305h-444l-103 -305h-371l531 1397h-215l237 262h299zM842 612l-125 365h-2l-125 -365h252zM721 1501l-68 -67h138l-68 67h-2z" />
    <glyph glyph-name="Atilde" unicode="&#xc3;" horiz-adv-x="1447" 
d="M1427 0h-385l-104 305h-444l-103 -305h-371l545 1434h217q-24 8 -63.5 24t-66 24.5t-46.5 8.5q-31 0 -43.5 -18.5t-21.5 -57.5h-201q8 57 20 99t36 82.5t65.5 61.5t99.5 21q59 0 154 -38.5t125 -38.5q31 0 43.5 18.5t21.5 58.5h201q-8 -59 -20 -101.5t-35.5 -82
t-64.5 -60t-99 -20.5zM842 612l-125 365h-2l-125 -365h252z" />
    <glyph glyph-name="Adieresis" unicode="&#xc4;" horiz-adv-x="1447" 
d="M1427 0h-385l-104 305h-444l-103 -305h-371l545 1434h316zM842 612l-125 365h-2l-125 -365h252zM645 1444h-321v235h321v-235zM1120 1444h-319v235h319v-235z" />
    <glyph glyph-name="Aring" unicode="&#xc5;" horiz-adv-x="1447" 
d="M1004 1595q0 -119 -121 -170l544 -1425h-385l-104 305h-444l-103 -305h-371l541 1421q-121 49 -121 174q0 97 78 147t207 50t204 -50t75 -147zM842 612l-125 365h-2l-125 -365h252zM807 1595q0 28 -22.5 45t-61.5 17q-40 0 -64 -17t-24 -45q0 -30 24 -47.5t64 -17.5
t62 17t22 48z" />
    <glyph glyph-name="AE" unicode="&#xc6;" horiz-adv-x="1925" 
d="M1817 0h-854v469h-314l-223 -469h-406l697 1397h1046v-314h-450v-245h430v-312h-430v-213h504v-313zM954 1141l-172 -357h181v357h-9z" />
    <glyph glyph-name="Ccedilla" unicode="&#xc7;" horiz-adv-x="1249" 
d="M948 -227q0 -74 -68 -121t-198 -47q-147 0 -238 35v147h7q73 -41 165 -41q68 0 68 33q0 23 -35 32.5t-123 14.5l41 156q-221 49 -355 236.5t-134 479.5q0 332 174.5 534t464.5 202q253 0 428 -123v-377h-8q-64 77 -157 121.5t-196 44.5q-158 0 -250 -108.5t-92 -293.5
q0 -183 93 -292t256 -109q101 0 196 44.5t158 121.5h8v-377q-150 -104 -356 -119l-9 -39q160 -34 160 -155z" />
    <glyph glyph-name="Egrave" unicode="&#xc8;" horiz-adv-x="1138" 
d="M1030 0h-854v1397h279l-205 241h338l147 -241h242v-314h-451v-217h430v-313h-430v-240h504v-313z" />
    <glyph glyph-name="Eacute" unicode="&#xc9;" horiz-adv-x="1138" 
d="M1030 0h-854v1397h248l147 241h338l-204 -241h272v-314h-451v-217h430v-313h-430v-240h504v-313z" />
    <glyph glyph-name="Ecircumflex" unicode="&#xca;" horiz-adv-x="1138" 
d="M956 1397h21v-314h-451v-217h430v-313h-430v-240h504v-313h-854v1397h6l238 262h299zM567 1501l-104 -104h213l-107 104h-2z" />
    <glyph glyph-name="Edieresis" unicode="&#xcb;" horiz-adv-x="1138" 
d="M492 1444h-322v235h322v-235zM967 1444h-320v235h320v-235zM1030 0h-854v1397h801v-314h-451v-217h430v-313h-430v-240h504v-313z" />
    <glyph glyph-name="Igrave" unicode="&#xcc;" horiz-adv-x="710" 
d="M498 1397h28v-1397h-350v1397h41l-205 241h338z" />
    <glyph glyph-name="Iacute" unicode="&#xcd;" horiz-adv-x="710" 
d="M492 1397h34v-1397h-350v1397h35l147 241h338z" />
    <glyph glyph-name="Icircumflex" unicode="&#xce;" horiz-adv-x="710" 
d="M743 1397h-217v-1397h-350v1397h-207l238 262h299zM354 1501l-104 -104h213l-107 104h-2z" />
    <glyph glyph-name="Idieresis" unicode="&#xcf;" horiz-adv-x="710" 
d="M526 0h-350v1397h350v-1397zM279 1444h-322v235h322v-235zM754 1444h-320v235h320v-235z" />
    <glyph glyph-name="Eth" unicode="&#xd0;" horiz-adv-x="1495" 
d="M1417 698q0 -138 -37 -253t-102.5 -196.5t-155.5 -138t-195 -83.5t-222 -27h-529v571h-176v277h176v549h529q146 0 273 -44t226 -128t156 -220t57 -307zM1063 698q0 181 -103.5 278t-267.5 97h-166v-225h283v-277h-283v-247h166q164 0 267.5 96t103.5 278z" />
    <glyph glyph-name="Ntilde" unicode="&#xd1;" horiz-adv-x="1587" 
d="M940 1415q-60 0 -154.5 38t-123.5 38q-31 0 -44 -18.5t-22 -57.5h-201q8 57 20 99t36 82.5t65.5 61.5t99.5 21q59 0 154 -38.5t125 -38.5q31 0 44 18.5t22 58.5h200q-8 -59 -20 -101.5t-36 -82t-65.5 -60t-99.5 -20.5zM1411 -12h-289l-594 753h-2v-741h-350v1280l-72 102
v15h357l598 -774h2v774h350v-1409z" />
    <glyph glyph-name="Ograve" unicode="&#xd2;" horiz-adv-x="1560" 
d="M1483 698q0 -336 -195 -535.5t-512 -199.5q-150 0 -278 51t-221.5 144.5t-146 232.5t-52.5 307q0 291 148.5 482t402.5 239l-187 219h338l131 -215q256 -39 414 -232t158 -493zM1118 698q0 192 -91 302t-241 110q-153 0 -247.5 -107t-94.5 -305q0 -193 90.5 -303
t241.5 -110q152 0 247 107.5t95 305.5z" />
    <glyph glyph-name="Oacute" unicode="&#xd3;" horiz-adv-x="1560" 
d="M1483 698q0 -336 -195 -535.5t-512 -199.5q-150 0 -278 51t-221.5 144.5t-146 232.5t-52.5 307q0 296 154 488.5t413 234.5l133 217h338l-186 -219q250 -45 401.5 -236.5t151.5 -484.5zM1118 698q0 192 -91 302t-241 110q-153 0 -247.5 -107t-94.5 -305q0 -193 90.5 -303
t241.5 -110q152 0 247 107.5t95 305.5z" />
    <glyph glyph-name="Ocircumflex" unicode="&#xd4;" horiz-adv-x="1560" 
d="M1167 1397h-143q210 -69 334.5 -252.5t124.5 -446.5q0 -336 -195 -535.5t-512 -199.5q-150 0 -278 51t-221.5 144.5t-146 232.5t-52.5 307q0 263 123.5 447t337.5 252h-146l238 262h299zM1118 698q0 192 -91 302t-241 110q-153 0 -247.5 -107t-94.5 -305
q0 -193 90.5 -303t241.5 -110q152 0 247 107.5t95 305.5zM786 1434q20 0 66 -4l-72 71h-2l-71 -71q50 4 79 4z" />
    <glyph glyph-name="Otilde" unicode="&#xd5;" horiz-adv-x="1560" 
d="M1483 698q0 -336 -195 -535.5t-512 -199.5q-150 0 -278 51t-221.5 144.5t-146 232.5t-52.5 307q0 285 142.5 474.5t385.5 242.5h-196q8 57 20 99t36 82.5t65.5 61.5t99.5 21q59 0 153.5 -38.5t124.5 -38.5q31 0 44 18.5t22 58.5h201q-8 -59 -20 -101.5t-36 -81.5
t-64.5 -59.5t-97.5 -21.5q237 -54 381 -243.5t144 -473.5zM1118 698q0 192 -91 302t-241 110q-153 0 -247.5 -107t-94.5 -305q0 -193 90.5 -303t241.5 -110q152 0 247 107.5t95 305.5zM676 1491q-31 0 -44 -18.5t-22 -57.5q87 19 176 19q26 0 80 -4q-27 7 -94.5 34t-95.5 27
z" />
    <glyph glyph-name="Odieresis" unicode="&#xd6;" horiz-adv-x="1560" 
d="M702 1444h-321v235h321v-235zM1178 1444h-320v235h320v-235zM1483 698q0 -336 -195 -535.5t-512 -199.5q-150 0 -278 51t-221.5 144.5t-146 232.5t-52.5 307q0 223 89.5 390.5t249.5 256.5t369 89q149 0 277 -51.5t221 -145t146 -232.5t53 -307zM1118 698q0 192 -91 302
t-241 110q-153 0 -247.5 -107t-94.5 -305q0 -193 90.5 -303t241.5 -110q152 0 247 107.5t95 305.5z" />
    <glyph glyph-name="multiply" unicode="&#xd7;" 
d="M1001 311l-174 -176l-274 275l-279 -275l-174 170l279 279l-277 272l174 176l277 -274l278 276l173 -172l-277 -278z" />
    <glyph glyph-name="Oslash" unicode="&#xd8;" horiz-adv-x="1560" 
d="M420 -37h-342l166 232q-166 200 -166 503q0 336 195.5 536t512.5 200q162 0 310 -66l47 66h340l-166 -234q166 -200 166 -502q0 -336 -195 -535.5t-512 -199.5q-167 0 -311 64zM1118 698q0 118 -35 205l-434 -592q58 -24 127 -24q152 0 247 107t95 304zM442 698
q0 -115 35 -202l430 589q-61 23 -121 23q-152 0 -248 -106.5t-96 -303.5z" />
    <glyph glyph-name="Ugrave" unicode="&#xd9;" horiz-adv-x="1402" 
d="M834 1397h-281l-205 241h338zM702 -37q-257 0 -401.5 127t-144.5 367v940h350v-910q0 -200 188 -200q90 0 138.5 49.5t48.5 150.5v910h366v-940q0 -239 -144.5 -366.5t-400.5 -127.5z" />
    <glyph glyph-name="Uacute" unicode="&#xda;" horiz-adv-x="1402" 
d="M831 1397h-280l147 241h338zM702 -37q-257 0 -401.5 127t-144.5 367v940h350v-910q0 -200 188 -200q90 0 138.5 49.5t48.5 150.5v910h366v-940q0 -239 -144.5 -366.5t-400.5 -127.5z" />
    <glyph glyph-name="Ucircumflex" unicode="&#xdb;" horiz-adv-x="1402" 
d="M1079 1397h168v-940q0 -239 -144.5 -366.5t-400.5 -127.5q-257 0 -401.5 127t-144.5 367v940h149l238 262h299zM881 487v910h-82l-107 104h-2l-104 -104h-80v-910q0 -200 188 -200q90 0 138.5 49.5t48.5 150.5z" />
    <glyph glyph-name="Udieresis" unicode="&#xdc;" horiz-adv-x="1402" 
d="M614 1444h-321v235h321v-235zM1090 1444h-320v235h320v-235zM702 -37q-257 0 -401.5 127t-144.5 367v940h350v-910q0 -200 188 -200q90 0 138.5 49.5t48.5 150.5v910h366v-940q0 -239 -144.5 -366.5t-400.5 -127.5z" />
    <glyph glyph-name="Yacute" unicode="&#xdd;" horiz-adv-x="1357" 
d="M856 0h-350v526l-492 871h416l244 -486h2l262 486h405l-487 -869v-528zM819 1397h-280l147 241h338z" />
    <glyph glyph-name="Thorn" unicode="&#xde;" horiz-adv-x="1294" 
d="M1206 827q0 -251 -165 -382.5t-515 -170.5v-274h-350v1397h350v-123h174q225 0 365.5 -115.5t140.5 -331.5zM854 795q0 78 -51 122t-137 44h-140v-371q167 6 247.5 61.5t80.5 143.5z" />
    <glyph glyph-name="germandbls" unicode="&#xdf;" horiz-adv-x="1474" 
d="M965 -37q-218 0 -363 82v301h6q56 -57 148.5 -90t177.5 -33q69 0 100 18.5t31 57.5q0 28 -25.5 48t-66 34.5t-89 30t-97.5 41.5t-89.5 62t-66 97.5t-25.5 141.5q0 59 16.5 109t43.5 84.5t59 63t64.5 50.5t59.5 42.5t43.5 43t16.5 47.5q0 82 -182 82q-107 0 -165 -37
t-58 -123v-1116h-332v766h-121v10l121 277v106q0 184 145.5 287.5t419.5 103.5q261 0 392 -83.5t131 -243.5q0 -64 -24.5 -117t-61 -86t-79.5 -64t-79.5 -53.5t-61 -51.5t-24.5 -60q0 -36 25.5 -61.5t66 -41t89.5 -31t97.5 -39.5t89 -59t66 -97t25.5 -145
q0 -163 -107.5 -258.5t-316.5 -95.5z" />
    <glyph glyph-name="agrave" unicode="&#xe0;" horiz-adv-x="1210" 
d="M1073 0h-323v74h-2q-124 -111 -293 -111q-152 0 -254.5 91.5t-102.5 252.5q0 157 103.5 251.5t290.5 94.5q140 0 249 -57v49q0 84 -68 125t-179 41q-89 0 -176.5 -35.5t-149.5 -93.5h-6v305q170 103 401 103q110 0 200.5 -26t161 -79.5t109.5 -143.5t39 -210v-631z
M741 303v66q-70 39 -170 39q-147 0 -147 -89q0 -40 37 -67t104 -27q110 0 176 78zM752 1159h-283l-270 377h338z" />
    <glyph glyph-name="aacute" unicode="&#xe1;" horiz-adv-x="1210" 
d="M1073 0h-323v74h-2q-124 -111 -293 -111q-152 0 -254.5 91.5t-102.5 252.5q0 157 103.5 251.5t290.5 94.5q140 0 249 -57v49q0 84 -68 125t-179 41q-89 0 -176.5 -35.5t-149.5 -93.5h-6v305q170 103 401 103q110 0 200.5 -26t161 -79.5t109.5 -143.5t39 -210v-631z
M741 303v66q-70 39 -170 39q-147 0 -147 -89q0 -40 37 -67t104 -27q110 0 176 78zM727 1157h-283l228 379h325z" />
    <glyph glyph-name="acircumflex" unicode="&#xe2;" horiz-adv-x="1210" 
d="M1073 0h-323v74h-2q-124 -111 -293 -111q-152 0 -254.5 91.5t-102.5 252.5q0 157 103.5 251.5t290.5 94.5q140 0 249 -57v49q0 84 -68 125t-179 41q-89 0 -176.5 -35.5t-149.5 -93.5h-6v305q170 103 401 103q110 0 200.5 -26t161 -79.5t109.5 -143.5t39 -210v-631z
M741 303v66q-70 39 -170 39q-147 0 -147 -89q0 -40 37 -67t104 -27q110 0 176 78zM1018 1159h-283l-141 180h-2l-139 -180h-283l289 383h270z" />
    <glyph glyph-name="atilde" unicode="&#xe3;" horiz-adv-x="1210" 
d="M1073 0h-323v74h-2q-124 -111 -293 -111q-152 0 -254.5 91.5t-102.5 252.5q0 157 103.5 251.5t290.5 94.5q140 0 249 -57v49q0 84 -68 125t-179 41q-89 0 -176.5 -35.5t-149.5 -93.5h-6v305q170 103 401 103q110 0 200.5 -26t161 -79.5t109.5 -143.5t39 -210v-631z
M741 303v66q-70 39 -170 39q-147 0 -147 -89q0 -40 37 -67t104 -27q110 0 176 78zM780 1210q-55 0 -119.5 25t-120 49.5t-89.5 24.5q-31 0 -45.5 -23.5t-26.5 -75.5h-201q8 71 21.5 124t39 101.5t68 74.5t101.5 26q55 0 119.5 -24.5t120 -49t89.5 -24.5q31 0 45.5 23
t26.5 75h201q-8 -71 -21.5 -124t-39 -101.5t-68 -74.5t-101.5 -26z" />
    <glyph glyph-name="adieresis" unicode="&#xe4;" horiz-adv-x="1210" 
d="M1073 0h-323v74h-2q-124 -111 -293 -111q-152 0 -254.5 91.5t-102.5 252.5q0 157 103.5 251.5t290.5 94.5q140 0 249 -57v49q0 84 -68 125t-179 41q-89 0 -176.5 -35.5t-149.5 -93.5h-6v305q170 103 401 103q110 0 200.5 -26t161 -79.5t109.5 -143.5t39 -210v-631z
M741 303v66q-70 39 -170 39q-147 0 -147 -89q0 -40 37 -67t104 -27q110 0 176 78zM516 1262h-321v274h321v-274zM991 1262h-319v274h319v-274z" />
    <glyph glyph-name="aring" unicode="&#xe5;" horiz-adv-x="1210" 
d="M1073 0h-323v74h-2q-124 -111 -293 -111q-152 0 -254.5 91.5t-102.5 252.5q0 157 103.5 251.5t290.5 94.5q140 0 249 -57v49q0 84 -68 125t-179 41q-89 0 -176.5 -35.5t-149.5 -93.5h-6v305q170 103 401 103q110 0 200.5 -26t161 -79.5t109.5 -143.5t39 -210v-631z
M741 303v66q-70 39 -170 39q-147 0 -147 -89q0 -40 37 -67t104 -27q110 0 176 78zM893 1384q0 -99 -79.5 -151.5t-207.5 -52.5t-204 52t-76 152q0 98 79 150.5t207 52.5q127 0 204 -52.5t77 -150.5zM690 1384q0 30 -20.5 48t-59.5 18q-40 0 -62 -18t-22 -48q0 -33 21.5 -51
t62.5 -18q80 0 80 69z" />
    <glyph glyph-name="ae" unicode="&#xe6;" horiz-adv-x="1853" 
d="M1317 -37q-141 0 -257 43.5t-194 126.5h-4q-92 -92 -191.5 -131t-215.5 -39q-152 0 -254.5 91.5t-102.5 252.5q0 157 103.5 251.5t290.5 94.5q140 0 249 -57v51q0 82 -68.5 123t-178.5 41q-89 0 -176.5 -35.5t-149.5 -93.5h-6v305q170 103 401 103q224 0 355 -119h6
q122 119 336 119q143 0 259 -58.5t186.5 -175.5t70.5 -274q0 -82 -7 -125h-696q19 -105 99.5 -162t213.5 -57q93 0 181.5 34t150.5 90h8v-299q-158 -100 -409 -100zM567 225q55 0 106 23.5t87 60.5q-17 38 -17 60q-70 39 -163 39q-80 0 -118 -21t-38 -70q0 -40 37 -66
t106 -26zM1430 707q-11 60 -58 95.5t-119 35.5q-150 0 -180 -131h357z" />
    <glyph glyph-name="ccedilla" unicode="&#xe7;" horiz-adv-x="972" 
d="M801 -227q0 -74 -68 -121t-198 -47q-147 0 -238 35v147h6q73 -41 166 -41q68 0 68 33q0 23 -35 32.5t-123 14.5l41 158q-163 44 -262 185t-99 357q0 253 138.5 408.5t363.5 155.5q192 0 326 -95v-329h-6q-42 57 -109 93t-139 36q-102 0 -163.5 -74.5t-61.5 -196.5
q0 -120 64 -194t175 -74q68 0 133.5 37.5t106.5 95.5h6v-332q-106 -74 -242 -88l-10 -41q160 -34 160 -155z" />
    <glyph glyph-name="egrave" unicode="&#xe8;" horiz-adv-x="1189" 
d="M1061 63q-155 -100 -408 -100q-175 0 -309 66t-209.5 194.5t-75.5 302.5q0 256 142.5 410t392.5 154q144 0 260.5 -59t187 -176.5t70.5 -274.5q0 -68 -6 -123h-696q19 -104 100 -161.5t213 -57.5q93 0 181.5 35t150.5 92h6v-302zM764 707q-9 58 -55 94.5t-117 36.5
q-74 0 -121.5 -34t-60.5 -97h354zM735 1159h-282l-271 377h338z" />
    <glyph glyph-name="eacute" unicode="&#xe9;" horiz-adv-x="1189" 
d="M713 1157h-283l227 379h326zM1061 63q-155 -100 -408 -100q-175 0 -309 66t-209.5 194.5t-75.5 302.5q0 256 142.5 410t392.5 154q144 0 260.5 -59t187 -176.5t70.5 -274.5q0 -68 -6 -123h-696q19 -104 100 -161.5t213 -57.5q93 0 181.5 35t150.5 92h6v-302zM764 707
q-9 58 -55 94.5t-117 36.5q-74 0 -121.5 -34t-60.5 -97h354z" />
    <glyph glyph-name="ecircumflex" unicode="&#xea;" horiz-adv-x="1189" 
d="M1018 1159h-283l-141 180h-2l-139 -180h-283l289 383h270zM1061 63q-155 -100 -408 -100q-175 0 -309 66t-209.5 194.5t-75.5 302.5q0 256 142.5 410t392.5 154q144 0 260.5 -59t187 -176.5t70.5 -274.5q0 -68 -6 -123h-696q19 -104 100 -161.5t213 -57.5q93 0 181.5 35
t150.5 92h6v-302zM764 707q-9 58 -55 94.5t-117 36.5q-74 0 -121.5 -34t-60.5 -97h354z" />
    <glyph glyph-name="edieresis" unicode="&#xeb;" horiz-adv-x="1189" 
d="M516 1262h-321v274h321v-274zM991 1262h-319v274h319v-274zM1061 63q-155 -100 -408 -100q-175 0 -309 66t-209.5 194.5t-75.5 302.5q0 256 142.5 410t392.5 154q144 0 260.5 -59t187 -176.5t70.5 -274.5q0 -68 -6 -123h-696q19 -104 100 -161.5t213 -57.5q93 0 181.5 35
t150.5 92h6v-302zM764 707q-9 58 -55 94.5t-117 36.5q-74 0 -121.5 -34t-60.5 -97h354z" />
    <glyph glyph-name="igrave" unicode="&#xec;" horiz-adv-x="636" 
d="M485 0h-331v1053h331v-1053zM449 1159h-283l-270 377h337z" />
    <glyph glyph-name="iacute" unicode="&#xed;" horiz-adv-x="636" 
d="M485 0h-331v1053h331v-1053zM467 1157h-283l228 379h325z" />
    <glyph glyph-name="icircumflex" unicode="&#xee;" horiz-adv-x="636" 
d="M485 0h-331v1053h331v-1053zM743 1159h-282l-142 180h-2l-139 -180h-282l288 383h271z" />
    <glyph glyph-name="idieresis" unicode="&#xef;" horiz-adv-x="636" 
d="M485 0h-331v1053h331v-1053zM242 1262h-322v274h322v-274zM717 1262h-320v274h320v-274z" />
    <glyph glyph-name="eth" unicode="&#xf0;" horiz-adv-x="1265" 
d="M1065 1217l-166 -21l176 -283q65 -103 99 -195.5t34 -197.5q0 -252 -158.5 -404.5t-418.5 -152.5q-254 0 -413 152t-159 405q0 200 107 343t295 169q75 15 131 12v3l-66 102l-333 -41v272l176 23l-80 129v4h397l53 -88l326 41v-272zM858 518q0 123 -59.5 193.5
t-161.5 70.5q-105 0 -167 -69t-62 -195q0 -122 60.5 -196t162.5 -74q103 0 165 71.5t62 198.5z" />
    <glyph glyph-name="ntilde" unicode="&#xf1;" horiz-adv-x="1335" 
d="M1192 0h-332v608q0 92 -48 140.5t-128 48.5q-116 0 -199 -105v-692h-331v1053h329v-80h2q133 117 312 117q80 0 150 -23t125.5 -68t87.5 -118t32 -166v-715zM856 1210q-55 0 -119.5 25t-120.5 49.5t-90 24.5q-31 0 -45 -23t-26 -76h-201q7 56 16 99.5t26 88t41 73.5
t61 47t85 18q55 0 119.5 -24.5t120.5 -49t90 -24.5q31 0 45.5 23t26.5 75h200q-7 -56 -16 -99.5t-26 -88t-41 -73.5t-61 -47t-85 -18z" />
    <glyph glyph-name="ograve" unicode="&#xf2;" horiz-adv-x="1267" 
d="M858 526q0 128 -60 203.5t-161 75.5q-104 0 -166.5 -73.5t-62.5 -205.5q0 -129 60 -203.5t163 -74.5t165 73t62 205zM1208 526q0 -256 -158.5 -409.5t-418.5 -153.5q-255 0 -413.5 153t-158.5 410q0 256 158.5 410t419.5 154q253 0 412 -153.5t159 -410.5zM778 1159h-282
l-271 377h338z" />
    <glyph glyph-name="oacute" unicode="&#xf3;" horiz-adv-x="1267" 
d="M780 1157h-282l227 379h326zM858 526q0 128 -60 203.5t-161 75.5q-104 0 -166.5 -73.5t-62.5 -205.5q0 -129 60 -203.5t163 -74.5t165 73t62 205zM1208 526q0 -256 -158.5 -409.5t-418.5 -153.5q-255 0 -413.5 153t-158.5 410q0 256 158.5 410t419.5 154
q253 0 412 -153.5t159 -410.5z" />
    <glyph glyph-name="ocircumflex" unicode="&#xf4;" horiz-adv-x="1267" 
d="M1057 1159h-283l-141 180h-2l-139 -180h-283l289 383h270zM858 526q0 128 -60 203.5t-161 75.5q-104 0 -166.5 -73.5t-62.5 -205.5q0 -129 60 -203.5t163 -74.5t165 73t62 205zM1208 526q0 -256 -158.5 -409.5t-418.5 -153.5q-255 0 -413.5 153t-158.5 410
q0 256 158.5 410t419.5 154q253 0 412 -153.5t159 -410.5z" />
    <glyph glyph-name="otilde" unicode="&#xf5;" horiz-adv-x="1267" 
d="M858 526q0 128 -60 203.5t-161 75.5q-104 0 -166.5 -73.5t-62.5 -205.5q0 -129 60 -203.5t163 -74.5t165 73t62 205zM1208 526q0 -256 -158.5 -409.5t-418.5 -153.5q-255 0 -413.5 153t-158.5 410q0 256 158.5 410t419.5 154q253 0 412 -153.5t159 -410.5zM819 1210
q-55 0 -119.5 25t-120.5 49.5t-90 24.5q-31 0 -45 -23t-26 -76h-201q7 56 16 99.5t26 88t41 73.5t61 47t85 18q55 0 119.5 -24.5t120.5 -49t90 -24.5q31 0 45.5 23t26.5 75h201q-8 -71 -21.5 -124t-39 -101.5t-68 -74.5t-101.5 -26z" />
    <glyph glyph-name="odieresis" unicode="&#xf6;" horiz-adv-x="1267" 
d="M555 1262h-322v274h322v-274zM1030 1262h-319v274h319v-274zM858 526q0 128 -60 203.5t-161 75.5q-104 0 -166.5 -73.5t-62.5 -205.5q0 -129 60 -203.5t163 -74.5t165 73t62 205zM1208 526q0 -256 -158.5 -409.5t-418.5 -153.5q-255 0 -413.5 153t-158.5 410
q0 256 158.5 410t419.5 154q253 0 412 -153.5t159 -410.5z" />
    <glyph glyph-name="divide" unicode="&#xf7;" 
d="M1028 463h-950v246h950v-246zM702 57h-303v285h303v-285zM702 831h-303v285h303v-285z" />
    <glyph glyph-name="oslash" unicode="&#xf8;" horiz-adv-x="1265" 
d="M385 -37h-326l129 182q-129 151 -129 381q0 256 158.5 410t419.5 154q120 0 221 -37l25 37h325l-129 -185q129 -151 129 -379q0 -256 -158.5 -409.5t-418.5 -153.5q-123 0 -221 37zM408 526q0 -64 14 -110l287 377q-34 12 -72 12q-104 0 -166.5 -73.5t-62.5 -205.5z
M858 526q0 54 -12 101l-283 -371q27 -8 68 -8q103 0 165 73t62 205z" />
    <glyph glyph-name="ugrave" unicode="&#xf9;" horiz-adv-x="1288" 
d="M1151 1053v-609q0 -225 -134 -353t-376 -128q-236 0 -370 128t-134 353v609h332v-611q0 -97 46 -145.5t128 -48.5q81 0 128.5 49t47.5 145v611h332zM788 1159h-282l-270 377h337z" />
    <glyph glyph-name="uacute" unicode="&#xfa;" horiz-adv-x="1288" 
d="M778 1157h-282l227 379h326zM1151 1053v-609q0 -225 -134 -353t-376 -128q-236 0 -370 128t-134 353v609h332v-611q0 -97 46 -145.5t128 -48.5q81 0 128.5 49t47.5 145v611h332z" />
    <glyph glyph-name="ucircumflex" unicode="&#xfb;" horiz-adv-x="1288" 
d="M1067 1159h-283l-141 180h-2l-139 -180h-283l289 383h270zM1151 1053v-609q0 -225 -134 -353t-376 -128q-236 0 -370 128t-134 353v609h332v-611q0 -97 46 -145.5t128 -48.5q81 0 128.5 49t47.5 145v611h332z" />
    <glyph glyph-name="udieresis" unicode="&#xfc;" horiz-adv-x="1288" 
d="M565 1262h-321v274h321v-274zM1040 1262h-319v274h319v-274zM1151 1053v-609q0 -225 -134 -353t-376 -128q-236 0 -370 128t-134 353v609h332v-611q0 -97 46 -145.5t128 -48.5q81 0 128.5 49t47.5 145v611h332z" />
    <glyph glyph-name="yacute" unicode="&#xfd;" horiz-adv-x="1218" 
d="M657 -395h-370l164 397l-437 1051h379l225 -631h3l204 631h371zM762 1157h-283l228 379h325z" />
    <glyph glyph-name="thorn" unicode="&#xfe;" horiz-adv-x="1314" 
d="M901 526q0 127 -61 199t-158 72q-115 0 -197 -105v-344q80 -92 191 -92q100 0 162.5 70.5t62.5 199.5zM1247 526q0 -261 -133.5 -412t-347.5 -151q-168 0 -279 80h-2v-438h-331v1931h331v-561h2q134 115 306 115q203 0 328.5 -154.5t125.5 -409.5z" />
    <glyph glyph-name="ydieresis" unicode="&#xff;" horiz-adv-x="1218" 
d="M657 -395h-370l164 397l-437 1051h379l225 -631h3l204 631h371zM532 1262h-321v274h321v-274zM1008 1262h-320v274h320v-274z" />
    <glyph glyph-name="Amacron" unicode="&#x100;" horiz-adv-x="1447" 
d="M1427 0h-385l-104 305h-444l-103 -305h-371l545 1434h316zM842 612l-125 365h-2l-125 -365h252zM1087 1458h-729v221h729v-221z" />
    <glyph glyph-name="amacron" unicode="&#x101;" horiz-adv-x="1210" 
d="M1073 0h-323v74h-2q-124 -111 -293 -111q-152 0 -254.5 91.5t-102.5 252.5q0 157 103.5 251.5t290.5 94.5q140 0 249 -57v49q0 84 -68 125t-179 41q-89 0 -176.5 -35.5t-149.5 -93.5h-6v305q170 103 401 103q110 0 200.5 -26t161 -79.5t109.5 -143.5t39 -210v-631z
M741 303v66q-70 39 -170 39q-147 0 -147 -89q0 -40 37 -67t104 -27q110 0 176 78zM979 1274h-770v248h770v-248z" />
    <glyph glyph-name="Abreve" unicode="&#x102;" horiz-adv-x="1447" 
d="M1427 0h-385l-104 305h-444l-103 -305h-371l545 1434h15q-89 28 -144 90.5t-67 154.5h237q25 -65 117 -65q93 0 115 65h239q-12 -92 -67 -154.5t-144 -90.5h15zM842 612l-125 365h-2l-125 -365h252z" />
    <glyph glyph-name="abreve" unicode="&#x103;" horiz-adv-x="1210" 
d="M1073 0h-323v74h-2q-124 -111 -293 -111q-152 0 -254.5 91.5t-102.5 252.5q0 157 103.5 251.5t290.5 94.5q140 0 249 -57v49q0 84 -68 125t-179 41q-89 0 -176.5 -35.5t-149.5 -93.5h-6v305q170 103 401 103q110 0 200.5 -26t161 -79.5t109.5 -143.5t39 -210v-631z
M741 303v66q-70 39 -170 39q-147 0 -147 -89q0 -40 37 -67t104 -27q110 0 176 78zM608 1190q-179 0 -274.5 93.5t-108.5 252.5h242q11 -60 47.5 -95.5t93.5 -35.5t94 35.5t46 95.5h243q-13 -159 -108.5 -252.5t-274.5 -93.5z" />
    <glyph glyph-name="Aogonek" unicode="&#x104;" horiz-adv-x="1447" 
d="M1372 -354q-96 -41 -225 -41q-122 0 -182 47t-60 119q0 108 137 229l-104 305h-444l-103 -305h-371l545 1434h316l546 -1434h-161q-56 -53 -79.5 -87.5t-23.5 -62.5q0 -55 74 -55q62 0 129 41h6v-190zM842 612l-125 365h-2l-125 -365h252z" />
    <glyph glyph-name="aogonek" unicode="&#x105;" horiz-adv-x="1210" 
d="M1081 -354q-96 -41 -225 -41q-122 0 -182 47t-60 119q0 107 138 229h-2v74h-2q-124 -111 -293 -111q-152 0 -254.5 91.5t-102.5 252.5q0 157 103.5 251.5t290.5 94.5q140 0 249 -57v49q0 84 -68 125t-179 41q-89 0 -176.5 -35.5t-149.5 -93.5h-6v305q170 103 401 103
q110 0 200.5 -26t161 -79.5t109.5 -143.5t39 -210v-631h-98q-56 -53 -79.5 -87.5t-23.5 -62.5q0 -55 74 -55q62 0 129 41h6v-190zM741 303v66q-70 39 -170 39q-147 0 -147 -89q0 -40 37 -67t104 -27q110 0 176 78z" />
    <glyph glyph-name="Cacute" unicode="&#x106;" horiz-adv-x="1249" 
d="M1153 463v-377q-181 -123 -428 -123q-139 0 -257 49.5t-205 141.5t-136 232t-49 312q0 289 136 483t368 240l133 217h338l-185 -219q157 -27 277 -108v-377h-8q-64 77 -157 121.5t-196 44.5q-158 0 -250 -108.5t-92 -293.5q0 -183 93 -292t256 -109q101 0 196 44.5
t158 121.5h8z" />
    <glyph glyph-name="cacute" unicode="&#x107;" horiz-adv-x="972" 
d="M662 1157h-283l227 379h326zM893 389v-332q-137 -94 -328 -94q-106 0 -198 38t-160.5 108t-108 177.5t-39.5 239.5q0 253 138.5 408.5t363.5 155.5q192 0 326 -95v-329h-6q-42 57 -109 93t-139 36q-102 0 -163.5 -74.5t-61.5 -196.5q0 -120 64 -194t175 -74
q68 0 133.5 37.5t106.5 95.5h6z" />
    <glyph glyph-name="Ccircumflex" unicode="&#x108;" horiz-adv-x="1249" 
d="M1108 1397h-139q91 -28 176 -86v-377h-8q-64 77 -157 121.5t-196 44.5q-158 0 -250 -108.5t-92 -293.5q0 -183 93 -292t256 -109q101 0 196 44.5t158 121.5h8v-377q-181 -123 -428 -123q-139 0 -257 49.5t-205 141.5t-136 232t-49 312q0 261 110.5 445.5t305.5 253.5
h-160l237 262h299zM717 1434q26 0 76 -4l-72 71h-2l-72 -71q46 4 70 4z" />
    <glyph glyph-name="ccircumflex" unicode="&#x109;" horiz-adv-x="972" 
d="M971 1159h-283l-141 180h-2l-139 -180h-283l289 383h270zM893 389v-332q-137 -94 -328 -94q-106 0 -198 38t-160.5 108t-108 177.5t-39.5 239.5q0 253 138.5 408.5t363.5 155.5q192 0 326 -95v-329h-6q-42 57 -109 93t-139 36q-102 0 -163.5 -74.5t-61.5 -196.5
q0 -120 64 -194t175 -74q68 0 133.5 37.5t106.5 95.5h6z" />
    <glyph glyph-name="Cdotaccent" unicode="&#x10a;" horiz-adv-x="1249" 
d="M895 1444h-348v235h348v-235zM1153 463v-377q-181 -123 -428 -123q-139 0 -257 49.5t-205 141.5t-136 232t-49 312q0 332 174.5 534t464.5 202q253 0 428 -123v-377h-8q-64 77 -157 121.5t-196 44.5q-158 0 -250 -108.5t-92 -293.5q0 -183 93 -292t256 -109
q101 0 196 44.5t158 121.5h8z" />
    <glyph glyph-name="cdotaccent" unicode="&#x10b;" horiz-adv-x="972" 
d="M893 389v-332q-137 -94 -328 -94q-106 0 -198 38t-160.5 108t-108 177.5t-39.5 239.5q0 253 138.5 408.5t363.5 155.5q192 0 326 -95v-329h-6q-42 57 -109 93t-139 36q-102 0 -163.5 -74.5t-61.5 -196.5q0 -120 64 -194t175 -74q68 0 133.5 37.5t106.5 95.5h6zM702 1262
h-348v274h348v-274z" />
    <glyph glyph-name="Ccaron" unicode="&#x10c;" horiz-adv-x="1249" 
d="M1153 463v-377q-181 -123 -428 -123q-139 0 -257 49.5t-205 141.5t-136 232t-49 312q0 281 127 471t348 244l-215 240h280l107 -105h2l104 105h281l-215 -238q143 -30 248 -104v-377h-8q-64 77 -157 121.5t-196 44.5q-158 0 -250 -108.5t-92 -293.5q0 -183 93 -292
t256 -109q101 0 196 44.5t158 121.5h8z" />
    <glyph glyph-name="ccaron" unicode="&#x10d;" horiz-adv-x="972" 
d="M649 1151h-270l-289 385h283l141 -180h2l139 180h283zM893 389v-332q-137 -94 -328 -94q-106 0 -198 38t-160.5 108t-108 177.5t-39.5 239.5q0 253 138.5 408.5t363.5 155.5q192 0 326 -95v-329h-6q-42 57 -109 93t-139 36q-102 0 -163.5 -74.5t-61.5 -196.5
q0 -120 64 -194t175 -74q68 0 133.5 37.5t106.5 95.5h6z" />
    <glyph glyph-name="Dcaron" unicode="&#x10e;" horiz-adv-x="1495" 
d="M1417 698q0 -138 -37 -253t-102.5 -196.5t-155.5 -138t-195 -83.5t-222 -27h-529v1397h313l-231 256h281l106 -105h2l105 105h280l-237 -262q131 -13 242.5 -62.5t197 -133.5t134 -211.5t48.5 -285.5zM1063 698q0 181 -103.5 278t-267.5 97h-166v-749h166q164 0 267.5 96
t103.5 278z" />
    <glyph glyph-name="dcaron" unicode="&#x10f;" horiz-adv-x="1636" 
d="M1483 1128h-250l110 408h293zM1163 0h-329v78h-3q-137 -115 -309 -115q-204 0 -329 154t-125 409q0 260 134 412t347 152q166 0 280 -80h2v526h332v-1536zM831 360v342q-83 95 -192 95q-100 0 -161.5 -71t-61.5 -200q0 -128 60 -199t157 -71q116 0 198 104z" />
    <glyph glyph-name="Dcroat" unicode="&#x110;" horiz-adv-x="1495" 
d="M1417 698q0 -138 -37 -253t-102.5 -196.5t-155.5 -138t-195 -83.5t-222 -27h-529v571h-176v277h176v549h529q146 0 273 -44t226 -128t156 -220t57 -307zM1063 698q0 181 -103.5 278t-267.5 97h-166v-225h283v-277h-283v-247h166q164 0 267.5 96t103.5 278z" />
    <glyph glyph-name="dcroat" unicode="&#x111;" horiz-adv-x="1314" 
d="M1163 0h-329v78h-3q-137 -115 -309 -115q-204 0 -329 154t-125 409q0 260 134 412t347 152q166 0 280 -80h2v164h-358v260h358v102h332v-102h152v-260h-152v-1174zM831 360v342q-83 95 -192 95q-100 0 -161.5 -71t-61.5 -200q0 -128 60 -199t157 -71q116 0 198 104z" />
    <glyph glyph-name="Emacron" unicode="&#x112;" horiz-adv-x="1138" 
d="M940 1458h-729v221h729v-221zM1030 0h-854v1397h801v-314h-451v-217h430v-313h-430v-240h504v-313z" />
    <glyph glyph-name="emacron" unicode="&#x113;" horiz-adv-x="1189" 
d="M1061 63q-155 -100 -408 -100q-175 0 -309 66t-209.5 194.5t-75.5 302.5q0 256 142.5 410t392.5 154q144 0 260.5 -59t187 -176.5t70.5 -274.5q0 -68 -6 -123h-696q19 -104 100 -161.5t213 -57.5q93 0 181.5 35t150.5 92h6v-302zM764 707q-9 58 -55 94.5t-117 36.5
q-74 0 -121.5 -34t-60.5 -97h354zM979 1274h-770v248h770v-248z" />
    <glyph glyph-name="Ebreve" unicode="&#x114;" horiz-adv-x="1138" 
d="M569 1413q-148 0 -242.5 70t-111.5 196h238q25 -65 116 -65q93 0 115 65h240q-17 -126 -112 -196t-243 -70zM1030 0h-854v1397h801v-314h-451v-217h430v-313h-430v-240h504v-313z" />
    <glyph glyph-name="ebreve" unicode="&#x115;" horiz-adv-x="1189" 
d="M1061 63q-155 -100 -408 -100q-175 0 -309 66t-209.5 194.5t-75.5 302.5q0 256 142.5 410t392.5 154q144 0 260.5 -59t187 -176.5t70.5 -274.5q0 -68 -6 -123h-696q19 -104 100 -161.5t213 -57.5q93 0 181.5 35t150.5 92h6v-302zM764 707q-9 58 -55 94.5t-117 36.5
q-74 0 -121.5 -34t-60.5 -97h354zM594 1190q-179 0 -274.5 93.5t-108.5 252.5h242q11 -60 47.5 -95.5t93.5 -35.5t93.5 35.5t45.5 95.5h244q-13 -159 -108.5 -252.5t-274.5 -93.5z" />
    <glyph glyph-name="Edotaccent" unicode="&#x116;" horiz-adv-x="1138" 
d="M743 1444h-348v235h348v-235zM1030 0h-854v1397h801v-314h-451v-217h430v-313h-430v-240h504v-313z" />
    <glyph glyph-name="edotaccent" unicode="&#x117;" horiz-adv-x="1189" 
d="M1061 63q-155 -100 -408 -100q-175 0 -309 66t-209.5 194.5t-75.5 302.5q0 256 142.5 410t392.5 154q144 0 260.5 -59t187 -176.5t70.5 -274.5q0 -68 -6 -123h-696q19 -104 100 -161.5t213 -57.5q93 0 181.5 35t150.5 92h6v-302zM764 707q-9 58 -55 94.5t-117 36.5
q-74 0 -121.5 -34t-60.5 -97h354zM768 1262h-348v274h348v-274z" />
    <glyph glyph-name="Eogonek" unicode="&#x118;" horiz-adv-x="1138" 
d="M1030 0h-106q-56 -53 -79.5 -87.5t-23.5 -62.5q0 -55 74 -55q62 0 129 41h6v-190q-96 -41 -225 -41q-122 0 -182 47t-60 119q0 108 137 229h-524v1397h801v-314h-451v-217h430v-313h-430v-240h504v-313z" />
    <glyph glyph-name="eogonek" unicode="&#x119;" horiz-adv-x="1189" 
d="M1061 -354q-96 -41 -225 -41q-120 0 -181 47t-61 119q0 91 102 196q-20 -4 -61 -4q-260 6 -418 155.5t-158 407.5q0 256 142.5 410t392.5 154q144 0 260.5 -59t187 -176.5t70.5 -274.5q0 -68 -6 -123h-696q19 -104 100 -161.5t213 -57.5q93 0 181.5 35t150.5 92h6v-302
q-96 -53 -151.5 -110.5t-55.5 -99.5q0 -58 74 -58q60 0 127 41h6v-190zM764 707q-9 58 -55.5 94.5t-118.5 36.5t-119.5 -33t-60.5 -98h354z" />
    <glyph glyph-name="Ecaron" unicode="&#x11a;" horiz-adv-x="1138" 
d="M1030 0h-854v1397h238l-232 256h281l106 -105h2l105 105h280l-233 -256h254v-314h-451v-217h430v-313h-430v-240h504v-313z" />
    <glyph glyph-name="ecaron" unicode="&#x11b;" horiz-adv-x="1189" 
d="M729 1151h-270l-289 385h283l141 -180h2l139 180h283zM1061 63q-155 -100 -408 -100q-175 0 -309 66t-209.5 194.5t-75.5 302.5q0 256 142.5 410t392.5 154q144 0 260.5 -59t187 -176.5t70.5 -274.5q0 -68 -6 -123h-696q19 -104 100 -161.5t213 -57.5q93 0 181.5 35
t150.5 92h6v-302zM764 707q-9 58 -55 94.5t-117 36.5q-74 0 -121.5 -34t-60.5 -97h354z" />
    <glyph glyph-name="Gcircumflex" unicode="&#x11c;" horiz-adv-x="1464" 
d="M1159 1397h-100q114 -33 217 -90v-359h-8q-84 80 -195 125t-237 45q-191 0 -292.5 -115.5t-101.5 -316.5q0 -207 89.5 -314.5t224.5 -107.5q112 0 184 56.5t82 171.5h-338v10l100 297h598q4 -74 4 -148q0 -172 -46 -304t-130 -215.5t-198 -126t-254 -42.5
q-148 0 -273 50.5t-215 143.5t-141 232t-51 309q0 260 121 445t338 254h-152l238 262h299zM786 1434q38 0 56 -2l-70 69h-2l-72 -71q58 4 88 4z" />
    <glyph glyph-name="gcircumflex" unicode="&#x11d;" horiz-adv-x="1296" 
d="M1083 1159h-282l-142 180h-2l-139 -180h-282l288 383h271zM821 377v344q-33 34 -79 55t-93 21q-102 0 -164.5 -67t-62.5 -185q0 -116 62 -184t159 -68q110 0 178 84zM631 -408q-117 0 -230.5 25.5t-195.5 77.5v309h8q141 -135 367 -135q116 0 178.5 50t62.5 134v60h-2
q-128 -113 -309 -113q-91 0 -170.5 35t-140.5 101.5t-96 172t-35 236.5q0 260 132.5 402.5t344.5 142.5q171 0 307 -105h4l291 92h6v-999q0 -228 -144 -357t-378 -129z" />
    <glyph glyph-name="Gbreve" unicode="&#x11e;" horiz-adv-x="1464" 
d="M758 -37q-148 0 -273 50.5t-215 143.5t-141 232t-51 309q0 296 152.5 490t424.5 235q-104 22 -169 88t-78 168h237q25 -65 117 -65q93 0 115 65h239q-13 -97 -72.5 -161t-156.5 -91q208 -19 389 -120v-359h-8q-84 80 -195 125t-237 45q-191 0 -292.5 -115.5
t-101.5 -316.5q0 -207 89.5 -314.5t224.5 -107.5q112 0 184 56.5t82 171.5h-338v10l100 297h598q4 -74 4 -148q0 -172 -46 -304t-130 -215.5t-198 -126t-254 -42.5z" />
    <glyph glyph-name="gbreve" unicode="&#x11f;" horiz-adv-x="1296" 
d="M821 377v344q-33 34 -79 55t-93 21q-102 0 -164.5 -67t-62.5 -185q0 -116 62 -184t159 -68q110 0 178 84zM631 -408q-117 0 -230.5 25.5t-195.5 77.5v309h8q141 -135 367 -135q116 0 178.5 50t62.5 134v60h-2q-128 -113 -309 -113q-91 0 -170.5 35t-140.5 101.5t-96 172
t-35 236.5q0 260 132.5 402.5t344.5 142.5q171 0 307 -105h4l291 92h6v-999q0 -228 -144 -357t-378 -129zM659 1190q-179 0 -274.5 93.5t-108.5 252.5h242q11 -60 47.5 -95.5t93.5 -35.5t94 35.5t46 95.5h243q-13 -159 -108.5 -252.5t-274.5 -93.5z" />
    <glyph glyph-name="Gdotaccent" unicode="&#x120;" horiz-adv-x="1464" 
d="M954 1444h-348v235h348v-235zM758 -37q-148 0 -273 50.5t-215 143.5t-141 232t-51 309q0 331 190.5 533.5t517.5 202.5q269 0 490 -127v-359h-8q-84 80 -195 125t-237 45q-191 0 -292.5 -115.5t-101.5 -316.5q0 -207 89.5 -314.5t224.5 -107.5q112 0 184 56.5t82 171.5
h-338v10l100 297h598q4 -74 4 -148q0 -172 -46 -304t-130 -215.5t-198 -126t-254 -42.5z" />
    <glyph glyph-name="gdotaccent" unicode="&#x121;" horiz-adv-x="1296" 
d="M821 377v344q-33 34 -79 55t-93 21q-102 0 -164.5 -67t-62.5 -185q0 -116 62 -184t159 -68q110 0 178 84zM631 -408q-117 0 -230.5 25.5t-195.5 77.5v309h8q141 -135 367 -135q116 0 178.5 50t62.5 134v60h-2q-128 -113 -309 -113q-91 0 -170.5 35t-140.5 101.5t-96 172
t-35 236.5q0 260 132.5 402.5t344.5 142.5q171 0 307 -105h4l291 92h6v-999q0 -228 -144 -357t-378 -129zM834 1262h-349v274h349v-274z" />
    <glyph glyph-name="Gcommaaccent" unicode="&#x122;" horiz-adv-x="1464" 
d="M713 -395h-281l191 319h325zM758 -37q-148 0 -273 50.5t-215 143.5t-141 232t-51 309q0 331 190.5 533.5t517.5 202.5q269 0 490 -127v-359h-8q-84 80 -195 125t-237 45q-191 0 -292.5 -115.5t-101.5 -316.5q0 -207 89.5 -314.5t224.5 -107.5q112 0 184 56.5t82 171.5
h-338v10l100 297h598q4 -74 4 -148q0 -172 -46 -304t-130 -215.5t-198 -126t-254 -42.5z" />
    <glyph glyph-name="gcommaaccent" unicode="&#x123;" horiz-adv-x="1296" 
d="M815 1217h-326l234 319h283zM821 377v344q-33 34 -79 55t-93 21q-102 0 -164.5 -67t-62.5 -185q0 -116 62 -184t159 -68q110 0 178 84zM631 -408q-117 0 -230.5 25.5t-195.5 77.5v309h8q141 -135 367 -135q116 0 178.5 50t62.5 134v60h-2q-128 -113 -309 -113
q-91 0 -170.5 35t-140.5 101.5t-96 172t-35 236.5q0 260 132.5 402.5t344.5 142.5q171 0 307 -105h4l291 92h6v-999q0 -228 -144 -357t-378 -129z" />
    <glyph glyph-name="Hcircumflex" unicode="&#x124;" horiz-adv-x="1572" 
d="M1208 1397h219v-1397h-350v555h-520v-555h-350v1397h227l238 262h299zM1077 887v510h-149l-107 104h-2l-104 -104h-158v-510h520z" />
    <glyph glyph-name="hcircumflex" unicode="&#x125;" horiz-adv-x="1310" 
d="M750 1579h-283l-141 180h-2l-140 -180h-282l288 383h271zM1167 0h-331v608q0 92 -45.5 140.5t-120.5 48.5q-106 0 -185 -105v-692h-331v1536h331v-561h2q128 115 299 115q77 0 144.5 -23t121 -68t84.5 -118t31 -166v-715z" />
    <glyph glyph-name="Hbar" unicode="&#x126;" horiz-adv-x="1572" 
d="M1427 0h-350v557h-520v-557h-350v1008h-207v278h207v111h350v-111h520v111h350v-111h148v-278h-148v-1008zM557 889h520v119h-520v-119z" />
    <glyph glyph-name="hbar" unicode="&#x127;" horiz-adv-x="1310" 
d="M1167 0h-331v608q0 92 -45.5 140.5t-120.5 48.5q-106 0 -185 -105v-692h-331v1174h-154v260h154v102h331v-102h416v-260h-416v-199h2q128 115 299 115q77 0 144.5 -23t121 -68t84.5 -118t31 -166v-715z" />
    <glyph glyph-name="Itilde" unicode="&#x128;" horiz-adv-x="710" 
d="M526 0h-350v1397h350v-1397zM518 1415q-60 0 -154.5 38t-123.5 38q-31 0 -44 -18.5t-22 -57.5h-201q6 45 14.5 80t25 71t39.5 59.5t59.5 38.5t83.5 15q59 0 153.5 -38.5t124.5 -38.5q31 0 44 18.5t22 58.5h200q-8 -59 -20 -101.5t-36 -82t-65.5 -60t-99.5 -20.5z" />
    <glyph glyph-name="itilde" unicode="&#x129;" horiz-adv-x="636" 
d="M485 0h-331v1053h331v-1053zM506 1210q-55 0 -119.5 25t-120.5 49.5t-90 24.5q-31 0 -45.5 -23.5t-26.5 -75.5h-200q7 56 16 99.5t26 88t41 73.5t61 47t85 18q55 0 119.5 -24.5t120.5 -49t90 -24.5q31 0 45.5 23t26.5 75h200q-7 -56 -16 -99.5t-26 -88t-41 -73.5t-61 -47
t-85 -18z" />
    <glyph glyph-name="Imacron" unicode="&#x12a;" horiz-adv-x="710" 
d="M526 0h-350v1397h350v-1397zM721 1458h-729v221h729v-221z" />
    <glyph glyph-name="imacron" unicode="&#x12b;" horiz-adv-x="636" 
d="M485 0h-331v1053h331v-1053zM705 1274h-771v248h771v-248z" />
    <glyph glyph-name="Ibreve" unicode="&#x12c;" horiz-adv-x="710" 
d="M526 0h-350v1397h350v-1397zM356 1413q-148 0 -242.5 70t-111.5 196h238q25 -65 116 -65q93 0 115 65h240q-17 -126 -112 -196t-243 -70z" />
    <glyph glyph-name="ibreve" unicode="&#x12d;" horiz-adv-x="636" 
d="M485 0h-331v1053h331v-1053zM319 1190q-179 0 -274 93.5t-108 252.5h241q11 -60 47.5 -95.5t93.5 -35.5t94 35.5t46 95.5h243q-13 -159 -108.5 -252.5t-274.5 -93.5z" />
    <glyph glyph-name="Iogonek" unicode="&#x12e;" horiz-adv-x="710" 
d="M555 -354q-96 -41 -225 -41q-122 0 -182 47t-60 119q0 108 137 229h-49v1397h350v-1397h-77q-56 -53 -79.5 -87.5t-23.5 -62.5q0 -55 74 -55q62 0 129 41h6v-190z" />
    <glyph glyph-name="iogonek" unicode="&#x12f;" horiz-adv-x="636" 
d="M514 -354q-96 -41 -225 -41q-122 0 -182 47t-60 119q0 108 137 229h-30v1053h331v-1053h-77q-56 -53 -79.5 -87.5t-23.5 -62.5q0 -55 74 -55q62 0 129 41h6v-190zM494 1262h-349v274h349v-274z" />
    <glyph glyph-name="Idotaccent" unicode="&#x130;" horiz-adv-x="710" 
d="M526 0h-350v1397h350v-1397zM526 1444h-348v235h348v-235z" />
    <glyph glyph-name="dotlessi" unicode="&#x131;" horiz-adv-x="636" 
d="M485 0h-331v1053h331v-1053z" />
    <glyph glyph-name="IJ" unicode="&#x132;" horiz-adv-x="1646" 
d="M526 0h-350v1397h350v-1397zM1063 -37q-136 0 -244 60v346h8q33 -38 77 -59t87 -21q79 0 115.5 43t36.5 133v598h-342v12l108 322h582v-1004q0 -94 -23 -169.5t-71.5 -135.5t-133.5 -92.5t-200 -32.5z" />
    <glyph glyph-name="ij" unicode="&#x133;" horiz-adv-x="1273" 
d="M754 -395q-142 0 -238 51v276h6q62 -59 146 -59q123 0 123 139v1041h331v-1057q0 -197 -97.5 -294t-270.5 -97zM485 0h-331v1053h331v-1053zM1130 1262h-348v274h348v-274zM494 1262h-349v274h349v-274z" />
    <glyph glyph-name="Jcircumflex" unicode="&#x134;" horiz-adv-x="935" 
d="M848 1397h-68v-1004q0 -94 -23 -169.5t-71.5 -135.5t-133.5 -92.5t-200 -32.5q-135 0 -243 60v346h8q33 -38 77 -59t87 -21q79 0 115 43t36 133v598h-342v12l109 322h-125l237 262h299zM459 1501l-105 -104h213l-106 104h-2z" />
    <glyph glyph-name="jcircumflex" unicode="&#x135;" horiz-adv-x="636" 
d="M115 -395q-138 0 -236 55v254h6q60 -57 144 -57q59 0 92 38.5t33 114.5v1043h331v-1061q0 -193 -98 -290t-272 -97zM743 1159h-282l-142 180h-2l-139 -180h-282l288 383h271z" />
    <glyph glyph-name="Kcommaaccent" unicode="&#x136;" horiz-adv-x="1386" 
d="M680 -395h-281l191 319h325zM526 0h-350v1397h350v-1397zM1346 0h-406l-393 702v13l373 682h399l-389 -682v-4z" />
    <glyph glyph-name="kcommaaccent" unicode="&#x137;" horiz-adv-x="1245" 
d="M614 -395h-280l190 319h326zM485 0h-331v1536h331v-1536zM1219 0h-390l-327 528v9l311 516h381l-326 -516v-5z" />
    <glyph glyph-name="Lacute" unicode="&#x139;" horiz-adv-x="1064" 
d="M989 0h-813v1397h35l147 241h338l-204 -241h34v-1065h463v-332z" />
    <glyph glyph-name="lacute" unicode="&#x13a;" horiz-adv-x="636" 
d="M457 1577h-283l227 379h326zM485 0h-331v1536h331v-1536z" />
    <glyph glyph-name="Lcommaaccent" unicode="&#x13b;" horiz-adv-x="1064" 
d="M555 -395h-281l191 319h326zM989 0h-813v1397h350v-1065h463v-332z" />
    <glyph glyph-name="lcommaaccent" unicode="&#x13c;" horiz-adv-x="636" 
d="M252 -395h-281l191 319h325zM485 0h-331v1536h331v-1536z" />
    <glyph glyph-name="Lcaron" unicode="&#x13d;" horiz-adv-x="1064" 
d="M848 1128h-250l111 408h292zM989 0h-813v1397h350v-1065h463v-332z" />
    <glyph glyph-name="lcaron" unicode="&#x13e;" horiz-adv-x="917" 
d="M805 1128h-250l111 408h292zM485 0h-331v1536h331v-1536z" />
    <glyph glyph-name="Ldot" unicode="&#x13f;" horiz-adv-x="1148" 
d="M989 0h-813v1397h350v-1061h463v-336zM1090 633h-332v332h332v-332z" />
    <glyph glyph-name="ldot" unicode="&#x140;" horiz-adv-x="974" 
d="M485 0h-331v1536h331v-1536zM969 387h-332v332h332v-332z" />
    <glyph glyph-name="Lslash" unicode="&#x141;" horiz-adv-x="1064" 
d="M989 0h-813v492l-176 -84v305l176 86v598h350v-430l310 147v-307l-310 -150v-325h463v-332z" />
    <glyph glyph-name="lslash" unicode="&#x142;" horiz-adv-x="636" 
d="M485 0h-331v618l-154 -73v291l154 73v627h331v-469l152 74v-291l-152 -74v-776z" />
    <glyph glyph-name="Nacute" unicode="&#x143;" horiz-adv-x="1587" 
d="M877 1397h-281l147 241h338zM1411 -12h-289l-594 753h-2v-741h-350v1280l-72 102v15h357l598 -774h2v774h350v-1409z" />
    <glyph glyph-name="nacute" unicode="&#x144;" horiz-adv-x="1335" 
d="M809 1157h-283l228 379h325zM1192 0h-332v608q0 92 -48 140.5t-128 48.5q-116 0 -199 -105v-692h-331v1053h329v-80h2q133 117 312 117q80 0 150 -23t125.5 -68t87.5 -118t32 -166v-715z" />
    <glyph glyph-name="Ncommaaccent" unicode="&#x145;" horiz-adv-x="1587" 
d="M782 -395h-280l190 319h326zM1411 -12h-289l-594 753h-2v-741h-350v1280l-72 102v15h357l598 -774h2v774h350v-1409z" />
    <glyph glyph-name="ncommaaccent" unicode="&#x146;" horiz-adv-x="1335" 
d="M627 -395h-281l191 319h325zM1192 0h-332v608q0 92 -48 140.5t-128 48.5q-116 0 -199 -105v-692h-331v1053h329v-80h2q133 117 312 117q80 0 150 -23t125.5 -68t87.5 -118t32 -166v-715z" />
    <glyph glyph-name="Ncaron" unicode="&#x147;" horiz-adv-x="1587" 
d="M942 1391h-299l-237 262h280l107 -105h2l104 105h281zM1411 -12h-289l-594 753h-2v-741h-350v1280l-72 102v15h357l598 -774h2v774h350v-1409z" />
    <glyph glyph-name="ncaron" unicode="&#x148;" horiz-adv-x="1335" 
d="M803 1151h-271l-288 385h282l142 -180h2l139 180h283zM1192 0h-332v608q0 92 -48 140.5t-128 48.5q-116 0 -199 -105v-692h-331v1053h329v-80h2q133 117 312 117q80 0 150 -23t125.5 -68t87.5 -118t32 -166v-715z" />
    <glyph glyph-name="Eng" unicode="&#x14a;" horiz-adv-x="1587" 
d="M1032 -395q-137 0 -223 59v266h8q24 -21 62 -34t73 -13q50 0 82.5 28t32.5 75v14l-539 735h-2v-735h-350v1280l-72 102v15h357l598 -811h2v811h350v-1409q0 -192 -99.5 -287.5t-279.5 -95.5z" />
    <glyph glyph-name="eng" unicode="&#x14b;" horiz-adv-x="1335" 
d="M838 -395q-127 0 -226 51v264h9q54 -47 122 -47q117 0 117 139v596q0 92 -48 140.5t-128 48.5q-116 0 -199 -105v-692h-331v1053h329v-80h2q133 117 312 117q81 0 151 -23t125 -68t87 -118t32 -166v-719q0 -193 -94.5 -292t-259.5 -99z" />
    <glyph glyph-name="Omacron" unicode="&#x14c;" horiz-adv-x="1560" 
d="M1145 1458h-729v221h729v-221zM1483 698q0 -336 -195 -535.5t-512 -199.5q-150 0 -278 51t-221.5 144.5t-146 232.5t-52.5 307q0 223 89.5 390.5t249.5 256.5t369 89q149 0 277 -51.5t221 -145t146 -232.5t53 -307zM1118 698q0 192 -91 302t-241 110q-153 0 -247.5 -107
t-94.5 -305q0 -193 90.5 -303t241.5 -110q152 0 247 107.5t95 305.5z" />
    <glyph glyph-name="omacron" unicode="&#x14d;" horiz-adv-x="1267" 
d="M1018 1274h-770v248h770v-248zM858 526q0 128 -60 203.5t-161 75.5q-104 0 -166.5 -73.5t-62.5 -205.5q0 -129 60 -203.5t163 -74.5t165 73t62 205zM1208 526q0 -256 -158.5 -409.5t-418.5 -153.5q-255 0 -413.5 153t-158.5 410q0 256 158.5 410t419.5 154
q253 0 412 -153.5t159 -410.5z" />
    <glyph glyph-name="Obreve" unicode="&#x14e;" horiz-adv-x="1560" 
d="M1483 698q0 -336 -195 -535.5t-512 -199.5q-150 0 -278 51t-221.5 144.5t-146 232.5t-52.5 307q0 303 159.5 496.5t428.5 230.5q-102 24 -165 89t-75 165h238q25 -65 116 -65q93 0 115 65h240q-13 -98 -75.5 -163.5t-162.5 -90.5q263 -36 424.5 -229.5t161.5 -497.5z
M1118 698q0 192 -91 302t-241 110q-153 0 -247.5 -107t-94.5 -305q0 -193 90.5 -303t241.5 -110q152 0 247 107.5t95 305.5z" />
    <glyph glyph-name="obreve" unicode="&#x14f;" horiz-adv-x="1267" 
d="M858 526q0 128 -60 203.5t-161 75.5q-104 0 -166.5 -73.5t-62.5 -205.5q0 -129 60 -203.5t163 -74.5t165 73t62 205zM1208 526q0 -256 -158.5 -409.5t-418.5 -153.5q-255 0 -413.5 153t-158.5 410q0 256 158.5 410t419.5 154q253 0 412 -153.5t159 -410.5zM633 1190
q-179 0 -274.5 93.5t-108.5 252.5h242q11 -60 47.5 -95.5t93.5 -35.5t93.5 35.5t45.5 95.5h244q-13 -159 -108.5 -252.5t-274.5 -93.5z" />
    <glyph glyph-name="Ohungarumlaut" unicode="&#x150;" horiz-adv-x="1560" 
d="M1128 1397h-104q210 -69 334.5 -252.5t124.5 -446.5q0 -336 -195 -535.5t-512 -199.5q-150 0 -278 51t-221.5 144.5t-146 232.5t-52.5 307q0 263 123.5 447t337.5 252h-144l146 241h340l-176 -208q54 4 81 4q28 0 78 -4l127 208h340zM1118 698q0 192 -91 302t-241 110
q-153 0 -247.5 -107t-94.5 -305q0 -193 90.5 -303t241.5 -110q152 0 247 107.5t95 305.5z" />
    <glyph glyph-name="ohungarumlaut" unicode="&#x151;" horiz-adv-x="1267" 
d="M555 1157h-283l228 379h327zM991 1157h-282l229 379h326zM858 526q0 128 -60 203.5t-161 75.5q-104 0 -166.5 -73.5t-62.5 -205.5q0 -129 60 -203.5t163 -74.5t165 73t62 205zM1208 526q0 -256 -158.5 -409.5t-418.5 -153.5q-255 0 -413.5 153t-158.5 410
q0 256 158.5 410t419.5 154q253 0 412 -153.5t159 -410.5z" />
    <glyph glyph-name="OE" unicode="&#x152;" horiz-adv-x="1943" 
d="M1837 0h-799v51q-124 -88 -315 -88q-133 0 -250 51t-205 143.5t-139 232.5t-51 308q0 166 50.5 305.5t138 233t207.5 145.5t259 52q186 0 305 -88v51h746v-314h-451v-219h430v-311h-430v-240h504v-313zM983 362v670q-86 76 -197 76q-153 0 -248.5 -106t-95.5 -304
q0 -192 92 -301.5t242 -109.5q123 0 207 75z" />
    <glyph glyph-name="oe" unicode="&#x153;" horiz-adv-x="1974" 
d="M1847 63q-158 -100 -409 -100q-133 0 -241.5 42t-176.5 122h-2q-64 -78 -164 -121t-223 -43q-255 0 -413.5 153t-158.5 410q0 256 158.5 410t419.5 154q116 0 212 -41t161 -113h2q58 76 153 115t215 39q143 0 259 -58.5t186.5 -175.5t70.5 -274q0 -70 -6 -125h-696
q20 -107 101 -163t212 -56q95 0 183 33.5t149 90.5h8v-299zM858 526q0 128 -60 203.5t-161 75.5q-104 0 -166.5 -73.5t-62.5 -205.5q0 -128 60 -203t163 -75t165 73.5t62 204.5zM1550 707q-9 58 -57 94.5t-119 36.5q-70 0 -118.5 -34.5t-61.5 -96.5h356z" />
    <glyph glyph-name="Racute" unicode="&#x154;" horiz-adv-x="1394" 
d="M735 1397q228 0 365 -111.5t137 -324.5q0 -145 -54.5 -243.5t-174.5 -168.5v-4l340 -545h-410l-391 666v12q182 30 260 87t78 146q0 82 -57 128t-160 46h-142v-1085h-350v1397h279l147 241h338z" />
    <glyph glyph-name="racute" unicode="&#x155;" horiz-adv-x="884" 
d="M578 1157h-283l227 379h326zM487 0h-331v1053h315v-84h2q131 121 256 121q59 0 109 -21v-324h-9q-62 41 -135 41q-56 0 -104 -23t-103 -69v-694z" />
    <glyph glyph-name="Rcommaaccent" unicode="&#x156;" horiz-adv-x="1394" 
d="M688 -395h-280l190 319h326zM1348 0h-410l-391 666v12q182 30 260 87t78 146q0 82 -57 128t-160 46h-142v-1085h-350v1397h559q228 0 365 -111.5t137 -324.5q0 -145 -54.5 -243.5t-174.5 -168.5v-4z" />
    <glyph glyph-name="rcommaaccent" unicode="&#x157;" horiz-adv-x="884" 
d="M270 -395h-280l190 319h326zM487 0h-331v1053h315v-84h2q131 121 256 121q59 0 109 -21v-324h-9q-62 41 -135 41q-56 0 -104 -23t-103 -69v-694z" />
    <glyph glyph-name="Rcaron" unicode="&#x158;" horiz-adv-x="1394" 
d="M1348 0h-410l-391 666v12q182 30 260 87t78 146q0 82 -57 128t-160 46h-142v-1085h-350v1397h316l-232 256h281l106 -105h2l105 105h280l-233 -258q200 -16 318 -126.5t118 -307.5q0 -145 -54.5 -243.5t-174.5 -168.5v-4z" />
    <glyph glyph-name="rcaron" unicode="&#x159;" horiz-adv-x="884" 
d="M598 1151h-270l-289 385h283l141 -180h2l139 180h283zM487 0h-331v1053h315v-84h2q131 121 256 121q59 0 109 -21v-324h-9q-62 41 -135 41q-56 0 -104 -23t-103 -69v-694z" />
    <glyph glyph-name="Sacute" unicode="&#x15a;" horiz-adv-x="1140" 
d="M1053 406q0 -194 -133.5 -318.5t-368.5 -124.5q-248 0 -428 113v344h6q73 -74 183 -116t210 -42q180 0 180 117q0 42 -31.5 74.5t-82 56t-111.5 48.5t-122.5 59.5t-112 80.5t-82 120.5t-31.5 170.5q0 159 85.5 278t260.5 154l133 217h338l-186 -219q137 -28 244 -98v-344
h-7q-71 75 -167.5 115.5t-190.5 40.5q-76 0 -117 -29t-41 -80q0 -37 24.5 -67t65 -50.5t91.5 -44.5t105 -46.5t105 -59.5t91.5 -81.5t65 -114t24.5 -154.5z" />
    <glyph glyph-name="sacute" unicode="&#x15b;" horiz-adv-x="1003" 
d="M618 1157h-282l227 379h326zM901 315q0 -163 -107.5 -257.5t-318.5 -94.5q-215 0 -360 82v305h6q58 -59 150 -93t180 -34q129 0 129 72q0 26 -25.5 45t-66 33.5t-89.5 30t-98.5 41.5t-90 61.5t-66 96.5t-25.5 140q0 161 103 254t296 93q207 0 346 -84v-304h-6
q-59 57 -142.5 92t-164.5 35q-53 0 -79 -19t-26 -50q0 -26 25 -45t65 -33t89 -29.5t97.5 -41.5t88.5 -61.5t65 -96t25 -138.5z" />
    <glyph glyph-name="Scircumflex" unicode="&#x15c;" horiz-adv-x="1140" 
d="M983 1397h-137q82 -26 158 -76v-344h-7q-71 75 -167.5 115.5t-190.5 40.5q-76 0 -117 -29t-41 -80q0 -37 24.5 -67t65 -50.5t91.5 -44.5t105 -46.5t105 -59.5t91.5 -81.5t65 -114t24.5 -154.5q0 -194 -133.5 -318.5t-368.5 -124.5q-248 0 -428 113v344h6q73 -74 183 -116
t210 -42q180 0 180 117q0 42 -31.5 74.5t-82 56t-111.5 48.5t-122.5 59.5t-112 80.5t-82 120.5t-31.5 170.5q0 137 64 247t196 161h-180l237 262h299zM606 1434q9 0 29.5 -1t30.5 -1l-70 69h-2l-74 -74q47 7 86 7z" />
    <glyph glyph-name="scircumflex" unicode="&#x15d;" horiz-adv-x="1003" 
d="M926 1159h-283l-141 180h-2l-140 -180h-282l289 383h270zM901 315q0 -163 -107.5 -257.5t-318.5 -94.5q-215 0 -360 82v305h6q58 -59 150 -93t180 -34q129 0 129 72q0 26 -25.5 45t-66 33.5t-89.5 30t-98.5 41.5t-90 61.5t-66 96.5t-25.5 140q0 161 103 254t296 93
q207 0 346 -84v-304h-6q-59 57 -142.5 92t-164.5 35q-53 0 -79 -19t-26 -50q0 -26 25 -45t65 -33t89 -29.5t97.5 -41.5t88.5 -61.5t65 -96t25 -138.5z" />
    <glyph glyph-name="Scedilla" unicode="&#x15e;" horiz-adv-x="1140" 
d="M793 -227q0 -74 -68.5 -121t-198.5 -47q-146 0 -237 35v147h6q73 -41 166 -41q67 0 67 33q0 24 -35 33t-122 14l39 147q-158 23 -287 103v344h6q73 -74 183 -116t210 -42q180 0 180 117q0 42 -31.5 74.5t-82 56t-111.5 48.5t-122.5 59.5t-112 80.5t-82 120.5t-31.5 170.5
q0 88 26.5 165t81 141t149.5 101.5t220 37.5q108 0 212.5 -29t185.5 -84v-344h-7q-71 75 -167.5 115.5t-190.5 40.5q-76 0 -117 -29t-41 -80q0 -37 24.5 -67t65 -50.5t91.5 -44.5t105 -46.5t105 -59.5t91.5 -81.5t65 -114t24.5 -154.5q0 -173 -108.5 -293t-301.5 -144
l-10 -41q160 -34 160 -155z" />
    <glyph glyph-name="scedilla" unicode="&#x15f;" horiz-adv-x="1003" 
d="M739 -227q0 -74 -68 -121t-198 -47q-146 0 -237 35v147h6q73 -41 166 -41q67 0 67 33q0 23 -35 32.5t-123 14.5l39 145q-146 18 -241 74v305h6q58 -59 150 -93t180 -34q129 0 129 72q0 26 -25.5 45t-66 33.5t-89.5 30t-98.5 41.5t-90 61.5t-66 96.5t-25.5 140
q0 161 103 254t296 93q207 0 346 -84v-304h-6q-59 57 -142.5 92t-164.5 35q-53 0 -79 -19t-26 -50q0 -26 25 -45t65 -33t89 -29.5t97.5 -41.5t88.5 -61.5t65 -96t25 -138.5q0 -139 -78.5 -229.5t-232.5 -114.5l-10 -43q159 -34 159 -155z" />
    <glyph glyph-name="Scaron" unicode="&#x160;" horiz-adv-x="1140" 
d="M1053 406q0 -194 -133.5 -318.5t-368.5 -124.5q-248 0 -428 113v344h6q73 -74 183 -116t210 -42q180 0 180 117q0 42 -31.5 74.5t-82 56t-111.5 48.5t-122.5 59.5t-112 80.5t-82 120.5t-31.5 170.5q0 150 75.5 265t231.5 157l-217 242h281l106 -105h2l105 105h280
l-215 -238q130 -29 226 -94v-344h-7q-71 75 -167.5 115.5t-190.5 40.5q-76 0 -117 -29t-41 -80q0 -37 24.5 -67t65 -50.5t91.5 -44.5t105 -46.5t105 -59.5t91.5 -81.5t65 -114t24.5 -154.5z" />
    <glyph glyph-name="scaron" unicode="&#x161;" horiz-adv-x="1003" 
d="M635 1151h-270l-289 385h282l142 -180h2l139 180h283zM901 315q0 -163 -107.5 -257.5t-318.5 -94.5q-215 0 -360 82v305h6q58 -59 150 -93t180 -34q129 0 129 72q0 26 -25.5 45t-66 33.5t-89.5 30t-98.5 41.5t-90 61.5t-66 96.5t-25.5 140q0 161 103 254t296 93
q207 0 346 -84v-304h-6q-59 57 -142.5 92t-164.5 35q-53 0 -79 -19t-26 -50q0 -26 25 -45t65 -33t89 -29.5t97.5 -41.5t88.5 -61.5t65 -96t25 -138.5z" />
    <glyph glyph-name="Tcommaaccent" unicode="&#x162;" horiz-adv-x="1196" 
d="M532 -395h-280l190 319h326zM774 -2h-350v1065h-363v332h1074v-332h-361v-1065z" />
    <glyph glyph-name="Tcommaaccent" unicode="&#x21a;" horiz-adv-x="1196" 
d="M532 -395h-280l190 319h326zM774 -2h-350v1065h-363v332h1074v-332h-361v-1065z" />
    <glyph glyph-name="tcommaaccent" unicode="&#x163;" horiz-adv-x="784" 
d="M281 -395h-281l190 319h326zM504 0h-332v766h-121v10l121 277v311h332v-311h233v-287h-233v-766z" />
    <glyph glyph-name="tcommaaccent" unicode="&#x21b;" horiz-adv-x="784" 
d="M281 -395h-281l190 319h326zM504 0h-332v766h-121v10l121 277v311h332v-311h233v-287h-233v-766z" />
    <glyph glyph-name="Tcaron" unicode="&#x164;" horiz-adv-x="1196" 
d="M774 -2h-350v1065h-363v332h383l-233 258h281l106 -105h2l105 105h280l-233 -258h383v-332h-361v-1065z" />
    <glyph glyph-name="tcaron" unicode="&#x165;" horiz-adv-x="942" 
d="M825 1128h-250l111 408h293zM504 0h-332v766h-121v10l121 277v311h332v-311h233v-287h-233v-766z" />
    <glyph glyph-name="Tbar" unicode="&#x166;" horiz-adv-x="1196" 
d="M774 0h-350v428h-240v277h240v360h-363v332h1074v-332h-361v-360h238v-277h-238v-428z" />
    <glyph glyph-name="tbar" unicode="&#x167;" horiz-adv-x="784" 
d="M504 0h-332v309h-141v262h141v195h-121v10l121 277v311h332v-311h233v-287h-233v-195h217v-262h-217v-309z" />
    <glyph glyph-name="Utilde" unicode="&#x168;" horiz-adv-x="1402" 
d="M877 1415q-60 0 -155 38t-124 38q-31 0 -44 -18.5t-22 -57.5h-200q8 57 20 99t36 82.5t65.5 61.5t99.5 21q59 0 153.5 -38.5t124.5 -38.5q31 0 44 18.5t22 58.5h201q-8 -59 -20 -101.5t-36 -82t-65.5 -60t-99.5 -20.5zM702 -37q-257 0 -401.5 127t-144.5 367v940h350
v-910q0 -200 188 -200q90 0 138.5 49.5t48.5 150.5v910h366v-940q0 -239 -144.5 -366.5t-400.5 -127.5z" />
    <glyph glyph-name="utilde" unicode="&#x169;" horiz-adv-x="1288" 
d="M1151 1053v-609q0 -225 -134 -353t-376 -128q-236 0 -370 128t-134 353v609h332v-611q0 -97 46 -145.5t128 -48.5q81 0 128.5 49t47.5 145v611h332zM844 1210q-55 0 -119.5 25t-120.5 49.5t-90 24.5q-31 0 -45.5 -23.5t-26.5 -75.5h-200q7 56 16 99.5t26 88t41 73.5
t61 47t85 18q55 0 119.5 -24.5t120.5 -49t90 -24.5q31 0 45 23t26 75h201q-7 -56 -16 -99.5t-26 -88t-41 -73.5t-61 -47t-85 -18z" />
    <glyph glyph-name="Umacron" unicode="&#x16a;" horiz-adv-x="1402" 
d="M1065 1458h-729v221h729v-221zM702 -37q-257 0 -401.5 127t-144.5 367v940h350v-910q0 -200 188 -200q90 0 138.5 49.5t48.5 150.5v910h366v-940q0 -239 -144.5 -366.5t-400.5 -127.5z" />
    <glyph glyph-name="umacron" unicode="&#x16b;" horiz-adv-x="1288" 
d="M1151 1053v-609q0 -225 -134 -353t-376 -128q-236 0 -370 128t-134 353v609h332v-611q0 -97 46 -145.5t128 -48.5q81 0 128.5 49t47.5 145v611h332zM1028 1274h-770v248h770v-248z" />
    <glyph glyph-name="Ubreve" unicode="&#x16c;" horiz-adv-x="1402" 
d="M694 1413q-148 0 -242.5 70t-111.5 196h238q25 -65 116 -65q93 0 115 65h240q-17 -126 -112 -196t-243 -70zM702 -37q-257 0 -401.5 127t-144.5 367v940h350v-910q0 -200 188 -200q90 0 138.5 49.5t48.5 150.5v910h366v-940q0 -239 -144.5 -366.5t-400.5 -127.5z" />
    <glyph glyph-name="ubreve" unicode="&#x16d;" horiz-adv-x="1288" 
d="M1151 1053v-609q0 -225 -134 -353t-376 -128q-236 0 -370 128t-134 353v609h332v-611q0 -97 46 -145.5t128 -48.5q81 0 128.5 49t47.5 145v611h332zM643 1190q-179 0 -274.5 93.5t-108.5 252.5h242q11 -60 47.5 -95.5t93.5 -35.5t93.5 35.5t45.5 95.5h244
q-13 -159 -108.5 -252.5t-274.5 -93.5z" />
    <glyph glyph-name="Uring" unicode="&#x16e;" horiz-adv-x="1402" 
d="M702 -37q-257 0 -401.5 127t-144.5 367v940h350v-910q0 -200 188 -200q90 0 138.5 49.5t48.5 150.5v910h366v-940q0 -239 -144.5 -366.5t-400.5 -127.5zM983 1595q0 -97 -78 -147.5t-207 -50.5q-130 0 -204 50.5t-74 147.5t78 147t207 50t203.5 -50t74.5 -147zM786 1595
q0 28 -22.5 45t-61.5 17q-40 0 -64 -17t-24 -45q0 -30 24 -47.5t64 -17.5t62 17t22 48z" />
    <glyph glyph-name="uring" unicode="&#x16f;" horiz-adv-x="1288" 
d="M926 1384q0 -99 -79.5 -151.5t-207.5 -52.5t-204.5 52t-76.5 152q0 98 79.5 150.5t207.5 52.5q127 0 204 -52.5t77 -150.5zM723 1384q0 30 -20.5 48t-59.5 18q-40 0 -62 -18t-22 -48q0 -33 21.5 -51t62.5 -18q80 0 80 69zM1151 1053v-609q0 -225 -134 -353t-376 -128
q-236 0 -370 128t-134 353v609h332v-611q0 -97 46 -145.5t128 -48.5q81 0 128.5 49t47.5 145v611h332z" />
    <glyph glyph-name="Uhungarumlaut" unicode="&#x170;" horiz-adv-x="1402" 
d="M1047 1397h200v-940q0 -239 -144.5 -366.5t-400.5 -127.5q-257 0 -401.5 127t-144.5 367v940h157l146 241h340l-203 -241h-90v-910q0 -200 188 -200q90 0 138.5 49.5t48.5 150.5v910h-117l145 241h340z" />
    <glyph glyph-name="uhungarumlaut" unicode="&#x171;" horiz-adv-x="1288" 
d="M1151 1053v-609q0 -225 -134 -353t-376 -128q-236 0 -370 128t-134 353v609h332v-611q0 -97 46 -145.5t128 -48.5q81 0 128.5 49t47.5 145v611h332zM559 1157h-283l228 379h327zM995 1157h-282l229 379h326z" />
    <glyph glyph-name="Uogonek" unicode="&#x172;" horiz-adv-x="1402" 
d="M961 -354q-96 -41 -226 -41q-121 0 -181 47t-60 119q0 94 104 198q-210 25 -326 149.5t-116 338.5v940h350v-910q0 -200 188 -200q90 0 138.5 49.5t48.5 150.5v910h366v-940q0 -209 -111 -333.5t-311 -152.5q-73 -76 -73 -121q0 -55 73 -55q62 0 129 41h7v-190z" />
    <glyph glyph-name="uogonek" unicode="&#x173;" horiz-adv-x="1288" 
d="M1151 1053v-609q0 -191 -97 -313t-278 -156q-76 -79 -76 -125q0 -55 74 -55q62 0 129 41h6v-190q-96 -41 -225 -41q-122 0 -182 47t-60 119q0 90 103 198q-194 25 -301 149.5t-107 325.5v609h332v-611q0 -97 46 -145.5t128 -48.5q81 0 128.5 49t47.5 145v611h332z" />
    <glyph glyph-name="Wcircumflex" unicode="&#x174;" horiz-adv-x="2072" 
d="M1397 1397h-254l266 -856h2l268 856h367l-492 -1434h-286l-230 651h-2l-229 -651h-289l-491 1434h383l274 -856h2l182 575l-86 281h-159l237 262h299zM1008 1501l-105 -104h213l-106 104h-2z" />
    <glyph glyph-name="wcircumflex" unicode="&#x175;" horiz-adv-x="1802" 
d="M1325 1159h-283l-141 180h-2l-139 -180h-283l289 383h270zM1364 -37h-225l-234 459h-2l-239 -459h-226l-415 1090h372l185 -529h2l307 566h29l303 -566h2l184 529h373z" />
    <glyph glyph-name="Ycircumflex" unicode="&#x176;" horiz-adv-x="1357" 
d="M1071 1397h272l-487 -869v-528h-350v526l-492 871h283l238 262h299zM676 911l262 486h-147l-107 104h-2l-104 -104h-148l244 -486h2z" />
    <glyph glyph-name="ycircumflex" unicode="&#x177;" horiz-adv-x="1218" 
d="M657 -395h-370l164 397l-437 1051h379l225 -631h3l204 631h371zM1034 1159h-282l-142 180h-2l-139 -180h-283l289 383h270z" />
    <glyph glyph-name="Ydieresis" unicode="&#x178;" horiz-adv-x="1357" 
d="M856 0h-350v526l-492 871h416l244 -486h2l262 486h405l-487 -869v-528zM606 1444h-321v235h321v-235zM1081 1444h-319v235h319v-235z" />
    <glyph glyph-name="Zacute" unicode="&#x179;" horiz-adv-x="1378" 
d="M801 1397h428v-21l-549 -1034v-2h594v-340h-1174v20l549 1035v2h-504v340h375l148 241h338z" />
    <glyph glyph-name="zacute" unicode="&#x17a;" horiz-adv-x="1081" 
d="M655 1157h-282l227 379h326zM1014 0h-973v20l410 744v2h-371v287h897v-23l-412 -743v-2h449v-285z" />
    <glyph glyph-name="Zdotaccent" unicode="&#x17b;" horiz-adv-x="1378" 
d="M854 1444h-348v235h348v-235zM1274 0h-1174v20l549 1035v2h-504v340h1084v-21l-549 -1034v-2h594v-340z" />
    <glyph glyph-name="zdotaccent" unicode="&#x17c;" horiz-adv-x="1081" 
d="M1014 0h-973v20l410 744v2h-371v287h897v-23l-412 -743v-2h449v-285zM694 1262h-348v274h348v-274z" />
    <glyph glyph-name="Zcaron" unicode="&#x17d;" horiz-adv-x="1378" 
d="M1274 0h-1174v20l549 1035v2h-504v340h387l-231 256h281l106 -105h2l105 105h280l-233 -256h387v-21l-549 -1034v-2h594v-340z" />
    <glyph glyph-name="zcaron" unicode="&#x17e;" horiz-adv-x="1081" 
d="M655 1151h-270l-289 385h283l141 -180h2l140 180h282zM1014 0h-973v20l410 744v2h-371v287h897v-23l-412 -743v-2h449v-285z" />
    <glyph glyph-name="florin" unicode="&#x192;" horiz-adv-x="1153" 
d="M559 0h-340v545h-129v274h129v166q0 220 130.5 334.5t365.5 114.5q216 0 375 -101v-340h-9q-62 67 -144.5 105.5t-172.5 38.5q-104 0 -154.5 -52.5t-50.5 -142.5v-123h412v-274h-412v-545z" />
    <glyph glyph-name="Aringacute" unicode="&#x1fa;" horiz-adv-x="1447" 
d="M1004 1595q0 -119 -121 -170l544 -1425h-385l-104 305h-444l-103 -305h-371l541 1421q-121 49 -121 174q0 139 160 183l129 211h338l-188 -222q125 -50 125 -172zM842 612l-125 365h-2l-125 -365h252zM807 1595q0 28 -22.5 45t-61.5 17q-40 0 -64 -17t-24 -45
q0 -30 24 -47.5t64 -17.5t62 17t22 48z" />
    <glyph glyph-name="aringacute" unicode="&#x1fb;" horiz-adv-x="1210" 
d="M1073 0h-323v74h-2q-124 -111 -293 -111q-152 0 -254.5 91.5t-102.5 252.5q0 157 103.5 251.5t290.5 94.5q140 0 249 -57v49q0 84 -68 125t-179 41q-89 0 -176.5 -35.5t-149.5 -93.5h-6v305q170 103 401 103q110 0 200.5 -26t161 -79.5t109.5 -143.5t39 -210v-631z
M741 303v66q-70 39 -170 39q-147 0 -147 -89q0 -40 37 -67t104 -27q110 0 176 78zM743 1642h-282l227 379h326zM893 1384q0 -99 -79.5 -151.5t-207.5 -52.5t-204 52t-76 152q0 98 79 150.5t207 52.5q127 0 204 -52.5t77 -150.5zM690 1384q0 30 -20.5 48t-59.5 18
q-40 0 -62 -18t-22 -48q0 -33 21.5 -51t62.5 -18q80 0 80 69z" />
    <glyph glyph-name="AEacute" unicode="&#x1fc;" horiz-adv-x="1925" 
d="M1243 1397h-280l147 241h338zM1817 0h-854v469h-314l-223 -469h-406l697 1397h1046v-314h-450v-245h430v-312h-430v-213h504v-313zM954 1141l-172 -357h181v357h-9z" />
    <glyph glyph-name="aeacute" unicode="&#x1fd;" horiz-adv-x="1853" 
d="M1055 1157h-283l227 379h326zM1317 -37q-141 0 -257 43.5t-194 126.5h-4q-92 -92 -191.5 -131t-215.5 -39q-152 0 -254.5 91.5t-102.5 252.5q0 157 103.5 251.5t290.5 94.5q140 0 249 -57v51q0 82 -68.5 123t-178.5 41q-89 0 -176.5 -35.5t-149.5 -93.5h-6v305
q170 103 401 103q224 0 355 -119h6q122 119 336 119q143 0 259 -58.5t186.5 -175.5t70.5 -274q0 -82 -7 -125h-696q19 -105 99.5 -162t213.5 -57q93 0 181.5 34t150.5 90h8v-299q-158 -100 -409 -100zM567 225q55 0 106 23.5t87 60.5q-17 38 -17 60q-70 39 -163 39
q-80 0 -118 -21t-38 -70q0 -40 37 -66t106 -26zM1430 707q-11 60 -58 95.5t-119 35.5q-150 0 -180 -131h357z" />
    <glyph glyph-name="Oslashacute" unicode="&#x1fe;" horiz-adv-x="1560" 
d="M420 -37h-342l166 232q-166 200 -166 503q0 296 154.5 488.5t412.5 234.5l133 217h338l-186 -219q85 -14 166 -51l47 66h340l-166 -234q166 -200 166 -502q0 -336 -195 -535.5t-512 -199.5q-167 0 -311 64zM1118 698q0 118 -35 205l-434 -592q58 -24 127 -24
q152 0 247 107t95 304zM442 698q0 -115 35 -202l430 589q-61 23 -121 23q-152 0 -248 -106.5t-96 -303.5z" />
    <glyph glyph-name="oslashacute" unicode="&#x1ff;" horiz-adv-x="1267" 
d="M385 -37h-326l129 182q-129 151 -129 381q0 256 158.5 410t419.5 154q120 0 221 -37l25 37h325l-129 -185q129 -151 129 -379q0 -256 -158.5 -409.5t-418.5 -153.5q-123 0 -221 37zM780 1157h-282l227 379h326zM408 526q0 -64 14 -110l287 377q-34 12 -72 12
q-104 0 -166.5 -73.5t-62.5 -205.5zM858 526q0 54 -12 101l-283 -371q27 -8 68 -8q103 0 165 73t62 205z" />
    <glyph glyph-name="Scommaaccent" unicode="&#x218;" horiz-adv-x="1140" 
d="M506 -395h-281l191 319h325zM1053 406q0 -194 -133.5 -318.5t-368.5 -124.5q-248 0 -428 113v344h6q73 -74 183 -116t210 -42q180 0 180 117q0 42 -31.5 74.5t-82 56t-111.5 48.5t-122.5 59.5t-112 80.5t-82 120.5t-31.5 170.5q0 88 26.5 165t81 141t149.5 101.5
t220 37.5q108 0 212.5 -29t185.5 -84v-344h-7q-71 75 -167.5 115.5t-190.5 40.5q-76 0 -117 -29t-41 -80q0 -37 24.5 -67t65 -50.5t91.5 -44.5t105 -46.5t105 -59.5t91.5 -81.5t65 -114t24.5 -154.5z" />
    <glyph glyph-name="scommaaccent" unicode="&#x219;" horiz-adv-x="1003" 
d="M457 -395h-281l191 319h325zM901 315q0 -163 -107.5 -257.5t-318.5 -94.5q-215 0 -360 82v305h6q58 -59 150 -93t180 -34q129 0 129 72q0 26 -25.5 45t-66 33.5t-89.5 30t-98.5 41.5t-90 61.5t-66 96.5t-25.5 140q0 161 103 254t296 93q207 0 346 -84v-304h-6
q-59 57 -142.5 92t-164.5 35q-53 0 -79 -19t-26 -50q0 -26 25 -45t65 -33t89 -29.5t97.5 -41.5t88.5 -61.5t65 -96t25 -138.5z" />
    <glyph glyph-name="commaaccent.alt" unicode="&#x2bb;" horiz-adv-x="1024" 
d="M580 1217h-326l233 319h283z" />
    <glyph glyph-name="commaaccent.alt" unicode="&#xe026;" horiz-adv-x="1024" 
d="M580 1217h-326l233 319h283z" />
    <glyph glyph-name="commaaccent.alt" unicode="&#x312;" horiz-adv-x="1024" 
d="M580 1217h-326l233 319h283z" />
    <glyph glyph-name="circumflex" unicode="&#x2c6;" horiz-adv-x="1024" 
d="M936 1159h-283l-141 180h-2l-139 -180h-283l289 383h270z" />
    <glyph glyph-name="circumflex" unicode="&#x302;" horiz-adv-x="1024" 
d="M936 1159h-283l-141 180h-2l-139 -180h-283l289 383h270z" />
    <glyph glyph-name="caron" unicode="&#x2c7;" horiz-adv-x="1024" 
d="M647 1151h-270l-289 385h283l141 -180h2l139 180h283z" />
    <glyph glyph-name="caron" unicode="&#x30c;" horiz-adv-x="1024" 
d="M647 1151h-270l-289 385h283l141 -180h2l139 180h283z" />
    <glyph glyph-name="breve" unicode="&#x2d8;" horiz-adv-x="1024" 
d="M512 1190q-179 0 -274.5 93.5t-108.5 252.5h242q11 -60 47.5 -95.5t93.5 -35.5t93.5 35.5t45.5 95.5h244q-13 -159 -108.5 -252.5t-274.5 -93.5z" />
    <glyph glyph-name="breve" unicode="&#x306;" horiz-adv-x="1024" 
d="M512 1190q-179 0 -274.5 93.5t-108.5 252.5h242q11 -60 47.5 -95.5t93.5 -35.5t93.5 35.5t45.5 95.5h244q-13 -159 -108.5 -252.5t-274.5 -93.5z" />
    <glyph glyph-name="dotaccent" unicode="&#x2d9;" horiz-adv-x="1024" 
d="M686 1262h-348v274h348v-274z" />
    <glyph glyph-name="dotaccent" unicode="&#x307;" horiz-adv-x="1024" 
d="M686 1262h-348v274h348v-274z" />
    <glyph glyph-name="ring" unicode="&#x2da;" horiz-adv-x="1024" 
d="M795 1384q0 -99 -79.5 -151.5t-207.5 -52.5t-204.5 52t-76.5 152q0 98 79.5 150.5t207.5 52.5q127 0 204 -52.5t77 -150.5zM592 1384q0 30 -20.5 48t-59.5 18q-40 0 -62 -18t-22 -48q0 -33 21.5 -51t62.5 -18q80 0 80 69z" />
    <glyph glyph-name="ring" unicode="&#x30a;" horiz-adv-x="1024" 
d="M795 1384q0 -99 -79.5 -151.5t-207.5 -52.5t-204.5 52t-76.5 152q0 98 79.5 150.5t207.5 52.5q127 0 204 -52.5t77 -150.5zM592 1384q0 30 -20.5 48t-59.5 18q-40 0 -62 -18t-22 -48q0 -33 21.5 -51t62.5 -18q80 0 80 69z" />
    <glyph glyph-name="ogonek" unicode="&#x2db;" horiz-adv-x="1024" 
d="M745 -354q-96 -41 -225 -41q-121 0 -181 47t-60 119q0 64 42.5 125.5t124.5 130.5h222q-73 -67 -102 -106.5t-29 -70.5q0 -55 73 -55q62 0 129 41h6v-190z" />
    <glyph glyph-name="ogonek" unicode="&#x328;" horiz-adv-x="1024" 
d="M745 -354q-96 -41 -225 -41q-121 0 -181 47t-60 119q0 64 42.5 125.5t124.5 130.5h222q-73 -67 -102 -106.5t-29 -70.5q0 -55 73 -55q62 0 129 41h6v-190z" />
    <glyph glyph-name="tilde" unicode="&#x2dc;" horiz-adv-x="1024" 
d="M698 1210q-55 0 -119.5 25t-120 49.5t-89.5 24.5q-31 0 -45.5 -23.5t-26.5 -75.5h-201q8 71 21.5 124t39 101.5t68 74.5t101.5 26q55 0 119.5 -24.5t120 -49t89.5 -24.5q31 0 45.5 23t26.5 75h201q-8 -71 -21.5 -124t-39 -101.5t-68 -74.5t-101.5 -26z" />
    <glyph glyph-name="tilde" unicode="&#x303;" horiz-adv-x="1024" 
d="M698 1210q-55 0 -119.5 25t-120 49.5t-89.5 24.5q-31 0 -45.5 -23.5t-26.5 -75.5h-201q8 71 21.5 124t39 101.5t68 74.5t101.5 26q55 0 119.5 -24.5t120 -49t89.5 -24.5q31 0 45.5 23t26.5 75h201q-8 -71 -21.5 -124t-39 -101.5t-68 -74.5t-101.5 -26z" />
    <glyph glyph-name="hungarumlaut" unicode="&#x2dd;" horiz-adv-x="1024" 
d="M299 1157h-283l228 379h327zM735 1157h-282l229 379h326z" />
    <glyph glyph-name="hungarumlaut" unicode="&#x30b;" horiz-adv-x="1024" 
d="M299 1157h-283l228 379h327zM735 1157h-282l229 379h326z" />
    <glyph glyph-name="caronSlovak" unicode="&#x315;" horiz-adv-x="1024" 
d="M559 1128h-250l111 408h293z" />
    <glyph glyph-name="caronSlovak" unicode="&#xe01e;" horiz-adv-x="1024" 
d="M559 1128h-250l111 408h293z" />
    <glyph glyph-name="commaaccent" unicode="&#x326;" horiz-adv-x="1024" 
d="M535 -395h-281l190 319h326z" />
    <glyph glyph-name="uni037E" unicode="&#x37e;" horiz-adv-x="552" 
d="M442 721h-331v332h331v-332zM281 -283h-306l164 615h307v-10z" />
    <glyph glyph-name="tonos" unicode="&#x384;" horiz-adv-x="1024" 
d="M578 1157h-242l57 379h293z" />
    <glyph glyph-name="dieresistonos" unicode="&#x385;" horiz-adv-x="1024" 
d="M305 1217h-278v233h278v-233zM997 1217h-278v233h278v-233zM606 1157h-250l37 379h293z" />
    <glyph glyph-name="Alphatonos" unicode="&#x386;" horiz-adv-x="1490" 
d="M301 1020h-242l58 379h293zM1473 0h-386l-104 305h-444l-103 -305h-370l544 1434h316zM887 612l-125 365h-2l-125 -365h252z" />
    <glyph glyph-name="anoteleia" unicode="&#x387;" horiz-adv-x="581" 
d="M457 387h-332v332h332v-332z" />
    <glyph glyph-name="Epsilontonos" unicode="&#x388;" horiz-adv-x="1351" 
d="M236 1018h-242l57 379h293zM1243 0h-854v1397h801v-314h-451v-217h430v-313h-430v-240h504v-313z" />
    <glyph glyph-name="Etatonos" unicode="&#x389;" horiz-adv-x="1785" 
d="M236 1018h-242l57 379h293zM1610 0h-350v553h-521v-553h-350v1397h350v-504h521v504h350v-1397z" />
    <glyph glyph-name="Iotatonos" unicode="&#x38a;" horiz-adv-x="915" 
d="M236 1018h-242l57 379h293zM739 0h-350v1397h350v-1397z" />
    <glyph glyph-name="Omicrontonos" unicode="&#x38c;" horiz-adv-x="1716" 
d="M236 1018h-242l57 379h293zM1636 698q0 -167 -51.5 -305.5t-144.5 -232.5t-223.5 -145.5t-286.5 -51.5q-150 0 -278.5 51t-221.5 144t-146 232t-53 308q0 167 52 305.5t145.5 233t224.5 146t287 51.5q149 0 277 -51.5t221 -145t145.5 -232.5t52.5 -307zM1272 698
q0 192 -91 301t-241 109q-152 0 -248 -106.5t-96 -303.5q0 -192 92 -301.5t242 -109.5q152 0 247 107t95 304z" />
    <glyph glyph-name="Upsilontonos" unicode="&#x38e;" horiz-adv-x="1683" 
d="M236 1018h-242l57 379h705l243 -486h2l263 486h405l-487 -869v-528h-351v526l-489 865z" />
    <glyph glyph-name="Omegatonos" unicode="&#x38f;" horiz-adv-x="1732" 
d="M1634 0h-622v276q120 105 175.5 209.5t55.5 253.5q0 173 -82 271t-225 98q-145 0 -226 -98t-81 -271q0 -149 54.5 -253.5t174.5 -209.5v-276h-622v313h225v2q-101 107 -150 225t-49 289q0 275 185.5 440t488.5 165q301 0 486.5 -165t185.5 -440q0 -170 -49.5 -288
t-149.5 -226v-2h225v-313zM242 1018h-242l57 379h293z" />
    <glyph glyph-name="iotadieresistonos" unicode="&#x390;" horiz-adv-x="636" 
d="M485 0h-331v1053h331v-1053zM442 1157h-249l36 379h293zM141 1217h-278v233h278v-233zM834 1217h-279v233h279v-233z" />
    <glyph glyph-name="Alpha" unicode="&#x391;" horiz-adv-x="1447" 
d="M1427 0h-385l-104 305h-444l-103 -305h-371l545 1434h316zM842 612l-125 365h-2l-125 -365h252z" />
    <glyph glyph-name="Beta" unicode="&#x392;" horiz-adv-x="1329" 
d="M1235 377q0 -377 -502 -377h-557v1397h539q201 0 320.5 -93.5t119.5 -263.5q0 -108 -52.5 -189.5t-141.5 -131.5v-2q114 -28 194 -115t80 -225zM883 434q0 59 -44.5 91t-119.5 32h-193v-256h185q172 0 172 133zM799 977q0 54 -40.5 86.5t-107.5 32.5h-125v-248h162
q111 38 111 129z" />
    <glyph glyph-name="Gamma" unicode="&#x393;" horiz-adv-x="1050" 
d="M526 0h-350v1397h813v-336h-463v-1061z" />
    <glyph glyph-name="uni0394" unicode="&#x394;" horiz-adv-x="1447" 
d="M1427 0h-1407l545 1434h316zM942 315l-225 668h-2l-228 -668h455z" />
    <glyph glyph-name="Epsilon" unicode="&#x395;" horiz-adv-x="1138" 
d="M1030 0h-854v1397h801v-314h-451v-217h430v-313h-430v-240h504v-313z" />
    <glyph glyph-name="Zeta" unicode="&#x396;" horiz-adv-x="1378" 
d="M1274 0h-1174v20l549 1035v2h-504v340h1084v-21l-549 -1034v-2h594v-340z" />
    <glyph glyph-name="Eta" unicode="&#x397;" horiz-adv-x="1572" 
d="M1397 0h-350v553h-521v-553h-350v1397h350v-504h521v504h350v-1397z" />
    <glyph glyph-name="Theta" unicode="&#x398;" horiz-adv-x="1560" 
d="M1483 698q0 -336 -195 -535.5t-512 -199.5q-150 0 -278 51t-221.5 144t-146 232t-52.5 308q0 336 195.5 536t512.5 200q149 0 277 -51.5t221 -145t146 -232.5t53 -307zM1118 698q0 192 -91 301t-241 109q-152 0 -248 -106.5t-96 -303.5q0 -192 92 -301.5t242 -109.5
q152 0 247 107t95 304zM995 555h-430v289h430v-289z" />
    <glyph glyph-name="Iota" unicode="&#x399;" horiz-adv-x="702" 
d="M526 0h-350v1397h350v-1397z" />
    <glyph glyph-name="Kappa" unicode="&#x39a;" horiz-adv-x="1386" 
d="M526 0h-350v1397h350v-1397zM1346 0h-406l-393 702v13l373 682h399l-389 -682v-4z" />
    <glyph glyph-name="Lambda" unicode="&#x39b;" horiz-adv-x="1413" 
d="M1393 0h-392l-303 897h-2l-297 -897h-379l541 1434h289z" />
    <glyph glyph-name="Mu" unicode="&#x39c;" horiz-adv-x="1824" 
d="M1696 0h-353l-59 649h-2l-356 -686h-25l-362 688h-2l-56 -651h-352l123 1409h285l374 -760h2l375 760h285z" />
    <glyph glyph-name="Nu" unicode="&#x39d;" horiz-adv-x="1587" 
d="M1411 -12h-289l-594 753h-2v-741h-350v1280l-72 102v15h357l598 -774h2v774h350v-1409z" />
    <glyph glyph-name="Xi" unicode="&#x39e;" horiz-adv-x="1282" 
d="M1174 0h-1065v313h1065v-313zM1133 1083h-986v314h986v-314zM1100 553h-918v313h918v-313z" />
    <glyph glyph-name="Omicron" unicode="&#x39f;" horiz-adv-x="1560" 
d="M1483 698q0 -336 -195 -535.5t-512 -199.5q-150 0 -278 51t-221.5 144t-146 232t-52.5 308q0 336 195.5 536t512.5 200q149 0 277 -51.5t221 -145t146 -232.5t53 -307zM1118 698q0 192 -91 301t-241 109q-152 0 -248 -106.5t-96 -303.5q0 -192 92 -301.5t242 -109.5
q152 0 247 107t95 304z" />
    <glyph glyph-name="Pi" unicode="&#x3a0;" horiz-adv-x="1546" 
d="M1370 0h-350v1065h-494v-1065h-350v1397h1194v-1397z" />
    <glyph glyph-name="Rho" unicode="&#x3a1;" horiz-adv-x="1294" 
d="M1206 950q0 -246 -166.5 -380t-513.5 -171v-399h-350v1397h524q146 0 258.5 -49.5t180 -152.5t67.5 -245zM854 918q0 78 -51 121.5t-137 43.5h-140v-370q167 6 247.5 61.5t80.5 143.5z" />
    <glyph glyph-name="Sigma" unicode="&#x3a3;" horiz-adv-x="1239" 
d="M1165 0h-1124v20l434 699v2l-401 655v21h1048v-324h-420v-2l207 -342v-22l-243 -381v-2h499v-324z" />
    <glyph glyph-name="Tau" unicode="&#x3a4;" horiz-adv-x="1196" 
d="M774 0h-350v1065h-363v332h1074v-332h-361v-1065z" />
    <glyph glyph-name="Upsilon" unicode="&#x3a5;" horiz-adv-x="1357" 
d="M856 0h-350v526l-492 871h416l244 -486h2l262 486h405l-487 -869v-528z" />
    <glyph glyph-name="Phi" unicode="&#x3a6;" horiz-adv-x="1753" 
d="M1053 -10h-351v123q-292 21 -461 170t-169 415q0 264 168.5 413t461.5 171v125h351v-125q191 -15 331 -83.5t219.5 -196.5t79.5 -304q0 -264 -169 -413.5t-461 -171.5v-123zM711 422v551q-133 -10 -204 -82.5t-71 -192.5q0 -121 71 -193.5t204 -82.5zM1047 422
q130 10 200 82.5t70 193.5q0 119 -70.5 192t-199.5 83v-551z" />
    <glyph glyph-name="Chi" unicode="&#x3a7;" horiz-adv-x="1476" 
d="M1423 0h-419l-267 444h-2l-243 -444h-410l399 711l-428 686h418l260 -441h2l246 441h410l-400 -690z" />
    <glyph glyph-name="Psi" unicode="&#x3a8;" horiz-adv-x="1726" 
d="M1036 0h-348v285q-300 22 -439.5 152t-139.5 401v559h348v-559q0 -111 53 -169t178 -73v801h348v-803q127 15 179.5 73t52.5 171v559h350v-559q0 -270 -141 -400.5t-441 -152.5v-285z" />
    <glyph glyph-name="uni03A9" unicode="&#x3a9;" horiz-adv-x="1595" 
d="M1497 0h-623v276q121 106 176.5 210.5t55.5 252.5q0 173 -82 271t-225 98q-145 0 -226 -98t-81 -271q0 -149 54.5 -253.5t174.5 -209.5v-276h-623v313h226v2q-101 107 -150 225t-49 289q0 275 185.5 440t488.5 165q301 0 486 -165t185 -440q0 -170 -49 -288t-149 -226v-2
h225v-313z" />
    <glyph glyph-name="Iotadieresis" unicode="&#x3aa;" horiz-adv-x="710" 
d="M526 0h-350v1397h350v-1397zM279 1444h-322v235h322v-235zM754 1444h-320v235h320v-235z" />
    <glyph glyph-name="Upsilondieresis" unicode="&#x3ab;" horiz-adv-x="1349" 
d="M850 0h-350v526l-492 871h416l244 -486h2l262 486h405l-487 -869v-528zM600 1444h-321v235h321v-235zM1075 1444h-319v235h319v-235z" />
    <glyph glyph-name="alphatonos" unicode="&#x3ac;" horiz-adv-x="1296" 
d="M815 1157h-242l58 379h293zM811 360v342q-79 95 -182 95q-97 0 -155 -71t-58 -200t56.5 -199.5t150.5 -70.5q110 0 188 104zM1143 0h-330v78h-2q-67 -57 -137.5 -86t-161.5 -29q-201 0 -322.5 153.5t-121.5 409.5q0 260 130.5 412t340.5 152q99 0 168.5 -28t134.5 -77h2
l293 92h6v-1077z" />
    <glyph glyph-name="epsilontonos" unicode="&#x3ad;" horiz-adv-x="1024" 
d="M700 1157h-241l57 379h293zM70 289q0 98 55 172t149 100v2q-75 40 -110 97t-35 141q0 137 109 213t319 76q229 0 363 -89v-296h-7q-44 57 -116 90.5t-158 33.5q-74 0 -110.5 -22.5t-36.5 -58.5q0 -39 30 -60.5t86 -21.5h219v-260h-331q-35 -11 -55.5 -33t-20.5 -51
q0 -99 184 -99q216 0 322 125h6v-295q-139 -90 -410 -90q-221 0 -336.5 86.5t-115.5 239.5z" />
    <glyph glyph-name="etatonos" unicode="&#x3ae;" horiz-adv-x="1335" 
d="M836 1157h-242l57 379h293zM1192 -397h-332v1005q0 92 -48 140.5t-128 48.5q-116 0 -199 -105v-692h-331v1053h329v-80h2q133 117 312 117q80 0 150 -23t125.5 -68t87.5 -118t32 -166v-1112z" />
    <glyph glyph-name="iotatonos" unicode="&#x3af;" horiz-adv-x="636" 
d="M485 0h-331v1053h331v-1053zM446 1157h-241l57 379h293z" />
    <glyph glyph-name="upsilondieresistonos" unicode="&#x3b0;" horiz-adv-x="1292" 
d="M451 1217h-279v233h279v-233zM1143 1217h-279v233h279v-233zM752 1157h-250l37 379h292zM786 1053h338q39 -278 39 -496q0 -134 -31.5 -241.5t-94.5 -187t-164.5 -122.5t-235.5 -43q-238 0 -366 128.5t-128 354.5v607h332v-609q0 -196 166 -196q190 0 190 297
q0 232 -45 508z" />
    <glyph glyph-name="alpha" unicode="&#x3b1;" horiz-adv-x="1296" 
d="M811 360v342q-79 95 -182 95q-97 0 -155 -71t-58 -200t56.5 -199.5t150.5 -70.5q110 0 188 104zM1143 0h-330v78h-2q-67 -57 -137.5 -86t-161.5 -29q-201 0 -322.5 153.5t-121.5 409.5q0 260 130.5 412t340.5 152q99 0 168.5 -28t134.5 -77h2l293 92h6v-1077z" />
    <glyph glyph-name="beta" unicode="&#x3b2;" horiz-adv-x="1316" 
d="M1253 418q0 -203 -131.5 -329t-339.5 -126q-87 0 -161.5 22.5t-122.5 57.5h-2v-336l-330 -102h-2v1478q0 237 123 352t377 115q235 0 360 -103t125 -280q0 -116 -48.5 -201t-152.5 -149v-2q63 -15 115.5 -44t96.5 -75.5t68.5 -117.5t24.5 -160zM907 459q0 184 -248 184
h-88v293h117q121 56 121 174q0 67 -42.5 111.5t-113.5 44.5q-84 0 -120.5 -46t-36.5 -141v-731q77 -92 215 -92q83 0 139.5 51t56.5 152z" />
    <glyph glyph-name="gamma" unicode="&#x3b3;" horiz-adv-x="1177" 
d="M729 -297l-319 -98h-4q0 202 -29.5 360t-120.5 414l-240 674h371l141 -441q21 -60 50 -166h2l30 99q110 324 205 508h361q-78 -143 -157 -313.5t-119 -266.5t-146 -354l-45 -117q20 -109 20 -299z" />
    <glyph glyph-name="delta" unicode="&#x3b4;" horiz-adv-x="1239" 
d="M1180 494q0 -233 -157.5 -382t-406.5 -149q-241 0 -399 147t-158 371q0 149 68 259t229 218q-67 55 -97 116t-30 149q0 151 107.5 239t322.5 88q116 0 202.5 -18.5t180.5 -58.5v-310h-6q-75 60 -164 93.5t-167 33.5q-142 0 -142 -69q0 -31 35 -62t123 -78l82 -47
q84 -44 148 -92.5t118 -113.5t82.5 -149.5t28.5 -184.5zM831 492q0 184 -176 274l-37 20q-118 -58 -164 -132t-46 -162q0 -112 58.5 -178t154.5 -66q92 0 151 66.5t59 177.5z" />
    <glyph glyph-name="epsilon" unicode="&#x3b5;" horiz-adv-x="1024" 
d="M70 289q0 98 55 172t149 100v2q-75 40 -110 97t-35 141q0 137 109 213t319 76q229 0 363 -89v-296h-7q-44 57 -116 90.5t-158 33.5q-74 0 -110.5 -22.5t-36.5 -58.5q0 -39 30 -60.5t86 -21.5h219v-260h-331q-35 -11 -55.5 -33t-20.5 -51q0 -99 184 -99q216 0 322 125h6
v-295q-139 -90 -410 -90q-221 0 -336.5 86.5t-115.5 239.5z" />
    <glyph glyph-name="zeta" unicode="&#x3b6;" horiz-adv-x="1001" 
d="M874 -291h-335q90 117 90 197q0 40 -23 63q-19 18 -71 29t-107 18.5t-125.5 37.5t-122.5 81q-123 116 -123 330q0 187 96 357t328 425v2h-356v287h840v-246q-331 -328 -445 -488.5t-114 -305.5q0 -80 47 -134q32 -38 95 -58.5t124.5 -26.5t130 -25t106.5 -53
q58 -52 58 -162q0 -140 -93 -328z" />
    <glyph glyph-name="eta" unicode="&#x3b7;" horiz-adv-x="1335" 
d="M1192 -397h-332v1005q0 92 -48 140.5t-128 48.5q-116 0 -199 -105v-692h-331v1053h329v-80h2q133 117 312 117q80 0 150 -23t125.5 -68t87.5 -118t32 -166v-1112z" />
    <glyph glyph-name="theta" unicode="&#x3b8;" horiz-adv-x="1208" 
d="M1139 698q0 -182 -40 -324t-112.5 -231t-169 -134.5t-213.5 -45.5q-115 0 -211.5 45.5t-169 134.5t-113 231t-40.5 324q0 361 144.5 548.5t389.5 187.5q247 0 391 -187t144 -549zM604 1149q-167 0 -194 -318h389q-27 318 -195 318zM604 248q77 0 129 75t66 238h-387
q14 -162 65.5 -237.5t126.5 -75.5z" />
    <glyph glyph-name="iota" unicode="&#x3b9;" horiz-adv-x="636" 
d="M485 0h-331v1053h331v-1053z" />
    <glyph glyph-name="kappa" unicode="&#x3ba;" horiz-adv-x="1247" 
d="M485 0h-331v1053h331v-1053zM1219 0h-390l-327 528v9l311 516h381l-326 -516v-5z" />
    <glyph glyph-name="lambda" unicode="&#x3bb;" horiz-adv-x="1216" 
d="M1200 0h-373l-196 631h-2l-232 -631h-381l451 1051q-60 149 -121 264.5t-141 220.5h389q122 -186 229 -487z" />
    <glyph glyph-name="uni03BC" unicode="&#x3bc;" horiz-adv-x="1318" 
d="M1167 0h-315v78h-2q-42 -49 -100.5 -82t-120.5 -33q-120 0 -180 78h-3q30 -220 39 -334l-329 -102h-2v1448h331v-602q0 -98 47.5 -146.5t126.5 -48.5q62 0 109 34.5t68 102.5v660h331v-1053z" />
    <glyph glyph-name="nu" unicode="&#x3bd;" horiz-adv-x="1202" 
d="M713 -37h-240l-457 1090h379l217 -635h2q130 275 207 635h359q-60 -268 -181.5 -537t-285.5 -553z" />
    <glyph glyph-name="xi" unicode="&#x3be;" horiz-adv-x="1034" 
d="M905 -291h-336q93 119 93 197q0 41 -23 61q-20 19 -73.5 30.5t-111 19t-129.5 37.5t-124 81q-123 119 -123 301q0 145 78 243t219 130v2q-99 48 -157 141.5t-58 214.5q0 178 121 280.5t335 102.5q211 0 367 -100v-322h-8q-126 140 -281 140q-80 0 -132 -40t-52 -120
q0 -78 55.5 -125t149.5 -47h170v-291h-326q-58 -20 -96.5 -65t-38.5 -107q0 -85 57 -127q44 -33 111.5 -50.5t126 -23t122 -23t99.5 -50.5q59 -54 59 -160q0 -156 -94 -330z" />
    <glyph glyph-name="omicron" unicode="&#x3bf;" horiz-adv-x="1265" 
d="M858 526q0 128 -60 203.5t-161 75.5q-104 0 -166.5 -73.5t-62.5 -205.5q0 -129 60 -203.5t163 -74.5t165 73t62 205zM1208 526q0 -256 -158.5 -409.5t-418.5 -153.5q-255 0 -413.5 153t-158.5 410q0 256 158.5 410t419.5 154q253 0 412 -153.5t159 -410.5z" />
    <glyph glyph-name="pi" unicode="&#x3c0;" horiz-adv-x="1460" 
d="M1210 0h-331v766h-258q0 -334 -64 -766h-332q64 464 64 766h-264v10l120 277h1260v-287h-195v-766z" />
    <glyph glyph-name="rho" unicode="&#x3c1;" horiz-adv-x="1298" 
d="M1233 526q0 -260 -134.5 -411.5t-348.5 -151.5q-168 0 -279 80h-2v-438h-332v944q0 138 40 243t114 169.5t172.5 96.5t220.5 32q247 0 398 -151t151 -413zM885 526q0 130 -58.5 205.5t-154.5 75.5q-203 0 -203 -268v-191q80 -92 190 -92q102 0 164 70t62 200z" />
    <glyph glyph-name="sigma1" unicode="&#x3c2;" horiz-adv-x="925" 
d="M520 -29q-17 17 -62 31.5t-92 26.5t-105 45.5t-99 83.5q-103 123 -103 360q0 263 136.5 417.5t361.5 154.5q157 0 297 -95v-327h-6q-40 56 -102 91.5t-130 35.5q-93 0 -150.5 -73.5t-57.5 -195.5q0 -112 49 -174q32 -38 84 -59.5t99 -28t100.5 -22t84.5 -43.5
q58 -52 58 -162q0 -143 -95 -328h-335q50 69 70 113t20 84q0 42 -23 65z" />
    <glyph glyph-name="sigma" unicode="&#x3c3;" horiz-adv-x="1292" 
d="M1176 459q0 -217 -156.5 -356.5t-403.5 -139.5q-244 0 -400.5 149t-156.5 390q0 263 157.5 407t432.5 144h590v-293h-195q69 -64 100.5 -136.5t31.5 -164.5zM831 496q0 85 -38.5 150t-118.5 120h-25q-108 0 -174.5 -67.5t-66.5 -196.5q0 -114 57.5 -185t157.5 -71
q93 0 150.5 68t57.5 182z" />
    <glyph glyph-name="tau" unicode="&#x3c4;" horiz-adv-x="985" 
d="M657 0h-331v766h-279v287h891v-287h-281v-766z" />
    <glyph glyph-name="upsilon" unicode="&#x3c5;" horiz-adv-x="1292" 
d="M786 1053h338q39 -278 39 -496q0 -134 -31.5 -241.5t-94.5 -187t-164.5 -122.5t-235.5 -43q-238 0 -366 128.5t-128 354.5v607h332v-609q0 -196 166 -196q190 0 190 297q0 232 -45 508z" />
    <glyph glyph-name="phi" unicode="&#x3c6;" horiz-adv-x="1634" 
d="M657 246v561q-118 -8 -183.5 -78t-65.5 -203q0 -131 66 -201t183 -79zM1573 526q0 -242 -159 -386.5t-431 -166.5v-368h-332v368q-273 22 -432.5 166.5t-159.5 386.5q0 244 154 388t438 167v455h332v-457q280 -22 435 -166t155 -387zM1227 526q0 134 -66 203.5t-186 77.5
v-561q118 9 185 79t67 201z" />
    <glyph glyph-name="chi" unicode="&#x3c7;" horiz-adv-x="1193" 
d="M1178 -395h-383l-201 479h-2l-193 -479h-374l335 719l-344 729h383l197 -482h2l199 482h377l-336 -729z" />
    <glyph glyph-name="psi" unicode="&#x3c8;" horiz-adv-x="1738" 
d="M1040 -395h-331v366q-294 24 -430 151t-136 363v568h332v-568q0 -109 54 -166t180 -67v1284h331v-1280q130 15 184 87t54 214q0 201 -41 496h332q16 -123 22 -173.5t12.5 -142.5t6.5 -180q0 -270 -136 -414.5t-434 -171.5v-366z" />
    <glyph glyph-name="omega" unicode="&#x3c9;" horiz-adv-x="1689" 
d="M1159 -37q-219 0 -311 148h-4q-95 -148 -314 -148q-138 0 -236 76.5t-145 204t-47 293.5q0 152 26 266.5t93 249.5h350q-70 -136 -97.5 -250.5t-27.5 -267.5q0 -289 123 -289q56 0 83.5 42.5t27.5 139.5v358h332v-358q0 -97 27 -139.5t81 -42.5q123 0 123 289
q0 154 -26.5 268.5t-96.5 249.5h348q67 -138 94 -252.5t27 -263.5q0 -166 -47.5 -294t-146 -204t-236.5 -76z" />
    <glyph glyph-name="iotadieresis" unicode="&#x3ca;" horiz-adv-x="636" 
d="M485 0h-331v1053h331v-1053zM242 1262h-322v274h322v-274zM717 1262h-320v274h320v-274z" />
    <glyph glyph-name="upsilondieresis" unicode="&#x3cb;" horiz-adv-x="1292" 
d="M553 1262h-322v274h322v-274zM1028 1262h-319v274h319v-274zM786 1053h338q39 -278 39 -496q0 -134 -31.5 -241.5t-94.5 -187t-164.5 -122.5t-235.5 -43q-238 0 -366 128.5t-128 354.5v607h332v-609q0 -196 166 -196q190 0 190 297q0 232 -45 508z" />
    <glyph glyph-name="omicrontonos" unicode="&#x3cc;" horiz-adv-x="1267" 
d="M745 1157h-241l57 379h293zM858 526q0 128 -60 203.5t-161 75.5q-104 0 -166.5 -73.5t-62.5 -205.5q0 -129 60 -203.5t163 -74.5t165 73t62 205zM1208 526q0 -256 -158.5 -409.5t-418.5 -153.5q-255 0 -413.5 153t-158.5 410q0 256 158.5 410t419.5 154q253 0 412 -153.5
t159 -410.5z" />
    <glyph glyph-name="upsilontonos" unicode="&#x3cd;" horiz-adv-x="1292" 
d="M754 1157h-242l57 379h293zM786 1053h338q39 -278 39 -496q0 -134 -31.5 -241.5t-94.5 -187t-164.5 -122.5t-235.5 -43q-238 0 -366 128.5t-128 354.5v607h332v-609q0 -196 166 -196q190 0 190 297q0 232 -45 508z" />
    <glyph glyph-name="omegatonos" unicode="&#x3ce;" horiz-adv-x="1689" 
d="M971 1157h-242l57 379h293zM1159 -37q-219 0 -311 148h-4q-95 -148 -314 -148q-138 0 -236 76.5t-145 204t-47 293.5q0 152 26 266.5t93 249.5h350q-70 -136 -97.5 -250.5t-27.5 -267.5q0 -289 123 -289q56 0 83.5 42.5t27.5 139.5v358h332v-358q0 -97 27 -139.5
t81 -42.5q123 0 123 289q0 154 -26.5 268.5t-96.5 249.5h348q67 -138 94 -252.5t27 -263.5q0 -166 -47.5 -294t-146 -204t-236.5 -76z" />
    <glyph glyph-name="uni0400" unicode="&#x400;" horiz-adv-x="1138" 
d="M1030 0h-854v1397h279l-205 241h338l147 -241h242v-314h-451v-217h430v-313h-430v-240h504v-313z" />
    <glyph glyph-name="uni0401" unicode="&#x401;" horiz-adv-x="1138" 
d="M492 1444h-322v235h322v-235zM967 1444h-320v235h320v-235zM1030 0h-854v1397h801v-314h-451v-217h430v-313h-430v-240h504v-313z" />
    <glyph glyph-name="uni0402" unicode="&#x402;" horiz-adv-x="1536" 
d="M938 10v301q25 -10 66 -10q50 0 82 29t32 88q0 65 -43.5 95t-132.5 30h-166v-543h-352v1065h-363v332h1192v-324h-477v-219h158q122 0 217 -24t167.5 -74.5t111 -136t38.5 -201.5q0 -109 -36.5 -192t-99.5 -131t-139.5 -71.5t-164.5 -23.5q-70 0 -90 10z" />
    <glyph glyph-name="uni0403" unicode="&#x403;" horiz-adv-x="1050" 
d="M526 0h-350v1397h244l147 241h338l-205 -241h289v-332h-463v-1065z" />
    <glyph glyph-name="uni0404" unicode="&#x404;" horiz-adv-x="1318" 
d="M762 -37q-147 0 -271.5 49t-216 140.5t-143 231.5t-51.5 314q0 335 183 535.5t493 200.5q256 0 448 -127v-361h-6q-69 77 -172 120.5t-229 43.5q-152 0 -246 -69t-94 -175h665v-313h-665q0 -121 86.5 -193.5t249.5 -72.5q126 0 233 43.5t180 122.5h6v-363
q-178 -127 -450 -127z" />
    <glyph glyph-name="uni0405" unicode="&#x405;" horiz-adv-x="1140" 
d="M1053 406q0 -194 -133.5 -318.5t-368.5 -124.5q-248 0 -428 113v346h6q73 -74 183 -115t210 -41q180 0 180 113q0 42 -31.5 74.5t-82 56t-111.5 48.5t-122.5 59.5t-112 80.5t-82 120.5t-31.5 170.5q0 88 26.5 165t81 141t149.5 101.5t220 37.5q108 0 212.5 -29t185.5 -84
v-346h-7q-71 75 -167 114t-191 39q-77 0 -117.5 -26.5t-40.5 -77.5q0 -37 24.5 -67t65 -50.5t91.5 -44.5t105 -46.5t105 -59.5t91.5 -81.5t65 -114t24.5 -154.5z" />
    <glyph glyph-name="uni0406" unicode="&#x406;" horiz-adv-x="702" 
d="M526 0h-350v1397h350v-1397z" />
    <glyph glyph-name="uni0407" unicode="&#x407;" horiz-adv-x="710" 
d="M526 0h-350v1397h350v-1397zM279 1444h-322v235h322v-235zM754 1444h-320v235h320v-235z" />
    <glyph glyph-name="uni0408" unicode="&#x408;" horiz-adv-x="937" 
d="M352 -37q-135 0 -243 60v346h8q33 -38 77 -59t87 -21q79 0 115 43t36 133v598h-342v12l109 322h581v-1004q0 -94 -23 -169.5t-71.5 -135.5t-133.5 -92.5t-200 -32.5z" />
    <glyph glyph-name="uni0409" unicode="&#x409;" horiz-adv-x="1957" 
d="M1890 459q0 -232 -142.5 -345.5t-397.5 -113.5h-504v1057h-174l-27 -363q-15 -204 -54.5 -339.5t-113 -219t-175.5 -118.5t-253 -37v335q52 0 89.5 12t64.5 42t44 67t29.5 103t19 132t13.5 171l37 555h850v-479h154q256 0 398 -113.5t142 -345.5zM1540 459q0 71 -52 109
t-145 38h-147v-295h147q95 0 146 37.5t51 110.5z" />
    <glyph glyph-name="uni040A" unicode="&#x40a;" horiz-adv-x="2105" 
d="M2040 446q0 -229 -142 -337.5t-399 -108.5h-504v559h-469v-559h-350v1397h350v-506h469v506h348v-506h154q543 0 543 -445zM1690 446q0 134 -197 134h-150v-269h150q197 0 197 135z" />
    <glyph glyph-name="uni040B" unicode="&#x40b;" horiz-adv-x="1601" 
d="M1518 0h-351v332q0 196 -229 196h-164v-528h-350v1065h-363v332h1100v-332h-387v-225h217q251 0 389 -112.5t138 -346.5v-381z" />
    <glyph glyph-name="uni040C" unicode="&#x40c;" horiz-adv-x="1386" 
d="M838 1397h-281l148 241h337zM526 0h-350v1397h350v-1397zM1346 0h-406l-393 702v13l373 682h399l-389 -682v-4z" />
    <glyph glyph-name="uni040D" unicode="&#x40d;" horiz-adv-x="1572" 
d="M932 1397h-281l-205 241h338zM1397 0h-350v821h-3l-530 -833h-338v1409h350v-822h2l531 834h338v-1409z" />
    <glyph glyph-name="uni040E" unicode="&#x40e;" horiz-adv-x="1372" 
d="M700 1413q-148 0 -242.5 70t-111.5 196h246q6 -32 34 -51.5t74 -19.5t74.5 19.5t34.5 51.5h246q-17 -126 -112 -196t-243 -70zM725 0h-375l170 373l-504 1024h406l278 -625h2l285 625h369z" />
    <glyph glyph-name="uni040F" unicode="&#x40f;" horiz-adv-x="1552" 
d="M1376 0h-438v-291h-324v291h-438v1397h350v-1073h500v1073h350v-1397z" />
    <glyph glyph-name="uni0410" unicode="&#x410;" horiz-adv-x="1447" 
d="M1427 0h-385l-104 305h-444l-103 -305h-371l545 1434h316zM842 612l-125 365h-2l-125 -365h252z" />
    <glyph glyph-name="uni0411" unicode="&#x411;" horiz-adv-x="1314" 
d="M1235 434q0 -434 -530 -434h-529v1397h903v-332h-553v-199h179q530 0 530 -432zM885 434q0 67 -47 98t-140 31h-172v-260h172q187 0 187 131z" />
    <glyph glyph-name="uni0412" unicode="&#x412;" horiz-adv-x="1329" 
d="M1235 377q0 -377 -502 -377h-557v1397h539q201 0 320.5 -93.5t119.5 -263.5q0 -108 -52.5 -189.5t-141.5 -131.5v-2q114 -28 194 -115t80 -225zM883 434q0 59 -44 91t-120 32h-193v-256h185q172 0 172 133zM803 977q0 54 -40.5 86.5t-107.5 32.5h-129v-248h166
q111 38 111 129z" />
    <glyph glyph-name="uni0413" unicode="&#x413;" horiz-adv-x="1050" 
d="M526 0h-350v1397h813v-332h-463v-1065z" />
    <glyph glyph-name="uni0414" unicode="&#x414;" horiz-adv-x="1572" 
d="M1491 -291h-322v291h-800v-291h-322v615h170q65 116 98 241t45 297l35 535h930v-1073h166v-615zM975 324v751h-254l-16 -250q-9 -160 -38 -273.5t-85 -227.5h393z" />
    <glyph glyph-name="uni0415" unicode="&#x415;" horiz-adv-x="1138" 
d="M1030 0h-854v1397h801v-314h-451v-217h430v-313h-430v-240h504v-313z" />
    <glyph glyph-name="uni0416" unicode="&#x416;" horiz-adv-x="1988" 
d="M444 0h-405l377 711v4l-353 682h398l338 -682v-13zM1169 0h-350v1397h350v-1397zM1950 0h-406l-354 702v13l338 682h397l-352 -682v-4z" />
    <glyph glyph-name="uni0417" unicode="&#x417;" horiz-adv-x="1181" 
d="M553 -37q-261 0 -430 98v340h6q64 -62 177 -100.5t214 -38.5q97 0 157 37.5t60 108.5q0 65 -51.5 100t-146.5 35h-260v305h258q114 45 114 141q0 70 -52.5 108t-141.5 38q-92 0 -176.5 -38t-143.5 -100h-6v342q159 95 379 95q225 0 361.5 -103.5t136.5 -281.5
q0 -217 -193 -328v-2q124 -29 198 -123.5t74 -239.5q0 -186 -141.5 -289.5t-392.5 -103.5z" />
    <glyph glyph-name="uni0418" unicode="&#x418;" horiz-adv-x="1572" 
d="M1397 0h-350v821h-3l-530 -833h-338v1409h350v-822h2l531 834h338v-1409z" />
    <glyph glyph-name="uni0419" unicode="&#x419;" horiz-adv-x="1572" 
d="M788 1413q-148 0 -242.5 70t-111.5 196h246q6 -32 34 -51.5t74 -19.5t74.5 19.5t34.5 51.5h246q-17 -126 -112 -196t-243 -70zM1397 0h-350v821h-3l-530 -833h-338v1409h350v-822h2l531 834h338v-1409z" />
    <glyph glyph-name="uni041A" unicode="&#x41a;" horiz-adv-x="1386" 
d="M526 0h-350v1397h350v-1397zM1346 0h-406l-393 702v13l373 682h399l-389 -682v-4z" />
    <glyph glyph-name="uni041B" unicode="&#x41b;" horiz-adv-x="1458" 
d="M1278 0h-350v1057h-256l-27 -363q-15 -204 -54.5 -339.5t-113 -219t-175.5 -118.5t-253 -37v335q52 0 89.5 12t64.5 42t44 67t29.5 103t19 132t13.5 171l37 555h932v-1397z" />
    <glyph glyph-name="uni041C" unicode="&#x41c;" horiz-adv-x="1824" 
d="M1696 0h-353l-59 649h-2l-356 -686h-25l-362 688h-2l-56 -651h-352l123 1409h285l374 -760h2l375 760h285z" />
    <glyph glyph-name="uni041D" unicode="&#x41d;" horiz-adv-x="1572" 
d="M1397 0h-350v557h-521v-557h-350v1397h350v-508h521v508h350v-1397z" />
    <glyph glyph-name="uni041E" unicode="&#x41e;" horiz-adv-x="1560" 
d="M1483 698q0 -336 -195 -535.5t-512 -199.5q-150 0 -278 51t-221.5 144t-146 232t-52.5 308q0 336 195.5 536t512.5 200q149 0 277 -51.5t221 -145t146 -232.5t53 -307zM1118 698q0 192 -91 301t-241 109q-152 0 -248 -106.5t-96 -303.5q0 -192 92 -301.5t242 -109.5
q152 0 247 107t95 304z" />
    <glyph glyph-name="uni041F" unicode="&#x41f;" horiz-adv-x="1552" 
d="M1376 0h-350v1065h-500v-1065h-350v1397h1200v-1397z" />
    <glyph glyph-name="uni0420" unicode="&#x420;" horiz-adv-x="1294" 
d="M1206 950q0 -251 -165.5 -382.5t-514.5 -168.5v-399h-350v1397h524q225 0 365.5 -115.5t140.5 -331.5zM854 918q0 78 -51 121.5t-137 43.5h-140v-370q167 6 247.5 61.5t80.5 143.5z" />
    <glyph glyph-name="uni0421" unicode="&#x421;" horiz-adv-x="1249" 
d="M1153 463v-377q-181 -123 -428 -123q-139 0 -257 49.5t-205 141.5t-136 232t-49 312q0 332 174.5 534t464.5 202q253 0 428 -123v-377h-8q-64 77 -157 121.5t-196 44.5q-158 0 -250 -108.5t-92 -293.5q0 -183 93 -292t256 -109q101 0 196 44.5t158 121.5h8z" />
    <glyph glyph-name="uni0422" unicode="&#x422;" horiz-adv-x="1196" 
d="M774 0h-350v1065h-363v332h1074v-332h-361v-1065z" />
    <glyph glyph-name="uni0423" unicode="&#x423;" horiz-adv-x="1372" 
d="M725 0h-375l170 373l-504 1024h406l278 -625h2l285 625h369z" />
    <glyph glyph-name="uni0424" unicode="&#x424;" horiz-adv-x="1753" 
d="M1053 -10h-351v123q-292 21 -461 170t-169 415q0 264 168.5 413t461.5 171v125h351v-125q191 -15 331 -83.5t219.5 -196.5t79.5 -304q0 -264 -169 -413.5t-461 -171.5v-123zM711 422v551q-132 -10 -203.5 -84t-71.5 -191t72 -191.5t203 -84.5zM1047 422
q129 10 199.5 84.5t70.5 191.5q0 116 -71 190.5t-199 84.5v-551z" />
    <glyph glyph-name="uni0425" unicode="&#x425;" horiz-adv-x="1476" 
d="M1423 0h-419l-267 444h-2l-243 -444h-410l399 711l-428 686h418l260 -441h2l246 441h410l-400 -690z" />
    <glyph glyph-name="uni0426" unicode="&#x426;" horiz-adv-x="1601" 
d="M1522 -291h-322v291h-1024v1397h350v-1065h480v1065h350v-1065h166v-623z" />
    <glyph glyph-name="uni0427" unicode="&#x427;" horiz-adv-x="1380" 
d="M1204 0h-350v362q-154 11 -268 32t-199 56t-140 80.5t-88.5 111.5t-47 142.5t-13.5 180.5v432h351v-410q0 -53 4.5 -88t19 -71t41.5 -58.5t71.5 -42t111 -30.5t157.5 -15v715h350v-1397z" />
    <glyph glyph-name="uni0428" unicode="&#x428;" horiz-adv-x="2107" 
d="M1931 0h-1755v1397h350v-1065h353v1065h350v-1065h352v1065h350v-1397z" />
    <glyph glyph-name="uni0429" unicode="&#x429;" horiz-adv-x="2179" 
d="M2099 -291h-323v291h-1600v1397h350v-1065h353v1065h350v-1065h352v1065h350v-1065h168v-623z" />
    <glyph glyph-name="uni042A" unicode="&#x42a;" horiz-adv-x="1550" 
d="M1483 467q0 -238 -138.5 -352.5t-390.5 -114.5h-528v1063h-365v332h713v-463h180q252 0 390.5 -112.5t138.5 -352.5zM1133 467q0 154 -201 154h-158v-310h158q97 0 149 40.5t52 115.5z" />
    <glyph glyph-name="uni042B" unicode="&#x42b;" horiz-adv-x="1847" 
d="M1206 459q0 -232 -141.5 -345.5t-396.5 -113.5h-492v1397h350v-479h140q258 0 399 -112t141 -347zM858 459q0 74 -51 110.5t-145 36.5h-136v-295h136q95 0 145.5 37.5t50.5 110.5zM1671 0h-350v1397h350v-1397z" />
    <glyph glyph-name="uni042C" unicode="&#x42c;" horiz-adv-x="1300" 
d="M1235 467q0 -237 -141 -352t-389 -115h-529v1397h350v-463h179q250 0 390 -113.5t140 -353.5zM885 467q0 77 -51.5 115.5t-145.5 38.5h-162v-310h162q95 0 146 40.5t51 115.5z" />
    <glyph glyph-name="uni042D" unicode="&#x42d;" horiz-adv-x="1318" 
d="M559 -37q-272 0 -450 127v363h6q73 -79 180 -122.5t233 -43.5q163 0 249.5 72.5t86.5 193.5h-665v313h665q0 106 -94 175t-246 69q-126 0 -229 -43.5t-172 -120.5h-6v361q192 127 448 127q310 0 493 -200.5t183 -535.5q0 -174 -51.5 -314t-143 -231.5t-216 -140.5
t-271.5 -49z" />
    <glyph glyph-name="uni042E" unicode="&#x42e;" horiz-adv-x="2174" 
d="M1389 -37q-175 0 -318 68t-239 202.5t-123 319.5h-183v-553h-350v1397h350v-504h191q29 134 94 238t156 170t200.5 99.5t231.5 33.5q149 0 277 -51.5t221.5 -145t146.5 -232.5t53 -307q0 -336 -195.5 -535.5t-512.5 -199.5zM1389 287q152 0 248 107t96 304q0 192 -92 301
t-242 109q-152 0 -247 -106.5t-95 -303.5q0 -192 91 -301.5t241 -109.5z" />
    <glyph glyph-name="uni042F" unicode="&#x42f;" horiz-adv-x="1370" 
d="M1192 0h-350v1085h-140q-102 0 -159.5 -45t-57.5 -122q0 -90 78 -150.5t260 -89.5v-12l-358 -666h-404l299 545v4q-119 71 -173 169t-54 243q0 213 137 324.5t365 111.5h557v-1397z" />
    <glyph glyph-name="uni0430" unicode="&#x430;" horiz-adv-x="1210" 
d="M1073 0h-323v74h-2q-124 -111 -293 -111q-152 0 -254.5 91.5t-102.5 252.5q0 157 103.5 251.5t290.5 94.5q140 0 249 -57v49q0 84 -68 125t-179 41q-89 0 -176.5 -35.5t-149.5 -93.5h-6v305q170 103 401 103q110 0 200.5 -26t161 -79.5t109.5 -143.5t39 -210v-631z
M741 303v66q-70 39 -170 39q-147 0 -147 -89q0 -40 37 -67t104 -27q110 0 176 78z" />
    <glyph glyph-name="uni0431" unicode="&#x431;" horiz-adv-x="1271" 
d="M1210 526q0 -257 -151 -410t-410 -153q-265 0 -418 173t-153 499q0 159 19.5 277t76.5 235q52 118 129 188t221 103q70 16 190.5 26t215 27.5t157.5 58.5h7v-299q-43 -19 -106.5 -34.5t-102 -22t-127.5 -17.5t-107 -14q-200 -31 -237 -231l4 -2q38 51 114.5 84t165.5 33
q107 0 198.5 -32.5t162 -95t111 -163.5t40.5 -230zM864 514q0 118 -58 185t-161 67q-104 0 -161.5 -69t-57.5 -169q0 -120 56 -197t163 -77q102 0 160.5 71t58.5 189z" />
    <glyph glyph-name="uni0432" unicode="&#x432;" horiz-adv-x="1189" 
d="M1114 283q0 -283 -379 -283h-581v1053h567q152 0 243 -71.5t91 -199.5q0 -87 -41.5 -145t-136.5 -94v-2q113 -19 175 -83.5t62 -174.5zM764 328q0 78 -111 78h-168v-154h158q121 0 121 76zM705 733q0 30 -28 48t-77 18h-115v-148h142q78 19 78 82z" />
    <glyph glyph-name="uni0433" unicode="&#x433;" horiz-adv-x="960" 
d="M485 0h-331v1053h759v-287h-428v-766z" />
    <glyph glyph-name="uni0434" unicode="&#x434;" horiz-adv-x="1372" 
d="M1309 -291h-305v291h-662v-291h-305v578h139q53 97 79.5 190.5t33.5 233.5l18 342h842v-766h160v-578zM817 287v479h-211l-10 -143q-8 -184 -84 -336h305z" />
    <glyph glyph-name="uni0435" unicode="&#x435;" horiz-adv-x="1189" 
d="M1061 63q-155 -100 -408 -100q-175 0 -309 66t-209.5 194.5t-75.5 302.5q0 256 142.5 410t392.5 154q144 0 260.5 -59t187 -176.5t70.5 -274.5q0 -68 -6 -123h-696q19 -104 100 -161.5t213 -57.5q93 0 181.5 35t150.5 92h6v-302zM764 707q-9 58 -55 94.5t-117 36.5
q-74 0 -121.5 -34t-60.5 -97h354z" />
    <glyph glyph-name="uni0436" unicode="&#x436;" horiz-adv-x="1771" 
d="M418 0h-391l311 532v5l-287 516h383l268 -516v-9zM1053 0h-332v1053h332v-1053zM1745 0h-391l-287 528v9l270 516h383l-286 -516v-5z" />
    <glyph glyph-name="uni0437" unicode="&#x437;" horiz-adv-x="1026" 
d="M956 276q0 -145 -117.5 -229t-336.5 -84q-272 0 -408 86v299h6q54 -57 137 -91t181 -34q97 0 142.5 26.5t45.5 67.5q0 89 -157 89h-252v260h270q65 27 65 84q0 32 -35 55.5t-108 23.5q-84 0 -156.5 -32.5t-117.5 -91.5h-6v296q131 89 362 89q207 0 315.5 -75t108.5 -212
q0 -84 -33 -138.5t-112 -101.5v-2q206 -63 206 -285z" />
    <glyph glyph-name="uni0438" unicode="&#x438;" horiz-adv-x="1351" 
d="M1198 0h-332v565h-2l-391 -577h-319v1065h331v-570h2l390 580h321v-1063z" />
    <glyph glyph-name="uni0439" unicode="&#x439;" horiz-adv-x="1351" 
d="M680 1190q-179 0 -274.5 93.5t-108.5 252.5h250q10 -62 43.5 -99.5t89.5 -37.5t89.5 37.5t43.5 99.5h250q-13 -159 -108.5 -252.5t-274.5 -93.5zM1198 0h-332v565h-2l-391 -577h-319v1065h331v-570h2l390 580h321v-1063z" />
    <glyph glyph-name="uni043A" unicode="&#x43a;" horiz-adv-x="1247" 
d="M485 0h-331v1053h331v-1053zM1219 0h-390l-327 528v9l311 516h381l-326 -516v-5z" />
    <glyph glyph-name="uni043B" unicode="&#x43b;" horiz-adv-x="1259" 
d="M1106 0h-332v766h-194l-19 -223q-29 -316 -140 -439.5t-370 -123.5v282q48 0 82 17t55.5 45.5t35 81.5t19.5 110.5t11 145.5l27 391h825v-1053z" />
    <glyph glyph-name="uni043C" unicode="&#x43c;" horiz-adv-x="1554" 
d="M1436 0h-328l-43 438h-2l-270 -471h-31l-270 471h-3l-40 -438h-328l90 1063h319l248 -502h2l248 502h313z" />
    <glyph glyph-name="uni043D" unicode="&#x43d;" horiz-adv-x="1343" 
d="M1192 0h-332v401h-375v-401h-331v1053h331v-367h375v367h332v-1053z" />
    <glyph glyph-name="uni043E" unicode="&#x43e;" horiz-adv-x="1265" 
d="M858 526q0 128 -60 203.5t-161 75.5q-104 0 -166.5 -73.5t-62.5 -205.5q0 -129 60 -203.5t163 -74.5t165 73t62 205zM1208 526q0 -256 -158.5 -409.5t-418.5 -153.5q-255 0 -413.5 153t-158.5 410q0 256 158.5 410t419.5 154q253 0 412 -153.5t159 -410.5z" />
    <glyph glyph-name="uni043F" unicode="&#x43f;" horiz-adv-x="1323" 
d="M1171 0h-331v766h-355v-766h-331v1053h1017v-1053z" />
    <glyph glyph-name="uni0440" unicode="&#x440;" horiz-adv-x="1314" 
d="M1247 526q0 -261 -133.5 -412t-347.5 -151q-168 0 -279 80h-2v-438h-331v1448h329v-80h2q133 117 308 117q203 0 328.5 -154.5t125.5 -409.5zM901 526q0 127 -61 199t-158 72q-115 0 -197 -105v-344q80 -92 191 -92q100 0 162.5 70.5t62.5 199.5z" />
    <glyph glyph-name="uni0441" unicode="&#x441;" horiz-adv-x="972" 
d="M893 389v-332q-137 -94 -328 -94q-106 0 -198 38t-160.5 108t-108 177.5t-39.5 239.5q0 253 138.5 408.5t363.5 155.5q192 0 326 -95v-329h-6q-42 57 -109 93t-139 36q-102 0 -163.5 -74.5t-61.5 -196.5q0 -120 64 -194t175 -74q68 0 133.5 37.5t106.5 95.5h6z" />
    <glyph glyph-name="uni0442" unicode="&#x442;" horiz-adv-x="952" 
d="M641 0h-332v766h-262v287h858v-287h-264v-766z" />
    <glyph glyph-name="uni0443" unicode="&#x443;" horiz-adv-x="1218" 
d="M657 -395h-370l164 397l-437 1051h379l225 -631h3l204 631h371z" />
    <glyph glyph-name="uni0444" unicode="&#x444;" horiz-adv-x="1714" 
d="M1649 526q0 -255 -121 -409t-330 -154q-85 0 -174 27v-385h-332v385q-106 -27 -176 -27q-208 0 -328 154t-120 409t120 409.5t328 154.5q94 0 176 -27v473h332v-473q82 27 174 27q209 0 330 -154.5t121 -409.5zM692 274v502q-54 21 -90 21q-89 0 -137.5 -71.5
t-48.5 -199.5t48.5 -199t137.5 -71q44 0 90 18zM1300 526q0 128 -48.5 199.5t-137.5 71.5q-36 0 -90 -21v-502q46 -18 90 -18q89 0 137.5 71t48.5 199z" />
    <glyph glyph-name="uni0445" unicode="&#x445;" horiz-adv-x="1212" 
d="M1194 0h-387l-199 319h-2l-184 -319h-379l324 532l-347 521h386l196 -320h2l184 320h381l-325 -521z" />
    <glyph glyph-name="uni0446" unicode="&#x446;" horiz-adv-x="1361" 
d="M1300 -291h-305v291h-841v1053h331v-766h330v766h332v-766h153v-578z" />
    <glyph glyph-name="uni0447" unicode="&#x447;" horiz-adv-x="1204" 
d="M1051 0h-332v248q-232 15 -368 66t-195.5 142.5t-59.5 239.5v357h342v-297q0 -54 9 -86.5t37.5 -60.5t85 -42t149.5 -20v506h332v-1053z" />
    <glyph glyph-name="uni0448" unicode="&#x448;" horiz-adv-x="1855" 
d="M1702 0h-1548v1053h331v-766h277v766h332v-766h276v766h332v-1053z" />
    <glyph glyph-name="uni0449" unicode="&#x449;" horiz-adv-x="1925" 
d="M1860 -291h-306v291h-1400v1053h331v-768h277v768h332v-768h276v768h332v-768h158v-576z" />
    <glyph glyph-name="uni044A" unicode="&#x44a;" horiz-adv-x="1290" 
d="M866 358q0 47 -31.5 74t-91.5 27h-122v-207h116q68 0 98.5 25.5t30.5 80.5zM1217 356q0 -168 -102 -262t-286 -94h-540v766h-250v287h582v-342h221q179 0 277 -98t98 -257z" />
    <glyph glyph-name="uni044B" unicode="&#x44b;" horiz-adv-x="1619" 
d="M1047 352q0 -165 -102 -258.5t-283 -93.5h-508v1053h331v-348h187q176 0 275.5 -96.5t99.5 -256.5zM696 352q0 99 -121 99h-90v-199h82q129 0 129 100zM1466 0h-331v1053h331v-1053z" />
    <glyph glyph-name="uni044C" unicode="&#x44c;" horiz-adv-x="1155" 
d="M1081 356q0 -163 -103 -259.5t-284 -96.5h-540v1053h331v-342h209q181 0 284 -99t103 -256zM731 354q0 53 -34 80t-89 27h-123v-209h117q129 0 129 102z" />
    <glyph glyph-name="uni044D" unicode="&#x44d;" horiz-adv-x="1114" 
d="M483 -37q-241 0 -389 94v312h8q123 -138 347 -138q120 0 193 48t73 129h-506v258h504q-3 66 -73 109.5t-187 43.5q-101 0 -189 -34t-145 -101h-8v309q150 97 387 97q161 0 286.5 -66.5t198 -195.5t72.5 -302q0 -251 -156.5 -407t-415.5 -156z" />
    <glyph glyph-name="uni044E" unicode="&#x44e;" horiz-adv-x="1785" 
d="M1151 -37q-219 0 -368.5 116.5t-184.5 323.5h-113v-403h-331v1053h331v-363h121q46 187 192.5 293.5t358.5 106.5q166 0 295.5 -68t203 -197t73.5 -299q0 -256 -159 -409.5t-419 -153.5zM1151 248q103 0 165 73t62 205q0 128 -60 203.5t-161 75.5q-104 0 -166.5 -73.5
t-62.5 -205.5q0 -129 60 -203.5t163 -74.5z" />
    <glyph glyph-name="uni044F" unicode="&#x44f;" horiz-adv-x="1241" 
d="M1090 0h-332v772h-168q-71 0 -108.5 -24t-37.5 -70q0 -63 64 -106.5t235 -86.5v-8l-311 -477h-393l287 389v2q-232 101 -232 336q0 159 107 242.5t286 83.5h603v-1053z" />
    <glyph glyph-name="uni0450" unicode="&#x450;" horiz-adv-x="1189" 
d="M1061 63q-155 -100 -408 -100q-175 0 -309 66t-209.5 194.5t-75.5 302.5q0 256 142.5 410t392.5 154q144 0 260.5 -59t187 -176.5t70.5 -274.5q0 -68 -6 -123h-696q19 -104 100 -161.5t213 -57.5q93 0 181.5 35t150.5 92h6v-302zM764 707q-9 58 -55 94.5t-117 36.5
q-74 0 -121.5 -34t-60.5 -97h354zM768 1159h-283l-270 377h338z" />
    <glyph glyph-name="uni0451" unicode="&#x451;" horiz-adv-x="1189" 
d="M516 1262h-321v274h321v-274zM991 1262h-319v274h319v-274zM1061 63q-155 -100 -408 -100q-175 0 -309 66t-209.5 194.5t-75.5 302.5q0 256 142.5 410t392.5 154q144 0 260.5 -59t187 -176.5t70.5 -274.5q0 -68 -6 -123h-696q19 -104 100 -161.5t213 -57.5q93 0 181.5 35
t150.5 92h6v-302zM764 707q-9 58 -55 94.5t-117 36.5q-74 0 -121.5 -34t-60.5 -97h354z" />
    <glyph glyph-name="uni0452" unicode="&#x452;" horiz-adv-x="1310" 
d="M836 25v583q0 92 -45.5 140.5t-120.5 48.5q-106 0 -185 -105v-692h-331v1174h-154v260h154v102h331v-102h416v-260h-416v-199h2q128 115 299 115q77 0 144.5 -23t121 -68t84.5 -118t31 -166v-723q0 -191 -93.5 -289t-248.5 -98q-102 0 -202 35v260h6q43 -29 96 -29
q111 0 111 154z" />
    <glyph glyph-name="uni0453" unicode="&#x453;" horiz-adv-x="960" 
d="M666 1157h-283l227 379h326zM485 0h-331v1053h759v-287h-428v-766z" />
    <glyph glyph-name="uni0454" unicode="&#x454;" horiz-adv-x="1114" 
d="M631 -37q-259 0 -415.5 156t-156.5 407q0 173 72.5 302t198 195.5t286.5 66.5q241 0 388 -97v-309h-7q-58 67 -146.5 101t-188.5 34q-117 0 -186.5 -43t-74.5 -110h504v-258h-504q0 -81 73.5 -129t191.5 -48q223 0 346 138h8v-312q-148 -94 -389 -94z" />
    <glyph glyph-name="uni0455" unicode="&#x455;" horiz-adv-x="1001" 
d="M901 315q0 -163 -107.5 -257.5t-318.5 -94.5q-215 0 -360 82v305h6q58 -59 150 -93t180 -34q129 0 129 72q0 26 -25.5 45t-66 33.5t-89.5 30t-98.5 41.5t-90 61.5t-66 96.5t-25.5 140q0 161 103 254t296 93q207 0 346 -84v-304h-6q-59 57 -142.5 92t-164.5 35
q-53 0 -79 -19t-26 -50q0 -26 25 -45t65 -33t89 -29.5t97.5 -41.5t88.5 -61.5t65 -96t25 -138.5z" />
    <glyph glyph-name="uni0456" unicode="&#x456;" horiz-adv-x="636" 
d="M485 0h-331v1053h331v-1053zM494 1262h-349v274h349v-274z" />
    <glyph glyph-name="uni0457" unicode="&#x457;" horiz-adv-x="636" 
d="M485 0h-331v1053h331v-1053zM242 1262h-322v274h322v-274zM717 1262h-320v274h320v-274z" />
    <glyph glyph-name="uni0458" unicode="&#x458;" horiz-adv-x="636" 
d="M117 -395q-142 0 -238 51v276h6q62 -59 146 -59q123 0 123 139v1041h331v-1057q0 -197 -97.5 -294t-270.5 -97zM494 1262h-349v274h349v-274z" />
    <glyph glyph-name="uni0459" unicode="&#x459;" horiz-adv-x="1687" 
d="M1614 348q0 -164 -103 -256t-288 -92h-504v766h-139l-19 -223q-14 -157 -45.5 -259t-92 -169t-150 -95t-222.5 -28v282q48 0 82 16.5t55.5 44.5t35 79t19.5 106.5t11 141.5l27 391h770v-357h182q177 0 279 -94.5t102 -253.5zM1264 348q0 96 -121 96h-92v-192h86
q127 0 127 96z" />
    <glyph glyph-name="uni045A" unicode="&#x45a;" horiz-adv-x="1796" 
d="M1720 348q0 -158 -102 -253t-283 -95h-508v399h-342v-399h-331v1053h331v-367h342v367h332v-355h187q175 0 274.5 -98t99.5 -252zM1370 350q0 44 -30.5 70t-90.5 26h-90v-194h84q127 0 127 98z" />
    <glyph glyph-name="uni045B" unicode="&#x45b;" horiz-adv-x="1310" 
d="M1167 0h-331v608q0 92 -45.5 140.5t-120.5 48.5q-106 0 -185 -105v-692h-331v1174h-154v260h154v102h331v-102h416v-260h-416v-199h2q128 115 299 115q77 0 144.5 -23t121 -68t84.5 -118t31 -166v-715z" />
    <glyph glyph-name="uni045C" unicode="&#x45c;" horiz-adv-x="1245" 
d="M793 1157h-283l227 379h326zM485 0h-331v1053h331v-1053zM1219 0h-390l-327 528v9l311 516h381l-326 -516v-5z" />
    <glyph glyph-name="uni045D" unicode="&#x45d;" horiz-adv-x="1351" 
d="M1198 0h-332v565h-2l-391 -577h-319v1065h331v-570h2l390 580h321v-1063zM858 1159h-283l-270 377h338z" />
    <glyph glyph-name="uni045E" unicode="&#x45e;" horiz-adv-x="1218" 
d="M616 1190q-179 0 -274.5 93.5t-108.5 252.5h250q10 -62 43.5 -99.5t89.5 -37.5t90.5 37.5t43.5 99.5h249q-13 -159 -108.5 -252.5t-274.5 -93.5zM657 -395h-370l164 397l-437 1051h379l225 -631h3l204 631h371z" />
    <glyph glyph-name="uni045F" unicode="&#x45f;" horiz-adv-x="1323" 
d="M813 -291h-305v291h-354v1053h331v-766h355v766h331v-1053h-358v-291z" />
    <glyph glyph-name="uni0462" unicode="&#x462;" horiz-adv-x="1533" 
d="M1466 438q0 -215 -144 -326.5t-396 -111.5h-504v989h-361v332h361v76h352v-76h443v-326h-443v-127h150q257 0 399.5 -107t142.5 -323zM1116 438q0 127 -182 127h-160v-254h160q182 0 182 127z" />
    <glyph glyph-name="uni0463" unicode="&#x463;" horiz-adv-x="1277" 
d="M1202 334q0 -156 -100 -245t-283 -89h-522v795h-250v258h250v346h332v-346h291v-250h-291v-137h200q176 0 274.5 -91t98.5 -241zM854 336q0 80 -119 80h-106v-164h100q125 0 125 84z" />
    <glyph glyph-name="uni0472" unicode="&#x472;" horiz-adv-x="1560" 
d="M1483 698q0 -336 -195 -535.5t-512 -199.5q-150 0 -278 51t-221.5 144t-146 232t-52.5 308q0 336 195.5 536t512.5 200q149 0 277 -51.5t221 -145t146 -232.5t53 -307zM776 287q120 0 206.5 67.5t119.5 196.5h-643q32 -127 115.5 -195.5t201.5 -68.5zM786 1108
q-116 0 -201.5 -63.5t-121.5 -182.5h633q-34 118 -115.5 182t-194.5 64z" />
    <glyph glyph-name="uni0473" unicode="&#x473;" horiz-adv-x="1265" 
d="M1208 526q0 -256 -158.5 -409.5t-418.5 -153.5q-255 0 -413.5 153t-158.5 410q0 256 158.5 410t419.5 154q253 0 412 -153.5t159 -410.5zM631 248q76 0 131 41.5t80 118.5h-418q23 -76 77 -118t130 -42zM637 805q-78 0 -133 -41.5t-80 -118.5h418q-23 76 -77 118t-128 42
z" />
    <glyph glyph-name="uni0474" unicode="&#x474;" horiz-adv-x="1427" 
d="M844 -37h-287l-541 1434h387l304 -914h2l137 428q49 169 95.5 279t111.5 207h372q-81 -118 -133 -231t-123 -306z" />
    <glyph glyph-name="uni0475" unicode="&#x475;" horiz-adv-x="1216" 
d="M735 -37h-254l-465 1090h377l215 -613h2l86 271q67 245 131 342h377q-18 -25 -35.5 -53t-30 -49t-28.5 -54l-24 -49.5t-24 -55.5t-20.5 -51t-22.5 -58t-22 -56z" />
    <glyph glyph-name="uni0490" unicode="&#x490;" horiz-adv-x="1050" 
d="M526 0h-350v1397h492v276h321v-608h-463v-1065z" />
    <glyph glyph-name="uni0491" unicode="&#x491;" horiz-adv-x="960" 
d="M485 0h-331v1053h456v290h303v-577h-428v-766z" />
    <glyph glyph-name="uni0492" unicode="&#x492;" horiz-adv-x="1050" 
d="M526 0h-350v444h-176v334h176v619h813v-332h-463v-287h283v-334h-283v-444z" />
    <glyph glyph-name="uni0493" unicode="&#x493;" horiz-adv-x="960" 
d="M485 0h-331v311h-144v264h144v478h759v-287h-428v-191h228v-264h-228v-311z" />
    <glyph glyph-name="uni0496" unicode="&#x496;" horiz-adv-x="2031" 
d="M444 0h-405l377 711v4l-353 682h398l338 -682v-13zM1169 0h-350v1397h350v-1397zM1790 322h195v-613h-324v291h-117l-354 702v13l338 682h397l-352 -682v-4z" />
    <glyph glyph-name="uni0497" unicode="&#x497;" horiz-adv-x="1824" 
d="M418 0h-391l311 532v5l-287 516h383l268 -516v-9zM1053 0h-332v1053h332v-1053zM1354 0l-287 528v9l270 516h381l-284 -516v-5l151 -247h187v-576h-308v291h-110z" />
    <glyph glyph-name="uni049A" unicode="&#x49a;" horiz-adv-x="1415" 
d="M526 0h-350v1397h350v-1397zM1171 322h197v-613h-324v291h-104l-393 702v13l373 682h399l-389 -682v-4z" />
    <glyph glyph-name="uni049B" unicode="&#x49b;" horiz-adv-x="1298" 
d="M485 0h-331v1053h331v-1053zM1038 285h207v-576h-307v291h-109l-327 528v9l309 516h383l-326 -516v-5z" />
    <glyph glyph-name="uni04A2" unicode="&#x4a2;" horiz-adv-x="1644" 
d="M1397 322h168v-613h-322v291h-196v557h-521v-557h-350v1397h350v-508h521v508h350v-1075z" />
    <glyph glyph-name="uni04A3" unicode="&#x4a3;" horiz-adv-x="1415" 
d="M1352 -291h-308v291h-184v399h-375v-399h-331v1053h331v-367h375v367h332v-768h160v-576z" />
    <glyph glyph-name="uni04AE" unicode="&#x4ae;" horiz-adv-x="1357" 
d="M856 0h-350v526l-492 871h416l244 -486h2l262 486h405l-487 -869v-528z" />
    <glyph glyph-name="uni04AF" unicode="&#x4af;" horiz-adv-x="1216" 
d="M442 -393v393l-426 1053h377l215 -650h2l215 650h375l-426 -1053v-393h-332z" />
    <glyph glyph-name="uni04B0" unicode="&#x4b0;" horiz-adv-x="1384" 
d="M870 0h-350v371h-227v276h160l-424 750h415l244 -486h2l262 486h406l-422 -750h160v-276h-226v-371z" />
    <glyph glyph-name="uni04B1" unicode="&#x4b1;" horiz-adv-x="1216" 
d="M774 -395h-332v178h-256v287h228l-398 983h377l215 -662h2l213 662h377l-397 -983h229v-287h-258v-178z" />
    <glyph glyph-name="uni04B2" unicode="&#x4b2;" horiz-adv-x="1503" 
d="M1227 322h227v-613h-321v291h-127l-269 444h-2l-243 -444h-410l399 711l-428 686h416l262 -439h2l246 439h410l-400 -690z" />
    <glyph glyph-name="uni04B3" unicode="&#x4b3;" horiz-adv-x="1290" 
d="M1008 285h229v-576h-307v291h-123l-203 317h-2l-180 -317h-379l326 537l-349 516h386l200 -316h2l180 316h381l-329 -525z" />
    <glyph glyph-name="uni04B6" unicode="&#x4b6;" horiz-adv-x="1447" 
d="M1370 -291h-321v291h-195v362q-154 11 -268 32t-199 56t-140 80.5t-88.5 111.5t-47 142.5t-13.5 180.5v432h351v-410q0 -53 4.5 -88t19 -71t41.5 -58.5t71.5 -42t111 -30.5t157.5 -15v715h348v-1075h168v-613z" />
    <glyph glyph-name="uni04B7" unicode="&#x4b7;" horiz-adv-x="1284" 
d="M1061 285h158v-576h-306v291h-184v248q-343 21 -484 124.5t-141 323.5v357h345v-297q0 -55 8.5 -87t37 -60t85 -42t149.5 -20v506h332v-768z" />
    <glyph glyph-name="uni04BA" unicode="&#x4ba;" horiz-adv-x="1353" 
d="M1270 0h-350v420q0 196 -230 196h-164v-616h-350v1399h350v-469h215q252 0 390.5 -112.5t138.5 -346.5v-471z" />
    <glyph glyph-name="uni04BB" unicode="&#x4bb;" horiz-adv-x="1310" 
d="M1167 0h-331v608q0 92 -45.5 140.5t-120.5 48.5q-106 0 -185 -105v-692h-331v1536h331v-561h2q128 115 299 115q77 0 144.5 -23t121 -68t84.5 -118t31 -166v-715z" />
    <glyph glyph-name="uni04C0" unicode="&#x4c0;" horiz-adv-x="702" 
d="M526 0h-350v1397h350v-1397z" />
    <glyph glyph-name="uni04D8" unicode="&#x4d8;" horiz-adv-x="1562" 
d="M168 1300q219 134 532 134q229 0 403.5 -86.5t273 -254.5t98.5 -395q0 -334 -185.5 -534.5t-511.5 -200.5q-139 0 -261.5 45t-215 128.5t-146 211t-53.5 283.5q0 79 9 149h917q-23 154 -131.5 237t-284.5 83q-127 0 -241 -45.5t-193 -128.5h-10v374zM549 467
q12 -90 74.5 -143.5t160.5 -53.5q94 0 159.5 52.5t82.5 144.5h-477z" />
    <glyph glyph-name="uni04D9" unicode="&#x4d9;" horiz-adv-x="1189" 
d="M121 989q167 101 409 101q265 0 428.5 -151t163.5 -413q0 -257 -142 -410t-392 -153q-106 0 -200 34.5t-164 98t-111 160.5t-41 215q0 69 6 125h696q-19 104 -99.5 160.5t-213.5 56.5q-93 0 -182 -34t-150 -91h-8v301zM420 346q8 -58 55 -94.5t119 -36.5t119.5 33
t60.5 98h-354z" />
    <glyph glyph-name="uni04E2" unicode="&#x4e2;" horiz-adv-x="1572" 
d="M1153 1458h-729v221h729v-221zM1397 0h-350v821h-3l-530 -833h-338v1409h350v-822h2l531 834h338v-1409z" />
    <glyph glyph-name="uni04E3" unicode="&#x4e3;" horiz-adv-x="1351" 
d="M1198 0h-332v565h-2l-391 -577h-319v1065h331v-570h2l390 580h321v-1063zM1061 1274h-770v248h770v-248z" />
    <glyph glyph-name="uni04E8" unicode="&#x4e8;" horiz-adv-x="1560" 
d="M1483 698q0 -336 -195 -535.5t-512 -199.5q-150 0 -278 51t-221.5 144t-146 232t-52.5 308q0 336 195.5 536t512.5 200q149 0 277 -51.5t221 -145t146 -232.5t53 -307zM776 287q120 0 206.5 67.5t119.5 196.5h-643q32 -127 115.5 -195.5t201.5 -68.5zM786 1108
q-116 0 -201.5 -63.5t-121.5 -182.5h633q-34 118 -115.5 182t-194.5 64z" />
    <glyph glyph-name="uni04E9" unicode="&#x4e9;" horiz-adv-x="1267" 
d="M1208 526q0 -256 -158.5 -409.5t-418.5 -153.5q-255 0 -413.5 153t-158.5 410q0 256 158.5 410t419.5 154q253 0 412 -153.5t159 -410.5zM631 248q76 0 131 41.5t80 118.5h-418q23 -76 77 -118t130 -42zM637 805q-78 0 -133 -41.5t-80 -118.5h418q-23 76 -77 118t-128 42
z" />
    <glyph glyph-name="uni04EE" unicode="&#x4ee;" horiz-adv-x="1372" 
d="M1065 1458h-729v221h729v-221zM725 0h-375l170 373l-504 1024h406l278 -625h2l285 625h369z" />
    <glyph glyph-name="uni04EF" unicode="&#x4ef;" horiz-adv-x="1218" 
d="M997 1274h-770v248h770v-248zM657 -395h-370l164 397l-437 1051h379l225 -631h3l204 631h371z" />
    <glyph glyph-name="Wgrave" unicode="&#x1e80;" horiz-adv-x="2072" 
d="M1554 -37h-286l-230 651h-2l-229 -651h-289l-491 1434h383l274 -856h2l182 575l-86 281h78l-205 241h338l148 -241h2l266 -856h2l268 856h367z" />
    <glyph glyph-name="wgrave" unicode="&#x1e81;" horiz-adv-x="1802" 
d="M1364 -37h-225l-234 459h-2l-239 -459h-226l-415 1090h372l185 -529h2l307 566h29l303 -566h2l184 529h373zM1044 1159h-282l-270 377h337z" />
    <glyph glyph-name="Wacute" unicode="&#x1e82;" horiz-adv-x="2072" 
d="M1554 -37h-286l-230 651h-2l-229 -651h-289l-491 1434h383l274 -856h2l182 575l-86 281h70l147 241h338l-204 -241h10l266 -856h2l268 856h367z" />
    <glyph glyph-name="wacute" unicode="&#x1e83;" horiz-adv-x="1802" 
d="M1038 1157h-282l227 379h326zM1364 -37h-225l-234 459h-2l-239 -459h-226l-415 1090h372l185 -529h2l307 566h29l303 -566h2l184 529h373z" />
    <glyph glyph-name="Wdieresis" unicode="&#x1e84;" horiz-adv-x="2072" 
d="M944 1444h-321v235h321v-235zM1419 1444h-319v235h319v-235zM1554 -37h-286l-230 651h-2l-229 -651h-289l-491 1434h383l274 -856h2l182 575l-86 281h361l266 -856h2l268 856h367z" />
    <glyph glyph-name="wdieresis" unicode="&#x1e85;" horiz-adv-x="1802" 
d="M823 1262h-321v274h321v-274zM1298 1262h-319v274h319v-274zM1364 -37h-225l-234 459h-2l-239 -459h-226l-415 1090h372l185 -529h2l307 566h29l303 -566h2l184 529h373z" />
    <glyph glyph-name="Ygrave" unicode="&#x1ef2;" horiz-adv-x="1357" 
d="M856 0h-350v526l-492 871h416l244 -486h2l262 486h405l-487 -869v-528zM827 1397h-280l-205 241h338z" />
    <glyph glyph-name="ygrave" unicode="&#x1ef3;" horiz-adv-x="1218" 
d="M657 -395h-370l164 397l-437 1051h379l225 -631h3l204 631h371zM743 1159h-282l-271 377h338z" />
    <glyph glyph-name="endash" unicode="&#x2013;" 
d="M1085 414h-1065v274h1065v-274z" />
    <glyph glyph-name="emdash" unicode="&#x2014;" horiz-adv-x="2211" 
d="M2191 414h-2171v274h2171v-274z" />
    <glyph glyph-name="quoteleft" unicode="&#x2018;" horiz-adv-x="552" 
d="M336 782h-309v11l168 604h303z" />
    <glyph glyph-name="quoteright" unicode="&#x2019;" horiz-adv-x="552" 
d="M358 782h-303l162 615h309v-11z" />
    <glyph glyph-name="quotesinglbase" unicode="&#x201a;" horiz-adv-x="552" 
d="M293 -283h-303l162 615h309v-10z" />
    <glyph glyph-name="quotedblleft" unicode="&#x201c;" horiz-adv-x="1015" 
d="M379 782h-309v11l168 604h303zM811 782h-309v11l168 604h303z" />
    <glyph glyph-name="quotedblright" unicode="&#x201d;" horiz-adv-x="1015" 
d="M373 782h-303l161 615h310v-11zM807 782h-303l162 615h309v-11z" />
    <glyph glyph-name="quotedblbase" unicode="&#x201e;" horiz-adv-x="1015" 
d="M336 -283h-303l162 615h309v-10zM768 -283h-303l162 615h309v-10z" />
    <glyph glyph-name="dagger" unicode="&#x2020;" horiz-adv-x="1163" 
d="M733 0h-303v844h-280v270h280v283h303v-283h281v-270h-281v-844z" />
    <glyph glyph-name="daggerdbl" unicode="&#x2021;" horiz-adv-x="1163" 
d="M733 0h-303v283h-280v270h280v291h-280v270h280v283h303v-283h281v-270h-281v-291h281v-270h-281v-283z" />
    <glyph glyph-name="bullet" unicode="&#x2022;" horiz-adv-x="872" 
d="M748 223h-623v662h623v-662z" />
    <glyph glyph-name="ellipsis" unicode="&#x2026;" horiz-adv-x="2048" 
d="M547 0h-332v332h332v-332zM1190 0h-332v332h332v-332zM1833 0h-332v332h332v-332z" />
    <glyph glyph-name="perthousand" unicode="&#x2030;" horiz-adv-x="2643" 
d="M745 944q0 -125 -29 -219.5t-80.5 -150t-115 -82.5t-139.5 -27q-75 0 -138.5 27t-114 82.5t-79.5 150t-29 219.5t29 219t79.5 149t114 82t138.5 27q76 0 139.5 -27t115 -82t80.5 -149t29 -219zM498 944q0 100 -15.5 159t-39.5 79t-60 20q-37 0 -60.5 -20t-39 -78.5
t-15.5 -159.5q0 -140 29 -200t84 -60q57 0 87 60t30 200zM1858 455q0 -125 -29 -219.5t-80.5 -150t-115.5 -83t-140 -27.5q-75 0 -138 27.5t-114 83t-79.5 150t-28.5 219.5t28.5 219t79.5 149t114 82t138 27q76 0 140 -27t115.5 -82t80.5 -149t29 -219zM1610 455
q0 100 -15.5 159t-39.5 79t-60 20q-37 0 -60.5 -20t-39 -78.5t-15.5 -159.5q0 -140 29 -200t84 -60q57 0 87 60t30 200zM2623 455q0 -125 -29 -219.5t-80 -150t-115 -83t-140 -27.5q-75 0 -138.5 27.5t-114 83t-79.5 150t-29 219.5t29 219t79.5 149t114 82t138.5 27
q76 0 139.5 -27t115 -82t80.5 -149t29 -219zM2376 455q0 100 -15.5 159t-39.5 79t-60 20q-37 0 -60.5 -20t-39 -78.5t-15.5 -159.5q0 -140 29 -200t84 -60q57 0 87 60t30 200zM741 0h-274l670 1397h274z" />
    <glyph glyph-name="guilsinglleft" unicode="&#x2039;" horiz-adv-x="663" 
d="M602 154h-303l-238 391v12l238 391h303l-225 -397z" />
    <glyph glyph-name="guilsinglright" unicode="&#x203a;" horiz-adv-x="663" 
d="M365 154h-304l226 397l-226 397h304l237 -391v-12z" />
    <glyph glyph-name="fraction" unicode="&#x2044;" horiz-adv-x="399" 
d="M2 0h-274l669 1397h275z" />
    <glyph glyph-name="zerosuperior" unicode="&#x2070;" horiz-adv-x="765" 
d="M745 1059q0 -125 -29 -219.5t-80.5 -150t-115 -82.5t-139.5 -27q-75 0 -138.5 27t-114 82.5t-79.5 150t-29 219.5t29 219t79.5 149t114 82t138.5 27q76 0 139.5 -27t115 -82t80.5 -149t29 -219zM498 1059q0 100 -15.5 159t-39.5 79t-60 20q-37 0 -60.5 -20t-39 -78.5
t-15.5 -159.5q0 -140 29 -200t84 -60q57 0 87 60t30 200z" />
    <glyph glyph-name="foursuperior" unicode="&#x2074;" horiz-adv-x="765" 
d="M737 793h-104v-189h-242v189h-354v184l397 559h199v-555h104v-188zM399 981v211h-2l-143 -211h145z" />
    <glyph glyph-name="fivesuperior" unicode="&#x2075;" horiz-adv-x="765" 
d="M700 895q0 -148 -94 -231.5t-248 -83.5q-152 0 -266 67v225h6q42 -39 104.5 -63.5t123.5 -24.5q57 0 92 28t35 79q0 52 -44 81t-124 29q-92 0 -174 -32h-5l84 542h480v-206h-308l-20 -123q27 10 53 10q132 0 218.5 -79.5t86.5 -217.5z" />
    <glyph glyph-name="sixsuperior" unicode="&#x2076;" horiz-adv-x="765" 
d="M735 885q0 -145 -96.5 -225t-255.5 -80t-254.5 80.5t-95.5 224.5q0 103 51 184l278 442h289v-2l-215 -331v-2q49 0 92 -11q95 -27 151 -99t56 -181zM487 885q0 52 -26 82t-76 30q-49 0 -77.5 -28.5t-28.5 -83.5q0 -51 26 -81t74 -30q51 0 79.5 28.5t28.5 82.5z" />
    <glyph glyph-name="sevensuperior" unicode="&#x2077;" horiz-adv-x="765" 
d="M362 606h-264v2l316 678v2h-373v225h719v-14z" />
    <glyph glyph-name="eightsuperior" unicode="&#x2078;" horiz-adv-x="765" 
d="M731 862q0 -133 -94.5 -207.5t-255.5 -74.5q-159 0 -253.5 74.5t-94.5 207.5q0 157 135 228v2q-100 65 -100 192q0 118 85 185t228 67q144 0 229.5 -66.5t85.5 -185.5q0 -127 -100 -192v-2q64 -33 99.5 -92t35.5 -136zM483 877q0 44 -27 73t-75 29t-74 -28.5t-26 -73.5
q0 -46 25.5 -74.5t74.5 -28.5q48 0 75 28.5t27 74.5zM473 1253q0 39 -24.5 63.5t-67.5 24.5q-42 0 -66 -24.5t-24 -63.5q0 -40 23.5 -65t66.5 -25t67.5 25.5t24.5 64.5z" />
    <glyph glyph-name="ninesuperior" unicode="&#x2079;" horiz-adv-x="765" 
d="M406 604h-289v2l213 332v4q-36 -2 -90 8q-95 27 -151 100t-56 181q0 146 96.5 225.5t255.5 79.5t254.5 -80t95.5 -225q0 -101 -67 -211zM489 1231q0 51 -27 80.5t-77 29.5q-49 0 -76.5 -27.5t-27.5 -82.5q0 -52 25.5 -82.5t76.5 -30.5q49 0 77.5 29t28.5 84z" />
    <glyph glyph-name="plussuperior" unicode="&#x207a;" horiz-adv-x="765" 
d="M471 676h-178v235h-234v176h234v238h176v-238h236v-176h-234v-235z" />
    <glyph glyph-name="minussuperior" unicode="&#x207b;" horiz-adv-x="765" 
d="M705 911h-646v176h646v-176z" />
    <glyph glyph-name="equalsuperior" unicode="&#x207c;" horiz-adv-x="765" 
d="M705 758h-646v174h646v-174zM705 1071h-646v174h646v-174z" />
    <glyph glyph-name="parenleftsuperior" unicode="&#x207d;" horiz-adv-x="509" 
d="M504 432h-228q-97 112 -150.5 257t-53.5 304t53.5 303t150.5 256h228q-97 -112 -151 -256.5t-54 -302.5q0 -159 54 -304t151 -257z" />
    <glyph glyph-name="parenrightsuperior" unicode="&#x207e;" horiz-adv-x="509" 
d="M233 432h-225q96 113 149.5 258t53.5 303t-53.5 302t-149.5 257h225q97 -112 151 -256.5t54 -302.5q0 -159 -54 -304t-151 -257z" />
    <glyph glyph-name="zeroinferior" unicode="&#x2080;" horiz-adv-x="765" 
d="M745 260q0 -125 -29 -219.5t-80.5 -150t-115 -82.5t-139.5 -27q-75 0 -138.5 27t-114 82.5t-79.5 150t-29 219.5t29 219t79.5 149t114 82t138.5 27q76 0 139.5 -27t115 -82t80.5 -149t29 -219zM498 260q0 100 -15.5 159t-39.5 79t-60 20q-37 0 -60.5 -20t-39 -78.5
t-15.5 -159.5q0 -140 29 -200t84 -60q57 0 87 60t30 200z" />
    <glyph glyph-name="oneinferior" unicode="&#x2081;" horiz-adv-x="765" 
d="M575 -195h-241v652l-211 -47h-4v227l452 100h4v-932z" />
    <glyph glyph-name="twoinferior" unicode="&#x2082;" horiz-adv-x="765" 
d="M733 -195h-674v179q138 107 215 190t99 132.5t22 101.5q0 58 -32 90t-87 32q-92 0 -194 -88h-4v226q118 69 248 69q138 0 228.5 -78t90.5 -221q0 -54 -12.5 -103.5t-28.5 -84t-53 -82t-61.5 -73.5t-79.5 -83v-2h323v-205z" />
    <glyph glyph-name="threeinferior" unicode="&#x2083;" horiz-adv-x="765" 
d="M709 39q0 -121 -86.5 -189.5t-237.5 -68.5q-158 0 -283 67v226h7q42 -38 109 -63t122 -25q57 0 90 23t33 65q0 37 -30.5 58.5t-86.5 21.5h-141v206h135q66 24 66 84q0 40 -29 63t-80 23q-98 0 -184 -86h-4v228q110 65 247 65q134 0 217.5 -67.5t83.5 -182.5
q0 -145 -133 -213v-2q87 -19 136 -79.5t49 -153.5z" />
    <glyph glyph-name="fourinferior" unicode="&#x2084;" horiz-adv-x="765" 
d="M737 -6h-104v-189h-242v189h-354v184l397 559h199v-555h104v-188zM399 182v211h-2l-143 -211h145z" />
    <glyph glyph-name="fiveinferior" unicode="&#x2085;" horiz-adv-x="765" 
d="M700 96q0 -148 -94 -231.5t-248 -83.5q-152 0 -266 67v226h6q42 -39 104.5 -63.5t123.5 -24.5q57 0 92 27.5t35 78.5q0 53 -44.5 82t-123.5 29q-90 0 -174 -33h-5l84 543h480v-207h-308l-20 -123q27 10 53 10q132 0 218.5 -79.5t86.5 -217.5z" />
    <glyph glyph-name="sixinferior" unicode="&#x2086;" horiz-adv-x="765" 
d="M735 86q0 -145 -96.5 -225t-255.5 -80t-254.5 80.5t-95.5 224.5q0 103 51 184l278 443h289v-2l-215 -332v-2q53 0 92 -10q94 -27 150.5 -99.5t56.5 -181.5zM487 86q0 52 -26 82.5t-76 30.5q-49 0 -77.5 -29t-28.5 -84q0 -51 26 -81t74 -30q51 0 79.5 28.5t28.5 82.5z" />
    <glyph glyph-name="seveninferior" unicode="&#x2087;" horiz-adv-x="765" 
d="M362 -193h-264v3l316 677v2h-373v226h719v-15z" />
    <glyph glyph-name="eightinferior" unicode="&#x2088;" horiz-adv-x="765" 
d="M731 63q0 -133 -94.5 -207.5t-255.5 -74.5q-159 0 -253.5 74.5t-94.5 207.5q0 157 135 228v2q-100 65 -100 192q0 118 85 185t228 67q144 0 229.5 -66.5t85.5 -185.5q0 -127 -100 -192v-2q64 -33 99.5 -92t35.5 -136zM483 78q0 44 -27 73t-75 29t-74 -28.5t-26 -73.5
q0 -46 25.5 -74.5t74.5 -28.5q48 0 75 28.5t27 74.5zM473 455q0 39 -24.5 63.5t-67.5 24.5q-42 0 -66 -24.5t-24 -63.5q0 -40 23.5 -65t66.5 -25t67.5 25.5t24.5 64.5z" />
    <glyph glyph-name="nineinferior" unicode="&#x2089;" horiz-adv-x="765" 
d="M406 -195h-289v2l213 332v4q-32 -2 -90 9q-95 27 -151 100t-56 180q0 146 96.5 225.5t255.5 79.5t254.5 -80t95.5 -225q0 -101 -67 -211zM489 432q0 51 -27 81t-77 30q-49 0 -76.5 -28t-27.5 -83q0 -52 25.5 -82.5t76.5 -30.5q49 0 77.5 29t28.5 84z" />
    <glyph glyph-name="parenleftinferior" unicode="&#x208d;" horiz-adv-x="509" 
d="M504 -367h-228q-97 112 -150.5 257.5t-53.5 304.5t53.5 303t150.5 256h228q-97 -112 -151 -256.5t-54 -302.5q0 -159 54 -304.5t151 -257.5z" />
    <glyph glyph-name="parenrightinferior" unicode="&#x208e;" horiz-adv-x="509" 
d="M233 -367h-225q96 112 149.5 258t53.5 304t-53.5 302t-149.5 257h225q97 -112 151 -256.5t54 -302.5q0 -159 -54 -304.5t-151 -257.5z" />
    <glyph glyph-name="Euro" unicode="&#x20ac;" horiz-adv-x="1136" 
d="M1069 66q-67 -47 -157 -75t-179 -28t-165 24t-144.5 76t-119 144.5t-75.5 220.5h-157v231h133v86h-133v232h159q49 235 179.5 346t318.5 111q197 0 334 -103v-299h-8q-100 119 -256 119q-179 0 -232 -174h391v-232h-423v-86h423v-231h-393q28 -93 85 -137.5t149 -44.5
q149 0 262 119h8v-299z" />
    <glyph glyph-name="litre" unicode="&#x2113;" horiz-adv-x="1163" 
d="M1079 49q-156 -86 -383 -86q-312 0 -454 283q-78 -30 -176 -51v280l96 25q-17 122 -17 229q0 331 132 518t382 187q198 0 312 -112t114 -300q0 -429 -507 -637q67 -127 217 -127q72 0 148 29t128 78h8v-316zM508 823q0 -117 4 -172q122 70 185 163t63 220q0 96 -28 141.5
t-75 45.5q-149 0 -149 -398z" />
    <glyph glyph-name="numero" unicode="&#x2116;" horiz-adv-x="2420" 
d="M2314 238h-620v217h620v-217zM2136 946q0 73 -34.5 116.5t-94.5 43.5q-63 0 -100 -41.5t-37 -118.5q0 -71 36 -115.5t95 -44.5q62 0 98.5 42t36.5 118zM2384 946q0 -166 -104.5 -266t-278.5 -100q-167 0 -272 100t-105 266q0 168 104.5 268.5t278.5 100.5q167 0 272 -101
t105 -268zM1411 -12h-289l-594 753h-2v-741h-350v1280l-72 102v15h357l598 -774h2v774h350v-1409z" />
    <glyph glyph-name="published" unicode="&#x2117;" horiz-adv-x="1613" 
d="M776 291h-231v811h325q132 0 213.5 -69t81.5 -195q0 -143 -96.5 -219t-292.5 -101v-227zM776 719q80 1 119 27.5t39 68.5q0 40 -27 61t-73 21h-58v-178zM803 -37q-208 0 -372 87.5t-258.5 255.5t-94.5 392q0 223 93 390.5t259.5 256.5t382.5 89q155 0 287.5 -51.5
t229 -145t151.5 -232.5t55 -307q0 -223 -92.5 -390.5t-258.5 -256t-382 -88.5zM797 127q117 0 216 36t174 105.5t117 180t42 251.5q0 265 -145.5 417.5t-381.5 152.5q-117 0 -216 -36t-174.5 -105t-118 -179t-42.5 -250q0 -267 146 -420t383 -153z" />
    <glyph glyph-name="published" unicode="&#xe039;" horiz-adv-x="1613" 
d="M776 291h-231v811h325q132 0 213.5 -69t81.5 -195q0 -143 -96.5 -219t-292.5 -101v-227zM776 719q80 1 119 27.5t39 68.5q0 40 -27 61t-73 21h-58v-178zM803 -37q-208 0 -372 87.5t-258.5 255.5t-94.5 392q0 223 93 390.5t259.5 256.5t382.5 89q155 0 287.5 -51.5
t229 -145t151.5 -232.5t55 -307q0 -223 -92.5 -390.5t-258.5 -256t-382 -88.5zM797 127q117 0 216 36t174 105.5t117 180t42 251.5q0 265 -145.5 417.5t-381.5 152.5q-117 0 -216 -36t-174.5 -105t-118 -179t-42.5 -250q0 -267 146 -420t383 -153z" />
    <glyph glyph-name="trademark" unicode="&#x2122;" horiz-adv-x="1783" 
d="M469 586h-231v588h-201v223h637v-223h-205v-588zM1706 586h-233l-29 352h-2l-193 -371h-16l-193 371h-2l-28 -352h-234l72 815h188l207 -416h2l199 416h190z" />
    <glyph glyph-name="Omega" unicode="&#x2126;" horiz-adv-x="1595" 
d="M1497 0h-623v276q121 106 176.5 210.5t55.5 252.5q0 173 -82 271t-225 98q-145 0 -226 -98t-81 -271q0 -149 54.5 -253.5t174.5 -209.5v-276h-623v313h226v2q-101 107 -150 225t-49 289q0 275 185.5 440t488.5 165q301 0 486 -165t185 -440q0 -170 -49 -288t-149 -226v-2
h225v-313z" />
    <glyph glyph-name="estimated" unicode="&#x212e;" horiz-adv-x="1699" 
d="M1235 385h268q-93 -202 -268.5 -312t-382.5 -110t-369.5 91.5t-253 259t-90.5 384.5q0 163 53 301t147 233t225.5 148.5t285.5 53.5q322 0 510.5 -218t191.5 -595h-1050v-269q57 -84 146.5 -129t201.5 -45q244 0 385 207zM854 1219q-232 0 -352 -175v-221h684v226
q-56 80 -142.5 125t-189.5 45z" />
    <glyph glyph-name="arrowleft" unicode="&#x2190;" horiz-adv-x="1628" 
d="M731 104l-581 582v12l581 582h426l-440 -420h762v-336h-762l440 -420h-426z" />
    <glyph glyph-name="arrowup" unicode="&#x2191;" horiz-adv-x="1628" 
d="M1401 772v-424l-420 438v-761h-336v761l-420 -438v424l582 582h12z" />
    <glyph glyph-name="arrowright" unicode="&#x2192;" horiz-adv-x="1628" 
d="M897 104h-426l440 420h-761v336h761l-440 420h426l582 -582v-12z" />
    <glyph glyph-name="arrowdown" unicode="&#x2193;" horiz-adv-x="1628" 
d="M1401 608l-582 -583h-12l-582 583v422l420 -438v762h336v-762l420 438v-422z" />
    <glyph glyph-name="arrowupleft" unicode="&#x2196;" horiz-adv-x="1628" 
d="M596 70l-299 301v821l8 10h823l299 -301l-608 14l541 -540l-240 -236l-536 537z" />
    <glyph glyph-name="arrowupright" unicode="&#x2197;" horiz-adv-x="1628" 
d="M1331 371l-299 -301l12 606l-536 -537l-240 236l541 540l-608 -14l299 301h823l8 -10v-821z" />
    <glyph glyph-name="arrowdownright" unicode="&#x2198;" horiz-adv-x="1628" 
d="M1032 1337l299 -301v-823l-8 -10l-823 2l-299 301l608 -17l-541 541l240 238l536 -539z" />
    <glyph glyph-name="arrowdownleft" unicode="&#x2199;" horiz-adv-x="1628" 
d="M297 1036l299 301l-12 -608l536 539l240 -238l-541 -541l608 17l-299 -301l-823 -2l-8 10v823z" />
    <glyph glyph-name="arrowtailleft" unicode="&#x21a2;" horiz-adv-x="1628" 
d="M838 1290v-430h641v-336h-641v-430h-17l-671 592v12l671 592h17z" />
    <glyph glyph-name="arrowtailright" unicode="&#x21a3;" horiz-adv-x="1628" 
d="M807 94h-16v430h-641v336h641v430h16l672 -592v-12z" />
    <glyph glyph-name="partialdiff" unicode="&#x2202;" horiz-adv-x="1204" 
d="M78 428q0 178 103.5 295t262.5 139q52 5 113 2v4l-338 525v4h408l434 -688q42 -69 61 -134t19 -147q0 -219 -145.5 -342t-387.5 -123q-236 0 -383 122t-147 343zM428 428q0 -94 50 -142t136 -48q87 0 133 51.5t46 138.5q0 95 -50 144t-137 49q-85 0 -131.5 -53
t-46.5 -140z" />
    <glyph glyph-name="Delta" unicode="&#x2206;" horiz-adv-x="1447" 
d="M1427 0h-1407l545 1434h316zM942 315l-225 668h-2l-228 -668h455z" />
    <glyph glyph-name="product" unicode="&#x220f;" horiz-adv-x="1572" 
d="M1397 -395h-350v1442h-521v-1442h-350v1792h1221v-1792z" />
    <glyph glyph-name="summation" unicode="&#x2211;" horiz-adv-x="1327" 
d="M1235 -395h-1172v20l527 887v2l-494 862v21h1098v-350h-465v-3l299 -522v-20l-332 -545v-2h539v-350z" />
    <glyph glyph-name="minus" unicode="&#x2212;" 
d="M1028 463h-950v246h950v-246z" />
    <glyph glyph-name="radical" unicode="&#x221a;" horiz-adv-x="1421" 
d="M961 0h-504l-236 883h-180v256h475l201 -838h14l287 1096h358z" />
    <glyph glyph-name="infinity" unicode="&#x221e;" horiz-adv-x="1456" 
d="M1413 592q0 -184 -95 -291.5t-233 -107.5q-100 0 -189.5 58t-158.5 173h-4q-134 -229 -348 -229q-168 0 -255 109.5t-87 287.5q0 163 91.5 276t250.5 113q111 0 190 -61t148 -170h4q39 57 67.5 92t69.5 70.5t90 52t109 16.5q167 0 258.5 -109.5t91.5 -279.5zM1174 590
q0 62 -32 99.5t-91 37.5q-51 0 -86 -36.5t-72 -104.5q65 -142 156 -142q59 0 92 39.5t33 106.5zM403 444q56 0 94.5 37.5t71.5 106.5q-36 69 -74.5 105t-91.5 36q-54 0 -85 -40.5t-31 -98.5q0 -64 30.5 -105t85.5 -41z" />
    <glyph glyph-name="integral" unicode="&#x222b;" horiz-adv-x="686" 
d="M135 -395q-136 0 -237 55v254h8q60 -57 143 -57q58 0 90.5 38.5t32.5 114.5v1159q0 180 98.5 280.5t276.5 100.5q143 0 239 -51v-287h-6q-70 60 -151 60q-62 0 -93.5 -35.5t-31.5 -95.5v-1149q0 -193 -97.5 -290t-271.5 -97z" />
    <glyph glyph-name="approxequal" unicode="&#x2248;" 
d="M1006 754q-102 -107 -236 -107q-52 0 -113 19.5t-107.5 43t-104.5 43t-103 19.5q-133 0 -242 -125v260q105 105 238 105q51 0 111.5 -19.5t107.5 -43t104.5 -43t102.5 -19.5q136 0 242 125v-258zM1006 295q-102 -107 -236 -107q-52 0 -113 19.5t-107.5 43t-104.5 43
t-103 19.5q-131 0 -242 -125v258q102 107 238 107q51 0 111.5 -19.5t107.5 -43t104.5 -43t102.5 -19.5q136 0 242 125v-258z" />
    <glyph glyph-name="notequal" unicode="&#x2260;" 
d="M1028 240h-463l-71 -170h-228l72 170h-260v239h364l93 217h-457v242h561l78 188h225l-76 -188h162v-242h-268l-90 -217h358v-239z" />
    <glyph glyph-name="lessequal" unicode="&#x2264;" 
d="M1028 115h-950v243h950v-243zM1028 422l-950 246v247l950 246v-248l-614 -118v-4l614 -121v-248z" />
    <glyph glyph-name="greaterequal" unicode="&#x2265;" 
d="M1028 668l-950 -246v248l616 121v4l-616 118v248l950 -246v-247zM1028 115h-950v243h950v-243z" />
    <glyph glyph-name="blacksquare" unicode="&#x25a0;" horiz-adv-x="1628" 
d="M1513 0h-1398v1397h1398v-1397z" />
    <glyph glyph-name="whitesquare" unicode="&#x25a1;" horiz-adv-x="1628" 
d="M1513 0h-1398v1397h1398v-1397zM279 164h1071v1069h-1071v-1069z" />
    <glyph glyph-name="lozenge" unicode="&#x25ca;" 
d="M1079 592l-528 -588l-524 588l524 586zM791 592l-240 268l-238 -268l238 -268z" />
    <glyph glyph-name="whitecircle" unicode="&#x25cb;" horiz-adv-x="1628" 
d="M1591 698q0 -158 -61.5 -301t-165.5 -247t-248.5 -165t-302.5 -61t-301 61t-247 164.5t-165 246.5t-61 300q0 158 61.5 301t165 247t247.5 165t302 61t301.5 -61t247.5 -164.5t165.5 -246.5t61.5 -300zM1427 698q0 164 -82.5 305t-223.5 223.5t-306 82.5
q-166 0 -307.5 -82.5t-224 -224t-82.5 -306.5q0 -164 82.5 -305t223.5 -223t306 -82q166 0 307.5 82.5t224 223.5t82.5 306z" />
    <glyph glyph-name="blackcircle" unicode="&#x25cf;" horiz-adv-x="1628" 
d="M1591 698q0 -158 -61.5 -301t-165.5 -247t-248.5 -165t-302.5 -61t-301 61t-247 164.5t-165 246.5t-61 300q0 158 61.5 301t165 247t247.5 165t302 61t301.5 -61t247.5 -164.5t165.5 -246.5t61.5 -300z" />
    <glyph glyph-name="ballotboxwithx" unicode="&#x2612;" horiz-adv-x="1628" 
d="M1513 0h-1398v1397h1398v-1397zM1352 162v1073h-1076v-1073h1076zM1286 403l-174 -176l-297 297l-301 -299l-172 170l299 301l-297 297l174 176l297 -299l301 301l174 -172l-301 -303z" />
    <glyph glyph-name="pointingindexleftwhite" unicode="&#x261c;" horiz-adv-x="2252" 
d="M41 950q0 67 46.5 96t139.5 29h334q-49 49 -29 168h371q73 0 138 -29t113 -72t90.5 -87.5t89 -82t89.5 -48.5l17 104h651q46 -199 44.5 -413t-44.5 -422q-91 -1 -235 -41.5t-220 -40.5q-105 0 -162.5 76.5t-64.5 179.5q-86 -3 -235 -33.5t-267 -30.5h-57q-176 0 -176 133
q0 20 6 41q-51 8 -84 42.5t-33 86.5q0 13 4 45q-112 15 -112 125q0 23 6 47h-234q-93 0 -139.5 29.5t-46.5 97.5zM133 948q0 -22 19 -28.5t65 -6.5h657l17 -104h-334q-6 -12 -6 -25q0 -28 21.5 -36.5t86.5 -8.5h252l15 -104h-262q-7 -11 -7 -23q0 -29 22 -38t87 -9h180
l17 -106h-187q-6 -9 -6 -21q0 -26 29 -35.5t92 -9.5h16q106 0 267 34.5t288 37.5q14 85 14 169t-18 181q-69 11 -131 49.5t-108.5 86t-92.5 93t-103 76.5t-120 31h-276q-7 -34 15 -47.5t81 -13.5h221v-105h-727q-45 0 -64.5 -7.5t-19.5 -29.5zM1694 240q44 0 143 27.5
t154 33.5q29 162 27.5 316.5t-27.5 277.5h-422q19 -66 22 -167.5t-3.5 -211.5t-6.5 -113q0 -87 27.5 -125t85.5 -38zM1894 430q0 -50 -34.5 -84.5t-83.5 -34.5q-50 0 -84.5 34.5t-34.5 84.5q0 51 34.5 85t84.5 34t84 -34t34 -85z" />
    <glyph glyph-name="pointingindexrightwhite" unicode="&#x261e;" horiz-adv-x="2252" 
d="M2212 950q0 -68 -47 -97.5t-140 -29.5h-233q6 -24 6 -47q0 -110 -112 -125q4 -32 4 -45q0 -52 -33 -86.5t-84 -42.5q6 -21 6 -41q0 -133 -176 -133h-57q-118 0 -267 30.5t-235 33.5q-7 -103 -65 -179.5t-163 -76.5q-76 0 -219.5 40.5t-234.5 41.5q-43 208 -44.5 422
t44.5 413h651l16 -104q43 11 90 48.5t89.5 82t90.5 87.5t113 72t138 29h370q20 -120 -28 -168h333q93 0 140 -29t47 -96zM2120 948q0 22 -19.5 29.5t-64.5 7.5h-727v105h221q59 0 81 13.5t15 47.5h-276q-63 0 -120 -31t-103 -76.5t-92.5 -93t-108.5 -86t-131 -49.5
q-18 -97 -18 -181t14 -169q127 -3 288 -37.5t267 -34.5h16q63 0 92 9.5t29 35.5q0 12 -6 21h-187l17 106h180q65 0 86.5 9t21.5 38q0 14 -6 23h-262l14 104h252q65 0 87 8.5t22 36.5q0 13 -6 25h-334l16 104h658q46 0 65 6.5t19 28.5zM559 240q58 0 85.5 38t27.5 125
q0 3 -6.5 113t-3.5 211.5t22 167.5h-422q-26 -123 -27.5 -277.5t27.5 -316.5q55 -6 154 -33.5t143 -27.5zM358 430q0 51 34.5 85t84.5 34t84.5 -34t34.5 -85q0 -50 -35 -84.5t-84 -34.5t-84 34.5t-35 84.5z" />
    <glyph glyph-name="checkmark" unicode="&#x2713;" horiz-adv-x="1421" 
d="M872 0h-448l-389 846h356l236 -545h14l385 1120h358z" />
    <glyph glyph-name="dingbatnegcircle1" unicode="&#x2776;" horiz-adv-x="1843" 
d="M915 -139q-178 0 -330 58t-262.5 164t-173.5 264.5t-63 350.5q0 254 107 445t297.5 292t437.5 101q238 0 424.5 -99.5t294.5 -291.5t108 -447q0 -191 -61.5 -348t-172 -264.5t-266 -166t-340.5 -58.5zM907 25q140 0 258 42t207 124t139 212.5t50 296.5q0 157 -46 284
t-129 212t-198 130.5t-252 45.5q-139 0 -256.5 -42t-206.5 -123t-139.5 -211t-50.5 -296q0 -158 46 -285.5t128.5 -213t197.5 -131t252 -45.5zM1067 246h-242v651l-211 -47h-4v227l453 101h4v-932z" />
    <glyph glyph-name="dingbatnegcircle2" unicode="&#x2777;" horiz-adv-x="1843" 
d="M915 -139q-178 0 -330 58t-262.5 164t-173.5 264.5t-63 350.5q0 254 107 445t297.5 292t437.5 101q238 0 424.5 -99.5t294.5 -291.5t108 -447q0 -191 -61.5 -348t-172 -264.5t-266 -166t-340.5 -58.5zM907 25q140 0 258 42t207 124t139 212.5t50 296.5q0 157 -46 284
t-129 212t-198 130.5t-252 45.5q-139 0 -256.5 -42t-206.5 -123t-139.5 -211t-50.5 -296q0 -158 46 -285.5t128.5 -213t197.5 -131t252 -45.5zM1290 246h-674v178q138 107 215 190t99 132.5t22 101.5q0 58 -31.5 90.5t-86.5 32.5q-93 0 -195 -88h-4v225q120 70 248 70
q138 0 228.5 -78t90.5 -221q0 -54 -12.5 -103.5t-28.5 -84t-53 -82t-61.5 -73.5t-79.5 -83v-2h323v-205z" />
    <glyph glyph-name="dingbatnegcircle3" unicode="&#x2778;" horiz-adv-x="1843" 
d="M915 -139q-178 0 -330 58t-262.5 164t-173.5 264.5t-63 350.5q0 254 107 445t297.5 292t437.5 101q238 0 424.5 -99.5t294.5 -291.5t108 -447q0 -191 -61.5 -348t-172 -264.5t-266 -166t-340.5 -58.5zM907 25q140 0 258 42t207 124t139 212.5t50 296.5q0 157 -46 284
t-129 212t-198 130.5t-252 45.5q-139 0 -256.5 -42t-206.5 -123t-139.5 -211t-50.5 -296q0 -158 46 -285.5t128.5 -213t197.5 -131t252 -45.5zM1266 479q0 -121 -86.5 -189.5t-237.5 -68.5q-156 0 -283 68v225h7q42 -38 109 -63t122 -25q57 0 90 23t33 65q0 37 -30.5 58.5
t-86.5 21.5h-141v207h135q66 24 66 84q0 40 -29 63t-80 23q-98 0 -184 -86h-4v227q112 66 247 66q134 0 217.5 -67.5t83.5 -182.5q0 -145 -133 -213v-2q87 -19 136 -80t49 -154z" />
    <glyph glyph-name="dingbatnegcircle4" unicode="&#x2779;" horiz-adv-x="1843" 
d="M915 -139q-178 0 -330 58t-262.5 164t-173.5 264.5t-63 350.5q0 254 107 445t297.5 292t437.5 101q238 0 424.5 -99.5t294.5 -291.5t108 -447q0 -191 -61.5 -348t-172 -264.5t-266 -166t-340.5 -58.5zM907 25q140 0 258 42t207 124t139 212.5t50 296.5q0 157 -46 284
t-129 212t-198 130.5t-252 45.5q-139 0 -256.5 -42t-206.5 -123t-139.5 -211t-50.5 -296q0 -158 46 -285.5t128.5 -213t197.5 -131t252 -45.5zM1231 434h-105v-188h-241v188h-355v184l398 560h198v-555h105v-189zM893 623v211h-2l-143 -211h145z" />
    <glyph glyph-name="dingbatnegcircle5" unicode="&#x277a;" horiz-adv-x="1843" 
d="M915 -139q-178 0 -330 58t-262.5 164t-173.5 264.5t-63 350.5q0 254 107 445t297.5 292t437.5 101q238 0 424.5 -99.5t294.5 -291.5t108 -447q0 -191 -61.5 -348t-172 -264.5t-266 -166t-340.5 -58.5zM907 25q140 0 258 42t207 124t139 212.5t50 296.5q0 157 -46 284
t-129 212t-198 130.5t-252 45.5q-139 0 -256.5 -42t-206.5 -123t-139.5 -211t-50.5 -296q0 -158 46 -285.5t128.5 -213t197.5 -131t252 -45.5zM1231 537q0 -148 -94 -232t-248 -84q-150 0 -266 68v225h6q42 -39 104 -63.5t123 -24.5q57 0 92 27.5t35 78.5q0 53 -44.5 82
t-123.5 29q-90 0 -174 -33h-4l84 543h479v-207h-307l-21 -123q29 11 54 11q132 0 218.5 -79.5t86.5 -217.5z" />
    <glyph glyph-name="dingbatnegcircle6" unicode="&#x277b;" horiz-adv-x="1843" 
d="M915 -139q-178 0 -330 58t-262.5 164t-173.5 264.5t-63 350.5q0 254 107 445t297.5 292t437.5 101q238 0 424.5 -99.5t294.5 -291.5t108 -447q0 -191 -61.5 -348t-172 -264.5t-266 -166t-340.5 -58.5zM907 25q140 0 258 42t207 124t139 212.5t50 296.5q0 157 -46 284
t-129 212t-198 130.5t-252 45.5q-139 0 -256.5 -42t-206.5 -123t-139.5 -211t-50.5 -296q0 -158 46 -285.5t128.5 -213t197.5 -131t252 -45.5zM1255 526q0 -145 -96.5 -225t-255.5 -80t-254.5 80.5t-95.5 224.5q0 104 51 185l279 442h288v-2l-215 -332v-2q54 0 93 -10
q94 -27 150 -99.5t56 -181.5zM1008 526q0 52 -26.5 82.5t-76.5 30.5q-49 0 -77.5 -29t-28.5 -84q0 -51 26 -80.5t74 -29.5q51 0 80 28t29 82z" />
    <glyph glyph-name="dingbatnegcircle7" unicode="&#x277c;" horiz-adv-x="1843" 
d="M915 -139q-178 0 -330 58t-262.5 164t-173.5 264.5t-63 350.5q0 254 107 445t297.5 292t437.5 101q238 0 424.5 -99.5t294.5 -291.5t108 -447q0 -191 -61.5 -348t-172 -264.5t-266 -166t-340.5 -58.5zM907 25q140 0 258 42t207 124t139 212.5t50 296.5q0 157 -46 284
t-129 212t-198 130.5t-252 45.5q-139 0 -256.5 -42t-206.5 -123t-139.5 -211t-50.5 -296q0 -158 46 -285.5t128.5 -213t197.5 -131t252 -45.5zM907 246h-264v2l315 678v2h-372v225h719v-14z" />
    <glyph glyph-name="dingbatnegcircle8" unicode="&#x277d;" horiz-adv-x="1843" 
d="M915 -139q-178 0 -330 58t-262.5 164t-173.5 264.5t-63 350.5q0 254 107 445t297.5 292t437.5 101q238 0 424.5 -99.5t294.5 -291.5t108 -447q0 -191 -61.5 -348t-172 -264.5t-266 -166t-340.5 -58.5zM907 25q140 0 258 42t207 124t139 212.5t50 296.5q0 157 -46 284
t-129 212t-198 130.5t-252 45.5q-139 0 -256.5 -42t-206.5 -123t-139.5 -211t-50.5 -296q0 -158 46 -285.5t128.5 -213t197.5 -131t252 -45.5zM1264 504q0 -133 -95.5 -208t-255.5 -75q-159 0 -253.5 75t-94.5 208q0 156 135 227v2q-100 65 -100 193q0 118 85 185t228 67
q144 0 230 -67t86 -185q0 -127 -101 -193v-2q64 -33 100 -91.5t36 -135.5zM1016 518q0 44 -27.5 73.5t-75.5 29.5t-74 -29t-26 -74q0 -46 25.5 -74t74.5 -28q48 0 75.5 28.5t27.5 73.5zM1006 895q0 39 -25 63.5t-68 24.5q-42 0 -66 -24.5t-24 -63.5q0 -40 23.5 -65t66.5 -25
t68 25.5t25 64.5z" />
    <glyph glyph-name="dingbatnegcircle9" unicode="&#x277e;" horiz-adv-x="1843" 
d="M915 -139q-178 0 -330 58t-262.5 164t-173.5 264.5t-63 350.5q0 254 107 445t297.5 292t437.5 101q238 0 424.5 -99.5t294.5 -291.5t108 -447q0 -191 -61.5 -348t-172 -264.5t-266 -166t-340.5 -58.5zM907 25q140 0 258 42t207 124t139 212.5t50 296.5q0 157 -46 284
t-129 212t-198 130.5t-252 45.5q-139 0 -256.5 -42t-206.5 -123t-139.5 -211t-50.5 -296q0 -158 46 -285.5t128.5 -213t197.5 -131t252 -45.5zM948 246h-289v2l213 332v4q-36 -2 -90 8q-95 27 -151 100t-56 180q0 146 97 226t256 80t254.5 -80.5t95.5 -225.5q0 -98 -68 -210
zM1032 872q0 51 -27 81t-77 30q-49 0 -77 -28t-28 -83q0 -51 26 -81.5t77 -30.5q49 0 77.5 28.5t28.5 83.5z" />
    <glyph glyph-name="dingbatnegcircle10" unicode="&#x277f;" horiz-adv-x="1843" 
d="M915 -139q-178 0 -330 58t-262.5 164t-173.5 264.5t-63 350.5q0 254 107 445t297.5 292t437.5 101q238 0 424.5 -99.5t294.5 -291.5t108 -447q0 -191 -61.5 -348t-172 -264.5t-266 -166t-340.5 -58.5zM907 25q140 0 258 42t207 124t139 212.5t50 296.5q0 157 -46 284
t-129 212t-198 130.5t-252 45.5q-139 0 -256.5 -42t-206.5 -123t-139.5 -211t-50.5 -296q0 -158 46 -285.5t128.5 -213t197.5 -131t252 -45.5zM690 291h-207v799l205 38h2v-837zM1438 707q0 -218 -89.5 -324.5t-230.5 -106.5q-139 0 -228 106.5t-89 324.5q0 220 88.5 324
t228.5 104q68 0 124 -24t101 -73t70 -133.5t25 -197.5zM1223 707q0 136 -26.5 187.5t-78.5 51.5q-50 0 -76 -51.5t-26 -187.5q0 -242 102 -242q105 0 105 242z" />
    <glyph glyph-name="a.superior" unicode="&#xe000;" horiz-adv-x="802" 
d="M713 604h-230v47h-2q-78 -71 -188 -71q-97 0 -164.5 60.5t-67.5 164.5q0 102 67 163.5t189 61.5q97 0 160 -37v33q0 48 -43.5 72t-114.5 24q-58 0 -114 -21t-96 -57h-7v207q121 64 269 64q73 0 133 -17t108 -52t74.5 -95.5t26.5 -140.5v-406zM477 791v59q-49 22 -94 22
q-90 0 -90 -59q0 -26 21 -41.5t61 -15.5q58 0 102 35z" />
    <glyph glyph-name="b.superior" unicode="&#xe001;" horiz-adv-x="860" 
d="M825 946q0 -169 -87.5 -267.5t-225.5 -98.5q-109 0 -203 67l-209 -61h-4v1016h236v-363q89 76 198 76q132 0 213.5 -101.5t81.5 -267.5zM578 946q0 77 -35.5 119.5t-91.5 42.5q-73 0 -119 -68v-194q52 -60 114 -60q59 0 95.5 42t36.5 118z" />
    <glyph glyph-name="c.superior" unicode="&#xe002;" horiz-adv-x="634" 
d="M584 864v-225q-91 -59 -213 -59q-144 0 -239 98t-95 268q0 164 91 266.5t239 102.5q119 0 213 -60v-225h-5q-24 32 -64.5 52t-84.5 20q-65 0 -104 -42t-39 -116q0 -68 38.5 -109.5t104.5 -41.5q44 0 86 19.5t68 51.5h4z" />
    <glyph glyph-name="d.superior" unicode="&#xe003;" horiz-adv-x="860" 
d="M766 604h-236v51h-2q-88 -75 -196 -75q-133 0 -214 100.5t-81 265.5q0 169 87 269t224 100q109 0 178 -53h2v340h238v-998zM528 852v195q-49 61 -114 61q-59 0 -95 -42.5t-36 -119.5q0 -76 36 -118t93 -42q69 0 116 66z" />
    <glyph glyph-name="e.superior" unicode="&#xe004;" horiz-adv-x="782" 
d="M700 643q-110 -63 -270 -63q-176 0 -284.5 98.5t-108.5 267.5q0 167 93.5 268t260.5 101q146 0 244 -88.5t98 -243.5q0 -51 -4 -76h-446q14 -67 64 -103t132 -36q61 0 119 21.5t96 58.5h6v-205zM485 1073q-5 38 -31.5 62t-66.5 24t-67.5 -22.5t-34.5 -63.5h200z" />
    <glyph glyph-name="f.superior" unicode="&#xe005;" horiz-adv-x="524" 
d="M346 604h-235v483h-84v7l84 196v68q0 121 65.5 187.5t185.5 66.5q94 0 164 -33v-203h-4q-45 39 -100 39q-76 0 -76 -76v-49h148v-203h-148v-483z" />
    <glyph glyph-name="g.superior" unicode="&#xe006;" horiz-adv-x="839" 
d="M526 864v197q-50 47 -104 47q-59 0 -96 -40t-37 -110q0 -67 36 -105t93 -38q70 0 108 49zM410 340q-181 0 -283 63v203h4q96 -86 240 -86q72 0 113.5 33t41.5 88v37h-2q-76 -68 -202 -68q-122 0 -203.5 90t-81.5 258q0 170 86 263.5t223 93.5q108 0 201 -70h2l207 64h4
v-650q0 -152 -96 -235.5t-254 -83.5z" />
    <glyph glyph-name="h.superior" unicode="&#xe007;" horiz-adv-x="864" 
d="M774 604h-235v391q0 54 -27 83.5t-72 29.5q-62 0 -108 -68v-436h-236v998h236v-363q86 76 194 76q104 0 176 -63t72 -181v-467z" />
    <glyph glyph-name="i.superior" unicode="&#xe008;" horiz-adv-x="428" 
d="M332 604h-236v686h236v-686zM336 1411h-244v191h244v-191z" />
    <glyph glyph-name="j.superior" unicode="&#xe009;" horiz-adv-x="428" 
d="M82 348q-90 0 -158 35v176h4q44 -35 90 -35q78 0 78 94v672h236v-684q0 -130 -66.5 -194t-183.5 -64zM336 1411h-244v191h244v-191z" />
    <glyph glyph-name="k.superior" unicode="&#xe00a;" horiz-adv-x="835" 
d="M332 604h-236v998h236v-998zM819 604h-274l-203 342v8l193 336h266l-205 -336v-2z" />
    <glyph glyph-name="l.superior" unicode="&#xe00b;" horiz-adv-x="428" 
d="M332 604h-236v998h236v-998z" />
    <glyph glyph-name="m.superior" unicode="&#xe00c;" horiz-adv-x="1308" 
d="M1217 604h-234v391q0 54 -27 83.5t-71 29.5q-63 0 -115 -70q4 -14 4 -45v-389h-235v391q0 54 -27 83.5t-72 29.5q-62 0 -108 -68v-436h-236v686h234v-51h2q82 76 198 76q63 0 117.5 -26.5t87.5 -76.5q62 54 116 78.5t122 24.5q103 0 173.5 -63t70.5 -181v-467z" />
    <glyph glyph-name="n.superior" unicode="&#xe00d;" horiz-adv-x="880" 
d="M788 604h-233v391q0 54 -28 83.5t-74 29.5q-71 0 -121 -68v-436h-236v686h234v-51h2q89 76 200 76q109 0 182.5 -63t73.5 -181v-467z" />
    <glyph glyph-name="o.superior" unicode="&#xe00e;" horiz-adv-x="833" 
d="M549 946q0 81 -35.5 123.5t-97.5 42.5t-97.5 -42.5t-35.5 -123.5q0 -75 35 -120.5t98 -45.5q64 0 98.5 45t34.5 121zM797 946q0 -166 -106 -266t-275 -100q-168 0 -273.5 100t-105.5 266q0 168 103 268.5t276 100.5q174 0 277.5 -100.5t103.5 -268.5z" />
    <glyph glyph-name="p.superior" unicode="&#xe00f;" horiz-adv-x="860" 
d="M825 946q0 -169 -87.5 -267.5t-225.5 -98.5q-108 0 -180 53v-285h-236v942h234v-51h2q89 76 198 76q132 0 213.5 -101.5t81.5 -267.5zM578 946q0 77 -35.5 119.5t-91.5 42.5q-73 0 -119 -68v-194q52 -60 114 -60q59 0 95.5 42t36.5 118z" />
    <glyph glyph-name="q.superior" unicode="&#xe010;" horiz-adv-x="860" 
d="M766 348h-238v307h-2q-85 -75 -194 -75q-133 0 -214 100.5t-81 265.5q0 169 87 269t224 100q112 0 201 -70h2l211 64h4v-961zM528 852v195q-49 61 -114 61q-59 0 -95 -42.5t-36 -119.5q0 -76 36 -118t93 -42q69 0 116 66z" />
    <glyph glyph-name="r.superior" unicode="&#xe011;" horiz-adv-x="585" 
d="M332 604h-236v686h226v-53h2q85 78 165 78q38 0 68 -15v-229h-4q-47 29 -88 29q-63 0 -133 -56v-440z" />
    <glyph glyph-name="s.superior" unicode="&#xe012;" horiz-adv-x="661" 
d="M598 813q0 -106 -71.5 -169.5t-211.5 -63.5q-145 0 -243 53v203h4q40 -35 101 -55.5t116 -20.5q78 0 78 43q0 15 -16.5 25.5t-42.5 18t-57 17t-62.5 26t-57.5 39.5t-42.5 63t-16.5 93q0 106 69.5 168t198.5 62q137 0 229 -53v-205h-4q-36 36 -93 57t-107 21
q-62 0 -62 -43q0 -14 16 -24.5t41.5 -18t56.5 -17t62.5 -26t57 -39.5t41.5 -62.5t16 -91.5z" />
    <glyph glyph-name="t.superior" unicode="&#xe013;" horiz-adv-x="524" 
d="M346 604h-235v483h-84v7l84 196v203h235v-203h148v-203h-148v-483z" />
    <glyph glyph-name="u.superior" unicode="&#xe014;" horiz-adv-x="858" 
d="M768 1290v-389q0 -150 -89 -235.5t-253 -85.5q-157 0 -245.5 86t-88.5 235v389h234v-385q0 -59 27 -89t75 -30q49 0 76.5 30t27.5 89v385h236z" />
    <glyph glyph-name="v.superior" unicode="&#xe015;" horiz-adv-x="808" 
d="M496 580h-181l-305 710h269l127 -375h2l124 375h267z" />
    <glyph glyph-name="w.superior" unicode="&#xe016;" horiz-adv-x="1187" 
d="M903 580h-162l-145 282h-2l-148 -282h-159l-275 710h264l111 -336h2l197 361h20l195 -361l110 336h265z" />
    <glyph glyph-name="x.superior" unicode="&#xe017;" horiz-adv-x="808" 
d="M799 604h-275l-118 201h-3l-108 -201h-266l204 348l-223 338h275l116 -200h2l111 200h266l-207 -338z" />
    <glyph glyph-name="y.superior" unicode="&#xe018;" horiz-adv-x="811" 
d="M453 348h-269l111 256l-287 686h271l129 -389l127 389h262z" />
    <glyph glyph-name="z.superior" unicode="&#xe019;" horiz-adv-x="714" 
d="M672 604h-649v14l256 467v2h-230v203h598v-16l-258 -467v-2h283v-201z" />
    <glyph glyph-name="grave.cap" unicode="&#xe01a;" horiz-adv-x="1024" 
d="M754 1397h-281l-205 241h338z" />
    <glyph glyph-name="acute.cap" unicode="&#xe01b;" horiz-adv-x="1024" 
d="M549 1397h-281l148 241h338z" />
    <glyph glyph-name="circumflex.cap" unicode="&#xe01c;" horiz-adv-x="1024" 
d="M899 1397h-281l-106 104h-2l-104 -104h-281l237 262h300z" />
    <glyph glyph-name="caron.cap" unicode="&#xe01d;" horiz-adv-x="1024" 
d="M662 1391h-300l-237 262h281l106 -105h2l104 105h281z" />
    <glyph glyph-name="tilde.cap" unicode="&#xe01f;" horiz-adv-x="1024" 
d="M674 1415q-60 0 -155 38t-124 38q-31 0 -43.5 -18.5t-21.5 -57.5h-201q8 57 20 99t36 82.5t65.5 61.5t99.5 21q59 0 154 -38.5t125 -38.5q31 0 43.5 18.5t21.5 58.5h201q-8 -59 -20 -101.5t-36 -82t-65.5 -60t-99.5 -20.5z" />
    <glyph glyph-name="dieresis.cap" unicode="&#xe020;" horiz-adv-x="1024" 
d="M434 1444h-321v235h321v-235zM909 1444h-319v235h319v-235z" />
    <glyph glyph-name="macron.cap" unicode="&#xe021;" horiz-adv-x="1024" 
d="M877 1458h-730v221h730v-221z" />
    <glyph glyph-name="breve.cap" unicode="&#xe022;" horiz-adv-x="1024" 
d="M512 1413q-148 0 -242.5 70t-111.5 196h237q25 -65 117 -65q93 0 115 65h239q-17 -126 -111.5 -196t-242.5 -70z" />
    <glyph glyph-name="ring.cap" unicode="&#xe023;" horiz-adv-x="1024" 
d="M793 1595q0 -97 -78 -147.5t-207 -50.5q-130 0 -204.5 50.5t-74.5 147.5t78 147t207 50t204 -50t75 -147zM596 1595q0 28 -22.5 45t-61.5 17q-40 0 -64 -17t-24 -45q0 -30 24 -47.5t64 -17.5t62 17t22 48z" />
    <glyph glyph-name="hungarumlaut.cap" unicode="&#xe024;" horiz-adv-x="1024" 
d="M328 1397h-283l145 241h340zM778 1397h-282l145 241h340z" />
    <glyph glyph-name="dotaccent.cap" unicode="&#xe025;" horiz-adv-x="1024" 
d="M686 1444h-348v235h348v-235z" />
    <glyph glyph-name="hyphen.cap" unicode="&#xe027;" horiz-adv-x="552" 
d="M547 584h-541v303h541v-303z" />
    <glyph glyph-name="exclamdown.cap" unicode="&#xe028;" horiz-adv-x="643" 
d="M502 -139h-361l37 1063h285zM481 1081h-317v316h317v-316z" />
    <glyph glyph-name="guilsinglleft.cap" unicode="&#xe02a;" horiz-adv-x="663" 
d="M602 324h-303l-238 391v12l238 391h303l-225 -397z" />
    <glyph glyph-name="guilsinglright.cap" unicode="&#xe02b;" horiz-adv-x="663" 
d="M365 324h-304l226 397l-226 397h304l237 -391v-12z" />
    <glyph glyph-name="guillemotleft.cap" unicode="&#xe02c;" horiz-adv-x="1120" 
d="M602 324h-303l-238 391v12l238 391h303l-225 -397zM1059 324h-303l-238 391v12l238 391h303l-225 -397z" />
    <glyph glyph-name="guillemotright.cap" unicode="&#xe02d;" horiz-adv-x="1120" 
d="M365 324h-304l226 397l-226 397h304l237 -391v-12zM821 324h-303l225 397l-225 397h303l238 -391v-12z" />
    <glyph glyph-name="endash.cap" unicode="&#xe02e;" 
d="M1085 584h-1065v274h1065v-274z" />
    <glyph glyph-name="emdash.cap" unicode="&#xe02f;" horiz-adv-x="2211" 
d="M2191 584h-2171v274h2171v-274z" />
    <glyph glyph-name="nbspace" unicode="&#xe030;" 
 />
    <glyph glyph-name="periodcentered.cap" unicode="&#xe031;" horiz-adv-x="552" 
d="M442 557h-331v332h331v-332z" />
    <glyph glyph-name="parenleft.cap" unicode="&#xe032;" horiz-adv-x="768" 
d="M754 -188h-320q-151 173 -234 395t-83 467t83 467t234 395h320q-150 -173 -233 -395t-83 -467t83 -467t233 -395z" />
    <glyph glyph-name="parenright.cap" unicode="&#xe033;" horiz-adv-x="768" 
d="M336 -188h-322q151 174 234.5 396t83.5 466t-83.5 466t-234.5 396h322q149 -174 232 -396t83 -466t-83 -466t-232 -396z" />
    <glyph glyph-name="bracketleft.cap" unicode="&#xe034;" horiz-adv-x="763" 
d="M690 -188h-532v1724h532v-268h-229v-1188h229v-268z" />
    <glyph glyph-name="bracketright.cap" unicode="&#xe035;" horiz-adv-x="763" 
d="M76 1536h532v-1724h-532v268h229v1188h-229v268z" />
    <glyph glyph-name="braceleft.cap" unicode="&#xe036;" horiz-adv-x="813" 
d="M745 -188q-161 0 -263 24t-162.5 82.5t-83.5 144t-23 220.5v245l-135 142v8l135 141v246q0 135 23 220.5t83.5 144t162.5 82.5t263 24v-268q-135 0 -182 -48t-47 -159v-250l-127 -137l127 -137v-250q0 -111 47 -159t182 -48v-268z" />
    <glyph glyph-name="braceright.cap" unicode="&#xe037;" horiz-adv-x="813" 
d="M70 1536q129 0 218.5 -16.5t151.5 -49.5t97 -90.5t50 -132t15 -182.5v-246l133 -141v-8l-133 -142v-245q0 -108 -15 -182.5t-50 -132t-97 -90.5t-151.5 -49.5t-218.5 -16.5v268q70 0 115 12t69.5 39.5t33.5 64t9 91.5v250l127 137l-127 137v250q0 55 -9 91.5t-33.5 64
t-69.5 39.5t-115 12v268z" />
    <glyph glyph-name="at.cap" unicode="&#xe038;" horiz-adv-x="1855" 
d="M932 510q89 0 147 76v274q-58 66 -141 66q-81 0 -129.5 -54t-48.5 -155q0 -99 47.5 -153t124.5 -54zM1018 -168q-284 0 -495 102.5t-328 302.5t-117 476q0 200 62 365.5t173.5 278t269 174.5t345.5 62q180 0 334.5 -51.5t269.5 -148.5t180.5 -245.5t65.5 -332.5
q0 -264 -120.5 -401.5t-344.5 -137.5h-215v66h-2q-109 -98 -256 -98q-170 0 -276.5 129.5t-106.5 343.5q0 218 113 345.5t292 127.5q148 0 262 -88h2l232 76h14v-682q76 0 122 79.5t46 221.5q0 188 -76 319t-210.5 194.5t-317.5 63.5q-278 0 -446 -176.5t-168 -484.5
q0 -304 186.5 -475.5t523.5 -171.5q355 0 567 147h9v-258q-106 -57 -264.5 -90t-325.5 -33z" />
    <glyph glyph-name="zero.slash" unicode="&#xe03a;" horiz-adv-x="1294" 
d="M1214 698q0 -155 -30 -279.5t-81.5 -208.5t-124 -140.5t-155 -81.5t-176.5 -25q-124 0 -229 45l-25 -45h-309l125 221q-129 189 -129 514q0 155 30 280t81.5 209t124 140.5t155 81.5t176.5 25q125 0 230 -45l24 45h309l-123 -226q127 -189 127 -510zM868 698
q0 227 -56.5 326.5t-164.5 99.5q-107 0 -163 -99.5t-56 -326.5t56 -326.5t163 -99.5q108 0 164.5 99.5t56.5 326.5z" />
    <glyph glyph-name="Euro.LT" unicode="&#xe03b;" 
d="M1053 66q-67 -47 -157 -75t-179 -28t-165 24t-144.5 76t-119 144.5t-75.5 220.5h-158v231h133v86h-133v232h160q49 235 179.5 346t318.5 111q197 0 334 -103v-299h-9q-100 119 -256 119q-90 0 -147 -42t-84 -132h391v-232h-424v-86h424v-231h-393q28 -93 84.5 -137.5
t148.5 -44.5q149 0 262 119h9v-299z" />
    <glyph glyph-name="dollar.LT" unicode="&#xe03c;" 
d="M659 -291h-256v260q-169 17 -301 97v319h9q96 -99 292 -127v332q-64 28 -111.5 59t-91.5 78.5t-67.5 115t-23.5 152.5q0 76 19.5 143.5t59.5 127t110 100.5t163 57v265h256v-265q139 -23 258 -92v-307h-8q-111 88 -250 111v-320q64 -29 111 -60.5t92.5 -79t69.5 -116
t24 -153.5q0 -163 -92 -279t-263 -150v-268zM737 383q0 57 -78 102v-215q78 31 78 113zM387 1022q0 -57 74 -98v204q-74 -29 -74 -106z" />
    <glyph glyph-name="cent.LT" unicode="&#xe03d;" 
d="M840 -291h-254v256q-241 19 -378.5 172.5t-137.5 415.5q0 253 138 411t378 177v256h254v-281q96 -24 168 -72v-325h-9q-64 77 -159 110v-555q100 38 166 113h8v-326q-78 -53 -174 -73v-279zM418 553q0 -225 168 -281v564q-168 -57 -168 -283z" />
    <glyph glyph-name="sterling.LT" unicode="&#xe03e;" 
d="M1022 0h-963v289h185l-29 256h-156v274h127l-8 86q-8 74 -8 111q0 186 129 302t365 116q102 0 201.5 -26t176.5 -75v-342h-8q-60 66 -147 106t-176 40q-95 0 -144 -49t-49 -127q0 -2 6 -89l6 -53h383v-274h-354l29 -256h434v-289z" />
    <glyph glyph-name="florin.LT" unicode="&#xe03f;" 
d="M524 0h-340v545h-129v274h129v166q0 220 130.5 334.5t365.5 114.5q216 0 375 -101v-340h-8q-62 66 -145 105t-173 39q-104 0 -154.5 -52.5t-50.5 -142.5v-123h412v-274h-412v-545z" />
    <glyph glyph-name="yen.LT" unicode="&#xe040;" 
d="M745 0h-342v276h-358v232h358v86h-358v231h256l-278 572h370l180 -473h2l166 473h353l-256 -572h233v-231h-326v-86h326v-232h-326v-276z" />
    <glyph glyph-name="zero.LT" unicode="&#xe041;" 
d="M1081 698q0 -154 -27.5 -278t-76 -208.5t-116 -141t-145 -82t-165.5 -25.5q-113 0 -206.5 42t-166 127.5t-113 229.5t-40.5 336q0 194 40.5 338.5t113.5 230t166 126.5t206 41q111 0 204.5 -41t167.5 -126t116 -230.5t42 -338.5zM731 698q0 426 -178 426
q-91 0 -135.5 -98.5t-44.5 -327.5t44.5 -327.5t135.5 -98.5q178 0 178 426z" />
    <glyph glyph-name="one.LT" unicode="&#xe042;" 
d="M829 0h-342v1036l-321 -78h-6v322l663 154h6v-1434z" />
    <glyph glyph-name="two.LT" unicode="&#xe043;" 
d="M1083 0h-1024v250q163 130 270 232.5t163 183t77 141.5t21 127q0 97 -52.5 151t-138.5 54q-160 0 -305 -148h-6v334q183 109 379 109q100 0 186.5 -29.5t152.5 -85.5t104 -144.5t38 -199.5q0 -63 -10.5 -120.5t-25 -104t-45.5 -98.5t-56 -88t-73.5 -90t-81.5 -87.5
t-95 -95.5v-2h522v-289z" />
    <glyph glyph-name="three.LT" unicode="&#xe044;" 
d="M1044 356q0 -185 -132 -289t-361 -104q-241 0 -424 103v331h6q64 -63 166 -102t190 -39q94 0 149.5 39t55.5 113q0 65 -51 103t-145 38h-213v293h211q114 45 114 147q0 70 -49.5 110t-134.5 40q-78 0 -152 -38.5t-133 -101.5h-6v334q174 101 373 101q202 0 329.5 -104
t127.5 -281q0 -214 -195 -326v-2q126 -30 200 -124.5t74 -240.5z" />
    <glyph glyph-name="four.LT" unicode="&#xe045;" 
d="M1094 291h-168v-291h-340v291h-563v268l628 875h275v-867h168v-276zM594 567v371h-2l-256 -369v-2h258z" />
    <glyph glyph-name="five.LT" unicode="&#xe046;" 
d="M1032 440q0 -225 -142 -351t-372 -126t-403 103v331h8q65 -65 158.5 -104t185.5 -39q97 0 157 47t60 135q0 90 -70.5 139.5t-199.5 49.5q-137 0 -273 -56h-6l131 828h719v-295h-477l-37 -215q77 10 113 10q196 0 322 -124.5t126 -332.5z" />
    <glyph glyph-name="six.LT" unicode="&#xe047;" 
d="M1085 428q0 -221 -147 -343t-383 -122q-242 0 -387 123t-145 342q0 152 79 281l435 688h407v-4l-338 -525v-4q61 3 113 -2q159 -22 262.5 -139t103.5 -295zM735 428q0 87 -46.5 140t-131.5 53q-87 0 -136.5 -49t-49.5 -144q0 -87 45.5 -138.5t132.5 -51.5q86 0 136 48
t50 142z" />
    <glyph glyph-name="seven.LT" unicode="&#xe048;" 
d="M494 2h-371v4l508 1073v2h-596v318h1083v-21z" />
    <glyph glyph-name="eight.LT" unicode="&#xe049;" 
d="M1077 393q0 -201 -143 -315.5t-381 -114.5q-242 0 -384 114t-142 316q0 121 56 211.5t159 140.5v3q-164 96 -164 301q0 180 129 282.5t346 102.5q215 0 344 -103t129 -282q0 -200 -164 -301v-3q103 -50 159 -139.5t56 -212.5zM727 410q0 78 -45.5 125t-128.5 47
q-86 0 -132 -46.5t-46 -125.5t46 -125.5t132 -46.5q82 0 128 47t46 125zM707 1010q0 68 -40.5 108.5t-113.5 40.5q-75 0 -117.5 -41t-42.5 -108q0 -68 42 -111t118 -43q72 0 113 43t41 111z" />
    <glyph glyph-name="nine.LT" unicode="&#xe04a;" 
d="M571 0h-407v4l338 524v4q-41 -4 -113 3q-159 23 -262.5 139t-103.5 295q0 221 146.5 343t383.5 122q241 0 386.5 -123t145.5 -342q0 -86 -23 -156t-85 -168zM737 969q0 87 -46 138.5t-132 51.5t-137 -48t-51 -142q0 -87 47 -140t133 -53t136 49.5t50 143.5z" />
    <glyph glyph-name="Euro.OT" unicode="&#xe04b;" 
d="M55 586v213h172q58 164 187.5 254t298.5 90q95 0 184 -25t150 -69v-273h-9q-89 115 -266 115q-130 0 -194 -92h364v-213h-424v-60h424v-213h-367q64 -98 203 -98q169 0 266 115h9v-273q-60 -45 -150.5 -69.5t-185.5 -24.5q-168 0 -302 89t-192 261h-168v213h133v60h-133z
" />
    <glyph glyph-name="dollar.OT" unicode="&#xe04c;" 
d="M1014 322q0 -146 -92 -236t-263 -115v-262h-256v260q-195 19 -301 84v287h7q122 -99 294 -125v231q-63 18 -111 41.5t-92 62t-67.5 98t-23.5 136.5q0 142 86.5 235.5t265.5 115.5v262h256v-264q164 -20 258 -80v-287h-8q-125 95 -250 117v-219q63 -18 111.5 -42t93 -63
t68.5 -99t24 -138zM739 309q0 49 -80 76v-158q80 23 80 82zM385 801q0 -48 76 -74v152q-76 -22 -76 -78z" />
    <glyph glyph-name="cent.OT" unicode="&#xe04d;" 
d="M840 -291h-254v256q-241 19 -378.5 172.5t-137.5 415.5q0 253 138 411t378 177v256h254v-281q96 -24 168 -72v-325h-9q-64 77 -159 110v-555q100 38 166 113h8v-326q-78 -53 -174 -73v-279zM418 553q0 -225 168 -281v564q-168 -57 -168 -283z" />
    <glyph glyph-name="sterling.OT" unicode="&#xe04e;" 
d="M913 379h-360l14 -121h455v-258h-963v258h166l-16 121h-150v235h121l-2 17q-8 62 -8 94q0 186 129 302t365 116q97 0 199.5 -26.5t178.5 -74.5v-329h-8q-66 67 -156 106t-180 39q-89 0 -135.5 -40.5t-46.5 -108.5q0 -29 6 -78l2 -17h389v-235z" />
    <glyph glyph-name="florin.OT" unicode="&#xe04f;" 
d="M524 0h-340v356h-129v258h129v80q0 220 130.5 334.5t365.5 114.5q216 0 375 -101v-325h-8q-59 65 -142.5 104t-175.5 39q-104 0 -154.5 -49.5t-50.5 -132.5v-64h412v-258h-412v-356z" />
    <glyph glyph-name="yen.OT" unicode="&#xe050;" 
d="M41 414v213h248l-271 479h369l180 -365h2l168 365h350l-249 -479h227v-213h-326v-60h326v-213h-326v-141h-342v141h-356v213h356v60h-356z" />
    <glyph glyph-name="zero.OT" unicode="&#xe051;" 
d="M1081 553q0 -141 -42 -254.5t-115 -186t-168 -111t-205 -38.5q-109 0 -203.5 38.5t-167 111t-114 186t-41.5 254.5q0 142 41.5 255.5t114 186t167 110.5t203.5 38q110 0 205 -38t168 -110.5t115 -186t42 -255.5zM733 553q0 133 -48.5 207t-131.5 74q-84 0 -132 -73.5
t-48 -207.5q0 -129 47.5 -205t132.5 -76q84 0 132 76t48 205z" />
    <glyph glyph-name="one.OT" unicode="&#xe052;" 
d="M829 0h-342v745l-321 -77h-6v321l663 154h6v-1143z" />
    <glyph glyph-name="two.OT" unicode="&#xe053;" 
d="M1083 0h-1024v250q216 116 336 201t160.5 142t40.5 118q0 66 -52 102.5t-134 36.5q-157 0 -316 -148h-6v332q175 109 379 109q211 0 346 -104t135 -279q0 -60 -16.5 -115t-40.5 -96.5t-69 -90t-83 -81.5t-102 -86v-2h446v-289z" />
    <glyph glyph-name="three.OT" unicode="&#xe054;" 
d="M1044 66q0 -185 -132 -289.5t-361 -104.5q-241 0 -424 103v331h6q64 -63 166 -102t190 -39q94 0 149.5 39t55.5 113q0 65 -51 103t-145 38h-213v293h211q114 45 114 147q0 70 -49.5 110t-134.5 40q-78 0 -152.5 -38t-132.5 -101h-6v333q174 101 373 101q202 0 329.5 -104
t127.5 -281q0 -214 -195 -326v-2q126 -30 200 -124t74 -240z" />
    <glyph glyph-name="four.OT" unicode="&#xe055;" 
d="M1094 0h-168v-291h-340v291h-563v268l628 875h275v-867h168v-276zM594 276v371h-2l-256 -368v-3h258z" />
    <glyph glyph-name="five.OT" unicode="&#xe056;" 
d="M1032 150q0 -225 -142 -351.5t-372 -126.5t-403 103v331h8q65 -65 158.5 -104t185.5 -39q97 0 157 47t60 135q0 90 -70.5 139.5t-199.5 49.5q-140 0 -273 -55h-6l131 827h719v-295h-477l-37 -215q77 10 113 10q196 0 322 -124t126 -332z" />
    <glyph glyph-name="six.OT" unicode="&#xe057;" 
d="M1085 428q0 -221 -147 -343t-383 -122q-242 0 -387 123t-145 342q0 152 79 281l435 688h407v-4l-338 -525v-4q61 3 113 -2q159 -22 262.5 -139t103.5 -295zM735 428q0 87 -46.5 140t-131.5 53q-87 0 -136.5 -49t-49.5 -144q0 -87 45.5 -138.5t132.5 -51.5q86 0 136 48
t50 142z" />
    <glyph glyph-name="seven.OT" unicode="&#xe058;" 
d="M494 -291h-371v4l508 1073v2h-596v318h1083v-21z" />
    <glyph glyph-name="eight.OT" unicode="&#xe059;" 
d="M1077 393q0 -201 -143 -315.5t-381 -114.5q-242 0 -384 114t-142 316q0 121 56 211.5t159 140.5v3q-164 96 -164 301q0 180 129 282.5t346 102.5q215 0 344 -103t129 -282q0 -200 -164 -301v-3q103 -50 159 -139.5t56 -212.5zM727 410q0 78 -45.5 125t-128.5 47
q-86 0 -132 -46.5t-46 -125.5t46 -125.5t132 -46.5q82 0 128 47t46 125zM707 1010q0 68 -40.5 108.5t-113.5 40.5q-75 0 -117.5 -41t-42.5 -108q0 -68 42 -111t118 -43q72 0 113 43t41 111z" />
    <glyph glyph-name="nine.OT" unicode="&#xe05a;" 
d="M571 -291h-407v4l338 525v4q-46 -5 -113 2q-159 23 -262.5 139t-103.5 295q0 221 146.5 343t383.5 122q241 0 386.5 -123t145.5 -342q0 -86 -23 -156t-85 -168zM737 678q0 87 -46 138.5t-132 51.5t-137 -48t-51 -142q0 -87 47 -140t133 -53t136 49.5t50 143.5z" />
    <glyph glyph-name="Euro.OP" unicode="&#xe05b;" horiz-adv-x="1136" 
d="M72 586v213h172q58 164 187 254t298 90q95 0 184 -25t150 -69v-273h-8q-89 115 -267 115q-130 0 -194 -92h364v-213h-423v-60h423v-213h-366q64 -98 203 -98q169 0 266 115h8v-273q-60 -45 -150.5 -69.5t-185.5 -24.5q-168 0 -301.5 89t-191.5 261h-168v213h133v60h-133z
" />
    </font>
</defs>
</svg>
