<?xml version="1.0" standalone="no"?>
<!DOCTYPE svg PUBLIC "-//W3C//DTD SVG 1.1//EN" "http://www.w3.org/Graphics/SVG/1.1/DTD/svg11.dtd" >
<svg xmlns="http://www.w3.org/2000/svg" xmlns:xlink="http://www.w3.org/1999/xlink" version="1.1">
<metadata>
Created by FontForge 20201107 at Wed Jan  3 16:14:26 2024
 By 
2010 Copyright Jean Francois Porchez, Typofonderie. All rights reserved. Distributed exclusively by Typofonderie, France. Singulier is an exclusive sanserif typeface available in 6 weights, with Latin, Greek and Cyrillic scripts support designed solely and exclusively for YSL Beaute. This font software may not be reproduced, modified, disclosed or transferred without the express written approval of Jean Francois Porchez, Typofonderie.
</metadata>
<defs>
<font id="Singulier-Heavy" horiz-adv-x="1228" >
  <font-face 
    font-family="Singulier Heavy"
    font-weight="850"
    font-stretch="normal"
    units-per-em="2048"
    panose-1="2 11 8 3 5 6 3 6 2 4"
    ascent="1638"
    descent="-410"
    x-height="1059"
    cap-height="1397"
    bbox="-268 -489 2851 2015"
    underline-thickness="329"
    underline-position="-230"
    unicode-range="U+000D-FB06"
  />
<missing-glyph horiz-adv-x="512" 
 />
    <glyph glyph-name="f_b" unicode="fb" horiz-adv-x="2066" 
d="M2013 530q0 -261 -133 -414t-344 -153q-102 0 -174 28.5t-135 78.5h-2l-357 -101h-6v1161q-63 82 -172 82q-57 0 -91 -29t-34 -75v-49h226v-344h-226v-715h-401v715h-133v12l133 332v86q0 186 112.5 295.5t307.5 109.5q111 0 182.5 -20t130.5 -64h2l358 101h7v-582h2
q133 111 299 111q203 0 325.5 -156.5t122.5 -409.5zM1593 530q0 102 -47 157.5t-119 55.5q-97 0 -163 -94v-246q67 -88 159 -88q75 0 122.5 56t47.5 159z" />
    <glyph glyph-name="f_f_b" unicode="ffb" horiz-adv-x="2762" 
d="M2710 530q0 -261 -133 -414t-343 -153q-104 0 -176 28.5t-135 78.5h-2l-356 -101h-6v1161q-63 82 -173 82q-56 0 -89 -29t-33 -75v-49h223v-344h-223v-715h-402v715h-297v-715h-401v715h-133v12l133 332v86q0 184 118.5 294.5t348.5 110.5q224 0 387 -75q105 75 262 75
q111 0 183 -20t132 -64h2l357 101h6v-582h2q67 56 137.5 83.5t161.5 27.5q203 0 326 -156.5t123 -409.5zM2290 530q0 102 -47 157.5t-119 55.5q-98 0 -164 -94v-246q67 -88 160 -88q75 0 122.5 56t47.5 159zM862 1059v86q0 33 4 45q-77 39 -166 39q-135 0 -135 -121v-49h297
z" />
    <glyph glyph-name="f_h" unicode="fh" horiz-adv-x="2078" 
d="M1942 0h-402v592q0 73 -34 112t-93 39q-90 0 -149 -94v-649h-402v1130q-63 82 -172 82q-57 0 -91 -29t-34 -75v-49h226v-344h-226v-715h-401v715h-133v12l133 332v86q0 186 112.5 295.5t307.5 109.5q111 0 182.5 -20t130.5 -64h2l358 101h7v-582h2q127 111 295 111
q76 0 143 -23t121 -67.5t85.5 -118t31.5 -166.5v-721z" />
    <glyph glyph-name="f_f_h" unicode="ffh" horiz-adv-x="2777" 
d="M2638 0h-402v592q0 73 -34 112t-93 39q-46 0 -84.5 -26.5t-64.5 -67.5v-649h-401v1130q-63 82 -173 82q-56 0 -89 -29t-33 -75v-49h223v-344h-223v-715h-402v715h-297v-715h-401v715h-133v12l133 332v86q0 184 118.5 294.5t348.5 110.5q224 0 387 -75q105 75 262 75
q111 0 183 -20t132 -64h2l357 101h6v-582h2q127 111 295 111q76 0 143.5 -23t121.5 -67.5t85 -117.5t31 -167v-721zM862 1059v86q0 31 4 45q-77 39 -166 39q-135 0 -135 -121v-49h297z" />
    <glyph glyph-name="f_j" unicode="fj" horiz-adv-x="1404" 
d="M860 -395q-151 0 -256 51v311h8q63 -53 140 -53q110 0 110 123v678h-297v-715h-401v715h-133v12l133 332v86q0 199 153.5 302t454.5 103q284 0 492 -73v-344h-9q-62 41 -173 67.5t-226 26.5q-161 0 -226 -31t-65 -92v-45h699v-1047q0 -207 -107 -307t-297 -100z" />
    <glyph glyph-name="f_f_j" unicode="ffj" horiz-adv-x="2101" 
d="M1556 -395q-151 0 -256 51v311h9q63 -53 139 -53q111 0 111 125v676h-295v-715h-402v715h-297v-715h-401v715h-133v12l133 332v86q0 184 118.5 294.5t348.5 110.5q239 0 411 -88q149 88 426 88q284 0 492 -73v-344h-8q-62 41 -173.5 67.5t-226.5 26.5q-160 0 -224 -31
t-64 -92v-45h696v-1045q0 -208 -106.5 -308.5t-297.5 -100.5zM862 1059v86q0 31 4 45q-77 39 -166 39q-135 0 -135 -121v-49h297z" />
    <glyph glyph-name="f_k" unicode="fk" horiz-adv-x="2054" 
d="M1264 0h-402v1130q-63 82 -172 82q-57 0 -91 -29t-34 -75v-49h226v-344h-226v-715h-401v715h-133v12l133 332v86q0 186 112.5 295.5t307.5 109.5q111 0 182.5 -20t130.5 -64h2l358 101h7v-1567zM2032 0h-467l-291 530v11l274 518h457l-295 -516v-4z" />
    <glyph glyph-name="f_f_k" unicode="ffk" horiz-adv-x="2750" 
d="M1960 0h-401v1130q-63 82 -173 82q-56 0 -89 -29t-33 -75v-49h223v-344h-223v-715h-402v715h-297v-715h-401v715h-133v12l133 332v86q0 184 118.5 294.5t348.5 110.5q224 0 387 -75q105 75 262 75q111 0 183 -20t132 -64h2l357 101h6v-1567zM2728 0h-467l-291 530v11
l275 518h456l-295 -516v-4zM862 1059v86q0 31 4 45q-77 39 -166 39q-135 0 -135 -121v-49h297z" />
    <glyph glyph-name="f_t" unicode="ft" horiz-adv-x="1531" 
d="M1264 0h-402v715h-297v-715h-401v715h-133v12l133 332v86q0 193 106 299t289 106q136 0 244 -51v-344h-8q-57 57 -136 57q-46 0 -70 -28.5t-24 -77.5v-47h297v311h402v-311h223v-344h-223v-715z" />
    <glyph glyph-name="f_f_t" unicode="fft" horiz-adv-x="2228" 
d="M1960 0h-401v715h-295v-715h-402v715h-297v-715h-401v715h-133v12l133 332v86q0 184 118.5 294.5t348.5 110.5q218 0 379 -71q99 71 243 71q138 0 246 -51v-344h-8q-60 57 -135 57q-46 0 -69 -28.5t-23 -77.5v-47h295v311h401v-311h223v-344h-223v-715zM862 1059v86
q0 31 2 47q-78 37 -164 37q-135 0 -135 -121v-49h297z" />
    <glyph glyph-name="f_f" unicode="ff" horiz-adv-x="1511" 
d="M1264 0h-402v715h-297v-715h-401v715h-133v12l133 332v86q0 184 118.5 294.5t348.5 110.5q226 0 381 -73q103 73 260 73q154 0 262 -51v-346h-8q-65 59 -154 59q-55 0 -81.5 -28t-26.5 -76v-49h223v-344h-223v-715zM862 1059v86q0 35 2 47q-62 37 -164 37
q-135 0 -135 -121v-49h297z" />
    <glyph glyph-name="fi" unicode="fi" horiz-adv-x="1404" 
d="M1264 0h-402v715h-297v-715h-401v715h-133v12l133 332v86q0 199 153.5 302t454.5 103q284 0 492 -73v-344h-9q-62 41 -173 67.5t-226 26.5q-161 0 -226 -31t-65 -92v-45h699v-1059z" />
    <glyph glyph-name="fl" unicode="fl" horiz-adv-x="1404" 
d="M1264 0h-402v1130q-63 82 -172 82q-57 0 -91 -29t-34 -75v-49h226v-344h-226v-715h-401v715h-133v12l133 332v86q0 186 112.5 295.5t307.5 109.5q111 0 182.5 -20t130.5 -64h2l358 101h7v-1567z" />
    <glyph glyph-name="f_f_i" unicode="ffi" horiz-adv-x="2101" 
d="M1960 0h-401v715h-295v-715h-402v715h-297v-715h-401v715h-133v12l133 332v86q0 184 118.5 294.5t348.5 110.5q239 0 411 -88q149 88 426 88q284 0 492 -73v-344h-8q-62 41 -173.5 67.5t-226.5 26.5q-160 0 -224 -31t-64 -92v-45h696v-1059zM862 1059v86q0 31 4 45
q-77 39 -166 39q-135 0 -135 -121v-49h297z" />
    <glyph glyph-name="f_f_l" unicode="ffl" horiz-adv-x="2101" 
d="M1960 0h-401v1130q-63 82 -173 82q-56 0 -89 -29t-33 -75v-49h223v-344h-223v-715h-402v715h-297v-715h-401v715h-133v12l133 332v86q0 184 118.5 294.5t348.5 110.5q224 0 387 -75q105 75 262 75q111 0 183 -20t132 -64h2l357 101h6v-1567zM862 1059v86q0 31 4 45
q-77 39 -166 39q-135 0 -135 -121v-49h297z" />
    <glyph glyph-name=".notdef" horiz-adv-x="512" 
 />
    <glyph glyph-name=".null" horiz-adv-x="0" 
 />
    <glyph glyph-name=".null" horiz-adv-x="0" 
 />
    <glyph glyph-name="nonmarkingreturn" horiz-adv-x="682" 
 />
    <glyph glyph-name="CR" unicode="&#xd;" horiz-adv-x="0" 
 />
    <glyph glyph-name="space" unicode=" " horiz-adv-x="614" 
 />
    <glyph glyph-name="space" unicode="&#xa0;" horiz-adv-x="614" 
 />
    <glyph glyph-name="exclam" unicode="!" horiz-adv-x="675" 
d="M510 496h-344l-45 1040h434zM524 0h-377v369h377v-369z" />
    <glyph glyph-name="quotedbl" unicode="&#x22;" horiz-adv-x="1069" 
d="M475 727h-350l-6 670h362zM944 727h-350l-6 670h362z" />
    <glyph glyph-name="numbersign" unicode="#" horiz-adv-x="1198" 
d="M893 375l-43 -375h-275l46 375h-125l-45 -375h-275l43 375h-166v229h193l24 191h-168v229h197l45 373h272l-45 -373h127l45 373h275l-45 -373h174v-229h-203l-24 -191h178v-229h-205zM647 604l23 191h-125l-23 -191h125z" />
    <glyph glyph-name="dollar" unicode="$" horiz-adv-x="1107" 
d="M655 -291h-288v262q-163 17 -295 86v373h8q102 -89 287 -117v256q-61 26 -109 58t-91 78.5t-66 113t-23 148.5q0 80 21.5 152.5t66 135.5t120 107.5t175.5 60.5v265h287v-269q130 -19 251 -80v-360h-8q-108 77 -243 100v-248q62 -27 109.5 -59.5t90.5 -80t66.5 -115
t23.5 -150.5q0 -169 -101 -291t-282 -158v-268zM711 399q0 38 -56 64v-139q56 21 56 75zM408 1004q0 -38 53 -64v135q-53 -20 -53 -71z" />
    <glyph glyph-name="percent" unicode="%" horiz-adv-x="1957" 
d="M772 944q0 -124 -30.5 -218.5t-83.5 -150t-119.5 -83t-145.5 -27.5q-78 0 -144 27.5t-119.5 83t-83.5 150t-30 218.5q0 125 30 219t83.5 149t119.5 82t144 27q79 0 145.5 -27t120 -82t83.5 -149t30 -219zM477 944q0 89 -11.5 138.5t-28 64t-42.5 14.5q-28 0 -45 -14.5
t-28 -64t-11 -138.5q0 -122 20 -171.5t62 -49.5q43 0 63.5 49t20.5 172zM1942 455q0 -124 -30.5 -218.5t-83.5 -150.5t-119.5 -83.5t-145.5 -27.5q-78 0 -144 27.5t-119.5 83.5t-83.5 150.5t-30 218.5q0 125 30 219t83.5 149t119.5 82t144 27q79 0 145.5 -27t120 -82
t83.5 -149t30 -219zM1647 455q0 89 -11.5 138.5t-28 64t-42.5 14.5q-28 0 -45 -14.5t-28 -64t-11 -138.5q0 -123 20 -172.5t62 -49.5q43 0 63.5 49.5t20.5 172.5zM838 0h-340l624 1397h340z" />
    <glyph glyph-name="ampersand" unicode="&#x26;" horiz-adv-x="1589" 
d="M725 -37q-329 0 -493 111.5t-164 308.5q0 136 73 226t209 132v2q-198 97 -198 318q0 75 29.5 140.5t88.5 118t158 83.5t227 31q206 0 361 -64v-391h-8q-123 102 -285 102q-68 0 -105.5 -24.5t-37.5 -69.5q0 -42 29 -66t79 -24h66v-354h-156q-106 -26 -106 -109
q0 -63 54.5 -92t178.5 -29q227 0 227 125q0 45 -29.5 72t-86.5 33v6l65 348h621v-354h-217v-2q71 -81 71 -185q0 -183 -161 -288t-490 -105z" />
    <glyph glyph-name="quotesingle" unicode="'" horiz-adv-x="614" 
d="M483 727h-350l-6 670h362z" />
    <glyph glyph-name="parenleft" unicode="(" horiz-adv-x="806" 
d="M801 -291h-385q-148 174 -230 396t-82 466t82 466.5t230 396.5h385q-148 -174 -230 -396.5t-82 -466.5t82 -466t230 -396z" />
    <glyph glyph-name="parenright" unicode=")" horiz-adv-x="806" 
d="M391 -291h-385q149 173 231 395t82 467t-82 467.5t-231 395.5h385q149 -173 231.5 -395.5t82.5 -467.5t-82.5 -466.5t-231.5 -395.5z" />
    <glyph glyph-name="asterisk" unicode="*" horiz-adv-x="1198" 
d="M1016 565l-230 -190l-186 235l-188 -235l-230 190l187 230l-297 108l102 279l277 -103v318h297v-318l276 103l102 -279l-299 -108z" />
    <glyph glyph-name="plus" unicode="+" 
d="M764 106h-299v340h-344v293h342v346h297v-346h346v-293h-342v-340z" />
    <glyph glyph-name="comma" unicode="," horiz-adv-x="612" 
d="M369 -283h-367l168 670h373v-10z" />
    <glyph glyph-name="hyphen" unicode="-" horiz-adv-x="614" 
d="M588 371h-559v366h559v-366z" />
    <glyph glyph-name="period" unicode="." horiz-adv-x="614" 
d="M506 0h-395v387h395v-387z" />
    <glyph glyph-name="slash" unicode="/" horiz-adv-x="960" 
d="M387 0h-401l587 1397h402z" />
    <glyph glyph-name="zero" unicode="0" horiz-adv-x="1337" 
d="M1264 698q0 -155 -31.5 -279.5t-85.5 -208.5t-130 -140.5t-163 -81.5t-186 -25t-186 25.5t-163 82.5t-130.5 141.5t-85.5 208.5t-31 277q0 155 31.5 279.5t86 209t131 141t163.5 81.5t186 25q125 0 229.5 -42t187.5 -127.5t130 -230.5t47 -336zM846 698q0 200 -43 282.5
t-133 82.5t-133 -82.5t-43 -282.5t43 -282t133 -82t133 82t43 282z" />
    <glyph glyph-name="one" unicode="1" horiz-adv-x="972" 
d="M811 0h-414v956l-327 -63h-7v387l742 154h6v-1434z" />
    <glyph glyph-name="two" unicode="2" horiz-adv-x="1198" 
d="M1151 0h-1057v309q155 119 258 217t152 170.5t66.5 123.5t17.5 102q0 74 -43.5 115.5t-116.5 41.5q-144 0 -299 -137h-6v387q191 105 391 105q103 0 192.5 -29t159.5 -84.5t110 -145t40 -202.5q0 -79 -16 -149.5t-40 -125t-71 -117.5t-90 -110.5t-115 -120.5v-2h467v-348
z" />
    <glyph glyph-name="three" unicode="3" horiz-adv-x="1142" 
d="M1075 358q0 -184 -134 -289.5t-372 -105.5q-244 0 -446 100v388h8q65 -58 172 -97t189 -39q77 0 119 27t42 80q0 44 -37.5 70t-109.5 26h-225v352h208q78 38 78 105q0 49 -39 76.5t-108 27.5q-148 0 -281 -133h-8v391q187 97 391 97q210 0 341.5 -104.5t131.5 -280.5
q0 -215 -196 -326v-2q133 -31 204.5 -125.5t71.5 -237.5z" />
    <glyph glyph-name="four" unicode="4" horiz-adv-x="1198" 
d="M1149 291h-150v-291h-411v291h-525v323l592 820h344v-820h150v-323zM598 614v244h-2l-168 -242v-2h170z" />
    <glyph glyph-name="five" unicode="5" horiz-adv-x="1107" 
d="M1044 455q0 -230 -147 -361t-387 -131q-225 0 -420 100v388h8q68 -60 164.5 -99t186.5 -39q79 0 126.5 36t47.5 102q0 67 -63 104t-179 37q-132 0 -266 -43h-6l133 848h755v-355h-462l-25 -131q35 7 70 7q202 0 333 -124.5t131 -338.5z" />
    <glyph glyph-name="six" unicode="6" horiz-adv-x="1234" 
d="M1171 438q0 -225 -151.5 -350t-401.5 -125q-252 0 -402 125.5t-150 349.5q0 83 18 149t61 136l418 674h494v-4l-318 -498v-4q53 -3 113 -19q143 -38 231 -152.5t88 -281.5zM750 438q0 68 -33 108t-94 40q-66 0 -102 -37t-36 -111q0 -67 32.5 -107t94.5 -40q64 0 101 37.5
t37 109.5z" />
    <glyph glyph-name="seven" unicode="7" horiz-adv-x="1198" 
d="M598 2h-451v4l463 1008v2h-547v383h1135v-25z" />
    <glyph glyph-name="eight" unicode="8" horiz-adv-x="1226" 
d="M1163 399q0 -205 -148.5 -320.5t-400.5 -115.5q-253 0 -402 115.5t-149 320.5q0 238 201 349v2q-147 101 -147 292q0 183 134.5 287.5t362.5 104.5q226 0 361 -104.5t135 -287.5q0 -189 -147 -292v-2q97 -53 148.5 -142t51.5 -207zM741 424q0 59 -33 95t-94 36
q-64 0 -97.5 -36t-33.5 -95q0 -60 33.5 -96.5t97.5 -36.5q61 0 94 37t33 96zM727 991q0 52 -29 83.5t-84 31.5q-56 0 -86 -31.5t-30 -83.5t30 -84.5t86 -32.5q54 0 83.5 33t29.5 84z" />
    <glyph glyph-name="nine" unicode="9" horiz-adv-x="1234" 
d="M672 0h-492v4l318 498v4q-58 3 -113 18q-143 38 -231 152.5t-88 281.5q0 226 151 351t401 125t401.5 -126t151.5 -350q0 -86 -20 -153t-72 -152zM752 958q0 67 -32.5 107.5t-94.5 40.5q-64 0 -101 -38t-37 -110q0 -68 32 -107.5t95 -39.5q66 0 102 37t36 110z" />
    <glyph glyph-name="colon" unicode=":" horiz-adv-x="614" 
d="M506 0h-395v387h395v-387zM506 672h-395v387h395v-387z" />
    <glyph glyph-name="semicolon" unicode=";" horiz-adv-x="614" 
d="M506 672h-395v387h395v-387zM334 -283h-367l168 670h373v-10z" />
    <glyph glyph-name="less" unicode="&#x3c;" 
d="M1106 102l-985 347v288l985 346v-340l-559 -145v-4l559 -152v-340z" />
    <glyph glyph-name="equal" unicode="=" 
d="M1106 215h-985v287h985v-287zM1106 688h-985v291h985v-291z" />
    <glyph glyph-name="greater" unicode="&#x3e;" 
d="M1106 449l-985 -347v340l559 152v4l-559 145v340l985 -346v-288z" />
    <glyph glyph-name="question" unicode="?" horiz-adv-x="1112" 
d="M668 496h-344l-9 221q137 122 193.5 198t56.5 150q0 67 -43.5 100t-111.5 33q-88 0 -177 -36t-157 -95h-8v385q191 98 430 98q228 0 365.5 -107.5t137.5 -287.5q0 -141 -76.5 -262t-246.5 -275zM684 0h-377v369h377v-369z" />
    <glyph glyph-name="at" unicode="@" horiz-adv-x="1882" 
d="M1034 -328q-451 0 -707.5 234t-256.5 649q0 261 106 460t303.5 309t460.5 110q186 0 345 -52t276.5 -148t184 -243t66.5 -327q0 -270 -124 -405.5t-353 -135.5h-256v61h-2q-112 -94 -248 -94q-165 0 -266.5 129.5t-101.5 339.5q0 216 108.5 341.5t282.5 125.5
q143 0 258 -88h2l279 82h2q-154 154 -443 154q-271 0 -430.5 -167t-159.5 -452q0 -283 178 -443.5t515 -160.5q359 0 581 135h8v-303q-113 -51 -275 -81t-333 -30zM944 410q70 0 111 63v178q-46 58 -109 58q-56 0 -88.5 -38.5t-32.5 -111.5t32.5 -111t86.5 -38zM1530 641
q0 223 -121 360v-616q50 0 85.5 67t35.5 189z" />
    <glyph glyph-name="A" unicode="A" horiz-adv-x="1482" 
d="M1468 0h-464l-80 260h-381l-80 -260h-449l535 1434h385zM817 631l-84 270h-2l-84 -270h170z" />
    <glyph glyph-name="B" unicode="B" horiz-adv-x="1361" 
d="M1284 377q0 -377 -502 -377h-618v1397h600q201 0 320.5 -93.5t119.5 -263.5q0 -109 -53.5 -190.5t-146.5 -130.5v-2q120 -27 200 -113.5t80 -226.5zM860 449q0 38 -28 58.5t-78 20.5h-166v-166h166q106 0 106 87zM776 961q0 34 -25 53.5t-67 19.5h-96v-157h114
q74 31 74 84z" />
    <glyph glyph-name="C" unicode="C" horiz-adv-x="1245" 
d="M1157 514v-440q-189 -111 -432 -111q-141 0 -261 50t-207.5 142.5t-137 232t-49.5 310.5q0 216 77.5 382t225 260t344.5 94q250 0 432 -111v-440h-8q-60 67 -149.5 107t-188.5 40q-137 0 -215 -89.5t-78 -244.5q0 -150 78 -239.5t221 -89.5q94 0 185.5 39.5t154.5 107.5
h8z" />
    <glyph glyph-name="D" unicode="D" horiz-adv-x="1513" 
d="M1444 698q0 -171 -57 -306.5t-155.5 -220t-226 -128t-274.5 -43.5h-567v1397h567q116 0 221 -27t195.5 -84t156 -138.5t103 -196.5t37.5 -253zM1018 698q0 150 -84.5 230t-218.5 80h-127v-619h127q134 0 218.5 79t84.5 230z" />
    <glyph glyph-name="E" unicode="E" horiz-adv-x="1150" 
d="M1057 0h-893v1397h840v-367h-416v-139h395v-369h-395v-155h469v-367z" />
    <glyph glyph-name="F" unicode="F" horiz-adv-x="1087" 
d="M588 0h-424v1397h840v-389h-416v-179h395v-389h-395v-440z" />
    <glyph glyph-name="G" unicode="G" horiz-adv-x="1478" 
d="M768 -37q-315 0 -506.5 199t-191.5 536q0 158 47.5 292t138 233t229 155t312.5 56q270 0 501 -113v-408h-8q-83 69 -195 109.5t-235 40.5q-179 0 -264.5 -102.5t-85.5 -276.5q0 -180 73 -271t183 -91q82 0 135 35t66 104h-279v12l105 348h610q6 -73 6 -166
q0 -336 -171.5 -514t-469.5 -178z" />
    <glyph glyph-name="H" unicode="H" horiz-adv-x="1587" 
d="M1423 0h-424v520h-411v-520h-424v1397h424v-473h411v473h424v-1397z" />
    <glyph glyph-name="I" unicode="I" horiz-adv-x="751" 
d="M588 0h-424v1397h424v-1397z" />
    <glyph glyph-name="J" unicode="J" horiz-adv-x="970" 
d="M362 -37q-145 0 -258 55v404h9q31 -33 74.5 -51.5t84.5 -18.5q70 0 102 37t32 111v493h-322v13l119 391h624v-985q0 -97 -24 -175.5t-76.5 -141.5t-145 -97.5t-219.5 -34.5z" />
    <glyph glyph-name="K" unicode="K" horiz-adv-x="1447" 
d="M588 0h-424v1397h424v-1397zM1407 0h-481l-326 702v15l309 680h471l-327 -680v-4z" />
    <glyph glyph-name="L" unicode="L" horiz-adv-x="1093" 
d="M1016 0h-852v1397h424v-994h428v-403z" />
    <glyph glyph-name="M" unicode="M" horiz-adv-x="1843" 
d="M1733 0h-424l-49 537h-3l-321 -574h-29l-325 576h-2l-43 -539h-426l122 1403h349l340 -637h2l338 637h348z" />
    <glyph glyph-name="N" unicode="N" horiz-adv-x="1605" 
d="M1440 -6h-350l-500 633h-2v-627h-424v1268l-80 114v15h428l504 -654h2v654h422v-1403z" />
    <glyph glyph-name="O" unicode="O" horiz-adv-x="1579" 
d="M1509 698q0 -332 -197 -533.5t-528 -201.5q-210 0 -371.5 89.5t-252 257t-90.5 388.5q0 219 88.5 386t254 258.5t384.5 91.5q317 0 514.5 -202t197.5 -534zM1071 698q0 160 -73.5 253t-200.5 93q-130 0 -208.5 -89.5t-78.5 -256.5q0 -161 73 -253.5t201 -92.5
q130 0 208.5 89.5t78.5 256.5z" />
    <glyph glyph-name="P" unicode="P" horiz-adv-x="1335" 
d="M1255 942q0 -255 -166.5 -387.5t-500.5 -175.5v-379h-424v1397h581q227 0 368.5 -120t141.5 -335zM831 903q0 57 -35.5 89t-95.5 32h-112v-272q120 3 181.5 43t61.5 108z" />
    <glyph glyph-name="Q" unicode="Q" horiz-adv-x="1579" 
d="M1509 698q0 -262 -124.5 -445t-344.5 -253l320 -395h-483l-248 372q-254 45 -406.5 237.5t-152.5 483.5q0 219 88.5 386t254 258.5t384.5 91.5q317 0 514.5 -202t197.5 -534zM1071 698q0 160 -73.5 253t-200.5 93q-130 0 -208.5 -89.5t-78.5 -256.5q0 -161 73 -253.5
t201 -92.5q130 0 208.5 89.5t78.5 256.5z" />
    <glyph glyph-name="R" unicode="R" horiz-adv-x="1441" 
d="M1401 0h-483l-318 676v14q281 49 281 197q0 67 -46 105t-126 38h-121v-1030h-424v1397h631q232 0 371 -114t139 -335q0 -136 -44 -229t-141 -168v-4z" />
    <glyph glyph-name="S" unicode="S" horiz-adv-x="1155" 
d="M1081 426q0 -203 -140 -333t-386 -130q-244 0 -442 103v395h6q74 -67 188.5 -105.5t210.5 -38.5q141 0 141 80q0 26 -23 48.5t-61 38.5t-86.5 37t-99.5 42.5t-99.5 58t-86.5 80.5t-61 112t-23 151q0 93 27.5 173.5t85 148.5t157.5 107.5t232 39.5q110 0 218.5 -26.5
t192.5 -76.5v-395h-6q-74 68 -171 104.5t-191 36.5q-119 0 -119 -73q0 -27 23 -49.5t60.5 -38.5t86 -37.5t98.5 -43.5t98.5 -59t86 -82t60.5 -114.5t23 -153.5z" />
    <glyph glyph-name="T" unicode="T" horiz-adv-x="1241" 
d="M834 0h-424v993h-349v404h1119v-404h-346v-993z" />
    <glyph glyph-name="U" unicode="U" horiz-adv-x="1431" 
d="M717 -37q-272 0 -423 131t-151 377v926h424v-893q0 -152 138 -152q137 0 137 152v893h446v-926q0 -246 -151 -377t-420 -131z" />
    <glyph glyph-name="V" unicode="V" horiz-adv-x="1439" 
d="M897 -37h-352l-531 1434h465l250 -811h2l248 811h446z" />
    <glyph glyph-name="W" unicode="W" horiz-adv-x="2117" 
d="M1614 -37h-352l-201 574h-2l-203 -574h-350l-488 1434h461l230 -772h2l145 516l-76 256h432l222 -772h2l219 772h444z" />
    <glyph glyph-name="X" unicode="X" horiz-adv-x="1529" 
d="M1483 0h-506l-211 389h-2l-193 -389h-493l379 709l-410 688h502l209 -387h2l196 387h492l-379 -688z" />
    <glyph glyph-name="Y" unicode="Y" horiz-adv-x="1421" 
d="M924 0h-422v506l-490 891h504l189 -412h2l213 412h489l-485 -891v-506z" />
    <glyph glyph-name="Z" unicode="Z" horiz-adv-x="1413" 
d="M1313 0h-1215v25l480 952v2h-439v418h1129v-25l-480 -952v-2h525v-418z" />
    <glyph glyph-name="bracketleft" unicode="[" horiz-adv-x="802" 
d="M729 -291h-586v1725h586v-326h-219v-1073h219v-326z" />
    <glyph glyph-name="backslash" unicode="\" horiz-adv-x="960" 
d="M975 0h-402l-587 1397h401z" />
    <glyph glyph-name="bracketright" unicode="]" horiz-adv-x="802" 
d="M74 1434h583v-1725h-583v326h217v1073h-217v326z" />
    <glyph glyph-name="asciicircum" unicode="^" 
d="M1104 412h-342l-148 501h-4l-149 -501h-340l348 878h287z" />
    <glyph glyph-name="underscore" unicode="_" 
d="M1208 -395h-1188v329h1188v-329z" />
    <glyph glyph-name="grave" unicode="`" horiz-adv-x="1024" 
d="M813 1165h-338l-264 371h403z" />
    <glyph glyph-name="grave" unicode="&#x300;" horiz-adv-x="1024" 
d="M813 1165h-338l-264 371h403z" />
    <glyph glyph-name="grave" unicode="&#x2cb;" horiz-adv-x="1024" 
d="M813 1165h-338l-264 371h403z" />
    <glyph glyph-name="a" unicode="a" horiz-adv-x="1253" 
d="M1128 0h-391v70h-2q-131 -107 -286 -107q-150 0 -254.5 93.5t-104.5 258.5q0 159 103.5 254t291.5 95q143 0 242 -52v31q0 60 -65.5 91.5t-169.5 31.5q-91 0 -180 -32t-152 -87h-6v354q182 95 424 95q93 0 173.5 -16t150.5 -52.5t119.5 -91t78 -136.5t28.5 -184v-616z
M727 324v34q-59 27 -133 27q-111 0 -111 -57q0 -26 26.5 -43t78.5 -17q86 0 139 56z" />
    <glyph glyph-name="b" unicode="b" horiz-adv-x="1355" 
d="M1294 530q0 -261 -132.5 -414t-342.5 -153q-104 0 -176 28.5t-135 78.5h-2l-356 -101h-7v1567h402v-551h2q67 56 137.5 83.5t161.5 27.5q203 0 325.5 -156.5t122.5 -409.5zM874 530q0 102 -46.5 157.5t-118.5 55.5q-98 0 -164 -94v-246q67 -88 160 -88q75 0 122 55.5
t47 159.5z" />
    <glyph glyph-name="c" unicode="c" horiz-adv-x="978" 
d="M903 434v-385q-141 -86 -332 -86q-109 0 -204 38.5t-165 109.5t-110.5 179t-40.5 240q0 251 141 408.5t373 157.5q193 0 332 -84v-387h-6q-38 49 -100.5 81.5t-126.5 32.5q-88 0 -140.5 -58t-52.5 -153q0 -92 54.5 -150.5t146.5 -58.5q61 0 123 32t102 83h6z" />
    <glyph glyph-name="d" unicode="d" horiz-adv-x="1355" 
d="M1212 0h-399v76h-2q-132 -113 -301 -113q-203 0 -326 156.5t-123 410.5q0 259 133.5 412.5t342.5 153.5q165 0 272 -76h2v516h401v-1536zM811 410v245q-71 88 -160 88q-75 0 -122.5 -55.5t-47.5 -157.5q0 -103 47 -159t119 -56q97 0 164 95z" />
    <glyph glyph-name="e" unicode="e" horiz-adv-x="1220" 
d="M1100 57q-168 -94 -428 -94q-280 0 -450.5 152.5t-170.5 414.5q0 124 36.5 227.5t105.5 179t176 117.5t241 42q111 0 208.5 -34t172 -97.5t117.5 -163.5t43 -223q0 -68 -6 -129h-672q24 -76 96 -118t189 -42q92 0 181.5 31.5t154.5 85.5h6v-349zM729 737q-11 36 -43.5 58
t-81.5 22q-106 0 -131 -80h256z" />
    <glyph glyph-name="f" unicode="f" horiz-adv-x="833" 
d="M565 0h-401v715h-133v12l133 332v86q0 194 109 299.5t302 105.5q155 0 263 -51v-346h-9q-65 59 -153 59q-54 0 -82.5 -28.5t-28.5 -75.5v-49h226v-344h-226v-715z" />
    <glyph glyph-name="g" unicode="g" horiz-adv-x="1341" 
d="M807 424v252q-57 67 -141 67q-78 0 -127.5 -51.5t-49.5 -142.5t50 -144t123 -53q89 0 145 72zM649 -410q-281 0 -450 95v362h8q150 -133 377 -133q103 0 163 39.5t60 109.5v50h-2q-127 -113 -307 -113q-90 0 -168 35t-138.5 101.5t-95.5 172.5t-35 240q0 133 36 238
t100 172t150 102t188 35q172 0 311 -107h4l352 101h6v-996q0 -156 -72.5 -271.5t-198 -174t-288.5 -58.5z" />
    <glyph glyph-name="h" unicode="h" horiz-adv-x="1355" 
d="M1223 0h-402v592q0 73 -34 112t-93 39q-90 0 -149 -94v-649h-402v1536h402v-551h2q127 111 295 111q76 0 143.5 -23t121.5 -67.5t85 -117.5t31 -167v-721z" />
    <glyph glyph-name="i" unicode="i" horiz-adv-x="686" 
d="M545 0h-402v1059h402v-1059zM553 1217h-418v319h418v-319z" />
    <glyph glyph-name="j" unicode="j" horiz-adv-x="686" 
d="M141 -395q-151 0 -256 51v311h9q63 -53 139 -53q110 0 110 123v1022h402v-1045q0 -208 -106.5 -308.5t-297.5 -100.5zM553 1217h-418v319h418v-319z" />
    <glyph glyph-name="k" unicode="k" horiz-adv-x="1335" 
d="M545 0h-402v1536h402v-1536zM1313 0h-467l-291 530v11l274 518h457l-295 -518v-4z" />
    <glyph glyph-name="l" unicode="l" horiz-adv-x="686" 
d="M545 0h-402v1536h402v-1536z" />
    <glyph glyph-name="m" unicode="m" horiz-adv-x="2035" 
d="M1903 0h-402v592q0 73 -34 112t-93 39q-88 0 -153 -98q2 -18 2 -57v-588h-402v592q0 73 -34 112t-93 39q-90 0 -149 -94v-649h-402v1059h400v-76h2q64 58 135 85.5t166 27.5q98 0 180.5 -39.5t132.5 -114.5h4q97 81 177.5 117.5t185.5 36.5q74 0 140.5 -23t120 -67.5
t85 -118t31.5 -166.5v-721z" />
    <glyph glyph-name="n" unicode="n" horiz-adv-x="1380" 
d="M1247 0h-401v592q0 73 -37 112t-100 39q-101 0 -164 -94v-649h-402v1059h400v-74h2q133 111 307 111q80 0 149.5 -23t125 -67.5t88 -117.5t32.5 -167v-721z" />
    <glyph glyph-name="o" unicode="o" horiz-adv-x="1302" 
d="M829 530q0 103 -46 164.5t-128 61.5q-85 0 -134.5 -59.5t-49.5 -166.5q0 -104 47 -165.5t129 -61.5q85 0 133.5 59t48.5 168zM1251 530q0 -255 -164 -411t-440 -156q-268 0 -432 155t-164 412q0 255 164 410.5t440 155.5q267 0 431.5 -155.5t164.5 -410.5z" />
    <glyph glyph-name="p" unicode="p" horiz-adv-x="1355" 
d="M1294 530q0 -261 -132.5 -414t-342.5 -153q-165 0 -272 76h-2v-434h-402v1454h400v-74h2q133 111 301 111q203 0 325.5 -156.5t122.5 -409.5zM874 530q0 102 -46.5 157.5t-118.5 55.5q-98 0 -164 -94v-246q67 -88 160 -88q75 0 122 55.5t47 159.5z" />
    <glyph glyph-name="q" unicode="q" horiz-adv-x="1355" 
d="M1212 -395h-401v469h-2q-133 -111 -299 -111q-203 0 -326 156.5t-123 410.5q0 259 133.5 412.5t342.5 153.5q104 0 176 -28.5t135 -78.5h2l356 101h6v-1485zM811 410v245q-71 88 -160 88q-75 0 -122.5 -55.5t-47.5 -157.5q0 -103 47 -159t119 -56q97 0 164 95z" />
    <glyph glyph-name="r" unicode="r" horiz-adv-x="929" 
d="M545 0h-402v1059h383v-82h2q126 119 250 119q64 0 107 -21v-389h-8q-66 47 -140 47q-92 0 -192 -80v-653z" />
    <glyph glyph-name="s" unicode="s" horiz-adv-x="1038" 
d="M946 334q0 -171 -113.5 -271t-340.5 -100q-218 0 -383 74v352h6q59 -55 156 -87t184 -32q58 0 80 10t22 33q0 17 -24.5 29t-63.5 22.5t-86.5 24t-95 39t-86.5 61.5t-63.5 98.5t-24.5 143.5q0 173 110.5 269t319.5 96q211 0 366 -74v-352h-6q-61 55 -149.5 86.5
t-167.5 31.5q-44 0 -61 -10t-17 -30q0 -16 24 -28.5t63 -23t85.5 -24.5t93 -39.5t85.5 -61.5t63 -97t24 -140z" />
    <glyph glyph-name="t" unicode="t" horiz-adv-x="833" 
d="M565 0h-401v715h-135v12l135 332v311h401v-311h226v-344h-226v-715z" />
    <glyph glyph-name="u" unicode="u" horiz-adv-x="1331" 
d="M1206 1059v-586q0 -236 -143 -373t-404 -137q-252 0 -393 136.5t-141 373.5v586h401v-594q0 -81 37 -121.5t101 -40.5t102.5 41t38.5 121v594h401z" />
    <glyph glyph-name="v" unicode="v" horiz-adv-x="1284" 
d="M797 -37h-310l-473 1096h455l174 -527h2l170 527h457z" />
    <glyph glyph-name="w" unicode="w" horiz-adv-x="1863" 
d="M1421 -37h-276l-209 356h-2l-215 -356h-277l-426 1096h451l149 -447h2l297 484h37l293 -484h2l150 447h450z" />
    <glyph glyph-name="x" unicode="x" horiz-adv-x="1284" 
d="M1270 0h-467l-160 285h-2l-145 -285h-457l313 539l-338 520h467l158 -285h2l145 285h457l-313 -524z" />
    <glyph glyph-name="y" unicode="y" horiz-adv-x="1284" 
d="M735 -395h-454l168 395l-437 1059h461l174 -551h2l170 551h451z" />
    <glyph glyph-name="z" unicode="z" horiz-adv-x="1126" 
d="M1063 0h-1032v25l360 688v2h-321v344h952v-25l-365 -688v-2h406v-344z" />
    <glyph glyph-name="braceleft" unicode="{" horiz-adv-x="864" 
d="M793 -291q-121 0 -209.5 11.5t-154.5 38.5t-108 65.5t-67 98.5t-35 131.5t-10 170.5v187l-141 155v8l141 156v187q0 99 10 170.5t35 131.5t67 98.5t108 65.5t154.5 38.5t209.5 11.5v-326q-131 0 -174.5 -44t-43.5 -153v-188l-133 -152l133 -151v-189q0 -73 16.5 -113
t64 -61.5t137.5 -21.5v-326z" />
    <glyph glyph-name="bar" unicode="|" horiz-adv-x="614" 
d="M473 -389h-330v2007h330v-2007z" />
    <glyph glyph-name="braceright" unicode="}" horiz-adv-x="864" 
d="M70 1434q121 0 210 -11.5t155 -38.5t108 -65.5t67 -99t35 -131.5t10 -170v-187l142 -156v-8l-142 -155v-187q0 -99 -10 -170t-35 -131.5t-67 -99t-108 -65.5t-155 -38.5t-210 -11.5v326q91 0 139 21.5t64 61.5t16 113v189l133 151l-133 152v188q0 73 -16 113t-64 62
t-139 22v326z" />
    <glyph glyph-name="asciitilde" unicode="~" 
d="M1077 502q-110 -105 -243 -105q-52 0 -114 20t-110 44.5t-107 44.5t-106 20q-128 0 -247 -129v310q110 102 243 102q53 0 115.5 -19.5t110.5 -43t106.5 -43t103.5 -19.5q137 0 248 125v-307z" />
    <glyph glyph-name="exclamdown" unicode="&#xa1;" horiz-adv-x="675" 
d="M555 -477h-434l45 1040h344zM528 692h-376v367h376v-367z" />
    <glyph glyph-name="cent" unicode="&#xa2;" horiz-adv-x="1122" 
d="M895 -291h-287v256q-257 17 -399.5 170t-142.5 418q0 252 143 411.5t399 176.5v256h287v-287q86 -27 137 -57v-375h-8q-53 59 -129 88v-428q77 29 135 90h8v-375q-61 -37 -143 -59v-285zM483 551q0 -170 125 -219v442q-125 -46 -125 -223z" />
    <glyph glyph-name="sterling" unicode="&#xa3;" horiz-adv-x="1198" 
d="M1092 0h-1002v348h166l-18 168h-148v320h115l-8 73q-1 9 -4 42t-3 53q0 192 136.5 311t390.5 119q104 0 208.5 -25.5t186.5 -69.5v-397h-8q-63 61 -149.5 99t-170.5 38q-89 0 -131.5 -40t-42.5 -103q0 -6 1 -17t2.5 -26t2.5 -23l2 -34h365v-320h-332l19 -168h422v-348z
" />
    <glyph glyph-name="currency" unicode="&#xa4;" 
d="M979 602q0 -63 -27 -129l140 -139l-209 -207l-142 139q-60 -26 -127 -26q-59 0 -131 26l-147 -143l-207 205l150 149q-25 70 -25 125q0 60 25 123l-148 149l211 209l143 -143q66 27 129 27q61 0 131 -25l144 145l209 -210l-146 -140q27 -73 27 -135zM723 602
q0 48 -31.5 86.5t-79.5 38.5q-46 0 -77 -38.5t-31 -86.5q0 -47 31 -84t77 -37q48 0 79.5 36.5t31.5 84.5z" />
    <glyph glyph-name="yen" unicode="&#xa5;" horiz-adv-x="1198" 
d="M825 0h-411v266h-353v254h353v64h-353v254h240l-262 559h446l133 -428h3l118 428h424l-237 -559h215v-254h-316v-64h316v-254h-316v-266z" />
    <glyph glyph-name="brokenbar" unicode="&#xa6;" horiz-adv-x="614" 
d="M473 770h-330v848h330v-848zM473 -389h-330v848h330v-848z" />
    <glyph glyph-name="section" unicode="&#xa7;" horiz-adv-x="1198" 
d="M1139 557q0 -236 -178 -354v-2q65 -69 65 -162q0 -168 -115 -268.5t-340 -100.5q-223 0 -385 76v344h7q60 -53 156.5 -84t182.5 -31q57 0 80 12.5t23 37.5q0 16 -11 27t-33 18.5t-44.5 12.5t-55.5 12.5t-57 15.5q-176 36 -276.5 150.5t-100.5 295.5q0 121 49.5 212
t137.5 149v2q-54 68 -54 151q0 170 111 266.5t320 96.5q203 0 368 -74v-346h-6q-61 54 -151.5 85t-167.5 31q-78 0 -78 -49q0 -10 3.5 -18t12.5 -14t17.5 -10t24.5 -8.5t27.5 -7.5t33 -7.5t34.5 -7.5q185 -30 292.5 -146.5t107.5 -304.5zM717 557q0 61 -29.5 98t-85.5 37
q-60 0 -92.5 -34.5t-32.5 -100.5q0 -62 29 -98.5t86 -36.5q60 0 92.5 34.5t32.5 100.5z" />
    <glyph glyph-name="dieresis" unicode="&#xa8;" horiz-adv-x="1024" 
d="M453 1217h-383v319h383v-319zM952 1217h-383v319h383v-319z" />
    <glyph glyph-name="dieresis" unicode="&#x308;" horiz-adv-x="1024" 
d="M453 1217h-383v319h383v-319zM952 1217h-383v319h383v-319z" />
    <glyph glyph-name="copyright" unicode="&#xa9;" horiz-adv-x="1626" 
d="M829 281q-165 0 -269.5 111t-104.5 302q0 185 98.5 300.5t271.5 115.5q133 0 246 -55v-281h-6q-32 31 -81.5 50.5t-102.5 19.5q-67 0 -103.5 -39.5t-36.5 -110.5q0 -67 37 -108t107 -41q107 0 186 69h4v-278q-107 -55 -246 -55zM807 -37q-216 0 -383 89.5t-260.5 257
t-93.5 388.5q0 333 204 534.5t547 201.5q215 0 381.5 -90.5t260 -258t93.5 -387.5q0 -332 -203.5 -533.5t-545.5 -201.5zM801 156q115 0 211 34t167.5 100t111.5 171t40 239q0 250 -137 395.5t-367 145.5q-115 0 -210.5 -33.5t-168 -99t-113 -170t-40.5 -238.5
q0 -252 137 -398t369 -146z" />
    <glyph glyph-name="ordfeminine" unicode="&#xaa;" horiz-adv-x="833" 
d="M750 207h-662v260h662v-260zM750 604h-275v43h-2q-81 -67 -182 -67q-98 0 -167 60.5t-69 170.5q0 102 67.5 164.5t190.5 62.5q88 0 154 -32v16q0 34 -41.5 52t-106.5 18q-123 0 -217 -74h-6v242q124 59 283 59q79 0 144 -17.5t117 -54t81 -99.5t29 -149v-395zM467 809v29
q-35 14 -74 14q-61 0 -61 -33q0 -31 55 -31q52 0 80 21z" />
    <glyph glyph-name="guillemotleft" unicode="&#xab;" horiz-adv-x="1167" 
d="M637 158h-367l-219 391v12l219 391h367l-207 -397zM1118 158h-366l-220 391v12l220 391h366l-207 -397z" />
    <glyph glyph-name="logicalnot" unicode="&#xac;" 
d="M1106 338h-297v332h-688v295h985v-627z" />
    <glyph glyph-name="registered" unicode="&#xae;" horiz-adv-x="1626" 
d="M807 -37q-216 0 -383 89.5t-260.5 257t-93.5 388.5q0 333 204 534.5t547 201.5q215 0 381.5 -90.5t260 -258t93.5 -387.5q0 -332 -203.5 -533.5t-545.5 -201.5zM801 156q250 0 389 145h-293l-139 387v8q127 24 127 97q0 29 -21 45t-55 16h-57v-553h-275v789h389
q133 0 213 -66t80 -195q0 -72 -22.5 -119.5t-71.5 -88.5v-3l139 -303q127 143 127 385q0 250 -137 395.5t-367 145.5q-115 0 -210.5 -33.5t-168 -99t-113 -170t-40.5 -238.5q0 -252 137 -398t369 -146z" />
    <glyph glyph-name="macron" unicode="&#xaf;" horiz-adv-x="1024" 
d="M922 1233h-818v297h818v-297z" />
    <glyph glyph-name="macron" unicode="&#x304;" horiz-adv-x="1024" 
d="M922 1233h-818v297h818v-297z" />
    <glyph glyph-name="macron" unicode="&#x2c9;" horiz-adv-x="1024" 
d="M922 1233h-818v297h818v-297z" />
    <glyph glyph-name="degree" unicode="&#xb0;" horiz-adv-x="808" 
d="M745 1116q0 -133 -89 -217t-250 -84q-159 0 -251 84.5t-92 216.5t92 216.5t253 84.5q158 0 247.5 -84.5t89.5 -216.5zM483 1116q0 117 -75 117q-78 0 -78 -117q0 -119 76 -119q77 0 77 119z" />
    <glyph glyph-name="plusminus" unicode="&#xb1;" 
d="M1106 90h-985v293h985v-293zM760 436h-291v234h-348v288h344v242h293v-242h348v-288h-346v-234z" />
    <glyph glyph-name="twosuperior" unicode="&#xb2;" horiz-adv-x="788" 
d="M758 604h-695v217q99 75 165 137t95.5 107t39.5 74.5t10 58.5q0 44 -25.5 68t-68.5 24q-89 0 -193 -86h-4v266q132 66 256 66q142 0 237 -77.5t95 -221.5q0 -62 -12 -112.5t-41.5 -98t-60 -84t-85.5 -92.5v-2h287v-244z" />
    <glyph glyph-name="threesuperior" unicode="&#xb3;" horiz-adv-x="788" 
d="M735 838q0 -120 -87.5 -189t-244.5 -69t-297 65v266h7q42 -36 112 -62t123 -26q44 0 69 15t25 43q0 51 -82 51h-151v246h135q39 20 39 55q0 27 -21.5 42t-60.5 15q-93 0 -184 -84h-4v267q123 63 258 63q140 0 226.5 -68t86.5 -184q0 -143 -131 -211q90 -20 136 -81
t46 -154z" />
    <glyph glyph-name="acute" unicode="&#xb4;" horiz-adv-x="1024" 
d="M549 1165h-338l213 371h389z" />
    <glyph glyph-name="acute" unicode="&#x301;" horiz-adv-x="1024" 
d="M549 1165h-338l213 371h389z" />
    <glyph glyph-name="acute" unicode="&#x2ca;" horiz-adv-x="1024" 
d="M549 1165h-338l213 371h389z" />
    <glyph glyph-name="mu" unicode="&#xb5;" horiz-adv-x="1366" 
d="M1223 0h-381v76h-2q-34 -47 -86.5 -80t-108.5 -33q-90 0 -143 53h-4q24 -116 47 -299l-400 -112h-2v1454h402v-582q0 -81 36.5 -121.5t98.5 -40.5q56 0 94 34.5t47 99.5v610h402v-1059z" />
    <glyph glyph-name="paragraph" unicode="&#xb6;" horiz-adv-x="1323" 
d="M1151 -291h-403v672q-167 22 -286 60.5t-207.5 103.5t-131.5 163t-43 234q0 114 38 202t107 142.5t161 82.5t204 28h561v-1688z" />
    <glyph glyph-name="periodcentered" unicode="&#xb7;" horiz-adv-x="614" 
d="M506 362h-395v388h395v-388z" />
    <glyph glyph-name="periodcentered" unicode="&#x2219;" horiz-adv-x="614" 
d="M506 362h-395v388h395v-388z" />
    <glyph glyph-name="cedilla" unicode="&#xb8;" horiz-adv-x="1024" 
d="M784 -219q0 -77 -70.5 -126.5t-215.5 -49.5q-165 0 -258 33v165h6q84 -39 170 -39q53 0 53 21q0 17 -32 23.5t-118 11.5l50 180h280l-16 -61q151 -41 151 -158z" />
    <glyph glyph-name="cedilla" unicode="&#x327;" horiz-adv-x="1024" 
d="M784 -219q0 -77 -70.5 -126.5t-215.5 -49.5q-165 0 -258 33v165h6q84 -39 170 -39q53 0 53 21q0 17 -32 23.5t-118 11.5l50 180h280l-16 -61q151 -41 151 -158z" />
    <glyph glyph-name="onesuperior" unicode="&#xb9;" horiz-adv-x="788" 
d="M616 604h-288v600l-215 -39h-4v271l503 100h4v-932z" />
    <glyph glyph-name="ordmasculine" unicode="&#xba;" horiz-adv-x="856" 
d="M758 207h-662v260h662v-260zM530 950q0 54 -26 88.5t-72 34.5q-50 0 -78 -32t-28 -91q0 -56 26 -90.5t72 -34.5q50 0 78 32t28 93zM825 950q0 -166 -108 -268t-293 -102q-175 0 -284 101.5t-109 268.5q0 165 108 267t293 102q175 0 284 -102t109 -267z" />
    <glyph glyph-name="guillemotright" unicode="&#xbb;" horiz-adv-x="1167" 
d="M418 158h-367l207 397l-207 397h367l219 -391v-12zM899 158h-367l207 397l-207 397h367l219 -391v-12z" />
    <glyph glyph-name="onequarter" unicode="&#xbc;" horiz-adv-x="1869" 
d="M1837 188h-92v-188h-289v188h-330v226l375 518h244v-522h92v-222zM1464 410v127h-2l-84 -125v-2h86zM616 489h-288v601l-215 -39h-4v270l503 100h4v-932zM813 0h-340l625 1397h340z" />
    <glyph glyph-name="onehalf" unicode="&#xbd;" horiz-adv-x="1957" 
d="M1927 0h-694v217q99 75 165 137t95 107t39 74.5t10 58.5q0 44 -25.5 68t-68.5 24q-89 0 -193 -86h-4v266q132 66 256 66q142 0 237 -77.5t95 -221.5q0 -62 -12 -112.5t-41.5 -98t-60 -84t-85.5 -92.5v-2h287v-244zM616 489h-288v601l-215 -39h-4v270l503 100h4v-932z
M813 0h-340l625 1397h340z" />
    <glyph glyph-name="threequarters" unicode="&#xbe;" horiz-adv-x="1896" 
d="M840 0h-340l624 1397h340zM735 723q0 -120 -87.5 -189t-244.5 -69t-297 65v267h7q42 -36 112 -62t123 -26q94 0 94 57q0 51 -82 51h-151v246h135q39 20 39 55q0 27 -21.5 42.5t-60.5 15.5q-93 0 -184 -84h-4v266q123 63 258 63q140 0 226.5 -68t86.5 -184
q0 -143 -131 -211q90 -20 136 -81t46 -154zM1864 188h-92v-188h-289v188h-330v226l375 518h244v-522h92v-222zM1491 410v127h-2l-84 -125v-2h86z" />
    <glyph glyph-name="questiondown" unicode="&#xbf;" horiz-adv-x="1112" 
d="M442 565h344l11 -221q-138 -121 -194 -197t-56 -151q0 -67 43 -100t110 -33q90 0 178.5 36t155.5 95h8v-385q-191 -98 -430 -98q-228 0 -365.5 107.5t-137.5 287.5q0 141 76.5 261.5t246.5 274.5zM428 1061h377v-369h-377v369z" />
    <glyph glyph-name="Agrave" unicode="&#xc0;" horiz-adv-x="1482" 
d="M1468 0h-464l-80 260h-381l-80 -260h-449l535 1434h14l-176 204h406l118 -204h23zM817 631l-84 270h-2l-84 -270h170z" />
    <glyph glyph-name="Aacute" unicode="&#xc1;" horiz-adv-x="1482" 
d="M1468 0h-464l-80 260h-381l-80 -260h-449l535 1434h22l121 204h406l-178 -204h14zM817 631l-84 270h-2l-84 -270h170z" />
    <glyph glyph-name="Acircumflex" unicode="&#xc2;" horiz-adv-x="1482" 
d="M1178 1397h-232l522 -1397h-464l-80 260h-381l-80 -260h-449l521 1397h-230l252 262h369zM817 631l-84 270h-2l-84 -270h170zM739 1481l-55 -47h113l-56 47h-2z" />
    <glyph glyph-name="Atilde" unicode="&#xc3;" horiz-adv-x="1482" 
d="M1468 0h-464l-80 260h-381l-80 -260h-449l525 1405h-205q3 46 9.5 84t23 77t41 65t65.5 42.5t94 16.5q63 0 160.5 -35t126.5 -35q50 0 57 70h238q-3 -56 -13 -100.5t-32 -86.5t-62.5 -67.5t-97.5 -30.5zM817 631l-84 270h-2l-84 -270h170zM629 1475q-41 0 -54 -41h195
q-14 5 -48.5 17.5t-54.5 18t-38 5.5z" />
    <glyph glyph-name="Adieresis" unicode="&#xc4;" horiz-adv-x="1482" 
d="M1182 1419h-244l530 -1419h-464l-80 260h-381l-80 -260h-449l529 1419h-244v273h383v-258h117v258h383v-273zM817 631l-84 270h-2l-84 -270h170z" />
    <glyph glyph-name="Aring" unicode="&#xc5;" horiz-adv-x="1482" 
d="M1047 1602q0 -115 -113 -168l534 -1434h-464l-80 260h-381l-80 -260h-449l533 1430q-113 52 -113 172q0 100 83.5 152t227.5 52q142 0 222 -52t80 -152zM817 631l-84 270h-2l-84 -270h170zM815 1602q0 25 -19 40t-55 15t-55.5 -15t-19.5 -40t19.5 -40.5t55.5 -15.5t55 15
t19 41z" />
    <glyph glyph-name="AE" unicode="&#xc6;" horiz-adv-x="1945" 
d="M1851 0h-890v430h-273l-176 -430h-492l644 1397h1134v-367h-416v-164h396v-366h-396v-133h469v-367zM952 1090l-123 -287h132v287h-9z" />
    <glyph glyph-name="Ccedilla" unicode="&#xc7;" horiz-adv-x="1245" 
d="M965 -219q0 -77 -71 -126.5t-216 -49.5q-165 0 -258 33v165h6q84 -39 170 -39q53 0 53 21q0 17 -31.5 23.5t-117.5 11.5l45 166q-218 57 -346.5 242.5t-128.5 469.5q0 216 77.5 382t225 260t344.5 94q250 0 432 -111v-440h-8q-60 67 -149.5 107t-188.5 40
q-137 0 -215 -89.5t-78 -244.5q0 -150 78 -239.5t221 -89.5q94 0 185.5 39.5t154.5 107.5h8v-440q-148 -88 -336 -105l-8 -30q152 -41 152 -158z" />
    <glyph glyph-name="Egrave" unicode="&#xc8;" horiz-adv-x="1150" 
d="M1057 0h-893v1397h268l-209 241h406l141 -241h234v-367h-416v-139h395v-369h-395v-155h469v-367z" />
    <glyph glyph-name="Eacute" unicode="&#xc9;" horiz-adv-x="1150" 
d="M1057 0h-893v1397h237l142 241h405l-209 -241h265v-367h-416v-139h395v-369h-395v-155h469v-367z" />
    <glyph glyph-name="Ecircumflex" unicode="&#xca;" horiz-adv-x="1150" 
d="M1012 1397h-8v-367h-416v-139h395v-369h-395v-155h469v-367h-893v1397h-25l252 262h369zM573 1481l-98 -84h201l-101 84h-2z" />
    <glyph glyph-name="Edieresis" unicode="&#xcb;" horiz-adv-x="1150" 
d="M514 1419h-383v273h383v-273zM1014 1419h-383v273h383v-273zM1057 0h-893v1397h840v-367h-416v-139h395v-369h-395v-155h469v-367z" />
    <glyph glyph-name="Igrave" unicode="&#xcc;" horiz-adv-x="759" 
d="M551 1397h37v-1397h-424v1397h49l-209 241h406z" />
    <glyph glyph-name="Iacute" unicode="&#xcd;" horiz-adv-x="759" 
d="M545 1397h43v-1397h-424v1397h43l141 241h406z" />
    <glyph glyph-name="Icircumflex" unicode="&#xce;" horiz-adv-x="759" 
d="M817 1397h-229v-1397h-424v1397h-219l252 262h368zM379 1481l-98 -84h200l-100 84h-2z" />
    <glyph glyph-name="Idieresis" unicode="&#xcf;" horiz-adv-x="759" 
d="M588 0h-424v1397h424v-1397zM322 1419h-383v273h383v-273zM821 1419h-383v273h383v-273z" />
    <glyph glyph-name="Eth" unicode="&#xd0;" horiz-adv-x="1513" 
d="M1444 698q0 -171 -57 -306.5t-155.5 -220t-226 -128t-274.5 -43.5h-567v541h-164v331h164v525h567q116 0 221 -27t195.5 -84t156 -138.5t103 -196.5t37.5 -253zM1018 698q0 150 -84.5 230t-218.5 80h-127v-136h235v-331h-235v-152h127q134 0 218.5 79t84.5 230z" />
    <glyph glyph-name="Ntilde" unicode="&#xd1;" horiz-adv-x="1605" 
d="M958 1405q-63 0 -160 35t-126 35q-51 0 -58 -70h-237q3 46 9.5 84t23 77t41 65t65.5 42.5t94 16.5q63 0 160.5 -35t126.5 -35q50 0 57 70h238q-3 -60 -14.5 -106t-36 -89t-71 -66.5t-112.5 -23.5zM1440 -6h-350l-500 633h-2v-627h-424v1268l-80 114v15h428l504 -654h2
v654h422v-1403z" />
    <glyph glyph-name="Ograve" unicode="&#xd2;" horiz-adv-x="1579" 
d="M1509 698q0 -332 -197 -533.5t-528 -201.5q-210 0 -371.5 89.5t-252 257t-90.5 388.5q0 282 143.5 471.5t394.5 243.5l-192 225h405l127 -219q256 -46 408.5 -239t152.5 -482zM1071 698q0 160 -73.5 253t-200.5 93q-130 0 -208.5 -89.5t-78.5 -256.5q0 -161 73 -253.5
t201 -92.5q130 0 208.5 89.5t78.5 256.5z" />
    <glyph glyph-name="Oacute" unicode="&#xd3;" horiz-adv-x="1579" 
d="M1509 698q0 -332 -197 -533.5t-528 -201.5q-210 0 -371.5 89.5t-252 257t-90.5 388.5q0 285 148 476.5t407 242.5l129 221h405l-192 -223q248 -52 395 -242.5t147 -474.5zM1071 698q0 160 -73.5 253t-200.5 93q-130 0 -208.5 -89.5t-78.5 -256.5q0 -161 73 -253.5
t201 -92.5q130 0 208.5 89.5t78.5 256.5z" />
    <glyph glyph-name="Ocircumflex" unicode="&#xd4;" horiz-adv-x="1579" 
d="M1225 1397h-183q215 -70 341 -254.5t126 -444.5q0 -332 -197 -533.5t-528 -201.5q-210 0 -371.5 89.5t-252 257t-90.5 388.5q0 262 124.5 446t346.5 253h-189l252 262h369zM1071 698q0 160 -73.5 253t-200.5 93q-130 0 -208.5 -89.5t-78.5 -256.5q0 -161 73 -253.5
t201 -92.5q130 0 208.5 89.5t78.5 256.5zM797 1434q8 0 24.5 -1t24.5 -1l-58 49h-2l-57 -49q23 2 68 2z" />
    <glyph glyph-name="Otilde" unicode="&#xd5;" horiz-adv-x="1579" 
d="M1509 698q0 -332 -197 -533.5t-528 -201.5q-210 0 -371.5 89.5t-252 257t-90.5 388.5q0 269 132.5 456.5t366.5 250.5h-170q3 46 10 84t23 77t41 65t66 42.5t94 16.5q63 0 160.5 -35t126.5 -35q50 0 57 70h237q-3 -57 -13 -100.5t-31.5 -86t-62 -68t-97.5 -30.5
q230 -62 364.5 -249t134.5 -458zM1071 698q0 160 -73.5 253t-200.5 93q-130 0 -208.5 -89.5t-78.5 -256.5q0 -161 73 -253.5t201 -92.5q130 0 208.5 89.5t78.5 256.5zM694 1475q-44 0 -55 -56q73 15 158 15q29 0 43 -2q-13 4 -40 14.5t-41 15t-32.5 9t-32.5 4.5z" />
    <glyph glyph-name="Odieresis" unicode="&#xd6;" horiz-adv-x="1579" 
d="M1509 698q0 -332 -197 -533.5t-528 -201.5q-210 0 -371.5 89.5t-252 257t-90.5 388.5q0 289 150.5 481.5t412.5 239.5h-287v273h383v-260q23 2 68 2q8 0 24.5 -1t24.5 -1v260h383v-273h-277q255 -48 406 -240t151 -481zM1071 698q0 160 -73.5 253t-200.5 93
q-130 0 -208.5 -89.5t-78.5 -256.5q0 -161 73 -253.5t201 -92.5q130 0 208.5 89.5t78.5 256.5z" />
    <glyph glyph-name="multiply" unicode="&#xd7;" 
d="M1092 324l-209 -211l-271 270l-276 -272l-207 204l277 275l-275 270l211 211l270 -272l277 274l209 -207l-277 -276z" />
    <glyph glyph-name="Oslash" unicode="&#xd8;" horiz-adv-x="1579" 
d="M479 -37h-409l163 236q-163 196 -163 499q0 219 88.5 386t254 258.5t384.5 91.5q145 0 272 -48l33 48h407l-166 -240q166 -200 166 -496q0 -220 -88 -386t-253 -257.5t-384 -91.5q-144 0 -274 45zM1071 698q0 67 -16 129l-330 -469q27 -6 59 -6q130 0 208.5 89.5
t78.5 256.5zM510 698q0 -75 14 -127l328 465q-27 6 -55 6q-130 0 -208.5 -88.5t-78.5 -255.5z" />
    <glyph glyph-name="Ugrave" unicode="&#xd9;" horiz-adv-x="1431" 
d="M717 -37q-272 0 -423 131t-151 377v926h392l-209 241h405l141 -241h416v-926q0 -246 -151 -377t-420 -131zM842 504v893h-275v-893q0 -152 138 -152q137 0 137 152z" />
    <glyph glyph-name="Uacute" unicode="&#xda;" horiz-adv-x="1431" 
d="M717 -37q-272 0 -423 131t-151 377v926h398l141 241h405l-208 -241h409v-926q0 -246 -151 -377t-420 -131zM842 504v893h-275v-893q0 -152 138 -152q137 0 137 152z" />
    <glyph glyph-name="Ucircumflex" unicode="&#xdb;" horiz-adv-x="1431" 
d="M1141 1397h147v-926q0 -246 -151 -377t-420 -131q-272 0 -423 131t-151 377v926h125l252 262h369zM842 504v893h-37l-100 84h-3l-98 -84h-37v-893q0 -152 138 -152q137 0 137 152z" />
    <glyph glyph-name="Udieresis" unicode="&#xdc;" horiz-adv-x="1431" 
d="M643 1419h-383v273h383v-273zM1143 1419h-383v273h383v-273zM717 -37q-272 0 -423 131t-151 377v926h424v-893q0 -152 138 -152q137 0 137 152v893h446v-926q0 -246 -151 -377t-420 -131z" />
    <glyph glyph-name="Yacute" unicode="&#xdd;" horiz-adv-x="1421" 
d="M924 0h-422v506l-490 891h504l189 -412h2l213 412h489l-485 -891v-506zM883 1397h-338l141 241h406z" />
    <glyph glyph-name="Thorn" unicode="&#xde;" horiz-adv-x="1335" 
d="M1255 819q0 -136 -42.5 -234.5t-130.5 -164t-207.5 -104.5t-286.5 -60v-256h-424v1397h424v-123h157q230 0 370 -116t140 -339zM831 780q0 57 -35.5 89t-95.5 32h-112v-272q120 3 181.5 43t61.5 108z" />
    <glyph glyph-name="germandbls" unicode="&#xdf;" horiz-adv-x="1568" 
d="M1040 -37q-220 0 -385 74v350h7q60 -54 157 -85.5t182 -31.5q58 0 81.5 11.5t23.5 35.5q0 19 -24.5 32.5t-64 25t-87.5 25.5t-95.5 40.5t-87 63t-64 99.5t-24.5 145q0 76 27.5 138t66.5 100.5t78.5 68.5t67 58t27.5 54q0 60 -160 60q-99 0 -150 -30t-51 -107v-1090h-401
v715h-133v12l133 332v82q0 194 156.5 301.5t457.5 107.5q574 0 574 -348q0 -72 -31 -131t-75 -96.5t-87.5 -68t-74.5 -60.5t-31 -58q0 -29 24.5 -48t63.5 -31.5t86 -26t94 -37.5t86 -59t63.5 -99t24.5 -149q0 -172 -114.5 -273.5t-340.5 -101.5z" />
    <glyph glyph-name="agrave" unicode="&#xe0;" horiz-adv-x="1253" 
d="M1128 0h-391v70h-2q-131 -107 -286 -107q-150 0 -254.5 93.5t-104.5 258.5q0 159 103.5 254t291.5 95q143 0 242 -52v31q0 60 -65.5 91.5t-169.5 31.5q-91 0 -180 -32t-152 -87h-6v354q182 95 424 95q93 0 173.5 -16t150.5 -52.5t119.5 -91t78 -136.5t28.5 -184v-616z
M727 324v34q-59 27 -133 27q-111 0 -111 -57q0 -26 26.5 -43t78.5 -17q86 0 139 56zM803 1165h-338l-264 371h403z" />
    <glyph glyph-name="aacute" unicode="&#xe1;" horiz-adv-x="1253" 
d="M1128 0h-391v70h-2q-131 -107 -286 -107q-150 0 -254.5 93.5t-104.5 258.5q0 159 103.5 254t291.5 95q143 0 242 -52v31q0 60 -65.5 91.5t-169.5 31.5q-91 0 -180 -32t-152 -87h-6v354q182 95 424 95q93 0 173.5 -16t150.5 -52.5t119.5 -91t78 -136.5t28.5 -184v-616z
M727 324v34q-59 27 -133 27q-111 0 -111 -57q0 -26 26.5 -43t78.5 -17q86 0 139 56zM774 1165h-338l213 371h389z" />
    <glyph glyph-name="acircumflex" unicode="&#xe2;" horiz-adv-x="1253" 
d="M1128 0h-391v70h-2q-131 -107 -286 -107q-150 0 -254.5 93.5t-104.5 258.5q0 159 103.5 254t291.5 95q143 0 242 -52v31q0 60 -65.5 91.5t-169.5 31.5q-91 0 -180 -32t-152 -87h-6v354q182 95 424 95q93 0 173.5 -16t150.5 -52.5t119.5 -91t78 -136.5t28.5 -184v-616z
M727 324v34q-59 27 -133 27q-111 0 -111 -57q0 -26 26.5 -43t78.5 -17q86 0 139 56zM1067 1165h-338l-117 142h-2l-114 -142h-338l288 375h332z" />
    <glyph glyph-name="atilde" unicode="&#xe3;" horiz-adv-x="1253" 
d="M1128 0h-391v70h-2q-131 -107 -286 -107q-150 0 -254.5 93.5t-104.5 258.5q0 159 103.5 254t291.5 95q143 0 242 -52v31q0 60 -65.5 91.5t-169.5 31.5q-91 0 -180 -32t-152 -87h-6v354q182 95 424 95q93 0 173.5 -16t150.5 -52.5t119.5 -91t78 -136.5t28.5 -184v-616z
M727 324v34q-59 27 -133 27q-111 0 -111 -57q0 -26 26.5 -43t78.5 -17q86 0 139 56zM809 1190q-57 0 -123 20t-121.5 40t-87.5 20q-30 0 -43 -19.5t-18 -60.5h-238q22 346 238 346q57 0 123 -20t121.5 -40t87.5 -20q30 0 43 19.5t18 60.5h238q-22 -346 -238 -346z" />
    <glyph glyph-name="adieresis" unicode="&#xe4;" horiz-adv-x="1253" 
d="M1128 0h-391v70h-2q-131 -107 -286 -107q-150 0 -254.5 93.5t-104.5 258.5q0 159 103.5 254t291.5 95q143 0 242 -52v31q0 60 -65.5 91.5t-169.5 31.5q-91 0 -180 -32t-152 -87h-6v354q182 95 424 95q93 0 173.5 -16t150.5 -52.5t119.5 -91t78 -136.5t28.5 -184v-616z
M727 324v34q-59 27 -133 27q-111 0 -111 -57q0 -26 26.5 -43t78.5 -17q86 0 139 56zM553 1217h-383v319h383v-319zM1053 1217h-383v319h383v-319z" />
    <glyph glyph-name="aring" unicode="&#xe5;" horiz-adv-x="1253" 
d="M1128 0h-391v70h-2q-131 -107 -286 -107q-150 0 -254.5 93.5t-104.5 258.5q0 159 103.5 254t291.5 95q143 0 242 -52v31q0 60 -65.5 91.5t-169.5 31.5q-91 0 -180 -32t-152 -87h-6v354q182 95 424 95q93 0 173.5 -16t150.5 -52.5t119.5 -91t78 -136.5t28.5 -184v-616z
M727 324v34q-59 27 -133 27q-111 0 -111 -57q0 -26 26.5 -43t78.5 -17q86 0 139 56zM940 1389q0 -103 -84 -156t-227 -53t-224 53t-81 156q0 100 84.5 153t228.5 53q141 0 222 -52.5t81 -153.5zM705 1389q0 24 -18.5 39.5t-53.5 15.5t-54.5 -15.5t-19.5 -39.5q0 -60 74 -60
q72 0 72 60z" />
    <glyph glyph-name="ae" unicode="&#xe6;" horiz-adv-x="1873" 
d="M1327 -37q-296 0 -467 166h-6q-95 -90 -192 -128t-213 -38q-150 0 -254.5 93.5t-104.5 258.5q0 159 103.5 254t291.5 95q143 0 242 -52v31q0 61 -65.5 92t-169.5 31q-91 0 -180 -31.5t-152 -85.5h-6v352q182 95 424 95q225 0 358 -101h6q126 101 322 101q111 0 208 -34
t171.5 -97.5t117.5 -163.5t43 -223q0 -88 -6 -129h-670q24 -77 96 -119.5t189 -42.5q91 0 180.5 31.5t153.5 84.5h8v-346q-168 -94 -428 -94zM588 268q93 0 147 60l-4 12q-4 12 -4 18q-56 27 -129 27q-61 0 -88 -13.5t-27 -43.5q0 -27 26.5 -43.5t78.5 -16.5zM1384 737
q-26 80 -127 80q-104 0 -131 -80h258z" />
    <glyph glyph-name="ccedilla" unicode="&#xe7;" horiz-adv-x="978" 
d="M825 -219q0 -77 -70.5 -126.5t-215.5 -49.5q-165 0 -258 33v165h6q84 -39 170 -39q53 0 53 21q0 17 -32 23.5t-118 11.5l46 168q-161 49 -258 190.5t-97 351.5q0 251 141 408.5t373 157.5q193 0 332 -84v-387h-6q-38 49 -100.5 81.5t-126.5 32.5q-88 0 -140.5 -58
t-52.5 -153q0 -92 54.5 -150.5t146.5 -58.5q61 0 123 32t102 83h6v-385q-98 -60 -221 -78l-8 -32q151 -41 151 -158z" />
    <glyph glyph-name="egrave" unicode="&#xe8;" horiz-adv-x="1220" 
d="M1100 57q-168 -94 -428 -94q-280 0 -450.5 152.5t-170.5 414.5q0 124 36.5 227.5t105.5 179t176 117.5t241 42q111 0 208.5 -34t172 -97.5t117.5 -163.5t43 -223q0 -68 -6 -129h-672q24 -76 96 -118t189 -42q92 0 181.5 31.5t154.5 85.5h6v-349zM729 737q-11 36 -43.5 58
t-81.5 22q-106 0 -131 -80h256zM780 1165h-338l-264 371h404z" />
    <glyph glyph-name="eacute" unicode="&#xe9;" horiz-adv-x="1220" 
d="M754 1165h-338l213 371h389zM1100 57q-168 -94 -428 -94q-280 0 -450.5 152.5t-170.5 414.5q0 124 36.5 227.5t105.5 179t176 117.5t241 42q111 0 208.5 -34t172 -97.5t117.5 -163.5t43 -223q0 -68 -6 -129h-672q24 -76 96 -118t189 -42q92 0 181.5 31.5t154.5 85.5h6
v-349zM729 737q-11 36 -43.5 58t-81.5 22q-106 0 -131 -80h256z" />
    <glyph glyph-name="ecircumflex" unicode="&#xea;" horiz-adv-x="1220" 
d="M1063 1165h-338l-117 142h-2l-114 -142h-338l288 375h332zM1100 57q-168 -94 -428 -94q-280 0 -450.5 152.5t-170.5 414.5q0 124 36.5 227.5t105.5 179t176 117.5t241 42q111 0 208.5 -34t172 -97.5t117.5 -163.5t43 -223q0 -68 -6 -129h-672q24 -76 96 -118t189 -42
q92 0 181.5 31.5t154.5 85.5h6v-349zM729 737q-11 36 -43.5 58t-81.5 22q-106 0 -131 -80h256z" />
    <glyph glyph-name="edieresis" unicode="&#xeb;" horiz-adv-x="1220" 
d="M551 1217h-383v319h383v-319zM1051 1217h-383v319h383v-319zM1100 57q-168 -94 -428 -94q-280 0 -450.5 152.5t-170.5 414.5q0 124 36.5 227.5t105.5 179t176 117.5t241 42q111 0 208.5 -34t172 -97.5t117.5 -163.5t43 -223q0 -68 -6 -129h-672q24 -76 96 -118t189 -42
q92 0 181.5 31.5t154.5 85.5h6v-349zM729 737q-11 36 -43.5 58t-81.5 22q-106 0 -131 -80h256z" />
    <glyph glyph-name="igrave" unicode="&#xec;" horiz-adv-x="686" 
d="M545 0h-402v1059h402v-1059zM500 1165h-338l-264 371h403z" />
    <glyph glyph-name="iacute" unicode="&#xed;" horiz-adv-x="686" 
d="M545 0h-402v1059h402v-1059zM520 1165h-338l213 371h389z" />
    <glyph glyph-name="icircumflex" unicode="&#xee;" horiz-adv-x="686" 
d="M545 0h-402v1059h402v-1059zM797 1165h-338l-117 142h-2l-115 -142h-338l289 375h332z" />
    <glyph glyph-name="idieresis" unicode="&#xef;" horiz-adv-x="686" 
d="M545 0h-402v1059h402v-1059zM285 1217h-383v319h383v-319zM784 1217h-383v319h383v-319z" />
    <glyph glyph-name="eth" unicode="&#xf0;" horiz-adv-x="1302" 
d="M1114 1176l-149 -15l151 -246q66 -106 100.5 -198.5t34.5 -194.5q0 -250 -164 -404.5t-440 -154.5q-267 0 -431.5 153.5t-164.5 405.5q0 184 88.5 317.5t251.5 182.5q79 28 156 31v2l-39 61l-348 -33v326l157 14l-65 109v4h481l41 -68l340 35v-327zM829 520q0 97 -46 154
t-128 57q-85 0 -134.5 -55t-49.5 -156q0 -97 47 -157t129 -60q84 0 133 57.5t49 159.5z" />
    <glyph glyph-name="ntilde" unicode="&#xf1;" horiz-adv-x="1380" 
d="M1247 0h-401v592q0 73 -37 112t-100 39q-101 0 -164 -94v-649h-402v1059h400v-74h2q133 111 307 111q80 0 149.5 -23t125 -67.5t88 -117.5t32.5 -167v-721zM889 1190q-57 0 -123 20t-121.5 40t-87.5 20q-30 0 -43 -19.5t-18 -60.5h-238q22 346 238 346q57 0 122.5 -20
t121 -40t87.5 -20q30 0 43.5 20t18.5 60h237q-22 -346 -237 -346z" />
    <glyph glyph-name="ograve" unicode="&#xf2;" horiz-adv-x="1302" 
d="M829 530q0 103 -46 164.5t-128 61.5q-85 0 -134.5 -59.5t-49.5 -166.5q0 -104 47 -165.5t129 -61.5q85 0 133.5 59t48.5 168zM1251 530q0 -255 -164 -411t-440 -156q-268 0 -432 155t-164 412q0 255 164 410.5t440 155.5q267 0 431.5 -155.5t164.5 -410.5zM823 1165h-338
l-264 371h404z" />
    <glyph glyph-name="oacute" unicode="&#xf3;" horiz-adv-x="1302" 
d="M829 1165h-337l213 371h389zM829 530q0 103 -46 164.5t-128 61.5q-85 0 -134.5 -59.5t-49.5 -166.5q0 -104 47 -165.5t129 -61.5q85 0 133.5 59t48.5 168zM1251 530q0 -255 -164 -411t-440 -156q-268 0 -432 155t-164 412q0 255 164 410.5t440 155.5q267 0 431.5 -155.5
t164.5 -410.5z" />
    <glyph glyph-name="ocircumflex" unicode="&#xf4;" horiz-adv-x="1302" 
d="M1106 1165h-338l-117 142h-2l-114 -142h-338l288 375h332zM829 530q0 103 -46 164.5t-128 61.5q-85 0 -134.5 -59.5t-49.5 -166.5q0 -104 47 -165.5t129 -61.5q85 0 133.5 59t48.5 168zM1251 530q0 -255 -164 -411t-440 -156q-268 0 -432 155t-164 412q0 255 164 410.5
t440 155.5q267 0 431.5 -155.5t164.5 -410.5z" />
    <glyph glyph-name="otilde" unicode="&#xf5;" horiz-adv-x="1302" 
d="M829 530q0 103 -46 164.5t-128 61.5q-85 0 -134.5 -59.5t-49.5 -166.5q0 -104 47 -165.5t129 -61.5q85 0 133.5 59t48.5 168zM1251 530q0 -255 -164 -411t-440 -156q-268 0 -432 155t-164 412q0 255 164 410.5t440 155.5q267 0 431.5 -155.5t164.5 -410.5zM848 1190
q-57 0 -123 20t-121.5 40t-87.5 20q-30 0 -43 -19.5t-18 -60.5h-238q22 346 238 346q57 0 122.5 -20t121 -40t87.5 -20q30 0 43.5 20t18.5 60h237q-22 -346 -237 -346z" />
    <glyph glyph-name="odieresis" unicode="&#xf6;" horiz-adv-x="1302" 
d="M592 1217h-383v319h383v-319zM1092 1217h-383v319h383v-319zM829 530q0 103 -46 164.5t-128 61.5q-85 0 -134.5 -59.5t-49.5 -166.5q0 -104 47 -165.5t129 -61.5q85 0 133.5 59t48.5 168zM1251 530q0 -255 -164 -411t-440 -156q-268 0 -432 155t-164 412q0 255 164 410.5
t440 155.5q267 0 431.5 -155.5t164.5 -410.5z" />
    <glyph glyph-name="divide" unicode="&#xf7;" 
d="M1106 446h-985v293h985v-293zM793 37h-361v328h361v-328zM793 823h-361v326h361v-326z" />
    <glyph glyph-name="oslash" unicode="&#xf8;" horiz-adv-x="1302" 
d="M440 -37h-389l131 189q-131 150 -131 378q0 255 164 410.5t440 155.5q100 0 189 -25l16 25h391l-131 -191q131 -153 131 -375q0 -255 -164 -411t-440 -156q-101 0 -190 25zM471 530q0 -23 4 -63l211 285q-20 4 -31 4q-85 0 -134.5 -59.5t-49.5 -166.5zM829 530q0 7 -1 21
t-1 20l-200 -268h20q85 0 133.5 59t48.5 168z" />
    <glyph glyph-name="ugrave" unicode="&#xf9;" horiz-adv-x="1331" 
d="M1206 1059v-586q0 -236 -143 -373t-404 -137q-252 0 -393 136.5t-141 373.5v586h401v-594q0 -81 37 -121.5t101 -40.5t102.5 41t38.5 121v594h401zM840 1165h-338l-264 371h403z" />
    <glyph glyph-name="uacute" unicode="&#xfa;" horiz-adv-x="1331" 
d="M827 1165h-338l213 371h390zM1206 1059v-586q0 -236 -143 -373t-404 -137q-252 0 -393 136.5t-141 373.5v586h401v-594q0 -81 37 -121.5t101 -40.5t102.5 41t38.5 121v594h401z" />
    <glyph glyph-name="ucircumflex" unicode="&#xfb;" horiz-adv-x="1331" 
d="M1120 1165h-338l-116 142h-2l-115 -142h-338l289 375h331zM1206 1059v-586q0 -236 -143 -373t-404 -137q-252 0 -393 136.5t-141 373.5v586h401v-594q0 -81 37 -121.5t101 -40.5t102.5 41t38.5 121v594h401z" />
    <glyph glyph-name="udieresis" unicode="&#xfc;" horiz-adv-x="1331" 
d="M606 1217h-383v319h383v-319zM1106 1217h-383v319h383v-319zM1206 1059v-586q0 -236 -143 -373t-404 -137q-252 0 -393 136.5t-141 373.5v586h401v-594q0 -81 37 -121.5t101 -40.5t102.5 41t38.5 121v594h401z" />
    <glyph glyph-name="yacute" unicode="&#xfd;" horiz-adv-x="1286" 
d="M735 -395h-454l168 395l-437 1059h461l174 -551h2l170 551h451zM823 1165h-338l213 371h389z" />
    <glyph glyph-name="thorn" unicode="&#xfe;" horiz-adv-x="1355" 
d="M874 530q0 102 -46.5 157.5t-118.5 55.5q-98 0 -164 -94v-246q67 -88 160 -88q75 0 122 55.5t47 159.5zM1294 530q0 -261 -132.5 -414t-342.5 -153q-165 0 -272 76h-2v-434h-402v1931h402v-551h2q67 56 137.5 83.5t161.5 27.5q203 0 325.5 -156.5t122.5 -409.5z" />
    <glyph glyph-name="ydieresis" unicode="&#xff;" horiz-adv-x="1286" 
d="M735 -395h-454l168 395l-437 1059h461l174 -551h2l170 551h451zM584 1217h-383v319h383v-319zM1083 1217h-383v319h383v-319z" />
    <glyph glyph-name="Amacron" unicode="&#x100;" horiz-adv-x="1482" 
d="M1130 1425h-194l532 -1425h-464l-80 260h-381l-80 -260h-449l531 1425h-191v267h776v-267zM817 631l-84 270h-2l-84 -270h170z" />
    <glyph glyph-name="amacron" unicode="&#x101;" horiz-adv-x="1253" 
d="M1128 0h-391v70h-2q-131 -107 -286 -107q-150 0 -254.5 93.5t-104.5 258.5q0 159 103.5 254t291.5 95q143 0 242 -52v31q0 60 -65.5 91.5t-169.5 31.5q-91 0 -180 -32t-152 -87h-6v354q182 95 424 95q93 0 173.5 -16t150.5 -52.5t119.5 -91t78 -136.5t28.5 -184v-616z
M727 324v34q-59 27 -133 27q-111 0 -111 -57q0 -26 26.5 -43t78.5 -17q86 0 139 56zM1022 1233h-817v297h817v-297z" />
    <glyph glyph-name="Abreve" unicode="&#x102;" horiz-adv-x="1482" 
d="M1468 0h-464l-80 260h-381l-80 -260h-449l535 1434h16q-87 31 -140 97t-63 161h285q23 -52 94 -52q72 0 95 52h284q-24 -193 -205 -258h19zM817 631l-84 270h-2l-84 -270h170z" />
    <glyph glyph-name="abreve" unicode="&#x103;" horiz-adv-x="1253" 
d="M1128 0h-391v70h-2q-131 -107 -286 -107q-150 0 -254.5 93.5t-104.5 258.5q0 159 103.5 254t291.5 95q143 0 242 -52v31q0 60 -65.5 91.5t-169.5 31.5q-91 0 -180 -32t-152 -87h-6v354q182 95 424 95q93 0 173.5 -16t150.5 -52.5t119.5 -91t78 -136.5t28.5 -184v-616z
M727 324v34q-59 27 -133 27q-111 0 -111 -57q0 -26 26.5 -43t78.5 -17q86 0 139 56zM631 1180q-192 0 -292.5 96t-111.5 260h293q6 -45 35.5 -72.5t75.5 -27.5q45 0 74.5 27.5t35.5 72.5h293q-11 -165 -111 -260.5t-292 -95.5z" />
    <glyph glyph-name="Aogonek" unicode="&#x104;" horiz-adv-x="1482" 
d="M1378 -358q-107 -37 -243 -37q-133 0 -199 48.5t-66 123.5q0 108 134 223l-80 260h-381l-80 -260h-449l535 1434h385l534 -1434h-200q-86 -80 -86 -129q0 -45 65 -45q50 0 125 35h6v-219zM817 631l-84 270h-2l-84 -270h170z" />
    <glyph glyph-name="aogonek" unicode="&#x105;" horiz-adv-x="1253" 
d="M1114 -358q-107 -37 -244 -37q-133 0 -198.5 48.5t-65.5 123.5q0 105 131 223v70h-2q-131 -107 -286 -107q-150 0 -254.5 93.5t-104.5 258.5q0 159 103.5 254t291.5 95q143 0 242 -52v31q0 60 -65.5 91.5t-169.5 31.5q-91 0 -180 -32t-152 -87h-6v354q182 95 424 95
q93 0 173.5 -16t150.5 -52.5t119.5 -91t78 -136.5t28.5 -184v-616h-124q-86 -80 -86 -129q0 -45 65 -45q50 0 125 35h6v-219zM727 324v34q-59 27 -133 27q-111 0 -111 -57q0 -26 26.5 -43t78.5 -17q86 0 139 56z" />
    <glyph glyph-name="Cacute" unicode="&#x106;" horiz-adv-x="1245" 
d="M1157 514v-440q-189 -111 -432 -111q-141 0 -261 50t-207.5 142.5t-137 232t-49.5 310.5q0 278 127.5 470t353.5 247l131 223h405l-190 -221q133 -25 252 -94v-440h-8q-60 67 -149.5 107t-188.5 40q-137 0 -215 -89.5t-78 -244.5q0 -150 78 -239.5t221 -89.5
q94 0 185.5 39.5t154.5 107.5h8z" />
    <glyph glyph-name="cacute" unicode="&#x107;" horiz-adv-x="978" 
d="M690 1165h-338l213 371h389zM903 434v-385q-141 -86 -332 -86q-109 0 -204 38.5t-165 109.5t-110.5 179t-40.5 240q0 251 141 408.5t373 157.5q193 0 332 -84v-387h-6q-38 49 -100.5 81.5t-126.5 32.5q-88 0 -140.5 -58t-52.5 -153q0 -92 54.5 -150.5t146.5 -58.5
q61 0 123 32t102 83h6z" />
    <glyph glyph-name="Ccircumflex" unicode="&#x108;" horiz-adv-x="1245" 
d="M1157 1397h-174q82 -24 166 -74v-440h-8q-60 67 -149.5 107t-188.5 40q-137 0 -215 -89.5t-78 -244.5q0 -150 78 -239.5t221 -89.5q94 0 185.5 39.5t154.5 107.5h8v-440q-189 -111 -432 -111q-141 0 -261 50t-207.5 142.5t-137 232t-49.5 310.5q0 258 110.5 443.5
t308.5 255.5h-204l252 262h368zM717 1434q10 0 30.5 -1t30.5 -1l-57 49h-2l-57 -49q9 0 27.5 1t27.5 1z" />
    <glyph glyph-name="ccircumflex" unicode="&#x109;" horiz-adv-x="978" 
d="M1006 1165h-338l-117 142h-2l-115 -142h-338l289 375h332zM903 434v-385q-141 -86 -332 -86q-109 0 -204 38.5t-165 109.5t-110.5 179t-40.5 240q0 251 141 408.5t373 157.5q193 0 332 -84v-387h-6q-38 49 -100.5 81.5t-126.5 32.5q-88 0 -140.5 -58t-52.5 -153
q0 -92 54.5 -150.5t146.5 -58.5q61 0 123 32t102 83h6z" />
    <glyph glyph-name="Cdotaccent" unicode="&#x10a;" horiz-adv-x="1245" 
d="M1157 514v-440q-189 -111 -432 -111q-141 0 -261 50t-207.5 142.5t-137 232t-49.5 310.5q0 285 133.5 479.5t369.5 241.5h-57v273h418v-273h-45q142 -26 260 -96v-440h-8q-60 67 -149.5 107t-188.5 40q-137 0 -215 -89.5t-78 -244.5q0 -150 78 -239.5t221 -89.5
q94 0 185.5 39.5t154.5 107.5h8z" />
    <glyph glyph-name="cdotaccent" unicode="&#x10b;" horiz-adv-x="978" 
d="M903 434v-385q-141 -86 -332 -86q-109 0 -204 38.5t-165 109.5t-110.5 179t-40.5 240q0 251 141 408.5t373 157.5q193 0 332 -84v-387h-6q-38 49 -100.5 81.5t-126.5 32.5q-88 0 -140.5 -58t-52.5 -153q0 -92 54.5 -150.5t146.5 -58.5q61 0 123 32t102 83h6zM739 1217
h-417v319h417v-319z" />
    <glyph glyph-name="Ccaron" unicode="&#x10c;" horiz-adv-x="1245" 
d="M1157 514v-440q-189 -111 -432 -111q-141 0 -261 50t-207.5 142.5t-137 232t-49.5 310.5q0 270 121 460t337 251l-237 248h336l100 -86h2l98 86h336l-235 -246q115 -25 221 -88v-440h-8q-60 67 -149.5 107t-188.5 40q-137 0 -215 -89.5t-78 -244.5q0 -150 78 -239.5
t221 -89.5q94 0 185.5 39.5t154.5 107.5h8z" />
    <glyph glyph-name="ccaron" unicode="&#x10d;" horiz-adv-x="978" 
d="M678 1163h-332l-289 373h338l117 -141h2l115 141h338zM903 434v-385q-141 -86 -332 -86q-109 0 -204 38.5t-165 109.5t-110.5 179t-40.5 240q0 251 141 408.5t373 157.5q193 0 332 -84v-387h-6q-38 49 -100.5 81.5t-126.5 32.5q-88 0 -140.5 -58t-52.5 -153
q0 -92 54.5 -150.5t146.5 -58.5q61 0 123 32t102 83h6z" />
    <glyph glyph-name="Dcaron" unicode="&#x10e;" horiz-adv-x="1513" 
d="M1444 698q0 -171 -57 -306.5t-155.5 -220t-226 -128t-274.5 -43.5h-567v1397h303l-250 260h336l100 -86h2l99 86h336l-252 -262h-50q109 -7 206 -38t179.5 -89t142.5 -138t94 -190.5t34 -241.5zM1018 698q0 150 -84.5 230t-218.5 80h-127v-619h127q134 0 218.5 79
t84.5 230z" />
    <glyph glyph-name="dcaron" unicode="&#x10f;" horiz-adv-x="1728" 
d="M1569 1128h-301l110 408h351zM1212 0h-399v76h-2q-132 -113 -301 -113q-203 0 -326 156.5t-123 410.5q0 259 133.5 412.5t342.5 153.5q165 0 272 -76h2v516h401v-1536zM811 410v245q-71 88 -160 88q-75 0 -122.5 -55.5t-47.5 -157.5q0 -103 47 -159t119 -56q97 0 164 95z
" />
    <glyph glyph-name="Dcroat" unicode="&#x110;" horiz-adv-x="1513" 
d="M1444 698q0 -171 -57 -306.5t-155.5 -220t-226 -128t-274.5 -43.5h-567v541h-164v331h164v525h567q116 0 221 -27t195.5 -84t156 -138.5t103 -196.5t37.5 -253zM1018 698q0 150 -84.5 230t-218.5 80h-127v-136h235v-331h-235v-152h127q134 0 218.5 79t84.5 230z" />
    <glyph glyph-name="dcroat" unicode="&#x111;" horiz-adv-x="1355" 
d="M1212 0h-399v76h-2q-132 -113 -301 -113q-203 0 -326 156.5t-123 410.5q0 259 133.5 412.5t342.5 153.5q165 0 272 -76h2v131h-344v315h344v70h401v-70h144v-315h-144v-1151zM811 410v245q-71 88 -160 88q-75 0 -122.5 -55.5t-47.5 -157.5q0 -103 47 -159t119 -56
q97 0 164 95z" />
    <glyph glyph-name="Emacron" unicode="&#x112;" horiz-adv-x="1150" 
d="M973 1425h-776v267h776v-267zM1057 0h-893v1397h840v-367h-416v-139h395v-369h-395v-155h469v-367z" />
    <glyph glyph-name="emacron" unicode="&#x113;" horiz-adv-x="1220" 
d="M1100 57q-168 -94 -428 -94q-280 0 -450.5 152.5t-170.5 414.5q0 124 36.5 227.5t105.5 179t176 117.5t241 42q111 0 208.5 -34t172 -97.5t117.5 -163.5t43 -223q0 -68 -6 -129h-672q24 -76 96 -118t189 -42q92 0 181.5 31.5t154.5 85.5h6v-349zM729 737q-11 36 -43.5 58
t-81.5 22q-106 0 -131 -80h256zM1018 1233h-817v297h817v-297z" />
    <glyph glyph-name="Ebreve" unicode="&#x114;" horiz-adv-x="1150" 
d="M573 1405q-159 0 -260 74.5t-118 212.5h284q23 -52 94 -52q72 0 95 52h284q-17 -137 -118.5 -212t-260.5 -75zM1057 0h-893v1397h840v-367h-416v-139h395v-369h-395v-155h469v-367z" />
    <glyph glyph-name="ebreve" unicode="&#x115;" horiz-adv-x="1220" 
d="M1100 57q-168 -94 -428 -94q-280 0 -450.5 152.5t-170.5 414.5q0 124 36.5 227.5t105.5 179t176 117.5t241 42q111 0 208.5 -34t172 -97.5t117.5 -163.5t43 -223q0 -68 -6 -129h-672q24 -76 96 -118t189 -42q92 0 181.5 31.5t154.5 85.5h6v-349zM729 737q-11 36 -43.5 58
t-81.5 22q-106 0 -131 -80h256zM608 1180q-192 0 -292 95.5t-111 260.5h293q6 -45 35 -72.5t75 -27.5q45 0 75 27.5t36 72.5h293q-11 -164 -111.5 -260t-292.5 -96z" />
    <glyph glyph-name="Edotaccent" unicode="&#x116;" horiz-adv-x="1150" 
d="M782 1419h-417v273h417v-273zM1057 0h-893v1397h840v-367h-416v-139h395v-369h-395v-155h469v-367z" />
    <glyph glyph-name="edotaccent" unicode="&#x117;" horiz-adv-x="1220" 
d="M1100 57q-168 -94 -428 -94q-280 0 -450.5 152.5t-170.5 414.5q0 124 36.5 227.5t105.5 179t176 117.5t241 42q111 0 208.5 -34t172 -97.5t117.5 -163.5t43 -223q0 -68 -6 -129h-672q24 -76 96 -118t189 -42q92 0 181.5 31.5t154.5 85.5h6v-349zM729 737q-11 36 -43.5 58
t-81.5 22q-106 0 -131 -80h256zM817 1217h-418v319h418v-319z" />
    <glyph glyph-name="Eogonek" unicode="&#x118;" horiz-adv-x="1150" 
d="M1057 0h-111q-86 -80 -86 -129q0 -45 66 -45q50 0 125 35h6v-219q-107 -37 -244 -37q-133 0 -198.5 48.5t-65.5 123.5q0 105 131 223h-516v1397h840v-367h-416v-139h395v-369h-395v-155h469v-367z" />
    <glyph glyph-name="eogonek" unicode="&#x119;" horiz-adv-x="1220" 
d="M1100 -358q-104 -37 -242 -37q-133 0 -198.5 48.5t-65.5 123.5q0 92 96 188q-16 -2 -49 -2q-269 11 -429.5 161t-160.5 406q0 124 36.5 227.5t105.5 179t176 117.5t241 42q111 0 208.5 -34t172 -97.5t117.5 -163.5t43 -223q0 -68 -6 -129h-672q24 -76 96 -118t189 -42
q92 0 181.5 31.5t154.5 85.5h6v-349q-195 -102 -195 -180q0 -51 66 -51q51 0 123 35h6v-219zM729 737q-11 36 -43.5 58t-81.5 22q-107 0 -131 -80h256z" />
    <glyph glyph-name="Ecaron" unicode="&#x11a;" horiz-adv-x="1150" 
d="M1057 0h-893v1397h223l-250 260h336l100 -86h2l99 86h336l-250 -260h244v-367h-416v-139h395v-369h-395v-155h469v-367z" />
    <glyph glyph-name="ecaron" unicode="&#x11b;" horiz-adv-x="1220" 
d="M774 1163h-332l-288 373h338l116 -141h2l115 141h338zM1100 57q-168 -94 -428 -94q-280 0 -450.5 152.5t-170.5 414.5q0 124 36.5 227.5t105.5 179t176 117.5t241 42q111 0 208.5 -34t172 -97.5t117.5 -163.5t43 -223q0 -68 -6 -129h-672q24 -76 96 -118t189 -42
q92 0 181.5 31.5t154.5 85.5h6v-349zM729 737q-11 36 -43.5 58t-81.5 22q-106 0 -131 -80h256z" />
    <glyph glyph-name="Gcircumflex" unicode="&#x11c;" horiz-adv-x="1476" 
d="M1214 1397h-124q100 -26 208 -76v-408h-8q-83 69 -195 109.5t-235 40.5q-179 0 -264.5 -102.5t-85.5 -276.5q0 -180 73 -271t183 -91q82 0 135 35t66 104h-279v12l105 348h610q6 -73 6 -166q0 -336 -171.5 -514t-469.5 -178q-315 0 -506.5 199t-191.5 536
q0 255 121 441.5t346 257.5h-195l252 262h369zM797 1434h37l-56 47h-2l-59 -51q54 4 80 4z" />
    <glyph glyph-name="gcircumflex" unicode="&#x11d;" horiz-adv-x="1343" 
d="M1139 1165h-338l-117 142h-2l-115 -142h-338l289 375h332zM807 424v252q-57 67 -141 67q-78 0 -127.5 -51.5t-49.5 -142.5t50 -144t123 -53q89 0 145 72zM649 -410q-281 0 -450 95v362h8q150 -133 377 -133q103 0 163 39.5t60 109.5v50h-2q-127 -113 -307 -113
q-90 0 -168 35t-138.5 101.5t-95.5 172.5t-35 240q0 133 36 238t100 172t150 102t188 35q172 0 311 -107h4l352 101h6v-996q0 -156 -72.5 -271.5t-198 -174t-288.5 -58.5z" />
    <glyph glyph-name="Gbreve" unicode="&#x11e;" horiz-adv-x="1476" 
d="M768 -37q-315 0 -506.5 199t-191.5 536q0 186 63.5 336.5t192 252t309.5 132.5q-106 27 -171 96.5t-77 176.5h285q23 -52 94 -52t94 52h285q-12 -99 -70.5 -167t-152.5 -98q204 -23 376 -106v-408h-8q-83 69 -195 109.5t-235 40.5q-179 0 -264.5 -102.5t-85.5 -276.5
q0 -180 73 -271t183 -91q82 0 135 35t66 104h-279v12l105 348h610q6 -73 6 -166q0 -336 -171.5 -514t-469.5 -178z" />
    <glyph glyph-name="gbreve" unicode="&#x11f;" horiz-adv-x="1343" 
d="M807 424v252q-57 67 -141 67q-78 0 -127.5 -51.5t-49.5 -142.5t50 -144t123 -53q89 0 145 72zM649 -410q-281 0 -450 95v362h8q150 -133 377 -133q103 0 163 39.5t60 109.5v50h-2q-127 -113 -307 -113q-90 0 -168 35t-138.5 101.5t-95.5 172.5t-35 240q0 133 36 238
t100 172t150 102t188 35q172 0 311 -107h4l352 101h6v-996q0 -156 -72.5 -271.5t-198 -174t-288.5 -58.5zM684 1180q-192 0 -292 95.5t-111 260.5h292q6 -45 35.5 -72.5t75.5 -27.5q45 0 75 27.5t36 72.5h292q-11 -165 -111 -260.5t-292 -95.5z" />
    <glyph glyph-name="Gdotaccent" unicode="&#x120;" horiz-adv-x="1476" 
d="M768 -37q-315 0 -506.5 199t-191.5 536q0 282 145.5 476.5t413.5 244.5h-45v273h417v-273h-24q163 -24 321 -98v-408h-8q-83 69 -195 109.5t-235 40.5q-179 0 -264.5 -102.5t-85.5 -276.5q0 -180 73 -271t183 -91q82 0 135 35t66 104h-279v12l105 348h610q6 -73 6 -166
q0 -336 -171.5 -514t-469.5 -178z" />
    <glyph glyph-name="gdotaccent" unicode="&#x121;" horiz-adv-x="1343" 
d="M807 424v252q-57 67 -141 67q-78 0 -127.5 -51.5t-49.5 -142.5t50 -144t123 -53q89 0 145 72zM649 -410q-281 0 -450 95v362h8q150 -133 377 -133q103 0 163 39.5t60 109.5v50h-2q-127 -113 -307 -113q-90 0 -168 35t-138.5 101.5t-95.5 172.5t-35 240q0 133 36 238
t100 172t150 102t188 35q172 0 311 -107h4l352 101h6v-996q0 -156 -72.5 -271.5t-198 -174t-288.5 -58.5zM893 1217h-418v319h418v-319z" />
    <glyph glyph-name="Gcommaaccent" unicode="&#x122;" horiz-adv-x="1476" 
d="M758 -395h-338l184 319h389zM768 -37q-315 0 -506.5 199t-191.5 536q0 158 47.5 292t138 233t229 155t312.5 56q270 0 501 -113v-408h-8q-83 69 -195 109.5t-235 40.5q-179 0 -264.5 -102.5t-85.5 -276.5q0 -180 73 -271t183 -91q82 0 135 35t66 104h-279v12l105 348h610
q6 -73 6 -166q0 -336 -171.5 -514t-469.5 -178z" />
    <glyph glyph-name="gcommaaccent" unicode="&#x123;" horiz-adv-x="1343" 
d="M870 1217h-389l236 319h338zM807 424v252q-57 67 -141 67q-78 0 -127.5 -51.5t-49.5 -142.5t50 -144t123 -53q89 0 145 72zM649 -410q-281 0 -450 95v362h8q150 -133 377 -133q103 0 163 39.5t60 109.5v50h-2q-127 -113 -307 -113q-90 0 -168 35t-138.5 101.5
t-95.5 172.5t-35 240q0 133 36 238t100 172t150 102t188 35q172 0 311 -107h4l352 101h6v-996q0 -156 -72.5 -271.5t-198 -174t-288.5 -58.5z" />
    <glyph glyph-name="Hcircumflex" unicode="&#x124;" horiz-adv-x="1587" 
d="M1272 1397h190v-1397h-424v520h-411v-520h-424v1397h196l252 262h369zM1038 924v473h-102l-100 84h-2l-99 -84h-108v-473h411z" />
    <glyph glyph-name="hcircumflex" unicode="&#x125;" horiz-adv-x="1355" 
d="M807 1579h-338l-117 141h-2l-114 -141h-338l288 375h332zM1223 0h-402v592q0 73 -34 112t-93 39q-90 0 -149 -94v-649h-402v1536h402v-551h2q127 111 295 111q76 0 143.5 -23t121.5 -67.5t85 -117.5t31 -167v-721z" />
    <glyph glyph-name="Hbar" unicode="&#x126;" horiz-adv-x="1587" 
d="M1462 0h-424v520h-411v-520h-424v997h-203v334h203v66h424v-66h411v66h424v-66h125v-334h-125v-997zM627 924h411v73h-411v-73z" />
    <glyph glyph-name="hbar" unicode="&#x127;" horiz-adv-x="1355" 
d="M1223 0h-402v592q0 73 -34 112t-93 39q-90 0 -149 -94v-649h-402v1151h-143v315h143v70h402v-70h411v-315h-411v-166h2q127 111 295 111q76 0 143.5 -23t121.5 -67.5t85 -117.5t31 -167v-721z" />
    <glyph glyph-name="Itilde" unicode="&#x128;" horiz-adv-x="759" 
d="M588 0h-424v1397h424v-1397zM555 1405q-63 0 -160.5 35t-126.5 35q-50 0 -57 -70h-238q3 46 10 84t23 77t41 65t66 42.5t94 16.5q63 0 160.5 -35t126.5 -35q50 0 57 70h237q-3 -60 -14.5 -106t-35.5 -89t-70.5 -66.5t-112.5 -23.5z" />
    <glyph glyph-name="itilde" unicode="&#x129;" horiz-adv-x="686" 
d="M545 0h-402v1059h402v-1059zM539 1190q-57 0 -123 20t-121.5 40t-87.5 20q-30 0 -43.5 -20t-18.5 -60h-237q22 346 237 346q57 0 123 -20t121.5 -40t87.5 -20q30 0 43.5 20t18.5 60h237q-22 -346 -237 -346z" />
    <glyph glyph-name="Imacron" unicode="&#x12a;" horiz-adv-x="759" 
d="M588 0h-424v1397h424v-1397zM770 1425h-776v267h776v-267z" />
    <glyph glyph-name="imacron" unicode="&#x12b;" horiz-adv-x="686" 
d="M545 0h-402v1059h402v-1059zM752 1233h-818v297h818v-297z" />
    <glyph glyph-name="Ibreve" unicode="&#x12c;" horiz-adv-x="759" 
d="M588 0h-424v1397h424v-1397zM381 1405q-159 0 -260.5 75t-118.5 212h285q23 -52 94 -52t94 52h285q-17 -137 -118.5 -212t-260.5 -75z" />
    <glyph glyph-name="ibreve" unicode="&#x12d;" horiz-adv-x="686" 
d="M545 0h-402v1059h402v-1059zM342 1180q-192 0 -292 95.5t-111 260.5h292q6 -45 35.5 -72.5t75.5 -27.5q45 0 75 27.5t36 72.5h292q-11 -165 -111 -260.5t-292 -95.5z" />
    <glyph glyph-name="Iogonek" unicode="&#x12e;" horiz-adv-x="759" 
d="M602 -358q-107 -37 -244 -37q-133 0 -198.5 48.5t-65.5 123.5q0 105 131 223h-61v1397h424v-1397h-96q-86 -80 -86 -129q0 -45 65 -45q50 0 125 35h6v-219z" />
    <glyph glyph-name="iogonek" unicode="&#x12f;" horiz-adv-x="686" 
d="M559 -358q-107 -37 -244 -37q-133 0 -198.5 48.5t-65.5 123.5q0 105 131 223h-39v1059h402v-1059h-96q-87 -81 -87 -129q0 -45 66 -45q50 0 125 35h6v-219zM553 1217h-418v319h418v-319z" />
    <glyph glyph-name="Idotaccent" unicode="&#x130;" horiz-adv-x="759" 
d="M588 0h-424v1397h424v-1397zM584 1419h-418v273h418v-273z" />
    <glyph glyph-name="dotlessi" unicode="&#x131;" horiz-adv-x="686" 
d="M545 0h-402v1059h402v-1059z" />
    <glyph glyph-name="IJ" unicode="&#x132;" horiz-adv-x="1730" 
d="M588 0h-424v1397h424v-1397zM1122 -37q-145 0 -258 55v404h8q31 -33 75 -51.5t85 -18.5q70 0 101.5 37t31.5 111v493h-321v13l119 391h624v-985q0 -97 -24 -175.5t-76.5 -141.5t-145 -97.5t-219.5 -34.5z" />
    <glyph glyph-name="ij" unicode="&#x133;" horiz-adv-x="1372" 
d="M827 -395q-151 0 -256 51v311h9q63 -53 139 -53q110 0 110 123v1022h402v-1045q0 -208 -106.5 -308.5t-297.5 -100.5zM545 0h-402v1059h402v-1059zM1239 1217h-418v319h418v-319zM553 1217h-418v319h418v-319z" />
    <glyph glyph-name="Jcircumflex" unicode="&#x134;" horiz-adv-x="970" 
d="M918 1397h-91v-985q0 -97 -24 -175.5t-76.5 -141.5t-145 -97.5t-219.5 -34.5q-145 0 -258 55v404h9q31 -33 74.5 -51.5t84.5 -18.5q70 0 102 37t32 111v493h-322v13l119 391h-158l252 262h369zM479 1481l-98 -84h201l-101 84h-2z" />
    <glyph glyph-name="jcircumflex" unicode="&#x135;" horiz-adv-x="686" 
d="M141 -395q-147 0 -256 53v301h9q57 -51 139 -51q110 0 110 129v1022h402v-1047q0 -207 -107 -307t-297 -100zM797 1165h-338l-117 142h-2l-115 -142h-338l289 375h332z" />
    <glyph glyph-name="Kcommaaccent" unicode="&#x136;" horiz-adv-x="1447" 
d="M737 -395h-338l185 319h389zM588 0h-424v1397h424v-1397zM1407 0h-481l-326 702v15l309 680h471l-327 -680v-4z" />
    <glyph glyph-name="kcommaaccent" unicode="&#x137;" horiz-adv-x="1335" 
d="M692 -395h-338l185 319h389zM545 0h-402v1536h402v-1536zM1313 0h-467l-291 530v11l274 518h457l-295 -518v-4z" />
    <glyph glyph-name="Lacute" unicode="&#x139;" horiz-adv-x="1093" 
d="M1016 0h-852v1397h43l141 241h406l-209 -241h43v-994h428v-403z" />
    <glyph glyph-name="lacute" unicode="&#x13a;" horiz-adv-x="686" 
d="M508 1579h-338l213 371h389zM545 0h-402v1536h402v-1536z" />
    <glyph glyph-name="Lcommaaccent" unicode="&#x13b;" horiz-adv-x="1093" 
d="M598 -395h-338l184 319h390zM1016 0h-852v1397h424v-994h428v-403z" />
    <glyph glyph-name="lcommaaccent" unicode="&#x13c;" horiz-adv-x="686" 
d="M309 -395h-338l185 319h389zM545 0h-402v1536h402v-1536z" />
    <glyph glyph-name="Lcaron" unicode="&#x13d;" horiz-adv-x="1093" 
d="M944 1128h-301l111 408h350zM1016 0h-852v1397h424v-994h428v-403z" />
    <glyph glyph-name="lcaron" unicode="&#x13e;" horiz-adv-x="1005" 
d="M899 1128h-301l111 408h350zM545 0h-402v1536h402v-1536z" />
    <glyph glyph-name="Ldot" unicode="&#x13f;" horiz-adv-x="1198" 
d="M1016 0h-852v1397h424v-991h428v-406zM1171 629h-395v387h395v-387z" />
    <glyph glyph-name="ldot" unicode="&#x140;" horiz-adv-x="1083" 
d="M545 0h-402v1536h402v-1536zM1081 362h-395v388h395v-388z" />
    <glyph glyph-name="Lslash" unicode="&#x141;" horiz-adv-x="1093" 
d="M1016 0h-852v467l-164 -78v369l164 80v559h424v-357l274 131v-370l-274 -133v-265h428v-403z" />
    <glyph glyph-name="lslash" unicode="&#x142;" horiz-adv-x="686" 
d="M545 0h-402v547l-143 -68v350l143 68v639h402v-446l141 67v-350l-141 -68v-739z" />
    <glyph glyph-name="Nacute" unicode="&#x143;" horiz-adv-x="1605" 
d="M899 1397h-338l141 241h406zM1440 -6h-350l-500 633h-2v-627h-424v1268l-80 114v15h428l504 -654h2v654h422v-1403z" />
    <glyph glyph-name="nacute" unicode="&#x144;" horiz-adv-x="1380" 
d="M856 1165h-338l213 371h389zM1247 0h-401v592q0 73 -37 112t-100 39q-101 0 -164 -94v-649h-402v1059h400v-74h2q133 111 307 111q80 0 149.5 -23t125 -67.5t88 -117.5t32.5 -167v-721z" />
    <glyph glyph-name="Ncommaaccent" unicode="&#x145;" horiz-adv-x="1605" 
d="M825 -395h-338l185 319h389zM1440 -6h-350l-500 633h-2v-627h-424v1268l-80 114v15h428l504 -654h2v654h422v-1403z" />
    <glyph glyph-name="ncommaaccent" unicode="&#x146;" horiz-adv-x="1380" 
d="M680 -395h-338l184 319h389zM1247 0h-401v592q0 73 -37 112t-100 39q-101 0 -164 -94v-649h-402v1059h400v-74h2q133 111 307 111q80 0 149.5 -23t125 -67.5t88 -117.5t32.5 -167v-721z" />
    <glyph glyph-name="Ncaron" unicode="&#x147;" horiz-adv-x="1605" 
d="M985 1395h-369l-251 262h335l101 -86h2l98 86h336zM1440 -6h-350l-500 633h-2v-627h-424v1268l-80 114v15h428l504 -654h2v654h422v-1403z" />
    <glyph glyph-name="ncaron" unicode="&#x148;" horiz-adv-x="1380" 
d="M856 1163h-332l-288 373h337l117 -141h2l115 141h338zM1247 0h-401v592q0 73 -37 112t-100 39q-101 0 -164 -94v-649h-402v1059h400v-74h2q133 111 307 111q80 0 149.5 -23t125 -67.5t88 -117.5t32.5 -167v-721z" />
    <glyph glyph-name="Eng" unicode="&#x14a;" horiz-adv-x="1605" 
d="M1036 -395q-132 0 -231 55v295h8q51 -35 115 -35q44 0 71 19.5t27 52.5v8l-436 623h-2v-623h-424v1268l-80 114v15h428l504 -707h2v707h422v-1403q0 -198 -106 -293.5t-298 -95.5z" />
    <glyph glyph-name="eng" unicode="&#x14b;" horiz-adv-x="1380" 
d="M862 -395q-134 0 -239 51v295h8q54 -37 114 -37q101 0 101 113v565q0 73 -37 112t-100 39q-101 0 -164 -94v-649h-402v1059h400v-76h2q132 113 307 113q80 0 149.5 -23t125 -67.5t88 -117.5t32.5 -167v-707q0 -206 -102 -307.5t-283 -101.5z" />
    <glyph glyph-name="Omacron" unicode="&#x14c;" horiz-adv-x="1579" 
d="M1509 698q0 -332 -197 -533.5t-528 -201.5q-210 0 -371.5 89.5t-252 257t-90.5 388.5q0 298 160.5 493.5t437.5 233.5h-267v267h777v-267h-260q268 -39 429.5 -234t161.5 -493zM1071 698q0 160 -73.5 253t-200.5 93q-130 0 -208.5 -89.5t-78.5 -256.5q0 -161 73 -253.5
t201 -92.5q130 0 208.5 89.5t78.5 256.5z" />
    <glyph glyph-name="omacron" unicode="&#x14d;" horiz-adv-x="1302" 
d="M1061 1233h-817v297h817v-297zM829 530q0 103 -46 164.5t-128 61.5q-85 0 -134.5 -59.5t-49.5 -166.5q0 -104 47 -165.5t129 -61.5q85 0 133.5 59t48.5 168zM1251 530q0 -255 -164 -411t-440 -156q-268 0 -432 155t-164 412q0 255 164 410.5t440 155.5
q267 0 431.5 -155.5t164.5 -410.5z" />
    <glyph glyph-name="Obreve" unicode="&#x14e;" horiz-adv-x="1579" 
d="M1509 698q0 -332 -197 -533.5t-528 -201.5q-210 0 -371.5 89.5t-252 257t-90.5 388.5q0 293 155 486.5t424 236.5q-102 28 -164.5 97.5t-74.5 173.5h284q23 -52 94 -52q72 0 95 52h284q-13 -104 -74 -172.5t-161 -96.5q262 -43 419.5 -237.5t157.5 -487.5zM1071 698
q0 160 -73.5 253t-200.5 93q-130 0 -208.5 -89.5t-78.5 -256.5q0 -161 73 -253.5t201 -92.5q130 0 208.5 89.5t78.5 256.5z" />
    <glyph glyph-name="obreve" unicode="&#x14f;" horiz-adv-x="1302" 
d="M829 530q0 103 -46 164.5t-128 61.5q-85 0 -134.5 -59.5t-49.5 -166.5q0 -104 47 -165.5t129 -61.5q85 0 133.5 59t48.5 168zM1251 530q0 -255 -164 -411t-440 -156q-268 0 -432 155t-164 412q0 255 164 410.5t440 155.5q267 0 431.5 -155.5t164.5 -410.5zM651 1180
q-192 0 -292 95.5t-111 260.5h293q6 -45 35 -72.5t75 -27.5q45 0 75 27.5t36 72.5h293q-11 -164 -111.5 -260t-292.5 -96z" />
    <glyph glyph-name="Ohungarumlaut" unicode="&#x150;" horiz-adv-x="1579" 
d="M1184 1397h-142q215 -70 341 -254.5t126 -444.5q0 -332 -197 -533.5t-528 -201.5q-210 0 -371.5 89.5t-252 257t-90.5 388.5q0 262 124.5 446t346.5 253h-191l144 241h403l-178 -208q50 4 78 4q21 0 67 -4l123 208h404zM1071 698q0 160 -73.5 253t-200.5 93
q-130 0 -208.5 -89.5t-78.5 -256.5q0 -161 73 -253.5t201 -92.5q130 0 208.5 89.5t78.5 256.5z" />
    <glyph glyph-name="ohungarumlaut" unicode="&#x151;" horiz-adv-x="1302" 
d="M575 1165h-337l215 371h389zM1053 1165h-338l215 371h389zM829 530q0 103 -46 164.5t-128 61.5q-85 0 -134.5 -59.5t-49.5 -166.5q0 -104 47 -165.5t129 -61.5q85 0 133.5 59t48.5 168zM1251 530q0 -255 -164 -411t-440 -156q-268 0 -432 155t-164 412q0 255 164 410.5
t440 155.5q267 0 431.5 -155.5t164.5 -410.5z" />
    <glyph glyph-name="OE" unicode="&#x152;" horiz-adv-x="1929" 
d="M1835 0h-823v35q-118 -72 -293 -72q-137 0 -256 52.5t-206 146.5t-137 232.5t-50 303.5q0 163 49.5 301t136.5 233t209.5 148.5t265.5 53.5q177 0 281 -74v37h770v-367h-416v-141h395v-367h-395v-155h469v-367zM942 401v594q-59 47 -145 47q-131 0 -209 -88t-78 -256
q0 -161 73 -253.5t201 -92.5q94 0 158 49z" />
    <glyph glyph-name="oe" unicode="&#x153;" horiz-adv-x="1980" 
d="M1862 57q-168 -94 -428 -94q-258 0 -404 131h-2q-144 -131 -381 -131q-268 0 -432 155t-164 412q0 255 164 410.5t440 155.5q218 0 363 -119h2q122 119 350 119q111 0 208.5 -34t172.5 -97.5t118.5 -163.5t43.5 -223q0 -74 -8 -129h-670q49 -160 285 -160q93 0 181.5 30
t151.5 84h9v-346zM829 530q0 103 -46 164.5t-128 61.5q-85 0 -134.5 -59.5t-49.5 -166.5q0 -103 47 -165t129 -62q85 0 133.5 59t48.5 168zM1491 737q-11 35 -44.5 57.5t-82.5 22.5q-103 0 -131 -80h258z" />
    <glyph glyph-name="Racute" unicode="&#x154;" horiz-adv-x="1441" 
d="M786 1397h9q232 0 371 -114t139 -335q0 -136 -44 -229t-141 -168v-4l281 -547h-483l-318 676v14q281 49 281 197q0 67 -46 105t-126 38h-121v-1030h-424v1397h285l141 241h405z" />
    <glyph glyph-name="racute" unicode="&#x155;" horiz-adv-x="929" 
d="M616 1165h-337l213 371h389zM545 0h-402v1059h383v-82h2q126 119 250 119q64 0 107 -21v-389h-8q-66 47 -140 47q-92 0 -192 -80v-653z" />
    <glyph glyph-name="Rcommaaccent" unicode="&#x156;" horiz-adv-x="1441" 
d="M745 -395h-337l184 319h389zM1401 0h-483l-318 676v14q281 49 281 197q0 67 -46 105t-126 38h-121v-1030h-424v1397h631q232 0 371 -114t139 -335q0 -136 -44 -229t-141 -168v-4z" />
    <glyph glyph-name="rcommaaccent" unicode="&#x157;" horiz-adv-x="929" 
d="M328 -395h-338l184 319h389zM545 0h-402v1059h383v-82h2q126 119 250 119q64 0 107 -21v-389h-8q-66 47 -140 47q-92 0 -192 -80v-653z" />
    <glyph glyph-name="Rcaron" unicode="&#x158;" horiz-adv-x="1441" 
d="M1401 0h-483l-318 676v14q281 49 281 197q0 67 -46 105t-126 38h-121v-1030h-424v1397h325l-249 260h335l101 -86h2l98 86h336l-252 -262q205 -16 325 -129t120 -318q0 -136 -44 -229t-141 -168v-4z" />
    <glyph glyph-name="rcaron" unicode="&#x159;" horiz-adv-x="929" 
d="M641 1163h-332l-289 373h338l117 -141h2l115 141h338zM545 0h-402v1059h383v-82h2q126 119 250 119q64 0 107 -21v-389h-8q-66 47 -140 47q-92 0 -192 -80v-653z" />
    <glyph glyph-name="Sacute" unicode="&#x15a;" horiz-adv-x="1155" 
d="M1081 426q0 -203 -140 -333t-386 -130q-244 0 -442 103v395h6q74 -67 188.5 -105.5t210.5 -38.5q141 0 141 80q0 26 -23 48.5t-61 38.5t-86.5 37t-99.5 42.5t-99.5 58t-86.5 80.5t-61 112t-23 151q0 77 19.5 147t59.5 131.5t109 107t160 66.5l129 221h405l-194 -225
q129 -25 225 -82v-395h-6q-74 68 -171 104.5t-191 36.5q-119 0 -119 -73q0 -27 23 -49.5t60.5 -38.5t86 -37.5t98.5 -43.5t98.5 -59t86 -82t60.5 -114.5t23 -153.5z" />
    <glyph glyph-name="sacute" unicode="&#x15b;" horiz-adv-x="1038" 
d="M662 1165h-338l213 371h389zM946 334q0 -171 -113.5 -271t-340.5 -100q-218 0 -383 74v352h6q59 -55 156 -87t184 -32q58 0 80 10t22 33q0 17 -24.5 29t-63.5 22.5t-86.5 24t-95 39t-86.5 61.5t-63.5 98.5t-24.5 143.5q0 173 110.5 269t319.5 96q211 0 366 -74v-352h-6
q-61 55 -149.5 86.5t-167.5 31.5q-44 0 -61 -10t-17 -30q0 -16 24 -28.5t63 -23t85.5 -24.5t93 -39.5t85.5 -61.5t63 -97t24 -140z" />
    <glyph glyph-name="Scircumflex" unicode="&#x15c;" horiz-adv-x="1155" 
d="M1044 1397h-165q77 -22 153 -66v-395h-6q-74 68 -171 104.5t-191 36.5q-119 0 -119 -73q0 -27 23 -49.5t60.5 -38.5t86 -37.5t98.5 -43.5t98.5 -59t86 -82t60.5 -114.5t23 -153.5q0 -203 -140 -333t-386 -130q-244 0 -442 103v395h6q74 -67 188.5 -105.5t210.5 -38.5
q141 0 141 80q0 26 -23 48.5t-61 38.5t-86.5 37t-99.5 42.5t-99.5 58t-86.5 80.5t-61 112t-23 151q0 93 26.5 174.5t90 151.5t159.5 106h-223l252 262h369zM621 1434q29 0 45 -2l-58 49h-2l-59 -51q46 4 74 4z" />
    <glyph glyph-name="scircumflex" unicode="&#x15d;" horiz-adv-x="1038" 
d="M975 1165h-338l-117 142h-2l-115 -142h-337l288 375h332zM946 334q0 -171 -113.5 -271t-340.5 -100q-218 0 -383 74v352h6q59 -55 156 -87t184 -32q58 0 80 10t22 33q0 17 -24.5 29t-63.5 22.5t-86.5 24t-95 39t-86.5 61.5t-63.5 98.5t-24.5 143.5q0 173 110.5 269
t319.5 96q211 0 366 -74v-352h-6q-61 55 -149.5 86.5t-167.5 31.5q-44 0 -61 -10t-17 -30q0 -16 24 -28.5t63 -23t85.5 -24.5t93 -39.5t85.5 -61.5t63 -97t24 -140z" />
    <glyph glyph-name="Scedilla" unicode="&#x15e;" horiz-adv-x="1155" 
d="M815 -219q0 -77 -71 -126.5t-216 -49.5q-165 0 -258 33v165h6q84 -39 170 -39q54 0 54 21q0 17 -32 23.5t-118 11.5l41 155q-147 22 -278 91v395h6q74 -67 188.5 -105.5t210.5 -38.5q141 0 141 80q0 26 -23 48.5t-61 38.5t-86.5 37t-99.5 42.5t-99.5 58t-86.5 80.5
t-61 112t-23 151q0 93 27.5 173.5t85 148.5t157.5 107.5t232 39.5q110 0 218.5 -26.5t192.5 -76.5v-395h-6q-74 68 -171 104.5t-191 36.5q-119 0 -119 -73q0 -27 23 -49.5t60.5 -38.5t86 -37.5t98.5 -43.5t98.5 -59t86 -82t60.5 -114.5t23 -153.5q0 -177 -107.5 -300.5
t-301.5 -152.5l-8 -34q151 -41 151 -158z" />
    <glyph glyph-name="scedilla" unicode="&#x15f;" horiz-adv-x="1038" 
d="M774 -219q0 -77 -71 -126.5t-216 -49.5q-165 0 -258 33v165h7q84 -39 170 -39q53 0 53 21q0 17 -32 23.5t-118 11.5l41 151q-138 18 -241 66v352h6q59 -55 156 -87t184 -32q58 0 80 10t22 33q0 17 -24.5 29t-63.5 22.5t-86.5 24t-95 39t-86.5 61.5t-63.5 98.5
t-24.5 143.5q0 173 110.5 269t319.5 96q211 0 366 -74v-352h-6q-61 55 -149.5 86.5t-167.5 31.5q-44 0 -61 -10t-17 -30q0 -16 24 -28.5t63 -23t85.5 -24.5t93 -39.5t85.5 -61.5t63 -97t24 -140q0 -142 -78.5 -236t-234.5 -123l-10 -36q151 -41 151 -158z" />
    <glyph glyph-name="Scaron" unicode="&#x160;" horiz-adv-x="1155" 
d="M1081 426q0 -203 -140 -333t-386 -130q-244 0 -442 103v395h6q74 -67 188.5 -105.5t210.5 -38.5q141 0 141 80q0 26 -23 48.5t-61 38.5t-86.5 37t-99.5 42.5t-99.5 58t-86.5 80.5t-61 112t-23 151q0 153 75.5 273.5t231.5 168.5l-240 250h336l101 -86h2l98 86h336
l-236 -246q118 -28 209 -80v-395h-6q-74 68 -171 104.5t-191 36.5q-119 0 -119 -73q0 -27 23 -49.5t60.5 -38.5t86 -37.5t98.5 -43.5t98.5 -59t86 -82t60.5 -114.5t23 -153.5z" />
    <glyph glyph-name="scaron" unicode="&#x161;" horiz-adv-x="1038" 
d="M684 1163h-332l-289 373h338l117 -141h2l115 141h338zM946 334q0 -171 -113.5 -271t-340.5 -100q-218 0 -383 74v352h6q59 -55 156 -87t184 -32q58 0 80 10t22 33q0 17 -24.5 29t-63.5 22.5t-86.5 24t-95 39t-86.5 61.5t-63.5 98.5t-24.5 143.5q0 173 110.5 269t319.5 96
q211 0 366 -74v-352h-6q-61 55 -149.5 86.5t-167.5 31.5q-44 0 -61 -10t-17 -30q0 -16 24 -28.5t63 -23t85.5 -24.5t93 -39.5t85.5 -61.5t63 -97t24 -140z" />
    <glyph glyph-name="Tcommaaccent" unicode="&#x162;" horiz-adv-x="1243" 
d="M590 -395h-338l184 319h389zM834 0h-424v993h-349v404h1119v-404h-346v-993z" />
    <glyph glyph-name="Tcommaaccent" unicode="&#x21a;" horiz-adv-x="1243" 
d="M590 -395h-338l184 319h389zM834 0h-424v993h-349v404h1119v-404h-346v-993z" />
    <glyph glyph-name="tcommaaccent" unicode="&#x163;" horiz-adv-x="833" 
d="M340 -395h-338l184 319h389zM565 0h-401v715h-135v12l135 332v311h401v-311h226v-344h-226v-715z" />
    <glyph glyph-name="tcommaaccent" unicode="&#x21b;" horiz-adv-x="833" 
d="M340 -395h-338l184 319h389zM565 0h-401v715h-135v12l135 332v311h401v-311h226v-344h-226v-715z" />
    <glyph glyph-name="Tcaron" unicode="&#x164;" horiz-adv-x="1243" 
d="M834 0h-424v993h-349v404h373l-250 260h336l101 -86h2l98 86h336l-250 -260h373v-404h-346v-993z" />
    <glyph glyph-name="tcaron" unicode="&#x165;" horiz-adv-x="1030" 
d="M922 1128h-301l110 408h350zM565 0h-401v715h-135v12l135 332v311h401v-311h226v-344h-226v-715z" />
    <glyph glyph-name="Tbar" unicode="&#x166;" horiz-adv-x="1241" 
d="M834 0h-424v371h-226v334h226v288h-349v404h1119v-404h-346v-288h223v-334h-223v-371z" />
    <glyph glyph-name="tbar" unicode="&#x167;" horiz-adv-x="833" 
d="M565 0h-401v258h-141v315h141v142h-135v12l135 332v311h401v-311h226v-344h-226v-142h217v-315h-217v-258z" />
    <glyph glyph-name="Utilde" unicode="&#x168;" horiz-adv-x="1431" 
d="M907 1405q-63 0 -160 35t-126 35q-51 0 -58 -70h-237q3 46 9.5 84t23 77t41 65t65.5 42.5t94 16.5q63 0 160.5 -35t126.5 -35q50 0 57 70h238q-3 -60 -14.5 -106t-36 -89t-71 -66.5t-112.5 -23.5zM717 -37q-272 0 -423 131t-151 377v926h424v-893q0 -152 138 -152
q137 0 137 152v893h446v-926q0 -246 -151 -377t-420 -131z" />
    <glyph glyph-name="utilde" unicode="&#x169;" horiz-adv-x="1331" 
d="M1206 1059v-586q0 -236 -143 -373t-404 -137q-252 0 -393 136.5t-141 373.5v586h401v-594q0 -81 37 -121.5t101 -40.5t102.5 41t38.5 121v594h401zM879 1190q-57 0 -123 20t-121.5 40t-87.5 20q-30 0 -43.5 -20t-18.5 -60h-237q22 346 237 346q57 0 123 -20t121.5 -40
t87.5 -20q30 0 43.5 20t18.5 60h237q-22 -346 -237 -346z" />
    <glyph glyph-name="Umacron" unicode="&#x16a;" horiz-adv-x="1431" 
d="M1104 1425h-776v267h776v-267zM717 -37q-272 0 -423 131t-151 377v926h424v-893q0 -152 138 -152q137 0 137 152v893h446v-926q0 -246 -151 -377t-420 -131z" />
    <glyph glyph-name="umacron" unicode="&#x16b;" horiz-adv-x="1331" 
d="M1206 1059v-586q0 -236 -143 -373t-404 -137q-252 0 -393 136.5t-141 373.5v586h401v-594q0 -81 37 -121.5t101 -40.5t102.5 41t38.5 121v594h401zM1075 1233h-817v297h817v-297z" />
    <glyph glyph-name="Ubreve" unicode="&#x16c;" horiz-adv-x="1431" 
d="M707 1405q-159 0 -260.5 75t-118.5 212h284q23 -52 95 -52q71 0 94 52h284q-17 -138 -118 -212.5t-260 -74.5zM717 -37q-272 0 -423 131t-151 377v926h424v-893q0 -152 138 -152q137 0 137 152v893h446v-926q0 -246 -151 -377t-420 -131z" />
    <glyph glyph-name="ubreve" unicode="&#x16d;" horiz-adv-x="1331" 
d="M1206 1059v-586q0 -236 -143 -373t-404 -137q-252 0 -393 136.5t-141 373.5v586h401v-594q0 -81 37 -121.5t101 -40.5t102.5 41t38.5 121v594h401zM666 1180q-192 0 -292.5 96t-111.5 260h293q6 -45 35.5 -72.5t75.5 -27.5q45 0 74.5 27.5t35.5 72.5h293
q-11 -165 -111 -260.5t-292 -95.5z" />
    <glyph glyph-name="Uring" unicode="&#x16e;" horiz-adv-x="1431" 
d="M717 -37q-272 0 -423 131t-151 377v926h424v-893q0 -152 138 -152q137 0 137 152v893h446v-926q0 -246 -151 -377t-420 -131zM1022 1602q0 -100 -83.5 -152.5t-225.5 -52.5q-143 0 -223 52t-80 153q0 100 83.5 152t227.5 52q141 0 221 -51.5t80 -152.5zM791 1602
q0 25 -19 40t-55 15t-56 -15t-20 -40t20 -40.5t56 -15.5t55 15t19 41z" />
    <glyph glyph-name="uring" unicode="&#x16f;" horiz-adv-x="1331" 
d="M973 1389q0 -103 -84 -156t-227 -53t-224.5 53t-81.5 156q0 100 85 153t229 53q141 0 222 -52.5t81 -153.5zM737 1389q0 25 -18 40t-53 15t-54.5 -15.5t-19.5 -39.5q0 -60 74 -60q71 0 71 60zM1206 1059v-586q0 -236 -143 -373t-404 -137q-252 0 -393 136.5t-141 373.5
v586h401v-594q0 -81 37 -121.5t101 -40.5t102.5 41t38.5 121v594h401z" />
    <glyph glyph-name="Uhungarumlaut" unicode="&#x170;" horiz-adv-x="1431" 
d="M1112 1397h176v-926q0 -246 -151 -377t-420 -131q-272 0 -423 131t-151 377v926h136l143 241h403l-207 -241h-51v-893q0 -152 138 -152q137 0 137 152v893h-68l141 241h404z" />
    <glyph glyph-name="uhungarumlaut" unicode="&#x171;" horiz-adv-x="1331" 
d="M1206 1059v-586q0 -236 -143 -373t-404 -137q-252 0 -393 136.5t-141 373.5v586h401v-594q0 -81 37 -121.5t101 -40.5t102.5 41t38.5 121v594h401zM588 1165h-338l215 371h389zM1065 1165h-338l215 371h389z" />
    <glyph glyph-name="Uogonek" unicode="&#x172;" horiz-adv-x="1431" 
d="M997 -358q-107 -37 -243 -37q-133 0 -199 48.5t-66 123.5q0 93 101 194q-214 28 -330.5 156t-116.5 344v926h424v-893q0 -152 138 -152q137 0 137 152v893h446v-926q0 -211 -111.5 -338t-314.5 -158q-61 -64 -61 -104q0 -45 65 -45q50 0 125 35h6v-219z" />
    <glyph glyph-name="uogonek" unicode="&#x173;" horiz-adv-x="1331" 
d="M1206 1059v-586q0 -196 -99.5 -325t-287.5 -168q-65 -68 -65 -109q0 -45 65 -45q50 0 125 35h6v-219q-107 -37 -243 -37q-133 0 -199 48.5t-66 123.5q0 93 101 194q-199 31 -308.5 163t-109.5 339v586h401v-594q0 -81 37 -121.5t101 -40.5t102.5 41t38.5 121v594h401z
" />
    <glyph glyph-name="Wcircumflex" unicode="&#x174;" horiz-adv-x="2117" 
d="M1470 1397h-258l222 -772h2l219 772h444l-485 -1434h-352l-201 574h-2l-203 -574h-350l-488 1434h461l230 -772h2l145 516l-76 256h-182l252 262h369zM1032 1481l-98 -84h201l-101 84h-2z" />
    <glyph glyph-name="wcircumflex" unicode="&#x175;" horiz-adv-x="1863" 
d="M1386 1165h-337l-117 142h-2l-115 -142h-338l289 375h332zM1421 -37h-276l-209 356h-2l-215 -356h-277l-426 1096h451l149 -447h2l297 484h37l293 -484h2l150 447h450z" />
    <glyph glyph-name="Ycircumflex" unicode="&#x176;" horiz-adv-x="1421" 
d="M1153 1397h256l-485 -891v-506h-422v506l-490 891h269l251 262h369zM707 985l213 412h-103l-100 84h-2l-99 -84h-100l189 -412h2z" />
    <glyph glyph-name="ycircumflex" unicode="&#x177;" horiz-adv-x="1286" 
d="M735 -395h-454l168 395l-437 1059h461l174 -551h2l170 551h451zM1098 1165h-338l-117 142h-2l-115 -142h-338l289 375h332z" />
    <glyph glyph-name="Ydieresis" unicode="&#x178;" horiz-adv-x="1421" 
d="M924 0h-422v506l-490 891h504l189 -412h2l213 412h489l-485 -891v-506zM659 1419h-383v273h383v-273zM1159 1419h-383v273h383v-273z" />
    <glyph glyph-name="Zacute" unicode="&#x179;" horiz-adv-x="1411" 
d="M848 1397h420v-25l-480 -952v-2h525v-418h-1215v25l480 952v2h-439v418h371l141 241h406z" />
    <glyph glyph-name="zacute" unicode="&#x17a;" horiz-adv-x="1126" 
d="M698 1165h-338l213 371h390zM1063 0h-1032v25l360 688v2h-321v344h952v-25l-365 -688v-2h406v-344z" />
    <glyph glyph-name="Zdotaccent" unicode="&#x17b;" horiz-adv-x="1411" 
d="M911 1419h-417v273h417v-273zM1313 0h-1215v25l480 952v2h-439v418h1129v-25l-480 -952v-2h525v-418z" />
    <glyph glyph-name="zdotaccent" unicode="&#x17c;" horiz-adv-x="1126" 
d="M1063 0h-1032v25l360 688v2h-321v344h952v-25l-365 -688v-2h406v-344zM745 1217h-417v319h417v-319z" />
    <glyph glyph-name="Zcaron" unicode="&#x17d;" horiz-adv-x="1411" 
d="M1313 0h-1215v25l480 952v2h-439v418h379l-250 260h336l101 -86h2l98 86h336l-250 -260h377v-25l-480 -952v-2h525v-418z" />
    <glyph glyph-name="zcaron" unicode="&#x17e;" horiz-adv-x="1126" 
d="M702 1163h-331l-289 373h338l117 -141h2l114 141h338zM1063 0h-1032v25l360 688v2h-321v344h952v-25l-365 -688v-2h406v-344z" />
    <glyph glyph-name="florin" unicode="&#x192;" horiz-adv-x="1183" 
d="M616 0h-411v516h-113v320h113v139q0 228 136 343.5t388 115.5q222 0 395 -95v-397h-8q-63 63 -146 100t-171 37q-95 0 -139 -42t-44 -113v-88h398v-320h-398v-516z" />
    <glyph glyph-name="Aringacute" unicode="&#x1fa;" horiz-adv-x="1482" 
d="M1047 1602q0 -115 -113 -168l534 -1434h-464l-80 260h-381l-80 -260h-449l533 1430q-113 52 -113 172q0 134 156 184l125 213h405l-194 -223q121 -53 121 -174zM817 631l-84 270h-2l-84 -270h170zM815 1602q0 25 -19 40t-55 15t-55.5 -15t-19.5 -40t19.5 -40.5
t55.5 -15.5t55 15t19 41z" />
    <glyph glyph-name="aringacute" unicode="&#x1fb;" horiz-adv-x="1253" 
d="M1128 0h-391v70h-2q-131 -107 -286 -107q-150 0 -254.5 93.5t-104.5 258.5q0 159 103.5 254t291.5 95q143 0 242 -52v31q0 60 -65.5 91.5t-169.5 31.5q-91 0 -180 -32t-152 -87h-6v354q182 95 424 95q93 0 173.5 -16t150.5 -52.5t119.5 -91t78 -136.5t28.5 -184v-616z
M727 324v34q-59 27 -133 27q-111 0 -111 -57q0 -26 26.5 -43t78.5 -17q86 0 139 56zM797 1645h-338l213 370h389zM938 1389q0 -103 -84 -156t-227 -53t-224 53t-81 156q0 100 84.5 153t228.5 53q141 0 222 -52.5t81 -153.5zM702 1389q0 25 -18 40t-53 15t-54.5 -15.5
t-19.5 -39.5q0 -60 74 -60q71 0 71 60z" />
    <glyph glyph-name="AEacute" unicode="&#x1fc;" horiz-adv-x="1945" 
d="M1298 1397h-337l141 241h405zM1851 0h-890v430h-273l-176 -430h-492l644 1397h1134v-367h-416v-164h396v-366h-396v-133h469v-367zM952 1090l-123 -287h132v287h-9z" />
    <glyph glyph-name="aeacute" unicode="&#x1fd;" horiz-adv-x="1873" 
d="M1098 1165h-338l213 371h389zM1327 -37q-296 0 -467 166h-6q-95 -90 -192 -128t-213 -38q-150 0 -254.5 93.5t-104.5 258.5q0 159 103.5 254t291.5 95q143 0 242 -52v31q0 61 -65.5 92t-169.5 31q-91 0 -180 -31.5t-152 -85.5h-6v352q182 95 424 95q225 0 358 -101h6
q126 101 322 101q111 0 208 -34t171.5 -97.5t117.5 -163.5t43 -223q0 -88 -6 -129h-670q24 -77 96 -119.5t189 -42.5q91 0 180.5 31.5t153.5 84.5h8v-346q-168 -94 -428 -94zM588 268q93 0 147 60l-4 12q-4 12 -4 18q-56 27 -129 27q-61 0 -88 -13.5t-27 -43.5
q0 -27 26.5 -43.5t78.5 -16.5zM1384 737q-26 80 -127 80q-104 0 -131 -80h258z" />
    <glyph glyph-name="Oslashacute" unicode="&#x1fe;" horiz-adv-x="1579" 
d="M479 -37h-409l163 236q-163 196 -163 499q0 285 148 476.5t407 242.5l129 221h405l-192 -223q42 -7 102 -29l33 48h407l-166 -240q166 -200 166 -496q0 -220 -88 -386t-253 -257.5t-384 -91.5q-144 0 -274 45zM1071 698q0 67 -16 129l-330 -469q27 -6 59 -6
q130 0 208.5 89.5t78.5 256.5zM510 698q0 -75 14 -127l328 465q-27 6 -55 6q-130 0 -208.5 -88.5t-78.5 -255.5z" />
    <glyph glyph-name="oslashacute" unicode="&#x1ff;" horiz-adv-x="1302" 
d="M440 -37h-389l131 189q-131 150 -131 378q0 255 164 410.5t440 155.5q100 0 189 -25l16 25h391l-131 -191q131 -153 131 -375q0 -255 -164 -411t-440 -156q-101 0 -190 25zM829 1165h-337l213 371h389zM471 530q0 -23 4 -63l211 285q-20 4 -31 4q-85 0 -134.5 -59.5
t-49.5 -166.5zM829 530q0 7 -1 21t-1 20l-200 -268h20q85 0 133.5 59t48.5 168z" />
    <glyph glyph-name="Scommaaccent" unicode="&#x218;" horiz-adv-x="1155" 
d="M545 -395h-338l184 319h389zM1081 426q0 -203 -140 -333t-386 -130q-244 0 -442 103v395h6q74 -67 188.5 -105.5t210.5 -38.5q141 0 141 80q0 26 -23 48.5t-61 38.5t-86.5 37t-99.5 42.5t-99.5 58t-86.5 80.5t-61 112t-23 151q0 93 27.5 173.5t85 148.5t157.5 107.5
t232 39.5q110 0 218.5 -26.5t192.5 -76.5v-395h-6q-74 68 -171 104.5t-191 36.5q-119 0 -119 -73q0 -27 23 -49.5t60.5 -38.5t86 -37.5t98.5 -43.5t98.5 -59t86 -82t60.5 -114.5t23 -153.5z" />
    <glyph glyph-name="scommaaccent" unicode="&#x219;" horiz-adv-x="1038" 
d="M506 -395h-338l184 319h389zM946 334q0 -171 -113.5 -271t-340.5 -100q-218 0 -383 74v352h6q59 -55 156 -87t184 -32q58 0 80 10t22 33q0 17 -24.5 29t-63.5 22.5t-86.5 24t-95 39t-86.5 61.5t-63.5 98.5t-24.5 143.5q0 173 110.5 269t319.5 96q211 0 366 -74v-352h-6
q-61 55 -149.5 86.5t-167.5 31.5q-44 0 -61 -10t-17 -30q0 -16 24 -28.5t63 -23t85.5 -24.5t93 -39.5t85.5 -61.5t63 -97t24 -140z" />
    <glyph glyph-name="commaaccent.alt" unicode="&#x2bb;" horiz-adv-x="1024" 
d="M614 1217h-389l236 319h338z" />
    <glyph glyph-name="commaaccent.alt" unicode="&#xe026;" horiz-adv-x="1024" 
d="M614 1217h-389l236 319h338z" />
    <glyph glyph-name="commaaccent.alt" unicode="&#x312;" horiz-adv-x="1024" 
d="M614 1217h-389l236 319h338z" />
    <glyph glyph-name="circumflex" unicode="&#x2c6;" horiz-adv-x="1024" 
d="M967 1165h-338l-117 142h-2l-115 -142h-338l289 375h332z" />
    <glyph glyph-name="circumflex" unicode="&#x302;" horiz-adv-x="1024" 
d="M967 1165h-338l-117 142h-2l-115 -142h-338l289 375h332z" />
    <glyph glyph-name="caron" unicode="&#x2c7;" horiz-adv-x="1024" 
d="M678 1163h-332l-289 373h338l117 -141h2l115 141h338z" />
    <glyph glyph-name="caron" unicode="&#x30c;" horiz-adv-x="1024" 
d="M678 1163h-332l-289 373h338l117 -141h2l115 141h338z" />
    <glyph glyph-name="breve" unicode="&#x2d8;" horiz-adv-x="1024" 
d="M512 1180q-192 0 -292 95.5t-111 260.5h292q6 -45 35.5 -72.5t75.5 -27.5q45 0 75 27.5t36 72.5h292q-11 -165 -111 -260.5t-292 -95.5z" />
    <glyph glyph-name="breve" unicode="&#x306;" horiz-adv-x="1024" 
d="M512 1180q-192 0 -292 95.5t-111 260.5h292q6 -45 35.5 -72.5t75.5 -27.5q45 0 75 27.5t36 72.5h292q-11 -165 -111 -260.5t-292 -95.5z" />
    <glyph glyph-name="dotaccent" unicode="&#x2d9;" horiz-adv-x="1024" 
d="M721 1217h-418v319h418v-319z" />
    <glyph glyph-name="dotaccent" unicode="&#x307;" horiz-adv-x="1024" 
d="M721 1217h-418v319h418v-319z" />
    <glyph glyph-name="ring" unicode="&#x2da;" horiz-adv-x="1024" 
d="M819 1389q0 -103 -84 -156t-227 -53t-224 53t-81 156q0 100 84.5 153t228.5 53q141 0 222 -52.5t81 -153.5zM584 1389q0 24 -18.5 39.5t-53.5 15.5t-54.5 -15.5t-19.5 -39.5q0 -60 74 -60q72 0 72 60z" />
    <glyph glyph-name="ring" unicode="&#x30a;" horiz-adv-x="1024" 
d="M819 1389q0 -103 -84 -156t-227 -53t-224 53t-81 156q0 100 84.5 153t228.5 53q141 0 222 -52.5t81 -153.5zM584 1389q0 24 -18.5 39.5t-53.5 15.5t-54.5 -15.5t-19.5 -39.5q0 -60 74 -60q72 0 72 60z" />
    <glyph glyph-name="ogonek" unicode="&#x2db;" horiz-adv-x="1024" 
d="M766 -358q-107 -37 -244 -37q-133 0 -198.5 48.5t-65.5 123.5q0 64 43 125.5t127 130.5h264q-123 -110 -123 -162q0 -45 66 -45q50 0 125 35h6v-219z" />
    <glyph glyph-name="ogonek" unicode="&#x328;" horiz-adv-x="1024" 
d="M766 -358q-107 -37 -244 -37q-133 0 -198.5 48.5t-65.5 123.5q0 64 43 125.5t127 130.5h264q-123 -110 -123 -162q0 -45 66 -45q50 0 125 35h6v-219z" />
    <glyph glyph-name="tilde" unicode="&#x2dc;" horiz-adv-x="1024" 
d="M709 1190q-57 0 -123 20t-121.5 40t-87.5 20q-30 0 -43.5 -20t-18.5 -60h-237q22 346 237 346q57 0 123 -20t121.5 -40t87.5 -20q30 0 43.5 20t18.5 60h237q-22 -346 -237 -346z" />
    <glyph glyph-name="tilde" unicode="&#x303;" horiz-adv-x="1024" 
d="M709 1190q-57 0 -123 20t-121.5 40t-87.5 20q-30 0 -43.5 -20t-18.5 -60h-237q22 346 237 346q57 0 123 -20t121.5 -40t87.5 -20q30 0 43.5 20t18.5 60h237q-22 -346 -237 -346z" />
    <glyph glyph-name="hungarumlaut" unicode="&#x2dd;" horiz-adv-x="1024" 
d="M309 1165h-338l215 371h389zM786 1165h-337l215 371h389z" />
    <glyph glyph-name="hungarumlaut" unicode="&#x30b;" horiz-adv-x="1024" 
d="M309 1165h-338l215 371h389zM786 1165h-337l215 371h389z" />
    <glyph glyph-name="caronSlovak" unicode="&#x315;" horiz-adv-x="1024" 
d="M582 1128h-301l110 408h350z" />
    <glyph glyph-name="caronSlovak" unicode="&#xe01e;" horiz-adv-x="1024" 
d="M582 1128h-301l110 408h350z" />
    <glyph glyph-name="commaaccent" unicode="&#x326;" horiz-adv-x="1024" 
d="M563 -395h-338l185 319h389z" />
    <glyph glyph-name="uni037E" unicode="&#x37e;" horiz-adv-x="614" 
d="M506 672h-395v387h395v-387zM334 -283h-367l168 670h373v-10z" />
    <glyph glyph-name="tonos" unicode="&#x384;" horiz-adv-x="1024" 
d="M600 1165h-291l53 371h351z" />
    <glyph glyph-name="dieresistonos" unicode="&#x385;" horiz-adv-x="1024" 
d="M293 1210h-330v269h330v-269zM1063 1210h-332v269h332v-269zM631 1165h-299l33 371h350z" />
    <glyph glyph-name="Alphatonos" unicode="&#x386;" horiz-adv-x="1540" 
d="M328 1028h-291l53 371h350zM1524 0h-465l-80 260h-381l-80 -260h-448l534 1434h385zM872 631l-84 270h-2l-84 -270h170z" />
    <glyph glyph-name="anoteleia" unicode="&#x387;" horiz-adv-x="600" 
d="M498 362h-396v388h396v-388z" />
    <glyph glyph-name="Epsilontonos" unicode="&#x388;" horiz-adv-x="1417" 
d="M297 1026h-291l53 371h351zM1323 0h-893v1397h840v-367h-416v-139h395v-369h-395v-155h469v-367z" />
    <glyph glyph-name="Etatonos" unicode="&#x389;" horiz-adv-x="1853" 
d="M297 1026h-291l53 371h351zM1690 0h-424v514h-412v-514h-424v1397h424v-465h412v465h424v-1397z" />
    <glyph glyph-name="Iotatonos" unicode="&#x38a;" horiz-adv-x="1017" 
d="M297 1026h-291l53 371h351zM854 0h-424v1397h424v-1397z" />
    <glyph glyph-name="Omicrontonos" unicode="&#x38c;" horiz-adv-x="1771" 
d="M297 1026h-291l53 371h351zM1702 698q0 -220 -88 -386t-253 -257.5t-384 -91.5q-210 0 -372 89.5t-252.5 257t-90.5 388.5q0 219 88.5 386t254 258.5t384.5 91.5q317 0 515 -202t198 -534zM1264 698q0 160 -73.5 252t-201.5 92q-130 0 -208.5 -88.5t-78.5 -255.5
q0 -160 73 -253t202 -93q130 0 208.5 89.5t78.5 256.5z" />
    <glyph glyph-name="Upsilontonos" unicode="&#x38e;" horiz-adv-x="1804" 
d="M297 1026h-291l53 371h840l188 -412h3l213 412h489l-485 -891v-506h-422v506l-482 874z" />
    <glyph glyph-name="Omegatonos" unicode="&#x38f;" horiz-adv-x="1794" 
d="M1698 0h-641v330q89 95 129.5 184t40.5 221q0 144 -62.5 225.5t-183.5 81.5t-183.5 -81.5t-62.5 -225.5q0 -132 40.5 -221t129.5 -184v-330h-641v367h213v2q-96 107 -139 212t-43 265q0 263 186.5 425.5t499.5 162.5t500.5 -162.5t187.5 -425.5q0 -160 -44 -264.5
t-140 -212.5v-2h213v-367zM299 1026h-291l53 371h351z" />
    <glyph glyph-name="iotadieresistonos" unicode="&#x390;" horiz-adv-x="686" 
d="M545 0h-402v1059h402v-1059zM492 1165h-299l32 371h350zM924 1210h-332v269h332v-269zM154 1210h-330v269h330v-269z" />
    <glyph glyph-name="Alpha" unicode="&#x391;" horiz-adv-x="1482" 
d="M1468 0h-464l-80 260h-381l-80 -260h-449l535 1434h385zM817 631l-84 270h-2l-84 -270h170z" />
    <glyph glyph-name="Beta" unicode="&#x392;" horiz-adv-x="1361" 
d="M1284 377q0 -377 -502 -377h-618v1397h600q201 0 320.5 -93.5t119.5 -263.5q0 -109 -53.5 -190.5t-146.5 -130.5v-2q120 -27 200 -113.5t80 -226.5zM860 449q0 38 -28 58.5t-76 20.5h-168v-166h166q106 0 106 87zM776 961q0 34 -25 53.5t-67 19.5h-96v-157h114
q74 31 74 84z" />
    <glyph glyph-name="Gamma" unicode="&#x393;" horiz-adv-x="1077" 
d="M588 0h-424v1397h852v-406h-428v-991z" />
    <glyph glyph-name="uni0394" unicode="&#x394;" horiz-adv-x="1482" 
d="M1468 0h-1454l535 1434h385zM897 375l-164 528h-2l-164 -528h330z" />
    <glyph glyph-name="Epsilon" unicode="&#x395;" horiz-adv-x="1150" 
d="M1057 0h-893v1397h840v-367h-416v-139h395v-369h-395v-155h469v-367z" />
    <glyph glyph-name="Zeta" unicode="&#x396;" horiz-adv-x="1413" 
d="M1313 0h-1215v25l480 952v2h-439v418h1129v-25l-480 -952v-2h525v-418z" />
    <glyph glyph-name="Eta" unicode="&#x397;" horiz-adv-x="1587" 
d="M1423 0h-424v514h-411v-514h-424v1397h424v-465h411v465h424v-1397z" />
    <glyph glyph-name="Theta" unicode="&#x398;" horiz-adv-x="1579" 
d="M1509 698q0 -220 -88 -386t-253 -257.5t-384 -91.5q-210 0 -371.5 89.5t-252 257t-90.5 388.5q0 219 88.5 386t254 258.5t384.5 91.5q317 0 514.5 -202t197.5 -534zM1071 698q0 160 -73.5 252t-200.5 92q-130 0 -208.5 -88.5t-78.5 -255.5q0 -161 73 -253.5t201 -92.5
q130 0 208.5 89.5t78.5 256.5zM975 537h-371v323h371v-323z" />
    <glyph glyph-name="Iota" unicode="&#x399;" horiz-adv-x="751" 
d="M588 0h-424v1397h424v-1397z" />
    <glyph glyph-name="Kappa" unicode="&#x39a;" horiz-adv-x="1447" 
d="M588 0h-424v1397h424v-1397zM1407 0h-481l-326 702v15l309 680h471l-327 -680v-4z" />
    <glyph glyph-name="Lambda" unicode="&#x39b;" horiz-adv-x="1445" 
d="M1432 0h-469l-248 803h-2l-246 -803h-453l533 1434h350z" />
    <glyph glyph-name="Mu" unicode="&#x39c;" horiz-adv-x="1843" 
d="M1733 0h-424l-49 537h-3l-321 -574h-29l-325 576h-2l-43 -539h-426l122 1403h349l340 -637h2l338 637h348z" />
    <glyph glyph-name="Nu" unicode="&#x39d;" horiz-adv-x="1605" 
d="M1440 -6h-350l-500 633h-2v-627h-424v1268l-80 114v15h428l504 -654h2v654h422v-1403z" />
    <glyph glyph-name="Xi" unicode="&#x39e;" horiz-adv-x="1288" 
d="M1188 0h-1088v367h1088v-367zM1153 1030h-1018v367h1018v-367zM1114 522h-940v369h940v-369z" />
    <glyph glyph-name="Omicron" unicode="&#x39f;" horiz-adv-x="1579" 
d="M1509 698q0 -220 -88 -386t-253 -257.5t-384 -91.5q-210 0 -371.5 89.5t-252 257t-90.5 388.5q0 219 88.5 386t254 258.5t384.5 91.5q317 0 514.5 -202t197.5 -534zM1071 698q0 160 -73.5 252t-200.5 92q-130 0 -208.5 -88.5t-78.5 -255.5q0 -161 73 -253.5t201 -92.5
q130 0 208.5 89.5t78.5 256.5z" />
    <glyph glyph-name="Pi" unicode="&#x3a0;" horiz-adv-x="1564" 
d="M1399 0h-422v993h-389v-993h-424v1397h1235v-1397z" />
    <glyph glyph-name="Rho" unicode="&#x3a1;" horiz-adv-x="1335" 
d="M1255 942q0 -255 -166.5 -387.5t-500.5 -175.5v-379h-424v1397h581q227 0 368.5 -120t141.5 -335zM831 903q0 57 -35.5 89t-95.5 32h-112v-272q120 3 181.5 43t61.5 108z" />
    <glyph glyph-name="Sigma" unicode="&#x3a3;" horiz-adv-x="1271" 
d="M1204 0h-1169v25l403 692v2l-366 653v25h1089v-389h-344v-2l146 -277v-24l-183 -314v-2h424v-389z" />
    <glyph glyph-name="Tau" unicode="&#x3a4;" horiz-adv-x="1241" 
d="M834 0h-424v993h-349v404h1119v-404h-346v-993z" />
    <glyph glyph-name="Upsilon" unicode="&#x3a5;" horiz-adv-x="1421" 
d="M924 0h-422v506l-490 891h504l189 -412h2l213 412h489l-485 -891v-506z" />
    <glyph glyph-name="Phi" unicode="&#x3a6;" horiz-adv-x="1820" 
d="M1122 -4h-424v121q-299 24 -468 172.5t-169 408.5q0 259 168.5 407t468.5 173v123h424v-123q300 -25 469.5 -173t169.5 -407q0 -260 -169.5 -408t-469.5 -173v-121zM709 481v432q-104 -10 -155.5 -69t-51.5 -146q0 -88 51.5 -147.5t155.5 -69.5zM1114 481
q102 10 153.5 69.5t51.5 147.5q0 87 -51.5 146t-153.5 69v-432z" />
    <glyph glyph-name="Chi" unicode="&#x3a7;" horiz-adv-x="1529" 
d="M1483 0h-506l-211 389h-2l-193 -389h-493l379 709l-410 688h502l209 -387h2l196 387h492l-379 -688z" />
    <glyph glyph-name="Psi" unicode="&#x3a8;" horiz-adv-x="1785" 
d="M1104 0h-422v283q-309 28 -451.5 161.5t-142.5 407.5v545h424v-547q0 -84 38 -133t132 -68v748h422v-750q97 19 133.5 67.5t36.5 135.5v547h424v-545q0 -274 -142.5 -407.5t-451.5 -161.5v-283z" />
    <glyph glyph-name="uni03A9" unicode="&#x3a9;" horiz-adv-x="1622" 
d="M1528 0h-641v330q89 95 129.5 184t40.5 221q0 144 -62.5 225.5t-183.5 81.5t-183.5 -81.5t-62.5 -225.5q0 -132 40.5 -221t129.5 -184v-330h-641v367h213v2q-96 107 -139 212t-43 265q0 263 186.5 425.5t499.5 162.5t500.5 -162.5t187.5 -425.5q0 -160 -44 -264.5
t-140 -212.5v-2h213v-367z" />
    <glyph glyph-name="Iotadieresis" unicode="&#x3aa;" horiz-adv-x="759" 
d="M588 0h-424v1397h424v-1397zM322 1419h-383v273h383v-273zM821 1419h-383v273h383v-273z" />
    <glyph glyph-name="Upsilondieresis" unicode="&#x3ab;" horiz-adv-x="1413" 
d="M915 0h-421v506l-490 891h504l188 -412h2l213 412h490l-486 -891v-506zM649 1419h-383v273h383v-273zM1149 1419h-383v273h383v-273z" />
    <glyph glyph-name="alphatonos" unicode="&#x3ac;" horiz-adv-x="1335" 
d="M872 1165h-290l53 371h350zM793 410v245q-71 88 -152 88q-73 0 -116.5 -55t-43.5 -158q0 -104 42.5 -159.5t113.5 -55.5q51 0 87 25.5t69 69.5zM1194 0h-401v76h-2q-67 -57 -134.5 -85t-156.5 -28q-202 0 -320.5 155.5t-118.5 411.5q0 261 128.5 413.5t336.5 152.5
q103 0 169.5 -28t131.5 -79h2l359 101h6v-1090z" />
    <glyph glyph-name="epsilontonos" unicode="&#x3ad;" horiz-adv-x="1056" 
d="M748 1165h-291l53 371h350zM59 295q0 98 54.5 172t152.5 100v2q-78 43 -111.5 98t-33.5 138q0 139 114 215t340 76q244 0 381 -80v-338h-6q-38 49 -110 79.5t-156 30.5q-125 0 -125 -49t78 -49h235v-307h-348q-41 -13 -41 -51q0 -31 36 -45.5t122 -14.5q213 0 324 111h6
v-336q-152 -84 -432 -84q-239 0 -359.5 87.5t-120.5 244.5z" />
    <glyph glyph-name="etatonos" unicode="&#x3ae;" horiz-adv-x="1380" 
d="M893 1165h-291l53 371h351zM1247 -397h-401v989q0 73 -37 112t-100 39q-101 0 -164 -94v-649h-402v1059h400v-74h2q133 111 307 111q80 0 149.5 -23t125 -67.5t88 -117.5t32.5 -167v-1118z" />
    <glyph glyph-name="iotatonos" unicode="&#x3af;" horiz-adv-x="686" 
d="M545 0h-402v1059h402v-1059zM498 1165h-291l53 371h350z" />
    <glyph glyph-name="upsilondieresistonos" unicode="&#x3b0;" horiz-adv-x="1335" 
d="M461 1210h-330v269h330v-269zM1231 1210h-332v269h332v-269zM799 1165h-299l32 371h351zM772 1059h406q17 -124 23.5 -174.5t13 -140t6.5 -179.5q0 -278 -141.5 -440t-417.5 -162q-258 0 -393.5 136t-135.5 374v586h402v-594q0 -83 31.5 -122.5t99.5 -39.5q153 0 153 248
q0 90 -7 181t-15 151.5t-25 175.5z" />
    <glyph glyph-name="alpha" unicode="&#x3b1;" horiz-adv-x="1335" 
d="M793 410v245q-71 88 -152 88q-73 0 -116.5 -55t-43.5 -158q0 -104 42.5 -159.5t113.5 -55.5q51 0 87 25.5t69 69.5zM1194 0h-401v76h-2q-67 -57 -134.5 -85t-156.5 -28q-202 0 -320.5 155.5t-118.5 411.5q0 261 128.5 413.5t336.5 152.5q103 0 169.5 -28t131.5 -79h2
l359 101h6v-1090z" />
    <glyph glyph-name="beta" unicode="&#x3b2;" horiz-adv-x="1363" 
d="M1313 414q0 -198 -134 -324.5t-348 -126.5q-84 0 -157 21.5t-117 54.5h-2v-322l-399 -112h-2v1442q0 260 131.5 381.5t406.5 121.5q256 0 386 -105.5t130 -283.5q0 -113 -46 -199.5t-148 -150.5v-2q133 -32 216 -129t83 -266zM895 467q0 139 -211 139h-70v352h103
q82 42 82 129q0 49 -32 85t-87 36q-66 0 -95.5 -39.5t-29.5 -126.5v-639q65 -88 188 -88q65 0 108.5 36.5t43.5 115.5z" />
    <glyph glyph-name="gamma" unicode="&#x3b3;" horiz-adv-x="1249" 
d="M795 -287l-389 -108h-5q0 198 -30 365t-121 423l-238 666h449l121 -387l39 -135h2l28 98q91 282 162 424h434q-109 -206 -197.5 -402.5t-230.5 -535.5l-45 -119q21 -112 21 -289z" />
    <glyph glyph-name="delta" unicode="&#x3b4;" horiz-adv-x="1267" 
d="M1214 496q0 -230 -162 -381.5t-423 -151.5q-251 0 -414.5 149t-163.5 369q0 137 60 241.5t206 211.5q-51 54 -74.5 113.5t-23.5 144.5q0 165 116 261.5t351 96.5q122 0 205 -16t186 -53v-355h-6q-77 56 -165 86.5t-163 30.5q-66 0 -93 -12.5t-27 -38.5q0 -23 31 -48.5
t110 -68.5l76 -39q374 -190 374 -540zM797 494q0 68 -34.5 126t-103.5 93l-24 12q-164 -79 -164 -231q0 -87 45 -139t119 -52q69 0 115.5 52.5t46.5 138.5z" />
    <glyph glyph-name="epsilon" unicode="&#x3b5;" horiz-adv-x="1056" 
d="M59 295q0 98 54.5 172t152.5 100v2q-78 43 -111.5 98t-33.5 138q0 139 114 215t340 76q244 0 381 -80v-338h-6q-38 49 -110 79.5t-156 30.5q-125 0 -125 -49t78 -49h235v-307h-348q-41 -13 -41 -51q0 -31 36 -45.5t122 -14.5q213 0 324 111h6v-336q-152 -84 -432 -84
q-239 0 -359.5 87.5t-120.5 244.5z" />
    <glyph glyph-name="zeta" unicode="&#x3b6;" horiz-adv-x="1030" 
d="M893 -291h-406q103 124 103 203q0 38 -23 61q-16 15 -62 26t-96 19.5t-115.5 37t-115.5 75.5q-129 119 -129 342q0 169 83.5 328.5t287.5 388.5v2h-301v344h872v-305q-214 -213 -325.5 -342.5t-154 -213.5t-42.5 -163q0 -67 39 -106q26 -32 84.5 -50t117.5 -24.5
t125 -27.5t103 -58q59 -54 59 -170q0 -161 -104 -367z" />
    <glyph glyph-name="eta" unicode="&#x3b7;" horiz-adv-x="1380" 
d="M1247 -397h-401v989q0 73 -37 112t-100 39q-101 0 -164 -94v-649h-402v1059h400v-74h2q133 111 307 111q80 0 149.5 -23t125 -67.5t88 -117.5t32.5 -167v-1118z" />
    <glyph glyph-name="theta" unicode="&#x3b8;" horiz-adv-x="1247" 
d="M1186 698q0 -355 -154.5 -545t-406.5 -190q-122 0 -224 47t-178.5 136.5t-119 231t-42.5 320.5q0 356 151.5 546t412.5 190t411 -189.5t150 -546.5zM625 1094q-126 0 -152 -240h301q-26 240 -149 240zM625 303q120 0 147 236h-299q31 -236 152 -236z" />
    <glyph glyph-name="iota" unicode="&#x3b9;" horiz-adv-x="686" 
d="M545 0h-402v1059h402v-1059z" />
    <glyph glyph-name="kappa" unicode="&#x3ba;" horiz-adv-x="1335" 
d="M545 0h-402v1059h402v-1059zM1313 0h-467l-291 530v11l274 518h457l-295 -518v-4z" />
    <glyph glyph-name="lambda" unicode="&#x3bb;" horiz-adv-x="1284" 
d="M1270 0h-449l-159 551h-3l-184 -551h-461l449 1059q-127 304 -264 477h471q122 -184 223 -479z" />
    <glyph glyph-name="uni03BC" unicode="&#x3bc;" horiz-adv-x="1366" 
d="M1223 0h-381v76h-2q-34 -47 -86.5 -80t-108.5 -33q-90 0 -143 53h-4q24 -116 47 -299l-400 -112h-2v1454h402v-582q0 -81 36.5 -121.5t98.5 -40.5q56 0 94 34.5t47 99.5v610h402v-1059z" />
    <glyph glyph-name="nu" unicode="&#x3bd;" horiz-adv-x="1271" 
d="M776 -37h-293l-469 1096h455l182 -553h2q100 220 162 553h434q-96 -461 -473 -1096z" />
    <glyph glyph-name="xi" unicode="&#x3be;" horiz-adv-x="1064" 
d="M928 -291h-406q103 121 103 203q0 39 -21 57q-16 18 -64 29.5t-101 20t-120.5 36.5t-117.5 74q-131 119 -131 309q0 142 74 239t212 130v2q-97 47 -151.5 142t-54.5 212q0 180 125.5 283.5t351.5 103.5q206 0 385 -96v-387h-8q-63 64 -129 99.5t-150 35.5q-62 0 -108 -29
t-46 -90t41.5 -94t122.5 -33h185v-350h-345q-39 -18 -63.5 -50.5t-24.5 -72.5q0 -66 52 -98q50 -31 138.5 -45t169.5 -32t126 -62q59 -54 59 -168q0 -87 -28.5 -185t-75.5 -184z" />
    <glyph glyph-name="omicron" unicode="&#x3bf;" horiz-adv-x="1302" 
d="M829 530q0 103 -46 164.5t-128 61.5q-85 0 -134.5 -59.5t-49.5 -166.5q0 -104 47 -165.5t129 -61.5q85 0 133.5 59t48.5 168zM1251 530q0 -255 -164 -411t-440 -156q-268 0 -432 155t-164 412q0 255 164 410.5t440 155.5q267 0 431.5 -155.5t164.5 -410.5z" />
    <glyph glyph-name="pi" unicode="&#x3c0;" horiz-adv-x="1531" 
d="M1288 0h-401v715h-201q0 -304 -68 -715h-401q68 415 68 715h-262v12l135 332h1317v-344h-187v-715z" />
    <glyph glyph-name="rho" unicode="&#x3c1;" horiz-adv-x="1337" 
d="M1278 530q0 -261 -133.5 -414t-343.5 -153q-163 0 -273 76h-2v-434h-401v936q0 144 44 252.5t124 173.5t183.5 97t230.5 32q257 0 414 -152t157 -414zM858 530q0 107 -46 167.5t-118 60.5q-168 0 -168 -232v-123q71 -88 162 -88q74 0 122 56t48 159z" />
    <glyph glyph-name="sigma1" unicode="&#x3c2;" horiz-adv-x="935" 
d="M469 -25q-15 15 -54.5 30t-81 28t-93 45.5t-88.5 77.5q-101 123 -101 362q0 265 140.5 421.5t377.5 156.5q155 0 295 -86v-383h-6q-37 48 -95 80t-118 32q-79 0 -126.5 -56.5t-47.5 -152.5q0 -89 39 -137q26 -32 72 -51t89 -26t92 -24t79 -44q57 -54 57 -172
q0 -175 -106 -367h-406q57 75 79.5 120t22.5 85q0 38 -20 61z" />
    <glyph glyph-name="sigma" unicode="&#x3c3;" horiz-adv-x="1329" 
d="M1210 455q0 -212 -161 -352t-420 -140q-166 0 -298 68.5t-206 193t-74 283.5q0 260 159.5 405.5t438.5 145.5h623v-350h-158q52 -56 74 -116t22 -138zM795 500q0 134 -123 215h-21q-78 0 -129 -53.5t-51 -153.5q0 -91 43.5 -149t122.5 -58q71 0 114.5 54.5t43.5 144.5z
" />
    <glyph glyph-name="tau" unicode="&#x3c4;" horiz-adv-x="1024" 
d="M713 0h-402v715h-266v344h936v-344h-268v-715z" />
    <glyph glyph-name="upsilon" unicode="&#x3c5;" horiz-adv-x="1335" 
d="M772 1059h406q17 -124 23.5 -174.5t13 -140t6.5 -179.5q0 -278 -141.5 -440t-417.5 -162q-258 0 -393.5 136t-135.5 374v586h402v-594q0 -83 31.5 -122.5t99.5 -39.5q153 0 153 248q0 90 -7 181t-15 151.5t-25 175.5z" />
    <glyph glyph-name="phi" unicode="&#x3c6;" horiz-adv-x="1695" 
d="M655 303v455q-184 -22 -184 -228q0 -202 184 -227zM1645 530q0 -237 -157.5 -382t-438.5 -173v-370h-402v370q-282 28 -439 173t-157 382q0 238 152 383t444 172v451h402v-453q290 -26 443 -170.5t153 -382.5zM1225 530q0 108 -47 162.5t-140 65.5v-455q187 22 187 227z
" />
    <glyph glyph-name="chi" unicode="&#x3c7;" horiz-adv-x="1265" 
d="M1251 -395h-463l-161 434h-2l-154 -434h-455l334 721l-338 733h465l154 -436h2l162 436h454l-331 -733z" />
    <glyph glyph-name="psi" unicode="&#x3c8;" horiz-adv-x="1804" 
d="M1108 -395h-401v368q-305 30 -439.5 159.5t-134.5 359.5v567h402v-565q0 -83 38.5 -128.5t133.5 -56.5v1227h401v-1225q102 19 141 80t39 174q0 90 -6.5 179.5t-13 140t-23.5 174.5h402q17 -124 23.5 -174.5t13 -140t6.5 -179.5q0 -261 -136.5 -410t-445.5 -182v-368z
" />
    <glyph glyph-name="omega" unicode="&#x3c9;" horiz-adv-x="1734" 
d="M1192 -37q-118 0 -194.5 32.5t-129.5 104.5h-4q-51 -72 -127.5 -104.5t-193.5 -32.5q-144 0 -247 76.5t-153.5 208.5t-50.5 307q0 146 24.5 255.5t88.5 248.5h409q-66 -135 -90 -245.5t-24 -262.5q0 -248 90 -248q40 0 58 33.5t18 120.5v346h401v-346q0 -87 19 -120.5
t59 -33.5q90 0 90 248q0 151 -24.5 262t-90.5 246h410q63 -139 87.5 -248t24.5 -256q0 -267 -118 -429.5t-332 -162.5z" />
    <glyph glyph-name="iotadieresis" unicode="&#x3ca;" horiz-adv-x="686" 
d="M545 0h-402v1059h402v-1059zM285 1217h-383v319h383v-319zM784 1217h-383v319h383v-319z" />
    <glyph glyph-name="upsilondieresis" unicode="&#x3cb;" horiz-adv-x="1335" 
d="M590 1217h-383v319h383v-319zM1090 1217h-383v319h383v-319zM772 1059h406q17 -124 23.5 -174.5t13 -140t6.5 -179.5q0 -278 -141.5 -440t-417.5 -162q-258 0 -393.5 136t-135.5 374v586h402v-594q0 -83 31.5 -122.5t99.5 -39.5q153 0 153 248q0 90 -7 181t-15 151.5
t-25 175.5z" />
    <glyph glyph-name="omicrontonos" unicode="&#x3cc;" horiz-adv-x="1302" 
d="M791 1165h-291l53 371h350zM829 530q0 103 -46 164.5t-128 61.5q-85 0 -134.5 -59.5t-49.5 -166.5q0 -104 47 -165.5t129 -61.5q85 0 133.5 59t48.5 168zM1251 530q0 -255 -164 -411t-440 -156q-268 0 -432 155t-164 412q0 255 164 410.5t440 155.5q267 0 431.5 -155.5
t164.5 -410.5z" />
    <glyph glyph-name="upsilontonos" unicode="&#x3cd;" horiz-adv-x="1335" 
d="M799 1165h-291l53 371h350zM772 1059h406q17 -124 23.5 -174.5t13 -140t6.5 -179.5q0 -278 -141.5 -440t-417.5 -162q-258 0 -393.5 136t-135.5 374v586h402v-594q0 -83 31.5 -122.5t99.5 -39.5q153 0 153 248q0 90 -7 181t-15 151.5t-25 175.5z" />
    <glyph glyph-name="omegatonos" unicode="&#x3ce;" horiz-adv-x="1734" 
d="M1020 1165h-291l53 371h351zM1192 -37q-118 0 -194.5 32.5t-129.5 104.5h-4q-51 -72 -127.5 -104.5t-193.5 -32.5q-144 0 -247 76.5t-153.5 208.5t-50.5 307q0 146 24.5 255.5t88.5 248.5h409q-66 -135 -90 -245.5t-24 -262.5q0 -248 90 -248q40 0 58 33.5t18 120.5v346
h401v-346q0 -87 19 -120.5t59 -33.5q90 0 90 248q0 151 -24.5 262t-90.5 246h410q63 -139 87.5 -248t24.5 -256q0 -267 -118 -429.5t-332 -162.5z" />
    <glyph glyph-name="uni0400" unicode="&#x400;" horiz-adv-x="1150" 
d="M1057 0h-893v1397h268l-209 241h406l141 -241h234v-367h-416v-139h395v-369h-395v-155h469v-367z" />
    <glyph glyph-name="uni0401" unicode="&#x401;" horiz-adv-x="1150" 
d="M514 1419h-383v273h383v-273zM1014 1419h-383v273h383v-273zM1057 0h-893v1397h840v-367h-416v-139h395v-369h-395v-155h469v-367z" />
    <glyph glyph-name="uni0402" unicode="&#x402;" horiz-adv-x="1566" 
d="M958 8v352q24 -8 56 -8q34 0 56 18t22 54q0 76 -117 76h-139v-500h-426v993h-349v404h1219v-389h-444v-142h129q127 0 225.5 -25t172 -77t112 -137.5t38.5 -202.5q0 -112 -38.5 -196t-105.5 -132.5t-149 -72t-178 -23.5q-56 0 -84 8z" />
    <glyph glyph-name="uni0403" unicode="&#x403;" horiz-adv-x="1077" 
d="M588 0h-424v1397h231l142 241h405l-209 -241h283v-404h-428v-993z" />
    <glyph glyph-name="uni0404" unicode="&#x404;" horiz-adv-x="1310" 
d="M766 -37q-154 0 -282.5 49.5t-220 142.5t-142.5 232t-51 311q0 163 46.5 298.5t133.5 232.5t217 151t291 54q258 0 452 -113v-420h-8q-64 65 -166 104t-227 39q-131 0 -206 -45t-75 -108h605v-369h-605q0 -75 66.5 -122.5t210.5 -47.5q124 0 230.5 39t174.5 107h9v-422
q-187 -113 -453 -113z" />
    <glyph glyph-name="uni0405" unicode="&#x405;" horiz-adv-x="1155" 
d="M1081 426q0 -203 -140 -333t-386 -130q-244 0 -442 103v397h6q74 -67 188.5 -105.5t210.5 -38.5q141 0 141 78q0 26 -23 48.5t-61 38.5t-86.5 37t-99.5 42.5t-99.5 58t-86.5 80.5t-61 112t-23 151q0 93 27.5 173.5t85 148.5t157.5 107.5t232 39.5q110 0 218.5 -26.5
t192.5 -76.5v-397h-6q-74 68 -170.5 103.5t-191.5 35.5q-119 0 -119 -69q0 -27 23 -49.5t60.5 -38.5t86 -37.5t98.5 -43.5t98.5 -59t86 -82t60.5 -114.5t23 -153.5z" />
    <glyph glyph-name="uni0406" unicode="&#x406;" horiz-adv-x="751" 
d="M588 0h-424v1397h424v-1397z" />
    <glyph glyph-name="uni0407" unicode="&#x407;" horiz-adv-x="759" 
d="M588 0h-424v1397h424v-1397zM322 1419h-383v273h383v-273zM821 1419h-383v273h383v-273z" />
    <glyph glyph-name="uni0408" unicode="&#x408;" horiz-adv-x="970" 
d="M362 -37q-145 0 -258 55v404h9q31 -33 74.5 -51.5t84.5 -18.5q70 0 102 37t32 111v493h-322v13l119 391h624v-985q0 -97 -24 -175.5t-76.5 -141.5t-145 -97.5t-219.5 -34.5z" />
    <glyph glyph-name="uni0409" unicode="&#x409;" horiz-adv-x="1974" 
d="M1921 471q0 -239 -145.5 -355t-403.5 -116h-555v979h-100l-25 -299q-21 -269 -92.5 -420.5t-202.5 -215t-352 -64.5v407q38 0 67 5t52.5 19t39.5 29.5t29 48t20.5 62.5t14 84t10.5 102.5t9 126.5l37 533h917v-457h129q262 0 406.5 -114.5t144.5 -354.5zM1499 471
q0 49 -36 75.5t-101 26.5h-121v-206h121q137 0 137 104z" />
    <glyph glyph-name="uni040A" unicode="&#x40a;" horiz-adv-x="2131" 
d="M2081 465q0 -237 -146 -351t-405 -114h-555v522h-387v-522h-424v1397h424v-471h387v471h424v-471h129q263 0 408 -112t145 -349zM1659 465q0 94 -139 94h-121v-192h121q139 0 139 98z" />
    <glyph glyph-name="uni040B" unicode="&#x40b;" horiz-adv-x="1648" 
d="M1577 0h-424l2 319q0 162 -180 162h-141v-481h-424v993h-349v404h1131v-404h-358v-143h208q125 0 221.5 -27.5t167.5 -84t108.5 -148t37.5 -215.5v-375z" />
    <glyph glyph-name="uni040C" unicode="&#x40c;" horiz-adv-x="1447" 
d="M588 0h-424v1397h395l141 241h406l-209 -241h-309v-1397zM1407 0h-481l-326 702v15l309 680h471l-327 -680v-4z" />
    <glyph glyph-name="uni040D" unicode="&#x40d;" horiz-adv-x="1587" 
d="M967 1397h-338l-209 241h405zM1423 0h-424v690h-2l-415 -696h-418v1403h424v-690h2l416 696h417v-1403z" />
    <glyph glyph-name="uni040E" unicode="&#x40e;" horiz-adv-x="1452" 
d="M739 1405q-159 0 -260.5 75t-118.5 212h293q5 -25 28 -41.5t58 -16.5q36 0 58.5 16.5t27.5 41.5h293q-17 -137 -118.5 -212t-260.5 -75zM809 0h-455l170 369l-510 1028h492l235 -547h2l250 547h445z" />
    <glyph glyph-name="uni040F" unicode="&#x40f;" horiz-adv-x="1566" 
d="M1403 0h-424v-291h-389v291h-426v1397h424v-1008h391v1008h424v-1397z" />
    <glyph glyph-name="uni0410" unicode="&#x410;" horiz-adv-x="1482" 
d="M1468 0h-464l-80 260h-381l-80 -260h-449l535 1434h385zM817 631l-84 270h-2l-84 -270h170z" />
    <glyph glyph-name="uni0411" unicode="&#x411;" horiz-adv-x="1349" 
d="M1284 436q0 -436 -534 -436h-586v1397h960v-404h-536v-121h162q261 0 397.5 -104t136.5 -332zM862 436q0 82 -123 82h-151v-166h151q123 0 123 84z" />
    <glyph glyph-name="uni0412" unicode="&#x412;" horiz-adv-x="1361" 
d="M1284 377q0 -377 -502 -377h-618v1397h600q201 0 320.5 -93.5t119.5 -263.5q0 -109 -53.5 -190.5t-146.5 -130.5v-2q120 -27 200 -113.5t80 -226.5zM862 449q0 38 -28 58.5t-76 20.5h-170v-166h166q108 0 108 87zM784 961q0 34 -25 53.5t-67 19.5h-104v-157h123
q73 30 73 84z" />
    <glyph glyph-name="uni0413" unicode="&#x413;" horiz-adv-x="1077" 
d="M588 0h-424v1397h852v-404h-428v-993z" />
    <glyph glyph-name="uni0414" unicode="&#x414;" horiz-adv-x="1615" 
d="M1544 -291h-387v291h-725v-291h-389v680h184q102 191 123 502l35 506h985v-1008h174v-680zM948 389v621h-172l-8 -164q-7 -142 -31 -246t-69 -211h280z" />
    <glyph glyph-name="uni0415" unicode="&#x415;" horiz-adv-x="1150" 
d="M1057 0h-893v1397h840v-367h-416v-139h395v-369h-395v-155h469v-367z" />
    <glyph glyph-name="uni0416" unicode="&#x416;" horiz-adv-x="2064" 
d="M520 0h-481l317 713v4l-288 680h469l270 -680v-15zM1243 0h-424v1397h424v-1397zM2023 0h-481l-285 702v15l269 680h471l-289 -680v-4z" />
    <glyph glyph-name="uni0417" unicode="&#x417;" horiz-adv-x="1196" 
d="M563 -37q-264 0 -450 94v392h6q65 -58 184 -95t219 -37q79 0 126.5 27t47.5 78q0 42 -37.5 67t-109.5 25h-281v358h262q80 38 80 103q0 48 -43.5 75t-115.5 27q-94 0 -179.5 -35t-144.5 -92h-6v396q164 88 395 88q237 0 379.5 -104t142.5 -281q0 -215 -194 -326v-2
q131 -31 202.5 -126t71.5 -237q0 -185 -145 -290t-410 -105z" />
    <glyph glyph-name="uni0418" unicode="&#x418;" horiz-adv-x="1587" 
d="M1423 0h-424v690h-2l-415 -696h-418v1403h424v-690h2l416 696h417v-1403z" />
    <glyph glyph-name="uni0419" unicode="&#x419;" horiz-adv-x="1587" 
d="M795 1405q-159 0 -260.5 75t-118.5 212h293q5 -25 28 -41.5t58 -16.5q36 0 58.5 16.5t27.5 41.5h293q-17 -137 -118.5 -212t-260.5 -75zM1423 0h-424v690h-2l-415 -696h-418v1403h424v-690h2l416 696h417v-1403z" />
    <glyph glyph-name="uni041A" unicode="&#x41a;" horiz-adv-x="1447" 
d="M588 0h-424v1397h424v-1397zM1407 0h-481l-326 702v15l309 680h471l-327 -680v-4z" />
    <glyph glyph-name="uni041B" unicode="&#x41b;" horiz-adv-x="1478" 
d="M1311 0h-422v979h-172l-25 -299q-21 -269 -92.5 -420.5t-202.5 -215t-352 -64.5v407q38 0 67 5t52.5 19t39.5 29.5t29 48t20.5 62.5t14 84t10.5 102.5t9 126.5l37 533h987v-1397z" />
    <glyph glyph-name="uni041C" unicode="&#x41c;" horiz-adv-x="1843" 
d="M1733 0h-424l-49 537h-3l-321 -574h-29l-325 576h-2l-43 -539h-426l122 1403h349l340 -637h2l338 637h348z" />
    <glyph glyph-name="uni041D" unicode="&#x41d;" horiz-adv-x="1587" 
d="M1423 0h-424v522h-411v-522h-424v1397h424v-471h411v471h424v-1397z" />
    <glyph glyph-name="uni041E" unicode="&#x41e;" horiz-adv-x="1579" 
d="M1509 698q0 -220 -88 -386t-253 -257.5t-384 -91.5q-210 0 -371.5 89.5t-252 257t-90.5 388.5q0 219 88.5 386t254 258.5t384.5 91.5q317 0 514.5 -202t197.5 -534zM1071 698q0 160 -73.5 252t-200.5 92q-130 0 -208.5 -88.5t-78.5 -255.5q0 -161 73 -253.5t201 -92.5
q130 0 208.5 89.5t78.5 256.5z" />
    <glyph glyph-name="uni041F" unicode="&#x41f;" horiz-adv-x="1566" 
d="M1403 0h-424v993h-391v-993h-424v1397h1239v-1397z" />
    <glyph glyph-name="uni0420" unicode="&#x420;" horiz-adv-x="1335" 
d="M1255 942q0 -135 -43 -234t-130.5 -164.5t-207 -104.5t-286.5 -60v-379h-424v1397h581q230 0 370 -116t140 -339zM831 903q0 57 -35.5 89t-95.5 32h-112v-272q120 3 181.5 43t61.5 108z" />
    <glyph glyph-name="uni0421" unicode="&#x421;" horiz-adv-x="1245" 
d="M1157 514v-440q-189 -111 -432 -111q-141 0 -261 50t-207.5 142.5t-137 232t-49.5 310.5q0 216 77.5 382t225 260t344.5 94q250 0 432 -111v-440h-8q-60 67 -149.5 107t-188.5 40q-137 0 -215 -89.5t-78 -244.5q0 -150 78 -239.5t221 -89.5q94 0 185.5 39.5t154.5 107.5
h8z" />
    <glyph glyph-name="uni0422" unicode="&#x422;" horiz-adv-x="1241" 
d="M834 0h-424v993h-349v404h1119v-404h-346v-993z" />
    <glyph glyph-name="uni0423" unicode="&#x423;" horiz-adv-x="1452" 
d="M809 0h-455l170 369l-510 1028h492l235 -547h2l250 547h445z" />
    <glyph glyph-name="uni0424" unicode="&#x424;" horiz-adv-x="1820" 
d="M1122 -4h-424v121q-299 24 -468 172.5t-169 408.5q0 259 168.5 407t468.5 173v123h424v-123q300 -25 469.5 -173t169.5 -407q0 -260 -169.5 -408t-469.5 -173v-121zM709 481v432q-103 -10 -155 -70t-52 -145q0 -87 52 -147t155 -70zM1114 481q102 10 153.5 70t51.5 147
q0 85 -51.5 145t-153.5 70v-432z" />
    <glyph glyph-name="uni0425" unicode="&#x425;" horiz-adv-x="1529" 
d="M1483 0h-506l-211 389h-2l-193 -389h-493l379 709l-410 688h502l209 -387h2l196 387h492l-379 -688z" />
    <glyph glyph-name="uni0426" unicode="&#x426;" horiz-adv-x="1626" 
d="M1556 -291h-389v291h-1003v1397h424v-994h370v994h424v-994h174v-694z" />
    <glyph glyph-name="uni0427" unicode="&#x427;" horiz-adv-x="1425" 
d="M1262 0h-422v322q-149 12 -258.5 33t-195 56.5t-141 82.5t-91 115t-50 151.5t-14.5 195.5v441h422v-412q0 -42 2 -70t9.5 -58.5t21.5 -49.5t38 -38t59 -30t84 -19.5t114 -12.5v690h422v-1397z" />
    <glyph glyph-name="uni0428" unicode="&#x428;" horiz-adv-x="2134" 
d="M1970 0h-1806v1397h424v-994h268v994h422v-994h270v994h422v-1397z" />
    <glyph glyph-name="uni0429" unicode="&#x429;" horiz-adv-x="2213" 
d="M2144 -291h-387v291h-1593v1397h424v-994h268v994h422v-994h270v994h422v-994h174v-694z" />
    <glyph glyph-name="uni042A" unicode="&#x42a;" horiz-adv-x="1583" 
d="M1530 481q0 -125 -37.5 -218t-108.5 -150.5t-167.5 -85t-221.5 -27.5h-585v993h-349v404h773v-439h161q255 0 395 -116t140 -361zM1108 481q0 53 -36 81t-105 28h-133v-221h133q141 0 141 112z" />
    <glyph glyph-name="uni042B" unicode="&#x42b;" horiz-adv-x="1935" 
d="M1262 471q0 -239 -145.5 -355t-403.5 -116h-549v1397h424v-457h123q262 0 406.5 -114t144.5 -355zM840 471q0 50 -36 76t-102 26h-114v-206h114q138 0 138 104zM1772 0h-424v1397h424v-1397z" />
    <glyph glyph-name="uni042C" unicode="&#x42c;" horiz-adv-x="1337" 
d="M1284 481q0 -245 -143 -363t-391 -118h-586v1397h424v-439h162q252 0 393 -116.5t141 -360.5zM862 481q0 52 -36 80.5t-99 28.5h-139v-221h139q65 0 100 28.5t35 83.5z" />
    <glyph glyph-name="uni042D" unicode="&#x42d;" horiz-adv-x="1310" 
d="M547 -37q-266 0 -453 113v422h8q68 -68 174.5 -107t231.5 -39q143 0 209.5 48t66.5 122h-604v369h604q0 62 -75 107.5t-205 45.5q-125 0 -227 -39t-166 -104h-9v420q191 113 453 113q161 0 291 -54t217 -151t133.5 -232.5t46.5 -298.5q0 -344 -191.5 -539.5
t-504.5 -195.5z" />
    <glyph glyph-name="uni042E" unicode="&#x42e;" horiz-adv-x="2226" 
d="M1430 -37q-268 0 -454.5 146.5t-238.5 404.5h-149v-514h-424v1397h424v-465h160q67 245 254.5 373.5t441.5 128.5q317 0 515 -202t198 -534q0 -219 -88.5 -385.5t-254 -258t-384.5 -91.5zM1430 352q131 0 208.5 89t77.5 257q0 160 -72.5 252t-199.5 92q-131 0 -209 -88.5
t-78 -255.5q0 -160 73 -253t200 -93z" />
    <glyph glyph-name="uni042F" unicode="&#x42f;" horiz-adv-x="1431" 
d="M1266 0h-422v1030h-123q-78 0 -124 -36.5t-46 -98.5q0 -73 67 -126.5t211 -78.5v-14l-284 -676h-475l239 547v4q-95 75 -138.5 168t-43.5 229q0 112 37.5 198.5t106 141t160.5 82t204 27.5h631v-1397z" />
    <glyph glyph-name="uni0430" unicode="&#x430;" horiz-adv-x="1253" 
d="M1128 0h-391v70h-2q-131 -107 -286 -107q-150 0 -254.5 93.5t-104.5 258.5q0 159 103.5 254t291.5 95q143 0 242 -52v31q0 60 -65.5 91.5t-169.5 31.5q-91 0 -180 -32t-152 -87h-6v354q182 95 424 95q93 0 173.5 -16t150.5 -52.5t119.5 -91t78 -136.5t28.5 -184v-616z
M727 324v34q-59 27 -133 27q-111 0 -111 -57q0 -26 26.5 -43t78.5 -17q86 0 139 56z" />
    <glyph glyph-name="uni0431" unicode="&#x431;" horiz-adv-x="1302" 
d="M1249 530q0 -257 -155.5 -412t-429.5 -155q-276 0 -435 174.5t-159 505.5q0 172 21 291t87 240q56 108 134 172.5t225 95.5q68 14 195.5 23.5t224 27t159.5 57.5h8v-348q-147 -57 -434 -82q-185 -17 -217 -155l4 -2q34 33 102.5 56t147.5 23q108 0 201 -31t165.5 -92
t114 -161t41.5 -228zM831 516q0 90 -43.5 142.5t-125.5 52.5q-84 0 -128.5 -54t-44.5 -135q0 -91 44 -149t129 -58q81 0 125 54.5t44 146.5z" />
    <glyph glyph-name="uni0432" unicode="&#x432;" horiz-adv-x="1232" 
d="M1169 285q0 -285 -381 -285h-645v1059h631q154 0 244 -70.5t90 -200.5q0 -89 -42.5 -147.5t-145.5 -93.5v-2q249 -38 249 -260zM748 342q0 47 -68 47h-135v-96h129q74 0 74 49zM688 727q0 16 -17 27.5t-46 11.5h-80v-90h92q51 8 51 51z" />
    <glyph glyph-name="uni0433" unicode="&#x433;" horiz-adv-x="991" 
d="M545 0h-402v1059h805v-344h-403v-715z" />
    <glyph glyph-name="uni0434" unicode="&#x434;" horiz-adv-x="1441" 
d="M1391 -291h-367v291h-618v-291h-367v635h151q47 90 71.5 182.5t31.5 225.5l16 307h914v-715h168v-635zM821 344v371h-153l-4 -72q-3 -152 -66 -299h223z" />
    <glyph glyph-name="uni0435" unicode="&#x435;" horiz-adv-x="1220" 
d="M1100 57q-168 -94 -428 -94q-280 0 -450.5 152.5t-170.5 414.5q0 124 36.5 227.5t105.5 179t176 117.5t241 42q111 0 208.5 -34t172 -97.5t117.5 -163.5t43 -223q0 -68 -6 -129h-672q24 -76 96 -118t189 -42q92 0 181.5 31.5t154.5 85.5h6v-349zM729 737q-11 36 -43.5 58
t-81.5 22q-106 0 -131 -80h256z" />
    <glyph glyph-name="uni0436" unicode="&#x436;" horiz-adv-x="1902" 
d="M492 0h-469l280 537v4l-254 518h459l231 -518v-11zM1153 0h-401v1059h401v-1059zM1880 0h-467l-250 530v11l234 518h456l-254 -518v-4z" />
    <glyph glyph-name="uni0437" unicode="&#x437;" horiz-adv-x="1058" 
d="M999 279q0 -145 -121.5 -230.5t-357.5 -85.5q-281 0 -432 82v338h6q118 -111 324 -111q157 0 157 58q0 26 -27.5 39.5t-94.5 13.5h-267v307h277q37 19 37 49q0 49 -123 49q-85 0 -156.5 -30t-111.5 -80h-7v338q137 80 381 80q225 0 340 -75t115 -214q0 -83 -33.5 -138.5
t-111.5 -99.5v-2q102 -29 154 -103.5t52 -184.5z" />
    <glyph glyph-name="uni0438" unicode="&#x438;" horiz-adv-x="1398" 
d="M1255 0h-401v477h-2l-313 -483h-396v1065h402v-479h2l313 485h395v-1065z" />
    <glyph glyph-name="uni0439" unicode="&#x439;" horiz-adv-x="1398" 
d="M700 1180q-192 0 -292 95.5t-111 260.5h299q8 -48 34 -78.5t70 -30.5q43 0 70 31t33 78h301q-11 -164 -111.5 -260t-292.5 -96zM1255 0h-401v477h-2l-313 -483h-396v1065h402v-479h2l313 485h395v-1065z" />
    <glyph glyph-name="uni043A" unicode="&#x43a;" horiz-adv-x="1335" 
d="M545 0h-402v1059h402v-1059zM1313 0h-467l-291 530v11l274 518h457l-295 -518v-4z" />
    <glyph glyph-name="uni043B" unicode="&#x43b;" horiz-adv-x="1310" 
d="M1169 0h-401v715h-131l-16 -174q-17 -163 -51.5 -267t-101 -171.5t-164.5 -95t-247 -27.5v339q48 0 80.5 15t52.5 40t32 75t17.5 101t10.5 138l24 371h895v-1059z" />
    <glyph glyph-name="uni043C" unicode="&#x43c;" horiz-adv-x="1613" 
d="M1505 0h-397l-35 352h-2l-246 -387h-37l-245 387h-2l-33 -352h-397l92 1065h391l213 -410h2l215 410h385z" />
    <glyph glyph-name="uni043D" unicode="&#x43d;" horiz-adv-x="1390" 
d="M1247 0h-401v375h-301v-375h-402v1059h402v-340h301v340h401v-1059z" />
    <glyph glyph-name="uni043E" unicode="&#x43e;" horiz-adv-x="1302" 
d="M829 530q0 103 -46 164.5t-128 61.5q-85 0 -134.5 -59.5t-49.5 -166.5q0 -104 47 -165.5t129 -61.5q85 0 133.5 59t48.5 168zM1251 530q0 -255 -164 -411t-440 -156q-268 0 -432 155t-164 412q0 255 164 410.5t440 155.5q267 0 431.5 -155.5t164.5 -410.5z" />
    <glyph glyph-name="uni043F" unicode="&#x43f;" horiz-adv-x="1370" 
d="M1227 0h-402v715h-280v-715h-402v1059h1084v-1059z" />
    <glyph glyph-name="uni0440" unicode="&#x440;" horiz-adv-x="1355" 
d="M1294 530q0 -261 -132.5 -414t-342.5 -153q-165 0 -272 76h-2v-434h-402v1454h400v-74h2q133 111 301 111q203 0 325.5 -156.5t122.5 -409.5zM874 530q0 102 -46.5 157.5t-118.5 55.5q-98 0 -164 -94v-246q67 -88 160 -88q75 0 122 55.5t47 159.5z" />
    <glyph glyph-name="uni0441" unicode="&#x441;" horiz-adv-x="978" 
d="M903 434v-385q-141 -86 -332 -86q-109 0 -204 38.5t-165 109.5t-110.5 179t-40.5 240q0 251 141 408.5t373 157.5q193 0 332 -84v-387h-6q-38 49 -100.5 81.5t-126.5 32.5q-88 0 -140.5 -58t-52.5 -153q0 -92 54.5 -150.5t146.5 -58.5q61 0 123 32t102 83h6z" />
    <glyph glyph-name="uni0442" unicode="&#x442;" horiz-adv-x="1007" 
d="M705 0h-402v715h-260v344h922v-344h-260v-715z" />
    <glyph glyph-name="uni0443" unicode="&#x443;" horiz-adv-x="1284" 
d="M735 -395h-454l168 395l-437 1059h461l174 -551h2l170 551h451z" />
    <glyph glyph-name="uni0444" unicode="&#x444;" horiz-adv-x="1785" 
d="M1724 530q0 -259 -125 -413t-331 -154q-91 0 -174 25v-383h-402v383q-110 -25 -174 -25q-208 0 -332.5 154t-124.5 413q0 258 125 412t332 154q98 0 174 -25v465h402v-465q76 25 174 25q206 0 331 -154.5t125 -411.5zM692 330v399q-40 14 -69 14q-66 0 -104 -55.5
t-38 -157.5q0 -104 38 -159.5t104 -55.5q26 0 69 15zM1305 530q0 103 -38.5 158t-105.5 55q-27 0 -67 -14v-399q43 -15 67 -15q67 0 105.5 55.5t38.5 159.5z" />
    <glyph glyph-name="uni0445" unicode="&#x445;" horiz-adv-x="1284" 
d="M1270 0h-467l-158 287h-2l-147 -287h-457l311 537l-336 522h465l158 -287h2l147 287h457l-311 -522z" />
    <glyph glyph-name="uni0446" unicode="&#x446;" horiz-adv-x="1419" 
d="M1368 -291h-367v291h-858v1059h402v-715h256v715h401v-715h166v-635z" />
    <glyph glyph-name="uni0447" unicode="&#x447;" horiz-adv-x="1265" 
d="M1122 0h-401v217q-335 22 -481 130t-146 341v371h416v-299q0 -50 6 -78t27 -52.5t63.5 -36.5t114.5 -18v484h401v-1059z" />
    <glyph glyph-name="uni0448" unicode="&#x448;" horiz-adv-x="1908" 
d="M1767 0h-1624v1059h402v-715h209v715h401v-715h211v715h401v-1059z" />
    <glyph glyph-name="uni0449" unicode="&#x449;" horiz-adv-x="1988" 
d="M1935 -291h-366v291h-1426v1059h402v-715h209v715h401v-715h211v715h401v-715h168v-635z" />
    <glyph glyph-name="uni044A" unicode="&#x44a;" horiz-adv-x="1325" 
d="M838 367q0 69 -80 69h-92v-143h88q84 0 84 74zM1260 365q0 -169 -103 -267t-289 -98h-604v717h-235v342h637v-330h208q183 0 284.5 -100t101.5 -264z" />
    <glyph glyph-name="uni044B" unicode="&#x44b;" horiz-adv-x="1714" 
d="M1106 358q0 -164 -103 -261t-286 -97h-574v1059h402v-340h176q180 0 282.5 -99t102.5 -262zM684 360q0 31 -21 48.5t-59 17.5h-59v-133h55q84 0 84 67zM1573 0h-402v1059h402v-1059z" />
    <glyph glyph-name="uni044C" unicode="&#x44c;" horiz-adv-x="1204" 
d="M1137 365q0 -167 -103 -266t-286 -99h-605v1059h402v-330h203q184 0 286.5 -100t102.5 -264zM717 365q0 34 -22 52.5t-60 18.5h-90v-143h88q84 0 84 72z" />
    <glyph glyph-name="uni044D" unicode="&#x44d;" horiz-adv-x="1136" 
d="M496 -37q-254 0 -408 86v354h8q62 -68 146.5 -98.5t206.5 -30.5q101 0 163 30t62 81h-463v305h461q-2 38 -61.5 66t-159.5 28q-96 0 -186 -31.5t-150 -95.5h-9v351q153 88 402 88q256 0 415.5 -153t159.5 -413q0 -257 -162.5 -412t-424.5 -155z" />
    <glyph glyph-name="uni044E" unicode="&#x44e;" horiz-adv-x="1857" 
d="M1202 -37q-223 0 -376 110.5t-197 305.5h-84v-379h-402v1059h402v-336h96q55 174 204 273.5t365 99.5q267 0 431.5 -155.5t164.5 -410.5t-164 -411t-440 -156zM1202 303q85 0 133.5 59t48.5 168q0 103 -46 164.5t-128 61.5q-85 0 -134.5 -59.5t-49.5 -166.5
q0 -104 47 -165.5t129 -61.5z" />
    <glyph glyph-name="uni044F" unicode="&#x44f;" horiz-adv-x="1308" 
d="M1167 0h-401v725h-154q-110 0 -110 -66q0 -48 54.5 -86t199.5 -84v-10l-246 -479h-459l225 389v2q-196 111 -196 330q0 167 109.5 252.5t297.5 85.5h680v-1059z" />
    <glyph glyph-name="uni0450" unicode="&#x450;" horiz-adv-x="1220" 
d="M1100 57q-168 -94 -428 -94q-280 0 -450.5 152.5t-170.5 414.5q0 124 36.5 227.5t105.5 179t176 117.5t241 42q111 0 208.5 -34t172 -97.5t117.5 -163.5t43 -223q0 -68 -6 -129h-672q24 -76 96 -118t189 -42q92 0 181.5 31.5t154.5 85.5h6v-349zM729 737q-11 36 -43.5 58
t-81.5 22q-106 0 -131 -80h256zM807 1165h-338l-264 371h403z" />
    <glyph glyph-name="uni0451" unicode="&#x451;" horiz-adv-x="1220" 
d="M551 1217h-383v319h383v-319zM1051 1217h-383v319h383v-319zM1100 57q-168 -94 -428 -94q-280 0 -450.5 152.5t-170.5 414.5q0 124 36.5 227.5t105.5 179t176 117.5t241 42q111 0 208.5 -34t172 -97.5t117.5 -163.5t43 -223q0 -68 -6 -129h-672q24 -76 96 -118t189 -42
q92 0 181.5 31.5t154.5 85.5h6v-349zM729 737q-11 36 -43.5 58t-81.5 22q-106 0 -131 -80h256z" />
    <glyph glyph-name="uni0452" unicode="&#x452;" horiz-adv-x="1355" 
d="M821 45v547q0 73 -34 112t-93 39q-90 0 -149 -94v-649h-402v1151h-143v315h143v70h402v-70h411v-315h-411v-166h2q127 111 295 111q76 0 143.5 -23t121.5 -67.5t85 -117.5t31 -167v-707q0 -205 -101 -306t-268 -101q-101 0 -223 33v297h6q44 -23 92 -23q92 0 92 131z" />
    <glyph glyph-name="uni0453" unicode="&#x453;" horiz-adv-x="991" 
d="M705 1165h-338l213 371h389zM545 0h-402v1059h805v-344h-403v-715z" />
    <glyph glyph-name="uni0454" unicode="&#x454;" horiz-adv-x="1136" 
d="M641 -37q-263 0 -426.5 155.5t-163.5 411.5q0 260 161 413t417 153q244 0 401 -88v-351h-8q-60 64 -150 95.5t-186 31.5q-100 0 -159.5 -28t-61.5 -66h461v-305h-463q0 -51 62 -81t163 -30q121 0 204.5 30.5t147.5 98.5h9v-354q-154 -86 -408 -86z" />
    <glyph glyph-name="uni0455" unicode="&#x455;" horiz-adv-x="1038" 
d="M946 334q0 -171 -113.5 -271t-340.5 -100q-218 0 -383 74v352h6q59 -55 156 -87t184 -32q58 0 80 10t22 33q0 17 -24.5 29t-63.5 22.5t-86.5 24t-95 39t-86.5 61.5t-63.5 98.5t-24.5 143.5q0 173 110.5 269t319.5 96q211 0 366 -74v-352h-6q-61 55 -149.5 86.5
t-167.5 31.5q-44 0 -61 -10t-17 -30q0 -16 24 -28.5t63 -23t85.5 -24.5t93 -39.5t85.5 -61.5t63 -97t24 -140z" />
    <glyph glyph-name="uni0456" unicode="&#x456;" horiz-adv-x="686" 
d="M545 0h-402v1059h402v-1059zM553 1217h-418v319h418v-319z" />
    <glyph glyph-name="uni0457" unicode="&#x457;" horiz-adv-x="686" 
d="M545 0h-402v1059h402v-1059zM285 1217h-383v319h383v-319zM784 1217h-383v319h383v-319z" />
    <glyph glyph-name="uni0458" unicode="&#x458;" horiz-adv-x="686" 
d="M141 -395q-151 0 -256 51v311h9q63 -53 139 -53q110 0 110 123v1022h402v-1045q0 -208 -106.5 -308.5t-297.5 -100.5zM553 1217h-418v319h418v-319z" />
    <glyph glyph-name="uni0459" unicode="&#x459;" horiz-adv-x="1751" 
d="M1683 356q0 -164 -103.5 -260t-289.5 -96h-569v715h-84l-16 -174q-17 -161 -51.5 -264.5t-101.5 -170t-164.5 -93.5t-246.5 -27v340q48 0 80.5 14.5t52.5 39t32 73.5t17.5 99.5t10.5 135.5l24 371h848v-342h174q182 0 284.5 -98.5t102.5 -262.5zM1262 358q0 64 -80 64
h-60v-129h58q82 0 82 65z" />
    <glyph glyph-name="uni045A" unicode="&#x45a;" horiz-adv-x="1861" 
d="M1794 362q0 -163 -103 -262.5t-286 -99.5h-574v375h-286v-375h-402v1059h402v-340h286v340h402v-334h176q180 0 282.5 -101.5t102.5 -261.5zM1372 362q0 31 -21 50.5t-59 19.5h-59v-139h55q84 0 84 69z" />
    <glyph glyph-name="uni045B" unicode="&#x45b;" horiz-adv-x="1355" 
d="M1223 0h-402v592q0 73 -34 112t-93 39q-90 0 -149 -94v-649h-402v1151h-143v315h143v70h402v-70h411v-315h-411v-166h2q127 111 295 111q76 0 143.5 -23t121.5 -67.5t85 -117.5t31 -167v-721z" />
    <glyph glyph-name="uni045C" unicode="&#x45c;" horiz-adv-x="1335" 
d="M862 1165h-338l213 371h389zM545 0h-402v1059h402v-1059zM1313 0h-467l-291 530v11l274 518h457l-295 -518v-4z" />
    <glyph glyph-name="uni045D" unicode="&#x45d;" horiz-adv-x="1398" 
d="M1255 0h-401v477h-2l-313 -483h-396v1065h402v-479h2l313 485h395v-1065zM911 1165h-338l-264 371h404z" />
    <glyph glyph-name="uni045E" unicode="&#x45e;" horiz-adv-x="1286" 
d="M647 1180q-192 0 -292 95.5t-111 260.5h299q8 -48 34 -78.5t70 -30.5q43 0 70 31t33 78h301q-11 -164 -111.5 -260t-292.5 -96zM735 -395h-454l168 395l-437 1059h461l174 -551h2l170 551h451z" />
    <glyph glyph-name="uni045F" unicode="&#x45f;" horiz-adv-x="1370" 
d="M868 -291h-368v291h-357v1059h402v-715h280v715h402v-1059h-359v-291z" />
    <glyph glyph-name="uni0462" unicode="&#x462;" horiz-adv-x="1564" 
d="M1511 444q0 -216 -147 -330t-401 -114h-555v938h-347v403h347v56h426v-56h428v-389h-428v-78h127q260 0 405 -106.5t145 -323.5zM1090 444q0 76 -121 76h-135v-153h135q121 0 121 77z" />
    <glyph glyph-name="uni0463" unicode="&#x463;" horiz-adv-x="1314" 
d="M1247 340q0 -157 -102 -248.5t-287 -91.5h-579v752h-236v307h236v338h401v-338h254v-293h-254v-92h184q181 0 282 -90.5t101 -243.5zM825 342q0 45 -73 45h-72v-94h68q77 0 77 49z" />
    <glyph glyph-name="uni0472" unicode="&#x472;" horiz-adv-x="1579" 
d="M1509 698q0 -220 -88 -386t-253 -257.5t-384 -91.5q-210 0 -371.5 89.5t-252 257t-90.5 388.5q0 219 88.5 386t254 258.5t384.5 91.5q317 0 514.5 -202t197.5 -534zM784 352q88 0 154.5 42t99.5 124h-497q67 -166 243 -166zM797 1042q-87 0 -152 -40t-100 -117h491
q-71 157 -239 157z" />
    <glyph glyph-name="uni0473" unicode="&#x473;" horiz-adv-x="1302" 
d="M1251 530q0 -255 -164 -411t-440 -156q-268 0 -432 155t-164 412q0 255 164 410.5t440 155.5q267 0 431.5 -155.5t164.5 -410.5zM655 756q-114 0 -161 -101h313q-46 101 -152 101zM647 303q114 0 158 100h-309q46 -100 151 -100z" />
    <glyph glyph-name="uni0474" unicode="&#x474;" horiz-adv-x="1474" 
d="M897 -37h-352l-531 1434h465l250 -811h2l100 342q43 159 86.5 267t106.5 202h449q-83 -120 -133.5 -232.5t-118.5 -300.5z" />
    <glyph glyph-name="uni0475" unicode="&#x475;" horiz-adv-x="1284" 
d="M797 -37h-310l-473 1096h455l174 -527h2l55 201q56 226 117 326h455q-19 -26 -36 -53.5t-30 -49.5t-28.5 -53.5t-24 -49.5t-23.5 -54.5t-21.5 -52t-23 -58t-22.5 -57.5z" />
    <glyph glyph-name="uni0490" unicode="&#x490;" horiz-adv-x="1077" 
d="M588 0h-424v1397h465v272h387v-676h-428v-993z" />
    <glyph glyph-name="uni0491" unicode="&#x491;" horiz-adv-x="991" 
d="M545 0h-402v1059h441v291h364v-635h-403v-715z" />
    <glyph glyph-name="uni0492" unicode="&#x492;" horiz-adv-x="1077" 
d="M588 0h-424v381h-164v405h164v611h852v-404h-428v-207h254v-405h-254v-381z" />
    <glyph glyph-name="uni0493" unicode="&#x493;" horiz-adv-x="991" 
d="M545 0h-402v268h-137v316h137v475h805v-344h-403v-131h215v-316h-215v-268z" />
    <glyph glyph-name="uni0496" unicode="&#x496;" horiz-adv-x="2103" 
d="M520 0h-481l317 713v4l-288 680h469l270 -680v-15zM1243 0h-424v1397h424v-1397zM1862 387h186v-678h-389v291h-117l-285 702v15l269 680h471l-289 -680v-4z" />
    <glyph glyph-name="uni0497" unicode="&#x497;" horiz-adv-x="1939" 
d="M492 0h-469l280 537v4l-254 518h459l231 -518v-11zM1153 0h-401v1059h401v-1059zM1413 0l-250 530v11l234 518h456l-254 -518v-4l109 -193h184v-635h-368v291h-111z" />
    <glyph glyph-name="uni049A" unicode="&#x49a;" horiz-adv-x="1468" 
d="M588 0h-424v1397h424v-1397zM1225 387h188v-678h-389v291h-98l-326 702v15l309 680h471l-327 -680v-4z" />
    <glyph glyph-name="uni049B" unicode="&#x49b;" horiz-adv-x="1372" 
d="M545 0h-402v1059h402v-1059zM1114 344h211v-635h-369v291h-110l-291 530v11l274 518h457l-295 -518v-4z" />
    <glyph glyph-name="uni04A2" unicode="&#x4a2;" horiz-adv-x="1667" 
d="M1423 387h174v-678h-389v291h-209v522h-411v-522h-424v1397h424v-471h411v471h424v-1010z" />
    <glyph glyph-name="uni04A3" unicode="&#x4a3;" horiz-adv-x="1468" 
d="M1417 -291h-368v291h-203v375h-301v-375h-402v1059h402v-340h301v340h401v-715h170v-635z" />
    <glyph glyph-name="uni04AE" unicode="&#x4ae;" horiz-adv-x="1421" 
d="M924 0h-422v506l-490 891h504l189 -412h2l213 412h489l-485 -891v-506z" />
    <glyph glyph-name="uni04AF" unicode="&#x4af;" horiz-adv-x="1284" 
d="M442 -395v395l-430 1059h457l174 -582h2l170 582h455l-426 -1059v-395h-402z" />
    <glyph glyph-name="uni04B0" unicode="&#x4b0;" horiz-adv-x="1456" 
d="M942 0h-424v324h-215v333h133l-407 740h503l191 -412h2l211 412h491l-403 -740h133v-333h-215v-324z" />
    <glyph glyph-name="uni04B1" unicode="&#x4b1;" horiz-adv-x="1284" 
d="M842 -395h-402v139h-250v344h216l-392 971h455l174 -588h2l170 588h457l-395 -971h217v-344h-252v-139z" />
    <glyph glyph-name="uni04B2" unicode="&#x4b2;" horiz-adv-x="1554" 
d="M1257 387h242v-678h-387v291h-133l-213 389h-2l-193 -389h-493l379 709l-410 688h502l209 -387h2l194 387h494l-379 -688z" />
    <glyph glyph-name="uni04B3" unicode="&#x4b3;" horiz-adv-x="1345" 
d="M1055 344h245v-635h-370v291h-127l-160 285h-2l-145 -285h-457l313 539l-338 520h465l160 -285h2l145 285h457l-313 -524z" />
    <glyph glyph-name="uni04B6" unicode="&#x4b6;" horiz-adv-x="1503" 
d="M1434 -291h-387v291h-207v322q-149 12 -258.5 33t-195 56.5t-141 82.5t-91 115t-50 151.5t-14.5 195.5v441h422v-412q0 -42 2 -70t9.5 -58.5t21.5 -49.5t38 -38t59 -30t84 -19.5t114 -12.5v690h420v-1008h174v-680z" />
    <glyph glyph-name="uni04B7" unicode="&#x4b7;" horiz-adv-x="1355" 
d="M1135 344h170v-635h-371v291h-201v217q-335 22 -481 130t-146 341v371h416v-299q0 -50 6 -78t27 -52.5t63.5 -36.5t114.5 -18v484h402v-715z" />
    <glyph glyph-name="uni04BA" unicode="&#x4ba;" horiz-adv-x="1400" 
d="M1329 0h-424l2 426q0 162 -178 162h-141v-588h-424v1397h424v-441h207q255 0 394.5 -115.5t139.5 -359.5v-481z" />
    <glyph glyph-name="uni04BB" unicode="&#x4bb;" horiz-adv-x="1355" 
d="M1223 0h-402v592q0 73 -34 112t-93 39q-90 0 -149 -94v-649h-402v1536h402v-551h2q127 111 295 111q76 0 143.5 -23t121.5 -67.5t85 -117.5t31 -167v-721z" />
    <glyph glyph-name="uni04C0" unicode="&#x4c0;" horiz-adv-x="751" 
d="M588 0h-424v1397h424v-1397z" />
    <glyph glyph-name="uni04D8" unicode="&#x4d8;" horiz-adv-x="1583" 
d="M150 1311q104 59 248.5 91t303.5 32q240 0 422 -87.5t283.5 -255t101.5 -393.5q0 -217 -81.5 -381.5t-246.5 -259t-395 -94.5q-144 0 -270.5 44.5t-223 128t-152.5 214.5t-56 293q0 94 8 162h875q-31 108 -126 166.5t-249 58.5q-120 0 -235.5 -41.5t-198.5 -114.5h-8v437
zM625 436q15 -54 59 -85.5t111 -31.5q64 0 109.5 30.5t62.5 86.5h-342z" />
    <glyph glyph-name="uni04D9" unicode="&#x4d9;" horiz-adv-x="1220" 
d="M117 1001q170 95 428 95q281 0 450.5 -152t169.5 -414q0 -256 -146 -411.5t-411 -155.5q-112 0 -209.5 34t-172 97.5t-117.5 163.5t-43 223q0 74 8 129h669q-24 76 -95.5 118t-188.5 42q-93 0 -182.5 -31t-151.5 -86h-8v348zM487 322q11 -36 44 -58t83 -22q104 0 131 80
h-258z" />
    <glyph glyph-name="uni04E2" unicode="&#x4e2;" horiz-adv-x="1587" 
d="M1184 1425h-776v267h776v-267zM1423 0h-424v690h-2l-415 -696h-418v1403h424v-690h2l416 696h417v-1403z" />
    <glyph glyph-name="uni04E3" unicode="&#x4e3;" horiz-adv-x="1398" 
d="M1255 0h-401v477h-2l-313 -483h-396v1065h402v-479h2l313 485h395v-1065zM1108 1233h-817v297h817v-297z" />
    <glyph glyph-name="uni04E8" unicode="&#x4e8;" horiz-adv-x="1579" 
d="M1509 698q0 -220 -88 -386t-253 -257.5t-384 -91.5q-210 0 -371.5 89.5t-252 257t-90.5 388.5q0 219 88.5 386t254 258.5t384.5 91.5q317 0 514.5 -202t197.5 -534zM784 352q88 0 154.5 42t99.5 124h-497q67 -166 243 -166zM797 1042q-87 0 -152 -40t-100 -117h491
q-71 157 -239 157z" />
    <glyph glyph-name="uni04E9" unicode="&#x4e9;" horiz-adv-x="1302" 
d="M1251 530q0 -255 -164 -411t-440 -156q-268 0 -432 155t-164 412q0 255 164 410.5t440 155.5q267 0 431.5 -155.5t164.5 -410.5zM655 756q-114 0 -161 -101h313q-46 101 -152 101zM647 303q114 0 158 100h-309q46 -100 151 -100z" />
    <glyph glyph-name="uni04EE" unicode="&#x4ee;" horiz-adv-x="1452" 
d="M1128 1425h-776v267h776v-267zM809 0h-455l170 369l-510 1028h492l235 -547h2l250 547h445z" />
    <glyph glyph-name="uni04EF" unicode="&#x4ef;" horiz-adv-x="1286" 
d="M1057 1233h-817v297h817v-297zM735 -395h-454l168 395l-437 1059h461l174 -551h2l170 551h451z" />
    <glyph glyph-name="Wgrave" unicode="&#x1e80;" horiz-adv-x="2117" 
d="M1614 -37h-352l-201 574h-2l-203 -574h-350l-488 1434h461l230 -772h2l145 516l-76 256h72l-209 241h406l141 -241h22l222 -772h2l219 772h444z" />
    <glyph glyph-name="wgrave" unicode="&#x1e81;" horiz-adv-x="1863" 
d="M1421 -37h-276l-209 356h-2l-215 -356h-277l-426 1096h451l149 -447h2l297 484h37l293 -484h2l150 447h450zM1104 1165h-338l-264 371h403z" />
    <glyph glyph-name="Wacute" unicode="&#x1e82;" horiz-adv-x="2117" 
d="M1614 -37h-352l-201 574h-2l-203 -574h-350l-488 1434h461l230 -772h2l145 516l-76 256h66l141 241h406l-209 -241h28l222 -772h2l219 772h444z" />
    <glyph glyph-name="wacute" unicode="&#x1e83;" horiz-adv-x="1863" 
d="M1094 1165h-338l213 371h389zM1421 -37h-276l-209 356h-2l-215 -356h-277l-426 1096h451l149 -447h2l297 484h37l293 -484h2l150 447h450z" />
    <glyph glyph-name="Wdieresis" unicode="&#x1e84;" horiz-adv-x="2117" 
d="M981 1419h-383v273h383v-273zM1481 1419h-383v273h383v-273zM1614 -37h-352l-201 574h-2l-203 -574h-350l-488 1434h461l230 -772h2l145 516l-76 256h432l222 -772h2l219 772h444z" />
    <glyph glyph-name="wdieresis" unicode="&#x1e85;" horiz-adv-x="1863" 
d="M872 1217h-383v319h383v-319zM1372 1217h-383v319h383v-319zM1421 -37h-276l-209 356h-2l-215 -356h-277l-426 1096h451l149 -447h2l297 484h37l293 -484h2l150 447h450z" />
    <glyph glyph-name="Ygrave" unicode="&#x1ef2;" horiz-adv-x="1421" 
d="M924 0h-422v506l-490 891h504l189 -412h2l213 412h489l-485 -891v-506zM887 1397h-338l-209 241h405z" />
    <glyph glyph-name="ygrave" unicode="&#x1ef3;" horiz-adv-x="1286" 
d="M735 -395h-454l168 395l-437 1059h461l174 -551h2l170 551h451zM801 1165h-338l-264 371h403z" />
    <glyph glyph-name="endash" unicode="&#x2013;" 
d="M1208 389h-1188v330h1188v-330z" />
    <glyph glyph-name="emdash" unicode="&#x2014;" horiz-adv-x="2457" 
d="M2437 389h-2417v330h2417v-330z" />
    <glyph glyph-name="quoteleft" unicode="&#x2018;" horiz-adv-x="614" 
d="M391 727h-371v10l173 660h368z" />
    <glyph glyph-name="quoteright" unicode="&#x2019;" horiz-adv-x="614" 
d="M422 727h-367l168 670h373v-11z" />
    <glyph glyph-name="quotesinglbase" unicode="&#x201a;" horiz-adv-x="614" 
d="M340 -283h-367l168 670h373v-10z" />
    <glyph glyph-name="quotedblleft" unicode="&#x201c;" horiz-adv-x="1075" 
d="M418 727h-371v10l172 660h369zM893 727h-371v10l172 660h369z" />
    <glyph glyph-name="quotedblright" unicode="&#x201d;" horiz-adv-x="1075" 
d="M414 727h-367l168 670h373v-11zM889 727h-367l168 670h373v-11z" />
    <glyph glyph-name="quotedblbase" unicode="&#x201e;" horiz-adv-x="1075" 
d="M367 -283h-367l168 670h373v-10zM842 -283h-367l168 670h373v-10z" />
    <glyph glyph-name="dagger" unicode="&#x2020;" horiz-adv-x="1198" 
d="M782 0h-366v817h-264v326h264v254h366v-254h265v-326h-265v-817z" />
    <glyph glyph-name="daggerdbl" unicode="&#x2021;" horiz-adv-x="1198" 
d="M782 0h-366v254h-264v326h264v237h-264v326h264v254h366v-254h265v-326h-265v-237h265v-326h-265v-254z" />
    <glyph glyph-name="bullet" unicode="&#x2022;" horiz-adv-x="897" 
d="M795 203h-693v710h693v-710z" />
    <glyph glyph-name="ellipsis" unicode="&#x2026;" horiz-adv-x="2048" 
d="M571 0h-395v387h395v-387zM1221 0h-396v387h396v-387zM1870 0h-395v387h395v-387z" />
    <glyph glyph-name="perthousand" unicode="&#x2030;" horiz-adv-x="2748" 
d="M772 944q0 -124 -30.5 -218.5t-83.5 -150t-119.5 -83t-145.5 -27.5q-78 0 -144 27.5t-119.5 83t-83.5 150t-30 218.5q0 125 30 219t83.5 149t119.5 82t144 27q79 0 145.5 -27t120 -82t83.5 -149t30 -219zM477 944q0 89 -11.5 138.5t-28 64t-42.5 14.5q-28 0 -45 -14.5
t-28 -64t-11 -138.5q0 -122 20 -171.5t62 -49.5q43 0 63.5 49t20.5 172zM1942 455q0 -124 -30.5 -218.5t-83.5 -150.5t-119.5 -83.5t-145.5 -27.5q-78 0 -144 27.5t-119.5 83.5t-83.5 150.5t-30 218.5q0 125 30 219t83.5 149t119.5 82t144 27q79 0 145.5 -27t120 -82
t83.5 -149t30 -219zM1647 455q0 89 -11.5 138.5t-28 64t-42.5 14.5q-28 0 -45 -14.5t-28 -64t-11 -138.5q0 -123 20 -172.5t62 -49.5q43 0 63.5 49.5t20.5 172.5zM2730 455q0 -124 -30.5 -218.5t-83.5 -150.5t-119.5 -83.5t-145.5 -27.5q-78 0 -144 27.5t-119.5 83.5
t-83.5 150.5t-30 218.5q0 125 30 219t83.5 149t119.5 82t144 27q79 0 145.5 -27t120 -82t83.5 -149t30 -219zM2435 455q0 89 -11.5 138.5t-28 64t-42.5 14.5q-28 0 -45 -14.5t-28 -64t-11 -138.5q0 -123 20 -172.5t62 -49.5q43 0 63.5 49.5t20.5 172.5zM838 0h-340l624 1397
h340z" />
    <glyph glyph-name="guilsinglleft" unicode="&#x2039;" horiz-adv-x="688" 
d="M637 158h-367l-219 391v12l219 391h367l-207 -397z" />
    <glyph glyph-name="guilsinglright" unicode="&#x203a;" horiz-adv-x="688" 
d="M418 158h-367l207 397l-207 397h367l219 -391v-12z" />
    <glyph glyph-name="fraction" unicode="&#x2044;" horiz-adv-x="428" 
d="M72 0h-340l624 1397h340z" />
    <glyph glyph-name="zerosuperior" unicode="&#x2070;" horiz-adv-x="788" 
d="M772 1059q0 -124 -30.5 -218.5t-83.5 -150t-119.5 -83t-145.5 -27.5q-78 0 -144 27.5t-119.5 83t-83.5 150t-30 218.5q0 125 30 219t83.5 149t119.5 82t144 27q79 0 145.5 -27t120 -82t83.5 -149t30 -219zM477 1059q0 89 -11.5 138.5t-28 64t-42.5 14.5q-28 0 -45 -14.5
t-28 -64t-11 -138.5q0 -122 20 -171.5t62 -49.5q43 0 63.5 49t20.5 172z" />
    <glyph glyph-name="foursuperior" unicode="&#x2074;" horiz-adv-x="788" 
d="M756 793h-92v-189h-289v189h-330v225l375 518h244v-522h92v-221zM383 1014v127h-2l-84 -125v-2h86z" />
    <glyph glyph-name="fivesuperior" unicode="&#x2075;" horiz-adv-x="788" 
d="M723 903q0 -152 -96 -237.5t-258 -85.5q-152 0 -275 65v266h6q42 -38 106 -63t124 -25q45 0 71.5 20t26.5 56q0 80 -147 80q-86 0 -170 -25h-5l87 557h499v-245h-297l-12 -64q20 4 31 4q134 0 221.5 -80.5t87.5 -222.5z" />
    <glyph glyph-name="sixsuperior" unicode="&#x2076;" horiz-adv-x="788" 
d="M760 891q0 -147 -100 -229t-267 -82q-165 0 -264.5 82t-99.5 229q0 102 51 186l268 434h346v-2l-200 -315v-2q57 -9 79 -18q86 -32 136.5 -105.5t50.5 -177.5zM465 891q0 84 -66 84q-75 0 -75 -84q0 -37 16.5 -59.5t48.5 -22.5q76 0 76 82z" />
    <glyph glyph-name="sevensuperior" unicode="&#x2077;" horiz-adv-x="788" 
d="M412 606h-316v2l287 635v2h-342v268h752v-18z" />
    <glyph glyph-name="eightsuperior" unicode="&#x2078;" horiz-adv-x="788" 
d="M758 866q0 -135 -99 -210.5t-268 -75.5q-166 0 -264 75.5t-98 210.5q0 154 127 224v2q-90 69 -90 188q0 120 88 188t237 68q154 0 243 -67.5t89 -188.5q0 -118 -92 -188q127 -73 127 -226zM463 885q0 32 -19 52.5t-53 20.5t-51.5 -20.5t-17.5 -52.5q0 -34 17.5 -55
t51.5 -21t53 21.5t19 54.5zM457 1243q0 27 -17.5 45.5t-48.5 18.5q-29 0 -45 -18t-16 -46q0 -29 15.5 -47t45.5 -18q31 0 48.5 18t17.5 47z" />
    <glyph glyph-name="ninesuperior" unicode="&#x2079;" horiz-adv-x="788" 
d="M442 604h-346v2l201 316v4q-35 3 -80 16q-86 32 -137 105.5t-51 175.5q0 149 100 231t268 82q165 0 264 -82t99 -231q0 -105 -70 -219zM467 1223q0 39 -18 61.5t-52 22.5q-71 0 -71 -84q0 -82 69 -82q72 0 72 82z" />
    <glyph glyph-name="plussuperior" unicode="&#x207a;" horiz-adv-x="788" 
d="M498 672h-209v223h-226v207h226v225h207v-225h227v-207h-225v-223z" />
    <glyph glyph-name="minussuperior" unicode="&#x207b;" horiz-adv-x="788" 
d="M723 895h-660v207h660v-207z" />
    <glyph glyph-name="equalsuperior" unicode="&#x207c;" horiz-adv-x="788" 
d="M723 739h-660v203h660v-203zM723 1057h-660v207h660v-207z" />
    <glyph glyph-name="parenleftsuperior" unicode="&#x207d;" horiz-adv-x="534" 
d="M535 422h-271q-95 112 -148 256t-53 303q0 160 52.5 304.5t148.5 256.5h271q-96 -113 -149.5 -257.5t-53.5 -303.5q0 -158 53.5 -302t149.5 -257z" />
    <glyph glyph-name="parenrightsuperior" unicode="&#x207e;" horiz-adv-x="534" 
d="M270 422h-268q95 113 148 257t53 302q0 159 -53 303.5t-148 257.5h268q96 -112 148.5 -256t52.5 -305q0 -160 -52.5 -304t-148.5 -255z" />
    <glyph glyph-name="zeroinferior" unicode="&#x2080;" horiz-adv-x="788" 
d="M772 260q0 -124 -30.5 -218.5t-83.5 -150t-119.5 -83t-145.5 -27.5q-78 0 -144 27.5t-119.5 83t-83.5 150t-30 218.5q0 125 30 219t83.5 149t119.5 82t144 27q79 0 145.5 -27t120 -82t83.5 -149t30 -219zM477 260q0 89 -11.5 138.5t-28 64t-42.5 14.5q-28 0 -45 -14.5
t-28 -64t-11 -138.5q0 -122 20 -171.5t62 -49.5q43 0 63.5 49t20.5 172z" />
    <glyph glyph-name="oneinferior" unicode="&#x2081;" horiz-adv-x="788" 
d="M616 -195h-288v601l-215 -39h-4v270l503 100h4v-932z" />
    <glyph glyph-name="twoinferior" unicode="&#x2082;" horiz-adv-x="788" 
d="M758 -195h-695v218q99 75 165 137t95.5 107t39.5 74t10 58q0 44 -25.5 68.5t-68.5 24.5q-89 0 -193 -86h-4v266q130 65 256 65q142 0 237 -77.5t95 -221.5q0 -62 -12 -112.5t-41.5 -98t-60 -84t-85.5 -92.5v-2h287v-244z" />
    <glyph glyph-name="threeinferior" unicode="&#x2083;" horiz-adv-x="788" 
d="M735 39q0 -120 -87.5 -189t-244.5 -69t-297 65v267h7q42 -36 112 -62t123 -26q94 0 94 57q0 51 -82 51h-151v246h135q39 20 39 55q0 27 -21.5 42.5t-60.5 15.5q-93 0 -184 -84h-4v266q123 63 258 63q140 0 226.5 -68t86.5 -184q0 -143 -131 -211q90 -20 136 -81t46 -154z
" />
    <glyph glyph-name="fourinferior" unicode="&#x2084;" horiz-adv-x="788" 
d="M756 -6h-92v-189h-289v189h-330v225l375 518h244v-522h92v-221zM383 215v127h-2l-84 -125v-2h86z" />
    <glyph glyph-name="fiveinferior" unicode="&#x2085;" horiz-adv-x="788" 
d="M723 104q0 -152 -96 -237.5t-258 -85.5q-152 0 -275 65v267h6q42 -38 106 -63t124 -25q45 0 71.5 19.5t26.5 55.5q0 80 -147 80q-89 0 -170 -24h-5l87 557h499v-246h-297l-12 -64q25 5 31 5q134 0 221.5 -81t87.5 -223z" />
    <glyph glyph-name="sixinferior" unicode="&#x2086;" horiz-adv-x="788" 
d="M760 92q0 -147 -100 -229t-267 -82q-165 0 -264.5 82t-99.5 229q0 103 51 187l268 434h346v-2l-200 -316v-2q57 -9 79 -18q86 -32 136.5 -105.5t50.5 -177.5zM465 92q0 84 -66 84q-75 0 -75 -84q0 -37 16.5 -59.5t48.5 -22.5q76 0 76 82z" />
    <glyph glyph-name="seveninferior" unicode="&#x2087;" horiz-adv-x="788" 
d="M412 -193h-316v3l287 634v2h-342v269h752v-19z" />
    <glyph glyph-name="eightinferior" unicode="&#x2088;" horiz-adv-x="788" 
d="M758 68q0 -135 -99 -211t-268 -76q-166 0 -264 76t-98 211q0 153 127 223v2q-90 69 -90 188q0 120 88 188t237 68q154 0 243 -67.5t89 -188.5q0 -118 -92 -188q127 -73 127 -225zM463 86q0 32 -19 53t-53 21t-51.5 -20.5t-17.5 -53.5q0 -34 17.5 -55t51.5 -21t53 21.5
t19 54.5zM457 444q0 27 -17.5 45.5t-48.5 18.5q-29 0 -45 -18t-16 -46q0 -29 15.5 -47t45.5 -18q31 0 48.5 18t17.5 47z" />
    <glyph glyph-name="nineinferior" unicode="&#x2089;" horiz-adv-x="788" 
d="M442 -195h-346v2l201 316v4q-35 3 -80 16q-86 32 -137 105.5t-51 175.5q0 149 100 231t268 82q165 0 264 -82t99 -231q0 -105 -70 -219zM467 424q0 39 -18 61.5t-52 22.5q-71 0 -71 -84q0 -82 69 -82q72 0 72 82z" />
    <glyph glyph-name="parenleftinferior" unicode="&#x208d;" horiz-adv-x="534" 
d="M535 -377h-271q-95 112 -148 256t-53 303q0 160 52.5 304.5t148.5 256.5h271q-96 -113 -149.5 -257.5t-53.5 -303.5q0 -158 53.5 -302t149.5 -257z" />
    <glyph glyph-name="parenrightinferior" unicode="&#x208e;" horiz-adv-x="534" 
d="M270 -377h-268q95 113 148 257t53 302q0 159 -53 303.5t-148 257.5h268q96 -112 148.5 -256t52.5 -305q0 -160 -52.5 -304t-148.5 -255z" />
    <glyph glyph-name="Euro" unicode="&#x20ac;" horiz-adv-x="1165" 
d="M1094 57q-69 -42 -161.5 -68t-180.5 -26q-90 0 -168.5 23t-150.5 73t-126.5 141t-81.5 216h-149v254h123v63h-123v254h151q53 227 189.5 337t328.5 110q199 0 342 -95v-344h-8q-105 101 -239 101q-146 0 -199 -109h346v-254h-389v-63h389v-254h-346q55 -115 199 -115
q139 0 245 100h9v-344z" />
    <glyph glyph-name="litre" unicode="&#x2113;" horiz-adv-x="1198" 
d="M1143 57q-177 -94 -430 -94q-315 0 -473 242q-106 -37 -197 -51v335l84 19q-18 108 -18 223q0 329 145 516t418 187q221 0 349 -121t128 -320q0 -412 -485 -612q65 -59 172 -59q75 0 158 32.5t141 85.5h8v-383zM549 850q0 -113 4 -166q104 61 154.5 137.5t50.5 186.5
q0 172 -88 172q-121 0 -121 -330z" />
    <glyph glyph-name="numero" unicode="&#x2116;" horiz-adv-x="2461" 
d="M2363 207h-661v260h661v-260zM2136 950q0 54 -26 88.5t-72 34.5q-50 0 -78.5 -32t-28.5 -91q0 -55 26.5 -90t72.5 -35q50 0 78 32t28 93zM2431 950q0 -166 -108 -268t-293 -102q-176 0 -285 101.5t-109 268.5q0 165 108.5 267t293.5 102q175 0 284 -102t109 -267z
M1440 -6h-350l-500 633h-2v-627h-424v1268l-80 114v15h428l504 -654h2v654h422v-1403z" />
    <glyph glyph-name="published" unicode="&#x2117;" horiz-adv-x="1626" 
d="M815 301h-276v789h356q131 0 211 -69t80 -194q0 -147 -93.5 -220t-277.5 -103v-203zM815 743q44 0 69 15.5t25 42.5q0 45 -61 45h-33v-103zM807 -37q-216 0 -383 89.5t-260.5 257t-93.5 388.5q0 333 204 534.5t547 201.5q215 0 381.5 -90.5t260 -258t93.5 -387.5
q0 -332 -203.5 -533.5t-545.5 -201.5zM801 156q115 0 211 34t167.5 100t111.5 171t40 239q0 250 -137 395.5t-367 145.5q-115 0 -210.5 -33.5t-168 -99t-113 -170t-40.5 -238.5q0 -252 137 -398t369 -146z" />
    <glyph glyph-name="published" unicode="&#xe039;" horiz-adv-x="1626" 
d="M815 301h-276v789h356q131 0 211 -69t80 -194q0 -147 -93.5 -220t-277.5 -103v-203zM815 743q44 0 69 15.5t25 42.5q0 45 -61 45h-33v-103zM807 -37q-216 0 -383 89.5t-260.5 257t-93.5 388.5q0 333 204 534.5t547 201.5q215 0 381.5 -90.5t260 -258t93.5 -387.5
q0 -332 -203.5 -533.5t-545.5 -201.5zM801 156q115 0 211 34t167.5 100t111.5 171t40 239q0 250 -137 395.5t-367 145.5q-115 0 -210.5 -33.5t-168 -99t-113 -170t-40.5 -238.5q0 -252 137 -398t369 -146z" />
    <glyph glyph-name="trademark" unicode="&#x2122;" horiz-adv-x="1781" 
d="M498 608h-275v525h-186v264h651v-264h-190v-525zM1718 608h-276l-21 248h-2l-162 -268h-20l-162 268h-2l-20 -248h-279l70 789h229l174 -316h2l170 316h232z" />
    <glyph glyph-name="Omega" unicode="&#x2126;" horiz-adv-x="1622" 
d="M1528 0h-641v330q89 95 129.5 184t40.5 221q0 144 -62.5 225.5t-183.5 81.5t-183.5 -81.5t-62.5 -225.5q0 -132 40.5 -221t129.5 -184v-330h-641v367h213v2q-96 107 -139 212t-43 265q0 263 186.5 425.5t499.5 162.5t500.5 -162.5t187.5 -425.5q0 -160 -44 -264.5
t-140 -212.5v-2h213v-367z" />
    <glyph glyph-name="estimated" unicode="&#x212e;" horiz-adv-x="1703" 
d="M1212 414h322q-96 -217 -279 -334t-399 -117q-214 0 -381.5 91.5t-261.5 259t-94 384.5q0 163 54.5 301t151 233t232.5 148.5t295 53.5q331 0 523.5 -220.5t195.5 -609.5h-1026v-256q114 -129 307 -129q229 0 360 195zM856 1178q-195 0 -311 -129v-203h596v211
q-111 121 -285 121z" />
    <glyph glyph-name="arrowleft" unicode="&#x2190;" horiz-adv-x="1628" 
d="M707 104l-557 582v12l557 582h475l-385 -385h682v-406h-682l385 -385h-475z" />
    <glyph glyph-name="arrowup" unicode="&#x2191;" horiz-adv-x="1628" 
d="M1401 797v-473l-385 385v-684h-406v684l-385 -385v473l582 557h12z" />
    <glyph glyph-name="arrowright" unicode="&#x2192;" horiz-adv-x="1628" 
d="M922 104h-476l385 385h-681v406h681l-385 385h476l557 -582v-12z" />
    <glyph glyph-name="arrowdown" unicode="&#x2193;" horiz-adv-x="1628" 
d="M1401 584l-582 -559h-12l-582 559v473l385 -385v682h406v-682l385 385v-473z" />
    <glyph glyph-name="arrowupleft" unicode="&#x2196;" horiz-adv-x="1628" 
d="M604 53l-334 336l17 807l8 10l807 15l334 -336l-545 2l483 -484l-287 -286l-483 481v-545z" />
    <glyph glyph-name="arrowupright" unicode="&#x2197;" horiz-adv-x="1628" 
d="M1358 389l-334 -336v545l-483 -481l-287 286l483 484l-544 -2l333 336l807 -15l8 -10z" />
    <glyph glyph-name="arrowdownright" unicode="&#x2198;" horiz-adv-x="1628" 
d="M1024 1350l334 -336l-17 -805l-8 -10l-807 -17l-333 336l544 -2l-483 485l287 285l483 -481v545z" />
    <glyph glyph-name="arrowdownleft" unicode="&#x2199;" horiz-adv-x="1628" 
d="M270 1014l334 336v-545l483 481l287 -285l-483 -485l545 2l-334 -336l-807 17l-8 10z" />
    <glyph glyph-name="arrowtailleft" unicode="&#x21a2;" horiz-adv-x="1628" 
d="M901 1350v-455h578v-406h-578v-454h-16l-735 651v12l735 652h16z" />
    <glyph glyph-name="arrowtailright" unicode="&#x21a3;" horiz-adv-x="1628" 
d="M743 35h-16v454h-577v406h577v455h16l736 -652v-12z" />
    <glyph glyph-name="partialdiff" unicode="&#x2202;" horiz-adv-x="1230" 
d="M70 438q0 167 88 281.5t231 152.5q60 16 113 19v4l-318 498v4h494l418 -674q43 -71 61.5 -136.5t18.5 -148.5q0 -224 -150.5 -349.5t-402.5 -125.5q-250 0 -401.5 125t-151.5 350zM492 438q0 -72 36.5 -109.5t100.5 -37.5q62 0 94.5 40t32.5 107q0 74 -36 111t-102 37
q-61 0 -93.5 -40t-32.5 -108z" />
    <glyph glyph-name="Delta" unicode="&#x2206;" horiz-adv-x="1482" 
d="M1468 0h-1454l535 1434h385zM897 375l-164 528h-2l-164 -528h330z" />
    <glyph glyph-name="product" unicode="&#x220f;" horiz-adv-x="1587" 
d="M1423 -395h-424v1370h-411v-1370h-424v1792h1259v-1792z" />
    <glyph glyph-name="summation" unicode="&#x2211;" horiz-adv-x="1351" 
d="M1266 -395h-1215v24l512 883v2l-475 858v25h1135v-422h-371v-2l240 -449v-24l-277 -469v-2h451v-424z" />
    <glyph glyph-name="minus" unicode="&#x2212;" 
d="M1106 446h-985v293h985v-293z" />
    <glyph glyph-name="radical" unicode="&#x221a;" horiz-adv-x="1495" 
d="M1049 0h-613l-209 842h-194v305h551l170 -791h16l252 1041h432z" />
    <glyph glyph-name="infinity" unicode="&#x221e;" horiz-adv-x="1564" 
d="M1530 602q0 -203 -103.5 -322.5t-252.5 -119.5q-106 0 -206 61t-175 182h-5q-149 -241 -378 -241q-128 0 -214 59.5t-123.5 156t-37.5 224.5q0 86 24.5 163.5t70.5 137.5t118.5 95.5t161.5 35.5q119 0 206 -64t160 -177h2q43 60 75 97t76.5 73.5t97.5 53.5t118 17
q125 0 213.5 -58.5t130 -154.5t41.5 -219zM1241 598q0 59 -29 94t-84 35q-47 0 -80.5 -35.5t-66.5 -97.5q65 -133 145 -133q57 0 86 37.5t29 99.5zM432 461q95 0 160 137q-34 64 -72 98.5t-88 34.5q-49 0 -77.5 -40.5t-28.5 -92.5q0 -57 27.5 -97t78.5 -40z" />
    <glyph glyph-name="integral" unicode="&#x222b;" horiz-adv-x="745" 
d="M164 -395q-150 0 -256 53v301h8q57 -51 137 -51q111 0 111 129v1108q0 194 109 299.5t302 105.5q155 0 263 -51v-342h-9q-66 57 -153 57q-54 0 -82.5 -28.5t-28.5 -75.5v-1098q0 -207 -105.5 -307t-295.5 -100z" />
    <glyph glyph-name="approxequal" unicode="&#x2248;" 
d="M1077 748q-112 -107 -243 -107q-52 0 -114 20t-110 44.5t-107 44.5t-106 20q-133 0 -247 -127v307q108 105 243 105q53 0 115.5 -20t110.5 -43.5t106.5 -43.5t103.5 -20q136 0 248 129v-309zM1077 272q-103 -106 -243 -106q-52 0 -114 19.5t-110 43t-107 43t-106 19.5
q-133 0 -247 -127v309q108 105 243 105q53 0 115.5 -19.5t110.5 -43t106.5 -43t103.5 -19.5q138 0 248 127v-308z" />
    <glyph glyph-name="notequal" unicode="&#x2260;" 
d="M1106 215h-477l-66 -149h-270l63 149h-235v287h360l80 186h-440v291h567l74 174h268l-72 -174h148v-291h-272l-82 -186h354v-287z" />
    <glyph glyph-name="lessequal" unicode="&#x2264;" 
d="M1106 90h-985v293h985v-293zM1106 426l-985 238v299l985 237v-297l-586 -86v-4l586 -88v-299z" />
    <glyph glyph-name="greaterequal" unicode="&#x2265;" 
d="M1106 664l-985 -238v299l586 88v4l-586 86v297l985 -237v-299zM1106 90h-985v293h985v-293z" />
    <glyph glyph-name="blacksquare" unicode="&#x25a0;" horiz-adv-x="1628" 
d="M1513 0h-1398v1397h1398v-1397z" />
    <glyph glyph-name="whitesquare" unicode="&#x25a1;" horiz-adv-x="1628" 
d="M1513 0h-1398v1397h1398v-1397zM307 193h1014v1011h-1014v-1011z" />
    <glyph glyph-name="lozenge" unicode="&#x25ca;" 
d="M1163 600l-551 -625l-551 625l551 625zM821 600l-209 244l-209 -244l209 -244z" />
    <glyph glyph-name="whitecircle" unicode="&#x25cb;" horiz-adv-x="1628" 
d="M1591 698q0 -158 -61.5 -301t-165.5 -247t-248.5 -165t-302.5 -61t-301 61t-247 164.5t-165 246.5t-61 300q0 158 61.5 301t165 247t247.5 165t302 61t301.5 -61t247.5 -164.5t165.5 -246.5t61.5 -300zM1399 698q0 156 -79 290t-213.5 213t-291.5 79q-118 0 -227 -46.5
t-187.5 -125.5t-125 -186.5t-46.5 -225.5q0 -156 79 -290t213.5 -212.5t291.5 -78.5q119 0 227.5 46.5t187 125t125 186.5t46.5 225z" />
    <glyph glyph-name="blackcircle" unicode="&#x25cf;" horiz-adv-x="1628" 
d="M1591 698q0 -158 -61.5 -301t-165.5 -247t-248.5 -165t-302.5 -61t-301 61t-247 164.5t-165 246.5t-61 300q0 158 61.5 301t165 247t247.5 165t302 61t301.5 -61t247.5 -164.5t165.5 -246.5t61.5 -300z" />
    <glyph glyph-name="ballotboxwithx" unicode="&#x2612;" horiz-adv-x="1628" 
d="M1513 0h-1398v1397h1398v-1397zM1321 193v1011h-1014v-1011h1014zM1274 453l-209 -211l-248 247l-254 -249l-207 204l252 254l-250 248l211 211l248 -250l254 252l209 -207l-254 -254z" />
    <glyph glyph-name="pointingindexleftwhite" unicode="&#x261c;" horiz-adv-x="2252" 
d="M31 950q0 67 44.5 98t137.5 31h340q-46 51 -29 170h379q72 0 137 -30t113 -75t90 -90.5t86.5 -83.5t85.5 -48l19 110h665q45 -195 44 -414.5t-46 -427.5q-96 0 -245 -40.5t-226 -40.5q-53 0 -96.5 23.5t-70 61.5t-41.5 80t-19 84q-78 -2 -230 -30.5t-272 -28.5h-59
q-170 0 -170 135q0 13 8 41q-57 7 -90 42.5t-33 86.5q0 15 4 43q-52 7 -85.5 38.5t-33.5 90.5q0 7 2.5 22.5t3.5 20.5h-231q-93 0 -137.5 31.5t-44.5 99.5zM1698 260q40 0 134 25.5t150 31.5q28 167 25.5 304t-25.5 256h-397q16 -57 18 -150.5t-4 -196.5t-6 -110
q0 -88 25.5 -124t79.5 -36zM1911 451q0 -53 -36.5 -89t-90.5 -36q-52 0 -88.5 36t-36.5 89q0 54 36 90.5t89 36.5q54 0 90.5 -36.5t36.5 -90.5z" />
    <glyph glyph-name="pointingindexrightwhite" unicode="&#x261e;" horiz-adv-x="2252" 
d="M2224 950q0 -68 -45.5 -99.5t-138.5 -31.5h-232q1 -6 4 -21t3 -22q0 -59 -33.5 -90.5t-85.5 -38.5q6 -21 6 -43q0 -51 -34 -86.5t-91 -42.5q8 -28 8 -41q0 -135 -170 -135h-57q-122 0 -273.5 28.5t-228.5 30.5q-5 -43 -20.5 -84.5t-42 -79.5t-70 -61.5t-96.5 -23.5
q-77 0 -226 40.5t-245 40.5q-45 208 -46 427.5t44 414.5h665l19 -110q41 10 85.5 48t86.5 83.5t90 90.5t113 75t137 30h379q17 -119 -29 -170h340q93 0 138.5 -31t45.5 -98zM555 260q54 0 79 36t25 124q0 6 -6 109.5t-3.5 197t18.5 150.5h-398q-23 -119 -25.5 -256
t25.5 -304q56 -6 150.5 -31.5t134.5 -25.5zM342 451q0 54 36.5 90.5t90.5 36.5q53 0 89 -36.5t36 -90.5q0 -53 -36 -89t-89 -36q-54 0 -90.5 36t-36.5 89z" />
    <glyph glyph-name="checkmark" unicode="&#x2713;" horiz-adv-x="1495" 
d="M963 0h-541l-393 852h428l209 -496h16l350 1071h432z" />
    <glyph glyph-name="dingbatnegcircle1" unicode="&#x2776;" horiz-adv-x="1843" 
d="M913 -139q-185 0 -341 59t-266.5 167t-172 265t-61.5 346q0 379 234 608.5t624 229.5q247 0 437 -102.5t296 -293.5t106 -442q0 -379 -233 -608t-623 -229zM905 53q137 0 251.5 40.5t200.5 119t133.5 203t47.5 284.5q0 298 -163 470.5t-435 172.5q-137 0 -251.5 -40
t-201.5 -117.5t-135.5 -202t-48.5 -283.5q0 -300 163 -473.5t439 -173.5zM1094 246h-289v600l-215 -39h-4v270l504 101h4v-932z" />
    <glyph glyph-name="dingbatnegcircle2" unicode="&#x2777;" horiz-adv-x="1843" 
d="M913 -139q-185 0 -341 59t-266.5 167t-172 265t-61.5 346q0 379 234 608.5t624 229.5q247 0 437 -102.5t296 -293.5t106 -442q0 -379 -233 -608t-623 -229zM905 53q137 0 251.5 40.5t200.5 119t133.5 203t47.5 284.5q0 298 -163 470.5t-435 172.5q-137 0 -251.5 -40
t-201.5 -117.5t-135.5 -202t-48.5 -283.5q0 -300 163 -473.5t439 -173.5zM1303 246h-695v217q99 75 165 137t95.5 107t39.5 74.5t10 58.5q0 44 -26 68t-69 24q-88 0 -192 -86h-4v266q132 66 256 66q142 0 236.5 -77.5t94.5 -221.5q0 -118 -45 -197t-153 -190v-3h287v-243z
" />
    <glyph glyph-name="dingbatnegcircle3" unicode="&#x2778;" horiz-adv-x="1843" 
d="M913 -139q-185 0 -341 59t-266.5 167t-172 265t-61.5 346q0 379 234 608.5t624 229.5q247 0 437 -102.5t296 -293.5t106 -442q0 -379 -233 -608t-623 -229zM905 53q137 0 251.5 40.5t200.5 119t133.5 203t47.5 284.5q0 298 -163 470.5t-435 172.5q-137 0 -251.5 -40
t-201.5 -117.5t-135.5 -202t-48.5 -283.5q0 -300 163 -473.5t439 -173.5zM1276 479q0 -120 -87.5 -189t-244.5 -69q-155 0 -297 66v266h6q42 -36 112.5 -62t123.5 -26q94 0 94 57q0 51 -82 51h-151v246h135q39 20 39 55q0 27 -21.5 42.5t-60.5 15.5q-94 0 -185 -84h-4v266
q125 64 258 64q140 0 227 -68t87 -184q0 -143 -131 -211q90 -20 136 -81t46 -155z" />
    <glyph glyph-name="dingbatnegcircle4" unicode="&#x2779;" horiz-adv-x="1843" 
d="M913 -139q-185 0 -341 59t-266.5 167t-172 265t-61.5 346q0 379 234 608.5t624 229.5q247 0 437 -102.5t296 -293.5t106 -442q0 -379 -233 -608t-623 -229zM905 53q137 0 251.5 40.5t200.5 119t133.5 203t47.5 284.5q0 298 -163 470.5t-435 172.5q-137 0 -251.5 -40
t-201.5 -117.5t-135.5 -202t-48.5 -283.5q0 -300 163 -473.5t439 -173.5zM1237 434h-92v-188h-289v188h-330v225l375 519h244v-523h92v-221zM864 655v127h-2l-84 -125v-2h86z" />
    <glyph glyph-name="dingbatnegcircle5" unicode="&#x277a;" horiz-adv-x="1843" 
d="M913 -139q-185 0 -341 59t-266.5 167t-172 265t-61.5 346q0 379 234 608.5t624 229.5q247 0 437 -102.5t296 -293.5t106 -442q0 -379 -233 -608t-623 -229zM905 53q137 0 251.5 40.5t200.5 119t133.5 203t47.5 284.5q0 298 -163 470.5t-435 172.5q-137 0 -251.5 -40
t-201.5 -117.5t-135.5 -202t-48.5 -283.5q0 -300 163 -473.5t439 -173.5zM1243 545q0 -152 -96 -238t-258 -86q-150 0 -275 66v266h7q43 -38 106 -63t123 -25q45 0 71.5 20t26.5 56q0 80 -147 80q-86 0 -170 -25h-4l86 557h499v-246h-297l-12 -63q20 4 31 4
q134 0 221.5 -80.5t87.5 -222.5z" />
    <glyph glyph-name="dingbatnegcircle6" unicode="&#x277b;" horiz-adv-x="1843" 
d="M913 -139q-185 0 -341 59t-266.5 167t-172 265t-61.5 346q0 379 234 608.5t624 229.5q247 0 437 -102.5t296 -293.5t106 -442q0 -379 -233 -608t-623 -229zM905 53q137 0 251.5 40.5t200.5 119t133.5 203t47.5 284.5q0 298 -163 470.5t-435 172.5q-137 0 -251.5 -40
t-201.5 -117.5t-135.5 -202t-48.5 -283.5q0 -300 163 -473.5t439 -173.5zM1270 532q0 -147 -100 -229t-267 -82q-165 0 -264.5 82t-99.5 229q0 103 51 187l268 434h346v-2l-200 -315v-2q53 -8 79 -19q86 -32 136.5 -105.5t50.5 -177.5zM975 532q0 84 -66 84q-75 0 -75 -84
q0 -37 16.5 -59t48.5 -22q76 0 76 81z" />
    <glyph glyph-name="dingbatnegcircle7" unicode="&#x277c;" horiz-adv-x="1843" 
d="M913 -139q-185 0 -341 59t-266.5 167t-172 265t-61.5 346q0 379 234 608.5t624 229.5q247 0 437 -102.5t296 -293.5t106 -442q0 -379 -233 -608t-623 -229zM905 53q137 0 251.5 40.5t200.5 119t133.5 203t47.5 284.5q0 298 -163 470.5t-435 172.5q-137 0 -251.5 -40
t-201.5 -117.5t-135.5 -202t-48.5 -283.5q0 -300 163 -473.5t439 -173.5zM936 246h-315v2l286 635v2h-342v268h752v-18z" />
    <glyph glyph-name="dingbatnegcircle8" unicode="&#x277d;" horiz-adv-x="1843" 
d="M913 -139q-185 0 -341 59t-266.5 167t-172 265t-61.5 346q0 379 234 608.5t624 229.5q247 0 437 -102.5t296 -293.5t106 -442q0 -379 -233 -608t-623 -229zM905 53q137 0 251.5 40.5t200.5 119t133.5 203t47.5 284.5q0 298 -163 470.5t-435 172.5q-137 0 -251.5 -40
t-201.5 -117.5t-135.5 -202t-48.5 -283.5q0 -300 163 -473.5t439 -173.5zM1278 508q0 -135 -99 -211t-268 -76q-166 0 -264 76t-98 211q0 153 127 223v2q-90 69 -90 189t88 188t237 68q154 0 243 -67.5t89 -188.5q0 -119 -92 -189q127 -73 127 -225zM983 526q0 32 -19 53
t-53 21t-51.5 -20.5t-17.5 -53.5q0 -34 17.5 -54.5t51.5 -20.5t53 21t19 54zM977 885q0 27 -17.5 45t-48.5 18q-30 0 -45.5 -17.5t-15.5 -45.5q0 -29 15.5 -47.5t45.5 -18.5q31 0 48.5 18.5t17.5 47.5z" />
    <glyph glyph-name="dingbatnegcircle9" unicode="&#x277e;" horiz-adv-x="1843" 
d="M913 -139q-185 0 -341 59t-266.5 167t-172 265t-61.5 346q0 379 234 608.5t624 229.5q247 0 437 -102.5t296 -293.5t106 -442q0 -379 -233 -608t-623 -229zM905 53q137 0 251.5 40.5t200.5 119t133.5 203t47.5 284.5q0 298 -163 470.5t-435 172.5q-137 0 -251.5 -40
t-201.5 -117.5t-135.5 -202t-48.5 -283.5q0 -300 163 -473.5t439 -173.5zM975 246h-346v2l200 315v4q-29 2 -79 17q-86 32 -137.5 105.5t-51.5 174.5q0 149 100.5 231.5t268.5 82.5q165 0 263.5 -82.5t98.5 -231.5q0 -106 -69 -219zM999 864q0 84 -69 84q-72 0 -72 -84
q0 -37 17.5 -59.5t52.5 -22.5q71 0 71 82z" />
    <glyph glyph-name="dingbatnegcircle10" unicode="&#x277f;" horiz-adv-x="1843" 
d="M913 -139q-185 0 -341 59t-266.5 167t-172 265t-61.5 346q0 379 234 608.5t624 229.5q247 0 437 -102.5t296 -293.5t106 -442q0 -379 -233 -608t-623 -229zM905 53q137 0 251.5 40.5t200.5 119t133.5 203t47.5 284.5q0 298 -163 470.5t-435 172.5q-137 0 -251.5 -40
t-201.5 -117.5t-135.5 -202t-48.5 -283.5q0 -300 163 -473.5t439 -173.5zM719 303h-246v768l244 45h2v-813zM1446 705q0 -213 -89.5 -316.5t-232.5 -103.5q-68 0 -124.5 24t-101.5 72.5t-70 131.5t-25 192q0 212 89 313.5t232 101.5q68 0 125 -23.5t102 -71.5t70 -129.5
t25 -190.5zM1194 705q0 80 -9 124t-23 57t-38 13q-36 0 -52.5 -39t-16.5 -155q0 -109 17.5 -154t51.5 -45t52 45t18 154z" />
    <glyph glyph-name="a.superior" unicode="&#xe000;" horiz-adv-x="833" 
d="M750 604h-275v43h-2q-81 -67 -182 -67q-98 0 -167 60.5t-69 170.5q0 102 67.5 164.5t190.5 62.5q88 0 154 -32v16q0 34 -41.5 52t-106.5 18q-123 0 -217 -74h-6v242q124 59 283 59q79 0 144 -17.5t117 -54t81 -99.5t29 -149v-395zM467 809v29q-35 14 -74 14
q-61 0 -61 -33q0 -31 55 -31q52 0 80 21z" />
    <glyph glyph-name="b.superior" unicode="&#xe001;" horiz-adv-x="884" 
d="M856 950q0 -170 -86.5 -270t-224.5 -100q-113 0 -201 69h-2l-250 -67h-4v1020h283v-357q87 74 192 74q134 0 213.5 -102.5t79.5 -266.5zM559 950q0 59 -25.5 91t-64.5 32q-61 0 -98 -59v-131q42 -58 96 -58q40 0 66 32.5t26 92.5z" />
    <glyph glyph-name="c.superior" unicode="&#xe002;" horiz-adv-x="638" 
d="M588 897v-264q-92 -53 -213 -53q-149 0 -246.5 100t-97.5 270q0 163 93 266t247 103q119 0 213 -53v-265h-4q-20 28 -58.5 46t-79.5 18q-54 0 -85 -31t-31 -88q0 -50 31 -81t85 -31q39 0 78.5 17t63.5 46h4z" />
    <glyph glyph-name="d.superior" unicode="&#xe003;" horiz-adv-x="884" 
d="M797 604h-279v49h-2q-85 -73 -194 -73q-132 0 -211.5 102t-79.5 268q0 169 86 269t223 100q100 0 174 -51h2v334h281v-998zM516 885v131q-46 57 -96 57q-41 0 -67.5 -31.5t-26.5 -91.5q0 -61 26 -93t68 -32q55 0 96 60z" />
    <glyph glyph-name="e.superior" unicode="&#xe004;" horiz-adv-x="800" 
d="M725 639q-115 -59 -283 -59q-186 0 -298.5 100t-112.5 270q0 165 96 267t274 102q154 0 255.5 -89.5t101.5 -250.5q0 -55 -4 -82h-428q38 -94 178 -94q59 0 117 20.5t98 55.5h6v-240zM465 1094q-18 45 -70 45t-69 -45h139z" />
    <glyph glyph-name="f.superior" unicode="&#xe005;" horiz-adv-x="557" 
d="M387 604h-283v451h-92v6l92 233v49q0 129 73.5 199t203.5 70q102 0 178 -33v-238h-4q-50 37 -102 37q-66 0 -66 -57v-27h141v-239h-141v-451z" />
    <glyph glyph-name="g.superior" unicode="&#xe006;" horiz-adv-x="864" 
d="M516 895v135q-40 43 -84 43q-43 0 -71.5 -29t-28.5 -81t28.5 -80.5t71.5 -28.5q51 0 84 41zM420 338q-191 0 -299 59v240h4q99 -84 248 -84q64 0 103.5 25t39.5 69v29h-2q-79 -66 -201 -66q-120 0 -201 91t-81 262t86 263.5t221 92.5q114 0 203 -70h4l246 68h4v-647
q0 -155 -104 -243.5t-271 -88.5z" />
    <glyph glyph-name="h.superior" unicode="&#xe007;" horiz-adv-x="892" 
d="M811 604h-281v381q0 88 -73 88q-52 0 -86 -59v-410h-283v998h283v-357q83 74 192 74q102 0 175 -63t73 -181v-471z" />
    <glyph glyph-name="i.superior" unicode="&#xe008;" horiz-adv-x="458" 
d="M371 604h-283v690h283v-690zM375 1382h-289v220h289v-220z" />
    <glyph glyph-name="j.superior" unicode="&#xe009;" horiz-adv-x="458" 
d="M100 348q-101 0 -172 35v205h4q48 -31 88 -31q68 0 68 80v657h283v-676q0 -137 -72 -203.5t-199 -66.5zM375 1382h-289v220h289v-220z" />
    <glyph glyph-name="k.superior" unicode="&#xe00a;" horiz-adv-x="894" 
d="M371 604h-283v998h283v-998zM881 604h-326l-178 344v10l168 336h317l-182 -336v-2z" />
    <glyph glyph-name="l.superior" unicode="&#xe00b;" horiz-adv-x="458" 
d="M371 604h-283v998h283v-998z" />
    <glyph glyph-name="m.superior" unicode="&#xe00c;" horiz-adv-x="1335" 
d="M1249 604h-278v381q0 42 -19.5 65t-52.5 23q-56 0 -90 -59q2 -12 2 -33v-377h-281v381q0 88 -73 88q-52 0 -86 -59v-410h-283v690h281v-49h2q83 74 194 74q63 0 117.5 -25.5t85.5 -74.5h2q62 53 114.5 76.5t121.5 23.5q102 0 172.5 -62.5t70.5 -181.5v-471z" />
    <glyph glyph-name="n.superior" unicode="&#xe00d;" horiz-adv-x="909" 
d="M825 604h-278v381q0 42 -21 65t-57 23q-64 0 -98 -59v-410h-283v690h281v-49h2q87 74 196 74q108 0 183 -62.5t75 -181.5v-471z" />
    <glyph glyph-name="o.superior" unicode="&#xe00e;" horiz-adv-x="856" 
d="M530 950q0 63 -26.5 97t-75.5 34t-75.5 -34t-26.5 -97q0 -62 25 -97.5t77 -35.5t77 35.5t25 97.5zM825 950q0 -167 -109.5 -268.5t-287.5 -101.5q-176 0 -286.5 102t-110.5 268q0 165 107 267t290 102t290 -102t107 -267z" />
    <glyph glyph-name="p.superior" unicode="&#xe00f;" horiz-adv-x="884" 
d="M856 950q0 -170 -86.5 -270t-224.5 -100q-100 0 -174 51v-283h-283v946h281v-49h2q87 74 192 74q134 0 213.5 -102.5t79.5 -266.5zM559 950q0 59 -25.5 91t-64.5 32q-61 0 -98 -59v-131q42 -58 96 -58q40 0 66 32.5t26 92.5z" />
    <glyph glyph-name="q.superior" unicode="&#xe010;" horiz-adv-x="884" 
d="M797 348h-281v305h-2q-82 -73 -192 -73q-132 0 -211.5 102t-79.5 268q0 169 86 269t223 100q112 0 201 -70h2l250 68h4v-969zM516 885v131q-46 57 -96 57q-41 0 -67.5 -31.5t-26.5 -91.5q0 -61 26 -93t68 -32q55 0 96 60z" />
    <glyph glyph-name="r.superior" unicode="&#xe011;" horiz-adv-x="616" 
d="M371 604h-283v690h270v-53h2q78 78 160 78q38 0 70 -14v-271h-4q-50 29 -94 29q-64 0 -121 -45v-414z" />
    <glyph glyph-name="s.superior" unicode="&#xe012;" horiz-adv-x="684" 
d="M627 825q0 -112 -75.5 -178.5t-225.5 -66.5q-156 0 -258 47v239h4q41 -34 105 -53.5t120 -19.5q35 0 47 5.5t12 16.5q0 9 -21 16t-52.5 12t-68.5 20.5t-68.5 38t-52.5 68t-21 107.5q0 115 74 178.5t214 63.5q145 0 244 -47v-240h-4q-39 35 -99.5 54.5t-111.5 19.5
q-41 0 -41 -23q0 -10 28.5 -17.5t69.5 -19t82.5 -32.5t70 -69.5t28.5 -119.5z" />
    <glyph glyph-name="t.superior" unicode="&#xe013;" horiz-adv-x="557" 
d="M387 604h-283v451h-92v6l92 233v203h283v-203h141v-239h-141v-451z" />
    <glyph glyph-name="u.superior" unicode="&#xe014;" horiz-adv-x="888" 
d="M805 1294v-374q0 -157 -95 -248.5t-270 -91.5q-167 0 -260.5 91.5t-93.5 248.5v374h279v-370q0 -99 79 -99q36 0 58 25t22 74v370h281z" />
    <glyph glyph-name="v.superior" unicode="&#xe015;" horiz-adv-x="851" 
d="M537 580h-218l-313 714h322l100 -317h2l98 317h318z" />
    <glyph glyph-name="w.superior" unicode="&#xe016;" horiz-adv-x="1226" 
d="M940 580h-195l-131 206l-131 -206h-192l-283 714h316l88 -272h2l188 297h27l186 -297l88 272h316z" />
    <glyph glyph-name="x.superior" unicode="&#xe017;" horiz-adv-x="854" 
d="M848 604h-328l-90 178h-2l-86 -178h-315l196 352l-215 338h324l92 -178h2l86 178h315l-198 -338z" />
    <glyph glyph-name="y.superior" unicode="&#xe018;" horiz-adv-x="854" 
d="M500 348h-320l113 256l-287 690h324l98 -336l102 336h316z" />
    <glyph glyph-name="z.superior" unicode="&#xe019;" horiz-adv-x="745" 
d="M705 604h-691v19l224 430v2h-195v239h635v-18l-227 -430v-2h254v-240z" />
    <glyph glyph-name="grave.cap" unicode="&#xe01a;" horiz-adv-x="1024" 
d="M784 1397h-338l-208 241h405z" />
    <glyph glyph-name="acute.cap" unicode="&#xe01b;" horiz-adv-x="1024" 
d="M575 1397h-337l141 241h405z" />
    <glyph glyph-name="circumflex.cap" unicode="&#xe01c;" horiz-adv-x="1024" 
d="M948 1397h-336l-100 84h-2l-98 -84h-336l252 262h368z" />
    <glyph glyph-name="caron.cap" unicode="&#xe01d;" horiz-adv-x="1024" 
d="M696 1395h-368l-252 262h336l100 -86h2l98 86h336z" />
    <glyph glyph-name="tilde.cap" unicode="&#xe01f;" horiz-adv-x="1024" 
d="M686 1405q-63 0 -160.5 35t-126.5 35q-50 0 -57 -70h-238q3 46 10 84t23 77t41 65t66 42.5t94 16.5q63 0 160.5 -35t126.5 -35q50 0 57 70h238q-3 -60 -14.5 -106t-36 -89t-71 -66.5t-112.5 -23.5z" />
    <glyph glyph-name="dieresis.cap" unicode="&#xe020;" horiz-adv-x="1024" 
d="M453 1419h-383v273h383v-273zM952 1419h-383v273h383v-273z" />
    <glyph glyph-name="macron.cap" unicode="&#xe021;" horiz-adv-x="1024" 
d="M901 1425h-776v267h776v-267z" />
    <glyph glyph-name="breve.cap" unicode="&#xe022;" horiz-adv-x="1024" 
d="M512 1405q-159 0 -260.5 75t-118.5 212h285q23 -52 94 -52t94 52h285q-17 -137 -118.5 -212t-260.5 -75z" />
    <glyph glyph-name="ring.cap" unicode="&#xe023;" horiz-adv-x="1024" 
d="M817 1602q0 -100 -83.5 -152.5t-225.5 -52.5q-143 0 -223 52t-80 153q0 100 83.5 152t227.5 52q141 0 221 -51.5t80 -152.5zM586 1602q0 25 -19 40t-55 15t-56 -15t-20 -40t20 -40.5t56 -15.5t55 15t19 41z" />
    <glyph glyph-name="hungarumlaut.cap" unicode="&#xe024;" horiz-adv-x="1024" 
d="M332 1397h-340l143 241h404zM825 1397h-338l142 241h403z" />
    <glyph glyph-name="dotaccent.cap" unicode="&#xe025;" horiz-adv-x="1024" 
d="M721 1419h-418v273h418v-273z" />
    <glyph glyph-name="hyphen.cap" unicode="&#xe027;" horiz-adv-x="614" 
d="M588 555h-559v367h559v-367z" />
    <glyph glyph-name="exclamdown.cap" unicode="&#xe028;" horiz-adv-x="675" 
d="M555 -139h-434l45 1040h344zM528 1030h-376v367h376v-367z" />
    <glyph glyph-name="guilsinglleft.cap" unicode="&#xe02a;" horiz-adv-x="688" 
d="M637 326h-367l-219 391v12l219 391h367l-207 -397z" />
    <glyph glyph-name="guilsinglright.cap" unicode="&#xe02b;" horiz-adv-x="688" 
d="M418 326h-367l207 397l-207 397h367l219 -391v-12z" />
    <glyph glyph-name="guillemotleft.cap" unicode="&#xe02c;" horiz-adv-x="1177" 
d="M637 326h-367l-219 391v12l219 391h367l-207 -397zM1126 326h-366l-219 391v12l219 391h366l-206 -397z" />
    <glyph glyph-name="guillemotright.cap" unicode="&#xe02d;" horiz-adv-x="1177" 
d="M418 326h-367l207 397l-207 397h367l219 -391v-12zM907 326h-366l207 397l-207 397h366l219 -391v-12z" />
    <glyph glyph-name="endash.cap" unicode="&#xe02e;" 
d="M1208 557h-1188v330h1188v-330z" />
    <glyph glyph-name="emdash.cap" unicode="&#xe02f;" horiz-adv-x="2457" 
d="M2437 557h-2417v330h2417v-330z" />
    <glyph glyph-name="nbspace" unicode="&#xe030;" 
 />
    <glyph glyph-name="periodcentered.cap" unicode="&#xe031;" horiz-adv-x="614" 
d="M506 530h-395v388h395v-388z" />
    <glyph glyph-name="parenleft.cap" unicode="&#xe032;" horiz-adv-x="806" 
d="M801 -188h-385q-148 174 -230 396t-82 466t82 466t230 396h385q-148 -174 -230 -396t-82 -466t82 -466t230 -396z" />
    <glyph glyph-name="parenright.cap" unicode="&#xe033;" horiz-adv-x="806" 
d="M391 -188h-385q149 173 231 395t82 467t-82 467t-231 395h385q149 -174 231.5 -395.5t82.5 -466.5t-82.5 -466.5t-231.5 -395.5z" />
    <glyph glyph-name="bracketleft.cap" unicode="&#xe034;" horiz-adv-x="802" 
d="M729 -188h-586v1724h586v-326h-219v-1073h219v-325z" />
    <glyph glyph-name="bracketright.cap" unicode="&#xe035;" horiz-adv-x="802" 
d="M74 1536h583v-1724h-583v325h217v1073h-217v326z" />
    <glyph glyph-name="braceleft.cap" unicode="&#xe036;" horiz-adv-x="864" 
d="M793 -188q-121 0 -209.5 11.5t-154.5 38.5t-108 65.5t-67 98.5t-35 131.5t-10 170.5v186l-141 156v8l141 156v186q0 99 10 170.5t35 131.5t67 98.5t108 65.5t154.5 38.5t209.5 11.5v-326q-90 0 -137.5 -21.5t-64 -61.5t-16.5 -113v-189l-133 -151l133 -152v-188
q0 -109 43.5 -153t174.5 -44v-325z" />
    <glyph glyph-name="braceright.cap" unicode="&#xe037;" horiz-adv-x="864" 
d="M70 1536q121 0 210 -11.5t155 -38.5t108 -65.5t67 -99t35 -131.5t10 -170v-186l142 -156v-8l-142 -156v-186q0 -99 -10 -170t-35 -131.5t-67 -99t-108 -65.5t-155 -38.5t-210 -11.5v325q91 0 139 22t64 62t16 113v188l133 152l-133 151v189q0 73 -16 113t-64 61.5
t-139 21.5v326z" />
    <glyph glyph-name="at.cap" unicode="&#xe038;" horiz-adv-x="1882" 
d="M1034 -168q-451 0 -707.5 234t-256.5 649q0 261 106 460t303.5 308.5t460.5 109.5q186 0 345 -52t276.5 -148t184 -243t66.5 -327q0 -270 -124 -405t-353 -135h-256v61h-2q-112 -94 -248 -94q-165 0 -266.5 129.5t-101.5 339.5q0 216 108.5 341.5t282.5 125.5
q143 0 258 -88h2l279 82h2q-153 153 -443 153q-271 0 -430.5 -166.5t-159.5 -451.5q0 -283 178 -443.5t515 -160.5q359 0 581 135h8v-303q-113 -51 -275 -81t-333 -30zM944 569q69 0 111 64v178q-45 57 -109 57q-56 0 -88.5 -38t-32.5 -111t32.5 -111.5t86.5 -38.5z
M1530 801q0 223 -121 360v-616q50 0 85.5 67t35.5 189z" />
    <glyph glyph-name="zero.slash" unicode="&#xe03a;" horiz-adv-x="1337" 
d="M1264 698q0 -155 -31.5 -279.5t-85.5 -208.5t-130 -140.5t-163 -81.5t-186 -25q-110 0 -205 33l-17 -33h-370l127 227q-131 187 -131 508q0 155 31.5 279.5t86 209t131 141t163.5 81.5t186 25q112 0 202 -33l17 33h371l-125 -232q129 -189 129 -504zM846 698
q0 200 -43 282.5t-133 82.5t-133 -82.5t-43 -282.5t43 -282t133 -82t133 82t43 282z" />
    <glyph glyph-name="Euro.LT" unicode="&#xe03b;" 
d="M1124 57q-69 -42 -161.5 -68t-180.5 -26q-71 0 -135 13.5t-126.5 46.5t-112.5 84t-90 129.5t-62 179.5h-150v254h123v63h-123v254h152q53 227 189.5 337t328.5 110q199 0 342 -95v-344h-8q-105 101 -240 101q-145 0 -198 -109h346v-254h-389v-63h389v-254h-346
q28 -59 76 -87t122 -28q140 0 246 100h8v-344z" />
    <glyph glyph-name="dollar.LT" unicode="&#xe03c;" 
d="M719 -291h-289v262q-163 17 -295 86v373h8q102 -89 287 -117v256q-61 26 -109 58t-91 78.5t-66 113t-23 148.5q0 80 21.5 152.5t66 135.5t120 107.5t175.5 60.5v265h287v-269q131 -20 252 -80v-360h-8q-108 76 -244 100v-248q62 -27 109.5 -59.5t91 -80t67 -115
t23.5 -150.5q0 -169 -101 -291t-282 -158v-268zM774 399q0 39 -55 64v-139q55 21 55 75zM471 1004q0 -38 53 -64v135q-53 -20 -53 -71z" />
    <glyph glyph-name="cent.LT" unicode="&#xe03d;" 
d="M942 -291h-287v256q-257 17 -399.5 170t-142.5 418q0 252 143 411.5t399 176.5v256h287v-287q86 -27 137 -57v-375h-8q-53 59 -129 88v-428q77 29 135 90h8v-375q-61 -37 -143 -59v-285zM530 551q0 -170 125 -219v442q-125 -46 -125 -223z" />
    <glyph glyph-name="sterling.LT" unicode="&#xe03e;" 
d="M1106 0h-1002v348h166l-18 168h-148v320h115l-8 73q0 4 -3 39t-3 56q0 192 136 311t390 119q104 0 208.5 -25.5t186.5 -69.5v-397h-8q-63 62 -149 99.5t-170 37.5q-89 0 -131.5 -40t-42.5 -103q0 -6 1 -17t2.5 -26t2.5 -23l2 -34h364v-320h-331l18 -168h422v-348z" />
    <glyph glyph-name="florin.LT" unicode="&#xe03f;" 
d="M627 0h-412v516h-113v320h113v139q0 228 136 343.5t388 115.5q223 0 396 -95v-397h-9q-63 63 -146 100t-171 37q-95 0 -138.5 -42t-43.5 -113v-88h397v-320h-397v-516z" />
    <glyph glyph-name="yen.LT" unicode="&#xe040;" 
d="M840 0h-412v266h-352v254h352v64h-352v254h239l-262 559h447l133 -428h2l119 428h424l-238 -559h215v-254h-315v-64h315v-254h-315v-266z" />
    <glyph glyph-name="zero.LT" unicode="&#xe041;" 
d="M1163 698q0 -190 -43.5 -334.5t-120.5 -230.5t-174 -128t-213 -42q-118 0 -216 42t-174 128t-118.5 230t-42.5 335q0 193 42.5 337.5t118.5 230t173.5 127t216.5 41.5q92 0 172.5 -25t150.5 -81.5t120 -141t79 -209t29 -279.5zM743 698q0 134 -16.5 217t-44 115.5
t-68.5 32.5q-71 0 -102 -81t-31 -284q0 -202 31 -283t102 -81q41 0 68.5 32.5t44 115t16.5 216.5z" />
    <glyph glyph-name="one.LT" unicode="&#xe042;" 
d="M934 0h-414v956l-327 -63h-7v387l742 154h6v-1434z" />
    <glyph glyph-name="two.LT" unicode="&#xe043;" 
d="M1165 0h-1056v309q155 119 258 217t151.5 170.5t66 123t17.5 102.5q0 74 -43.5 115.5t-116.5 41.5q-144 0 -299 -137h-6v387q191 105 391 105q103 0 192.5 -29t159.5 -84.5t110 -145t40 -202.5q0 -79 -16 -149.5t-40 -125t-71 -117.5t-90 -110.5t-115 -120.5v-2h467v-348
z" />
    <glyph glyph-name="three.LT" unicode="&#xe044;" 
d="M1128 358q0 -184 -133.5 -289.5t-371.5 -105.5q-245 0 -447 100v388h8q65 -58 172 -97t189 -39q77 0 119.5 27t42.5 80q0 44 -38 70t-110 26h-225v352h209q78 38 78 105q0 49 -39.5 76.5t-108.5 27.5q-147 0 -280 -133h-9v391q187 97 391 97q210 0 342 -104.5t132 -280.5
q0 -215 -197 -326v-2q133 -31 204.5 -125.5t71.5 -237.5z" />
    <glyph glyph-name="four.LT" unicode="&#xe045;" 
d="M1163 291h-149v-291h-412v291h-524v323l592 820h344v-820h149v-323zM612 614v244h-2l-168 -242v-2h170z" />
    <glyph glyph-name="five.LT" unicode="&#xe046;" 
d="M1112 455q0 -230 -147 -361t-387 -131q-225 0 -420 100v388h8q68 -60 164 -99t186 -39q79 0 126.5 36t47.5 102q0 68 -63 104.5t-178 36.5q-133 0 -267 -43h-6l133 848h756v-355h-463l-24 -131q35 7 69 7q202 0 333.5 -124.5t131.5 -338.5z" />
    <glyph glyph-name="six.LT" unicode="&#xe047;" 
d="M1167 438q0 -225 -151.5 -350t-401.5 -125q-252 0 -402.5 125.5t-150.5 349.5q0 83 18.5 148.5t61.5 136.5l418 674h494v-4l-318 -498v-4q53 -3 113 -19q143 -38 231 -152.5t88 -281.5zM745 438q0 68 -33 108t-94 40q-66 0 -101.5 -37t-35.5 -111q0 -67 32.5 -107
t94.5 -40q64 0 100.5 37.5t36.5 109.5z" />
    <glyph glyph-name="seven.LT" unicode="&#xe048;" 
d="M612 2h-450v4l463 1008v2h-547v383h1134v-25z" />
    <glyph glyph-name="eight.LT" unicode="&#xe049;" 
d="M1161 399q0 -205 -148.5 -320.5t-400.5 -115.5q-253 0 -402 115.5t-149 320.5q0 238 201 349v2q-147 101 -147 292q0 183 134.5 287.5t362.5 104.5q226 0 361 -104.5t135 -287.5q0 -189 -147 -292v-2q97 -53 148.5 -142t51.5 -207zM739 424q0 59 -33 95t-94 36
q-64 0 -97.5 -36t-33.5 -95q0 -60 33.5 -96.5t97.5 -36.5q61 0 94 37t33 96zM725 991q0 52 -29 83.5t-84 31.5q-56 0 -86 -31.5t-30 -83.5t30 -84.5t86 -32.5q54 0 83.5 33t29.5 84z" />
    <glyph glyph-name="nine.LT" unicode="&#xe04a;" 
d="M668 0h-492v4l318 498v4q-58 3 -113 18q-143 38 -231.5 152.5t-88.5 281.5q0 226 151.5 351t401.5 125t401.5 -126t151.5 -350q0 -86 -20 -153t-72 -152zM748 958q0 67 -32.5 107.5t-94.5 40.5q-64 0 -101 -38t-37 -110q0 -68 32 -107.5t95 -39.5q66 0 102 37t36 110z
" />
    <glyph glyph-name="Euro.OT" unicode="&#xe04b;" 
d="M106 571v228h164q59 162 195 253t311 91q96 0 187 -22t155 -62v-299h-8q-80 92 -252 92q-100 0 -156 -53h316v-228h-389v-34h389v-226h-318q57 -57 164 -57q166 0 252 92h8v-299q-63 -40 -155 -62t-187 -22q-112 0 -211 36.5t-180.5 116.5t-122.5 195h-162v226h123v34
h-123z" />
    <glyph glyph-name="dollar.OT" unicode="&#xe04c;" 
d="M1102 338q0 -157 -99 -250.5t-284 -116.5v-262h-289v262q-183 18 -295 74v330h6q121 -84 289 -107v160q-62 17 -109.5 40.5t-90.5 62t-66 97.5t-23 136q0 154 94 252.5t289 120.5v260h287v-267q165 -20 252 -69v-328h-8q-119 75 -244 98v-153q62 -18 110 -42.5t91 -63
t66.5 -98t23.5 -136.5zM776 324q0 31 -57 47v-99q57 14 57 52zM469 786q0 -31 55 -47v95q-55 -13 -55 -48z" />
    <glyph glyph-name="cent.OT" unicode="&#xe04d;" 
d="M942 -291h-287v256q-257 17 -399.5 170t-142.5 418q0 252 143 411.5t399 176.5v256h287v-287q86 -27 137 -57v-375h-8q-53 59 -129 88v-428q77 29 135 90h8v-375q-61 -37 -143 -59v-285zM530 551q0 -170 125 -219v442q-125 -46 -125 -223z" />
    <glyph glyph-name="sterling.OT" unicode="&#xe04e;" 
d="M997 365h-342l9 -76h442v-289h-1002v289h146l-8 76h-138v264h107v10q-6 35 -6 74q0 192 136 311t390 119q99 0 207 -25t188 -69v-377h-8q-66 65 -158.5 101t-185.5 36q-151 0 -151 -117q0 -26 4 -51v-12h370v-264z" />
    <glyph glyph-name="florin.OT" unicode="&#xe04f;" 
d="M627 0h-412v340h-113v289h113v55q0 228 136 343.5t388 115.5q225 0 396 -94v-375h-9q-61 61 -145 98t-172 37q-182 0 -182 -143v-37h397v-289h-397v-340z" />
    <glyph glyph-name="yen.OT" unicode="&#xe050;" 
d="M74 410v225h235l-258 471h447l133 -311h2l119 311h424l-236 -471h213v-225h-317v-37h317v-226h-317v-147h-412v147h-350v226h350v37h-350z" />
    <glyph glyph-name="zero.OT" unicode="&#xe051;" 
d="M1163 553q0 -141 -43.5 -254.5t-119 -186t-175 -111t-213.5 -38.5q-113 0 -212.5 38.5t-175 111t-119.5 186t-44 254.5q0 142 44 255.5t120 186t175 110.5t212 38q114 0 213 -38t175 -110.5t119.5 -186t43.5 -255.5zM745 553q0 104 -35 161.5t-96 57.5q-62 0 -97.5 -57
t-35.5 -162q0 -101 34.5 -160t98.5 -59q63 0 97 59t34 160z" />
    <glyph glyph-name="one.OT" unicode="&#xe052;" 
d="M934 0h-414v666l-327 -64h-7v387l742 154h6v-1143z" />
    <glyph glyph-name="two.OT" unicode="&#xe053;" 
d="M1165 0h-1056v309q124 59 215 111.5t143.5 90.5t83.5 73t41 59t10 49q0 46 -40 72.5t-105 26.5q-152 0 -314 -140h-6v389q194 103 391 103q220 0 361 -105.5t141 -283.5q0 -87 -33.5 -162t-80.5 -126.5t-125 -115.5v-2h374v-348z" />
    <glyph glyph-name="three.OT" unicode="&#xe054;" 
d="M1128 68q0 -184 -133.5 -290t-371.5 -106q-243 0 -447 101v387h8q65 -58 171.5 -96.5t189.5 -38.5q77 0 119.5 26.5t42.5 79.5q0 44 -38 70t-110 26h-225v353h209q78 38 78 104q0 49 -39.5 76.5t-108.5 27.5q-147 0 -280 -133h-9v392q185 96 391 96q210 0 342 -104.5
t132 -280.5q0 -215 -197 -326v-2q133 -31 204.5 -125t71.5 -237z" />
    <glyph glyph-name="four.OT" unicode="&#xe055;" 
d="M1163 0h-149v-291h-412v291h-524v324l592 819h344v-819h149v-324zM612 324v243h-2l-168 -241v-2h170z" />
    <glyph glyph-name="five.OT" unicode="&#xe056;" 
d="M1112 164q0 -230 -147 -361t-387 -131q-223 0 -420 101v387h8q68 -60 164 -98.5t186 -38.5q79 0 126.5 35.5t47.5 101.5q0 68 -63 104.5t-178 36.5q-133 0 -267 -43h-6l133 848h756v-354h-463l-24 -131q30 6 69 6q202 0 333.5 -124.5t131.5 -338.5z" />
    <glyph glyph-name="six.OT" unicode="&#xe057;" 
d="M1167 438q0 -225 -151.5 -350t-401.5 -125q-252 0 -402.5 125.5t-150.5 349.5q0 83 18.5 148.5t61.5 136.5l418 674h494v-4l-318 -498v-4q53 -3 113 -19q143 -38 231 -152.5t88 -281.5zM745 438q0 68 -33 108t-94 40q-66 0 -101.5 -37t-35.5 -111q0 -67 32.5 -107
t94.5 -40q64 0 100.5 37.5t36.5 109.5z" />
    <glyph glyph-name="seven.OT" unicode="&#xe058;" 
d="M612 -291h-450v4l463 1008v2h-547v383h1134v-25z" />
    <glyph glyph-name="eight.OT" unicode="&#xe059;" 
d="M1161 399q0 -205 -148.5 -320.5t-400.5 -115.5q-253 0 -402 115.5t-149 320.5q0 238 201 349v2q-147 101 -147 292q0 183 134.5 287.5t362.5 104.5q226 0 361 -104.5t135 -287.5q0 -189 -147 -292v-2q97 -53 148.5 -142t51.5 -207zM739 424q0 59 -33 95t-94 36
q-64 0 -97.5 -36t-33.5 -95q0 -60 33.5 -96.5t97.5 -36.5q61 0 94 37t33 96zM725 991q0 52 -29 83.5t-84 31.5q-56 0 -86 -31.5t-30 -83.5t30 -84.5t86 -32.5q54 0 83.5 33t29.5 84z" />
    <glyph glyph-name="nine.OT" unicode="&#xe05a;" 
d="M668 -291h-492v4l318 498v4q-58 3 -113 18q-143 38 -231.5 153t-88.5 282q0 225 151.5 350t401.5 125q251 0 402 -126t151 -349q0 -86 -20 -153.5t-72 -152.5zM748 668q0 67 -32.5 107t-94.5 40q-65 0 -101.5 -37.5t-36.5 -109.5q0 -68 32 -108t95 -40q66 0 102 37
t36 111z" />
    <glyph glyph-name="Euro.OP" unicode="&#xe05b;" horiz-adv-x="1165" 
d="M76 571v228h164q59 163 194.5 253.5t310.5 90.5q96 0 187 -22t155 -62v-299h-8q-80 92 -252 92q-99 0 -155 -53h315v-228h-389v-34h389v-226h-317q57 -57 164 -57q165 0 251 92h9v-299q-63 -40 -155 -62t-187 -22q-112 0 -211 36.5t-180.5 116.5t-122.5 195h-162v226h123
v34h-123z" />
    <glyph glyph-name="dollar.OP" unicode="&#xe05c;" horiz-adv-x="1112" 
d="M1038 338q0 -157 -99 -250.5t-284 -116.5v-262h-288v262q-183 18 -295 74v330h6q121 -84 289 -107v160q-62 17 -109.5 40.5t-90.5 62t-66 97.5t-23 136q0 154 94 252.5t289 120.5v260h287v-267q163 -20 251 -69v-328h-8q-119 75 -243 98v-153q49 -14 88.5 -31.5t78 -45.5
t65 -63.5t42.5 -86.5t16 -113zM713 324q0 30 -58 47v-99q58 14 58 52zM406 786q0 -31 55 -47v95q-55 -13 -55 -48z" />
    <glyph glyph-name="cent.OP" unicode="&#xe05d;" horiz-adv-x="1122" 
d="M895 -291h-287v256q-257 17 -399.5 170t-142.5 418q0 252 143 411.5t399 176.5v256h287v-287q86 -27 137 -57v-375h-8q-53 59 -129 88v-428q77 29 135 90h8v-375q-61 -37 -143 -59v-285zM483 551q0 -170 125 -219v442q-125 -46 -125 -223z" />
    <glyph glyph-name="sterling.OP" unicode="&#xe05e;" horiz-adv-x="1198" 
d="M983 365h-342l8 -76h443v-289h-1002v289h146l-9 76h-137v264h107v10q-7 40 -7 74q0 192 136.5 311t390.5 119q99 0 207 -25t188 -69v-377h-8q-66 65 -158.5 101t-185.5 36q-152 0 -152 -117q0 -26 4 -51v-12h371v-264z" />
    <glyph glyph-name="florin.OP" unicode="&#xe05f;" horiz-adv-x="1183" 
d="M612 0h-411v340h-113v289h113v55q0 228 136 343.5t388 115.5q224 0 395 -94v-375h-8q-61 61 -145 98t-172 37q-183 0 -183 -143v-37h398v-289h-398v-340z" />
    <glyph glyph-name="yen.OP" unicode="&#xe060;" horiz-adv-x="1198" 
d="M59 410v225h236l-258 471h446l133 -311h2l119 311h424l-235 -471h213v-225h-318v-37h318v-226h-318v-147h-411v147h-351v226h351v37h-351z" />
    <glyph glyph-name="zero.OP" unicode="&#xe061;" horiz-adv-x="1337" 
d="M1264 553q0 -141 -47.5 -254.5t-130 -186t-189.5 -111t-229 -38.5t-229 38.5t-189.5 111t-130 186t-47.5 254.5q0 142 47.5 255.5t130 186t189.5 110.5t229 38t229 -38t189.5 -110.5t130 -186t47.5 -255.5zM844 553q0 104 -47.5 161.5t-126.5 57.5q-80 0 -128 -57.5
t-48 -161.5q0 -100 45.5 -159.5t130.5 -59.5q83 0 128.5 59.5t45.5 159.5z" />
    <glyph glyph-name="one.OP" unicode="&#xe062;" horiz-adv-x="972" 
d="M811 0h-414v666l-327 -64h-7v387l742 154h6v-1143z" />
    <glyph glyph-name="two.OP" unicode="&#xe063;" horiz-adv-x="1198" 
d="M1151 0h-1057v309q154 74 257 135t152 107t67 78t18 63q0 46 -40.5 72.5t-105.5 26.5q-151 0 -313 -140h-6v389q194 103 391 103q220 0 361 -105.5t141 -283.5q0 -66 -17 -123t-52.5 -106.5t-74 -88t-96.5 -86.5v-2h375v-348z" />
    <glyph glyph-name="three.OP" unicode="&#xe064;" horiz-adv-x="1142" 
d="M1075 68q0 -184 -134 -290t-372 -106q-242 0 -446 101v387h8q65 -58 171.5 -96.5t189.5 -38.5q161 0 161 106q0 44 -37.5 70t-109.5 26h-225v353h208q78 38 78 104q0 49 -39 76.5t-108 27.5q-148 0 -281 -133h-8v392q185 96 391 96q210 0 341.5 -104.5t131.5 -280.5
q0 -215 -196 -326v-2q133 -31 204.5 -125t71.5 -237z" />
    <glyph glyph-name="four.OP" unicode="&#xe065;" horiz-adv-x="1198" 
d="M1149 0h-150v-291h-411v291h-525v324l592 819h344v-819h150v-324zM598 324v243h-2l-168 -241v-2h170z" />
    <glyph glyph-name="five.OP" unicode="&#xe066;" horiz-adv-x="1107" 
d="M1044 164q0 -230 -147 -361t-387 -131q-223 0 -420 101v387h8q68 -60 164.5 -98.5t186.5 -38.5q79 0 126.5 35.5t47.5 101.5q0 67 -63 104t-179 37q-132 0 -266 -43h-6l133 848h755v-354h-462l-25 -131q30 6 70 6q202 0 333 -124.5t131 -338.5z" />
    </font>
</defs>
</svg>
