<?xml version="1.0" standalone="no"?>
<!DOCTYPE svg PUBLIC "-//W3C//DTD SVG 1.1//EN" "http://www.w3.org/Graphics/SVG/1.1/DTD/svg11.dtd" >
<svg xmlns="http://www.w3.org/2000/svg" xmlns:xlink="http://www.w3.org/1999/xlink" version="1.1">
<metadata>
Created by FontForge 20201107 at Wed Jan  3 16:14:25 2024
 By 
2010 Copyright Jean Francois Porchez, Typofonderie. All rights reserved. Distributed exclusively by Typofonderie, France. Singulier is an exclusive sanserif typeface available in 6 weights, with Latin, Greek and Cyrillic scripts support designed solely and exclusively for YSL Beaute. This font software may not be reproduced, modified, disclosed or transferred without the express written approval of Jean Francois Porchez, Typofonderie.
</metadata>
<defs>
<font id="Singulier-Regular" horiz-adv-x="1105" >
  <font-face 
    font-family="Singulier"
    font-weight="400"
    font-stretch="normal"
    units-per-em="2048"
    panose-1="2 11 4 3 5 6 3 6 2 4"
    ascent="1638"
    descent="-410"
    x-height="1036"
    cap-height="1397"
    bbox="-289 -514 2441 2038"
    underline-thickness="145"
    underline-position="-322"
    unicode-range="U+000D-FB06"
  />
<missing-glyph horiz-adv-x="512" 
 />
    <glyph glyph-name="f_b" unicode="fb" horiz-adv-x="1814" 
d="M1737 518q0 -258 -138.5 -406.5t-357.5 -148.5q-174 0 -309 98h-2l-156 -73h-6v1321q-84 84 -205 84q-90 0 -143 -48.5t-53 -138.5v-170h249v-155h-249v-881h-177v881h-90v8l90 147v185q0 155 90.5 242t245.5 87q154 0 254 -75h2l156 73h6v-596h2q134 121 320 121
q207 0 339 -149t132 -406zM1550 518q0 184 -92.5 289.5t-243.5 105.5q-163 0 -270 -127v-561q48 -46 115 -74t141 -28q161 0 255.5 104t94.5 291z" />
    <glyph glyph-name="f_f_b" unicode="ffb" horiz-adv-x="2392" 
d="M2314 518q0 -258 -138 -406.5t-357 -148.5q-178 0 -310 98h-2l-155 -73h-6v1321q-84 84 -205 84q-91 0 -144 -48.5t-53 -138.5v-170h250v-155h-250v-881h-176v881h-401v-881h-177v881h-90v8l90 147v185q0 157 94.5 243t266.5 86q186 0 311 -88q88 88 242 88t254 -75h2
l156 73h6v-596h2q134 121 319 121q207 0 339 -149t132 -406zM2128 518q0 184 -92.5 289.5t-243.5 105.5q-163 0 -270 -127v-561q48 -46 114.5 -74t141.5 -28q161 0 255.5 104t94.5 291zM768 1036v185q0 69 20 110q-83 70 -215 70q-97 0 -151.5 -49.5t-54.5 -145.5v-170h401z
" />
    <glyph glyph-name="f_h" unicode="fh" horiz-adv-x="1818" 
d="M1634 0h-176v643q0 134 -69.5 202t-182.5 68q-154 0 -262 -127v-786h-176v1309q-84 84 -205 84q-90 0 -143 -48.5t-53 -138.5v-170h249v-155h-249v-881h-177v881h-90v8l90 147v185q0 155 90.5 242t245.5 87q154 0 254 -75h2l156 73h6v-596h2q131 121 311 121
q78 0 145.5 -23t119.5 -68t82 -118t30 -166v-698z" />
    <glyph glyph-name="f_f_h" unicode="ffh" horiz-adv-x="2396" 
d="M2212 0h-176v643q0 133 -70 201.5t-182 68.5q-154 0 -262 -127v-786h-176v1309q-84 84 -205 84q-91 0 -144 -48.5t-53 -138.5v-170h250v-155h-250v-881h-176v881h-401v-881h-177v881h-90v8l90 147v185q0 157 94.5 243t266.5 86q186 0 311 -88q88 88 242 88t254 -75h2
l156 73h6v-596h2q131 121 311 121q78 0 145.5 -23t119.5 -68t82 -118t30 -166v-698zM768 1036v185q0 66 20 110q-83 70 -215 70q-97 0 -151.5 -49.5t-54.5 -145.5v-170h401z" />
    <glyph glyph-name="f_j" unicode="fj" horiz-adv-x="1120" 
d="M649 -395q-117 0 -194 55v172h6q67 -70 151 -70q71 0 113.5 46.5t42.5 146.5v926h-401v-881h-177v881h-90v8l90 147v185q0 162 107 245.5t303 83.5q205 0 350 -86v-180h-8q-54 55 -137.5 82t-175.5 27q-262 0 -262 -193v-164h577v-1091q0 -163 -79 -251.5t-216 -88.5z
" />
    <glyph glyph-name="f_f_j" unicode="ffj" horiz-adv-x="1697" 
d="M1227 -395q-118 0 -195 55v172h6q29 -32 70.5 -51t81.5 -19q73 0 114.5 48.5t41.5 146.5v924h-402v-881h-176v881h-401v-881h-177v881h-90v8l90 147v185q0 157 94.5 243t266.5 86q188 0 321 -92q103 92 306 92q205 0 350 -86v-180h-8q-54 55 -138 82t-176 27
q-262 0 -262 -193v-164h578v-1085q0 -167 -79.5 -256.5t-215.5 -89.5zM768 1036v185q0 66 20 110q-83 70 -215 70q-97 0 -151.5 -49.5t-54.5 -145.5v-170h401z" />
    <glyph glyph-name="f_k" unicode="fk" horiz-adv-x="1636" 
d="M944 0h-176v1309q-84 84 -205 84q-90 0 -143 -48.5t-53 -138.5v-170h249v-155h-249v-881h-177v881h-90v8l90 147v185q0 155 90.5 242t245.5 87q154 0 254 -75h2l156 73h6v-1548zM1602 0h-216l-417 522v6l401 508h205l-401 -506v-4z" />
    <glyph glyph-name="f_f_k" unicode="ffk" horiz-adv-x="2213" 
d="M1522 0h-176v1309q-84 84 -205 84q-91 0 -144 -48.5t-53 -138.5v-170h250v-155h-250v-881h-176v881h-401v-881h-177v881h-90v8l90 147v185q0 157 94.5 243t266.5 86q186 0 311 -88q88 88 242 88t254 -75h2l156 73h6v-1548zM2179 0h-215l-418 522v6l402 508h204l-403 -506
v-4zM768 1036v185q0 66 20 110q-83 70 -215 70q-97 0 -151.5 -49.5t-54.5 -145.5v-170h401z" />
    <glyph glyph-name="f_t" unicode="ft" horiz-adv-x="1249" 
d="M944 0h-176v881h-401v-881h-177v881h-90v8l90 147v185q0 151 74 240t215 89q107 0 183 -51v-168h-7q-62 62 -141 62q-76 0 -111.5 -51t-35.5 -136v-170h401v312h176v-312h250v-155h-250v-881z" />
    <glyph glyph-name="f_f_t" unicode="fft" horiz-adv-x="1826" 
d="M1522 0h-176v881h-402v-881h-176v881h-401v-881h-177v881h-90v8l90 147v185q0 157 94.5 243t266.5 86q175 0 303 -82q75 82 203 82q107 0 180 -51v-168h-6q-62 62 -139 62q-76 0 -112 -51t-36 -136v-170h402v312h176v-312h250v-155h-250v-881zM768 1036v185q0 58 16 114
q-85 66 -211 66q-97 0 -151.5 -49.5t-54.5 -145.5v-170h401z" />
    <glyph glyph-name="f_f" unicode="ff" horiz-adv-x="1157" 
d="M944 0h-176v881h-401v-881h-177v881h-90v8l90 147v185q0 157 94.5 243t266.5 86q179 0 303 -84q77 84 209 84q109 0 188 -51v-172h-8q-66 66 -145 66t-116.5 -51t-37.5 -136v-170h250v-155h-250v-881zM768 1036v185q0 61 16 114q-79 66 -211 66q-97 0 -151.5 -49.5
t-54.5 -145.5v-170h401z" />
    <glyph glyph-name="fi" unicode="fi" horiz-adv-x="1120" 
d="M944 0h-176v881h-401v-881h-177v881h-90v8l90 147v185q0 162 107 245.5t303 83.5q205 0 350 -86v-180h-8q-54 55 -137.5 82t-175.5 27q-262 0 -262 -193v-164h577v-1036z" />
    <glyph glyph-name="fl" unicode="fl" horiz-adv-x="1120" 
d="M944 0h-176v1309q-84 84 -205 84q-90 0 -143 -48.5t-53 -138.5v-170h249v-155h-249v-881h-177v881h-90v8l90 147v185q0 155 90.5 242t245.5 87q154 0 254 -75h2l156 73h6v-1548z" />
    <glyph glyph-name="f_f_i" unicode="ffi" horiz-adv-x="1697" 
d="M1522 0h-176v881h-402v-881h-176v881h-401v-881h-177v881h-90v8l90 147v185q0 157 94.5 243t266.5 86q188 0 321 -92q103 92 306 92q205 0 350 -86v-180h-8q-54 55 -138 82t-176 27q-262 0 -262 -193v-164h578v-1036zM768 1036v185q0 66 20 110q-83 70 -215 70
q-97 0 -151.5 -49.5t-54.5 -145.5v-170h401z" />
    <glyph glyph-name="f_f_l" unicode="ffl" horiz-adv-x="1697" 
d="M1522 0h-176v1309q-84 84 -205 84q-91 0 -144 -48.5t-53 -138.5v-170h250v-155h-250v-881h-176v881h-401v-881h-177v881h-90v8l90 147v185q0 157 94.5 243t266.5 86q186 0 311 -88q88 88 242 88t254 -75h2l156 73h6v-1548zM768 1036v185q0 66 20 110q-83 70 -215 70
q-97 0 -151.5 -49.5t-54.5 -145.5v-170h401z" />
    <glyph glyph-name=".notdef" horiz-adv-x="512" 
 />
    <glyph glyph-name=".null" horiz-adv-x="0" 
 />
    <glyph glyph-name=".null" horiz-adv-x="0" 
 />
    <glyph glyph-name="nonmarkingreturn" horiz-adv-x="682" 
 />
    <glyph glyph-name="CR" unicode="&#xd;" horiz-adv-x="0" 
 />
    <glyph glyph-name="space" unicode=" " horiz-adv-x="552" 
 />
    <glyph glyph-name="space" unicode="&#xa0;" horiz-adv-x="552" 
 />
    <glyph glyph-name="exclam" unicode="!" horiz-adv-x="569" 
d="M360 422h-151l-23 1114h197zM375 0h-180v199h180v-199z" />
    <glyph glyph-name="quotedbl" unicode="&#x22;" horiz-adv-x="878" 
d="M346 903h-149l-7 494h162zM684 903h-149l-7 494h162z" />
    <glyph glyph-name="numbersign" unicode="#" horiz-adv-x="1085" 
d="M754 420l-52 -420h-127l52 420h-238l-51 -420h-129l51 420h-197v117h209l41 325h-200v117h215l49 418h127l-49 -418h239l49 418h127l-49 -418h201v-117h-215l-41 -325h207v-117h-219zM639 537l41 325h-240l-39 -325h238z" />
    <glyph glyph-name="dollar" unicode="$" horiz-adv-x="1005" 
d="M575 -291h-155v256q-196 15 -314 121v188h9q51 -65 131 -102t174 -45v514q-54 26 -92.5 48t-82 58.5t-70 76.5t-44.5 99t-18 130q0 93 31 169.5t104.5 133t183.5 71.5v261h154v-258q154 -20 272 -117v-185h-8q-108 120 -264 140v-496q55 -25 94 -47t84 -58.5t72.5 -77
t46 -101t18.5 -132.5q0 -150 -84.5 -254.5t-241.5 -130.5v-262zM741 344q0 78 -43 129.5t-123 95.5v-434q166 41 166 209zM272 1061q0 -76 41 -126t119 -91v420q-160 -33 -160 -203z" />
    <glyph glyph-name="percent" unicode="%" horiz-adv-x="1697" 
d="M686 944q0 -243 -92.5 -361t-237.5 -118q-143 0 -235 118t-92 361q0 126 26 220t72 149t103.5 81.5t125.5 26.5q69 0 127 -26.5t104.5 -81.5t72.5 -149t26 -220zM543 944q0 348 -187 348q-184 0 -184 -348q0 -180 49 -266t135 -86q88 0 137.5 85.5t49.5 266.5zM1669 455
q0 -243 -92.5 -361.5t-237.5 -118.5q-143 0 -235 118.5t-92 361.5q0 126 26 220t72 149t103.5 81.5t125.5 26.5q69 0 127 -26.5t104.5 -81.5t72.5 -149t26 -220zM1526 455q0 348 -187 348q-184 0 -184 -348q0 -180 49 -266.5t135 -86.5q88 0 137.5 86t49.5 267zM539 0h-146
l768 1397h146z" />
    <glyph glyph-name="ampersand" unicode="&#x26;" horiz-adv-x="1452" 
d="M653 -37q-267 0 -414 107t-147 313q0 139 79.5 237t215.5 140v2q-201 101 -201 311q0 162 116.5 261.5t313.5 99.5q186 0 326 -97v-188h-6q-113 125 -295 125q-117 0 -189.5 -61.5t-72.5 -165.5q0 -96 64.5 -159t172.5 -63h58v-159h-172q-107 -31 -163 -99.5t-56 -165.5
q0 -280 370 -280q178 0 275.5 69.5t97.5 212.5q0 94 -52 162t-145 101v6l66 153h467v-159h-301v-2q70 -50 111.5 -124t41.5 -165q0 -201 -147.5 -306.5t-413.5 -105.5z" />
    <glyph glyph-name="quotesingle" unicode="'" horiz-adv-x="552" 
d="M352 903h-149l-6 494h161z" />
    <glyph glyph-name="parenleft" unicode="(" horiz-adv-x="681" 
d="M649 -291h-174q-155 174 -241.5 396t-86.5 466t86.5 466.5t241.5 396.5h174q-155 -173 -241 -395.5t-86 -467.5t86 -466.5t241 -395.5z" />
    <glyph glyph-name="parenright" unicode=")" horiz-adv-x="681" 
d="M207 -291h-174q155 174 241 395.5t86 466.5t-86 467.5t-241 395.5h174q156 -173 242 -395.5t86 -467.5t-86 -467t-242 -395z" />
    <glyph glyph-name="asterisk" unicode="*" horiz-adv-x="1085" 
d="M870 586l-110 -88l-217 303l-217 -303l-111 88l219 301l-356 129l49 129l348 -129v381h135v-381l348 129l50 -129l-359 -129z" />
    <glyph glyph-name="plus" unicode="+" 
d="M623 113h-140v389h-366v135h366v389h138v-389h368v-135h-366v-389z" />
    <glyph glyph-name="comma" unicode="," horiz-adv-x="552" 
d="M242 -283h-162l149 494h166v-10z" />
    <glyph glyph-name="hyphen" unicode="-" horiz-adv-x="552" 
d="M528 463h-501v164h501v-164z" />
    <glyph glyph-name="period" unicode="." horiz-adv-x="552" 
d="M375 0h-193v211h193v-211z" />
    <glyph glyph-name="slash" unicode="/" horiz-adv-x="763" 
d="M170 0h-168l592 1397h166z" />
    <glyph glyph-name="zero" unicode="0" horiz-adv-x="1200" 
d="M1102 698q0 -155 -26.5 -279.5t-72 -208.5t-109.5 -140.5t-137 -81.5t-157 -25q-105 0 -193 41.5t-158.5 127t-110.5 230t-40 336.5q0 155 26.5 280t72.5 209t110 140.5t137 81.5t156 25q84 0 157 -25t137 -81.5t109.5 -140.5t72 -209t26.5 -280zM915 698
q0 288 -84.5 427t-230.5 139q-145 0 -229 -138.5t-84 -427.5t84 -427t229 -138q146 0 230.5 138.5t84.5 426.5z" />
    <glyph glyph-name="one" unicode="1" horiz-adv-x="759" 
d="M571 0h-184v1214l-305 -108h-6v174l489 154h6v-1434z" />
    <glyph glyph-name="two" unicode="2" horiz-adv-x="1085" 
d="M1028 0h-952v115q246 211 375 348t187 253.5t58 244.5q0 146 -75.5 229.5t-196.5 83.5q-92 0 -173 -42t-140 -114h-7v195q146 121 353 121q192 0 314 -120t122 -335q0 -80 -15 -152t-47.5 -138t-68.5 -121t-94 -118.5t-106.5 -112t-122.5 -118.5l-60 -57v-2h649v-160z
" />
    <glyph glyph-name="three" unicode="3" horiz-adv-x="1064" 
d="M969 356q0 -188 -131 -290.5t-338 -102.5q-223 0 -375 109v194h6q61 -68 154.5 -105.5t187.5 -37.5q136 0 220.5 65t84.5 191q0 113 -81.5 176t-227.5 63h-186v158h219q194 69 194 248q0 116 -73 183t-191 67q-172 0 -293 -146h-6v197q150 109 338 109q183 0 300.5 -103
t117.5 -280q0 -222 -205 -332v-2q57 -14 106.5 -42t90 -71.5t64.5 -107.5t24 -140z" />
    <glyph glyph-name="four" unicode="4" horiz-adv-x="1085" 
d="M1065 291h-209v-291h-182v291h-649v127l706 1016h125v-983h209v-160zM678 451v665h-2l-455 -663v-2h457z" />
    <glyph glyph-name="five" unicode="5" horiz-adv-x="1052" 
d="M965 410q0 -108 -37 -194.5t-102 -141t-151 -83t-186 -28.5q-220 0 -366 109v194h6q62 -69 152 -107t184 -38q139 0 225 73t86 214q0 132 -88.5 210t-247.5 78q-150 0 -282 -75h-6l122 776h644v-162h-510l-68 -416q85 29 184 29q194 0 317.5 -119.5t123.5 -318.5z" />
    <glyph glyph-name="six" unicode="6" horiz-adv-x="1146" 
d="M1059 403q0 -143 -66.5 -244t-174 -148.5t-243.5 -47.5q-219 0 -352 117t-133 323q0 148 82 275l467 719h217v-4l-385 -586h2q76 27 154 27q184 0 308 -118.5t124 -312.5zM868 403q0 131 -78 211t-215 80q-133 0 -214.5 -74t-81.5 -217q0 -131 77.5 -209.5t214.5 -78.5
q133 0 215 73t82 215z" />
    <glyph glyph-name="seven" unicode="7" horiz-adv-x="1085" 
d="M354 2h-196v4l610 1221v2h-702v170h970v-13z" />
    <glyph glyph-name="eight" unicode="8" horiz-adv-x="1116" 
d="M1028 377q0 -194 -128 -304t-341 -110q-214 0 -342.5 110t-128.5 304q0 133 65 226.5t181 137.5v2q-94 41 -146.5 122t-52.5 196q0 174 116 273.5t308 99.5q191 0 306.5 -99.5t115.5 -273.5q0 -113 -52 -194.5t-145 -123.5v-2q115 -42 179.5 -136t64.5 -228zM840 383
q0 122 -74.5 195t-206.5 73t-207.5 -73t-75.5 -195q0 -123 74 -195.5t209 -72.5q131 0 206 72.5t75 195.5zM807 1049q0 107 -65 171t-183 64q-117 0 -183.5 -64.5t-66.5 -170.5q0 -107 66.5 -173.5t183.5 -66.5q115 0 181.5 67t66.5 173z" />
    <glyph glyph-name="nine" unicode="9" horiz-adv-x="1146" 
d="M508 0h-217v4l385 586l-2 2q-68 -27 -152 -27q-186 0 -309 116.5t-123 311.5q0 108 37.5 193t103.5 138.5t153 81.5t189 28q218 0 352 -117t134 -324q0 -83 -24.5 -152t-86.5 -165zM870 993q0 131 -79 211t-216 80q-132 0 -214 -74.5t-82 -216.5q0 -131 77.5 -211
t214.5 -80q134 0 216.5 74t82.5 217z" />
    <glyph glyph-name="colon" unicode=":" horiz-adv-x="552" 
d="M375 0h-193v211h193v-211zM375 825h-193v211h193v-211z" />
    <glyph glyph-name="semicolon" unicode=";" horiz-adv-x="552" 
d="M375 825h-193v211h193v-211zM229 -283h-161l149 494h166v-10z" />
    <glyph glyph-name="less" unicode="&#x3c;" 
d="M987 166l-868 336v133l868 338v-154l-674 -248v-4l674 -250v-151z" />
    <glyph glyph-name="equal" unicode="=" 
d="M989 295h-872v133h872v-133zM989 713h-872v133h872v-133z" />
    <glyph glyph-name="greater" unicode="&#x3e;" 
d="M987 502l-868 -336v151l674 250v4l-674 248v154l868 -338v-133z" />
    <glyph glyph-name="question" unicode="?" horiz-adv-x="1001" 
d="M522 422h-149l-6 231q84 85 132 138.5t94 118t65.5 124t19.5 123.5q0 119 -70.5 176.5t-175.5 57.5q-95 0 -183.5 -36.5t-150.5 -103.5h-8v183q146 116 373 116q184 0 295.5 -94t111.5 -268q0 -65 -18 -127.5t-44 -113.5t-75 -113.5t-92.5 -109t-114.5 -118.5zM539 0
h-183v199h183v-199z" />
    <glyph glyph-name="at" unicode="@" horiz-adv-x="1798" 
d="M905 217q137 0 228 109v479q-86 86 -215 86q-138 0 -219 -88.5t-81 -247.5q0 -158 78 -248t209 -90zM983 -328q-151 0 -284 35.5t-243.5 108t-190 176.5t-123.5 247t-44 314q0 167 41.5 309.5t115 246.5t173.5 178t219 110.5t250 36.5q169 0 314.5 -51.5t255 -149.5
t172.5 -251.5t63 -344.5q0 -252 -113.5 -393.5t-322.5 -141.5h-123v74h-2q-116 -106 -279 -106q-180 0 -295.5 129.5t-115.5 355.5q0 225 121 354t313 129q154 0 270 -86h2l125 64h10v-789q134 0 203.5 108t69.5 292q0 138 -34 251t-94 192t-144 133t-182 79t-210 25
q-139 0 -259.5 -50t-210.5 -143t-141.5 -237.5t-51.5 -323.5q0 -178 55 -320t154.5 -235.5t237.5 -143t304 -49.5t304.5 44.5t226.5 132.5h8v-160q-89 -69 -238 -109.5t-307 -40.5z" />
    <glyph glyph-name="A" unicode="A" horiz-adv-x="1366" 
d="M1335 0h-207l-170 436h-557l-170 -436h-198l571 1434h158zM897 602l-217 561h-2l-215 -561h434z" />
    <glyph glyph-name="B" unicode="B" horiz-adv-x="1255" 
d="M1122 377q0 -377 -501 -377h-418v1397h399q200 0 320 -94t120 -263q0 -111 -53 -193.5t-147 -129.5v-2q118 -27 199 -114.5t81 -223.5zM930 403q0 104 -79.5 162t-215.5 58h-244v-457h223q316 0 316 237zM850 1012q0 102 -73 161.5t-199 59.5h-187v-451h266
q103 33 148 89t45 141z" />
    <glyph glyph-name="C" unicode="C" horiz-adv-x="1257" 
d="M1145 338v-225q-177 -150 -424 -150q-131 0 -244 48.5t-197.5 139.5t-133 231.5t-48.5 315.5q0 171 46.5 310.5t129 232.5t195.5 143t246 50q253 0 422 -150v-225h-9q-68 94 -169 145t-216 51q-205 0 -326.5 -150t-121.5 -407q0 -255 124.5 -406t332.5 -151
q116 0 217.5 53t167.5 144h8z" />
    <glyph glyph-name="D" unicode="D" horiz-adv-x="1456" 
d="M1360 698q0 -171 -57 -306.5t-155.5 -220t-226 -128t-274.5 -43.5h-444v1397h444q116 0 221 -27t195.5 -84t156 -138.5t103 -196.5t37.5 -253zM1167 698q0 127 -40 228t-110.5 164.5t-165 97t-206.5 33.5h-254v-1045h254q150 0 266 56.5t186 176.5t70 289z" />
    <glyph glyph-name="E" unicode="E" horiz-adv-x="1112" 
d="M973 0h-770v1397h717v-176h-529v-414h508v-178h-508v-453h582v-176z" />
    <glyph glyph-name="F" unicode="F" horiz-adv-x="1013" 
d="M391 0h-188v1397h717v-176h-529v-467h508v-176h-508v-578z" />
    <glyph glyph-name="G" unicode="G" horiz-adv-x="1435" 
d="M737 -37q-134 0 -249.5 48t-202.5 139t-137 232t-50 316q0 172 51.5 312.5t141.5 232.5t211.5 141.5t261.5 49.5q261 0 465 -158v-217h-8q-180 198 -437 198q-219 0 -354 -148.5t-135 -414.5q0 -138 34.5 -246.5t94.5 -177t140 -104t173 -35.5q85 0 155.5 24t127 74.5
t89 136.5t34.5 201h-463v8l84 168h573q0 -8 1 -51t1 -51q0 -142 -32 -257t-87 -192.5t-132 -129.5t-164.5 -75.5t-186.5 -23.5z" />
    <glyph glyph-name="H" unicode="H" horiz-adv-x="1542" 
d="M1339 0h-188v635h-760v-635h-188v1397h188v-586h760v586h188v-1397z" />
    <glyph glyph-name="I" unicode="I" horiz-adv-x="593" 
d="M391 0h-186v1397h186v-1397z" />
    <glyph glyph-name="J" unicode="J" horiz-adv-x="860" 
d="M332 -37q-128 0 -215 68v202h8q69 -92 176 -92q94 0 142.5 62t48.5 182v834h-386v10l84 168h486v-1043q0 -181 -85 -286t-259 -105z" />
    <glyph glyph-name="K" unicode="K" horiz-adv-x="1249" 
d="M391 0h-188v1397h188v-1397zM1206 0h-229l-553 702v9l532 686h224l-537 -684v-4z" />
    <glyph glyph-name="L" unicode="L" horiz-adv-x="999" 
d="M932 0h-729v1397h188v-1221h541v-176z" />
    <glyph glyph-name="M" unicode="M" horiz-adv-x="1785" 
d="M1614 0h-189l-84 956h-2l-440 -993h-14l-443 995h-2l-80 -958h-188l123 1421h143l455 -1061h2l453 1061h143z" />
    <glyph glyph-name="N" unicode="N" horiz-adv-x="1548" 
d="M1346 -25h-146l-807 1047h-2v-1022h-188v1311l-56 75v11h201l809 -1061h2v1061h187v-1422z" />
    <glyph glyph-name="O" unicode="O" horiz-adv-x="1519" 
d="M1421 698q0 -173 -52.5 -314t-143.5 -232t-210.5 -140t-256.5 -49q-133 0 -251.5 48.5t-210 139t-145 232t-53.5 315.5q0 139 34 258.5t95.5 206.5t144.5 148.5t182 92t208 30.5q133 0 251.5 -49t209.5 -139.5t144.5 -232t53.5 -315.5zM1227 698q0 133 -36.5 241
t-100 177.5t-147.5 106.5t-181 37t-181 -36.5t-148 -105t-101 -177t-37 -243.5q0 -264 131.5 -412.5t331.5 -148.5q97 0 181.5 36.5t149 105t101.5 176.5t37 243z" />
    <glyph glyph-name="P" unicode="P" horiz-adv-x="1200" 
d="M1094 967q0 -107 -36.5 -191t-117 -152.5t-218.5 -112t-331 -58.5v-453h-188v1397h397q103 0 191.5 -27t156.5 -79t107 -135.5t39 -188.5zM901 952q0 128 -86 199.5t-227 71.5h-197v-594q141 7 243 34.5t158.5 72.5t82.5 98t26 118z" />
    <glyph glyph-name="Q" unicode="Q" horiz-adv-x="1519" 
d="M1421 698q0 -153 -41 -280.5t-113.5 -216t-167 -144.5t-206.5 -77l336 -375h-221l-312 362q-123 10 -230 62.5t-189.5 142t-130.5 225t-48 301.5q0 173 53 314.5t144 232.5t211 140t256 49q134 0 252.5 -49t209.5 -139.5t144 -232t53 -315.5zM1227 698q0 133 -36.5 241
t-100 177.5t-147.5 106.5t-181 37q-96 0 -180 -36.5t-148.5 -105t-101.5 -177t-37 -243.5q0 -133 36 -240.5t99.5 -176.5t147 -105.5t180.5 -36.5t181.5 36t149 104.5t101.5 176t37 242.5z" />
    <glyph glyph-name="R" unicode="R" horiz-adv-x="1286" 
d="M1231 0h-236l-571 639v10q181 27 286 73t144 104.5t39 144.5q0 116 -85 184t-235 68h-182v-1223h-188v1397h397q220 0 351.5 -105.5t131.5 -300.5q0 -162 -84.5 -266t-279.5 -164v-4z" />
    <glyph glyph-name="S" unicode="S" 
d="M987 356q0 -170 -118.5 -281.5t-325.5 -111.5q-248 0 -398 135v211h7q70 -87 170 -132.5t208 -45.5q127 0 199 56t72 155q0 69 -36 120t-93 84t-126 62.5t-138.5 65t-126.5 80.5t-93 120t-36 173q0 77 24.5 145t73.5 123t131.5 87t189.5 32q105 0 201 -34.5t166 -101.5
v-208h-6q-66 85 -158.5 130.5t-189.5 45.5q-117 0 -180.5 -55t-63.5 -146q0 -54 22 -97t59.5 -72t86 -54.5t102.5 -48.5t107.5 -48t102 -60t86 -78t59.5 -107.5t22 -143.5z" />
    <glyph glyph-name="T" unicode="T" horiz-adv-x="1093" 
d="M641 -2h-186v1221h-394v176h973v-176h-393v-1221z" />
    <glyph glyph-name="U" unicode="U" horiz-adv-x="1341" 
d="M672 -37q-226 0 -358 119t-132 340v975h189v-951q0 -153 78 -230t219 -77t220 77t79 230v951h190v-975q0 -222 -130.5 -340.5t-354.5 -118.5z" />
    <glyph glyph-name="V" unicode="V" horiz-adv-x="1310" 
d="M729 -37h-145l-559 1434h206l428 -1141h3l425 1141h199z" />
    <glyph glyph-name="W" unicode="W" horiz-adv-x="1974" 
d="M1425 -37h-145l-293 828h-2l-291 -828h-145l-502 1434h203l383 -1090h2l264 752l-117 338h199l371 -1090h2l377 1090h198z" />
    <glyph glyph-name="X" unicode="X" horiz-adv-x="1361" 
d="M1292 0h-229l-391 569h-2l-357 -569h-225l451 711l-469 686h225l379 -555h2l358 555h223l-448 -690z" />
    <glyph glyph-name="Y" unicode="Y" horiz-adv-x="1214" 
d="M700 0h-186v575l-496 822h224l364 -629h2l369 629h219l-496 -822v-575z" />
    <glyph glyph-name="Z" unicode="Z" horiz-adv-x="1302" 
d="M1188 0h-1079v12l712 1207v2h-663v176h985v-13l-715 -1206v-2h760v-176z" />
    <glyph glyph-name="bracketleft" unicode="[" horiz-adv-x="679" 
d="M600 -291h-416v1725h416v-144h-252v-1437h252v-144z" />
    <glyph glyph-name="backslash" unicode="\" horiz-adv-x="763" 
d="M760 0h-166l-592 1397h168z" />
    <glyph glyph-name="bracketright" unicode="]" horiz-adv-x="679" 
d="M80 1434h416v-1725h-416v144h252v1437h-252v144z" />
    <glyph glyph-name="asciicircum" unicode="^" 
d="M956 393h-157l-244 654h-4l-246 -654h-155l335 832h136z" />
    <glyph glyph-name="underscore" unicode="_" 
d="M1085 -395h-1065v145h1065v-145z" />
    <glyph glyph-name="grave" unicode="`" horiz-adv-x="1024" 
d="M733 1143h-158l-284 393h190z" />
    <glyph glyph-name="grave" unicode="&#x300;" horiz-adv-x="1024" 
d="M733 1143h-158l-284 393h190z" />
    <glyph glyph-name="grave" unicode="&#x2cb;" horiz-adv-x="1024" 
d="M733 1143h-158l-284 393h190z" />
    <glyph glyph-name="a" unicode="a" horiz-adv-x="1116" 
d="M952 0h-172v82h-2q-132 -119 -311 -119q-152 0 -250 88.5t-98 237.5q0 153 101.5 244.5t283.5 91.5q155 0 272 -70v104q0 131 -76.5 195t-201.5 64q-91 0 -173.5 -41t-136.5 -105h-6v184q145 117 350 117q189 0 304.5 -102t115.5 -305v-666zM776 233v179q-100 65 -241 65
q-115 0 -177.5 -46t-62.5 -132q0 -79 59 -130.5t168 -51.5q151 0 254 116z" />
    <glyph glyph-name="b" unicode="b" horiz-adv-x="1226" 
d="M1145 518q0 -258 -138.5 -406.5t-357.5 -148.5q-174 0 -309 98h-2l-156 -71h-6v1546h176v-584h2q134 121 322 121q206 0 337.5 -149t131.5 -406zM958 518q0 185 -91.5 290t-241.5 105q-166 0 -273 -127v-561q48 -46 115.5 -74t142.5 -28q159 0 253.5 103.5t94.5 291.5z
" />
    <glyph glyph-name="c" unicode="c" horiz-adv-x="960" 
d="M874 270v-192q-134 -115 -321 -115q-98 0 -184 36.5t-151 105t-102.5 175.5t-37.5 238q0 257 132.5 406t338.5 149q195 0 319 -112v-193h-6q-48 66 -123.5 106.5t-163.5 40.5q-142 0 -226.5 -108.5t-84.5 -288.5q0 -182 88.5 -289.5t239.5 -107.5q84 0 156.5 41.5
t119.5 107.5h6z" />
    <glyph glyph-name="d" unicode="d" horiz-adv-x="1226" 
d="M1051 0h-174v86h-3q-139 -123 -323 -123q-206 0 -337.5 149t-131.5 406q0 259 138 407t358 148q169 0 294 -86h2v549h177v-1536zM874 250v561q-105 102 -258 102q-159 0 -253.5 -103.5t-94.5 -291.5q0 -184 91.5 -289.5t242.5 -105.5q161 0 272 127z" />
    <glyph glyph-name="e" unicode="e" horiz-adv-x="1120" 
d="M975 80q-149 -117 -367 -117q-233 0 -381.5 147t-148.5 408q0 258 133.5 406.5t351.5 148.5q197 0 329 -133.5t132 -347.5q0 -38 -4 -100h-754q7 -179 107.5 -276t267.5 -97q100 0 185.5 39t142.5 102h6v-180zM840 639q-3 121 -80.5 200t-196.5 79q-122 0 -201 -73
t-96 -206h574z" />
    <glyph glyph-name="f" unicode="f" horiz-adv-x="671" 
d="M367 0h-177v881h-90v8l90 147v185q0 151 75 240t220 89q113 0 189 -51v-172h-6q-66 66 -148 66q-79 0 -116 -51t-37 -136v-170h249v-155h-249v-881z" />
    <glyph glyph-name="g" unicode="g" horiz-adv-x="1196" 
d="M854 272v547q-47 44 -111.5 69t-132.5 25q-154 0 -247 -100t-93 -276q0 -172 91 -274.5t237 -102.5q155 0 256 112zM590 -401q-104 0 -202.5 29.5t-170.5 88.5v181h8q132 -144 344 -144q146 0 215.5 76.5t69.5 200.5v86h-2q-130 -117 -315 -117q-95 0 -177 35t-145 101
t-99 169.5t-36 231.5q0 253 135.5 394.5t349.5 141.5q166 0 301 -98h2l156 72h6v-1004q0 -217 -118.5 -330.5t-321.5 -113.5z" />
    <glyph glyph-name="h" unicode="h" horiz-adv-x="1208" 
d="M1042 0h-176v643q0 134 -69.5 202t-182.5 68q-154 0 -262 -127v-786h-176v1536h176v-584h2q131 121 312 121q78 0 145.5 -23t119.5 -68t81.5 -118t29.5 -166v-698z" />
    <glyph glyph-name="i" unicode="i" horiz-adv-x="528" 
d="M352 0h-176v1036h176v-1036zM360 1362h-192v174h192v-174z" />
    <glyph glyph-name="j" unicode="j" horiz-adv-x="528" 
d="M59 -395q-119 0 -196 55v172h6q29 -32 71 -51t83 -19q70 0 111.5 48.5t41.5 144.5v1081h176v-1085q0 -167 -79 -256.5t-214 -89.5zM360 1362h-192v174h192v-174z" />
    <glyph glyph-name="k" unicode="k" horiz-adv-x="1046" 
d="M352 0h-176v1536h176v-1536zM1012 0h-217l-416 522v6l399 508h209l-403 -508v-4z" />
    <glyph glyph-name="l" unicode="l" horiz-adv-x="528" 
d="M352 0h-176v1536h176v-1536z" />
    <glyph glyph-name="m" unicode="m" horiz-adv-x="1898" 
d="M1733 0h-177v643q0 134 -69 202t-182 68q-161 0 -277 -145q14 -49 14 -117v-651h-176v643q0 134 -69.5 202t-182.5 68q-154 0 -262 -127v-786h-176v1036h174v-86h2q132 123 316 123q104 0 188.5 -42.5t132.5 -123.5h4q163 166 365 166q162 0 268.5 -96t106.5 -279v-698z
" />
    <glyph glyph-name="n" unicode="n" horiz-adv-x="1232" 
d="M1067 0h-176v643q0 134 -72 202t-192 68q-164 0 -275 -127v-786h-176v1036h174v-86h2q136 123 326 123q170 0 279.5 -96t109.5 -279v-698z" />
    <glyph glyph-name="o" unicode="o" horiz-adv-x="1187" 
d="M924 518q0 185 -90.5 292.5t-237.5 107.5q-148 0 -240 -106.5t-92 -293.5q0 -185 90.5 -291t237.5 -106q149 0 240.5 105t91.5 292zM1112 518q0 -129 -39.5 -234.5t-109.5 -175.5t-165 -107.5t-206 -37.5q-109 0 -202.5 37.5t-163 107t-109 175t-39.5 235.5
q0 258 145.5 406.5t372.5 148.5q109 0 202.5 -37.5t163.5 -107t110 -175t40 -235.5z" />
    <glyph glyph-name="p" unicode="p" horiz-adv-x="1226" 
d="M1145 518q0 -258 -138.5 -406.5t-357.5 -148.5q-170 0 -295 86h-2v-444h-176v1431h174v-86h2q136 123 324 123q206 0 337.5 -149t131.5 -406zM958 518q0 185 -91.5 290t-241.5 105q-166 0 -273 -127v-561q48 -46 115.5 -74t142.5 -28q159 0 253.5 103.5t94.5 291.5z" />
    <glyph glyph-name="q" unicode="q" horiz-adv-x="1226" 
d="M1051 -395h-177v479h-2q-137 -121 -321 -121q-206 0 -337.5 149t-131.5 406q0 259 138 407t358 148q174 0 309 -98h2l155 72h7v-1442zM874 250v561q-105 102 -258 102q-159 0 -253.5 -103.5t-94.5 -291.5q0 -184 91.5 -289.5t242.5 -105.5q161 0 272 127z" />
    <glyph glyph-name="r" unicode="r" horiz-adv-x="784" 
d="M360 0h-176v1036h168v-88h2q128 125 267 125q59 0 108 -18v-178h-6q-59 32 -123 32q-66 0 -121 -31t-119 -92v-786z" />
    <glyph glyph-name="s" unicode="s" horiz-adv-x="923" 
d="M799 268q0 -138 -92 -221.5t-265 -83.5q-196 0 -311 100v185h6q53 -65 133.5 -101t167.5 -36t138 39.5t51 103.5q0 49 -27 85t-70.5 58.5t-96 43.5t-105 47t-96 60.5t-70.5 92.5t-27 135q0 133 85.5 215t246.5 82q183 0 295 -100v-185h-6q-51 62 -124.5 100t-152.5 38
q-82 0 -125 -38.5t-43 -101.5q0 -48 27 -82.5t70 -56.5t95 -42t104 -46t95 -60.5t70 -93.5t27 -137z" />
    <glyph glyph-name="t" unicode="t" horiz-adv-x="671" 
d="M367 0h-177v881h-90v8l90 147v312h177v-312h249v-155h-249v-881z" />
    <glyph glyph-name="u" unicode="u" horiz-adv-x="1193" 
d="M1030 1036v-657q0 -195 -116.5 -305.5t-317.5 -110.5q-199 0 -315.5 110t-116.5 306v657h176v-645q0 -135 66.5 -202.5t189.5 -67.5t190.5 67.5t67.5 202.5v645h176z" />
    <glyph glyph-name="v" unicode="v" horiz-adv-x="1067" 
d="M596 -37h-125l-446 1073h198l312 -803h2l307 803h198z" />
    <glyph glyph-name="w" unicode="w" horiz-adv-x="1669" 
d="M1239 -37h-113l-290 715h-2l-291 -715h-115l-389 1073h197l262 -743h2l327 780h17l325 -778h2l263 741h194z" />
    <glyph glyph-name="x" unicode="x" horiz-adv-x="1056" 
d="M1026 0h-213l-293 401h-2l-262 -401h-205l350 528l-368 508h209l286 -393h2l265 393h206l-354 -516z" />
    <glyph glyph-name="y" unicode="y" horiz-adv-x="1071" 
d="M492 -395h-193l160 397l-441 1034h201l328 -807h2l289 807h194z" />
    <glyph glyph-name="z" unicode="z" horiz-adv-x="983" 
d="M907 0h-844v12l525 867v2h-486v155h777v-12l-527 -866v-2h555v-156z" />
    <glyph glyph-name="braceleft" unicode="{" horiz-adv-x="702" 
d="M637 -291q-227 0 -321.5 83.5t-94.5 287.5v377l-119 110v8l119 111v377q0 204 94.5 287.5t321.5 83.5v-144q-144 0 -198 -55t-54 -174v-383l-111 -107l111 -106v-383q0 -119 54 -174t198 -55v-144z" />
    <glyph glyph-name="bar" unicode="|" horiz-adv-x="552" 
d="M350 -389h-145v2007h145v-2007z" />
    <glyph glyph-name="braceright" unicode="}" horiz-adv-x="702" 
d="M66 1434q227 0 321 -83t94 -288v-377l119 -111v-8l-119 -110v-377q0 -205 -94 -288t-321 -83v144q144 0 197.5 55t53.5 174v383l111 106l-111 107v383q0 119 -53.5 174t-197.5 55v144z" />
    <glyph glyph-name="asciitilde" unicode="~" 
d="M979 551q-96 -107 -221 -107q-47 0 -104.5 19t-102.5 42.5t-101 42.5t-100 19q-69 0 -120 -30.5t-103 -90.5v150q94 104 221 104q60 0 134.5 -30t147 -60t126.5 -30q71 0 122.5 30t100.5 88v-147z" />
    <glyph glyph-name="exclamdown" unicode="&#xa1;" horiz-adv-x="569" 
d="M383 -500h-197l23 1114h151zM377 838h-182v198h182v-198z" />
    <glyph glyph-name="cent" unicode="&#xa2;" horiz-adv-x="1058" 
d="M709 -291h-154v258q-212 21 -339.5 173.5t-127.5 412.5q0 256 128.5 411.5t338.5 174.5v258h154v-262q141 -23 249 -111v-199h-8q-88 124 -241 148v-842q148 23 247 150h9v-199q-106 -89 -256 -111v-262zM276 553q0 -172 73 -281t206 -137v836q-132 -25 -205.5 -133
t-73.5 -285z" />
    <glyph glyph-name="sterling" unicode="&#xa3;" horiz-adv-x="1085" 
d="M958 0h-870v160h221l-51 456h-170v158h152l-13 123q-10 117 -10 145q0 172 113.5 282t306.5 110q93 0 183 -30t159 -87v-199h-6q-59 71 -144 111.5t-178 40.5q-116 0 -182 -70.5t-66 -183.5q0 -52 9 -135l12 -107h426v-158h-410l54 -456h464v-160z" />
    <glyph glyph-name="currency" unicode="&#xa4;" 
d="M858 571q0 -88 -49 -159l123 -123l-96 -96l-125 124q-66 -51 -158 -51t-162 51l-123 -122l-96 94l125 123q-49 74 -49 159q0 90 49 158l-125 127l96 94l125 -123q72 52 160 52q85 0 160 -52l125 125l94 -96l-125 -123q51 -73 51 -162zM735 571q0 78 -53.5 134.5
t-130.5 56.5q-76 0 -130 -57t-54 -134t54 -133.5t130 -56.5q77 0 130.5 56.5t53.5 133.5z" />
    <glyph glyph-name="yen" unicode="&#xa5;" horiz-adv-x="1085" 
d="M657 0h-180v317h-377v146h377v172h-377v145h312l-334 617h201l286 -574h2l273 574h192l-313 -617h291v-145h-353v-172h353v-146h-353v-317z" />
    <glyph glyph-name="brokenbar" unicode="&#xa6;" horiz-adv-x="552" 
d="M350 815h-145v803h145v-803zM350 -389h-145v803h145v-803z" />
    <glyph glyph-name="section" unicode="&#xa7;" horiz-adv-x="1085" 
d="M967 563q0 -141 -73.5 -228.5t-191.5 -115.5v-2q40 -18 68.5 -36.5t56.5 -47t42 -69t14 -91.5q0 -134 -93 -217.5t-266 -83.5q-200 0 -313 101v170h6q52 -62 132 -95.5t165 -33.5q90 0 140.5 41.5t50.5 111.5q0 50 -20 84.5t-58.5 55.5t-78 34.5t-95.5 32.5t-95 39
q-113 41 -176 129.5t-63 220.5q0 136 70 222.5t186 119.5v2q-76 34 -120 88t-44 146q0 129 87 211t251 82q177 0 293 -101v-172h-6q-50 60 -126 95.5t-149 35.5q-85 0 -128.5 -40t-43.5 -107q0 -37 13.5 -66t32 -47t54.5 -35.5t61.5 -26.5t74.5 -24t75 -24
q124 -34 195.5 -127.5t71.5 -231.5zM778 563q0 104 -62.5 169t-170.5 65q-106 0 -172 -60t-66 -174q0 -105 62 -170t172 -65q106 0 171.5 60t65.5 175z" />
    <glyph glyph-name="dieresis" unicode="&#xa8;" horiz-adv-x="1024" 
d="M389 1362h-180v174h180v-174zM813 1362h-180v174h180v-174z" />
    <glyph glyph-name="dieresis" unicode="&#x308;" horiz-adv-x="1024" 
d="M389 1362h-180v174h180v-174zM813 1362h-180v174h180v-174z" />
    <glyph glyph-name="copyright" unicode="&#xa9;" horiz-adv-x="1589" 
d="M811 246q-167 0 -275 120t-108 332q0 209 105 330t274 121q151 0 260 -88v-148h-6q-40 49 -102 78t-128 29q-123 0 -194.5 -86t-71.5 -236q0 -149 73 -236t196 -87q69 0 130 29t103 77h4v-145q-111 -90 -260 -90zM793 -37q-112 0 -214.5 30t-190 91.5t-152.5 148
t-101.5 206t-36.5 259.5q0 139 36 258.5t100.5 206.5t152.5 148.5t192 92t218 30.5q140 0 265 -49t221 -139.5t152 -232t56 -315.5q0 -173 -55.5 -314t-151 -232t-221.5 -140t-270 -49zM791 61q122 0 228 40.5t187 118t127.5 200.5t46.5 278q0 152 -45 274.5t-124 201.5
t-183.5 121t-226.5 42t-228.5 -40.5t-188 -118.5t-128.5 -201.5t-47 -278.5q0 -151 45 -273.5t124.5 -201t185 -120.5t227.5 -42z" />
    <glyph glyph-name="ordfeminine" unicode="&#xaa;" horiz-adv-x="739" 
d="M633 307h-527v121h527v-121zM635 604h-131v53h-2q-84 -77 -201 -77q-98 0 -162.5 58t-64.5 155q0 100 66 159.5t184 59.5q104 0 176 -43v65q0 80 -48.5 119t-127.5 39q-60 0 -114 -24.5t-89 -63.5h-6v127q104 74 235 74q127 0 206 -68.5t79 -204.5v-428zM500 750v127
q-61 41 -142 41q-71 0 -110 -31.5t-39 -87.5q0 -50 35.5 -82.5t101.5 -32.5q91 0 154 66z" />
    <glyph glyph-name="guillemotleft" unicode="&#xab;" horiz-adv-x="950" 
d="M524 145h-164l-276 392v12l276 391h164l-264 -397zM866 145h-164l-276 392v12l276 391h164l-264 -397z" />
    <glyph glyph-name="logicalnot" unicode="&#xac;" 
d="M989 362h-137v353h-735v135h872v-488z" />
    <glyph glyph-name="registered" unicode="&#xae;" horiz-adv-x="1589" 
d="M653 268h-133v858h260q136 0 217.5 -65.5t81.5 -186.5q0 -96 -52.5 -154.5t-178.5 -94.5v-2l321 -355h-161l-334 396v6q153 22 211.5 67t58.5 121q0 70 -49 111t-135 41h-107v-742zM793 -37q-112 0 -214.5 30t-190 91.5t-152.5 148t-101.5 206t-36.5 259.5
q0 139 36 258.5t100.5 206.5t152.5 148.5t192 92t218 30.5q140 0 265 -49t221 -139.5t152 -232t56 -315.5q0 -173 -55.5 -314t-151 -232t-221.5 -140t-270 -49zM791 61q122 0 228 40.5t187 118t127.5 200.5t46.5 278q0 152 -45 274.5t-124 201.5t-183.5 121t-226.5 42
t-228.5 -40.5t-188 -118.5t-128.5 -201.5t-47 -278.5q0 -151 45 -273.5t124.5 -201t185 -120.5t227.5 -42z" />
    <glyph glyph-name="macron" unicode="&#xaf;" horiz-adv-x="1024" 
d="M842 1368h-660v137h660v-137z" />
    <glyph glyph-name="macron" unicode="&#x304;" horiz-adv-x="1024" 
d="M842 1368h-660v137h660v-137z" />
    <glyph glyph-name="macron" unicode="&#x2c9;" horiz-adv-x="1024" 
d="M842 1368h-660v137h660v-137z" />
    <glyph glyph-name="degree" unicode="&#xb0;" horiz-adv-x="638" 
d="M584 1180q0 -111 -74 -179.5t-191 -68.5q-114 0 -189 68.5t-75 179.5t75 179t192 68q114 0 188 -68t74 -179zM459 1180q0 70 -37.5 111.5t-99.5 41.5q-63 0 -101.5 -41.5t-38.5 -111.5t37.5 -112t99.5 -42q63 0 101.5 42t38.5 112z" />
    <glyph glyph-name="plusminus" unicode="&#xb1;" 
d="M989 168h-872v137h872v-137zM621 403h-136v273h-368v135h366v299h138v-299h368v-135h-368v-273z" />
    <glyph glyph-name="twosuperior" unicode="&#xb2;" horiz-adv-x="716" 
d="M678 604h-627v92q230 192 312.5 303t82.5 226q0 89 -46.5 139.5t-123.5 50.5q-115 0 -202 -90h-4v135q103 76 231 76q127 0 208 -78t81 -217q0 -37 -4.5 -70t-17 -66t-22.5 -57.5t-34 -57.5t-37 -51.5t-46.5 -53t-48 -49.5t-55 -54.5t-55.5 -54.5v-2h408v-121z" />
    <glyph glyph-name="threesuperior" unicode="&#xb3;" horiz-adv-x="716" 
d="M649 836q0 -122 -84.5 -189t-220.5 -67q-148 0 -252 71v135h4q40 -41 102.5 -64.5t123.5 -23.5q82 0 134 40.5t52 115.5q0 67 -50.5 105t-138.5 38h-124v121h139q119 43 119 148q0 69 -44.5 109t-117.5 40q-112 0 -189 -86h-4v137q99 70 224 70q121 0 197.5 -67
t76.5 -183q0 -148 -137 -217q82 -16 136 -76.5t54 -156.5z" />
    <glyph glyph-name="acute" unicode="&#xb4;" horiz-adv-x="1024" 
d="M449 1141h-158l256 395h186z" />
    <glyph glyph-name="acute" unicode="&#x301;" horiz-adv-x="1024" 
d="M449 1141h-158l256 395h186z" />
    <glyph glyph-name="acute" unicode="&#x2ca;" horiz-adv-x="1024" 
d="M449 1141h-158l256 395h186z" />
    <glyph glyph-name="mu" unicode="&#xb5;" horiz-adv-x="1218" 
d="M1042 0h-168v86h-2q-54 -56 -127 -89.5t-149 -33.5q-190 0 -262 133h-4q15 -192 22 -413l-172 -78h-4v1431h176v-643q0 -137 70.5 -203.5t185.5 -66.5q168 0 258 141v772h176v-1036z" />
    <glyph glyph-name="paragraph" unicode="&#xb6;" horiz-adv-x="1196" 
d="M989 -291h-178v750q-155 13 -274.5 43.5t-200 75t-131.5 105t-73.5 130t-22.5 154.5q0 108 38.5 192t106 135t155.5 77t191 26h389v-1688z" />
    <glyph glyph-name="periodcentered" unicode="&#xb7;" horiz-adv-x="552" 
d="M375 440h-193v209h193v-209z" />
    <glyph glyph-name="periodcentered" unicode="&#x2219;" horiz-adv-x="552" 
d="M375 440h-193v209h193v-209z" />
    <glyph glyph-name="cedilla" unicode="&#xb8;" horiz-adv-x="1024" 
d="M717 -244q0 -71 -61 -111t-162 -40q-113 0 -187 35v100h6q65 -43 152 -43q106 0 106 63q0 41 -43 57t-135 21l43 162h129l-26 -94q178 -25 178 -150z" />
    <glyph glyph-name="cedilla" unicode="&#x327;" horiz-adv-x="1024" 
d="M717 -244q0 -71 -61 -111t-162 -40q-113 0 -187 35v100h6q65 -43 152 -43q106 0 106 63q0 41 -43 57t-135 21l43 162h129l-26 -94q178 -25 178 -150z" />
    <glyph glyph-name="onesuperior" unicode="&#xb9;" horiz-adv-x="716" 
d="M487 604h-139v768l-201 -67h-4v131l340 100h4v-932z" />
    <glyph glyph-name="ordmasculine" unicode="&#xba;" horiz-adv-x="782" 
d="M655 307h-528v121h528v-121zM592 940q0 112 -55 177t-144 65q-92 0 -148.5 -64t-56.5 -178q0 -109 56 -174.5t145 -65.5q91 0 147 64t56 176zM733 940q0 -166 -96 -263t-248 -97q-149 0 -244.5 97t-95.5 263q0 169 95.5 267t248.5 98q149 0 244.5 -98t95.5 -267z" />
    <glyph glyph-name="guillemotright" unicode="&#xbb;" horiz-adv-x="950" 
d="M248 145h-164l264 398l-264 397h164l276 -391v-12zM590 145h-164l264 398l-264 397h164l276 -391v-12z" />
    <glyph glyph-name="onequarter" unicode="&#xbc;" horiz-adv-x="1587" 
d="M1571 188h-129v-188h-139v188h-410v93l448 651h101v-633h129v-111zM1307 299v406h-2l-273 -404v-2h275zM487 489h-139v768l-201 -67h-4v131l340 100h4v-932zM504 0h-146l768 1397h146z" />
    <glyph glyph-name="onehalf" unicode="&#xbd;" horiz-adv-x="1697" 
d="M1661 0h-627v92q231 193 313.5 303.5t82.5 225.5q0 89 -46.5 139.5t-123.5 50.5q-116 0 -203 -90h-4v135q103 76 231 76q127 0 208 -78t81 -217q0 -37 -4.5 -70t-17 -66t-22.5 -57.5t-34 -57.5t-37 -51.5t-46.5 -53t-48 -49.5t-55 -54.5t-55.5 -54.5v-2h408v-121z
M487 489h-139v768l-201 -67h-4v131l340 100h4v-932zM504 0h-146l768 1397h146z" />
    <glyph glyph-name="threequarters" unicode="&#xbe;" horiz-adv-x="1636" 
d="M1620 188h-129v-188h-139v188h-410v93l449 651h100v-633h129v-111zM649 721q0 -122 -84.5 -189t-220.5 -67q-146 0 -252 72v135h4q40 -41 102.5 -64.5t123.5 -23.5q82 0 134 40t52 115q0 67 -50.5 105.5t-138.5 38.5h-124v121h139q119 43 119 147q0 69 -44.5 109
t-117.5 40q-112 0 -189 -86h-4v138q97 69 224 69q121 0 197.5 -67t76.5 -183q0 -149 -137 -217q82 -16 136 -76.5t54 -156.5zM553 0h-145l768 1397h145zM1356 299v406h-2l-273 -404v-2h275z" />
    <glyph glyph-name="questiondown" unicode="&#xbf;" horiz-adv-x="1001" 
d="M479 614h152l4 -231q-83 -83 -131.5 -137t-94.5 -118t-65.5 -123.5t-19.5 -123.5q0 -62 20 -109t55 -73.5t77.5 -39.5t92.5 -13q95 0 184 36t150 105h8v-184q-147 -117 -372 -117q-184 0 -296 94t-112 268q0 65 18 127.5t44 113.5t75 113.5t92.5 109t114.5 118.5z
M465 1036h180v-198h-180v198z" />
    <glyph glyph-name="Agrave" unicode="&#xc0;" horiz-adv-x="1366" 
d="M1335 0h-207l-170 436h-557l-170 -436h-198l565 1419l-174 219h190l131 -204h17zM897 602l-217 561h-2l-215 -561h434z" />
    <glyph glyph-name="Aacute" unicode="&#xc1;" horiz-adv-x="1366" 
d="M1335 0h-207l-170 436h-557l-170 -436h-198l571 1434h14l134 204h190l-174 -219zM897 602l-217 561h-2l-215 -561h434z" />
    <glyph glyph-name="Acircumflex" unicode="&#xc2;" horiz-adv-x="1366" 
d="M1335 0h-207l-170 436h-557l-170 -436h-198l571 1434h158zM897 602l-217 561h-2l-215 -561h434zM958 1397h-153l-119 147h-2l-121 -147h-153l204 262h140z" />
    <glyph glyph-name="Atilde" unicode="&#xc3;" horiz-adv-x="1366" 
d="M1335 0h-207l-170 436h-557l-170 -436h-198l571 1434h158zM897 602l-217 561h-2l-215 -561h434zM819 1436q-38 0 -88 26t-95.5 52t-72.5 26q-18 0 -30.5 -5.5t-22.5 -21.5t-15 -26t-15 -38q-3 -9 -5 -13h-119q16 54 30 88.5t36 68t53.5 49t73.5 15.5q39 0 88.5 -26.5
t94.5 -52.5t73 -26q8 0 15 1.5t13 3t11 6.5t9 7.5t8.5 10.5t6.5 11.5t6.5 14t6 15t6 17.5t6.5 18h119q-32 -114 -72 -167.5t-121 -53.5z" />
    <glyph glyph-name="Adieresis" unicode="&#xc4;" horiz-adv-x="1366" 
d="M1335 0h-207l-170 436h-557l-170 -436h-198l571 1434h158zM897 602l-217 561h-2l-215 -561h434zM561 1499h-180v158h180v-158zM985 1499h-180v158h180v-158z" />
    <glyph glyph-name="Aring" unicode="&#xc5;" horiz-adv-x="1366" 
d="M909 1581q0 -66 -37.5 -110t-99.5 -62l563 -1409h-207l-170 436h-557l-170 -436h-198l561 1407q-63 18 -100 62t-37 112q0 87 65 133.5t164 46.5q96 0 159.5 -46.5t63.5 -133.5zM897 602l-217 561h-2l-215 -561h434zM795 1581q0 41 -32 65.5t-79 24.5q-49 0 -82 -24.5
t-33 -65.5q0 -45 32.5 -69.5t82.5 -24.5q48 0 79.5 24.5t31.5 69.5z" />
    <glyph glyph-name="AE" unicode="&#xc6;" horiz-adv-x="1873" 
d="M1735 0h-768v567h-396l-333 -567h-218l820 1397h841v-176h-528v-451h508v-176h-508v-418h582v-176zM963 1251l-299 -508h303v508h-4z" />
    <glyph glyph-name="Ccedilla" unicode="&#xc7;" horiz-adv-x="1255" 
d="M911 -244q0 -71 -61 -111t-162 -40q-112 0 -186 35v100h6q65 -43 151 -43q107 0 107 63q0 41 -43 57t-135 21l35 133q-114 16 -209 71.5t-166 145.5t-110.5 221t-39.5 289q0 171 46.5 310.5t129 232.5t195.5 143t246 50q253 0 422 -150v-225h-9q-68 94 -169 145t-216 51
q-205 0 -326.5 -150t-121.5 -407q0 -255 124.5 -406t332.5 -151q116 0 217.5 53t167.5 144h8v-225q-163 -141 -395 -150l-17 -57q178 -25 178 -150z" />
    <glyph glyph-name="Egrave" unicode="&#xc8;" horiz-adv-x="1112" 
d="M973 0h-770v1397h303l-193 241h191l155 -241h261v-176h-529v-414h508v-178h-508v-453h582v-176z" />
    <glyph glyph-name="Eacute" unicode="&#xc9;" horiz-adv-x="1112" 
d="M973 0h-770v1397h272l156 241h190l-192 -241h291v-176h-529v-414h508v-178h-508v-453h582v-176z" />
    <glyph glyph-name="Ecircumflex" unicode="&#xca;" horiz-adv-x="1112" 
d="M829 1397h91v-176h-529v-414h508v-178h-508v-453h582v-176h-770v1397h78l204 262h140zM555 1544l-121 -147h242l-119 147h-2z" />
    <glyph glyph-name="Edieresis" unicode="&#xcb;" horiz-adv-x="1112" 
d="M432 1499h-180v158h180v-158zM856 1499h-180v158h180v-158zM973 0h-770v1397h717v-176h-529v-414h508v-178h-508v-453h582v-176z" />
    <glyph glyph-name="Igrave" unicode="&#xcc;" horiz-adv-x="598" 
d="M375 1397h16v-1397h-186v1397h16l-192 241h190z" />
    <glyph glyph-name="Iacute" unicode="&#xcd;" horiz-adv-x="598" 
d="M375 1397h16v-1397h-186v1397h16l156 241h190z" />
    <glyph glyph-name="Icircumflex" unicode="&#xce;" horiz-adv-x="598" 
d="M391 0h-186v1397h186v-1397zM573 1397h-153l-119 147h-2l-121 -147h-153l204 262h140z" />
    <glyph glyph-name="Idieresis" unicode="&#xcf;" horiz-adv-x="598" 
d="M391 0h-186v1397h186v-1397zM178 1499h-180v158h180v-158zM602 1499h-180v158h180v-158z" />
    <glyph glyph-name="Eth" unicode="&#xd0;" horiz-adv-x="1456" 
d="M1360 698q0 -171 -57 -306.5t-155.5 -220t-226 -128t-274.5 -43.5h-444v643h-203v150h203v604h444q116 0 221 -27t195.5 -84t156 -138.5t103 -196.5t37.5 -253zM1167 698q0 127 -40 228t-110.5 164.5t-165 97t-206.5 33.5h-254v-428h383v-150h-383v-467h254
q150 0 266 56.5t186 176.5t70 289z" />
    <glyph glyph-name="Ntilde" unicode="&#xd1;" horiz-adv-x="1548" 
d="M903 1436q-38 0 -88 26t-95.5 52t-72.5 26q-18 0 -30.5 -5.5t-22.5 -21.5t-15 -26t-15 -38q-3 -9 -5 -13h-119q16 54 30 88.5t36 68t53.5 49t73.5 15.5q39 0 88.5 -26.5t94.5 -52.5t73 -26q8 0 15 1.5t13 3t11 6.5t9 7.5t8.5 10.5t6.5 11.5t6.5 14t6 15t6 17.5t6.5 18
h119q-32 -114 -72 -167.5t-121 -53.5zM1346 -25h-146l-807 1047h-2v-1022h-188v1311l-56 75v11h201l809 -1061h2v1061h187v-1422z" />
    <glyph glyph-name="Ograve" unicode="&#xd2;" horiz-adv-x="1519" 
d="M1421 698q0 -173 -52.5 -314t-143.5 -232t-210.5 -140t-256.5 -49q-133 0 -251.5 48.5t-210 139t-145 232t-53.5 315.5q0 158 43.5 289.5t121 221.5t180 146t223.5 72l-168 211h190l133 -208q124 -10 231.5 -63t190.5 -143t130.5 -226t47.5 -300zM1227 698
q0 133 -36.5 241t-100 177.5t-147.5 106.5t-181 37t-181 -36.5t-148 -105t-101 -177t-37 -243.5q0 -264 131.5 -412.5t331.5 -148.5q97 0 181.5 36.5t149 105t101.5 176.5t37 243z" />
    <glyph glyph-name="Oacute" unicode="&#xd3;" horiz-adv-x="1519" 
d="M1421 698q0 -173 -52.5 -314t-143.5 -232t-210.5 -140t-256.5 -49q-133 0 -251.5 48.5t-210 139t-145 232t-53.5 315.5q0 162 46.5 296.5t127.5 225.5t189 145t233 65l135 208h191l-168 -211q119 -16 221.5 -71t180.5 -144.5t122.5 -222t44.5 -291.5zM1227 698
q0 133 -36.5 241t-100 177.5t-147.5 106.5t-181 37t-181 -36.5t-148 -105t-101 -177t-37 -243.5q0 -264 131.5 -412.5t331.5 -148.5q97 0 181.5 36.5t149 105t101.5 176.5t37 243z" />
    <glyph glyph-name="Ocircumflex" unicode="&#xd4;" horiz-adv-x="1519" 
d="M1034 1397h-51q197 -69 317.5 -249.5t120.5 -449.5q0 -173 -52.5 -314t-143.5 -232t-210.5 -140t-256.5 -49q-133 0 -251.5 48.5t-210 139t-145 232t-53.5 315.5q0 268 120 449t317 250h-50l205 262h139zM1227 698q0 133 -36.5 241t-100 177.5t-147.5 106.5t-181 37
t-181 -36.5t-148 -105t-101 -177t-37 -243.5q0 -264 131.5 -412.5t331.5 -148.5q97 0 181.5 36.5t149 105t101.5 176.5t37 243zM762 1434q40 0 94 -7l-94 117h-2l-96 -119q70 9 98 9z" />
    <glyph glyph-name="Otilde" unicode="&#xd5;" horiz-adv-x="1519" 
d="M901 1436q-38 0 -88 26t-95.5 52t-72.5 26q-18 0 -30.5 -5.5t-22.5 -21.5t-15 -26t-15 -38q-3 -9 -5 -13h-119q16 54 30 88.5t36 68t53.5 49t73.5 15.5q39 0 88.5 -26.5t94.5 -52.5t73 -26q8 0 15 1.5t13 3t11 6.5t9 7.5t8.5 10.5t6.5 11.5t6.5 14t6 15t6 17.5t6.5 18
h119q-32 -114 -72 -167.5t-121 -53.5zM1421 698q0 -173 -52.5 -314t-143.5 -232t-210.5 -140t-256.5 -49q-133 0 -251.5 48.5t-210 139t-145 232t-53.5 315.5q0 139 34 258.5t95.5 206.5t144.5 148.5t182 92t208 30.5q133 0 251.5 -49t209.5 -139.5t144.5 -232t53.5 -315.5z
M1227 698q0 133 -36.5 241t-100 177.5t-147.5 106.5t-181 37t-181 -36.5t-148 -105t-101 -177t-37 -243.5q0 -264 131.5 -412.5t331.5 -148.5q97 0 181.5 36.5t149 105t101.5 176.5t37 243z" />
    <glyph glyph-name="Odieresis" unicode="&#xd6;" horiz-adv-x="1519" 
d="M637 1499h-180v158h180v-158zM1061 1499h-180v158h180v-158zM1421 698q0 -173 -52.5 -314t-143.5 -232t-210.5 -140t-256.5 -49q-133 0 -251.5 48.5t-210 139t-145 232t-53.5 315.5q0 139 34 258.5t95.5 206.5t144.5 148.5t182 92t208 30.5q133 0 251.5 -49t209.5 -139.5
t144.5 -232t53.5 -315.5zM1227 698q0 133 -36.5 241t-100 177.5t-147.5 106.5t-181 37t-181 -36.5t-148 -105t-101 -177t-37 -243.5q0 -264 131.5 -412.5t331.5 -148.5q97 0 181.5 36.5t149 105t101.5 176.5t37 243z" />
    <glyph glyph-name="multiply" unicode="&#xd7;" 
d="M932 285l-96 -97l-285 283l-283 -281l-96 93l285 284l-285 283l96 96l283 -282l287 284l94 -94l-285 -287z" />
    <glyph glyph-name="Oslash" unicode="&#xd8;" horiz-adv-x="1519" 
d="M287 -37h-189l168 221q-168 199 -168 514q0 173 53 314.5t144 232.5t211 140t256 49q215 0 381 -119l90 119h188l-168 -222q168 -203 168 -514q0 -173 -52.5 -314t-143.5 -232t-210.5 -140t-256.5 -49q-215 0 -381 119zM1227 698q0 218 -94 361l-646 -830
q113 -88 271 -88q97 0 181.5 36t149 103.5t101.5 175t37 242.5zM295 698q0 -214 90 -356l645 827q-117 88 -268 88q-97 0 -180.5 -36t-148 -104t-101.5 -176t-37 -243z" />
    <glyph glyph-name="Ugrave" unicode="&#xd9;" horiz-adv-x="1341" 
d="M748 1397h-154l-193 241h191zM672 -37q-226 0 -358 119t-132 340v975h189v-951q0 -153 78 -230t219 -77t220 77t79 230v951h190v-975q0 -222 -130.5 -340.5t-354.5 -118.5z" />
    <glyph glyph-name="Uacute" unicode="&#xda;" horiz-adv-x="1341" 
d="M731 1397h-153l155 241h191zM672 -37q-226 0 -358 119t-132 340v975h189v-951q0 -153 78 -230t219 -77t220 77t79 230v951h190v-975q0 -222 -130.5 -340.5t-354.5 -118.5z" />
    <glyph glyph-name="Ucircumflex" unicode="&#xdb;" horiz-adv-x="1341" 
d="M672 -37q-226 0 -358 119t-132 340v975h189v-951q0 -153 78 -230t219 -77t220 77t79 230v951h190v-975q0 -222 -130.5 -340.5t-354.5 -118.5zM940 1397h-154l-118 147h-2l-121 -147h-154l205 262h139z" />
    <glyph glyph-name="Udieresis" unicode="&#xdc;" horiz-adv-x="1341" 
d="M545 1499h-180v158h180v-158zM969 1499h-181v158h181v-158zM672 -37q-226 0 -358 119t-132 340v975h189v-951q0 -153 78 -230t219 -77t220 77t79 230v951h190v-975q0 -222 -130.5 -340.5t-354.5 -118.5z" />
    <glyph glyph-name="Yacute" unicode="&#xdd;" horiz-adv-x="1214" 
d="M700 0h-186v575l-496 822h224l364 -629h2l369 629h219l-496 -822v-575zM678 1397h-154l156 241h190z" />
    <glyph glyph-name="Thorn" unicode="&#xde;" horiz-adv-x="1200" 
d="M1094 844q0 -107 -36.5 -191.5t-117 -153t-218.5 -111.5t-331 -58v-330h-188v1397h188v-123h209q103 0 191.5 -27t156.5 -79t107 -135.5t39 -188.5zM901 829q0 128 -86 199.5t-227 71.5h-197v-594q141 7 243 34.5t158.5 72.5t82.5 98t26 118z" />
    <glyph glyph-name="germandbls" unicode="&#xdf;" horiz-adv-x="1267" 
d="M795 -37q-198 0 -316 100v181h6q52 -64 133 -98.5t164 -34.5q92 0 142.5 38.5t50.5 106.5q0 43 -21 76.5t-55.5 54t-79 41t-90.5 37.5t-90.5 44t-79 60t-55.5 86.5t-21 122.5q0 66 21.5 118t55.5 84.5t75.5 58.5t82.5 47t75 43t55.5 53t21.5 71q0 69 -60.5 104.5
t-168.5 35.5q-128 0 -201 -52.5t-73 -162.5v-1178h-177v881h-90v8l90 147v162q0 163 120 257.5t333 94.5q197 0 305.5 -73.5t108.5 -210.5q0 -60 -22 -107t-57.5 -77t-78 -54.5t-85 -46t-78 -45.5t-57.5 -59t-22 -80q0 -46 21 -81t55.5 -55.5t79 -41t90.5 -36.5t90.5 -43
t79 -60t55.5 -88t21 -126q0 -135 -92 -219t-262 -84z" />
    <glyph glyph-name="agrave" unicode="&#xe0;" horiz-adv-x="1116" 
d="M952 0h-172v82h-2q-132 -119 -311 -119q-152 0 -250 88.5t-98 237.5q0 153 101.5 244.5t283.5 91.5q155 0 272 -70v104q0 131 -76.5 195t-201.5 64q-91 0 -173.5 -41t-136.5 -105h-6v184q145 117 350 117q189 0 304.5 -102t115.5 -305v-666zM776 233v179q-100 65 -241 65
q-115 0 -177.5 -46t-62.5 -132q0 -79 59 -130.5t168 -51.5q151 0 254 116zM637 1143h-158l-284 393h190z" />
    <glyph glyph-name="aacute" unicode="&#xe1;" horiz-adv-x="1116" 
d="M952 0h-172v82h-2q-132 -119 -311 -119q-152 0 -250 88.5t-98 237.5q0 153 101.5 244.5t283.5 91.5q155 0 272 -70v104q0 131 -76.5 195t-201.5 64q-91 0 -173.5 -41t-136.5 -105h-6v184q145 117 350 117q189 0 304.5 -102t115.5 -305v-666zM776 233v179q-100 65 -241 65
q-115 0 -177.5 -46t-62.5 -132q0 -79 59 -130.5t168 -51.5q151 0 254 116zM621 1141h-158l256 395h186z" />
    <glyph glyph-name="acircumflex" unicode="&#xe2;" horiz-adv-x="1116" 
d="M952 0h-172v82h-2q-132 -119 -311 -119q-152 0 -250 88.5t-98 237.5q0 153 101.5 244.5t283.5 91.5q155 0 272 -70v104q0 131 -76.5 195t-201.5 64q-91 0 -173.5 -41t-136.5 -105h-6v184q145 117 350 117q189 0 304.5 -102t115.5 -305v-666zM776 233v179q-100 65 -241 65
q-115 0 -177.5 -46t-62.5 -132q0 -79 59 -130.5t168 -51.5q151 0 254 116zM907 1143h-157l-195 272h-2l-197 -272h-157l290 407h127z" />
    <glyph glyph-name="atilde" unicode="&#xe3;" horiz-adv-x="1116" 
d="M952 0h-172v82h-2q-132 -119 -311 -119q-152 0 -250 88.5t-98 237.5q0 153 101.5 244.5t283.5 91.5q155 0 272 -70v104q0 131 -76.5 195t-201.5 64q-91 0 -173.5 -41t-136.5 -105h-6v184q145 117 350 117q189 0 304.5 -102t115.5 -305v-666zM776 233v179q-100 65 -241 65
q-115 0 -177.5 -46t-62.5 -132q0 -79 59 -130.5t168 -51.5q151 0 254 116zM719 1257q-40 0 -86.5 23t-81 50t-75 50t-70.5 23q-38 0 -60 -34t-47 -112h-117q31 142 78 210.5t131 68.5q40 0 86.5 -22.5t81.5 -50t75.5 -50t70.5 -22.5q39 0 60 32.5t46 112.5h117
q-31 -143 -78 -211t-131 -68z" />
    <glyph glyph-name="adieresis" unicode="&#xe4;" horiz-adv-x="1116" 
d="M952 0h-172v82h-2q-132 -119 -311 -119q-152 0 -250 88.5t-98 237.5q0 153 101.5 244.5t283.5 91.5q155 0 272 -70v104q0 131 -76.5 195t-201.5 64q-91 0 -173.5 -41t-136.5 -105h-6v184q145 117 350 117q189 0 304.5 -102t115.5 -305v-666zM776 233v179q-100 65 -241 65
q-115 0 -177.5 -46t-62.5 -132q0 -79 59 -130.5t168 -51.5q151 0 254 116zM430 1362h-180v174h180v-174zM854 1362h-180v174h180v-174z" />
    <glyph glyph-name="aring" unicode="&#xe5;" horiz-adv-x="1116" 
d="M952 0h-172v82h-2q-132 -119 -311 -119q-152 0 -250 88.5t-98 237.5q0 153 101.5 244.5t283.5 91.5q155 0 272 -70v104q0 131 -76.5 195t-201.5 64q-91 0 -173.5 -41t-136.5 -105h-6v184q145 117 350 117q189 0 304.5 -102t115.5 -305v-666zM776 233v179q-100 65 -241 65
q-115 0 -177.5 -46t-62.5 -132q0 -79 59 -130.5t168 -51.5q151 0 254 116zM795 1376q0 -95 -68 -145.5t-168 -50.5t-165.5 50.5t-65.5 145.5q0 94 67 144.5t168 50.5q98 0 165 -50.5t67 -144.5zM672 1376q0 47 -30.5 75t-80.5 28q-51 0 -83 -28t-32 -75q0 -51 31.5 -78.5
t83.5 -27.5q51 0 81 27.5t30 78.5z" />
    <glyph glyph-name="ae" unicode="&#xe6;" horiz-adv-x="1808" 
d="M1294 -37q-130 0 -236.5 47t-174.5 137h-4q-161 -184 -412 -184q-152 0 -250 88.5t-98 237.5q0 153 101.5 244.5t283.5 91.5q155 0 272 -70v107q0 131 -77 193.5t-201 62.5q-91 0 -173 -40.5t-137 -103.5h-6v182q145 117 350 117q254 0 347 -194h4q54 93 149.5 143.5
t216.5 50.5q197 0 329 -132.5t132 -346.5q0 -71 -4 -102h-754q6 -179 107.5 -277t269.5 -98q98 0 184.5 40t141.5 103h6v-180q-69 -56 -164.5 -86.5t-202.5 -30.5zM522 117q86 0 163.5 37.5t131.5 105.5q-34 86 -39 150q-101 67 -235 67q-120 0 -184 -45t-64 -135
q0 -79 58 -129.5t169 -50.5zM1528 639q-6 125 -83.5 202t-197.5 77t-198 -72t-95 -207h574z" />
    <glyph glyph-name="ccedilla" unicode="&#xe7;" horiz-adv-x="960" 
d="M745 -244q0 -71 -61 -111t-162 -40q-112 0 -186 35v100h6q65 -43 152 -43q106 0 106 63q0 41 -43 57t-135 21l35 135q-168 32 -273.5 174.5t-105.5 370.5q0 257 132.5 406t338.5 149q195 0 319 -112v-193h-6q-48 66 -123.5 106.5t-163.5 40.5q-142 0 -226.5 -108.5
t-84.5 -288.5q0 -182 88.5 -289.5t239.5 -107.5q84 0 156.5 41.5t119.5 107.5h6v-192q-123 -104 -290 -113l-17 -59q178 -25 178 -150z" />
    <glyph glyph-name="egrave" unicode="&#xe8;" horiz-adv-x="1120" 
d="M975 80q-149 -117 -367 -117q-233 0 -381.5 147t-148.5 408q0 258 133.5 406.5t351.5 148.5q197 0 329 -133.5t132 -347.5q0 -38 -4 -100h-754q7 -179 107.5 -276t267.5 -97q100 0 185.5 39t142.5 102h6v-180zM840 639q-3 121 -80.5 200t-196.5 79q-122 0 -201 -73
t-96 -206h574zM629 1143h-158l-285 393h191z" />
    <glyph glyph-name="eacute" unicode="&#xe9;" horiz-adv-x="1120" 
d="M623 1141h-158l256 395h186zM975 80q-149 -117 -367 -117q-233 0 -381.5 147t-148.5 408q0 258 133.5 406.5t351.5 148.5q197 0 329 -133.5t132 -347.5q0 -38 -4 -100h-754q7 -179 107.5 -276t267.5 -97q100 0 185.5 39t142.5 102h6v-180zM840 639q-3 121 -80.5 200
t-196.5 79q-122 0 -201 -73t-96 -206h574z" />
    <glyph glyph-name="ecircumflex" unicode="&#xea;" horiz-adv-x="1120" 
d="M913 1143h-157l-195 272h-2l-197 -272h-157l291 407h127zM975 80q-149 -117 -367 -117q-233 0 -381.5 147t-148.5 408q0 258 133.5 406.5t351.5 148.5q197 0 329 -133.5t132 -347.5q0 -38 -4 -100h-754q7 -179 107.5 -276t267.5 -97q100 0 185.5 39t142.5 102h6v-180z
M840 639q-3 121 -80.5 200t-196.5 79q-122 0 -201 -73t-96 -206h574z" />
    <glyph glyph-name="edieresis" unicode="&#xeb;" horiz-adv-x="1120" 
d="M438 1362h-180v174h180v-174zM862 1362h-180v174h180v-174zM975 80q-149 -117 -367 -117q-233 0 -381.5 147t-148.5 408q0 258 133.5 406.5t351.5 148.5q197 0 329 -133.5t132 -347.5q0 -38 -4 -100h-754q7 -179 107.5 -276t267.5 -97q100 0 185.5 39t142.5 102h6v-180z
M840 639q-3 121 -80.5 200t-196.5 79q-122 0 -201 -73t-96 -206h574z" />
    <glyph glyph-name="igrave" unicode="&#xec;" horiz-adv-x="528" 
d="M352 0h-176v1036h176v-1036zM334 1143h-158l-285 393h191z" />
    <glyph glyph-name="iacute" unicode="&#xed;" horiz-adv-x="528" 
d="M352 0h-176v1036h176v-1036zM348 1141h-158l256 395h187z" />
    <glyph glyph-name="icircumflex" unicode="&#xee;" horiz-adv-x="528" 
d="M352 0h-176v1036h176v-1036zM618 1143h-157l-195 272h-2l-196 -272h-158l291 407h127z" />
    <glyph glyph-name="idieresis" unicode="&#xef;" horiz-adv-x="528" 
d="M352 0h-176v1036h176v-1036zM143 1362h-180v174h180v-174zM567 1362h-180v174h180v-174z" />
    <glyph glyph-name="eth" unicode="&#xf0;" horiz-adv-x="1187" 
d="M952 1309l-200 -43l231 -353q65 -99 97 -192t32 -205q0 -256 -146.5 -404.5t-373.5 -148.5q-109 0 -202.5 37.5t-163 106.5t-109 174.5t-39.5 234.5q0 235 131 385t342 150q78 0 145 -25l-131 201l-301 -62v150l217 45l-110 172v4h207l88 -137l286 59v-149zM924 516
q0 181 -90 283t-238 102q-149 0 -240.5 -101t-91.5 -284q0 -182 90.5 -288.5t237.5 -106.5q149 0 240.5 105.5t91.5 289.5z" />
    <glyph glyph-name="ntilde" unicode="&#xf1;" horiz-adv-x="1232" 
d="M1067 0h-176v643q0 134 -72 202t-192 68q-164 0 -275 -127v-786h-176v1036h174v-86h2q136 123 326 123q170 0 279.5 -96t109.5 -279v-698zM786 1257q-40 0 -86.5 23t-81 50t-75 50t-70.5 23q-38 0 -59.5 -33.5t-46.5 -112.5h-117q31 142 78 210.5t131 68.5
q40 0 86.5 -22.5t81 -50t75 -50t70.5 -22.5q39 0 60.5 33t46.5 112h116q-31 -143 -78 -211t-131 -68z" />
    <glyph glyph-name="ograve" unicode="&#xf2;" horiz-adv-x="1187" 
d="M924 518q0 185 -90.5 292.5t-237.5 107.5q-148 0 -240 -106.5t-92 -293.5q0 -185 90.5 -291t237.5 -106q149 0 240.5 105t91.5 292zM1112 518q0 -129 -39.5 -234.5t-109.5 -175.5t-165 -107.5t-206 -37.5q-109 0 -202.5 37.5t-163 107t-109 175t-39.5 235.5
q0 258 145.5 406.5t372.5 148.5q109 0 202.5 -37.5t163.5 -107t110 -175t40 -235.5zM672 1143h-158l-285 393h191z" />
    <glyph glyph-name="oacute" unicode="&#xf3;" horiz-adv-x="1187" 
d="M672 1141h-158l256 395h186zM924 518q0 185 -90.5 292.5t-237.5 107.5q-148 0 -240 -106.5t-92 -293.5q0 -185 90.5 -291t237.5 -106q149 0 240.5 105t91.5 292zM1112 518q0 -129 -39.5 -234.5t-109.5 -175.5t-165 -107.5t-206 -37.5q-109 0 -202.5 37.5t-163 107
t-109 175t-39.5 235.5q0 258 145.5 406.5t372.5 148.5q109 0 202.5 -37.5t163.5 -107t110 -175t40 -235.5z" />
    <glyph glyph-name="ocircumflex" unicode="&#xf4;" horiz-adv-x="1187" 
d="M948 1143h-157l-195 272h-2l-197 -272h-157l290 407h127zM924 518q0 185 -90.5 292.5t-237.5 107.5q-148 0 -240 -106.5t-92 -293.5q0 -185 90.5 -291t237.5 -106q149 0 240.5 105t91.5 292zM1112 518q0 -129 -39.5 -234.5t-109.5 -175.5t-165 -107.5t-206 -37.5
q-109 0 -202.5 37.5t-163 107t-109 175t-39.5 235.5q0 258 145.5 406.5t372.5 148.5q109 0 202.5 -37.5t163.5 -107t110 -175t40 -235.5z" />
    <glyph glyph-name="otilde" unicode="&#xf5;" horiz-adv-x="1187" 
d="M924 518q0 185 -90.5 292.5t-237.5 107.5q-148 0 -240 -106.5t-92 -293.5q0 -185 90.5 -291t237.5 -106q149 0 240.5 105t91.5 292zM1112 518q0 -129 -39.5 -234.5t-109.5 -175.5t-165 -107.5t-206 -37.5q-109 0 -202.5 37.5t-163 107t-109 175t-39.5 235.5
q0 258 145.5 406.5t372.5 148.5q109 0 202.5 -37.5t163.5 -107t110 -175t40 -235.5zM758 1257q-40 0 -86.5 23t-81.5 50t-75.5 50t-70.5 23q-38 0 -59.5 -33.5t-46.5 -112.5h-117q31 142 78 210.5t131 68.5q40 0 86.5 -22.5t81 -50t75 -50t70.5 -22.5q39 0 60.5 33t46.5 112
h117q-31 -143 -78 -211t-131 -68z" />
    <glyph glyph-name="odieresis" unicode="&#xf6;" horiz-adv-x="1187" 
d="M471 1362h-180v174h180v-174zM895 1362h-180v174h180v-174zM924 518q0 185 -90.5 292.5t-237.5 107.5q-148 0 -240 -106.5t-92 -293.5q0 -185 90.5 -291t237.5 -106q149 0 240.5 105t91.5 292zM1112 518q0 -129 -39.5 -234.5t-109.5 -175.5t-165 -107.5t-206 -37.5
q-109 0 -202.5 37.5t-163 107t-109 175t-39.5 235.5q0 258 145.5 406.5t372.5 148.5q109 0 202.5 -37.5t163.5 -107t110 -175t40 -235.5z" />
    <glyph glyph-name="divide" unicode="&#xf7;" 
d="M989 502h-872v135h872v-135zM641 100h-178v189h178v-189zM641 850h-178v188h178v-188z" />
    <glyph glyph-name="oslash" unicode="&#xf8;" horiz-adv-x="1187" 
d="M258 -37h-180l127 168q-127 149 -127 387q0 258 145.5 406.5t372.5 148.5q154 0 278 -76l56 76h182l-127 -170q127 -146 127 -385q0 -129 -39.5 -234.5t-109.5 -175.5t-165 -107.5t-206 -37.5q-153 0 -279 74zM264 518q0 -142 53 -237l457 583q-79 54 -178 54
q-148 0 -240 -106.5t-92 -293.5zM924 518q0 136 -54 236l-456 -582q76 -51 178 -51q149 0 240.5 105t91.5 292z" />
    <glyph glyph-name="ugrave" unicode="&#xf9;" horiz-adv-x="1193" 
d="M1030 1036v-657q0 -195 -116.5 -305.5t-317.5 -110.5q-199 0 -315.5 110t-116.5 306v657h176v-645q0 -135 66.5 -202.5t189.5 -67.5t190.5 67.5t67.5 202.5v645h176zM676 1143h-158l-285 393h191z" />
    <glyph glyph-name="uacute" unicode="&#xfa;" horiz-adv-x="1193" 
d="M664 1141h-158l256 395h186zM1030 1036v-657q0 -195 -116.5 -305.5t-317.5 -110.5q-199 0 -315.5 110t-116.5 306v657h176v-645q0 -135 66.5 -202.5t189.5 -67.5t190.5 67.5t67.5 202.5v645h176z" />
    <glyph glyph-name="ucircumflex" unicode="&#xfb;" horiz-adv-x="1193" 
d="M950 1143h-157l-195 272h-2l-197 -272h-157l290 407h127zM1030 1036v-657q0 -195 -116.5 -305.5t-317.5 -110.5q-199 0 -315.5 110t-116.5 306v657h176v-645q0 -135 66.5 -202.5t189.5 -67.5t190.5 67.5t67.5 202.5v645h176z" />
    <glyph glyph-name="udieresis" unicode="&#xfc;" horiz-adv-x="1193" 
d="M473 1362h-180v174h180v-174zM897 1362h-180v174h180v-174zM1030 1036v-657q0 -195 -116.5 -305.5t-317.5 -110.5q-199 0 -315.5 110t-116.5 306v657h176v-645q0 -135 66.5 -202.5t189.5 -67.5t190.5 67.5t67.5 202.5v645h176z" />
    <glyph glyph-name="yacute" unicode="&#xfd;" horiz-adv-x="1071" 
d="M492 -395h-193l160 397l-441 1034h201l328 -807h2l289 807h194zM621 1141h-158l256 395h186z" />
    <glyph glyph-name="thorn" unicode="&#xfe;" horiz-adv-x="1226" 
d="M958 518q0 185 -91.5 290t-241.5 105q-166 0 -273 -127v-561q48 -46 115.5 -74t142.5 -28q159 0 253.5 103.5t94.5 291.5zM1145 518q0 -258 -138.5 -406.5t-357.5 -148.5q-170 0 -295 86h-2v-444h-176v1931h176v-584h2q134 121 322 121q206 0 337.5 -149t131.5 -406z" />
    <glyph glyph-name="ydieresis" unicode="&#xff;" horiz-adv-x="1071" 
d="M492 -395h-193l160 397l-441 1034h201l328 -807h2l289 807h194zM414 1362h-181v174h181v-174zM838 1362h-181v174h181v-174z" />
    <glyph glyph-name="Amacron" unicode="&#x100;" horiz-adv-x="1366" 
d="M1335 0h-207l-170 436h-557l-170 -436h-198l571 1434h158zM897 602l-217 561h-2l-215 -561h434zM993 1530h-618v127h618v-127z" />
    <glyph glyph-name="amacron" unicode="&#x101;" horiz-adv-x="1116" 
d="M952 0h-172v82h-2q-132 -119 -311 -119q-152 0 -250 88.5t-98 237.5q0 153 101.5 244.5t283.5 91.5q155 0 272 -70v104q0 131 -76.5 195t-201.5 64q-91 0 -173.5 -41t-136.5 -105h-6v184q145 117 350 117q189 0 304.5 -102t115.5 -305v-666zM776 233v179q-100 65 -241 65
q-115 0 -177.5 -46t-62.5 -132q0 -79 59 -130.5t168 -51.5q151 0 254 116zM883 1368h-660v137h660v-137z" />
    <glyph glyph-name="Abreve" unicode="&#x102;" horiz-adv-x="1366" 
d="M1335 0h-207l-170 436h-557l-170 -436h-198l571 1434h55q-117 6 -188 64t-84 159h131q27 -105 166 -105t166 105h131q-15 -101 -86.5 -159t-185.5 -64h53zM897 602l-217 561h-2l-215 -561h434z" />
    <glyph glyph-name="abreve" unicode="&#x103;" horiz-adv-x="1116" 
d="M952 0h-172v82h-2q-132 -119 -311 -119q-152 0 -250 88.5t-98 237.5q0 153 101.5 244.5t283.5 91.5q155 0 272 -70v104q0 131 -76.5 195t-201.5 64q-91 0 -173.5 -41t-136.5 -105h-6v184q145 117 350 117q189 0 304.5 -102t115.5 -305v-666zM776 233v179q-100 65 -241 65
q-115 0 -177.5 -46t-62.5 -132q0 -79 59 -130.5t168 -51.5q151 0 254 116zM559 1212q-151 0 -237.5 89.5t-100.5 234.5h133q15 -91 68.5 -144t136.5 -53t136.5 53t68.5 144h133q-14 -145 -100.5 -234.5t-237.5 -89.5z" />
    <glyph glyph-name="Aogonek" unicode="&#x104;" horiz-adv-x="1366" 
d="M1356 -346q-81 -49 -187 -49q-95 0 -144.5 43t-49.5 110q0 61 38.5 118.5t114.5 123.5l-170 436h-557l-170 -436h-198l571 1434h158l573 -1434h-84q-74 -71 -104.5 -114.5t-30.5 -86.5q0 -39 25 -59.5t69 -20.5q76 0 140 58h6v-123zM897 602l-217 561h-2l-215 -561h434z
" />
    <glyph glyph-name="aogonek" unicode="&#x105;" horiz-adv-x="1116" 
d="M1010 -346q-81 -49 -187 -49q-95 0 -144.5 43t-49.5 110q0 61 38 118t113 124v82h-2q-132 -119 -311 -119q-152 0 -250 88.5t-98 237.5q0 153 101.5 244.5t283.5 91.5q155 0 272 -70v104q0 131 -76.5 195t-201.5 64q-91 0 -173.5 -41t-136.5 -105h-6v184q145 117 350 117
q189 0 304.5 -102t115.5 -305v-666h-47q-74 -71 -104.5 -114.5t-30.5 -86.5q0 -39 25 -59.5t69 -20.5q76 0 140 58h6v-123zM776 233v179q-100 65 -241 65q-115 0 -177.5 -46t-62.5 -132q0 -79 59 -130.5t168 -51.5q151 0 254 116z" />
    <glyph glyph-name="Cacute" unicode="&#x106;" horiz-adv-x="1255" 
d="M1145 338v-225q-177 -150 -424 -150q-131 0 -244 48.5t-197.5 139.5t-133 231.5t-48.5 315.5q0 319 152.5 513.5t398.5 218.5l135 208h191l-168 -211q192 -24 330 -143v-225h-9q-68 94 -169 145t-216 51q-205 0 -326.5 -150t-121.5 -407q0 -255 124.5 -406t332.5 -151
q116 0 217.5 53t167.5 144h8z" />
    <glyph glyph-name="cacute" unicode="&#x107;" horiz-adv-x="960" 
d="M598 1141h-158l256 395h187zM874 270v-192q-134 -115 -321 -115q-98 0 -184 36.5t-151 105t-102.5 175.5t-37.5 238q0 257 132.5 406t338.5 149q195 0 319 -112v-193h-6q-48 66 -123.5 106.5t-163.5 40.5q-142 0 -226.5 -108.5t-84.5 -288.5q0 -182 88.5 -289.5
t239.5 -107.5q84 0 156.5 41.5t119.5 107.5h6z" />
    <glyph glyph-name="Ccircumflex" unicode="&#x108;" horiz-adv-x="1255" 
d="M991 1397h-49q110 -40 195 -113v-225h-9q-68 94 -169 145t-216 51q-205 0 -326.5 -150t-121.5 -407q0 -255 124.5 -406t332.5 -151q116 0 217.5 53t167.5 144h8v-225q-177 -150 -424 -150q-131 0 -244 48.5t-197.5 139.5t-133 231.5t-48.5 315.5q0 267 108.5 448.5
t293.5 250.5h-58l205 262h139zM715 1434q40 0 98 -7l-94 117h-2l-96 -119q70 9 94 9z" />
    <glyph glyph-name="ccircumflex" unicode="&#x109;" horiz-adv-x="960" 
d="M895 1143h-158l-194 272h-2l-197 -272h-158l291 407h127zM874 270v-192q-134 -115 -321 -115q-98 0 -184 36.5t-151 105t-102.5 175.5t-37.5 238q0 257 132.5 406t338.5 149q195 0 319 -112v-193h-6q-48 66 -123.5 106.5t-163.5 40.5q-142 0 -226.5 -108.5t-84.5 -288.5
q0 -182 88.5 -289.5t239.5 -107.5q84 0 156.5 41.5t119.5 107.5h6z" />
    <glyph glyph-name="Cdotaccent" unicode="&#x10a;" horiz-adv-x="1255" 
d="M811 1499h-193v158h193v-158zM1145 338v-225q-177 -150 -424 -150q-131 0 -244 48.5t-197.5 139.5t-133 231.5t-48.5 315.5q0 171 46.5 310.5t129 232.5t195.5 143t246 50q253 0 422 -150v-225h-9q-68 94 -169 145t-216 51q-205 0 -326.5 -150t-121.5 -407
q0 -255 124.5 -406t332.5 -151q116 0 217.5 53t167.5 144h8z" />
    <glyph glyph-name="cdotaccent" unicode="&#x10b;" horiz-adv-x="960" 
d="M874 270v-192q-134 -115 -321 -115q-98 0 -184 36.5t-151 105t-102.5 175.5t-37.5 238q0 257 132.5 406t338.5 149q195 0 319 -112v-193h-6q-48 66 -123.5 106.5t-163.5 40.5q-142 0 -226.5 -108.5t-84.5 -288.5q0 -182 88.5 -289.5t239.5 -107.5q84 0 156.5 41.5
t119.5 107.5h6zM618 1362h-192v174h192v-174z" />
    <glyph glyph-name="Ccaron" unicode="&#x10c;" horiz-adv-x="1255" 
d="M1145 338v-225q-177 -150 -424 -150q-131 0 -244 48.5t-197.5 139.5t-133 231.5t-48.5 315.5q0 309 142.5 500.5t377.5 226.5l-169 220h153l119 -146h2l121 146h153l-172 -220q182 -27 312 -141v-225h-9q-68 94 -169 145t-216 51q-205 0 -326.5 -150t-121.5 -407
q0 -255 124.5 -406t332.5 -151q116 0 217.5 53t167.5 144h8z" />
    <glyph glyph-name="ccaron" unicode="&#x10d;" horiz-adv-x="960" 
d="M578 1128h-127l-291 408h157l195 -272h2l197 272h157zM874 270v-192q-134 -115 -321 -115q-98 0 -184 36.5t-151 105t-102.5 175.5t-37.5 238q0 257 132.5 406t338.5 149q195 0 319 -112v-193h-6q-48 66 -123.5 106.5t-163.5 40.5q-142 0 -226.5 -108.5t-84.5 -288.5
q0 -182 88.5 -289.5t239.5 -107.5q84 0 156.5 41.5t119.5 107.5h6z" />
    <glyph glyph-name="Dcaron" unicode="&#x10e;" horiz-adv-x="1456" 
d="M1360 698q0 -171 -57 -306.5t-155.5 -220t-226 -128t-274.5 -43.5h-444v1397h342l-193 248h154l119 -146h2l121 146h153l-196 -250q109 -7 206 -38t179.5 -89t142 -138t93.5 -190.5t34 -241.5zM1167 698q0 127 -40 228t-110.5 164.5t-165 97t-206.5 33.5h-254v-1045h254
q150 0 266 56.5t186 176.5t70 289z" />
    <glyph glyph-name="dcaron" unicode="&#x10f;" horiz-adv-x="1433" 
d="M1296 1128h-139l111 408h166zM1051 0h-174v86h-3q-139 -123 -323 -123q-206 0 -337.5 149t-131.5 406q0 259 138 407t358 148q169 0 294 -86h2v549h177v-1536zM874 250v561q-105 102 -258 102q-159 0 -253.5 -103.5t-94.5 -291.5q0 -184 91.5 -289.5t242.5 -105.5
q161 0 272 127z" />
    <glyph glyph-name="Dcroat" unicode="&#x110;" horiz-adv-x="1456" 
d="M1360 698q0 -171 -57 -306.5t-155.5 -220t-226 -128t-274.5 -43.5h-444v643h-203v150h203v604h444q116 0 221 -27t195.5 -84t156 -138.5t103 -196.5t37.5 -253zM1167 698q0 127 -40 228t-110.5 164.5t-165 97t-206.5 33.5h-254v-428h383v-150h-383v-467h254
q150 0 266 56.5t186 176.5t70 289z" />
    <glyph glyph-name="dcroat" unicode="&#x111;" horiz-adv-x="1226" 
d="M1051 0h-174v86h-3q-139 -123 -323 -123q-206 0 -337.5 149t-131.5 406q0 259 138 407t358 148q169 0 294 -86h2v234h-387v141h387v174h177v-174h176v-141h-176v-1221zM874 250v561q-105 102 -258 102q-159 0 -253.5 -103.5t-94.5 -291.5q0 -184 91.5 -289.5
t242.5 -105.5q161 0 272 127z" />
    <glyph glyph-name="Emacron" unicode="&#x112;" horiz-adv-x="1112" 
d="M868 1530h-618v127h618v-127zM973 0h-770v1397h717v-176h-529v-414h508v-178h-508v-453h582v-176z" />
    <glyph glyph-name="emacron" unicode="&#x113;" horiz-adv-x="1120" 
d="M975 80q-149 -117 -367 -117q-233 0 -381.5 147t-148.5 408q0 258 133.5 406.5t351.5 148.5q197 0 329 -133.5t132 -347.5q0 -38 -4 -100h-754q7 -179 107.5 -276t267.5 -97q100 0 185.5 39t142.5 102h6v-180zM840 639q-3 121 -80.5 200t-196.5 79q-122 0 -201 -73
t-96 -206h574zM889 1368h-660v137h660v-137z" />
    <glyph glyph-name="Ebreve" unicode="&#x114;" horiz-adv-x="1112" 
d="M555 1434q-125 0 -203.5 59t-93.5 164h131q27 -105 166 -105t166 105h131q-15 -105 -93.5 -164t-203.5 -59zM973 0h-770v1397h717v-176h-529v-414h508v-178h-508v-453h582v-176z" />
    <glyph glyph-name="ebreve" unicode="&#x115;" horiz-adv-x="1120" 
d="M975 80q-149 -117 -367 -117q-233 0 -381.5 147t-148.5 408q0 258 133.5 406.5t351.5 148.5q197 0 329 -133.5t132 -347.5q0 -38 -4 -100h-754q7 -179 107.5 -276t267.5 -97q100 0 185.5 39t142.5 102h6v-180zM840 639q-3 121 -80.5 200t-196.5 79q-122 0 -201 -73
t-96 -206h574zM559 1212q-151 0 -237.5 89.5t-100.5 234.5h133q15 -91 68.5 -144t136.5 -53t136.5 53t68.5 144h133q-14 -145 -100.5 -234.5t-237.5 -89.5z" />
    <glyph glyph-name="Edotaccent" unicode="&#x116;" horiz-adv-x="1112" 
d="M651 1499h-192v158h192v-158zM973 0h-770v1397h717v-176h-529v-414h508v-178h-508v-453h582v-176z" />
    <glyph glyph-name="edotaccent" unicode="&#x117;" horiz-adv-x="1120" 
d="M975 80q-149 -117 -367 -117q-233 0 -381.5 147t-148.5 408q0 258 133.5 406.5t351.5 148.5q197 0 329 -133.5t132 -347.5q0 -38 -4 -100h-754q7 -179 107.5 -276t267.5 -97q100 0 185.5 39t142.5 102h6v-180zM840 639q-3 121 -80.5 200t-196.5 79q-122 0 -201 -73
t-96 -206h574zM655 1362h-192v174h192v-174z" />
    <glyph glyph-name="Eogonek" unicode="&#x118;" horiz-adv-x="1112" 
d="M973 0h-105q-74 -71 -104.5 -114.5t-30.5 -86.5q0 -39 25 -59.5t69 -20.5q76 0 140 58h6v-123q-81 -49 -187 -49q-95 0 -144.5 43t-49.5 110q0 61 38 118t113 124h-540v1397h717v-176h-529v-414h508v-178h-508v-453h582v-176z" />
    <glyph glyph-name="eogonek" unicode="&#x119;" horiz-adv-x="1120" 
d="M975 -346q-81 -49 -187 -49q-94 0 -144 43t-50 110q0 91 125 219q-49 -14 -111 -14q-233 0 -381.5 147t-148.5 408q0 258 133.5 406.5t351.5 148.5q197 0 329 -133.5t132 -347.5q0 -38 -4 -100h-754q7 -179 107.5 -276t267.5 -97q100 0 185.5 39t142.5 102h6v-180
q-87 -58 -162.5 -143t-75.5 -140q0 -38 25 -58t69 -20q77 0 138 58h6v-123zM840 639q-3 121 -81 200t-198 79t-199 -73t-96 -206h574z" />
    <glyph glyph-name="Ecaron" unicode="&#x11a;" horiz-adv-x="1112" 
d="M973 0h-770v1397h270l-192 248h153l119 -146h2l121 146h153l-194 -248h285v-176h-529v-414h508v-178h-508v-453h582v-176z" />
    <glyph glyph-name="ecaron" unicode="&#x11b;" horiz-adv-x="1120" 
d="M623 1128h-127l-291 408h157l195 -272h2l197 272h157zM975 80q-149 -117 -367 -117q-233 0 -381.5 147t-148.5 408q0 258 133.5 406.5t351.5 148.5q197 0 329 -133.5t132 -347.5q0 -38 -4 -100h-754q7 -179 107.5 -276t267.5 -97q100 0 185.5 39t142.5 102h6v-180z
M840 639q-3 121 -80.5 200t-196.5 79q-122 0 -201 -73t-96 -206h574z" />
    <glyph glyph-name="Gcircumflex" unicode="&#x11c;" horiz-adv-x="1435" 
d="M1030 1397h-26q114 -38 225 -121v-217h-8q-180 198 -437 198q-219 0 -354 -148.5t-135 -414.5q0 -138 34.5 -246.5t94.5 -177t140 -104t173 -35.5q85 0 155.5 24t127 74.5t89 136.5t34.5 201h-463v8l84 168h573q0 -8 1 -51t1 -51q0 -142 -32 -257t-87 -192.5t-132 -129.5
t-164.5 -75.5t-186.5 -23.5q-134 0 -249.5 48t-202.5 139t-137 232t-50 316q0 267 119.5 449t319.5 250h-56l205 262h139zM764 1434q28 0 86 -4l-92 114h-2l-99 -119q52 9 107 9z" />
    <glyph glyph-name="gcircumflex" unicode="&#x11d;" horiz-adv-x="1196" 
d="M961 1143h-158l-195 272h-2l-196 -272h-158l291 407h127zM854 272v547q-47 44 -111.5 69t-132.5 25q-154 0 -247 -100t-93 -276q0 -172 91 -274.5t237 -102.5q155 0 256 112zM590 -401q-104 0 -202.5 29.5t-170.5 88.5v181h8q132 -144 344 -144q146 0 215.5 76.5
t69.5 200.5v86h-2q-130 -117 -315 -117q-95 0 -177 35t-145 101t-99 169.5t-36 231.5q0 253 135.5 394.5t349.5 141.5q166 0 301 -98h2l156 72h6v-1004q0 -217 -118.5 -330.5t-321.5 -113.5z" />
    <glyph glyph-name="Gbreve" unicode="&#x11e;" horiz-adv-x="1435" 
d="M737 -37q-134 0 -249.5 48t-202.5 139t-137 232t-50 316q0 167 49 305t135.5 230t202 144t250.5 57q-120 3 -194 62t-88 161h131q27 -105 166 -105q138 0 165 105h132q-15 -101 -86.5 -159t-186.5 -64q253 -3 455 -158v-217h-8q-180 198 -437 198q-219 0 -354 -148.5
t-135 -414.5q0 -138 34.5 -246.5t94.5 -177t140 -104t173 -35.5q85 0 155.5 24t127 74.5t89 136.5t34.5 201h-463v8l84 168h573q0 -8 1 -51t1 -51q0 -142 -32 -257t-87 -192.5t-132 -129.5t-164.5 -75.5t-186.5 -23.5z" />
    <glyph glyph-name="gbreve" unicode="&#x11f;" horiz-adv-x="1196" 
d="M854 272v547q-47 44 -111.5 69t-132.5 25q-154 0 -247 -100t-93 -276q0 -172 91 -274.5t237 -102.5q155 0 256 112zM590 -401q-104 0 -202.5 29.5t-170.5 88.5v181h8q132 -144 344 -144q146 0 215.5 76.5t69.5 200.5v86h-2q-130 -117 -315 -117q-95 0 -177 35t-145 101
t-99 169.5t-36 231.5q0 253 135.5 394.5t349.5 141.5q166 0 301 -98h2l156 72h6v-1004q0 -217 -118.5 -330.5t-321.5 -113.5zM606 1212q-151 0 -237.5 89.5t-100.5 234.5h133q15 -91 68.5 -144t136.5 -53t136.5 53t68.5 144h133q-14 -145 -100.5 -234.5t-237.5 -89.5z" />
    <glyph glyph-name="Gdotaccent" unicode="&#x120;" horiz-adv-x="1435" 
d="M848 1499h-193v158h193v-158zM737 -37q-134 0 -249.5 48t-202.5 139t-137 232t-50 316q0 172 51.5 312.5t141.5 232.5t211.5 141.5t261.5 49.5q261 0 465 -158v-217h-8q-180 198 -437 198q-219 0 -354 -148.5t-135 -414.5q0 -138 34.5 -246.5t94.5 -177t140 -104
t173 -35.5q85 0 155.5 24t127 74.5t89 136.5t34.5 201h-463v8l84 168h573q0 -8 1 -51t1 -51q0 -142 -32 -257t-87 -192.5t-132 -129.5t-164.5 -75.5t-186.5 -23.5z" />
    <glyph glyph-name="gdotaccent" unicode="&#x121;" horiz-adv-x="1196" 
d="M854 272v547q-47 44 -111.5 69t-132.5 25q-154 0 -247 -100t-93 -276q0 -172 91 -274.5t237 -102.5q155 0 256 112zM590 -401q-104 0 -202.5 29.5t-170.5 88.5v181h8q132 -144 344 -144q146 0 215.5 76.5t69.5 200.5v86h-2q-130 -117 -315 -117q-95 0 -177 35t-145 101
t-99 169.5t-36 231.5q0 253 135.5 394.5t349.5 141.5q166 0 301 -98h2l156 72h6v-1004q0 -217 -118.5 -330.5t-321.5 -113.5zM702 1362h-192v174h192v-174z" />
    <glyph glyph-name="Gcommaaccent" unicode="&#x122;" horiz-adv-x="1435" 
d="M610 -395h-157l206 319h185zM737 -37q-134 0 -249.5 48t-202.5 139t-137 232t-50 316q0 172 51.5 312.5t141.5 232.5t211.5 141.5t261.5 49.5q261 0 465 -158v-217h-8q-180 198 -437 198q-219 0 -354 -148.5t-135 -414.5q0 -138 34.5 -246.5t94.5 -177t140 -104
t173 -35.5q85 0 155.5 24t127 74.5t89 136.5t34.5 201h-463v8l84 168h573q0 -8 1 -51t1 -51q0 -142 -32 -257t-87 -192.5t-132 -129.5t-164.5 -75.5t-186.5 -23.5z" />
    <glyph glyph-name="gcommaaccent" unicode="&#x123;" horiz-adv-x="1196" 
d="M690 1217h-184l233 319h158zM854 272v547q-47 44 -111.5 69t-132.5 25q-154 0 -247 -100t-93 -276q0 -172 91 -274.5t237 -102.5q155 0 256 112zM590 -401q-104 0 -202.5 29.5t-170.5 88.5v181h8q132 -144 344 -144q146 0 215.5 76.5t69.5 200.5v86h-2
q-130 -117 -315 -117q-95 0 -177 35t-145 101t-99 169.5t-36 231.5q0 253 135.5 394.5t349.5 141.5q166 0 301 -98h2l156 72h6v-1004q0 -217 -118.5 -330.5t-321.5 -113.5z" />
    <glyph glyph-name="Hcircumflex" unicode="&#x124;" horiz-adv-x="1542" 
d="M1354 0h-189v635h-759v-635h-189v1397h189v-586h759v586h189v-1397zM1061 1397h-154l-119 147h-2l-120 -147h-154l205 262h139z" />
    <glyph glyph-name="hcircumflex" unicode="&#x125;" horiz-adv-x="1208" 
d="M621 1577h-158l-195 272h-2l-196 -272h-158l291 408h127zM1042 0h-176v643q0 134 -69.5 202t-182.5 68q-154 0 -262 -127v-786h-176v1536h176v-584h2q131 121 312 121q78 0 145.5 -23t119.5 -68t81.5 -118t29.5 -166v-698z" />
    <glyph glyph-name="Hbar" unicode="&#x126;" horiz-adv-x="1542" 
d="M1352 0h-187v635h-762v-635h-186v1034h-217v152h217v211h186v-211h762v211h187v-211h192v-152h-192v-1034zM403 811h762v223h-762v-223z" />
    <glyph glyph-name="hbar" unicode="&#x127;" horiz-adv-x="1208" 
d="M1042 0h-176v643q0 134 -69.5 202t-182.5 68q-154 0 -262 -127v-786h-176v1221h-176v141h176v174h176v-174h424v-141h-424v-269h2q131 121 312 121q78 0 145.5 -23t119.5 -68t81.5 -118t29.5 -166v-698z" />
    <glyph glyph-name="Itilde" unicode="&#x128;" horiz-adv-x="598" 
d="M391 0h-186v1397h186v-1397zM434 1436q-38 0 -88 26t-95.5 52t-72.5 26q-18 0 -30.5 -5.5t-22.5 -21.5t-15 -26t-15 -38q-3 -9 -5 -13h-119q16 54 30 88.5t36 68t53.5 49t73.5 15.5q39 0 88.5 -26.5t94.5 -52.5t73 -26q8 0 15 1.5t13 3t11 6.5t9 7.5t8.5 10.5t6.5 11.5
t6.5 14t6 15t6 17.5t6.5 18h119q-32 -114 -72 -167.5t-121 -53.5z" />
    <glyph glyph-name="itilde" unicode="&#x129;" horiz-adv-x="528" 
d="M352 0h-176v1036h176v-1036zM428 1257q-40 0 -86.5 23t-81 50t-75 50t-70.5 23q-38 0 -60 -34t-47 -112h-117q31 142 78 210.5t131 68.5q40 0 86.5 -22.5t81.5 -50t75.5 -50t70.5 -22.5q39 0 60 32.5t46 112.5h117q-31 -143 -78 -211t-131 -68z" />
    <glyph glyph-name="Imacron" unicode="&#x12a;" horiz-adv-x="598" 
d="M391 0h-186v1397h186v-1397zM608 1530h-618v127h618v-127z" />
    <glyph glyph-name="imacron" unicode="&#x12b;" horiz-adv-x="528" 
d="M352 0h-176v1036h176v-1036zM594 1368h-660v137h660v-137z" />
    <glyph glyph-name="Ibreve" unicode="&#x12c;" horiz-adv-x="598" 
d="M391 0h-186v1397h186v-1397zM299 1434q-125 0 -203.5 59t-93.5 164h131q27 -105 166 -105t166 105h131q-15 -105 -93.5 -164t-203.5 -59z" />
    <glyph glyph-name="ibreve" unicode="&#x12d;" horiz-adv-x="528" 
d="M352 0h-176v1036h176v-1036zM264 1212q-151 0 -237.5 89.5t-100.5 234.5h133q15 -91 68.5 -144t136.5 -53t136.5 53t68.5 144h133q-14 -145 -100.5 -234.5t-237.5 -89.5z" />
    <glyph glyph-name="Iogonek" unicode="&#x12e;" horiz-adv-x="598" 
d="M453 -346q-81 -49 -187 -49q-95 0 -144.5 43t-49.5 110q0 61 38 118t113 124h-18v1397h186v-1397h-43q-74 -71 -104.5 -114.5t-30.5 -86.5q0 -39 25 -59.5t69 -20.5q75 0 139 58h7v-123z" />
    <glyph glyph-name="iogonek" unicode="&#x12f;" horiz-adv-x="528" 
d="M418 -346q-81 -49 -187 -49q-95 0 -144.5 43t-49.5 110q0 61 38 118t113 124h-12v1036h176v-1036h-39q-74 -71 -104.5 -114.5t-30.5 -86.5q0 -39 25 -59.5t69 -20.5q76 0 140 58h6v-123zM360 1362h-192v174h192v-174z" />
    <glyph glyph-name="Idotaccent" unicode="&#x130;" horiz-adv-x="598" 
d="M391 0h-186v1397h186v-1397zM393 1499h-192v158h192v-158z" />
    <glyph glyph-name="dotlessi" unicode="&#x131;" horiz-adv-x="528" 
d="M352 0h-176v1036h176v-1036z" />
    <glyph glyph-name="IJ" unicode="&#x132;" horiz-adv-x="1456" 
d="M391 0h-186v1397h186v-1397zM930 -37q-128 0 -215 68v202h8q69 -92 176 -92q94 0 142.5 62t48.5 182v834h-385v10l83 168h486v-1043q0 -181 -85 -286t-259 -105z" />
    <glyph glyph-name="ij" unicode="&#x133;" horiz-adv-x="1056" 
d="M588 -395q-120 0 -197 55v172h6q29 -32 71 -51t83 -19q71 0 112.5 48.5t41.5 144.5v1081h176v-1085q0 -167 -79 -256.5t-214 -89.5zM352 0h-176v1036h176v-1036zM889 1362h-193v174h193v-174zM360 1362h-192v174h192v-174z" />
    <glyph glyph-name="Jcircumflex" unicode="&#x134;" horiz-adv-x="860" 
d="M684 1397h-8v-1043q0 -181 -85 -286t-259 -105q-128 0 -215 68v202h8q69 -92 176 -92q94 0 142.5 62t48.5 182v834h-386v10l84 168h-55l205 262h139zM410 1544l-121 -147h241l-118 147h-2z" />
    <glyph glyph-name="jcircumflex" unicode="&#x135;" horiz-adv-x="528" 
d="M57 -395q-111 0 -194 59v150h6q62 -68 151 -68q70 0 113 51.5t43 155.5v1083h176v-1091q0 -163 -79 -251.5t-216 -88.5zM618 1143h-157l-195 272h-2l-196 -272h-158l291 407h127z" />
    <glyph glyph-name="Kcommaaccent" unicode="&#x136;" horiz-adv-x="1249" 
d="M555 -395h-158l207 319h184zM391 0h-188v1397h188v-1397zM1206 0h-229l-553 702v9l532 686h224l-537 -684v-4z" />
    <glyph glyph-name="kcommaaccent" unicode="&#x137;" horiz-adv-x="1044" 
d="M440 -395h-157l206 319h185zM352 0h-176v1536h176v-1536zM1012 0h-217l-416 522v6l399 508h209l-403 -508v-4z" />
    <glyph glyph-name="Lacute" unicode="&#x139;" horiz-adv-x="999" 
d="M375 1397h-154l156 241h190zM932 0h-729v1397h188v-1221h541v-176z" />
    <glyph glyph-name="lacute" unicode="&#x13a;" horiz-adv-x="528" 
d="M342 1577h-158l256 395h187zM352 0h-176v1536h176v-1536z" />
    <glyph glyph-name="Lcommaaccent" unicode="&#x13b;" horiz-adv-x="999" 
d="M461 -395h-158l207 319h184zM932 0h-729v1397h188v-1221h541v-176z" />
    <glyph glyph-name="lcommaaccent" unicode="&#x13c;" horiz-adv-x="528" 
d="M127 -395h-158l207 319h184zM352 0h-176v1536h176v-1536z" />
    <glyph glyph-name="Lcaron" unicode="&#x13d;" horiz-adv-x="999" 
d="M637 1128h-139l110 408h166zM932 0h-729v1397h188v-1221h541v-176z" />
    <glyph glyph-name="lcaron" unicode="&#x13e;" horiz-adv-x="716" 
d="M600 1128h-139l110 408h166zM352 0h-176v1536h176v-1536z" />
    <glyph glyph-name="Ldot" unicode="&#x13f;" horiz-adv-x="1036" 
d="M932 0h-727v1397h186v-1217h541v-180zM909 643h-192v211h192v-211z" />
    <glyph glyph-name="ldot" unicode="&#x140;" horiz-adv-x="731" 
d="M352 0h-176v1536h176v-1536zM719 440h-193v209h193v-209z" />
    <glyph glyph-name="Lslash" unicode="&#x141;" horiz-adv-x="999" 
d="M932 0h-729v543l-203 -97v168l203 99v684h188v-594l387 186v-170l-387 -186v-457h541v-176z" />
    <glyph glyph-name="lslash" unicode="&#x142;" horiz-adv-x="528" 
d="M352 0h-176v776l-176 -84v158l176 84v602h176v-518l176 86v-158l-176 -86v-860z" />
    <glyph glyph-name="Nacute" unicode="&#x143;" horiz-adv-x="1548" 
d="M831 1397h-153l156 241h190zM1346 -25h-146l-807 1047h-2v-1022h-188v1311l-56 75v11h201l809 -1061h2v1061h187v-1422z" />
    <glyph glyph-name="nacute" unicode="&#x144;" horiz-adv-x="1232" 
d="M700 1141h-157l256 395h186zM1067 0h-176v643q0 134 -72 202t-192 68q-164 0 -275 -127v-786h-176v1036h174v-86h2q136 123 326 123q170 0 279.5 -96t109.5 -279v-698z" />
    <glyph glyph-name="Ncommaaccent" unicode="&#x145;" horiz-adv-x="1548" 
d="M686 -395h-158l207 319h185zM1346 -25h-146l-807 1047h-2v-1022h-188v1311l-56 75v11h201l809 -1061h2v1061h187v-1422z" />
    <glyph glyph-name="ncommaaccent" unicode="&#x146;" horiz-adv-x="1232" 
d="M512 -395h-158l207 319h184zM1067 0h-176v643q0 134 -72 202t-192 68q-164 0 -275 -127v-786h-176v1036h174v-86h2q136 123 326 123q170 0 279.5 -96t109.5 -279v-698z" />
    <glyph glyph-name="Ncaron" unicode="&#x147;" horiz-adv-x="1548" 
d="M844 1382h-139l-205 263h153l119 -146h2l121 146h154zM1346 -25h-146l-807 1047h-2v-1022h-188v1311l-56 75v11h201l809 -1061h2v1061h187v-1422z" />
    <glyph glyph-name="ncaron" unicode="&#x148;" horiz-adv-x="1232" 
d="M680 1128h-127l-291 408h158l194 -272h2l197 272h158zM1067 0h-176v643q0 134 -72 202t-192 68q-164 0 -275 -127v-786h-176v1036h174v-86h2q136 123 326 123q170 0 279.5 -96t109.5 -279v-698z" />
    <glyph glyph-name="Eng" unicode="&#x14a;" horiz-adv-x="1548" 
d="M1022 -395q-58 0 -113.5 17.5t-91.5 49.5v174h8q30 -34 75.5 -52.5t92.5 -18.5q76 0 122 52t46 146v27l-768 1014h-2v-1014h-188v1311l-56 75v11h201l809 -1069h2v1069h187v-1422q0 -178 -85 -274t-239 -96z" />
    <glyph glyph-name="eng" unicode="&#x14b;" horiz-adv-x="1232" 
d="M780 -395q-113 0 -190 55v168h6q63 -66 143 -66q69 0 110.5 49.5t41.5 151.5v680q0 134 -72 202t-192 68q-164 0 -275 -127v-786h-176v1036h174v-86h2q136 123 324 123q171 0 281 -96t110 -279v-747q0 -164 -77.5 -255t-209.5 -91z" />
    <glyph glyph-name="Omacron" unicode="&#x14c;" horiz-adv-x="1519" 
d="M1069 1530h-618v127h618v-127zM1421 698q0 -173 -52.5 -314t-143.5 -232t-210.5 -140t-256.5 -49q-133 0 -251.5 48.5t-210 139t-145 232t-53.5 315.5q0 139 34 258.5t95.5 206.5t144.5 148.5t182 92t208 30.5q133 0 251.5 -49t209.5 -139.5t144.5 -232t53.5 -315.5z
M1227 698q0 133 -36.5 241t-100 177.5t-147.5 106.5t-181 37t-181 -36.5t-148 -105t-101 -177t-37 -243.5q0 -264 131.5 -412.5t331.5 -148.5q97 0 181.5 36.5t149 105t101.5 176.5t37 243z" />
    <glyph glyph-name="omacron" unicode="&#x14d;" horiz-adv-x="1187" 
d="M924 1368h-660v137h660v-137zM924 518q0 185 -90.5 292.5t-237.5 107.5q-148 0 -240 -106.5t-92 -293.5q0 -185 90.5 -291t237.5 -106q149 0 240.5 105t91.5 292zM1112 518q0 -129 -39.5 -234.5t-109.5 -175.5t-165 -107.5t-206 -37.5q-109 0 -202.5 37.5t-163 107
t-109 175t-39.5 235.5q0 258 145.5 406.5t372.5 148.5q109 0 202.5 -37.5t163.5 -107t110 -175t40 -235.5z" />
    <glyph glyph-name="Obreve" unicode="&#x14e;" horiz-adv-x="1519" 
d="M1421 698q0 -173 -52.5 -314t-143.5 -232t-210.5 -140t-256.5 -49q-133 0 -251.5 48.5t-210 139t-145 232t-53.5 315.5q0 171 51.5 311t140.5 231t206 141t252 53q-122 3 -197 61.5t-88 161.5h131q27 -105 166 -105t166 105h131q-15 -103 -90 -161.5t-195 -61.5
q132 -2 248.5 -51.5t206.5 -140.5t142 -231.5t52 -312.5zM1227 698q0 133 -36.5 241t-100 177.5t-147.5 106.5t-181 37t-181 -36.5t-148 -105t-101 -177t-37 -243.5q0 -264 131.5 -412.5t331.5 -148.5q97 0 181.5 36.5t149 105t101.5 176.5t37 243z" />
    <glyph glyph-name="obreve" unicode="&#x14f;" horiz-adv-x="1187" 
d="M924 518q0 185 -90.5 292.5t-237.5 107.5q-148 0 -240 -106.5t-92 -293.5q0 -185 90.5 -291t237.5 -106q149 0 240.5 105t91.5 292zM1112 518q0 -129 -39.5 -234.5t-109.5 -175.5t-165 -107.5t-206 -37.5q-109 0 -202.5 37.5t-163 107t-109 175t-39.5 235.5
q0 258 145.5 406.5t372.5 148.5q109 0 202.5 -37.5t163.5 -107t110 -175t40 -235.5zM594 1212q-151 0 -237.5 89.5t-100.5 234.5h133q15 -91 68.5 -144t136.5 -53t136.5 53t68.5 144h133q-14 -145 -100.5 -234.5t-237.5 -89.5z" />
    <glyph glyph-name="Ohungarumlaut" unicode="&#x150;" horiz-adv-x="1519" 
d="M1004 1397h-21q197 -69 317.5 -249.5t120.5 -449.5q0 -173 -52.5 -314t-143.5 -232t-210.5 -140t-256.5 -49q-133 0 -251.5 48.5t-210 139t-145 232t-53.5 315.5q0 268 120 449t317 250h-43l157 241h191l-166 -211q51 7 88 7q23 0 102 -9l137 213h191zM1227 698
q0 133 -36.5 241t-100 177.5t-147.5 106.5t-181 37t-181 -36.5t-148 -105t-101 -177t-37 -243.5q0 -264 131.5 -412.5t331.5 -148.5q97 0 181.5 36.5t149 105t101.5 176.5t37 243z" />
    <glyph glyph-name="ohungarumlaut" unicode="&#x151;" horiz-adv-x="1187" 
d="M506 1141h-158l258 395h185zM854 1141h-158l256 395h187zM924 518q0 185 -90.5 292.5t-237.5 107.5q-148 0 -240 -106.5t-92 -293.5q0 -185 90.5 -291t237.5 -106q149 0 240.5 105t91.5 292zM1112 518q0 -129 -39.5 -234.5t-109.5 -175.5t-165 -107.5t-206 -37.5
q-109 0 -202.5 37.5t-163 107t-109 175t-39.5 235.5q0 258 145.5 406.5t372.5 148.5q109 0 202.5 -37.5t163.5 -107t110 -175t40 -235.5z" />
    <glyph glyph-name="OE" unicode="&#x152;" horiz-adv-x="1978" 
d="M1841 0h-743v84q-151 -121 -363 -121q-127 0 -241 48.5t-202.5 139t-141 232.5t-52.5 315t52 314.5t140.5 232.5t204 140t244.5 49q209 0 359 -123v86h690v-176h-528v-416h507v-176h-507v-453h581v-176zM1073 270v854q-127 133 -311 133q-97 0 -180.5 -36t-148 -104
t-101.5 -176t-37 -243q0 -133 36 -240.5t99.5 -176.5t147 -105.5t180.5 -36.5q187 0 315 131z" />
    <glyph glyph-name="oe" unicode="&#x153;" horiz-adv-x="1961" 
d="M1817 80q-152 -117 -369 -117q-149 0 -266 65.5t-174 190.5h-2q-54 -122 -163.5 -189t-250.5 -67q-109 0 -202.5 37.5t-163 107t-109 175t-39.5 235.5q0 258 145.5 406.5t372.5 148.5q136 0 242.5 -65.5t162.5 -182.5h3q51 121 157 184.5t242 63.5q196 0 328.5 -132.5
t132.5 -346.5q0 -71 -4 -102h-756q9 -182 110 -277.5t267 -95.5q101 0 186 38.5t141 102.5h9v-180zM924 518q0 185 -90.5 291t-237.5 106q-148 0 -240 -106t-92 -291q0 -183 90.5 -290t237.5 -107q149 0 240.5 105.5t91.5 291.5zM1679 639q-3 121 -81 200t-197 79
q-120 0 -199 -74t-94 -205h571z" />
    <glyph glyph-name="Racute" unicode="&#x154;" horiz-adv-x="1286" 
d="M623 1397q210 -6 335 -111.5t125 -294.5q0 -162 -84.5 -266t-279.5 -164v-4l512 -557h-236l-571 639v10q181 27 286 73t144 104.5t39 144.5q0 116 -85 184t-235 68h-182v-1223h-188v1397h266l156 241h190z" />
    <glyph glyph-name="racute" unicode="&#x155;" horiz-adv-x="784" 
d="M489 1141h-157l256 395h186zM360 0h-176v1036h168v-88h2q128 125 267 125q59 0 108 -18v-178h-6q-59 32 -123 32q-66 0 -121 -31t-119 -92v-786z" />
    <glyph glyph-name="Rcommaaccent" unicode="&#x156;" horiz-adv-x="1286" 
d="M561 -395h-158l207 319h185zM1231 0h-236l-571 639v10q181 27 286 73t144 104.5t39 144.5q0 116 -85 184t-235 68h-182v-1223h-188v1397h397q220 0 351.5 -105.5t131.5 -300.5q0 -162 -84.5 -266t-279.5 -164v-4z" />
    <glyph glyph-name="rcommaaccent" unicode="&#x157;" horiz-adv-x="784" 
d="M145 -395h-157l207 319h184zM360 0h-176v1036h168v-88h2q128 125 267 125q59 0 108 -18v-178h-6q-59 32 -123 32q-66 0 -121 -31t-119 -92v-786z" />
    <glyph glyph-name="Rcaron" unicode="&#x158;" horiz-adv-x="1286" 
d="M1231 0h-236l-571 639v10q181 27 286 73t144 104.5t39 144.5q0 116 -85 184t-235 68h-182v-1223h-188v1397h299l-193 248h154l119 -146h2l121 146h153l-196 -250q194 -15 307.5 -119.5t113.5 -284.5q0 -162 -84.5 -266t-279.5 -164v-4z" />
    <glyph glyph-name="rcaron" unicode="&#x159;" horiz-adv-x="784" 
d="M498 1128h-127l-291 408h158l194 -272h2l197 272h157zM360 0h-176v1036h168v-88h2q128 125 267 125q59 0 108 -18v-178h-6q-59 32 -123 32q-66 0 -121 -31t-119 -92v-786z" />
    <glyph glyph-name="Sacute" unicode="&#x15a;" 
d="M987 356q0 -170 -118.5 -281.5t-325.5 -111.5q-248 0 -398 135v211h7q70 -87 170 -132.5t208 -45.5q127 0 199 56t72 155q0 69 -36 120t-93 84t-126 62.5t-138.5 65t-126.5 80.5t-93 120t-36 173q0 146 86.5 253.5t257.5 129.5l135 208h190l-168 -211q173 -23 285 -129
v-208h-6q-66 85 -158.5 130.5t-189.5 45.5q-117 0 -180.5 -55t-63.5 -146q0 -54 22 -97t59.5 -72t86 -54.5t102.5 -48.5t107.5 -48t102 -60t86 -78t59.5 -107.5t22 -143.5z" />
    <glyph glyph-name="sacute" unicode="&#x15b;" horiz-adv-x="923" 
d="M518 1141h-158l256 395h187zM799 268q0 -138 -92 -221.5t-265 -83.5q-196 0 -311 100v185h6q53 -65 133.5 -101t167.5 -36t138 39.5t51 103.5q0 49 -27 85t-70.5 58.5t-96 43.5t-105 47t-96 60.5t-70.5 92.5t-27 135q0 133 85.5 215t246.5 82q183 0 295 -100v-185h-6
q-51 62 -124.5 100t-152.5 38q-82 0 -125 -38.5t-43 -101.5q0 -48 27 -82.5t70 -56.5t95 -42t104 -46t95 -60.5t70 -93.5t27 -137z" />
    <glyph glyph-name="Scircumflex" unicode="&#x15c;" 
d="M840 1397h-62q95 -37 160 -99v-208h-6q-66 85 -158.5 130.5t-189.5 45.5q-117 0 -180.5 -55t-63.5 -146q0 -54 22 -97t59.5 -72t86 -54.5t102.5 -48.5t107.5 -48t102 -60t86 -78t59.5 -107.5t22 -143.5q0 -170 -118.5 -281.5t-325.5 -111.5q-248 0 -398 135v211h7
q70 -87 170 -132.5t208 -45.5q127 0 199 56t72 155q0 69 -36 120t-93 84t-126 62.5t-138.5 65t-126.5 80.5t-93 120t-36 173q0 116 54.5 209.5t164.5 140.5h-80l205 262h139zM571 1434q37 0 91 -7l-95 117h-2l-98 -119q50 9 104 9z" />
    <glyph glyph-name="scircumflex" unicode="&#x15d;" horiz-adv-x="923" 
d="M817 1143h-158l-194 272h-2l-197 -272h-157l290 407h127zM799 268q0 -138 -92 -221.5t-265 -83.5q-196 0 -311 100v185h6q53 -65 133.5 -101t167.5 -36t138 39.5t51 103.5q0 49 -27 85t-70.5 58.5t-96 43.5t-105 47t-96 60.5t-70.5 92.5t-27 135q0 133 85.5 215t246.5 82
q183 0 295 -100v-185h-6q-51 62 -124.5 100t-152.5 38q-82 0 -125 -38.5t-43 -101.5q0 -48 27 -82.5t70 -56.5t95 -42t104 -46t95 -60.5t70 -93.5t27 -137z" />
    <glyph glyph-name="Scedilla" unicode="&#x15e;" 
d="M745 -244q0 -71 -61 -111t-162 -40q-112 0 -186 35v100h6q65 -43 152 -43q106 0 106 63q0 41 -43 57t-135 21l35 131q-190 19 -312 129v211h7q70 -87 170 -132.5t208 -45.5q127 0 199 56t72 155q0 69 -36 120t-93 84t-126 62.5t-138.5 65t-126.5 80.5t-93 120t-36 173
q0 77 24.5 145t73.5 123t131.5 87t189.5 32q105 0 201 -34.5t166 -101.5v-208h-6q-66 85 -158.5 130.5t-189.5 45.5q-117 0 -180.5 -55t-63.5 -146q0 -54 22 -97t59.5 -72t86 -54.5t102.5 -48.5t107.5 -48t102 -60t86 -78t59.5 -107.5t22 -143.5q0 -162 -107.5 -271.5
t-295.5 -119.5l-17 -59q178 -25 178 -150z" />
    <glyph glyph-name="scedilla" unicode="&#x15f;" horiz-adv-x="923" 
d="M662 -244q0 -71 -61.5 -111t-162.5 -40q-112 0 -186 35v100h6q65 -43 152 -43q106 0 106 63q0 41 -43 57t-135 21l33 129q-147 15 -240 96v185h6q53 -65 133.5 -101t167.5 -36t138 39.5t51 103.5q0 49 -27 85t-70.5 58.5t-96 43.5t-105 47t-96 60.5t-70.5 92.5t-27 135
q0 133 85.5 215t246.5 82q183 0 295 -100v-185h-6q-51 62 -124.5 100t-152.5 38q-82 0 -125 -38.5t-43 -101.5q0 -48 27 -82.5t70 -56.5t95 -42t104 -46t95 -60.5t70 -93.5t27 -137q0 -126 -76.5 -207t-222.5 -94l-17 -61q83 -12 131 -46t48 -104z" />
    <glyph glyph-name="Scaron" unicode="&#x160;" 
d="M987 356q0 -170 -118.5 -281.5t-325.5 -111.5q-248 0 -398 135v211h7q70 -87 170 -132.5t208 -45.5q127 0 199 56t72 155q0 69 -36 120t-93 84t-126 62.5t-138.5 65t-126.5 80.5t-93 120t-36 173q0 139 78.5 243.5t234.5 132.5l-172 222h153l119 -146h2l121 146h154
l-172 -220q161 -26 268 -127v-208h-6q-66 85 -158.5 130.5t-189.5 45.5q-117 0 -180.5 -55t-63.5 -146q0 -54 22 -97t59.5 -72t86 -54.5t102.5 -48.5t107.5 -48t102 -60t86 -78t59.5 -107.5t22 -143.5z" />
    <glyph glyph-name="scaron" unicode="&#x161;" horiz-adv-x="923" 
d="M524 1128h-127l-291 408h158l195 -272h2l196 272h158zM799 268q0 -138 -92 -221.5t-265 -83.5q-196 0 -311 100v185h6q53 -65 133.5 -101t167.5 -36t138 39.5t51 103.5q0 49 -27 85t-70.5 58.5t-96 43.5t-105 47t-96 60.5t-70.5 92.5t-27 135q0 133 85.5 215t246.5 82
q183 0 295 -100v-185h-6q-51 62 -124.5 100t-152.5 38q-82 0 -125 -38.5t-43 -101.5q0 -48 27 -82.5t70 -56.5t95 -42t104 -46t95 -60.5t70 -93.5t27 -137z" />
    <glyph glyph-name="Tcommaaccent" unicode="&#x162;" horiz-adv-x="1095" 
d="M410 -395h-158l207 319h184zM641 -2h-186v1221h-394v176h973v-176h-393v-1221z" />
    <glyph glyph-name="Tcommaaccent" unicode="&#x21a;" horiz-adv-x="1095" 
d="M410 -395h-158l207 319h184zM641 -2h-186v1221h-394v176h973v-176h-393v-1221z" />
    <glyph glyph-name="tcommaaccent" unicode="&#x163;" horiz-adv-x="671" 
d="M147 -395h-157l207 319h184zM367 0h-177v881h-90v8l90 147v312h177v-312h249v-155h-249v-881z" />
    <glyph glyph-name="tcommaaccent" unicode="&#x21b;" horiz-adv-x="671" 
d="M147 -395h-157l207 319h184zM367 0h-177v881h-90v8l90 147v312h177v-312h249v-155h-249v-881z" />
    <glyph glyph-name="Tcaron" unicode="&#x164;" horiz-adv-x="1095" 
d="M641 -2h-186v1221h-394v176h408l-195 250h154l119 -146h2l121 146h153l-196 -250h407v-176h-393v-1221z" />
    <glyph glyph-name="tcaron" unicode="&#x165;" horiz-adv-x="741" 
d="M614 1128h-139l111 408h166zM367 0h-177v881h-90v8l90 147v312h177v-312h249v-155h-249v-881z" />
    <glyph glyph-name="Tbar" unicode="&#x166;" horiz-adv-x="1095" 
d="M641 0h-186v553h-271v152h271v516h-394v176h973v-176h-393v-516h270v-152h-270v-553z" />
    <glyph glyph-name="tbar" unicode="&#x167;" horiz-adv-x="671" 
d="M367 0h-177v424h-141v141h141v316h-90v8l90 147v312h177v-312h249v-155h-249v-316h217v-141h-217v-424z" />
    <glyph glyph-name="Utilde" unicode="&#x168;" horiz-adv-x="1341" 
d="M811 1436q-38 0 -88 26t-95.5 52t-72.5 26q-18 0 -30.5 -5.5t-22.5 -21.5t-15 -26t-15 -38q-3 -9 -5 -13h-119q16 54 30 88.5t36 68t53.5 49t73.5 15.5q39 0 88.5 -26.5t94.5 -52.5t73 -26q8 0 15 1.5t13 3t11 6.5t9 7.5t8.5 10.5t6.5 11.5t6.5 14t6 15t6 17.5t6.5 18
h119q-32 -114 -72 -167.5t-121 -53.5zM672 -37q-226 0 -358 119t-132 340v975h189v-951q0 -153 78 -230t219 -77t220 77t79 230v951h190v-975q0 -222 -130.5 -340.5t-354.5 -118.5z" />
    <glyph glyph-name="utilde" unicode="&#x169;" horiz-adv-x="1193" 
d="M1030 1036v-657q0 -195 -116.5 -305.5t-317.5 -110.5q-199 0 -315.5 110t-116.5 306v657h176v-645q0 -135 66.5 -202.5t189.5 -67.5t190.5 67.5t67.5 202.5v645h176zM766 1257q-40 0 -86.5 23t-81 50t-75 50t-70.5 23q-38 0 -60 -34t-47 -112h-117q31 142 78 210.5
t131 68.5q40 0 86.5 -22.5t81.5 -50t75.5 -50t70.5 -22.5q39 0 60 32.5t46 112.5h117q-31 -143 -78 -211t-131 -68z" />
    <glyph glyph-name="Umacron" unicode="&#x16a;" horiz-adv-x="1341" 
d="M979 1530h-619v127h619v-127zM672 -37q-226 0 -358 119t-132 340v975h189v-951q0 -153 78 -230t219 -77t220 77t79 230v951h190v-975q0 -222 -130.5 -340.5t-354.5 -118.5z" />
    <glyph glyph-name="umacron" unicode="&#x16b;" horiz-adv-x="1193" 
d="M1030 1036v-657q0 -195 -116.5 -305.5t-317.5 -110.5q-199 0 -315.5 110t-116.5 306v657h176v-645q0 -135 66.5 -202.5t189.5 -67.5t190.5 67.5t67.5 202.5v645h176zM926 1368h-660v137h660v-137z" />
    <glyph glyph-name="Ubreve" unicode="&#x16c;" horiz-adv-x="1341" 
d="M668 1434q-125 0 -203.5 59t-93.5 164h131q27 -105 166 -105t166 105h131q-15 -105 -93.5 -164t-203.5 -59zM672 -37q-226 0 -358 119t-132 340v975h189v-951q0 -153 78 -230t219 -77t220 77t79 230v951h190v-975q0 -222 -130.5 -340.5t-354.5 -118.5z" />
    <glyph glyph-name="ubreve" unicode="&#x16d;" horiz-adv-x="1193" 
d="M1030 1036v-657q0 -195 -116.5 -305.5t-317.5 -110.5q-199 0 -315.5 110t-116.5 306v657h176v-645q0 -135 66.5 -202.5t189.5 -67.5t190.5 67.5t67.5 202.5v645h176zM596 1212q-151 0 -237.5 89.5t-100.5 234.5h133q15 -91 68.5 -144t136.5 -53t136.5 53t68.5 144h133
q-14 -145 -100.5 -234.5t-237.5 -89.5z" />
    <glyph glyph-name="Uring" unicode="&#x16e;" horiz-adv-x="1341" 
d="M672 -37q-226 0 -358 119t-132 340v975h189v-951q0 -153 78 -230t219 -77t220 77t79 230v951h190v-975q0 -222 -130.5 -340.5t-354.5 -118.5zM897 1581q0 -89 -65 -136.5t-162 -47.5q-98 0 -162 47.5t-64 136.5q0 87 65.5 133.5t164.5 46.5q96 0 159.5 -46.5t63.5 -133.5
zM782 1581q0 42 -31.5 66t-78.5 24q-49 0 -82 -24.5t-33 -65.5q0 -45 32.5 -69.5t82.5 -24.5q48 0 79 24.5t31 69.5z" />
    <glyph glyph-name="uring" unicode="&#x16f;" horiz-adv-x="1193" 
d="M829 1376q0 -95 -67.5 -145.5t-167.5 -50.5t-166 50.5t-66 145.5q0 94 67.5 144.5t168.5 50.5q98 0 164.5 -50.5t66.5 -144.5zM707 1376q0 47 -30.5 75t-80.5 28q-51 0 -83 -28t-32 -75q0 -51 31.5 -78.5t83.5 -27.5q51 0 81 27.5t30 78.5zM1030 1036v-657
q0 -195 -116.5 -305.5t-317.5 -110.5q-199 0 -315.5 110t-116.5 306v657h176v-645q0 -135 66.5 -202.5t189.5 -67.5t190.5 67.5t67.5 202.5v645h176z" />
    <glyph glyph-name="Uhungarumlaut" unicode="&#x170;" horiz-adv-x="1341" 
d="M672 -37q-226 0 -358 119t-132 340v975h189v-951q0 -153 78 -230t219 -77t220 77t79 230v951h190v-975q0 -222 -130.5 -340.5t-354.5 -118.5zM547 1397h-158l158 241h190zM901 1397h-158l156 241h191z" />
    <glyph glyph-name="uhungarumlaut" unicode="&#x171;" horiz-adv-x="1193" 
d="M1030 1036v-657q0 -195 -116.5 -305.5t-317.5 -110.5q-199 0 -315.5 110t-116.5 306v657h176v-645q0 -135 66.5 -202.5t189.5 -67.5t190.5 67.5t67.5 202.5v645h176zM496 1141h-158l258 395h184zM844 1141h-158l256 395h186z" />
    <glyph glyph-name="Uogonek" unicode="&#x172;" horiz-adv-x="1341" 
d="M883 -346q-81 -49 -187 -49q-95 0 -144.5 43t-49.5 110q0 99 114 207q-202 14 -318 131.5t-116 325.5v975h189v-951q0 -153 78 -230t219 -77t220 77t79 230v951h190v-975q0 -203 -110 -319.5t-302 -135.5q-55 -53 -78.5 -91.5t-23.5 -76.5q0 -39 25 -59.5t69 -20.5
q76 0 140 58h6v-123z" />
    <glyph glyph-name="uogonek" unicode="&#x173;" horiz-adv-x="1193" 
d="M1030 1036v-657q0 -172 -90.5 -278.5t-251.5 -129.5q-57 -58 -80.5 -96t-23.5 -76q0 -39 25 -59.5t69 -20.5q75 0 139 58h6v-123q-81 -49 -186 -49q-95 0 -145 43t-50 110q0 53 28.5 102t84.5 105q-182 11 -286.5 119t-104.5 295v657h176v-645q0 -135 66.5 -202.5
t189.5 -67.5t190.5 67.5t67.5 202.5v645h176z" />
    <glyph glyph-name="Wcircumflex" unicode="&#x174;" horiz-adv-x="1974" 
d="M1227 1397h-154l-119 147h-2l-121 -147h150l371 -1090h2l377 1090h198l-504 -1434h-145l-293 828h-2l-291 -828h-145l-502 1434h203l383 -1090h2l264 752l-117 338h-104l205 262h139z" />
    <glyph glyph-name="wcircumflex" unicode="&#x175;" horiz-adv-x="1667" 
d="M1188 1143h-158l-194 272h-2l-197 -272h-158l291 407h127zM1239 -37h-113l-290 715h-2l-291 -715h-115l-389 1073h197l262 -743h2l327 780h17l325 -778h2l263 741h194z" />
    <glyph glyph-name="Ycircumflex" unicode="&#x176;" horiz-adv-x="1214" 
d="M700 0h-186v575l-496 822h224l364 -629h2l369 629h219l-496 -822v-575zM883 1397h-154l-119 147h-2l-121 -147h-153l205 262h139z" />
    <glyph glyph-name="ycircumflex" unicode="&#x177;" horiz-adv-x="1071" 
d="M492 -395h-193l160 397l-441 1034h201l328 -807h2l289 807h194zM891 1143h-158l-194 272h-2l-197 -272h-158l291 407h127z" />
    <glyph glyph-name="Ydieresis" unicode="&#x178;" horiz-adv-x="1214" 
d="M700 0h-186v575l-496 822h224l364 -629h2l369 629h219l-496 -822v-575zM487 1499h-180v158h180v-158zM911 1499h-180v158h180v-158z" />
    <glyph glyph-name="Zacute" unicode="&#x179;" horiz-adv-x="1302" 
d="M698 1397h445v-13l-715 -1206v-2h760v-176h-1079v12l712 1207v2h-663v176h387l155 241h191z" />
    <glyph glyph-name="zacute" unicode="&#x17a;" horiz-adv-x="983" 
d="M557 1141h-158l256 395h187zM907 0h-844v12l525 867v2h-486v155h777v-12l-527 -866v-2h555v-156z" />
    <glyph glyph-name="Zdotaccent" unicode="&#x17b;" horiz-adv-x="1302" 
d="M727 1499h-192v158h192v-158zM1188 0h-1079v12l712 1207v2h-663v176h985v-13l-715 -1206v-2h760v-176z" />
    <glyph glyph-name="zdotaccent" unicode="&#x17c;" horiz-adv-x="983" 
d="M907 0h-844v12l525 867v2h-486v155h777v-12l-527 -866v-2h555v-156zM578 1362h-193v174h193v-174z" />
    <glyph glyph-name="Zcaron" unicode="&#x17d;" horiz-adv-x="1302" 
d="M1188 0h-1079v12l712 1207v2h-663v176h409l-192 248h153l119 -146h2l121 146h154l-195 -248h414v-13l-715 -1206v-2h760v-176z" />
    <glyph glyph-name="zcaron" unicode="&#x17e;" horiz-adv-x="983" 
d="M545 1128h-127l-291 408h158l194 -272h2l197 272h158zM907 0h-844v12l525 867v2h-486v155h777v-12l-527 -866v-2h555v-156z" />
    <glyph glyph-name="florin" unicode="&#x192;" horiz-adv-x="1081" 
d="M438 0h-180v616h-168v158h168v234q0 203 113.5 314.5t312.5 111.5q198 0 336 -117v-199h-8q-127 152 -312 152q-128 0 -195 -76t-67 -205v-215h436v-158h-436v-616z" />
    <glyph glyph-name="Aringacute" unicode="&#x1fa;" horiz-adv-x="1366" 
d="M909 1581q0 -66 -37.5 -110t-99.5 -62l563 -1409h-207l-170 436h-557l-170 -436h-198l561 1407q-63 18 -100 62t-37 112q0 71 45 115.5t119 58.5l135 211h190l-172 -217q62 -18 98.5 -60.5t36.5 -107.5zM897 602l-217 561h-2l-215 -561h434zM795 1581q0 41 -32 65.5
t-79 24.5q-49 0 -82 -24.5t-33 -65.5q0 -45 32.5 -69.5t82.5 -24.5q48 0 79.5 24.5t31.5 69.5z" />
    <glyph glyph-name="aringacute" unicode="&#x1fb;" horiz-adv-x="1116" 
d="M952 0h-172v82h-2q-132 -119 -311 -119q-152 0 -250 88.5t-98 237.5q0 153 101.5 244.5t283.5 91.5q155 0 272 -70v104q0 131 -76.5 195t-201.5 64q-91 0 -173.5 -41t-136.5 -105h-6v184q145 117 350 117q189 0 304.5 -102t115.5 -305v-666zM776 233v179q-100 65 -241 65
q-115 0 -177.5 -46t-62.5 -132q0 -79 59 -130.5t168 -51.5q151 0 254 116zM627 1642h-158l256 396h186zM793 1376q0 -95 -68 -145.5t-168 -50.5t-165.5 50.5t-65.5 145.5q0 94 67 144.5t168 50.5q98 0 165 -50.5t67 -144.5zM670 1376q0 47 -30.5 75t-80.5 28q-51 0 -83 -28
t-32 -75q0 -51 31.5 -78.5t83.5 -27.5q51 0 81 27.5t30 78.5z" />
    <glyph glyph-name="AEacute" unicode="&#x1fc;" horiz-adv-x="1873" 
d="M1124 1397h-153l155 241h191zM1735 0h-768v567h-396l-333 -567h-218l820 1397h841v-176h-528v-451h508v-176h-508v-418h582v-176zM963 1251l-299 -508h303v508h-4z" />
    <glyph glyph-name="aeacute" unicode="&#x1fd;" horiz-adv-x="1808" 
d="M961 1141h-158l256 395h186zM1294 -37q-130 0 -236.5 47t-174.5 137h-4q-161 -184 -412 -184q-152 0 -250 88.5t-98 237.5q0 153 101.5 244.5t283.5 91.5q155 0 272 -70v107q0 131 -77 193.5t-201 62.5q-91 0 -173 -40.5t-137 -103.5h-6v182q145 117 350 117
q254 0 347 -194h4q54 93 149.5 143.5t216.5 50.5q197 0 329 -132.5t132 -346.5q0 -71 -4 -102h-754q6 -179 107.5 -277t269.5 -98q98 0 184.5 40t141.5 103h6v-180q-69 -56 -164.5 -86.5t-202.5 -30.5zM522 117q86 0 163.5 37.5t131.5 105.5q-34 86 -39 150q-101 67 -235 67
q-120 0 -184 -45t-64 -135q0 -79 58 -129.5t169 -50.5zM1528 639q-6 125 -83.5 202t-197.5 77t-198 -72t-95 -207h574z" />
    <glyph glyph-name="Oslashacute" unicode="&#x1fe;" horiz-adv-x="1519" 
d="M287 -37h-189l168 221q-168 199 -168 514q0 162 46.5 296.5t128 225t189 144.5t232.5 66l135 208h191l-168 -211q164 -22 291 -112l90 119h188l-168 -222q168 -203 168 -514q0 -173 -52.5 -314t-143.5 -232t-210.5 -140t-256.5 -49q-215 0 -381 119zM1227 698
q0 218 -94 361l-646 -830q113 -88 271 -88q97 0 181.5 36t149 103.5t101.5 175t37 242.5zM295 698q0 -214 90 -356l645 827q-117 88 -268 88q-97 0 -180.5 -36t-148 -104t-101.5 -176t-37 -243z" />
    <glyph glyph-name="oslashacute" unicode="&#x1ff;" horiz-adv-x="1187" 
d="M258 -37h-180l127 168q-127 149 -127 387q0 258 145.5 406.5t372.5 148.5q154 0 278 -76l56 76h182l-127 -170q127 -146 127 -385q0 -129 -39.5 -234.5t-109.5 -175.5t-165 -107.5t-206 -37.5q-153 0 -279 74zM264 518q0 -142 53 -237l457 583q-79 54 -178 54
q-148 0 -240 -106.5t-92 -293.5zM924 518q0 136 -54 236l-456 -582q76 -51 178 -51q149 0 240.5 105t91.5 292zM672 1141h-158l256 395h186z" />
    <glyph glyph-name="Scommaaccent" unicode="&#x218;" 
d="M420 -395h-158l207 319h184zM987 356q0 -170 -118.5 -281.5t-325.5 -111.5q-248 0 -398 135v211h7q70 -87 170 -132.5t208 -45.5q127 0 199 56t72 155q0 69 -36 120t-93 84t-126 62.5t-138.5 65t-126.5 80.5t-93 120t-36 173q0 77 24.5 145t73.5 123t131.5 87t189.5 32
q105 0 201 -34.5t166 -101.5v-208h-6q-66 85 -158.5 130.5t-189.5 45.5q-117 0 -180.5 -55t-63.5 -146q0 -54 22 -97t59.5 -72t86 -54.5t102.5 -48.5t107.5 -48t102 -60t86 -78t59.5 -107.5t22 -143.5z" />
    <glyph glyph-name="scommaaccent" unicode="&#x219;" horiz-adv-x="923" 
d="M348 -395h-158l207 319h185zM799 268q0 -138 -92 -221.5t-265 -83.5q-196 0 -311 100v185h6q53 -65 133.5 -101t167.5 -36t138 39.5t51 103.5q0 49 -27 85t-70.5 58.5t-96 43.5t-105 47t-96 60.5t-70.5 92.5t-27 135q0 133 85.5 215t246.5 82q183 0 295 -100v-185h-6
q-51 62 -124.5 100t-152.5 38q-82 0 -125 -38.5t-43 -101.5q0 -48 27 -82.5t70 -56.5t95 -42t104 -46t95 -60.5t70 -93.5t27 -137z" />
    <glyph glyph-name="commaaccent.alt" unicode="&#x2bb;" horiz-adv-x="1024" 
d="M500 1217h-185l234 319h158z" />
    <glyph glyph-name="commaaccent.alt" unicode="&#xe026;" horiz-adv-x="1024" 
d="M500 1217h-185l234 319h158z" />
    <glyph glyph-name="commaaccent.alt" unicode="&#x312;" horiz-adv-x="1024" 
d="M500 1217h-185l234 319h158z" />
    <glyph glyph-name="circumflex" unicode="&#x2c6;" horiz-adv-x="1024" 
d="M866 1143h-157l-195 272h-2l-197 -272h-157l291 407h126z" />
    <glyph glyph-name="circumflex" unicode="&#x302;" horiz-adv-x="1024" 
d="M866 1143h-157l-195 272h-2l-197 -272h-157l291 407h126z" />
    <glyph glyph-name="caron" unicode="&#x2c7;" horiz-adv-x="1024" 
d="M575 1128h-126l-291 408h157l195 -272h2l197 272h157z" />
    <glyph glyph-name="caron" unicode="&#x30c;" horiz-adv-x="1024" 
d="M575 1128h-126l-291 408h157l195 -272h2l197 272h157z" />
    <glyph glyph-name="breve" unicode="&#x2d8;" horiz-adv-x="1024" 
d="M512 1212q-151 0 -237.5 89.5t-100.5 234.5h133q15 -91 68.5 -144t136.5 -53t136.5 53t68.5 144h133q-14 -145 -100.5 -234.5t-237.5 -89.5z" />
    <glyph glyph-name="breve" unicode="&#x306;" horiz-adv-x="1024" 
d="M512 1212q-151 0 -237.5 89.5t-100.5 234.5h133q15 -91 68.5 -144t136.5 -53t136.5 53t68.5 144h133q-14 -145 -100.5 -234.5t-237.5 -89.5z" />
    <glyph glyph-name="dotaccent" unicode="&#x2d9;" horiz-adv-x="1024" 
d="M608 1362h-192v174h192v-174z" />
    <glyph glyph-name="dotaccent" unicode="&#x307;" horiz-adv-x="1024" 
d="M608 1362h-192v174h192v-174z" />
    <glyph glyph-name="ring" unicode="&#x2da;" horiz-adv-x="1024" 
d="M745 1376q0 -95 -67.5 -145.5t-167.5 -50.5t-165.5 50.5t-65.5 145.5q0 94 67 144.5t168 50.5q98 0 164.5 -50.5t66.5 -144.5zM623 1376q0 47 -30.5 75t-80.5 28q-51 0 -83 -28t-32 -75q0 -51 31.5 -78.5t83.5 -27.5q51 0 81 27.5t30 78.5z" />
    <glyph glyph-name="ring" unicode="&#x30a;" horiz-adv-x="1024" 
d="M745 1376q0 -95 -67.5 -145.5t-167.5 -50.5t-165.5 50.5t-65.5 145.5q0 94 67 144.5t168 50.5q98 0 164.5 -50.5t66.5 -144.5zM623 1376q0 47 -30.5 75t-80.5 28q-51 0 -83 -28t-32 -75q0 -51 31.5 -78.5t83.5 -27.5q51 0 81 27.5t30 78.5z" />
    <glyph glyph-name="ogonek" unicode="&#x2db;" horiz-adv-x="1024" 
d="M702 -346q-81 -49 -186 -49q-95 0 -144.5 43t-49.5 110q0 63 41 122t124 132h125q-83 -78 -116 -123.5t-33 -89.5q0 -39 25 -59.5t69 -20.5q75 0 139 58h6v-123z" />
    <glyph glyph-name="ogonek" unicode="&#x328;" horiz-adv-x="1024" 
d="M702 -346q-81 -49 -186 -49q-95 0 -144.5 43t-49.5 110q0 63 41 122t124 132h125q-83 -78 -116 -123.5t-33 -89.5q0 -39 25 -59.5t69 -20.5q75 0 139 58h6v-123z" />
    <glyph glyph-name="tilde" unicode="&#x2dc;" horiz-adv-x="1024" 
d="M676 1257q-40 0 -86.5 23t-81.5 50t-75.5 50t-70.5 23q-38 0 -59.5 -33.5t-46.5 -112.5h-117q31 142 78 210.5t131 68.5q40 0 86.5 -22.5t81.5 -50t75.5 -50t70.5 -22.5q39 0 60 32.5t46 112.5h117q-31 -143 -78 -211t-131 -68z" />
    <glyph glyph-name="tilde" unicode="&#x303;" horiz-adv-x="1024" 
d="M676 1257q-40 0 -86.5 23t-81.5 50t-75.5 50t-70.5 23q-38 0 -59.5 -33.5t-46.5 -112.5h-117q31 142 78 210.5t131 68.5q40 0 86.5 -22.5t81.5 -50t75.5 -50t70.5 -22.5q39 0 60 32.5t46 112.5h117q-31 -143 -78 -211t-131 -68z" />
    <glyph glyph-name="hungarumlaut" unicode="&#x2dd;" horiz-adv-x="1024" 
d="M274 1141h-157l258 395h184zM623 1141h-158l256 395h186z" />
    <glyph glyph-name="hungarumlaut" unicode="&#x30b;" horiz-adv-x="1024" 
d="M274 1141h-157l258 395h184zM623 1141h-158l256 395h186z" />
    <glyph glyph-name="caronSlovak" unicode="&#x315;" horiz-adv-x="1024" 
d="M512 1128h-139l110 408h166z" />
    <glyph glyph-name="caronSlovak" unicode="&#xe01e;" horiz-adv-x="1024" 
d="M512 1128h-139l110 408h166z" />
    <glyph glyph-name="commaaccent" unicode="&#x326;" horiz-adv-x="1024" 
d="M473 -395h-158l207 319h185z" />
    <glyph glyph-name="uni037E" unicode="&#x37e;" horiz-adv-x="552" 
d="M375 825h-193v211h193v-211zM229 -283h-161l149 494h166v-10z" />
    <glyph glyph-name="tonos" unicode="&#x384;" horiz-adv-x="1024" 
d="M530 1141h-135l68 395h166z" />
    <glyph glyph-name="dieresistonos" unicode="&#x385;" horiz-adv-x="1024" 
d="M334 1229h-162v155h162v-155zM852 1229h-162v155h162v-155zM551 1141h-139l49 395h164z" />
    <glyph glyph-name="Alphatonos" unicode="&#x386;" horiz-adv-x="1386" 
d="M248 1001h-135l67 396h166zM1356 0h-207l-170 436h-557l-170 -436h-199l572 1434h157zM918 602l-218 561h-2l-215 -561h435z" />
    <glyph glyph-name="anoteleia" unicode="&#x387;" horiz-adv-x="542" 
d="M369 440h-193v209h193v-209z" />
    <glyph glyph-name="Epsilontonos" unicode="&#x388;" horiz-adv-x="1204" 
d="M104 1001h-135l68 396h166zM1067 0h-770v1397h717v-176h-529v-416h508v-176h-508v-453h582v-176z" />
    <glyph glyph-name="Etatonos" unicode="&#x389;" horiz-adv-x="1636" 
d="M104 1001h-135l68 396h166zM1434 0h-189v635h-760v-635h-188v1397h188v-586h760v586h189v-1397z" />
    <glyph glyph-name="Iotatonos" unicode="&#x38a;" horiz-adv-x="688" 
d="M104 1001h-135l68 396h166zM485 0h-186v1397h186v-1397z" />
    <glyph glyph-name="Omicrontonos" unicode="&#x38c;" horiz-adv-x="1587" 
d="M104 1001h-135l68 396h166zM1489 698q0 -173 -52.5 -314t-143.5 -232t-211 -140t-257 -49q-133 0 -251.5 48.5t-209.5 139t-144.5 232t-53.5 315.5q0 173 53 314.5t144 232.5t210.5 140t255.5 49q134 0 252.5 -49t210 -139.5t144.5 -232t53 -315.5zM1294 698
q0 133 -36.5 240.5t-100 176.5t-147.5 105.5t-181 36.5t-180.5 -36t-148 -104t-101.5 -176t-37 -243q0 -133 36 -240.5t99.5 -176.5t147 -105.5t180.5 -36.5t181.5 36t149 104.5t101.5 176t37 242.5z" />
    <glyph glyph-name="Upsilontonos" unicode="&#x38e;" horiz-adv-x="1415" 
d="M104 1001h-135l68 396h166zM901 0h-186v575l-496 822h223l365 -629h2l369 629h219l-496 -822v-575z" />
    <glyph glyph-name="Omegatonos" unicode="&#x38f;" horiz-adv-x="1595" 
d="M1487 0h-580v135q186 128 274.5 278t88.5 339q0 239 -123 372t-320 133t-320.5 -133t-123.5 -372q0 -190 88.5 -339.5t273.5 -277.5v-135h-579v176h297v2q-134 120 -205.5 268.5t-71.5 344.5q0 122 32.5 226t91 180t138.5 130t176 80.5t203 26.5q106 0 201.5 -26.5
t175.5 -80.5t138.5 -130t91 -180t32.5 -226q0 -196 -71 -344.5t-203 -268.5v-2h295v-176zM119 1001h-135l67 396h166z" />
    <glyph glyph-name="iotadieresistonos" unicode="&#x390;" horiz-adv-x="528" 
d="M352 0h-176v1036h176v-1036zM334 1141h-139l49 395h164zM117 1229h-162v155h162v-155zM635 1229h-162v155h162v-155z" />
    <glyph glyph-name="Alpha" unicode="&#x391;" horiz-adv-x="1366" 
d="M1335 0h-207l-170 436h-557l-170 -436h-198l571 1434h158zM897 602l-217 561h-2l-215 -561h434z" />
    <glyph glyph-name="Beta" unicode="&#x392;" horiz-adv-x="1255" 
d="M1122 377q0 -377 -501 -377h-418v1397h399q200 0 320 -94t120 -263q0 -111 -53 -193.5t-147 -129.5v-2q118 -27 199 -114.5t81 -223.5zM930 403q0 104 -79.5 162t-215.5 58h-244v-457h223q316 0 316 237zM850 1012q0 102 -73 161.5t-199 59.5h-187v-451h266
q103 33 148 89t45 141z" />
    <glyph glyph-name="Gamma" unicode="&#x393;" horiz-adv-x="993" 
d="M391 0h-186v1397h727v-180h-541v-1217z" />
    <glyph glyph-name="uni0394" unicode="&#x394;" horiz-adv-x="1366" 
d="M1335 0h-1302l571 1434h158zM1063 176l-383 991h-2l-383 -991h768z" />
    <glyph glyph-name="Epsilon" unicode="&#x395;" horiz-adv-x="1112" 
d="M973 0h-770v1397h717v-176h-529v-416h508v-176h-508v-453h582v-176z" />
    <glyph glyph-name="Zeta" unicode="&#x396;" horiz-adv-x="1302" 
d="M1188 0h-1079v12l712 1207v2h-663v176h985v-13l-715 -1206v-2h760v-176z" />
    <glyph glyph-name="Eta" unicode="&#x397;" horiz-adv-x="1542" 
d="M1339 0h-188v635h-760v-635h-188v1397h188v-586h760v586h188v-1397z" />
    <glyph glyph-name="Theta" unicode="&#x398;" horiz-adv-x="1519" 
d="M1421 698q0 -173 -52.5 -314t-143.5 -232t-210.5 -140t-256.5 -49q-133 0 -251.5 48.5t-210 139t-145 232t-53.5 315.5q0 173 53 314.5t144 232.5t211 140t256 49q134 0 252.5 -49t209.5 -139.5t144 -232t53 -315.5zM1227 698q0 133 -36.5 240.5t-100 176.5t-147.5 105.5
t-181 36.5t-180.5 -36t-148 -104t-101.5 -176t-37 -243q0 -133 36 -240.5t99.5 -176.5t147 -105.5t180.5 -36.5t181.5 36t149 104.5t101.5 176t37 242.5zM1038 610h-559v176h559v-176z" />
    <glyph glyph-name="Iota" unicode="&#x399;" horiz-adv-x="593" 
d="M391 0h-186v1397h186v-1397z" />
    <glyph glyph-name="Kappa" unicode="&#x39a;" horiz-adv-x="1249" 
d="M391 0h-188v1397h188v-1397zM1206 0h-229l-553 702v9l532 686h226l-539 -684v-4z" />
    <glyph glyph-name="Lambda" unicode="&#x39b;" horiz-adv-x="1339" 
d="M1309 0h-213l-428 1124h-2l-426 -1124h-207l563 1434h145z" />
    <glyph glyph-name="Mu" unicode="&#x39c;" horiz-adv-x="1785" 
d="M1614 0h-189l-84 956h-2l-440 -993h-14l-443 995h-2l-80 -958h-188l123 1421h143l455 -1061h2l453 1061h143z" />
    <glyph glyph-name="Nu" unicode="&#x39d;" horiz-adv-x="1548" 
d="M1346 -25h-146l-807 1047h-2v-1022h-188v1311l-56 75v11h201l809 -1061h2v1061h187v-1422z" />
    <glyph glyph-name="Xi" unicode="&#x39e;" horiz-adv-x="1265" 
d="M1139 0h-1010v176h1010v-176zM1090 1221h-916v176h916v-176zM1065 629h-862v176h862v-176z" />
    <glyph glyph-name="Omicron" unicode="&#x39f;" horiz-adv-x="1519" 
d="M1421 698q0 -173 -52.5 -314t-143.5 -232t-210.5 -140t-256.5 -49q-133 0 -251.5 48.5t-210 139t-145 232t-53.5 315.5q0 173 53 314.5t144 232.5t211 140t256 49q134 0 252.5 -49t209.5 -139.5t144 -232t53 -315.5zM1227 698q0 133 -36.5 240.5t-100 176.5t-147.5 105.5
t-181 36.5t-180.5 -36t-148 -104t-101.5 -176t-37 -243q0 -133 36 -240.5t99.5 -176.5t147 -105.5t180.5 -36.5t181.5 36t149 104.5t101.5 176t37 242.5z" />
    <glyph glyph-name="Pi" unicode="&#x3a0;" horiz-adv-x="1507" 
d="M1305 0h-187v1221h-727v-1221h-188v1397h1102v-1397z" />
    <glyph glyph-name="Rho" unicode="&#x3a1;" horiz-adv-x="1200" 
d="M1094 967q0 -107 -36.5 -191t-117 -152.5t-218.5 -112t-331 -58.5v-453h-188v1397h397q103 0 191.5 -27t156.5 -79t107 -135.5t39 -188.5zM901 952q0 128 -86 199.5t-227 71.5h-197v-594q141 7 243 34.5t158.5 72.5t82.5 98t26 118z" />
    <glyph glyph-name="Sigma" unicode="&#x3a3;" horiz-adv-x="1167" 
d="M1077 0h-1024v12l508 707v2l-483 663v13h958v-176h-610v-2l367 -494v-12l-396 -535v-2h680v-176z" />
    <glyph glyph-name="Tau" unicode="&#x3a4;" horiz-adv-x="1095" 
d="M641 0h-186v1221h-394v176h973v-176h-393v-1221z" />
    <glyph glyph-name="Upsilon" unicode="&#x3a5;" horiz-adv-x="1214" 
d="M700 0h-186v575l-496 822h224l364 -629h2l369 629h219l-496 -822v-575z" />
    <glyph glyph-name="Phi" unicode="&#x3a6;" horiz-adv-x="1603" 
d="M897 -25h-186v127q-131 6 -242.5 47t-195.5 113.5t-131.5 184.5t-47.5 251q0 111 31 205t86 163t132.5 118t170 76t197.5 32v129h186v-129q131 -7 241.5 -48t194 -113.5t130 -183.5t46.5 -249q0 -139 -46.5 -250t-130 -184t-194 -114t-241.5 -48v-127zM715 276v844
q-195 -9 -309.5 -119t-114.5 -303q0 -194 115.5 -304t308.5 -118zM895 276q191 8 304.5 118t113.5 304q0 192 -113.5 302.5t-304.5 119.5v-844z" />
    <glyph glyph-name="Chi" unicode="&#x3a7;" horiz-adv-x="1361" 
d="M1292 0h-229l-391 569h-2l-357 -569h-225l451 711l-469 686h225l379 -555h2l358 555h223l-448 -690z" />
    <glyph glyph-name="Psi" unicode="&#x3a8;" horiz-adv-x="1591" 
d="M889 0h-189v289q-279 9 -413.5 132.5t-134.5 387.5v588h184v-590q0 -172 87 -255.5t277 -90.5v936h189v-936q191 6 277.5 89t86.5 257v590h187v-588q0 -264 -136 -387.5t-415 -132.5v-289z" />
    <glyph glyph-name="uni03A9" unicode="&#x3a9;" horiz-adv-x="1533" 
d="M1427 0h-579v135q185 128 273.5 277.5t88.5 339.5q0 239 -122.5 372t-319.5 133t-320.5 -133t-123.5 -372q0 -190 88.5 -339.5t273.5 -277.5v-135h-580v176h297v2q-134 119 -205 268t-71 345q0 122 32.5 226t91 180t138.5 130t176 80.5t203 26.5q106 0 201.5 -26.5
t175.5 -80.5t138.5 -130t91 -180t32.5 -226q0 -196 -71 -344.5t-203 -268.5v-2h294v-176z" />
    <glyph glyph-name="Iotadieresis" unicode="&#x3aa;" horiz-adv-x="598" 
d="M391 0h-186v1397h186v-1397zM178 1499h-180v158h180v-158zM602 1499h-180v158h180v-158z" />
    <glyph glyph-name="Upsilondieresis" unicode="&#x3ab;" horiz-adv-x="1210" 
d="M696 0h-186v575l-496 822h224l364 -629h2l369 629h219l-496 -822v-575zM483 1499h-180v158h180v-158zM907 1499h-180v158h180v-158z" />
    <glyph glyph-name="alphatonos" unicode="&#x3ac;" horiz-adv-x="1208" 
d="M694 1141h-135l68 395h166zM856 250v561q-102 102 -250 102q-156 0 -247 -103.5t-91 -291.5q0 -184 88 -289.5t236 -105.5q157 0 264 127zM1032 0h-174v86h-2q-136 -123 -315 -123q-203 0 -331 149t-128 406q0 259 134 407t351 148q169 0 301 -98h2l156 72h6v-1047z" />
    <glyph glyph-name="epsilontonos" unicode="&#x3ad;" horiz-adv-x="946" 
d="M598 1141h-135l67 395h166zM92 276q0 101 58 173.5t151 99.5v2q-151 74 -151 242q0 130 96 205t268 75q208 0 322 -102v-185h-7q-107 140 -280 140q-100 0 -153.5 -44.5t-53.5 -113.5q0 -73 57 -117.5t144 -44.5h186v-147h-299q-74 -18 -112.5 -61.5t-38.5 -104.5
q0 -89 72.5 -135.5t174.5 -46.5q100 0 181.5 35.5t130.5 103.5h6v-184q-119 -103 -355 -103q-185 0 -291 82.5t-106 230.5z" />
    <glyph glyph-name="etatonos" unicode="&#x3ae;" horiz-adv-x="1232" 
d="M715 1141h-135l67 395h166zM1067 -395h-176v1038q0 134 -72 202t-192 68q-164 0 -275 -127v-786h-176v1036h174v-86h2q136 123 326 123q170 0 279.5 -96t109.5 -279v-1093z" />
    <glyph glyph-name="iotatonos" unicode="&#x3af;" horiz-adv-x="528" 
d="M352 0h-176v1036h176v-1036zM338 1141h-135l67 395h166z" />
    <glyph glyph-name="upsilondieresistonos" unicode="&#x3b0;" horiz-adv-x="1198" 
d="M430 1229h-162v155h162v-155zM948 1229h-162v155h162v-155zM647 1141h-139l49 395h164zM821 1036h183q34 -282 34 -497q0 -576 -456 -576q-194 0 -305 113t-111 309v651h176v-641q0 -135 63.5 -204.5t180.5 -69.5q66 0 115 21.5t79.5 57.5t49 90t25.5 111.5t7 130.5
q0 249 -41 504z" />
    <glyph glyph-name="alpha" unicode="&#x3b1;" horiz-adv-x="1208" 
d="M856 250v561q-102 102 -250 102q-156 0 -247 -103.5t-91 -291.5q0 -184 88 -289.5t236 -105.5q157 0 264 127zM1032 0h-174v86h-2q-136 -123 -315 -123q-203 0 -331 149t-128 406q0 259 134 407t351 148q169 0 301 -98h2l156 72h6v-1047z" />
    <glyph glyph-name="beta" unicode="&#x3b2;" horiz-adv-x="1212" 
d="M1122 424q0 -143 -60.5 -249t-161.5 -159t-228 -53q-184 0 -307 86h-3v-366l-172 -78h-4v1560q0 385 412 385q189 0 303.5 -95.5t114.5 -272.5q0 -120 -53 -203t-164 -150v-2q63 -12 117.5 -39.5t102.5 -74t75.5 -121t27.5 -168.5zM936 442q0 146 -90.5 216.5
t-241.5 70.5h-127v160h150q111 46 157.5 110t46.5 158q0 106 -64 172t-171 66q-126 0 -180 -60.5t-54 -173.5v-936q102 -102 277 -102q127 0 212 81.5t85 237.5z" />
    <glyph glyph-name="gamma" unicode="&#x3b3;" horiz-adv-x="1021" 
d="M586 -319l-168 -76h-4q0 213 -27 349t-119 394l-243 688h196l191 -559q57 -171 75 -237h2l33 92q72 210 138 372t161 332h193q-52 -90 -97 -179.5t-93.5 -201.5t-71 -166.5t-79 -198t-67.5 -171.5l-45 -117q25 -142 25 -321z" />
    <glyph glyph-name="delta" unicode="&#x3b4;" horiz-adv-x="1175" 
d="M1098 487q0 -238 -144.5 -381t-367.5 -143q-142 0 -257 62.5t-183 181.5t-68 274q0 171 85.5 295.5t278.5 237.5q-104 65 -147 125t-43 151q0 122 88.5 191t259.5 69q213 0 361 -98v-186h-7q-65 65 -153 101t-180 36q-191 0 -191 -117q0 -51 42 -91t153 -103l100 -58
q85 -47 148 -96.5t116.5 -115t81 -150t27.5 -185.5zM911 485q0 141 -69.5 238.5t-196.5 167.5l-57 33q-176 -92 -250 -198t-74 -241q0 -166 90.5 -265t235.5 -99q141 0 231 99t90 265z" />
    <glyph glyph-name="epsilon" unicode="&#x3b5;" horiz-adv-x="946" 
d="M92 276q0 101 58 173.5t151 99.5v2q-151 74 -151 242q0 130 96 205t268 75q208 0 322 -102v-185h-7q-107 140 -280 140q-100 0 -153.5 -44.5t-53.5 -113.5q0 -73 57 -117.5t144 -44.5h186v-147h-299q-74 -18 -112.5 -61.5t-38.5 -104.5q0 -89 72.5 -135.5t174.5 -46.5
q100 0 181.5 35.5t130.5 103.5h6v-184q-119 -103 -355 -103q-185 0 -291 82.5t-106 230.5z" />
    <glyph glyph-name="zeta" unicode="&#x3b6;" horiz-adv-x="940" 
d="M834 -291h-181q66 113 66 180q0 45 -27 72q-22 20 -67.5 30t-99.5 16t-112.5 17t-120 41.5t-108.5 81.5q-106 109 -106 302q0 97 24.5 189t64.5 172.5t113.5 178t148 181t192.5 206.5v2h-480v158h766v-113q-126 -123 -209.5 -210t-162.5 -176t-125.5 -157t-82.5 -140
t-50.5 -138t-14.5 -139q0 -117 70 -197q35 -42 89.5 -66.5t112 -34t114.5 -16t110.5 -20.5t85.5 -39q55 -41 55 -139q0 -112 -65 -242z" />
    <glyph glyph-name="eta" unicode="&#x3b7;" horiz-adv-x="1232" 
d="M1067 -395h-176v1038q0 134 -72 202t-192 68q-164 0 -275 -127v-786h-176v1036h174v-86h2q136 123 326 123q170 0 279.5 -96t109.5 -279v-1093z" />
    <glyph glyph-name="theta" unicode="&#x3b8;" horiz-adv-x="1122" 
d="M1034 698q0 -188 -36 -331.5t-101 -230.5t-149.5 -130t-186.5 -43q-100 0 -184 43t-149.5 130t-102.5 230.5t-37 331.5q0 189 36.5 332.5t101.5 230.5t149.5 130t185.5 43q104 0 189 -43t149 -130t99.5 -230t35.5 -333zM561 1276q-122 0 -200.5 -123.5t-88.5 -378.5h578
q-10 257 -87 379.5t-202 122.5zM561 121q124 0 200.5 121.5t88.5 373.5h-578q11 -251 89.5 -373t199.5 -122z" />
    <glyph glyph-name="iota" unicode="&#x3b9;" horiz-adv-x="528" 
d="M352 0h-176v1036h176v-1036z" />
    <glyph glyph-name="kappa" unicode="&#x3ba;" horiz-adv-x="1046" 
d="M352 0h-176v1036h176v-1036zM1012 0h-217l-416 522v6l399 508h209l-403 -508v-4z" />
    <glyph glyph-name="lambda" unicode="&#x3bb;" horiz-adv-x="1064" 
d="M1040 0h-196l-279 807h-2l-338 -807h-200l452 1034q-60 158 -118.5 273.5t-139.5 228.5h205q136 -212 242 -506z" />
    <glyph glyph-name="uni03BC" unicode="&#x3bc;" horiz-adv-x="1218" 
d="M1042 0h-168v86h-2q-54 -56 -127 -89.5t-149 -33.5q-190 0 -262 133h-4q15 -192 22 -413l-172 -78h-4v1431h176v-643q0 -137 70.5 -203.5t185.5 -66.5q168 0 258 141v772h176v-1036z" />
    <glyph glyph-name="nu" unicode="&#x3bd;" horiz-adv-x="1050" 
d="M571 -37h-120l-426 1073h200l297 -815h2q190 370 310 815h188q-64 -259 -178.5 -520t-272.5 -553z" />
    <glyph glyph-name="xi" unicode="&#x3be;" horiz-adv-x="964" 
d="M858 -291h-180q65 109 65 180q0 53 -30 74q-27 21 -92.5 32.5t-132 18t-147 39.5t-136.5 94q-107 111 -107 289q0 150 84.5 251t231.5 134v2q-100 46 -166 135.5t-66 219.5q0 169 111 270.5t297 101.5q110 0 187 -27.5t141 -82.5v-185h-7q-118 148 -284 148
q-114 0 -185 -64.5t-71 -183.5q0 -83 44 -145.5t111 -92.5t144 -30h141v-156h-287q-107 -24 -174 -97t-67 -181q0 -122 73 -195q48 -48 124 -73.5t143.5 -30.5t138.5 -20t108 -44q56 -45 56 -137q0 -111 -68 -244z" />
    <glyph glyph-name="omicron" unicode="&#x3bf;" horiz-adv-x="1187" 
d="M924 518q0 185 -90.5 292.5t-237.5 107.5q-148 0 -240 -106.5t-92 -293.5q0 -185 90.5 -291t237.5 -106q149 0 240.5 105t91.5 292zM1112 518q0 -129 -39.5 -234.5t-109.5 -175.5t-165 -107.5t-206 -37.5q-109 0 -202.5 37.5t-163 107t-109 175t-39.5 235.5
q0 258 145.5 406.5t372.5 148.5q109 0 202.5 -37.5t163.5 -107t110 -175t40 -235.5z" />
    <glyph glyph-name="pi" unicode="&#x3c0;" horiz-adv-x="1300" 
d="M1036 0h-176v881h-383q-5 -421 -59 -881h-176q53 468 59 881h-272v8l90 147h1134v-155h-217v-881z" />
    <glyph glyph-name="rho" unicode="&#x3c1;" horiz-adv-x="1212" 
d="M1133 518q0 -258 -138.5 -406.5t-357.5 -148.5q-174 0 -295 86h-2v-444h-176v964q0 246 122.5 375t344.5 129q227 0 364.5 -147t137.5 -408zM946 518q0 184 -85 293t-236 109q-138 0 -211.5 -88t-73.5 -269v-338q48 -46 114.5 -74t141.5 -28q161 0 255.5 103.5
t94.5 291.5z" />
    <glyph glyph-name="sigma1" unicode="&#x3c2;" horiz-adv-x="903" 
d="M635 -37q-24 21 -82.5 33.5t-117.5 21t-131 44t-122 96.5q-104 128 -104 356q0 261 127 410t325 149q171 0 299 -112v-193h-6q-44 67 -113 108.5t-155 41.5q-128 0 -209.5 -109.5t-81.5 -290.5q0 -168 76 -256q44 -53 110 -80t123 -31.5t120.5 -18.5t99.5 -42
q51 -48 51 -139q0 -113 -66 -242h-180q36 64 51 103t15 77q0 51 -29 74z" />
    <glyph glyph-name="sigma" unicode="&#x3c3;" horiz-adv-x="1212" 
d="M1096 471q0 -230 -144.5 -369t-365.5 -139q-218 0 -363 144t-145 385q0 179 72 303t197.5 182.5t297.5 58.5h520v-157h-278q111 -83 160 -181.5t49 -226.5zM911 487q0 126 -55.5 218.5t-181.5 175.5h-25q-176 0 -280.5 -98.5t-104.5 -290.5q0 -169 90 -272t236 -103
q141 0 231 101t90 269z" />
    <glyph glyph-name="tau" unicode="&#x3c4;" horiz-adv-x="899" 
d="M539 0h-177v881h-307v155h789v-155h-305v-881z" />
    <glyph glyph-name="upsilon" unicode="&#x3c5;" horiz-adv-x="1198" 
d="M821 1036h183q34 -282 34 -497q0 -576 -456 -576q-194 0 -305 113t-111 309v651h176v-641q0 -135 63.5 -204.5t180.5 -69.5q66 0 115 21.5t79.5 57.5t49 90t25.5 111.5t7 130.5q0 249 -41 504z" />
    <glyph glyph-name="phi" unicode="&#x3c6;" horiz-adv-x="1495" 
d="M662 119v803q-177 -5 -287.5 -109t-110.5 -293t111.5 -293.5t286.5 -107.5zM1417 520q0 -129 -45.5 -233.5t-125.5 -172t-184.5 -105t-225.5 -42.5v-362h-177v362q-122 5 -226.5 42.5t-184.5 105t-125 172t-45 233.5q0 128 44 231t123 170.5t184 105t230 42.5v467h177
v-467q124 -5 229 -42.5t184 -105t123.5 -170.5t44.5 -231zM1231 520q0 191 -111 294t-289 108v-803q176 3 288 107.5t112 293.5z" />
    <glyph glyph-name="chi" unicode="&#x3c7;" horiz-adv-x="1038" 
d="M1014 -395h-203l-291 579h-2l-278 -579h-199l352 712l-368 719h202l291 -581h2l283 581h201l-355 -719z" />
    <glyph glyph-name="psi" unicode="&#x3c8;" horiz-adv-x="1591" 
d="M885 -395h-176v362q-269 11 -406 130.5t-137 373.5v565h176v-567q0 -170 89 -256.5t278 -89.5v1413h176v-1411q194 6 282 105t88 309q0 246 -34 497h176q35 -291 35 -497q0 -291 -136 -426t-411 -146v-362z" />
    <glyph glyph-name="omega" unicode="&#x3c9;" horiz-adv-x="1589" 
d="M1087 -37q-102 0 -178 45t-112 123h-4q-36 -78 -112 -123t-177 -45q-94 0 -167.5 43t-119 117.5t-69 169.5t-23.5 205q0 160 31 285t106 253h197q-79 -129 -111.5 -252.5t-32.5 -283.5q0 -107 19.5 -189.5t67.5 -137t120 -54.5q89 0 137 61.5t48 181.5v388h176v-388
q0 -119 49 -181t137 -62q72 0 120 54.5t67.5 137t19.5 189.5q0 161 -32.5 284t-110.5 252h194q76 -130 107.5 -254.5t31.5 -283.5q0 -110 -23.5 -205t-69 -169.5t-119 -117.5t-167.5 -43z" />
    <glyph glyph-name="iotadieresis" unicode="&#x3ca;" horiz-adv-x="528" 
d="M352 0h-176v1036h176v-1036zM143 1362h-180v174h180v-174zM567 1362h-180v174h180v-174z" />
    <glyph glyph-name="upsilondieresis" unicode="&#x3cb;" horiz-adv-x="1198" 
d="M471 1362h-180v174h180v-174zM895 1362h-180v174h180v-174zM821 1036h183q34 -282 34 -497q0 -576 -456 -576q-194 0 -305 113t-111 309v651h176v-641q0 -135 63.5 -204.5t180.5 -69.5q66 0 115 21.5t79.5 57.5t49 90t25.5 111.5t7 130.5q0 249 -41 504z" />
    <glyph glyph-name="omicrontonos" unicode="&#x3cc;" horiz-adv-x="1187" 
d="M651 1141h-135l68 395h166zM924 518q0 185 -90.5 292.5t-237.5 107.5q-148 0 -240 -106.5t-92 -293.5q0 -185 90.5 -291t237.5 -106q149 0 240.5 105t91.5 292zM1112 518q0 -129 -39.5 -234.5t-109.5 -175.5t-165 -107.5t-206 -37.5q-109 0 -202.5 37.5t-163 107
t-109 175t-39.5 235.5q0 258 145.5 406.5t372.5 148.5q109 0 202.5 -37.5t163.5 -107t110 -175t40 -235.5z" />
    <glyph glyph-name="upsilontonos" unicode="&#x3cd;" horiz-adv-x="1198" 
d="M655 1141h-135l68 395h166zM821 1036h183q34 -282 34 -497q0 -576 -456 -576q-194 0 -305 113t-111 309v651h176v-641q0 -135 63.5 -204.5t180.5 -69.5q66 0 115 21.5t79.5 57.5t49 90t25.5 111.5t7 130.5q0 249 -41 504z" />
    <glyph glyph-name="omegatonos" unicode="&#x3ce;" horiz-adv-x="1589" 
d="M866 1141h-135l68 395h166zM1087 -37q-102 0 -178 45t-112 123h-4q-36 -78 -112 -123t-177 -45q-94 0 -167.5 43t-119 117.5t-69 169.5t-23.5 205q0 160 31 285t106 253h197q-79 -129 -111.5 -252.5t-32.5 -283.5q0 -107 19.5 -189.5t67.5 -137t120 -54.5q89 0 137 61.5
t48 181.5v388h176v-388q0 -119 49 -181t137 -62q72 0 120 54.5t67.5 137t19.5 189.5q0 161 -32.5 284t-110.5 252h194q76 -130 107.5 -254.5t31.5 -283.5q0 -110 -23.5 -205t-69 -169.5t-119 -117.5t-167.5 -43z" />
    <glyph glyph-name="uni0400" unicode="&#x400;" horiz-adv-x="1112" 
d="M973 0h-770v1397h303l-193 241h191l155 -241h261v-176h-529v-414h508v-178h-508v-453h582v-176z" />
    <glyph glyph-name="uni0401" unicode="&#x401;" horiz-adv-x="1112" 
d="M432 1499h-180v158h180v-158zM856 1499h-180v158h180v-158zM973 0h-770v1397h717v-176h-529v-414h508v-178h-508v-453h582v-176z" />
    <glyph glyph-name="uni0402" unicode="&#x402;" horiz-adv-x="1466" 
d="M887 14v172q46 -14 92 -14q86 0 142.5 58.5t56.5 175.5q0 129 -77 186t-229 57h-229v-649h-186v1221h-396v176h1135v-176h-553v-398h221q504 0 504 -417q0 -105 -32.5 -185.5t-87 -127t-119.5 -70t-136 -23.5q-72 0 -106 14z" />
    <glyph glyph-name="uni0403" unicode="&#x403;" horiz-adv-x="993" 
d="M627 1397h-154l156 241h190zM391 0h-188v1397h729v-176h-541v-1221z" />
    <glyph glyph-name="uni0404" unicode="&#x404;" horiz-adv-x="1339" 
d="M754 -37q-106 0 -203 29.5t-180 90t-143.5 147t-95 206.5t-34.5 262q0 173 51 314t140 232.5t206.5 140.5t252.5 49q257 0 444 -158v-211h-6q-167 192 -420 192q-127 0 -230.5 -52t-167.5 -156.5t-67 -243.5h795v-176h-795q0 -228 129.5 -359t335.5 -131q258 0 428 197h6
v-215q-179 -158 -446 -158z" />
    <glyph glyph-name="uni0405" unicode="&#x405;" 
d="M987 356q0 -170 -118.5 -281.5t-325.5 -111.5q-248 0 -398 135v213h7q70 -87 170 -131.5t208 -44.5q127 0 199 54t72 153q0 69 -36 120t-93 84t-126 62.5t-138.5 65t-126.5 80.5t-93 120t-36 173q0 77 24.5 145t73.5 123t131.5 87t189.5 32q105 0 201 -34.5t166 -101.5
v-211h-6q-66 85 -158.5 130t-189.5 45q-117 0 -180.5 -53.5t-63.5 -143.5q0 -54 22 -97t59.5 -72t86 -54.5t102.5 -48.5t107.5 -48t102 -60t86 -78t59.5 -107.5t22 -143.5z" />
    <glyph glyph-name="uni0406" unicode="&#x406;" horiz-adv-x="593" 
d="M391 0h-186v1397h186v-1397z" />
    <glyph glyph-name="uni0407" unicode="&#x407;" horiz-adv-x="598" 
d="M391 0h-186v1397h186v-1397zM178 1499h-180v158h180v-158zM602 1499h-180v158h180v-158z" />
    <glyph glyph-name="uni0408" unicode="&#x408;" horiz-adv-x="860" 
d="M332 -37q-128 0 -215 68v202h8q69 -92 176 -92q94 0 142.5 62t48.5 182v834h-386v10l84 168h486v-1043q0 -181 -85 -286t-259 -105z" />
    <glyph glyph-name="uni0409" unicode="&#x409;" horiz-adv-x="1918" 
d="M1821 430q0 -219 -134 -324.5t-384 -105.5h-392v1221h-340l-34 -500q-18 -274 -75 -435t-154 -231.5t-251 -74.5v180q55 0 97.5 18.5t73 58t52.5 90.5t36.5 126t23.5 153.5t16 184.5l41 606h699v-539h207q245 0 381.5 -107t136.5 -321zM1630 430q0 126 -84.5 190
t-240.5 64h-209v-510h209q325 0 325 256z" />
    <glyph glyph-name="uni040A" unicode="&#x40a;" horiz-adv-x="2048" 
d="M1950 410q0 -410 -520 -410h-392v637h-647v-637h-188v1397h188v-584h647v584h185v-584h207q247 0 383.5 -98.5t136.5 -304.5zM1759 410q0 229 -327 229h-209v-465h209q327 0 327 236z" />
    <glyph glyph-name="uni040B" unicode="&#x40b;" horiz-adv-x="1497" 
d="M1384 0h-186v369q0 274 -342 274h-215v-643h-186v1221h-394v176h1031v-176h-451v-404h233q243 0 376.5 -104.5t133.5 -317.5v-395z" />
    <glyph glyph-name="uni040C" unicode="&#x40c;" horiz-adv-x="1249" 
d="M711 1397h-154l156 241h190zM391 0h-188v1397h188v-1397zM1206 0h-229l-553 702v9l532 686h226l-539 -684v-4z" />
    <glyph glyph-name="uni040D" unicode="&#x40d;" horiz-adv-x="1542" 
d="M854 1397h-154l-192 241h190zM1339 0h-188v1098h-2l-782 -1123h-164v1422h188v-1098h2l783 1122h163v-1421z" />
    <glyph glyph-name="uni040E" unicode="&#x40e;" horiz-adv-x="1196" 
d="M608 1434q-125 0 -203.5 59t-93.5 164h135q25 -109 162 -109q138 0 160 109h137q-15 -105 -93.5 -164t-203.5 -59zM543 0h-201l172 383l-489 1014h215l370 -799h2l361 799h196z" />
    <glyph glyph-name="uni040F" unicode="&#x40f;" horiz-adv-x="1521" 
d="M1319 0h-471v-291h-174v291h-471v1397h188v-1221h739v1221h189v-1397z" />
    <glyph glyph-name="uni0410" unicode="&#x410;" horiz-adv-x="1366" 
d="M1335 0h-207l-170 436h-557l-170 -436h-198l571 1434h158zM895 602l-215 561h-2l-215 -561h432z" />
    <glyph glyph-name="uni0411" unicode="&#x411;" horiz-adv-x="1236" 
d="M1122 424q0 -215 -132.5 -319.5t-381.5 -104.5h-405v1397h772v-176h-584v-383h217q246 0 380 -101.5t134 -312.5zM932 424q0 240 -324 240h-217v-490h217q158 0 241 62.5t83 187.5z" />
    <glyph glyph-name="uni0412" unicode="&#x412;" horiz-adv-x="1255" 
d="M1122 377q0 -377 -501 -377h-418v1397h399q200 0 320 -94t120 -263q0 -111 -53 -193.5t-147 -129.5v-2q118 -27 199 -114.5t81 -223.5zM930 403q0 104 -79.5 162t-215.5 58h-244v-457h223q316 0 316 237zM850 1012q0 102 -73 161.5t-199 59.5h-187v-451h266
q103 33 148 89t45 141z" />
    <glyph glyph-name="uni0413" unicode="&#x413;" horiz-adv-x="993" 
d="M391 0h-188v1397h729v-176h-541v-1221z" />
    <glyph glyph-name="uni0414" unicode="&#x414;" horiz-adv-x="1474" 
d="M1374 -291h-174v291h-971v-291h-174v467h140q88 140 129.5 278t56.5 347l37 596h803v-1221h153v-467zM1036 176v1047h-444l-29 -443q-13 -204 -52.5 -339t-115.5 -265h641z" />
    <glyph glyph-name="uni0415" unicode="&#x415;" horiz-adv-x="1112" 
d="M973 0h-770v1397h717v-176h-529v-416h508v-176h-508v-453h582v-176z" />
    <glyph glyph-name="uni0416" unicode="&#x416;" horiz-adv-x="1820" 
d="M270 0h-229l522 709v4l-500 684h226l493 -686v-9zM1004 0h-187v1397h187v-1397zM1780 0h-230l-512 702v9l494 686h225l-500 -684v-4z" />
    <glyph glyph-name="uni0417" unicode="&#x417;" horiz-adv-x="1150" 
d="M528 -37q-234 0 -383 107v202h7q62 -67 160 -105t202 -38q138 0 225.5 63.5t87.5 186.5q0 113 -81.5 173t-229.5 60h-217v172h250q196 73 196 240q0 117 -74.5 180.5t-197.5 63.5q-182 0 -313 -144h-6v203q141 107 344 107q197 0 318.5 -102.5t121.5 -280.5
q0 -225 -201 -334v-2q117 -28 199 -120t82 -239q0 -190 -135.5 -291.5t-354.5 -101.5z" />
    <glyph glyph-name="uni0418" unicode="&#x418;" horiz-adv-x="1542" 
d="M1339 0h-188v1098h-2l-782 -1123h-164v1422h188v-1098h2l783 1122h163v-1421z" />
    <glyph glyph-name="uni0419" unicode="&#x419;" horiz-adv-x="1542" 
d="M776 1434q-125 0 -203.5 59t-93.5 164h135q25 -109 162 -109q138 0 160 109h137q-15 -105 -93.5 -164t-203.5 -59zM1339 0h-188v1098h-2l-782 -1123h-164v1422h188v-1098h2l783 1122h163v-1421z" />
    <glyph glyph-name="uni041A" unicode="&#x41a;" horiz-adv-x="1249" 
d="M391 0h-188v1397h188v-1397zM1206 0h-229l-553 702v9l532 686h226l-539 -684v-4z" />
    <glyph glyph-name="uni041B" unicode="&#x41b;" horiz-adv-x="1415" 
d="M1200 0h-186v1221h-443l-34 -500q-18 -274 -75 -435t-154 -231.5t-251 -74.5v180q55 0 97.5 18.5t73 58t52.5 90.5t36.5 126t23.5 153.5t16 184.5l41 606h803v-1397z" />
    <glyph glyph-name="uni041C" unicode="&#x41c;" horiz-adv-x="1785" 
d="M1614 0h-189l-84 956h-2l-440 -993h-14l-443 995h-2l-80 -958h-188l123 1421h143l455 -1061h2l453 1061h143z" />
    <glyph glyph-name="uni041D" unicode="&#x41d;" horiz-adv-x="1542" 
d="M1339 0h-188v635h-760v-635h-188v1397h188v-586h760v586h188v-1397z" />
    <glyph glyph-name="uni041E" unicode="&#x41e;" horiz-adv-x="1519" 
d="M1421 698q0 -173 -52.5 -314t-143.5 -232t-210.5 -140t-256.5 -49q-133 0 -251.5 48.5t-210 139t-145 232t-53.5 315.5q0 173 53 314.5t144 232.5t211 140t256 49q134 0 252.5 -49t209.5 -139.5t144 -232t53 -315.5zM1227 698q0 133 -36.5 240.5t-100 176.5t-147.5 105.5
t-181 36.5t-180.5 -36t-148 -104t-101.5 -176t-37 -243q0 -133 36 -240.5t99.5 -176.5t147 -105.5t180.5 -36.5t181.5 36t149 104.5t101.5 176t37 242.5z" />
    <glyph glyph-name="uni041F" unicode="&#x41f;" horiz-adv-x="1521" 
d="M1319 0h-189v1221h-739v-1221h-188v1397h1116v-1397z" />
    <glyph glyph-name="uni0420" unicode="&#x420;" horiz-adv-x="1200" 
d="M1094 967q0 -107 -36.5 -191t-117 -152.5t-218.5 -112t-331 -58.5v-453h-188v1397h397q103 0 191.5 -27t156.5 -79t107 -135.5t39 -188.5zM901 952q0 128 -86 199.5t-227 71.5h-197v-594q141 7 243 34.5t158.5 72.5t82.5 98t26 118z" />
    <glyph glyph-name="uni0421" unicode="&#x421;" horiz-adv-x="1257" 
d="M1145 338v-225q-177 -150 -424 -150q-131 0 -244 48.5t-197.5 139.5t-133 231.5t-48.5 315.5q0 171 46.5 310.5t129 232.5t195.5 143t246 50q253 0 422 -150v-225h-9q-68 94 -169 145t-216 51q-205 0 -326.5 -150t-121.5 -407q0 -255 124.5 -406t332.5 -151
q116 0 217.5 53t167.5 144h8z" />
    <glyph glyph-name="uni0422" unicode="&#x422;" horiz-adv-x="1095" 
d="M641 0h-186v1221h-394v176h973v-176h-393v-1221z" />
    <glyph glyph-name="uni0423" unicode="&#x423;" horiz-adv-x="1196" 
d="M543 0h-201l172 383l-489 1014h215l370 -799h2l361 799h196z" />
    <glyph glyph-name="uni0424" unicode="&#x424;" horiz-adv-x="1603" 
d="M897 -25h-186v127q-131 6 -242.5 47t-195.5 113.5t-131.5 184.5t-47.5 251q0 111 31 205t86 163t132.5 118t170 76t197.5 32v129h186v-129q131 -7 241.5 -48t194 -113.5t130 -183.5t46.5 -249q0 -139 -46.5 -250t-130 -184t-194 -114t-241.5 -48v-127zM715 276v844
q-193 -9 -308.5 -121t-115.5 -301q0 -190 116 -302t308 -120zM895 276q189 8 303.5 120t114.5 302q0 189 -114.5 301t-303.5 121v-844z" />
    <glyph glyph-name="uni0425" unicode="&#x425;" horiz-adv-x="1361" 
d="M1292 0h-229l-391 569h-2l-357 -569h-225l451 711l-469 686h225l379 -555h2l358 555h223l-448 -690z" />
    <glyph glyph-name="uni0426" unicode="&#x426;" horiz-adv-x="1550" 
d="M1448 -291h-174v291h-1071v1397h188v-1221h719v1221h188v-1221h150v-467z" />
    <glyph glyph-name="uni0427" unicode="&#x427;" horiz-adv-x="1277" 
d="M1075 0h-186v453q-126 7 -226.5 20t-178 34t-135.5 46t-98 60.5t-66 72.5t-40.5 87t-20 99t-5.5 113v412h186v-402q0 -74 11.5 -123.5t47 -96.5t99.5 -75.5t169.5 -47.5t256.5 -25v770h186v-1397z" />
    <glyph glyph-name="uni0428" unicode="&#x428;" horiz-adv-x="2043" 
d="M1841 0h-1638v1397h188v-1221h539v1221h186v-1221h541v1221h184v-1397z" />
    <glyph glyph-name="uni0429" unicode="&#x429;" horiz-adv-x="2095" 
d="M1993 -291h-174v291h-1616v1397h188v-1221h539v1221h186v-1221h541v1221h184v-1221h152v-467z" />
    <glyph glyph-name="uni042A" unicode="&#x42a;" horiz-adv-x="1472" 
d="M1374 436q0 -221 -133.5 -328.5t-380.5 -107.5h-403v1219h-396v176h580v-531h219q244 0 379 -105.5t135 -322.5zM1184 436q0 128 -85.5 191t-244.5 63h-213v-514h213q330 0 330 260z" />
    <glyph glyph-name="uni042B" unicode="&#x42b;" horiz-adv-x="1650" 
d="M1085 430q0 -219 -134 -324.5t-384 -105.5h-364v1397h188v-539h176q246 0 382 -106t136 -322zM897 430q0 128 -85.5 191t-242.5 63h-178v-510h178q160 0 244 64t84 192zM1446 0h-186v1397h186v-1397z" />
    <glyph glyph-name="uni042C" unicode="&#x42c;" horiz-adv-x="1218" 
d="M1122 436q0 -221 -134.5 -328.5t-379.5 -107.5h-405v1397h188v-533h217q242 0 378 -105.5t136 -322.5zM932 436q0 128 -85.5 191t-242.5 63h-213v-514h213q328 0 328 260z" />
    <glyph glyph-name="uni042D" unicode="&#x42d;" horiz-adv-x="1339" 
d="M586 -37q-268 0 -447 158v215h6q173 -197 430 -197q204 0 334 131t131 359h-796v176h796q-6 209 -138 330.5t-327 121.5q-254 0 -421 -192h-7v211q187 158 445 158q136 0 253.5 -49t206 -140.5t139 -232.5t50.5 -314q0 -142 -34.5 -262t-95 -206.5t-143 -147t-179.5 -90
t-203 -29.5z" />
    <glyph glyph-name="uni042E" unicode="&#x42e;" horiz-adv-x="2058" 
d="M1296 -37q-125 0 -238 43.5t-202.5 125.5t-146.5 211.5t-66 291.5h-252v-635h-188v1397h188v-586h256q17 153 77.5 274t150 196t198 114t227.5 39q133 0 252 -49t211 -139.5t145.5 -232t53.5 -315.5q0 -173 -53 -314.5t-144.5 -232t-211.5 -139.5t-257 -49zM1296 139
q97 0 181.5 36t149 104.5t101.5 176t37 242.5q0 133 -36.5 240.5t-100 176.5t-147.5 105.5t-181 36.5t-181.5 -36t-149 -104t-101.5 -176t-37 -243q0 -133 36.5 -240.5t100 -176.5t147.5 -105.5t181 -36.5z" />
    <glyph glyph-name="uni042F" unicode="&#x42f;" horiz-adv-x="1247" 
d="M1057 0h-187v1223h-184q-149 0 -233 -67.5t-84 -184.5q0 -64 21 -111.5t72.5 -89t143.5 -71.5t228 -50v-10l-533 -639h-231l473 557v4q-195 60 -281 164t-86 266q0 195 132.5 300.5t353.5 105.5h395v-1397z" />
    <glyph glyph-name="uni0430" unicode="&#x430;" horiz-adv-x="1116" 
d="M952 0h-172v82h-2q-132 -119 -311 -119q-152 0 -250 88.5t-98 237.5q0 153 101.5 244.5t283.5 91.5q155 0 272 -70v104q0 131 -76.5 195t-201.5 64q-91 0 -173.5 -41t-136.5 -105h-6v184q145 117 350 117q189 0 304.5 -102t115.5 -305v-666zM776 233v179q-100 65 -241 65
q-115 0 -177.5 -46t-62.5 -132q0 -79 59 -130.5t168 -51.5q151 0 254 116z" />
    <glyph glyph-name="uni0431" unicode="&#x431;" horiz-adv-x="1202" 
d="M1124 518q0 -259 -142 -407t-368 -148q-239 0 -377.5 170t-138.5 485q0 282 66 469q47 142 121.5 224.5t208.5 118.5q72 20 183.5 30t197.5 27.5t147 62.5h6v-176q-57 -33 -137 -49t-177.5 -27.5t-152.5 -25.5q-131 -33 -193 -134t-87 -280l4 -2q50 93 142.5 146
t207.5 53q100 0 188 -34t155.5 -99.5t106.5 -169.5t39 -234zM938 514q0 180 -89 280.5t-237 100.5q-104 0 -180.5 -53t-111.5 -131.5t-35 -169.5q0 -117 34 -209.5t109.5 -151.5t183.5 -59q146 0 236 106t90 287z" />
    <glyph glyph-name="uni0432" unicode="&#x432;" horiz-adv-x="1093" 
d="M991 279q0 -279 -373 -279h-442v1036h428q149 0 238.5 -70.5t89.5 -195.5q0 -167 -164 -235v-3q100 -20 161.5 -85t61.5 -168zM803 299q0 75 -56.5 113.5t-154.5 38.5h-240v-304h223q228 0 228 152zM743 750q0 63 -52 101t-142 38h-197v-297h252q73 25 106 63t33 95z" />
    <glyph glyph-name="uni0433" unicode="&#x433;" horiz-adv-x="888" 
d="M352 0h-176v1036h658v-155h-482v-881z" />
    <glyph glyph-name="uni0434" unicode="&#x434;" horiz-adv-x="1210" 
d="M1122 -291h-164v291h-763v-291h-166v449h112q67 108 99 208t41 255l26 415h678v-878h137v-449zM809 158v723h-342l-21 -301q-8 -139 -37 -234.5t-83 -187.5h483z" />
    <glyph glyph-name="uni0435" unicode="&#x435;" horiz-adv-x="1120" 
d="M975 80q-149 -117 -367 -117q-233 0 -381.5 147t-148.5 408q0 258 133.5 406.5t351.5 148.5q197 0 329 -133.5t132 -347.5q0 -38 -4 -100h-754q7 -179 107.5 -276t267.5 -97q100 0 185.5 39t142.5 102h6v-180zM840 639q-3 121 -80.5 200t-196.5 79q-122 0 -201 -73
t-96 -206h574z" />
    <glyph glyph-name="uni0436" unicode="&#x436;" horiz-adv-x="1476" 
d="M250 0h-215l387 524v4l-363 508h207l359 -508v-6zM827 0h-176v1036h176v-1036zM1442 0h-215l-375 522v6l358 508h211l-364 -508v-4z" />
    <glyph glyph-name="uni0437" unicode="&#x437;" horiz-adv-x="948" 
d="M856 270q0 -145 -110.5 -226t-292.5 -81q-236 0 -351 100v187h7q51 -66 131 -102.5t174 -36.5q119 0 186.5 48t67.5 128q0 83 -60 127.5t-176 44.5h-215v147h248q137 52 137 166q0 65 -54.5 109.5t-146.5 44.5q-176 0 -282 -140h-6v185q113 102 319 102q167 0 265 -73.5
t98 -204.5q0 -84 -37.5 -141.5t-118.5 -102.5v-2q217 -62 217 -279z" />
    <glyph glyph-name="uni0438" unicode="&#x438;" horiz-adv-x="1247" 
d="M1069 0h-176v772h-2l-559 -797h-156v1061h176v-772h2l559 799h156v-1063z" />
    <glyph glyph-name="uni0439" unicode="&#x439;" horiz-adv-x="1247" 
d="M633 1212q-151 0 -237.5 89.5t-100.5 234.5h139q16 -93 66.5 -148t132.5 -55t133 55t65 148h140q-14 -145 -100.5 -234.5t-237.5 -89.5zM1069 0h-176v772h-2l-559 -797h-156v1061h176v-772h2l559 799h156v-1063z" />
    <glyph glyph-name="uni043A" unicode="&#x43a;" horiz-adv-x="1046" 
d="M352 0h-176v1036h176v-1036zM1012 0h-217l-416 522v6l399 508h209l-403 -508v-4z" />
    <glyph glyph-name="uni043B" unicode="&#x43b;" horiz-adv-x="1140" 
d="M965 0h-177v881h-333l-25 -338q-23 -304 -111 -433.5t-278 -129.5v155q49 0 85.5 21t60.5 58t40 97.5t24.5 127.5t14.5 161l29 436h670v-1036z" />
    <glyph glyph-name="uni043C" unicode="&#x43c;" horiz-adv-x="1421" 
d="M1282 0h-174l-59 674h-2l-328 -703h-17l-327 705h-2l-58 -676h-174l90 1063h156l326 -741h2l321 741h154z" />
    <glyph glyph-name="uni043D" unicode="&#x43d;" horiz-adv-x="1243" 
d="M1067 0h-176v459h-539v-459h-176v1036h176v-422h539v422h176v-1036z" />
    <glyph glyph-name="uni043E" unicode="&#x43e;" horiz-adv-x="1187" 
d="M924 518q0 185 -90.5 292.5t-237.5 107.5q-148 0 -240 -106.5t-92 -293.5q0 -185 90.5 -291t237.5 -106q149 0 240.5 105t91.5 292zM1112 518q0 -129 -39.5 -234.5t-109.5 -175.5t-165 -107.5t-206 -37.5q-109 0 -202.5 37.5t-163 107t-109 175t-39.5 235.5
q0 258 145.5 406.5t372.5 148.5q109 0 202.5 -37.5t163.5 -107t110 -175t40 -235.5z" />
    <glyph glyph-name="uni043F" unicode="&#x43f;" horiz-adv-x="1222" 
d="M1047 0h-177v881h-518v-881h-176v1036h871v-1036z" />
    <glyph glyph-name="uni0440" unicode="&#x440;" horiz-adv-x="1226" 
d="M1145 518q0 -258 -138.5 -406.5t-357.5 -148.5q-170 0 -295 86h-2v-444h-176v1431h174v-86h2q136 123 324 123q206 0 337.5 -149t131.5 -406zM958 518q0 185 -91.5 290t-241.5 105q-166 0 -273 -127v-561q48 -46 115.5 -74t142.5 -28q159 0 253.5 103.5t94.5 291.5z" />
    <glyph glyph-name="uni0441" unicode="&#x441;" horiz-adv-x="960" 
d="M874 270v-192q-134 -115 -321 -115q-98 0 -184 36.5t-151 105t-102.5 175.5t-37.5 238q0 257 132.5 406t338.5 149q195 0 319 -112v-193h-6q-48 66 -123.5 106.5t-163.5 40.5q-142 0 -226.5 -108.5t-84.5 -288.5q0 -182 88.5 -289.5t239.5 -107.5q84 0 156.5 41.5
t119.5 107.5h6z" />
    <glyph glyph-name="uni0442" unicode="&#x442;" horiz-adv-x="864" 
d="M520 0h-176v881h-289v155h754v-155h-289v-881z" />
    <glyph glyph-name="uni0443" unicode="&#x443;" horiz-adv-x="1071" 
d="M492 -395h-193l160 397l-441 1034h201l328 -807h2l289 807h194z" />
    <glyph glyph-name="uni0444" unicode="&#x444;" horiz-adv-x="1558" 
d="M1477 518q0 -160 -47.5 -283.5t-146 -197.5t-236.5 -74q-88 0 -179 31v-389h-176v389q-110 -31 -180 -31q-138 0 -237 73.5t-147 197.5t-48 284q0 159 48 283t147 198t237 74q91 0 180 -29v492h176v-492q80 29 179 29q137 0 236 -74t146.5 -198t47.5 -283zM692 152v733
q-66 28 -139 28q-136 0 -210.5 -106t-74.5 -289t74.5 -289t210.5 -106q63 0 139 29zM1290 518q0 183 -74 289t-210 106q-75 0 -138 -28v-733q73 -29 138 -29q136 0 210 106t74 289z" />
    <glyph glyph-name="uni0445" unicode="&#x445;" horiz-adv-x="1056" 
d="M1026 0h-211l-291 403h-2l-266 -403h-205l348 524l-366 512h209l282 -397h2l271 397h204l-352 -512z" />
    <glyph glyph-name="uni0446" unicode="&#x446;" horiz-adv-x="1230" 
d="M1147 -291h-164v291h-807v1036h176v-880h494v880h176v-880h125v-447z" />
    <glyph glyph-name="uni0447" unicode="&#x447;" horiz-adv-x="1069" 
d="M891 0h-176v319q-148 8 -255.5 29.5t-177 53.5t-110 80t-56.5 102.5t-16 128.5v323h181v-288q0 -52 8.5 -87t34.5 -68.5t73.5 -54.5t126 -35.5t191.5 -19.5v553h176v-1036z" />
    <glyph glyph-name="uni0448" unicode="&#x448;" horiz-adv-x="1744" 
d="M1569 0h-1393v1036h176v-878h432v878h177v-878h432v878h176v-1036z" />
    <glyph glyph-name="uni0449" unicode="&#x449;" horiz-adv-x="1794" 
d="M1708 -291h-166v291h-1366v1036h176v-880h432v880h177v-880h432v880h176v-880h139v-447z" />
    <glyph glyph-name="uni044A" unicode="&#x44a;" horiz-adv-x="1193" 
d="M918 330q0 81 -55.5 126.5t-162.5 45.5h-196v-355h182q122 0 177 46t55 137zM1104 328q0 -160 -97.5 -244t-277.5 -84h-401v881h-273v155h449v-387h250q169 0 259.5 -88t90.5 -233z" />
    <glyph glyph-name="uni044B" unicode="&#x44b;" horiz-adv-x="1409" 
d="M915 326q0 -158 -98.5 -242t-275.5 -84h-365v1036h176v-389h211q164 0 258 -87.5t94 -233.5zM727 326q0 85 -55 129.5t-162 44.5h-158v-353h146q229 0 229 179zM1233 0h-176v1036h176v-1036z" />
    <glyph glyph-name="uni044C" unicode="&#x44c;" horiz-adv-x="1042" 
d="M952 328q0 -155 -98.5 -241.5t-275.5 -86.5h-402v1036h176v-387h238q170 0 266 -89t96 -232zM766 326q0 87 -57.5 132.5t-159.5 45.5h-197v-357h183q231 0 231 179z" />
    <glyph glyph-name="uni044D" unicode="&#x44d;" horiz-adv-x="1067" 
d="M465 -37q-212 0 -354 115v188h6q121 -147 334 -147q160 0 257 91.5t97 248.5h-592v147h592q-8 142 -102 227t-246 85q-212 0 -330 -148h-6v188q136 115 356 115q108 0 201 -37t162.5 -106.5t109 -175.5t39.5 -236q0 -250 -144 -402.5t-380 -152.5z" />
    <glyph glyph-name="uni044E" unicode="&#x44e;" horiz-adv-x="1630" 
d="M1034 -37q-207 0 -348 131t-158 365h-176v-459h-176v1036h176v-420h180q27 215 166.5 336t339.5 121q109 0 202.5 -37.5t163.5 -107t110 -175t40 -235.5q0 -129 -39.5 -234.5t-109.5 -175.5t-165 -107.5t-206 -37.5zM1034 121q149 0 240.5 105t91.5 292
q0 185 -90.5 292.5t-237.5 107.5q-148 0 -239.5 -106.5t-91.5 -293.5q0 -185 90 -291t237 -106z" />
    <glyph glyph-name="uni044F" unicode="&#x44f;" horiz-adv-x="1081" 
d="M905 0h-176v881h-197q-109 0 -169 -41.5t-60 -122.5q0 -62 33.5 -104.5t122 -76.5t243.5 -57v-8l-434 -471h-225l399 408v2q-176 41 -251.5 123t-75.5 206q0 144 99 220.5t265 76.5h426v-1036z" />
    <glyph glyph-name="uni0450" unicode="&#x450;" horiz-adv-x="1120" 
d="M975 80q-149 -117 -367 -117q-233 0 -381.5 147t-148.5 408q0 258 133.5 406.5t351.5 148.5q197 0 329 -133.5t132 -347.5q0 -38 -4 -100h-754q7 -179 107.5 -276t267.5 -97q100 0 185.5 39t142.5 102h6v-180zM840 639q-3 121 -80.5 200t-196.5 79q-122 0 -201 -73
t-96 -206h574zM678 1143h-158l-284 393h190z" />
    <glyph glyph-name="uni0451" unicode="&#x451;" horiz-adv-x="1120" 
d="M438 1362h-180v174h180v-174zM862 1362h-180v174h180v-174zM975 80q-149 -117 -367 -117q-233 0 -381.5 147t-148.5 408q0 258 133.5 406.5t351.5 148.5q197 0 329 -133.5t132 -347.5q0 -38 -4 -100h-754q7 -179 107.5 -276t267.5 -97q100 0 185.5 39t142.5 102h6v-180z
M840 639q-3 121 -80.5 200t-196.5 79q-122 0 -201 -73t-96 -206h574z" />
    <glyph glyph-name="uni0452" unicode="&#x452;" horiz-adv-x="1208" 
d="M866 -33v676q0 134 -69.5 202t-182.5 68q-154 0 -262 -127v-786h-176v1221h-176v141h176v174h176v-174h424v-141h-424v-269h2q134 121 312 121q78 0 145.5 -23t119.5 -68t81.5 -118t29.5 -166v-753q0 -162 -76.5 -251t-205.5 -89q-82 0 -156 33v157h6q43 -37 109 -37
t106.5 52t40.5 157z" />
    <glyph glyph-name="uni0453" unicode="&#x453;" horiz-adv-x="888" 
d="M578 1141h-158l256 395h186zM352 0h-176v1036h658v-155h-482v-881z" />
    <glyph glyph-name="uni0454" unicode="&#x454;" horiz-adv-x="1067" 
d="M602 -37q-236 0 -380 152.5t-144 402.5q0 130 39.5 236t109 175.5t162.5 106.5t201 37q223 0 356 -115v-188h-6q-118 148 -330 148q-152 0 -246 -85t-102 -227h594v-147h-594q0 -157 97 -248.5t257 -91.5q213 0 334 147h6v-188q-139 -115 -354 -115z" />
    <glyph glyph-name="uni0455" unicode="&#x455;" horiz-adv-x="923" 
d="M799 268q0 -138 -92 -221.5t-265 -83.5q-196 0 -311 100v185h6q53 -65 133.5 -101t167.5 -36t138 39.5t51 103.5q0 49 -27 85t-70.5 58.5t-96 43.5t-105 47t-96 60.5t-70.5 92.5t-27 135q0 133 85.5 215t246.5 82q183 0 295 -100v-185h-6q-51 62 -124.5 100t-152.5 38
q-82 0 -125 -38.5t-43 -101.5q0 -48 27 -82.5t70 -56.5t95 -42t104 -46t95 -60.5t70 -93.5t27 -137z" />
    <glyph glyph-name="uni0456" unicode="&#x456;" horiz-adv-x="528" 
d="M352 0h-176v1036h176v-1036zM360 1362h-192v174h192v-174z" />
    <glyph glyph-name="uni0457" unicode="&#x457;" horiz-adv-x="528" 
d="M352 0h-176v1036h176v-1036zM143 1362h-180v174h180v-174zM567 1362h-180v174h180v-174z" />
    <glyph glyph-name="uni0458" unicode="&#x458;" horiz-adv-x="528" 
d="M59 -395q-119 0 -196 55v172h6q29 -32 71 -51t83 -19q70 0 111.5 48.5t41.5 144.5v1081h176v-1085q0 -167 -79 -256.5t-214 -89.5zM360 1362h-192v174h192v-174z" />
    <glyph glyph-name="uni0459" unicode="&#x459;" horiz-adv-x="1548" 
d="M1458 324q0 -158 -100 -241t-281 -83h-358v881h-264l-23 -338q-24 -296 -112.5 -423.5t-280.5 -127.5v155q50 0 86.5 20.5t60.5 56.5t40.5 95t25 124.5t14.5 156.5l27 436h602v-397h205q167 0 262.5 -84.5t95.5 -230.5zM1272 324q0 82 -55 125t-162 43h-160v-345h145
q232 0 232 177z" />
    <glyph glyph-name="uni045A" unicode="&#x45a;" horiz-adv-x="1648" 
d="M1559 315q0 -148 -98.5 -231.5t-276.5 -83.5h-365v459h-467v-459h-176v1036h176v-422h467v422h176v-409h211q163 0 258 -87.5t95 -224.5zM1370 315q0 77 -54.5 120.5t-160.5 43.5h-160v-332h144q231 0 231 168z" />
    <glyph glyph-name="uni045B" unicode="&#x45b;" horiz-adv-x="1208" 
d="M1042 0h-176v643q0 134 -69.5 202t-182.5 68q-154 0 -262 -127v-786h-176v1221h-176v141h176v174h176v-174h424v-141h-424v-269h2q131 121 312 121q78 0 145.5 -23t119.5 -68t81.5 -118t29.5 -166v-698z" />
    <glyph glyph-name="uni045C" unicode="&#x45c;" horiz-adv-x="1044" 
d="M633 1141h-158l256 395h187zM352 0h-176v1036h176v-1036zM1012 0h-217l-416 522v6l399 508h209l-403 -508v-4z" />
    <glyph glyph-name="uni045D" unicode="&#x45d;" horiz-adv-x="1247" 
d="M1069 0h-176v772h-2l-559 -797h-156v1061h176v-772h2l559 799h156v-1063zM737 1143h-157l-285 393h190z" />
    <glyph glyph-name="uni045E" unicode="&#x45e;" horiz-adv-x="1071" 
d="M545 1212q-151 0 -237.5 89.5t-100.5 234.5h139q16 -93 66.5 -148t132.5 -55t133 55t65 148h140q-14 -145 -100.5 -234.5t-237.5 -89.5zM492 -395h-193l160 397l-441 1034h201l328 -807h2l289 807h194z" />
    <glyph glyph-name="uni045F" unicode="&#x45f;" horiz-adv-x="1222" 
d="M694 -291h-166v291h-352v1036h176v-880h518v880h177v-1036h-353v-291z" />
    <glyph glyph-name="uni0462" unicode="&#x462;" horiz-adv-x="1464" 
d="M1366 422q0 -211 -135.5 -316.5t-382.5 -105.5h-393v1096h-394v176h394v125h186v-125h475v-176h-475v-256h205q246 0 383 -104.5t137 -313.5zM1176 422q0 244 -322 244h-213v-492h213q322 0 322 248z" />
    <glyph glyph-name="uni0463" unicode="&#x463;" horiz-adv-x="1196" 
d="M1106 315q0 -151 -98 -233t-277 -82h-393v893h-283v143h283v363h176v-363h375v-143h-375v-264h240q164 0 258 -86.5t94 -227.5zM920 317q0 79 -55 121.5t-160 42.5h-191v-334h176q230 0 230 170z" />
    <glyph glyph-name="uni0472" unicode="&#x472;" horiz-adv-x="1519" 
d="M1421 698q0 -173 -52.5 -314t-143.5 -232t-210.5 -140t-256.5 -49q-133 0 -251.5 48.5t-210 139t-145 232t-53.5 315.5q0 173 53 314.5t144 232.5t211 140t256 49q134 0 252.5 -49t209.5 -139.5t144 -232t53 -315.5zM758 139q188 0 317.5 127.5t149.5 362.5h-928
q18 -232 146 -361t315 -129zM762 1257q-179 0 -306.5 -117.5t-154.5 -334.5h920q-27 215 -154 333.5t-305 118.5z" />
    <glyph glyph-name="uni0473" unicode="&#x473;" horiz-adv-x="1187" 
d="M1112 518q0 -129 -39.5 -234.5t-109.5 -175.5t-165 -107.5t-206 -37.5q-109 0 -202.5 37.5t-163 107t-109 175t-39.5 235.5q0 258 145.5 406.5t372.5 148.5q109 0 202.5 -37.5t163.5 -107t110 -175t40 -235.5zM596 918q-131 0 -219.5 -85t-108.5 -237h650
q-19 151 -105.5 236.5t-216.5 85.5zM592 121q132 0 220 83.5t106 235.5h-650q20 -151 107 -235t217 -84z" />
    <glyph glyph-name="uni0474" unicode="&#x474;" horiz-adv-x="1323" 
d="M729 -37h-145l-559 1434h206l428 -1141h3l221 623q67 198 115 309t116 209h203q-78 -110 -131 -226.5t-129 -320.5z" />
    <glyph glyph-name="uni0475" unicode="&#x475;" horiz-adv-x="1067" 
d="M596 -37h-125l-446 1073h198l312 -803h2l153 429q3 9 17 52t19.5 58t19 52.5t22.5 58t23 51t28.5 55t30.5 47.5h201q-23 -31 -45 -67.5t-36.5 -64.5t-34 -73t-28.5 -67.5t-29.5 -75t-27.5 -70.5z" />
    <glyph glyph-name="uni0490" unicode="&#x490;" horiz-adv-x="993" 
d="M391 0h-188v1397h555v284h174v-458h-541v-1223z" />
    <glyph glyph-name="uni0491" unicode="&#x491;" horiz-adv-x="888" 
d="M352 0h-176v1036h496v291h162v-446h-482v-881z" />
    <glyph glyph-name="uni0492" unicode="&#x492;" horiz-adv-x="993" 
d="M391 0h-188v586h-203v176h203v635h729v-176h-541v-459h340v-176h-340v-586z" />
    <glyph glyph-name="uni0493" unicode="&#x493;" horiz-adv-x="888" 
d="M352 0h-176v410h-151v145h151v481h658v-155h-482v-326h258v-145h-258v-410z" />
    <glyph glyph-name="uni0496" unicode="&#x496;" horiz-adv-x="1875" 
d="M270 0h-229l522 709v4l-502 684h228l493 -686v-9zM1004 0h-187v1397h187v-1397zM1663 174h178v-465h-172v291h-119l-512 702v9l494 686h227l-502 -684v-4z" />
    <glyph glyph-name="uni0497" unicode="&#x497;" horiz-adv-x="1572" 
d="M250 0h-215l387 524v4l-363 508h207l359 -508v-6zM827 0h-176v1036h176v-1036zM1227 0l-375 522v6l358 508h209l-362 -508v-4l278 -368h168v-447h-168v291h-108z" />
    <glyph glyph-name="uni049A" unicode="&#x49a;" horiz-adv-x="1296" 
d="M391 0h-188v1397h188v-1397zM1081 174h183v-465h-174v291h-113l-553 702v9l532 686h224l-537 -684v-4z" />
    <glyph glyph-name="uni049B" unicode="&#x49b;" horiz-adv-x="1136" 
d="M352 0h-176v1036h176v-1036zM893 156h174v-447h-168v291h-104l-416 522v6l397 508h211l-403 -508v-4z" />
    <glyph glyph-name="uni04A2" unicode="&#x4a2;" horiz-adv-x="1591" 
d="M1339 174h152v-465h-174v291h-166v635h-760v-635h-188v1397h188v-586h760v586h188v-1223z" />
    <glyph glyph-name="uni04A3" unicode="&#x4a3;" horiz-adv-x="1292" 
d="M1206 -291h-168v291h-147v459h-539v-459h-176v1036h176v-422h539v422h176v-880h139v-447z" />
    <glyph glyph-name="uni04AE" unicode="&#x4ae;" horiz-adv-x="1214" 
d="M700 0h-186v575l-496 822h224l364 -629h2l369 629h219l-496 -822v-575z" />
    <glyph glyph-name="uni04AF" unicode="&#x4af;" horiz-adv-x="1067" 
d="M444 -393v393l-419 1036h200l310 -811h2l309 811h196l-421 -1036v-393h-177z" />
    <glyph glyph-name="uni04B0" unicode="&#x4b0;" horiz-adv-x="1224" 
d="M709 0h-189v479h-254v150h223l-464 768h223l364 -629h2l369 629h219l-463 -768h230v-150h-260v-479z" />
    <glyph glyph-name="uni04B1" unicode="&#x4b1;" horiz-adv-x="1067" 
d="M621 -393h-177v268h-268v156h256l-407 1005h198l312 -823h2l307 823h198l-409 -1005h260v-156h-272v-268z" />
    <glyph glyph-name="uni04B2" unicode="&#x4b2;" horiz-adv-x="1388" 
d="M1174 174h182v-465h-174v291h-117l-393 569h-2l-357 -569h-223l449 711l-469 686h225l379 -555h2l358 555h223l-450 -690z" />
    <glyph glyph-name="uni04B3" unicode="&#x4b3;" horiz-adv-x="1163" 
d="M915 156h179v-447h-166v291h-113l-295 401h-2l-262 -401h-205l352 528l-370 508h209l286 -395h2l267 395h204l-356 -516z" />
    <glyph glyph-name="uni04B6" unicode="&#x4b6;" horiz-adv-x="1325" 
d="M1227 -291h-174v291h-164v453q-126 7 -226.5 20t-178 34t-135.5 46t-98 60.5t-66 72.5t-40.5 87t-20 99t-5.5 113v412h186v-402q0 -74 11.5 -123.5t47 -96.5t99.5 -75.5t169.5 -47.5t256.5 -25v770h186v-1223h152v-465z" />
    <glyph glyph-name="uni04B7" unicode="&#x4b7;" horiz-adv-x="1120" 
d="M895 156h137v-447h-166v291h-147v319q-148 8 -255.5 29.5t-177 53.5t-110 80t-56.5 102.5t-16 128.5v323h181v-288q0 -52 8.5 -87t34.5 -69t73.5 -54.5t126 -35.5t191.5 -21v555h176v-880z" />
    <glyph glyph-name="uni04BA" unicode="&#x4ba;" horiz-adv-x="1245" 
d="M1135 0h-189v412q0 274 -342 274h-213v-686h-188v1399h188v-537h234q242 0 376 -105.5t134 -318.5v-438z" />
    <glyph glyph-name="uni04BB" unicode="&#x4bb;" horiz-adv-x="1208" 
d="M1042 0h-176v643q0 134 -69.5 202t-182.5 68q-154 0 -262 -127v-786h-176v1536h176v-584h2q131 121 312 121q78 0 145.5 -23t119.5 -68t81.5 -118t29.5 -166v-698z" />
    <glyph glyph-name="uni04C0" unicode="&#x4c0;" horiz-adv-x="593" 
d="M391 0h-186v1397h186v-1397z" />
    <glyph glyph-name="uni04D8" unicode="&#x4d8;" horiz-adv-x="1519" 
d="M213 1278q199 156 483 156q150 0 278 -49t223 -140.5t148.5 -232t53.5 -314.5q0 -228 -82 -395.5t-225.5 -253.5t-331.5 -86q-128 0 -239.5 45.5t-193.5 127.5t-129.5 202t-47.5 262q0 82 4 121h1013q-10 258 -147.5 396t-364.5 138q-135 0 -247.5 -52.5t-186.5 -143.5
h-8v219zM381 543q4 -183 109 -293.5t272 -110.5q159 0 268.5 108.5t132.5 295.5h-782z" />
    <glyph glyph-name="uni04D9" unicode="&#x4d9;" horiz-adv-x="1120" 
d="M131 958q146 115 369 115q233 0 380.5 -147t147.5 -408q0 -259 -133 -407t-350 -148q-197 0 -329 133.5t-132 347.5q0 70 4 101h754q-7 179 -108 276t-269 97q-99 0 -185.5 -39t-142.5 -103h-6v182zM268 397q3 -121 80.5 -198.5t198.5 -77.5q120 0 198 71.5t95 204.5
h-572z" />
    <glyph glyph-name="uni04E2" unicode="&#x4e2;" horiz-adv-x="1542" 
d="M1085 1530h-618v127h618v-127zM1339 0h-188v1098h-2l-782 -1123h-164v1422h188v-1098h2l783 1122h163v-1421z" />
    <glyph glyph-name="uni04E3" unicode="&#x4e3;" horiz-adv-x="1247" 
d="M1069 0h-176v772h-2l-559 -797h-156v1061h176v-772h2l559 799h156v-1063zM956 1368h-659v137h659v-137z" />
    <glyph glyph-name="uni04E8" unicode="&#x4e8;" horiz-adv-x="1519" 
d="M1421 698q0 -173 -52.5 -314t-143.5 -232t-210.5 -140t-256.5 -49q-133 0 -251.5 48.5t-210 139t-145 232t-53.5 315.5q0 173 53 314.5t144 232.5t211 140t256 49q134 0 252.5 -49t209.5 -139.5t144 -232t53 -315.5zM758 139q188 0 317.5 127.5t149.5 362.5h-928
q18 -232 146 -361t315 -129zM762 1257q-179 0 -306.5 -117.5t-154.5 -334.5h920q-27 215 -154 333.5t-305 118.5z" />
    <glyph glyph-name="uni04E9" unicode="&#x4e9;" horiz-adv-x="1187" 
d="M1112 518q0 -129 -39.5 -234.5t-109.5 -175.5t-165 -107.5t-206 -37.5q-109 0 -202.5 37.5t-163 107t-109 175t-39.5 235.5q0 258 145.5 406.5t372.5 148.5q109 0 202.5 -37.5t163.5 -107t110 -175t40 -235.5zM596 918q-131 0 -219.5 -85t-108.5 -237h650
q-19 151 -105.5 236.5t-216.5 85.5zM592 121q132 0 220 83.5t106 235.5h-650q20 -151 107 -235t217 -84z" />
    <glyph glyph-name="uni04EE" unicode="&#x4ee;" horiz-adv-x="1196" 
d="M918 1530h-619v127h619v-127zM543 0h-201l172 383l-489 1014h215l370 -799h2l361 799h196z" />
    <glyph glyph-name="uni04EF" unicode="&#x4ef;" horiz-adv-x="1071" 
d="M868 1368h-659v137h659v-137zM492 -395h-193l160 397l-441 1034h201l328 -807h2l289 807h194z" />
    <glyph glyph-name="Wgrave" unicode="&#x1e80;" horiz-adv-x="1974" 
d="M1425 -37h-145l-293 828h-2l-291 -828h-145l-502 1434h203l383 -1090h2l264 752l-117 338h97l-193 241h191l155 -241h-51l371 -1090h2l377 1090h198z" />
    <glyph glyph-name="wgrave" unicode="&#x1e81;" horiz-adv-x="1667" 
d="M1239 -37h-113l-290 715h-2l-291 -715h-115l-389 1073h197l262 -743h2l327 780h17l325 -778h2l263 741h194zM915 1143h-157l-285 393h191z" />
    <glyph glyph-name="Wacute" unicode="&#x1e82;" horiz-adv-x="1974" 
d="M1425 -37h-145l-293 828h-2l-291 -828h-145l-502 1434h203l383 -1090h2l264 752l-117 338h86l156 241h190l-192 -241h-41l371 -1090h2l377 1090h198z" />
    <glyph glyph-name="wacute" unicode="&#x1e83;" horiz-adv-x="1667" 
d="M913 1141h-157l256 395h186zM1239 -37h-113l-290 715h-2l-291 -715h-115l-389 1073h197l262 -743h2l327 780h17l325 -778h2l263 741h194z" />
    <glyph glyph-name="Wdieresis" unicode="&#x1e84;" horiz-adv-x="1974" 
d="M858 1499h-180v158h180v-158zM1282 1499h-180v158h180v-158zM1425 -37h-145l-293 828h-2l-291 -828h-145l-502 1434h203l383 -1090h2l264 752l-117 338h199l371 -1090h2l377 1090h198z" />
    <glyph glyph-name="wdieresis" unicode="&#x1e85;" horiz-adv-x="1667" 
d="M711 1362h-181v174h181v-174zM1135 1362h-181v174h181v-174zM1239 -37h-113l-290 715h-2l-291 -715h-115l-389 1073h197l262 -743h2l327 780h17l325 -778h2l263 741h194z" />
    <glyph glyph-name="Ygrave" unicode="&#x1ef2;" horiz-adv-x="1214" 
d="M700 0h-186v575l-496 822h224l364 -629h2l369 629h219l-496 -822v-575zM692 1397h-153l-193 241h191z" />
    <glyph glyph-name="ygrave" unicode="&#x1ef3;" horiz-adv-x="1071" 
d="M492 -395h-193l160 397l-441 1034h201l328 -807h2l289 807h194zM612 1143h-157l-285 393h190z" />
    <glyph glyph-name="endash" unicode="&#x2013;" 
d="M1085 471h-1065v145h1065v-145z" />
    <glyph glyph-name="emdash" unicode="&#x2014;" horiz-adv-x="2211" 
d="M2191 471h-2150v145h2150v-145z" />
    <glyph glyph-name="quoteleft" unicode="&#x2018;" horiz-adv-x="552" 
d="M279 903h-164v10l153 484h162z" />
    <glyph glyph-name="quoteright" unicode="&#x2019;" horiz-adv-x="552" 
d="M287 903h-160l149 494h166v-11z" />
    <glyph glyph-name="quotesinglbase" unicode="&#x201a;" horiz-adv-x="552" 
d="M258 -283h-162l152 494h164v-10z" />
    <glyph glyph-name="quotedblleft" unicode="&#x201c;" horiz-adv-x="882" 
d="M285 903h-164v10l153 484h162zM625 903h-164v10l153 484h162z" />
    <glyph glyph-name="quotedblright" unicode="&#x201d;" horiz-adv-x="882" 
d="M281 903h-160l149 494h166v-11zM621 903h-160l149 494h166v-11z" />
    <glyph glyph-name="quotedblbase" unicode="&#x201e;" horiz-adv-x="882" 
d="M264 -283h-162l152 494h164v-10zM604 -283h-162l152 494h164v-10z" />
    <glyph glyph-name="dagger" unicode="&#x2020;" horiz-adv-x="1085" 
d="M623 0h-160v905h-320v148h320v344h160v-344h319v-148h-319v-905z" />
    <glyph glyph-name="daggerdbl" unicode="&#x2021;" horiz-adv-x="1085" 
d="M623 0h-160v344h-320v148h320v413h-320v148h320v344h160v-344h319v-148h-319v-413h319v-148h-319v-344z" />
    <glyph glyph-name="bullet" unicode="&#x2022;" horiz-adv-x="817" 
d="M643 270h-467v553h467v-553z" />
    <glyph glyph-name="ellipsis" unicode="&#x2026;" horiz-adv-x="2048" 
d="M494 0h-193v211h193v-211zM1120 0h-192v211h192v-211zM1747 0h-193v211h193v-211z" />
    <glyph glyph-name="perthousand" unicode="&#x2030;" horiz-adv-x="2414" 
d="M686 944q0 -243 -92.5 -361t-237.5 -118q-143 0 -235 118t-92 361q0 126 26 220t72 149t103.5 81.5t125.5 26.5q69 0 127 -26.5t104.5 -81.5t72.5 -149t26 -220zM543 944q0 348 -187 348q-184 0 -184 -348q0 -180 49 -266t135 -86q88 0 137.5 85.5t49.5 266.5zM1669 455
q0 -243 -92.5 -361.5t-237.5 -118.5q-143 0 -235 118.5t-92 361.5q0 126 26 220t72 149t103.5 81.5t125.5 26.5q69 0 127 -26.5t104.5 -81.5t72.5 -149t26 -220zM1526 455q0 348 -187 348q-184 0 -184 -348q0 -180 49 -266.5t135 -86.5q88 0 137.5 86t49.5 267zM2384 455
q0 -243 -92.5 -361.5t-237.5 -118.5q-68 0 -126 27.5t-104 83t-72 150t-26 219.5q0 126 26 220t72.5 149t104 81.5t125.5 26.5q69 0 127 -26.5t104.5 -81.5t72.5 -149t26 -220zM2241 455q0 348 -187 348q-184 0 -184 -348q0 -180 49 -266.5t135 -86.5q88 0 137.5 86
t49.5 267zM539 0h-146l768 1397h146z" />
    <glyph glyph-name="guilsinglleft" unicode="&#x2039;" horiz-adv-x="608" 
d="M524 145h-164l-276 392v12l276 391h164l-264 -397z" />
    <glyph glyph-name="guilsinglright" unicode="&#x203a;" horiz-adv-x="608" 
d="M248 145h-164l264 398l-264 397h164l276 -391v-12z" />
    <glyph glyph-name="fraction" unicode="&#x2044;" horiz-adv-x="335" 
d="M-143 0h-146l768 1397h146z" />
    <glyph glyph-name="zerosuperior" unicode="&#x2070;" horiz-adv-x="716" 
d="M686 1059q0 -243 -92.5 -361t-237.5 -118q-143 0 -235 118t-92 361q0 126 26 220t72 149t103.5 81.5t125.5 26.5q69 0 127 -26.5t104.5 -81.5t72.5 -149t26 -220zM543 1059q0 348 -187 348q-184 0 -184 -348q0 -180 49 -266t135 -86q88 0 137.5 85.5t49.5 266.5z" />
    <glyph glyph-name="foursuperior" unicode="&#x2074;" horiz-adv-x="716" 
d="M698 793h-129v-189h-139v189h-410v92l449 651h100v-633h129v-110zM434 903v406h-2l-272 -404v-2h274z" />
    <glyph glyph-name="fivesuperior" unicode="&#x2075;" horiz-adv-x="716" 
d="M649 874q0 -141 -88.5 -217.5t-226.5 -76.5q-142 0 -242 71v135h4q39 -42 98.5 -65t122.5 -23q83 0 136 45t53 129q0 81 -55.5 129t-155.5 48q-98 0 -180 -48h-4l79 510h431v-120h-330l-41 -252q47 20 100 20q131 0 215 -76t84 -209z" />
    <glyph glyph-name="sixsuperior" unicode="&#x2076;" horiz-adv-x="716" 
d="M678 868q0 -138 -89.5 -213t-230.5 -75q-145 0 -232 76.5t-87 211.5q0 101 51 181l299 462h168v-2l-246 -372v-2q53 18 117 12q113 -12 181.5 -86t68.5 -193zM537 868q0 81 -47.5 130t-131.5 49q-79 0 -129.5 -46t-50.5 -133q0 -78 47 -127t129 -49t132.5 45t50.5 131z
" />
    <glyph glyph-name="sevensuperior" unicode="&#x2077;" horiz-adv-x="716" 
d="M252 606h-150v2l383 774h-442v131h645v-8z" />
    <glyph glyph-name="eightsuperior" unicode="&#x2078;" horiz-adv-x="716" 
d="M670 852q0 -127 -86 -199.5t-228 -72.5q-141 0 -226 72.5t-85 199.5q0 85 40.5 145t113.5 88v2q-123 60 -123 205q0 115 76.5 179.5t203.5 64.5q128 0 205.5 -64.5t77.5 -179.5q0 -141 -125 -205q73 -28 114.5 -89t41.5 -146zM526 860q0 73 -45 118.5t-125 45.5
q-78 0 -124 -46t-46 -118q0 -75 45 -121.5t125 -46.5q78 0 124 46.5t46 121.5zM508 1278q0 66 -40.5 105.5t-111.5 39.5q-70 0 -109.5 -39.5t-39.5 -105.5q0 -65 39.5 -105t109.5 -40q71 0 111.5 40.5t40.5 104.5z" />
    <glyph glyph-name="ninesuperior" unicode="&#x2079;" horiz-adv-x="716" 
d="M326 604h-166v2l246 373v2q-45 -15 -119 -12q-111 12 -179.5 86t-68.5 192q0 140 89 214.5t230 74.5q144 0 232 -77t88 -212q0 -93 -60 -192zM537 1247q0 79 -48 127.5t-131 48.5q-79 0 -128.5 -44.5t-49.5 -131.5q0 -80 46.5 -129t129.5 -49q80 0 130.5 45.5t50.5 132.5
z" />
    <glyph glyph-name="plussuperior" unicode="&#x207a;" horiz-adv-x="716" 
d="M410 682h-107v268h-254v105h254v268h107v-268h256v-105h-256v-268z" />
    <glyph glyph-name="minussuperior" unicode="&#x207b;" horiz-adv-x="716" 
d="M666 950h-617v105h617v-105z" />
    <glyph glyph-name="equalsuperior" unicode="&#x207c;" horiz-adv-x="716" 
d="M666 803h-617v104h617v-104zM666 1098h-617v108h617v-108z" />
    <glyph glyph-name="parenleftsuperior" unicode="&#x207d;" horiz-adv-x="454" 
d="M434 457h-129q-101 112 -157 257t-56 304t56 303t157 256h129q-99 -113 -155 -257t-56 -302t56 -303t155 -258z" />
    <glyph glyph-name="parenrightsuperior" unicode="&#x207e;" horiz-adv-x="454" 
d="M150 457h-130q99 113 155 258t56 303t-56 302t-155 257h130q101 -111 155.5 -255t54.5 -304t-54.5 -305t-155.5 -256z" />
    <glyph glyph-name="zeroinferior" unicode="&#x2080;" horiz-adv-x="716" 
d="M686 260q0 -243 -92.5 -361t-237.5 -118q-143 0 -235 118t-92 361q0 126 26 220t72 149t103.5 81.5t125.5 26.5q69 0 127 -26.5t104.5 -81.5t72.5 -149t26 -220zM543 260q0 348 -187 348q-184 0 -184 -348q0 -180 49 -266t135 -86q88 0 137.5 85.5t49.5 266.5z" />
    <glyph glyph-name="oneinferior" unicode="&#x2081;" horiz-adv-x="716" 
d="M487 -195h-139v768l-201 -67h-4v131l340 100h4v-932z" />
    <glyph glyph-name="twoinferior" unicode="&#x2082;" horiz-adv-x="716" 
d="M678 -195h-627v93q231 192 313 302.5t82 225.5q0 89 -46.5 139.5t-123.5 50.5q-115 0 -202 -90h-4v136q102 75 231 75q127 0 208 -78t81 -217q0 -37 -4.5 -70t-17 -66t-22.5 -57.5t-34 -57.5t-37 -51.5t-46.5 -53t-48 -49.5t-55 -54.5t-55.5 -54.5v-2h408v-121z" />
    <glyph glyph-name="threeinferior" unicode="&#x2083;" horiz-adv-x="716" 
d="M649 37q0 -122 -84.5 -189t-220.5 -67q-146 0 -252 72v135h4q40 -41 102.5 -64.5t123.5 -23.5q82 0 134 40t52 115q0 67 -50.5 105.5t-138.5 38.5h-124v120h139q119 43 119 148q0 69 -44.5 109t-117.5 40q-112 0 -189 -86h-4v138q97 69 224 69q121 0 197.5 -67t76.5 -183
q0 -149 -137 -217q82 -16 136 -76.5t54 -156.5z" />
    <glyph glyph-name="fourinferior" unicode="&#x2084;" horiz-adv-x="716" 
d="M698 -6h-129v-189h-139v189h-410v92l449 651h100v-633h129v-110zM434 104v406h-2l-272 -404v-2h274z" />
    <glyph glyph-name="fiveinferior" unicode="&#x2085;" horiz-adv-x="716" 
d="M649 76q0 -141 -88.5 -218t-226.5 -77q-141 0 -242 72v135h4q39 -42 98.5 -65t122.5 -23q83 0 136 45t53 129q0 81 -55.5 128.5t-155.5 47.5t-180 -47h-4l79 510h431v-121h-330l-41 -252q47 20 100 20q131 0 215 -75.5t84 -208.5z" />
    <glyph glyph-name="sixinferior" unicode="&#x2086;" horiz-adv-x="716" 
d="M678 70q0 -138 -89.5 -213.5t-230.5 -75.5q-144 0 -231.5 77t-87.5 212q0 100 51 180l299 463h168v-2l-246 -373v-2q53 18 117 12q113 -12 181.5 -85.5t68.5 -192.5zM537 70q0 81 -47.5 129.5t-131.5 48.5q-79 0 -129.5 -45.5t-50.5 -132.5q0 -78 47 -127t129 -49
t132.5 45t50.5 131z" />
    <glyph glyph-name="seveninferior" unicode="&#x2087;" horiz-adv-x="716" 
d="M252 -193h-150v3l383 774h-442v131h645v-8z" />
    <glyph glyph-name="eightinferior" unicode="&#x2088;" horiz-adv-x="716" 
d="M670 53q0 -127 -86 -199.5t-228 -72.5q-141 0 -226 72.5t-85 199.5q0 85 40.5 145.5t113.5 88.5v2q-123 60 -123 205q0 115 76.5 179t203.5 64q129 0 206 -64t77 -179q0 -141 -125 -205q73 -28 114.5 -89.5t41.5 -146.5zM526 61q0 73 -45 118.5t-125 45.5q-78 0 -124 -46
t-46 -118q0 -75 45 -121t125 -46q78 0 124 46t46 121zM508 479q0 66 -40.5 106t-111.5 40q-69 0 -109 -40t-40 -106q0 -65 39.5 -105t109.5 -40q71 0 111.5 40.5t40.5 104.5z" />
    <glyph glyph-name="nineinferior" unicode="&#x2089;" horiz-adv-x="716" 
d="M326 -195h-166v2l246 373v2q-45 -15 -119 -12q-111 12 -179.5 86.5t-68.5 192.5q0 139 89 213.5t230 74.5q144 0 232 -76.5t88 -211.5q0 -94 -60 -193zM537 449q0 79 -48 127.5t-131 48.5q-79 0 -128.5 -44.5t-49.5 -131.5q0 -80 46.5 -129.5t129.5 -49.5q80 0 130.5 46
t50.5 133z" />
    <glyph glyph-name="parenleftinferior" unicode="&#x208d;" horiz-adv-x="454" 
d="M434 -342h-129q-101 112 -157 257t-56 304t56 303t157 256h129q-99 -113 -155 -257t-56 -302t56 -303t155 -258z" />
    <glyph glyph-name="parenrightinferior" unicode="&#x208e;" horiz-adv-x="454" 
d="M150 -342h-130q99 113 155 258t56 303t-56 302t-155 257h130q101 -111 155.5 -255t54.5 -304t-54.5 -305t-155.5 -256z" />
    <glyph glyph-name="Euro" unicode="&#x20ac;" horiz-adv-x="1073" 
d="M1010 86q-129 -123 -318 -123q-86 0 -158.5 27t-135.5 84.5t-106.5 159t-62.5 239.5h-170v145h158q-2 25 -2 80q0 62 2 93h-158v145h172q38 256 158.5 377t298.5 121q192 0 316 -121v-187h-9q-103 150 -280 150q-126 0 -202 -83.5t-105 -256.5h485v-145h-500
q-2 -31 -2 -95q0 -53 2 -78h500v-145h-487q57 -352 311 -352q171 0 284 149h9v-184z" />
    <glyph glyph-name="litre" unicode="&#x2113;" horiz-adv-x="1085" 
d="M936 31q-115 -68 -277 -68q-146 0 -245.5 98t-147.5 283q-52 -23 -153 -55v157q78 22 125 41q-15 111 -15 242q0 332 106.5 518.5t303.5 186.5q145 0 227 -93.5t82 -255.5q0 -210 -127 -381t-373 -284q56 -299 263 -299q61 0 121 22.5t102 59.5h8v-172zM418 762
q0 -128 4 -187q342 200 342 519q0 109 -35.5 163t-97.5 54q-100 0 -156.5 -134t-56.5 -415z" />
    <glyph glyph-name="numero" unicode="&#x2116;" horiz-adv-x="2330" 
d="M2204 307h-529v121h529v-121zM2140 940q0 112 -54.5 177t-143.5 65q-92 0 -148.5 -64t-56.5 -178q0 -109 55.5 -174.5t144.5 -65.5q91 0 147 64t56 176zM2281 940q0 -166 -96 -263t-248 -97q-149 0 -244.5 97t-95.5 263q0 169 95.5 267t249.5 98q149 0 244 -98t95 -267z
M1346 -25h-146l-807 1047h-2v-1022h-188v1311l-56 75v11h201l809 -1061h2v1061h187v-1422z" />
    <glyph glyph-name="published" unicode="&#x2117;" horiz-adv-x="1589" 
d="M692 268h-133v858h258q134 0 218.5 -68.5t84.5 -197.5q0 -134 -100.5 -214t-327.5 -101v-277zM692 664q157 7 226 57.5t69 128.5q0 75 -51 116.5t-135 41.5h-109v-344zM793 -37q-112 0 -214.5 30t-190 91.5t-152.5 148t-101.5 206t-36.5 259.5q0 139 36 258.5
t100.5 206.5t152.5 148.5t192 92t218 30.5q140 0 265 -49t221 -139.5t152 -232t56 -315.5q0 -173 -55.5 -314t-151 -232t-221.5 -140t-270 -49zM791 61q122 0 228 40.5t187 118t127.5 200.5t46.5 278q0 152 -45 274.5t-124 201.5t-183.5 121t-226.5 42t-228.5 -40.5
t-188 -118.5t-128.5 -201.5t-47 -278.5q0 -151 45 -273.5t124.5 -201t185 -120.5t227.5 -42z" />
    <glyph glyph-name="published" unicode="&#xe039;" horiz-adv-x="1589" 
d="M692 268h-133v858h258q134 0 218.5 -68.5t84.5 -197.5q0 -134 -100.5 -214t-327.5 -101v-277zM692 664q157 7 226 57.5t69 128.5q0 75 -51 116.5t-135 41.5h-109v-344zM793 -37q-112 0 -214.5 30t-190 91.5t-152.5 148t-101.5 206t-36.5 259.5q0 139 36 258.5
t100.5 206.5t152.5 148.5t192 92t218 30.5q140 0 265 -49t221 -139.5t152 -232t56 -315.5q0 -173 -55.5 -314t-151 -232t-221.5 -140t-270 -49zM791 61q122 0 228 40.5t187 118t127.5 200.5t46.5 278q0 152 -45 274.5t-124 201.5t-183.5 121t-226.5 42t-228.5 -40.5
t-188 -118.5t-128.5 -201.5t-47 -278.5q0 -151 45 -273.5t124.5 -201t185 -120.5t227.5 -42z" />
    <glyph glyph-name="trademark" unicode="&#x2122;" horiz-adv-x="1783" 
d="M403 539h-131v729h-237v129h606v-129h-238v-729zM1677 539h-133l-49 585h-2l-260 -608h-8l-262 608h-2l-48 -585h-133l74 872h104l271 -641h2l266 641h105z" />
    <glyph glyph-name="Omega" unicode="&#x2126;" horiz-adv-x="1533" 
d="M1427 0h-579v135q185 128 273.5 277.5t88.5 339.5q0 239 -122.5 372t-319.5 133t-320.5 -133t-123.5 -372q0 -190 88.5 -339.5t273.5 -277.5v-135h-580v176h297v2q-134 119 -205 268t-71 345q0 122 32.5 226t91 180t138.5 130t176 80.5t203 26.5q106 0 201.5 -26.5
t175.5 -80.5t138.5 -130t91 -180t32.5 -226q0 -196 -71 -344.5t-203 -268.5v-2h294v-176z" />
    <glyph glyph-name="estimated" unicode="&#x212e;" horiz-adv-x="1691" 
d="M1282 322h152q-89 -170 -245 -264.5t-343 -94.5q-144 0 -267 53t-210.5 148t-137 232.5t-49.5 299.5q0 164 50 302t138 233.5t211 149t267 53.5q300 0 480.5 -213.5t182.5 -561.5h-1105v-292q64 -133 178.5 -208t261.5 -75q138 0 251.5 64t184.5 174zM850 1313
q-154 0 -267.5 -72.5t-176.5 -204.5v-260h880v256q-64 131 -178.5 206t-257.5 75z" />
    <glyph glyph-name="arrowleft" unicode="&#x2190;" horiz-adv-x="1628" 
d="M786 104l-636 582v12l636 582h261l-560 -498h992v-180h-992l560 -498h-261z" />
    <glyph glyph-name="arrowup" unicode="&#x2191;" horiz-adv-x="1628" 
d="M1401 715v-260l-498 559v-991h-180v991l-498 -559v260l582 637h12z" />
    <glyph glyph-name="arrowright" unicode="&#x2192;" horiz-adv-x="1628" 
d="M842 104h-260l559 498h-991v180h991l-559 498h260l637 -582v-12z" />
    <glyph glyph-name="arrowdown" unicode="&#x2193;" horiz-adv-x="1628" 
d="M1401 659l-582 -636h-12l-582 636v261l498 -560v992h180v-992l498 560v-261z" />
    <glyph glyph-name="arrowupleft" unicode="&#x2196;" horiz-adv-x="1628" 
d="M541 139l-185 185l-39 860l9 10l862 -39l182 -184l-747 43l702 -703l-129 -125l-700 701z" />
    <glyph glyph-name="arrowupright" unicode="&#x2197;" horiz-adv-x="1628" 
d="M1274 324l-184 -185l43 748l-701 -701l-129 125l703 703l-748 -43l184 184l863 39l8 -10z" />
    <glyph glyph-name="arrowdownright" unicode="&#x2198;" horiz-adv-x="1628" 
d="M1090 1268l184 -185l39 -860l-8 -10l-863 39l-184 184l750 -45l-703 703l127 127l701 -701z" />
    <glyph glyph-name="arrowdownleft" unicode="&#x2199;" horiz-adv-x="1628" 
d="M356 1083l185 185l-45 -748l700 701l129 -127l-702 -703l747 45l-182 -184l-862 -39l-9 10z" />
    <glyph glyph-name="arrowtailleft" unicode="&#x21a2;" horiz-adv-x="1628" 
d="M694 1157v-375h785v-180h-785v-375h-16l-528 459v12l528 459h16z" />
    <glyph glyph-name="arrowtailright" unicode="&#x21a3;" horiz-adv-x="1628" 
d="M950 227h-16v375h-784v180h784v375h16l529 -459v-12z" />
    <glyph glyph-name="partialdiff" unicode="&#x2202;" horiz-adv-x="1142" 
d="M100 403q0 194 124 312.5t308 118.5q78 0 154 -27h2l-385 586v4h217l467 -719q82 -127 82 -275q0 -206 -133 -323t-352 -117q-136 0 -243.5 47.5t-174 148.5t-66.5 244zM291 403q0 -142 82 -215t215 -73q138 0 215.5 78.5t77.5 209.5q0 143 -82 217t-215 74
q-137 0 -215 -80t-78 -211z" />
    <glyph glyph-name="Delta" unicode="&#x2206;" horiz-adv-x="1366" 
d="M1335 0h-1302l571 1434h158zM1063 176l-383 991h-2l-383 -991h768z" />
    <glyph glyph-name="product" unicode="&#x220f;" horiz-adv-x="1542" 
d="M1339 -395h-186v1605h-762v-1605h-186v1792h1134v-1792z" />
    <glyph glyph-name="summation" unicode="&#x2211;" horiz-adv-x="1273" 
d="M1171 -395h-1079v12l559 893v2l-534 872v13h1013v-187h-675v-2l430 -688v-14l-457 -713v-2h743v-186z" />
    <glyph glyph-name="minus" unicode="&#x2212;" 
d="M989 502h-872v135h872v-135z" />
    <glyph glyph-name="radical" unicode="&#x221a;" horiz-adv-x="1257" 
d="M762 0h-258l-299 977h-148v143h303l279 -948h6l365 1225h194z" />
    <glyph glyph-name="infinity" unicode="&#x221e;" horiz-adv-x="1214" 
d="M1153 571q0 -141 -76.5 -221t-185.5 -80q-89 0 -156.5 51t-122.5 150h-2q-52 -97 -117.5 -149t-162.5 -52q-123 0 -196 81.5t-73 219.5q0 125 73.5 208t195.5 83q94 0 157.5 -54t118.5 -153h2q32 52 54 81.5t55.5 62.5t74 48t91.5 15q125 0 197.5 -81.5t72.5 -209.5z
M1022 571q0 68 -39.5 110t-105.5 42q-60 0 -100 -38.5t-83 -117.5q36 -78 77 -118.5t103 -40.5q65 0 106.5 41t41.5 122zM338 408q66 0 106 39t78 120q-44 80 -84 119t-100 39q-63 0 -103 -44t-40 -110q0 -79 40 -121t103 -42z" />
    <glyph glyph-name="integral" unicode="&#x222b;" horiz-adv-x="550" 
d="M72 -395q-112 0 -195 59v150h6q62 -68 152 -68q70 0 112.5 51.5t42.5 155.5v1270q0 150 75 238.5t220 88.5q113 0 189 -51v-164h-6q-69 62 -148 62t-116 -51t-37 -136v-1265q0 -163 -79 -251.5t-216 -88.5z" />
    <glyph glyph-name="approxequal" unicode="&#x2248;" 
d="M979 766q-93 -107 -221 -107q-47 0 -104.5 19t-102.5 41.5t-101 41.5t-100 19q-70 0 -121 -29.5t-102 -88.5v147q96 106 221 106q60 0 134.5 -30.5t147 -61t126.5 -30.5q71 0 122 30.5t101 89.5v-147zM979 346q-93 -106 -221 -106q-59 0 -133 30t-147 60t-128 30
q-70 0 -121 -29.5t-102 -88.5v147q95 109 221 109q48 0 105.5 -19t103 -42.5t100.5 -42.5t99 -19q71 0 122.5 30.5t100.5 90.5v-150z" />
    <glyph glyph-name="notequal" unicode="&#x2260;" 
d="M989 295h-430l-88 -211h-129l88 211h-313v133h370l119 285h-489v133h547l90 219h129l-90 -219h196v-133h-254l-119 -285h373v-133z" />
    <glyph glyph-name="lessequal" unicode="&#x2264;" 
d="M989 168h-872v137h872v-137zM989 412l-872 262v137l872 264v-137l-680 -193v-4l680 -190v-139z" />
    <glyph glyph-name="greaterequal" unicode="&#x2265;" 
d="M989 674l-872 -262v139l680 190v4l-680 193v137l872 -264v-137zM989 168h-872v137h872v-137z" />
    <glyph glyph-name="blacksquare" unicode="&#x25a0;" horiz-adv-x="1628" 
d="M1513 0h-1398v1397h1398v-1397z" />
    <glyph glyph-name="whitesquare" unicode="&#x25a1;" horiz-adv-x="1628" 
d="M1513 0h-1398v1397h1398v-1397zM213 98h1204v1202h-1204v-1202z" />
    <glyph glyph-name="lozenge" unicode="&#x25ca;" 
d="M1024 571l-471 -503l-471 503l471 502zM854 571l-301 322l-303 -322l303 -321z" />
    <glyph glyph-name="whitecircle" unicode="&#x25cb;" horiz-adv-x="1628" 
d="M1591 698q0 -158 -61.5 -301t-165.5 -247t-248.5 -165t-302.5 -61t-301 61t-247 164.5t-165 246.5t-61 300q0 158 61.5 301t165 247t247.5 165t302 61t301.5 -61t247.5 -164.5t165.5 -246.5t61.5 -300zM1495 698q0 181 -92 337t-249 247.5t-339 91.5q-138 0 -264 -54
t-217 -145.5t-145 -216.5t-54 -262q0 -182 91 -337.5t247.5 -247t339.5 -91.5t340.5 91.5t249.5 248t92 338.5z" />
    <glyph glyph-name="blackcircle" unicode="&#x25cf;" horiz-adv-x="1628" 
d="M1591 698q0 -158 -61.5 -301t-165.5 -247t-248.5 -165t-302.5 -61t-301 61t-247 164.5t-165 246.5t-61 300q0 158 61.5 301t165 247t247.5 165t302 61t301.5 -61t247.5 -164.5t165.5 -246.5t61.5 -300z" />
    <glyph glyph-name="ballotboxwithx" unicode="&#x2612;" horiz-adv-x="1628" 
d="M1513 0h-1398v1397h1398v-1397zM1419 94v1209h-1210v-1209h1210zM1313 291l-96 -98l-404 405l-407 -405l-97 94l408 407l-406 406l97 98l405 -407l406 409l96 -98l-406 -408z" />
    <glyph glyph-name="pointingindexleftwhite" unicode="&#x261c;" horiz-adv-x="2252" 
d="M63 950q0 68 51 92.5t140 24.5h326q-23 17 -32.5 54.5t1.5 107.5h358q73 0 137.5 -26t113.5 -66t92.5 -81.5t93.5 -78t98 -49.5l14 92h619q32 -123 40 -270t-3 -282.5t-37 -272.5q-81 -1 -213 -39.5t-203 -38.5q-112 0 -167 73.5t-60 196.5q-102 -6 -244.5 -42
t-257.5 -36h-51q-92 0 -142.5 28.5t-50.5 102.5q0 15 8 43q-44 7 -76 39.5t-32 85.5q0 24 6 51q-47 7 -76 36.5t-29 84.5q0 10 9 51h-242q-41 0 -72.5 5t-60 17t-43.5 36.5t-15 60.5zM127 950q0 -19 8 -30.5t27.5 -16.5t37 -6.5t50.5 -1.5h643l12 -70h-342q-8 -21 -8 -41
q0 -40 26.5 -53.5t92.5 -13.5h256l10 -68h-281q-8 -16 -8 -39q0 -39 26.5 -54t90.5 -15h199l10 -68h-217q-6 -18 -6 -35q0 -39 35 -53t108 -14h35q72 0 137.5 11.5t111 26t124.5 28.5t172 18q27 226 -11 397q-70 16 -132.5 54.5t-108 81.5t-91.5 83.5t-104 67t-125 26.5
h-295q-10 -49 20.5 -70.5t96.5 -21.5h242v-67h-719q-63 0 -93 -10.5t-30 -45.5zM1688 197q49 0 157.5 32t163.5 37q31 164 31 346.5t-31 325.5h-473q24 -88 27.5 -207.5t-5 -241.5t-8.5 -124q0 -86 33.5 -127t104.5 -41zM1860 385q0 -41 -30 -70.5t-73 -29.5
q-41 0 -70.5 29.5t-29.5 70.5q0 43 29.5 72.5t70.5 29.5q43 0 73 -29.5t30 -72.5z" />
    <glyph glyph-name="pointingindexrightwhite" unicode="&#x261e;" horiz-adv-x="2252" 
d="M2189 950q0 -36 -15 -60.5t-43 -36.5t-59.5 -17t-72.5 -5h-242q8 -36 8 -51q0 -107 -104 -121q6 -27 6 -51q0 -53 -32 -85.5t-76 -39.5q8 -28 8 -43q0 -74 -50.5 -102.5t-142.5 -28.5h-51q-115 0 -257.5 36t-244.5 42q-3 -122 -58.5 -196t-168.5 -74q-70 0 -202.5 38.5
t-213.5 39.5q-26 137 -37 272.5t-3 282.5t40 270h619l14 -92q48 13 98.5 49.5t94 78t92.5 81.5t113 66t137 26h358q11 -70 1.5 -107.5t-32.5 -54.5h326q89 0 139.5 -24.5t50.5 -92.5zM2126 950q0 35 -30 45.5t-93 10.5h-719v67h242q66 0 96 21.5t20 70.5h-294
q-57 0 -108 -19t-88 -48.5t-79 -67t-80 -71.5t-92.5 -63.5t-114.5 -43.5q-38 -168 -10 -397q93 -4 172 -18t124.5 -28.5t111 -26t137.5 -11.5h35q73 0 108 14t35 53q0 17 -6 35h-217l12 68h197q64 0 90.5 15t26.5 54q0 21 -9 39h-280l10 68h256q66 0 93.5 13.5t27.5 53.5
q0 14 -10 41h-342l12 70h643q33 0 50.5 1.5t37 6.5t27.5 16.5t8 30.5zM565 197q70 0 103.5 41t33.5 127q0 1 -8 123.5t-4.5 242t27.5 207.5h-473q-31 -142 -31 -325t31 -347q55 -5 163.5 -37t157.5 -32zM393 385q0 43 30 72.5t73 29.5q41 0 70.5 -29.5t29.5 -72.5
q0 -41 -29.5 -70.5t-70.5 -29.5q-43 0 -73 29.5t-30 70.5z" />
    <glyph glyph-name="checkmark" unicode="&#x2713;" horiz-adv-x="1257" 
d="M666 0h-234l-383 831h195l297 -659h6l465 1235h194z" />
    <glyph glyph-name="dingbatnegcircle1" unicode="&#x2776;" horiz-adv-x="1843" 
d="M920 -139q-162 0 -305 55t-253 157.5t-174.5 264t-64.5 360.5q0 160 41.5 296t115 235t174.5 168.5t220.5 104t251.5 34.5q128 0 245.5 -34t217.5 -104t173.5 -168.5t115.5 -235t42 -296.5q0 -199 -63.5 -360t-173.5 -264t-254 -158t-309 -55zM915 -43q143 0 267.5 47
t220 136.5t150.5 233t55 324.5q0 176 -53.5 318.5t-146 234t-215.5 140.5t-265 49q-114 0 -216 -29t-189.5 -89.5t-151 -147.5t-99.5 -209t-36 -267q0 -177 53 -319t145.5 -233.5t215.5 -140t265 -48.5zM1012 246h-140v768l-200 -68h-4v131l340 101h4v-932z" />
    <glyph glyph-name="dingbatnegcircle2" unicode="&#x2777;" horiz-adv-x="1843" 
d="M920 -139q-162 0 -305 55t-253 157.5t-174.5 264t-64.5 360.5q0 160 41.5 296t115 235t174.5 168.5t220.5 104t251.5 34.5q128 0 245.5 -34t217.5 -104t173.5 -168.5t115.5 -235t42 -296.5q0 -199 -63.5 -360t-173.5 -264t-254 -158t-309 -55zM915 -43q143 0 267.5 47
t220 136.5t150.5 233t55 324.5q0 176 -53.5 318.5t-146 234t-215.5 140.5t-265 49q-114 0 -216 -29t-189.5 -89.5t-151 -147.5t-99.5 -209t-36 -267q0 -177 53 -319t145.5 -233.5t215.5 -140t265 -48.5zM1264 246h-627v92q231 192 313 302.5t82 225.5q0 89 -47 140t-123 51
q-116 0 -203 -90h-4v135q103 76 232 76q127 0 208 -78t81 -217q0 -37 -4.5 -70t-17 -66t-22.5 -57.5t-34 -57.5t-37 -51.5t-46.5 -53t-48 -49.5t-55 -54.5t-55.5 -54.5v-2h408v-121z" />
    <glyph glyph-name="dingbatnegcircle3" unicode="&#x2778;" horiz-adv-x="1843" 
d="M920 -139q-162 0 -305 55t-253 157.5t-174.5 264t-64.5 360.5q0 160 41.5 296t115 235t174.5 168.5t220.5 104t251.5 34.5q128 0 245.5 -34t217.5 -104t173.5 -168.5t115.5 -235t42 -296.5q0 -199 -63.5 -360t-173.5 -264t-254 -158t-309 -55zM915 -43q143 0 267.5 47
t220 136.5t150.5 233t55 324.5q0 176 -53.5 318.5t-146 234t-215.5 140.5t-265 49q-114 0 -216 -29t-189.5 -89.5t-151 -147.5t-99.5 -209t-36 -267q0 -177 53 -319t145.5 -233.5t215.5 -140t265 -48.5zM1241 477q0 -122 -84.5 -189t-220.5 -67q-146 0 -252 72v135h4
q40 -41 102 -64.5t123 -23.5q82 0 134.5 40.5t52.5 115.5q0 67 -50.5 105t-138.5 38h-125v121h140q118 42 118 147q0 70 -44 110t-117 40q-112 0 -189 -86h-4v137q99 70 223 70q121 0 198 -67t77 -183q0 -148 -137 -217q82 -16 136 -77t54 -157z" />
    <glyph glyph-name="dingbatnegcircle4" unicode="&#x2779;" horiz-adv-x="1843" 
d="M920 -139q-162 0 -305 55t-253 157.5t-174.5 264t-64.5 360.5q0 160 41.5 296t115 235t174.5 168.5t220.5 104t251.5 34.5q128 0 245.5 -34t217.5 -104t173.5 -168.5t115.5 -235t42 -296.5q0 -199 -63.5 -360t-173.5 -264t-254 -158t-309 -55zM915 -43q143 0 267.5 47
t220 136.5t150.5 233t55 324.5q0 176 -53.5 318.5t-146 234t-215.5 140.5t-265 49q-114 0 -216 -29t-189.5 -89.5t-151 -147.5t-99.5 -209t-36 -267q0 -177 53 -319t145.5 -233.5t215.5 -140t265 -48.5zM1221 434h-129v-188h-140v188h-409v92l448 652h101v-633h129v-111z
M956 545v405h-2l-272 -403v-2h274z" />
    <glyph glyph-name="dingbatnegcircle5" unicode="&#x277a;" horiz-adv-x="1843" 
d="M920 -139q-162 0 -305 55t-253 157.5t-174.5 264t-64.5 360.5q0 160 41.5 296t115 235t174.5 168.5t220.5 104t251.5 34.5q128 0 245.5 -34t217.5 -104t173.5 -168.5t115.5 -235t42 -296.5q0 -199 -63.5 -360t-173.5 -264t-254 -158t-309 -55zM915 -43q143 0 267.5 47
t220 136.5t150.5 233t55 324.5q0 176 -53.5 318.5t-146 234t-215.5 140.5t-265 49q-114 0 -216 -29t-189.5 -89.5t-151 -147.5t-99.5 -209t-36 -267q0 -177 53 -319t145.5 -233.5t215.5 -140t265 -48.5zM1202 516q0 -141 -88.5 -218t-226.5 -77q-141 0 -242 72v135h4
q39 -42 98.5 -65t122.5 -23q83 0 136 45t53 129q0 81 -55.5 128.5t-155.5 47.5t-180 -47h-4l79 510h431v-121h-330l-41 -252q49 21 100 21q131 0 215 -76t84 -209z" />
    <glyph glyph-name="dingbatnegcircle6" unicode="&#x277b;" horiz-adv-x="1843" 
d="M920 -139q-162 0 -305 55t-253 157.5t-174.5 264t-64.5 360.5q0 160 41.5 296t115 235t174.5 168.5t220.5 104t251.5 34.5q128 0 245.5 -34t217.5 -104t173.5 -168.5t115.5 -235t42 -296.5q0 -199 -63.5 -360t-173.5 -264t-254 -158t-309 -55zM915 -43q143 0 267.5 47
t220 136.5t150.5 233t55 324.5q0 176 -53.5 318.5t-146 234t-215.5 140.5t-265 49q-114 0 -216 -29t-189.5 -89.5t-151 -147.5t-99.5 -209t-36 -267q0 -177 53 -319t145.5 -233.5t215.5 -140t265 -48.5zM1223 510q0 -138 -89.5 -213.5t-230.5 -75.5q-144 0 -231.5 77
t-87.5 212q0 100 51 180l299 463h168v-2l-246 -373v-2q53 18 117 12q113 -12 181.5 -85.5t68.5 -192.5zM1081 510q0 81 -47 129.5t-131 48.5q-79 0 -129.5 -45.5t-50.5 -132.5q0 -78 47 -127t129 -49t132 45t50 131z" />
    <glyph glyph-name="dingbatnegcircle7" unicode="&#x277c;" horiz-adv-x="1843" 
d="M920 -139q-162 0 -305 55t-253 157.5t-174.5 264t-64.5 360.5q0 160 41.5 296t115 235t174.5 168.5t220.5 104t251.5 34.5q128 0 245.5 -34t217.5 -104t173.5 -168.5t115.5 -235t42 -296.5q0 -199 -63.5 -360t-173.5 -264t-254 -158t-309 -55zM915 -43q143 0 267.5 47
t220 136.5t150.5 233t55 324.5q0 176 -53.5 318.5t-146 234t-215.5 140.5t-265 49q-114 0 -216 -29t-189.5 -89.5t-151 -147.5t-99.5 -209t-36 -267q0 -177 53 -319t145.5 -233.5t215.5 -140t265 -48.5zM840 246h-150v2l383 774h-442v131h645v-8z" />
    <glyph glyph-name="dingbatnegcircle8" unicode="&#x277d;" horiz-adv-x="1843" 
d="M920 -139q-162 0 -305 55t-253 157.5t-174.5 264t-64.5 360.5q0 160 41.5 296t115 235t174.5 168.5t220.5 104t251.5 34.5q128 0 245.5 -34t217.5 -104t173.5 -168.5t115.5 -235t42 -296.5q0 -199 -63.5 -360t-173.5 -264t-254 -158t-309 -55zM915 -43q143 0 267.5 47
t220 136.5t150.5 233t55 324.5q0 176 -53.5 318.5t-146 234t-215.5 140.5t-265 49q-114 0 -216 -29t-189.5 -89.5t-151 -147.5t-99.5 -209t-36 -267q0 -177 53 -319t145.5 -233.5t215.5 -140t265 -48.5zM1233 494q0 -127 -85.5 -200t-227.5 -73q-141 0 -226.5 73t-85.5 200
q0 85 40.5 145t113.5 88v2q-123 60 -123 205q0 115 77 179.5t204 64.5q128 0 205 -64.5t77 -179.5q0 -141 -125 -205q73 -28 114.5 -89t41.5 -146zM1090 502q0 73 -45 118.5t-125 45.5q-78 0 -124 -46t-46 -118q0 -75 45 -121.5t125 -46.5q78 0 124 46.5t46 121.5zM1071 920
q0 66 -40 105.5t-111 39.5q-70 0 -110 -40t-40 -105t40 -105.5t110 -40.5t110.5 40.5t40.5 105.5z" />
    <glyph glyph-name="dingbatnegcircle9" unicode="&#x277e;" horiz-adv-x="1843" 
d="M920 -139q-162 0 -305 55t-253 157.5t-174.5 264t-64.5 360.5q0 160 41.5 296t115 235t174.5 168.5t220.5 104t251.5 34.5q128 0 245.5 -34t217.5 -104t173.5 -168.5t115.5 -235t42 -296.5q0 -199 -63.5 -360t-173.5 -264t-254 -158t-309 -55zM915 -43q143 0 267.5 47
t220 136.5t150.5 233t55 324.5q0 176 -53.5 318.5t-146 234t-215.5 140.5t-265 49q-114 0 -216 -29t-189.5 -89.5t-151 -147.5t-99.5 -209t-36 -267q0 -177 53 -319t145.5 -233.5t215.5 -140t265 -48.5zM891 246h-166v2l246 373v2q-48 -16 -119 -13q-111 12 -179.5 86.5
t-68.5 192.5q0 139 89.5 214t230.5 75q144 0 231.5 -76.5t87.5 -212.5q0 -96 -59 -193zM1102 889q0 79 -47.5 127.5t-130.5 48.5q-79 0 -129 -44.5t-50 -131.5q0 -80 47 -129t130 -49q80 0 130 45.5t50 132.5z" />
    <glyph glyph-name="dingbatnegcircle10" unicode="&#x277f;" horiz-adv-x="1843" 
d="M920 -139q-162 0 -305 55t-253 157.5t-174.5 264t-64.5 360.5q0 160 41.5 296t115 235t174.5 168.5t220.5 104t251.5 34.5q128 0 245.5 -34t217.5 -104t173.5 -168.5t115.5 -235t42 -296.5q0 -199 -63.5 -360t-173.5 -264t-254 -158t-309 -55zM915 -43q143 0 267.5 47
t220 136.5t150.5 233t55 324.5q0 176 -53.5 318.5t-146 234t-215.5 140.5t-265 49q-114 0 -216 -29t-189.5 -89.5t-151 -147.5t-99.5 -209t-36 -267q0 -177 53 -319t145.5 -233.5t215.5 -140t265 -48.5zM625 266h-121v860l119 31h2v-891zM1417 715q0 -120 -24.5 -210
t-67.5 -143t-97.5 -78.5t-119.5 -25.5t-119.5 25.5t-97.5 78.5t-67.5 143t-24.5 210q0 233 86 344.5t223 111.5t223 -111.5t86 -344.5zM1290 715q0 340 -182 340q-180 0 -180 -340q0 -176 48 -260t132 -84t133 84t49 260z" />
    <glyph glyph-name="a.superior" unicode="&#xe000;" horiz-adv-x="739" 
d="M635 604h-131v53h-2q-84 -77 -201 -77q-98 0 -162.5 58t-64.5 155q0 100 66 159.5t184 59.5q104 0 176 -43v65q0 80 -48.5 119t-127.5 39q-60 0 -114 -24.5t-89 -63.5h-6v127q104 74 235 74q127 0 206 -68.5t79 -204.5v-428zM500 750v127q-61 41 -142 41
q-71 0 -110 -31.5t-39 -87.5q0 -50 35.5 -82.5t101.5 -32.5q91 0 154 66z" />
    <glyph glyph-name="b.superior" unicode="&#xe001;" horiz-adv-x="804" 
d="M756 940q0 -167 -89.5 -263.5t-230.5 -96.5q-114 0 -200 65h-3l-116 -51h-4v1008h133v-377q90 80 207 80q135 0 219 -98t84 -267zM614 940q0 115 -55 179.5t-147 64.5q-101 0 -166 -82v-336q66 -66 160 -66q95 0 151.5 63t56.5 177z" />
    <glyph glyph-name="c.superior" unicode="&#xe002;" horiz-adv-x="626" 
d="M569 786v-135q-84 -71 -207 -71q-136 0 -224.5 95.5t-88.5 264.5q0 168 87 266.5t224 98.5q116 0 205 -72v-135h-4q-26 37 -72 60.5t-102 23.5q-90 0 -144.5 -64.5t-54.5 -177.5q0 -110 54.5 -174t148.5 -64q54 0 100.5 23t73.5 61h4z" />
    <glyph glyph-name="d.superior" unicode="&#xe003;" horiz-adv-x="804" 
d="M694 604h-133v55h-2q-89 -79 -207 -79q-134 0 -218.5 97t-84.5 263q0 168 89.5 266.5t230.5 98.5q105 0 188 -58h2v355h135v-998zM559 780v338q-70 66 -158 66q-97 0 -155 -64t-58 -180q0 -112 56.5 -176t148.5 -64q100 0 166 80z" />
    <glyph glyph-name="e.superior" unicode="&#xe004;" horiz-adv-x="737" 
d="M645 653q-102 -73 -244 -73q-156 0 -254 96t-98 264q0 170 88 267.5t232 97.5q132 0 219.5 -86.5t87.5 -229.5q0 -39 -2 -59h-486q7 -116 70.5 -178t167.5 -62q65 0 121.5 24t91.5 64h6v-125zM537 1030q-3 79 -50 129.5t-118 50.5q-73 0 -121 -47.5t-58 -132.5h347z" />
    <glyph glyph-name="f.superior" unicode="&#xe005;" horiz-adv-x="450" 
d="M256 604h-133v559h-64v4l64 113v113q0 101 51 160t150 59q73 0 129 -33v-121h-4q-42 39 -99 39q-48 0 -71 -31t-23 -82v-104h160v-117h-160v-559z" />
    <glyph glyph-name="g.superior" unicode="&#xe006;" horiz-adv-x="784" 
d="M549 795v329q-63 60 -150 60q-94 0 -150 -61.5t-56 -170.5q0 -103 54.5 -165t143.5 -62q98 0 158 70zM385 344q-154 0 -246 74v125h4q82 -92 226 -92q92 0 136 47.5t44 128.5v53h-2q-80 -74 -205 -74t-209 91.5t-84 254.5q0 167 87.5 260t225.5 93q110 0 197 -66h2
l117 51h4v-653q0 -143 -80 -218t-217 -75z" />
    <glyph glyph-name="h.superior" unicode="&#xe007;" horiz-adv-x="798" 
d="M694 604h-135v414q0 82 -42 124t-111 42q-94 0 -160 -82v-498h-133v998h133v-377q90 80 203 80q105 0 175 -63t70 -181v-457z" />
    <glyph glyph-name="i.superior" unicode="&#xe008;" horiz-adv-x="356" 
d="M246 604h-133v676h133v-676zM250 1479h-144v123h144v-123z" />
    <glyph glyph-name="j.superior" unicode="&#xe009;" horiz-adv-x="356" 
d="M45 348q-75 0 -131 39v107h2q44 -41 98 -41q44 0 71.5 32.5t27.5 96.5v698h133v-705q0 -110 -54 -168.5t-147 -58.5zM250 1479h-144v123h144v-123z" />
    <glyph glyph-name="k.superior" unicode="&#xe00a;" horiz-adv-x="704" 
d="M246 604h-133v998h133v-998zM682 604h-160l-262 340v4l252 332h154l-258 -332v-2z" />
    <glyph glyph-name="l.superior" unicode="&#xe00b;" horiz-adv-x="356" 
d="M246 604h-133v998h133v-998z" />
    <glyph glyph-name="m.superior" unicode="&#xe00c;" horiz-adv-x="1247" 
d="M1141 604h-133v414q0 82 -42.5 124t-111.5 42q-98 0 -170 -90q10 -38 10 -72v-418h-135v414q0 82 -42 124t-111 42q-94 0 -160 -82v-498h-133v676h131v-55h2q90 80 203 80q68 0 123 -28t85 -81h2q109 109 238 109q105 0 174.5 -62.5t69.5 -181.5v-457z" />
    <glyph glyph-name="n.superior" unicode="&#xe00d;" horiz-adv-x="815" 
d="M709 604h-134v414q0 82 -44.5 124t-116.5 42q-102 0 -168 -82v-498h-133v676h131v-55h2q90 80 209 80q110 0 182 -62.5t72 -181.5v-457z" />
    <glyph glyph-name="o.superior" unicode="&#xe00e;" horiz-adv-x="782" 
d="M592 940q0 116 -55 180t-146 64q-92 0 -147.5 -64t-55.5 -180q0 -111 55.5 -176.5t147.5 -65.5q91 0 146 65t55 177zM733 940q0 -166 -96.5 -263t-245.5 -97t-245.5 97t-96.5 263q0 169 95 267t247 98q151 0 246.5 -98.5t95.5 -266.5z" />
    <glyph glyph-name="p.superior" unicode="&#xe00f;" horiz-adv-x="804" 
d="M756 940q0 -167 -89.5 -263.5t-230.5 -96.5q-109 0 -190 57v-289h-133v932h131v-55h2q90 80 207 80q135 0 219 -98t84 -267zM614 940q0 115 -55 179.5t-147 64.5q-101 0 -166 -82v-336q66 -66 160 -66q95 0 151.5 63t56.5 177z" />
    <glyph glyph-name="q.superior" unicode="&#xe010;" horiz-adv-x="804" 
d="M694 348h-135v311h-2q-85 -79 -205 -79q-134 0 -218.5 97t-84.5 263q0 168 89.5 266.5t230.5 98.5q113 0 200 -66h2l119 51h4v-942zM559 780v338q-70 66 -158 66q-97 0 -155 -64t-58 -180q0 -112 56.5 -176t148.5 -64q100 0 166 80z" />
    <glyph glyph-name="r.superior" unicode="&#xe011;" horiz-adv-x="522" 
d="M248 604h-133v676h129v-57h2q85 82 172 82q32 0 69 -13v-135h-4q-36 23 -80 23q-42 0 -76.5 -18.5t-78.5 -55.5v-502z" />
    <glyph glyph-name="s.superior" unicode="&#xe012;" horiz-adv-x="612" 
d="M532 782q0 -91 -61.5 -146.5t-177.5 -55.5q-134 0 -211 65v125h4q36 -40 90 -62t109 -22q54 0 85 24.5t31 65.5q0 29 -17.5 50.5t-45 35t-61 26t-67.5 29t-61.5 39t-45 61t-17.5 89.5q0 88 58 143.5t167 55.5q122 0 197 -66v-125h-4q-33 39 -83.5 61.5t-98.5 22.5
q-51 0 -77 -24t-26 -64q0 -28 17.5 -48.5t45 -34t61 -25.5t66.5 -29t60.5 -39.5t45 -61t17.5 -90.5z" />
    <glyph glyph-name="t.superior" unicode="&#xe013;" horiz-adv-x="450" 
d="M256 604h-133v559h-64v4l64 113v203h133v-203h160v-117h-160v-559z" />
    <glyph glyph-name="u.superior" unicode="&#xe014;" horiz-adv-x="792" 
d="M686 1280v-420q0 -132 -78 -206t-215 -74q-132 0 -209.5 74.5t-77.5 205.5v420h134v-414q0 -83 40.5 -124.5t114.5 -41.5t116 41.5t42 124.5v414h133z" />
    <glyph glyph-name="v.superior" unicode="&#xe015;" horiz-adv-x="712" 
d="M406 580h-99l-291 700h152l188 -500h2l189 500h149z" />
    <glyph glyph-name="w.superior" unicode="&#xe016;" horiz-adv-x="1099" 
d="M821 580h-88l-182 450h-2l-180 -450h-88l-258 700h149l162 -475h2l209 500h12l209 -500l162 475h149z" />
    <glyph glyph-name="x.superior" unicode="&#xe017;" horiz-adv-x="706" 
d="M688 604h-158l-178 256h-2l-164 -256h-153l223 342l-238 334h158l176 -252h2l164 252h154l-228 -334z" />
    <glyph glyph-name="y.superior" unicode="&#xe018;" horiz-adv-x="714" 
d="M344 348h-151l106 258l-289 674h152l200 -504l179 504h151z" />
    <glyph glyph-name="z.superior" unicode="&#xe019;" horiz-adv-x="651" 
d="M602 604h-563v8l330 549v2h-306v117h521v-10l-334 -547v-2h352v-117z" />
    <glyph glyph-name="grave.cap" unicode="&#xe01a;" horiz-adv-x="1024" 
d="M684 1397h-154l-192 241h190z" />
    <glyph glyph-name="acute.cap" unicode="&#xe01b;" horiz-adv-x="1024" 
d="M492 1397h-154l156 241h190z" />
    <glyph glyph-name="circumflex.cap" unicode="&#xe01c;" horiz-adv-x="1024" 
d="M786 1397h-153l-119 147h-2l-121 -147h-153l204 262h140z" />
    <glyph glyph-name="caron.cap" unicode="&#xe01d;" horiz-adv-x="1024" 
d="M582 1382h-140l-204 263h153l119 -146h2l121 146h153z" />
    <glyph glyph-name="tilde.cap" unicode="&#xe01f;" horiz-adv-x="1024" 
d="M647 1436q-38 0 -88 26t-95.5 52t-72.5 26q-18 0 -30.5 -5.5t-22.5 -21.5t-15 -26t-15 -38q-3 -9 -5 -13h-119q16 54 30 88.5t36 68t53.5 49t73.5 15.5q39 0 88.5 -26.5t94.5 -52.5t73 -26q8 0 15 1.5t13 3t11 6.5t9 7.5t8.5 10.5t6.5 11.5t6.5 14t6 15t6 17.5t6.5 18
h119q-32 -114 -72 -167.5t-121 -53.5z" />
    <glyph glyph-name="dieresis.cap" unicode="&#xe020;" horiz-adv-x="1024" 
d="M389 1499h-180v158h180v-158zM813 1499h-180v158h180v-158z" />
    <glyph glyph-name="macron.cap" unicode="&#xe021;" horiz-adv-x="1024" 
d="M821 1530h-618v127h618v-127z" />
    <glyph glyph-name="breve.cap" unicode="&#xe022;" horiz-adv-x="1024" 
d="M512 1434q-125 0 -203.5 59t-93.5 164h131q27 -105 166 -105t166 105h131q-15 -105 -93.5 -164t-203.5 -59z" />
    <glyph glyph-name="ring.cap" unicode="&#xe023;" horiz-adv-x="1024" 
d="M737 1581q0 -89 -65 -136.5t-162 -47.5q-98 0 -161.5 47t-63.5 137q0 87 65 133.5t164 46.5q96 0 159.5 -46.5t63.5 -133.5zM623 1581q0 41 -32 65.5t-79 24.5q-49 0 -82 -24.5t-33 -65.5q0 -45 32.5 -69.5t82.5 -24.5q48 0 79.5 24.5t31.5 69.5z" />
    <glyph glyph-name="hungarumlaut.cap" unicode="&#xe024;" horiz-adv-x="1024" 
d="M319 1397h-157l157 241h191zM674 1397h-158l156 241h190z" />
    <glyph glyph-name="dotaccent.cap" unicode="&#xe025;" horiz-adv-x="1024" 
d="M608 1499h-192v158h192v-158z" />
    <glyph glyph-name="hyphen.cap" unicode="&#xe027;" horiz-adv-x="552" 
d="M528 647h-501v164h501v-164z" />
    <glyph glyph-name="exclamdown.cap" unicode="&#xe028;" horiz-adv-x="569" 
d="M383 -139h-197l23 1114h151zM377 1198h-182v199h182v-199z" />
    <glyph glyph-name="guilsinglleft.cap" unicode="&#xe02a;" horiz-adv-x="608" 
d="M524 324h-164l-276 391v12l276 391h164l-264 -397z" />
    <glyph glyph-name="guilsinglright.cap" unicode="&#xe02b;" horiz-adv-x="608" 
d="M248 324h-164l264 397l-264 397h164l276 -391v-12z" />
    <glyph glyph-name="guillemotleft.cap" unicode="&#xe02c;" horiz-adv-x="993" 
d="M524 324h-164l-276 391v12l276 391h164l-264 -397zM909 324h-164l-276 391v12l276 391h164l-264 -397z" />
    <glyph glyph-name="guillemotright.cap" unicode="&#xe02d;" horiz-adv-x="993" 
d="M248 324h-164l264 397l-264 397h164l276 -391v-12zM633 324h-164l264 397l-264 397h164l276 -391v-12z" />
    <glyph glyph-name="endash.cap" unicode="&#xe02e;" 
d="M1085 649h-1065v146h1065v-146z" />
    <glyph glyph-name="emdash.cap" unicode="&#xe02f;" horiz-adv-x="2211" 
d="M2191 649h-2171v146h2171v-146z" />
    <glyph glyph-name="nbspace" unicode="&#xe030;" 
 />
    <glyph glyph-name="periodcentered.cap" unicode="&#xe031;" horiz-adv-x="552" 
d="M375 618h-193v209h193v-209z" />
    <glyph glyph-name="parenleft.cap" unicode="&#xe032;" horiz-adv-x="681" 
d="M649 -188h-174q-155 174 -241.5 396t-86.5 466t86.5 466t241.5 396h174q-155 -174 -241 -395.5t-86 -466.5t86 -466.5t241 -395.5z" />
    <glyph glyph-name="parenright.cap" unicode="&#xe033;" horiz-adv-x="681" 
d="M207 -188h-174q155 174 241 395.5t86 466.5t-86 466.5t-241 395.5h174q156 -173 242 -395t86 -467t-86 -467t-242 -395z" />
    <glyph glyph-name="bracketleft.cap" unicode="&#xe034;" horiz-adv-x="679" 
d="M600 -188h-416v1724h416v-143h-252v-1438h252v-143z" />
    <glyph glyph-name="bracketright.cap" unicode="&#xe035;" horiz-adv-x="679" 
d="M80 1536h416v-1724h-416v143h252v1438h-252v143z" />
    <glyph glyph-name="braceleft.cap" unicode="&#xe036;" horiz-adv-x="702" 
d="M637 -188q-227 0 -321.5 83t-94.5 287v377l-119 111v8l119 110v377q0 204 94.5 287.5t321.5 83.5v-143q-144 0 -198 -55.5t-54 -174.5v-383l-111 -106l111 -107v-383q0 -119 54 -174t198 -55v-143z" />
    <glyph glyph-name="braceright.cap" unicode="&#xe037;" horiz-adv-x="702" 
d="M66 1536q227 0 321 -83t94 -288v-377l119 -110v-8l-119 -111v-377q0 -204 -94 -287t-321 -83v143q144 0 197.5 55t53.5 174v383l111 107l-111 106v383q0 120 -53.5 175t-197.5 55v143z" />
    <glyph glyph-name="at.cap" unicode="&#xe038;" horiz-adv-x="1798" 
d="M905 377q138 0 228 108v480q-86 86 -215 86q-138 0 -219 -88.5t-81 -247.5q0 -158 78 -248t209 -90zM983 -168q-151 0 -284 35.5t-243.5 108t-190 176.5t-123.5 247t-44 314q0 167 41.5 309.5t115 246.5t173.5 177.5t219 110t250 36.5q169 0 314.5 -51.5t255 -149
t172.5 -251t63 -344.5q0 -252 -113.5 -393.5t-322.5 -141.5h-123v74h-2q-117 -107 -279 -107q-180 0 -295.5 130t-115.5 356q0 225 121 354t313 129q154 0 270 -86h2l125 64h10v-789q134 0 203.5 107.5t69.5 291.5q0 138 -34 251t-94 192t-144 133t-182 79t-210 25
q-111 0 -210.5 -31t-182.5 -93.5t-143 -151.5t-93.5 -211t-33.5 -266q0 -178 55 -320t154.5 -235.5t237.5 -143t304 -49.5q167 0 305 44t226 132h8v-159q-89 -69 -238 -109.5t-307 -40.5z" />
    <glyph glyph-name="zero.slash" unicode="&#xe03a;" horiz-adv-x="1200" 
d="M1102 698q0 -155 -26.5 -279.5t-72 -208.5t-109.5 -140.5t-137 -81.5t-157 -25q-158 0 -276 90l-52 -90h-170l119 207q-123 189 -123 528q0 155 26.5 280t72.5 209t110 140.5t137 81.5t156 25q159 0 277 -93l51 93h170l-117 -209q121 -186 121 -527zM915 698
q0 288 -84.5 427t-230.5 139q-145 0 -229 -138.5t-84 -427.5t84 -427t229 -138q146 0 230.5 138.5t84.5 426.5z" />
    <glyph glyph-name="Euro.LT" unicode="&#xe03b;" 
d="M1026 86q-129 -123 -317 -123q-86 0 -158.5 27t-135.5 84.5t-106.5 159t-62.5 239.5h-170v145h157q-2 25 -2 80q0 62 2 93h-157v145h172q38 256 159 377t298 121q191 0 315 -121v-187h-8q-103 150 -281 150q-126 0 -202 -83.5t-105 -256.5h485v-145h-499q-2 -31 -2 -95
q0 -53 2 -78h499v-145h-487q57 -352 311 -352q172 0 285 149h8v-184z" />
    <glyph glyph-name="dollar.LT" unicode="&#xe03c;" 
d="M631 -291h-156v256q-195 15 -313 121v188h8q51 -65 131 -102t174 -45v514q-54 26 -92.5 48t-82 58.5t-70 76.5t-44.5 99t-18 130q0 93 31 169.5t104.5 133t183.5 71.5v261h154v-258q154 -20 272 -117v-185h-8q-108 120 -264 140v-496q55 -25 94 -47t84 -58.5t72.5 -77
t46 -101t18.5 -132.5q0 -150 -84 -254.5t-241 -130.5v-262zM797 344q0 78 -43 129.5t-123 95.5v-434q166 41 166 209zM328 1061q0 -76 41 -126t118 -91v420q-159 -33 -159 -203z" />
    <glyph glyph-name="cent.LT" unicode="&#xe03d;" 
d="M731 -291h-153v258q-212 21 -339.5 173.5t-127.5 412.5q0 256 128.5 411.5t338.5 174.5v258h153v-262q142 -24 250 -111v-199h-8q-88 123 -242 148v-842q149 23 248 150h8v-199q-106 -89 -256 -111v-262zM299 553q0 -172 73 -281t206 -137v836q-132 -25 -205.5 -133
t-73.5 -285z" />
    <glyph glyph-name="sterling.LT" unicode="&#xe03e;" 
d="M969 0h-871v160h221l-51 456h-170v158h152l-12 123q-11 129 -11 145q0 172 113.5 282t306.5 110q93 0 183 -30t159 -87v-199h-6q-59 71 -143.5 111.5t-177.5 40.5q-116 0 -182 -70.5t-66 -183.5q0 -61 8 -135l12 -107h426v-158h-409l53 -456h465v-160z" />
    <glyph glyph-name="florin.LT" unicode="&#xe03f;" 
d="M434 0h-180v616h-168v158h168v234q0 203 113.5 314.5t312.5 111.5q198 0 336 -117v-199h-8q-127 152 -312 152q-128 0 -195 -76t-67 -205v-215h436v-158h-436v-616z" />
    </font>
</defs>
</svg>
