<?xml version="1.0" standalone="no"?>
<!DOCTYPE svg PUBLIC "-//W3C//DTD SVG 1.1//EN" "http://www.w3.org/Graphics/SVG/1.1/DTD/svg11.dtd" >
<svg xmlns="http://www.w3.org/2000/svg" xmlns:xlink="http://www.w3.org/1999/xlink" version="1.1">
<metadata>
Created by FontForge 20201107 at Wed Jan  3 16:14:25 2024
 By 
2010 Copyright Jean Francois Porchez, Typofonderie. All rights reserved. Distributed exclusively by Typofonderie, France. Singulier is an exclusive sanserif typeface available in 6 weights, with Latin, Greek and Cyrillic scripts support designed solely and exclusively for YSL Beaute. This font software may not be reproduced, modified, disclosed or transferred without the express written approval of Jean Francois Porchez, Typofonderie.
</metadata>
<defs>
<font id="Singulier-Demi" horiz-adv-x="1105" >
  <font-face 
    font-family="Singulier Light"
    font-weight="650"
    font-stretch="normal"
    units-per-em="2048"
    panose-1="2 11 6 3 5 6 3 6 2 4"
    ascent="1638"
    descent="-410"
    x-height="1044"
    cap-height="1397"
    bbox="-276 -506 2576 2030"
    underline-thickness="206"
    underline-position="-292"
    unicode-range="U+000D-FB06"
  />
<missing-glyph horiz-adv-x="512" 
 />
    <glyph glyph-name="f_b" unicode="fb" horiz-adv-x="1896" 
d="M1827 522q0 -260 -136.5 -409.5t-353.5 -149.5q-174 0 -309 100h-2l-221 -81h-6v1265q-77 84 -195 84q-78 0 -125 -42.5t-47 -117.5v-127h242v-219h-242v-825h-250v825h-104v11l104 208v152q0 165 97.5 259.5t265.5 94.5q91 0 155 -18.5t119 -58.5h2l221 81h7v-591h2
q134 118 313 118q206 0 334.5 -151.5t128.5 -407.5zM1565 522q0 157 -77.5 246.5t-203.5 89.5q-140 0 -235 -117v-458q41 -43 99.5 -70t125.5 -27q132 0 211.5 88.5t79.5 247.5z" />
    <glyph glyph-name="f_f_b" unicode="ffb" horiz-adv-x="2512" 
d="M2443 522q0 -260 -136 -409.5t-353 -149.5q-174 0 -309 100h-3l-221 -81h-6v1265q-77 84 -194 84q-79 0 -125.5 -42t-46.5 -118v-127h241v-219h-241v-825h-250v825h-367v-825h-250v825h-104v11l104 208v152q0 165 102.5 259.5t293.5 94.5q197 0 335 -84q94 84 248 84
q170 0 275 -77h2l221 81h6v-591h2q134 118 313 118q206 0 334.5 -151.5t128.5 -407.5zM2181 522q0 157 -77.5 246.5t-202.5 89.5q-141 0 -236 -117v-458q41 -43 99.5 -70t125.5 -27q132 0 211.5 88.5t79.5 247.5zM799 1044v152q0 56 14 88q-75 57 -199 57q-88 0 -135 -42.5
t-47 -127.5v-127h367z" />
    <glyph glyph-name="f_h" unicode="fh" horiz-adv-x="1904" 
d="M1735 0h-250v627q0 114 -58 172.5t-153 58.5q-133 0 -225 -117v-741h-250v1247q-77 84 -195 84q-78 0 -125 -42.5t-47 -117.5v-127h242v-219h-242v-825h-250v825h-104v11l104 208v152q0 165 97.5 259.5t265.5 94.5q91 0 155 -18.5t119 -58.5h2l221 81h7v-591h2
q131 118 305 118q163 0 271 -96t108 -278v-707z" />
    <glyph glyph-name="f_f_h" unicode="ffh" horiz-adv-x="2521" 
d="M2351 0h-250v627q0 114 -58 172.5t-153 58.5q-133 0 -225 -117v-741h-250v1247q-77 84 -194 84q-79 0 -125.5 -42t-46.5 -118v-127h241v-219h-241v-825h-250v825h-367v-825h-250v825h-104v11l104 208v152q0 165 102.5 259.5t293.5 94.5q197 0 335 -84q94 84 248 84
q170 0 275 -77h2l221 81h6v-591h2q131 118 305 118q163 0 271 -96t108 -278v-707zM799 1044v152q0 53 14 88q-75 57 -199 57q-88 0 -135 -42.5t-47 -127.5v-127h367z" />
    <glyph glyph-name="f_j" unicode="fj" horiz-adv-x="1212" 
d="M719 -395q-132 0 -215 51v235h6q67 -67 147 -67q142 0 142 160v841h-367v-825h-250v825h-104v11l104 208v152q0 174 121.5 264t351.5 90q233 0 398 -82v-241h-9q-56 50 -149 77t-193 27q-140 0 -205 -42.5t-65 -127.5v-117h617v-1077q0 -178 -88 -270t-242 -92z" />
    <glyph glyph-name="f_f_j" unicode="ffj" horiz-adv-x="1828" 
d="M1335 -395q-132 0 -215 51v235h6q29 -31 70 -49t80 -18q139 0 139 162v839h-366v-825h-250v825h-367v-825h-250v825h-104v11l104 208v152q0 165 102.5 259.5t293.5 94.5q208 0 350 -90q119 90 344 90q232 0 397 -82v-241h-8q-56 50 -149 77t-193 27q-140 0 -205 -42.5
t-65 -127.5v-117h616v-1069q0 -184 -88 -277t-242 -93zM799 1044v152q0 53 14 88q-75 57 -199 57q-88 0 -135 -42.5t-47 -127.5v-127h367z" />
    <glyph glyph-name="f_k" unicode="fk" horiz-adv-x="1773" 
d="M1049 0h-250v1247q-77 84 -195 84q-78 0 -125 -42.5t-47 -117.5v-127h242v-219h-242v-825h-250v825h-104v11l104 208v152q0 165 97.5 259.5t265.5 94.5q91 0 155 -18.5t119 -58.5h2l221 81h7v-1554zM1743 0h-301l-373 524v8l356 512h291l-362 -509v-5z" />
    <glyph glyph-name="f_f_k" unicode="ffk" horiz-adv-x="2390" 
d="M1665 0h-250v1247q-77 84 -194 84q-79 0 -125.5 -42t-46.5 -118v-127h241v-219h-241v-825h-250v825h-367v-825h-250v825h-104v11l104 208v152q0 165 102.5 259.5t293.5 94.5q197 0 335 -84q94 84 248 84q170 0 275 -77h2l221 81h6v-1554zM2359 0h-301l-372 524v8l356 512
h291l-365 -509v-5zM799 1044v152q0 53 14 88q-75 57 -199 57q-88 0 -135 -42.5t-47 -127.5v-127h367z" />
    <glyph glyph-name="f_t" unicode="ft" horiz-adv-x="1341" 
d="M1049 0h-250v825h-367v-825h-250v825h-104v11l104 208v152q0 164 84.5 259t239.5 95q117 0 201 -51v-229h-7q-59 59 -139 59q-66 0 -97.5 -43.5t-31.5 -116.5v-125h367v312h250v-312h241v-219h-241v-825z" />
    <glyph glyph-name="f_f_t" unicode="fft" horiz-adv-x="1957" 
d="M1665 0h-250v825h-366v-825h-250v825h-367v-825h-250v825h-104v11l104 208v152q0 165 102.5 259.5t293.5 94.5q189 0 327 -80q83 80 215 80q119 0 203 -51v-229h-6q-62 59 -139 59q-66 0 -97.5 -43.5t-31.5 -116.5v-125h366v312h250v-312h242v-219h-242v-825zM799 1044
v152q0 48 12 92q-79 53 -197 53q-88 0 -135 -42.5t-47 -127.5v-127h367z" />
    <glyph glyph-name="f_f" unicode="ff" horiz-adv-x="1273" 
d="M1049 0h-250v825h-367v-825h-250v825h-104v11l104 208v152q0 165 102.5 259.5t293.5 94.5q196 0 327 -82q85 82 225 82q126 0 213 -51v-235h-8q-64 67 -147 67q-71 0 -105 -43t-34 -117v-127h241v-219h-241v-825zM799 1044v152q0 52 12 92q-71 53 -197 53
q-88 0 -135 -42.5t-47 -127.5v-127h367z" />
    <glyph glyph-name="fi" unicode="fi" horiz-adv-x="1212" 
d="M1049 0h-250v825h-367v-825h-250v825h-104v11l104 208v152q0 174 121.5 264t351.5 90q233 0 398 -82v-241h-9q-56 50 -149 77t-193 27q-140 0 -205 -42.5t-65 -127.5v-117h617v-1044z" />
    <glyph glyph-name="fl" unicode="fl" horiz-adv-x="1212" 
d="M1049 0h-250v1247q-77 84 -195 84q-78 0 -125 -42.5t-47 -117.5v-127h242v-219h-242v-825h-250v825h-104v11l104 208v152q0 165 97.5 259.5t265.5 94.5q91 0 155 -18.5t119 -58.5h2l221 81h7v-1554z" />
    <glyph glyph-name="f_f_i" unicode="ffi" horiz-adv-x="1828" 
d="M1665 0h-250v825h-366v-825h-250v825h-367v-825h-250v825h-104v11l104 208v152q0 165 102.5 259.5t293.5 94.5q208 0 350 -90q119 90 344 90q232 0 397 -82v-241h-8q-56 50 -149 77t-193 27q-140 0 -205 -42.5t-65 -127.5v-117h616v-1044zM799 1044v152q0 53 14 88
q-75 57 -199 57q-88 0 -135 -42.5t-47 -127.5v-127h367z" />
    <glyph glyph-name="f_f_l" unicode="ffl" horiz-adv-x="1828" 
d="M1665 0h-250v1247q-77 84 -194 84q-79 0 -125.5 -42t-46.5 -118v-127h241v-219h-241v-825h-250v825h-367v-825h-250v825h-104v11l104 208v152q0 165 102.5 259.5t293.5 94.5q197 0 335 -84q94 84 248 84q170 0 275 -77h2l221 81h6v-1554zM799 1044v152q0 53 14 88
q-75 57 -199 57q-88 0 -135 -42.5t-47 -127.5v-127h367z" />
    <glyph glyph-name=".notdef" horiz-adv-x="512" 
 />
    <glyph glyph-name=".null" horiz-adv-x="0" 
 />
    <glyph glyph-name=".null" horiz-adv-x="0" 
 />
    <glyph glyph-name="nonmarkingreturn" horiz-adv-x="682" 
 />
    <glyph glyph-name="CR" unicode="&#xd;" horiz-adv-x="0" 
 />
    <glyph glyph-name="space" unicode=" " horiz-adv-x="552" 
 />
    <glyph glyph-name="space" unicode="&#xa0;" horiz-adv-x="552" 
 />
    <glyph glyph-name="exclam" unicode="!" horiz-adv-x="604" 
d="M410 446h-215l-29 1090h272zM424 0h-246v254h246v-254z" />
    <glyph glyph-name="quotedbl" unicode="&#x22;" horiz-adv-x="942" 
d="M387 846h-215l-6 551h227zM768 846h-215l-6 551h227z" />
    <glyph glyph-name="numbersign" unicode="#" horiz-adv-x="1122" 
d="M799 406l-49 -406h-175l50 406h-201l-49 -406h-176l47 406h-187v153h205l35 281h-190v153h208l50 404h174l-49 -404h202l49 404h175l-48 -404h193v-153h-211l-35 -281h197v-153h-215zM641 559l35 281h-201l-35 -281h201z" />
    <glyph glyph-name="dollar" unicode="$" horiz-adv-x="1038" 
d="M621 -291h-220v258q-179 17 -307 109v254h8q101 -115 299 -140v424q-66 30 -113.5 61t-93.5 79.5t-70 118t-24 157.5q0 70 17.5 132t53.5 116t99.5 92t149.5 53v265h219v-263q141 -19 264 -104v-246h-8q-107 104 -256 127v-403q53 -25 92 -48t81.5 -59.5t69.5 -78.5
t44.5 -102t17.5 -132q0 -153 -82.5 -262t-240.5 -140v-268zM725 362q0 89 -104 152v-307q104 40 104 155zM322 1042q0 -85 98 -143v293q-98 -36 -98 -150z" />
    <glyph glyph-name="percent" unicode="%" horiz-adv-x="1783" 
d="M713 944q0 -125 -27.5 -219.5t-76 -150t-109 -82.5t-131.5 -27t-131.5 27t-109 82.5t-76 150t-27.5 219.5t27.5 219.5t76 149.5t108.5 81.5t132 26.5t132 -26.5t108.5 -81.5t76 -149.5t27.5 -219.5zM522 944q0 305 -153 305q-72 0 -112 -69t-40 -236q0 -309 152 -309
q153 0 153 309zM1757 455q0 -125 -27.5 -219.5t-76 -150t-109 -83t-131.5 -27.5t-131.5 27.5t-109 83t-76 150t-27.5 219.5t27.5 219.5t76 149.5t108.5 81.5t132 26.5t132 -26.5t108.5 -81.5t76 -149.5t27.5 -219.5zM1567 455q0 305 -154 305q-72 0 -111.5 -69t-39.5 -236
q0 -310 151 -310q154 0 154 310zM631 0h-199l721 1397h199z" />
    <glyph glyph-name="ampersand" unicode="&#x26;" horiz-adv-x="1497" 
d="M676 -37q-287 0 -439.5 108.5t-152.5 311.5q0 138 77.5 233.5t213.5 137.5v2q-199 99 -199 313q0 161 119 263t334 102q192 0 338 -86v-254h-9q-116 116 -290 116q-101 0 -162.5 -49t-61.5 -133q0 -79 54 -129.5t143 -50.5h59v-221h-168q-89 -26 -135.5 -81.5
t-46.5 -133.5q0 -228 328 -228q323 0 323 230q0 78 -44.5 133t-125.5 80v6l66 215h516v-221h-272v-2q127 -108 127 -256q0 -196 -152 -301t-440 -105z" />
    <glyph glyph-name="quotesingle" unicode="'" horiz-adv-x="552" 
d="M383 846h-215l-6 551h227z" />
    <glyph glyph-name="parenleft" unicode="(" horiz-adv-x="722" 
d="M698 -291h-241q-154 174 -239 395.5t-85 466.5t85 467t239 396h241q-152 -174 -236.5 -396t-84.5 -467t84.5 -466.5t236.5 -395.5z" />
    <glyph glyph-name="parenright" unicode=")" horiz-adv-x="722" 
d="M268 -291h-243q153 173 237 395t84 467q0 246 -84 468t-237 395h243q152 -174 237 -396.5t85 -466.5t-85 -466t-237 -396z" />
    <glyph glyph-name="asterisk" unicode="*" horiz-adv-x="1122" 
d="M918 578l-148 -119l-209 278l-209 -278l-147 119l209 278l-338 123l65 178l326 -121v361h188v-361l326 121l66 -178l-340 -123z" />
    <glyph glyph-name="plus" unicode="+" 
d="M649 111h-192v372h-359v187h359v374h190v-374h361v-187h-359v-372z" />
    <glyph glyph-name="comma" unicode="," horiz-adv-x="552" 
d="M272 -283h-229l156 551h233v-10z" />
    <glyph glyph-name="hyphen" unicode="-" horiz-adv-x="552" 
d="M537 432h-521v232h521v-232z" />
    <glyph glyph-name="period" unicode="." horiz-adv-x="552" 
d="M406 0h-259v268h259v-268z" />
    <glyph glyph-name="slash" unicode="/" horiz-adv-x="827" 
d="M236 0h-234l590 1397h233z" />
    <glyph glyph-name="zero" unicode="0" horiz-adv-x="1245" 
d="M1155 698q0 -155 -28 -279.5t-76.5 -208.5t-116.5 -140.5t-145.5 -81.5t-165.5 -25q-112 0 -206 41.5t-168.5 127t-116.5 230t-42 336.5q0 155 28 280t76.5 209t117 140.5t146 81.5t165.5 25q89 0 166.5 -25t145.5 -81.5t116 -141t76 -209t28 -279.5zM893 698
q0 500 -270 500q-269 0 -269 -500q0 -499 269 -499q270 0 270 499z" />
    <glyph glyph-name="one" unicode="1" horiz-adv-x="829" 
d="M649 0h-258v1130l-313 -94h-6v244l571 154h6v-1434z" />
    <glyph glyph-name="two" unicode="2" horiz-adv-x="1122" 
d="M1067 0h-985v178q228 191 352.5 325.5t172.5 235t48 209.5q0 122 -63 191t-166 69q-88 0 -168.5 -42t-140.5 -115h-6v268q161 115 364 115q130 0 232 -51t163.5 -156t61.5 -250q0 -116 -27.5 -211.5t-103 -195.5t-129.5 -157t-183 -180l-10 -10v-2h588v-221z" />
    <glyph glyph-name="three" unicode="3" horiz-adv-x="1091" 
d="M1004 356q0 -186 -132 -289.5t-350 -103.5q-232 0 -397 107v266h6q63 -69 160.5 -109.5t187.5 -40.5q116 0 187 52.5t71 154.5q0 90 -67 141.5t-189 51.5h-198v221h215q155 58 155 201q0 94 -61.5 147t-163.5 53q-82 0 -157 -39t-132 -108h-6v268q160 105 354 105
q192 0 314.5 -103.5t122.5 -279.5q0 -217 -195 -330v-2q120 -30 197.5 -123.5t77.5 -239.5z" />
    <glyph glyph-name="four" unicode="4" horiz-adv-x="1122" 
d="M1092 291h-189v-291h-258v291h-608v201l670 942h196v-922h189v-221zM651 512v520h-2l-360 -518v-2h362z" />
    <glyph glyph-name="five" unicode="5" horiz-adv-x="1071" 
d="M989 424q0 -219 -137.5 -340t-355.5 -121q-229 0 -385 105v266h8q62 -70 154.5 -110t185.5 -40q119 0 192.5 61t73.5 177q0 111 -80 175.5t-225 64.5t-277 -66h-6l125 801h680v-226h-493l-54 -315q82 16 160 16q191 0 312.5 -123.5t121.5 -324.5z" />
    <glyph glyph-name="six" unicode="6" horiz-adv-x="1175" 
d="M1096 416q0 -109 -39 -196.5t-107.5 -143t-160 -84.5t-199.5 -29q-230 0 -369 120t-139 333q0 148 82 276l450 705h308v-4l-363 -557l2 -2q61 14 113 14q175 0 298.5 -120.5t123.5 -311.5zM829 416q0 110 -63 176.5t-176 66.5q-111 0 -177.5 -61.5t-66.5 -181.5
q0 -111 62.5 -177.5t177.5 -66.5q109 0 176 62t67 182z" />
    <glyph glyph-name="seven" unicode="7" horiz-adv-x="1122" 
d="M434 2h-280v4l563 1151v2h-651v240h1024v-17z" />
    <glyph glyph-name="eight" unicode="8" horiz-adv-x="1153" 
d="M1073 385q0 -198 -135 -310t-360 -112q-227 0 -362.5 112t-135.5 310q0 127 61 219t170 139v2q-88 43 -135 122t-47 188q0 178 122.5 278.5t326.5 100.5q203 0 324.5 -100.5t121.5 -278.5q0 -107 -47.5 -186t-134.5 -124v-2q109 -45 170 -137.5t61 -220.5zM807 393
q0 101 -60 161t-169 60q-111 0 -172.5 -60t-61.5 -161q0 -102 61 -161.5t173 -59.5q107 0 168 60t61 161zM780 1032q0 88 -53 140.5t-149 52.5q-97 0 -152 -52.5t-55 -140.5t54.5 -142t152.5 -54q95 0 148.5 54t53.5 142z" />
    <glyph glyph-name="nine" unicode="9" horiz-adv-x="1175" 
d="M561 0h-307v4l362 557v2q-49 -14 -112 -14q-177 0 -299.5 119.5t-122.5 312.5q0 110 38.5 196.5t107 142.5t160 85t200.5 29q229 0 368.5 -120t139.5 -333q0 -85 -26.5 -157.5t-100.5 -188.5zM831 981q0 111 -63 177.5t-176 66.5q-111 0 -178.5 -62t-67.5 -182
q0 -110 63.5 -177t176.5 -67q111 0 178 62t67 182z" />
    <glyph glyph-name="colon" unicode=":" horiz-adv-x="552" 
d="M406 0h-259v268h259v-268zM406 776h-259v268h259v-268z" />
    <glyph glyph-name="semicolon" unicode=";" horiz-adv-x="552" 
d="M406 776h-259v268h259v-268zM252 -283h-229l155 551h234v-10z" />
    <glyph glyph-name="less" unicode="&#x3c;" 
d="M1006 145l-906 338v185l906 342v-215l-635 -215v-5l635 -217v-213z" />
    <glyph glyph-name="equal" unicode="=" 
d="M1008 268h-910v185h910v-185zM1008 705h-910v186h910v-186z" />
    <glyph glyph-name="greater" unicode="&#x3e;" 
d="M1006 483l-906 -338v213l635 217v5l-635 215v215l906 -342v-185z" />
    <glyph glyph-name="question" unicode="?" horiz-adv-x="1038" 
d="M569 446h-213l-6 228q79 77 125.5 127.5t88 108t59.5 109t18 107.5q0 102 -62 151.5t-155 49.5q-92 0 -181 -36t-153 -101h-8v250q162 110 393 110q198 0 318 -98.5t120 -273.5q0 -78 -22.5 -149t-71 -142t-103.5 -132t-141 -145zM586 0h-246v254h246v-254z" />
    <glyph glyph-name="at" unicode="@" horiz-adv-x="1824" 
d="M918 281q115 0 190 92v383q-75 75 -182 75q-109 0 -174.5 -72.5t-65.5 -203.5q0 -130 63 -202t169 -72zM999 -328q-200 0 -367 58.5t-288 168t-188.5 277.5t-67.5 377q0 204 63 371t173.5 278t261 171.5t325.5 60.5q174 0 324 -52t262.5 -149t177 -248.5t64.5 -339.5
q0 -257 -117.5 -396.5t-333.5 -139.5h-166v69h-2q-113 -102 -268 -102q-175 0 -286 130t-111 349q0 223 116.5 351t302.5 128q152 0 267 -86h2l176 68h10v-737q107 0 166 94.5t59 257.5q0 127 -31 231t-87.5 178t-136 124.5t-175 75t-206.5 24.5q-138 0 -255 -47.5
t-203.5 -136.5t-135 -224.5t-48.5 -302.5q0 -331 198 -515.5t536 -184.5q357 0 546 163h9v-206q-98 -64 -251 -101t-315 -37z" />
    <glyph glyph-name="A" unicode="A" horiz-adv-x="1404" 
d="M1378 0h-291l-131 358h-518l-131 -358h-280l559 1434h231zM870 592l-172 475h-2l-174 -475h348z" />
    <glyph glyph-name="B" unicode="B" horiz-adv-x="1290" 
d="M1176 377q0 -377 -502 -377h-484v1397h465q200 0 320.5 -94t120.5 -263q0 -108 -51.5 -190t-135.5 -133v-2q51 -13 96.5 -40t85 -67.5t62.5 -100.5t23 -130zM907 418q0 83 -62.5 128.5t-170.5 45.5h-219v-363h204q248 0 248 189zM825 995q0 78 -57.5 125t-155.5 47h-157
v-354h217q81 27 117 71.5t36 110.5z" />
    <glyph glyph-name="C" unicode="C" horiz-adv-x="1253" 
d="M1149 406v-306q-180 -137 -426 -137q-135 0 -250.5 49t-201 140.5t-134.5 232t-49 313.5q0 337 173.5 536.5t453.5 199.5q255 0 426 -138v-305h-8q-67 92 -164.5 142.5t-206.5 50.5q-183 0 -290 -131.5t-107 -354.5q0 -222 109 -353.5t296 -131.5q109 0 207.5 51.5
t163.5 141.5h8z" />
    <glyph glyph-name="D" unicode="D" horiz-adv-x="1474" 
d="M1386 698q0 -138 -37 -253t-102.5 -196.5t-155.5 -138t-195 -83.5t-222 -27h-484v1397h484q146 0 273 -44t226 -128t156 -220t57 -307zM1118 698q0 146 -60 249.5t-160 152.5t-230 49h-213v-901h213q130 0 229.5 48t160 151.5t60.5 250.5z" />
    <glyph glyph-name="E" unicode="E" horiz-adv-x="1124" 
d="M999 0h-809v1397h756v-248h-491v-309h471v-252h-471v-340h544v-248z" />
    <glyph glyph-name="F" unicode="F" horiz-adv-x="1038" 
d="M455 0h-265v1397h756v-248h-491v-371h471v-248h-471v-530z" />
    <glyph glyph-name="G" unicode="G" horiz-adv-x="1449" 
d="M748 -37q-141 0 -261.5 49t-209 141t-139 232t-50.5 313q0 223 86.5 390.5t242 256.5t357.5 89q266 0 477 -144v-299h-8q-179 195 -434 195q-205 0 -324.5 -131.5t-119.5 -364.5q0 -241 107 -366t273 -125q147 0 240 79t100 248h-405v11l94 237h584q4 -54 4 -129
q0 -174 -47 -307t-131.5 -213.5t-194 -121t-241.5 -40.5z" />
    <glyph glyph-name="H" unicode="H" horiz-adv-x="1556" 
d="M1366 0h-264v598h-647v-598h-265v1397h265v-551h647v551h264v-1397z" />
    <glyph glyph-name="I" unicode="I" horiz-adv-x="645" 
d="M455 0h-265v1397h265v-1397z" />
    <glyph glyph-name="J" unicode="J" horiz-adv-x="897" 
d="M342 -37q-134 0 -229 64v280h8q34 -46 79 -70t91 -24q88 0 130 51.5t42 157.5v725h-365v10l97 240h530v-1024q0 -189 -93 -299.5t-290 -110.5z" />
    <glyph glyph-name="K" unicode="K" horiz-adv-x="1314" 
d="M455 0h-265v1397h265v-1397zM1274 0h-320l-473 702v11l453 684h313l-461 -682v-4z" />
    <glyph glyph-name="L" unicode="L" horiz-adv-x="1030" 
d="M958 0h-768v1397h265v-1149h503v-248z" />
    <glyph glyph-name="M" unicode="M" horiz-adv-x="1804" 
d="M1653 0h-267l-71 782h-2l-402 -819h-18l-406 821h-2l-67 -784h-266l122 1415h211l416 -903h2l416 903h211z" />
    <glyph glyph-name="N" unicode="N" horiz-adv-x="1566" 
d="M1376 -18h-213l-706 897h-2v-879h-265v1296l-63 88v13h274l709 -914h2v914h264v-1415z" />
    <glyph glyph-name="O" unicode="O" horiz-adv-x="1538" 
d="M1450 698q0 -171 -52 -310.5t-144 -232t-217 -142.5t-271 -50q-141 0 -264 49.5t-215.5 141.5t-145.5 232t-53 312q0 171 52.5 310.5t144.5 232.5t217.5 143t271.5 50q141 0 264 -50t214.5 -142t144.5 -232.5t53 -311.5zM1176 698q0 230 -113 360t-289 130
q-178 0 -293.5 -128t-115.5 -362q0 -230 112.5 -360.5t288.5 -130.5q178 0 294 128.5t116 362.5z" />
    <glyph glyph-name="P" unicode="P" horiz-adv-x="1245" 
d="M1147 958q0 -235 -164.5 -369t-527.5 -165v-424h-265v1397h457q142 0 253.5 -48t179 -149t67.5 -242zM879 936q0 103 -69.5 160t-184.5 57h-170v-485q223 10 323.5 82.5t100.5 185.5z" />
    <glyph glyph-name="Q" unicode="Q" horiz-adv-x="1538" 
d="M1450 698q0 -286 -139 -471.5t-365 -238.5l326 -383h-307l-291 366q-123 14 -229 69t-186 145t-125.5 222t-45.5 291q0 171 52.5 310.5t144.5 232.5t217.5 143t271.5 50q141 0 264 -50t214.5 -142t144.5 -232.5t53 -311.5zM1176 698q0 230 -113 360t-289 130
q-178 0 -293.5 -128t-115.5 -362q0 -230 112.5 -359.5t288.5 -129.5q86 0 160 31.5t130 91t88 154t32 212.5z" />
    <glyph glyph-name="R" unicode="R" horiz-adv-x="1337" 
d="M1286 0h-323l-482 653v11q226 35 317 102t91 176q0 98 -71 154.5t-200 56.5h-163v-1153h-265v1397h474q224 0 358.5 -108.5t134.5 -311.5q0 -156 -67.5 -260.5t-215.5 -169.5v-4z" />
    <glyph glyph-name="S" unicode="S" horiz-adv-x="1122" 
d="M1018 379q0 -181 -126 -298.5t-345 -117.5q-250 0 -412 125v283h6q71 -83 176 -128.5t209 -45.5q109 0 168.5 40.5t59.5 120.5q0 56 -34 98t-88 70.5t-119 56t-130.5 62.5t-119.5 81t-88 121t-34 173q0 82 25.5 154t77.5 131.5t140.5 94t203.5 34.5q106 0 206.5 -32
t174.5 -93v-283h-6q-68 85 -162.5 129.5t-190.5 44.5q-98 0 -150 -41t-52 -112q0 -55 33.5 -97.5t87.5 -71t119 -56t130 -63t119 -82t87.5 -123t33.5 -175.5z" />
    <glyph glyph-name="T" unicode="T" horiz-adv-x="1142" 
d="M705 -2h-265v1149h-379v248h1020v-248h-376v-1149z" />
    <glyph glyph-name="U" unicode="U" horiz-adv-x="1370" 
d="M686 -37q-240 0 -378 123t-138 352v959h264v-930q0 -128 64 -192t182 -64q117 0 181.5 64t64.5 192v930h274v-959q0 -229 -137.5 -352t-376.5 -123z" />
    <glyph glyph-name="V" unicode="V" horiz-adv-x="1353" 
d="M784 -37h-213l-551 1434h293l369 -1032h2l367 1032h282z" />
    <glyph glyph-name="W" unicode="W" horiz-adv-x="2021" 
d="M1487 -37h-213l-262 742h-2l-262 -742h-213l-498 1434h289l331 -957h2l226 645l-103 312h279l319 -957h2l324 957h279z" />
    <glyph glyph-name="X" unicode="X" horiz-adv-x="1417" 
d="M1354 0h-318l-334 510h-2l-303 -510h-311l426 711l-451 686h316l323 -500h2l306 500h311l-426 -690z" />
    <glyph glyph-name="Y" unicode="Y" horiz-adv-x="1282" 
d="M774 0h-264v553l-494 844h316l307 -572h2l317 572h308l-492 -844v-553z" />
    <glyph glyph-name="Z" unicode="Z" horiz-adv-x="1339" 
d="M1229 0h-1125v16l629 1131v2h-581v248h1032v-17l-631 -1130v-2h676v-248z" />
    <glyph glyph-name="bracketleft" unicode="[" horiz-adv-x="720" 
d="M643 -291h-471v1725h471v-203h-242v-1319h242v-203z" />
    <glyph glyph-name="backslash" unicode="\" horiz-adv-x="827" 
d="M825 0h-233l-590 1397h234z" />
    <glyph glyph-name="bracketright" unicode="]" horiz-adv-x="720" 
d="M78 1434h471v-1725h-471v203h241v1319h-241v203z" />
    <glyph glyph-name="asciicircum" unicode="^" 
d="M985 399h-219l-211 605h-4l-215 -605h-215l340 848h184z" />
    <glyph glyph-name="underscore" unicode="_" 
d="M1085 -395h-1065v207h1065v-207z" />
    <glyph glyph-name="grave" unicode="`" horiz-adv-x="1024" 
d="M760 1151h-217l-279 385h260z" />
    <glyph glyph-name="grave" unicode="&#x300;" horiz-adv-x="1024" 
d="M760 1151h-217l-279 385h260z" />
    <glyph glyph-name="grave" unicode="&#x2cb;" horiz-adv-x="1024" 
d="M760 1151h-217l-279 385h260z" />
    <glyph glyph-name="a" unicode="a" horiz-adv-x="1161" 
d="M1010 0h-244v78h-2q-128 -115 -303 -115q-151 0 -251.5 90t-100.5 244q0 156 102.5 249t286.5 93q150 0 262 -64v74q0 109 -72 161t-192 52q-90 0 -174.5 -39.5t-143.5 -101.5h-6v250q157 110 375 110q100 0 182.5 -25t146 -76t99 -135.5t35.5 -195.5v-649zM760 276v105
q-86 53 -215 53q-189 0 -189 -125q0 -57 48.5 -95t136.5 -38q136 0 219 100z" />
    <glyph glyph-name="b" unicode="b" horiz-adv-x="1267" 
d="M1194 522q0 -260 -136 -409.5t-353 -149.5q-175 0 -310 100h-2l-221 -81h-6v1554h250v-573h2q134 118 313 118q204 0 333.5 -151.5t129.5 -407.5zM930 522q0 157 -77 246.5t-202 89.5q-140 0 -235 -117v-458q41 -43 99.5 -70t125.5 -27q132 0 210.5 88t78.5 248z" />
    <glyph glyph-name="c" unicode="c" horiz-adv-x="966" 
d="M883 334v-266q-134 -105 -324 -105q-102 0 -190.5 37.5t-155 106.5t-105 176t-38.5 239q0 255 135 407t350 152q200 0 322 -102v-266h-7q-47 65 -121 106t-153 41q-120 0 -192 -94t-72 -246t77.5 -245t208.5 -93q75 0 145 42.5t114 109.5h6z" />
    <glyph glyph-name="d" unicode="d" horiz-adv-x="1267" 
d="M1104 0h-248v82h-2q-138 -119 -317 -119q-204 0 -333.5 151.5t-129.5 407.5q0 259 136.5 409t352.5 150q166 0 289 -84h2v539h250v-1536zM854 303v457q-94 98 -227 98q-132 0 -210.5 -88t-78.5 -248q0 -158 76 -247t202 -89q143 0 238 117z" />
    <glyph glyph-name="e" unicode="e" horiz-adv-x="1153" 
d="M1016 72q-153 -109 -387 -109q-249 0 -404 149t-155 410q0 257 138 408t370 151q101 0 190 -35t155 -98.5t104 -157.5t38 -206q0 -49 -4 -119h-727q12 -136 103.5 -210.5t242.5 -74.5q96 0 183 38t147 99h6v-245zM803 670q-5 84 -67 138t-158 54q-101 0 -165 -49.5
t-79 -142.5h469z" />
    <glyph glyph-name="f" unicode="f" horiz-adv-x="724" 
d="M432 0h-250v825h-104v11l104 208v152q0 164 86 259t246 95q126 0 213 -51v-235h-6q-67 67 -150 67q-70 0 -104.5 -43.5t-34.5 -116.5v-127h242v-219h-242v-825z" />
    <glyph glyph-name="g" unicode="g" horiz-adv-x="1243" 
d="M838 322v450q-40 40 -95.5 63t-113.5 23q-130 0 -208.5 -84.5t-78.5 -232.5q0 -146 77 -232t199 -86q134 0 220 99zM608 -403q-110 0 -216 27t-181 83v246h8q136 -139 354 -139q130 0 197.5 63.5t67.5 163.5v74h-2q-127 -115 -312 -115q-93 0 -174 35t-143 101.5
t-97.5 170.5t-35.5 234q0 256 134 398t347 142q169 0 305 -102h2l219 82h6v-1002q0 -222 -130.5 -342t-348.5 -120z" />
    <glyph glyph-name="h" unicode="h" horiz-adv-x="1257" 
d="M1102 0h-250v627q0 114 -58 172.5t-153 58.5q-133 0 -225 -117v-741h-250v1536h250v-573h2q131 118 305 118q163 0 271 -96t108 -278v-707z" />
    <glyph glyph-name="i" unicode="i" horiz-adv-x="579" 
d="M416 0h-250v1044h250v-1044zM424 1315h-266v221h266v-221z" />
    <glyph glyph-name="j" unicode="j" horiz-adv-x="579" 
d="M86 -395q-132 0 -215 51v235h6q64 -67 150 -67q67 0 103 40.5t36 119.5v1060h250v-1069q0 -184 -88 -277t-242 -93zM424 1315h-266v221h266v-221z" />
    <glyph glyph-name="k" unicode="k" horiz-adv-x="1140" 
d="M416 0h-250v1536h250v-1536zM1110 0h-301l-373 524v8l357 512h292l-364 -512v-4z" />
    <glyph glyph-name="l" unicode="l" horiz-adv-x="579" 
d="M416 0h-250v1536h250v-1536z" />
    <glyph glyph-name="m" unicode="m" horiz-adv-x="1943" 
d="M1788 0h-250v627q0 114 -58 172.5t-153 58.5q-139 0 -235 -131q10 -48 10 -96v-631h-250v627q0 114 -58 172.5t-153 58.5q-133 0 -225 -117v-741h-250v1044h248v-83h2q133 120 309 120q103 0 187 -41t132 -122h5q89 86 175 124.5t189 38.5t186 -39t136 -125.5t53 -209.5
v-707z" />
    <glyph glyph-name="n" unicode="n" horiz-adv-x="1282" 
d="M1126 0h-249v627q0 114 -61.5 172.5t-162.5 58.5q-142 0 -237 -117v-741h-250v1044h248v-83h2q133 120 317 120q82 0 152 -23t124.5 -67.5t85.5 -117.5t31 -166v-707z" />
    <glyph glyph-name="o" unicode="o" horiz-adv-x="1224" 
d="M893 522q0 157 -76.5 248.5t-202.5 91.5q-127 0 -204.5 -90t-77.5 -250q0 -158 76 -249t202 -91q128 0 205.5 89.5t77.5 250.5zM1157 522q0 -257 -152 -408t-395 -151q-156 0 -277.5 66t-192 194t-70.5 299q0 257 150.5 408t393.5 151q239 0 391 -151t152 -408z" />
    <glyph glyph-name="p" unicode="p" horiz-adv-x="1267" 
d="M1194 522q0 -260 -136 -409.5t-353 -149.5q-172 0 -287 84h-2v-442h-250v1439h248v-83h2q133 120 315 120q204 0 333.5 -151.5t129.5 -407.5zM930 522q0 157 -77 246.5t-202 89.5q-140 0 -235 -117v-458q41 -43 99.5 -70t125.5 -27q132 0 210.5 88t78.5 248z" />
    <glyph glyph-name="q" unicode="q" horiz-adv-x="1267" 
d="M1104 -395h-250v477h-2q-135 -119 -315 -119q-204 0 -333.5 151.5t-129.5 407.5q0 259 136.5 409t352.5 150q174 0 311 -102h3l221 82h6v-1456zM854 303v457q-94 98 -227 98q-132 0 -210.5 -88t-78.5 -248q0 -158 76 -247t202 -89q143 0 238 117z" />
    <glyph glyph-name="r" unicode="r" horiz-adv-x="831" 
d="M420 0h-250v1044h238v-88h2q132 125 262 125q61 0 108 -20v-248h-6q-61 39 -129 39q-60 0 -112 -27.5t-113 -81.5v-743z" />
    <glyph glyph-name="s" unicode="s" horiz-adv-x="960" 
d="M848 293q0 -153 -99.5 -241.5t-293.5 -88.5q-201 0 -332 92v248h6q56 -63 142 -99t175 -36q74 0 116 28t42 76q0 37 -26.5 65t-68.5 47t-92.5 37.5t-101.5 45t-93 61.5t-68.5 94t-26.5 136q0 149 94 236t271 87q191 0 319 -92v-250h-6q-55 61 -132.5 99.5t-160.5 38.5
q-66 0 -101.5 -29t-35.5 -74q0 -36 26 -63t68 -45.5t92.5 -37t100.5 -44.5t92 -60.5t68 -94t26 -136.5z" />
    <glyph glyph-name="t" unicode="t" horiz-adv-x="724" 
d="M432 0h-250v825h-104v11l104 208v312h250v-312h242v-219h-242v-825z" />
    <glyph glyph-name="u" unicode="u" horiz-adv-x="1239" 
d="M1087 1044v-634q0 -209 -125 -328t-346 -119q-216 0 -340 118.5t-124 328.5v634h249v-626q0 -119 56.5 -177.5t160.5 -58.5q103 0 161.5 59t58.5 177v626h249z" />
    <glyph glyph-name="v" unicode="v" horiz-adv-x="1138" 
d="M662 -37h-187l-455 1081h285l264 -712h2l265 712h280z" />
    <glyph glyph-name="w" unicode="w" horiz-adv-x="1732" 
d="M1298 -37h-165l-265 578h-2l-266 -578h-168l-401 1081h280l226 -624h2l317 661h23l315 -661h2l225 624h279z" />
    <glyph glyph-name="x" unicode="x" horiz-adv-x="1130" 
d="M1106 0h-297l-252 354h-2l-219 -354h-289l338 535l-358 509h295l245 -350h2l222 350h290l-342 -522z" />
    <glyph glyph-name="y" unicode="y" horiz-adv-x="1140" 
d="M567 -395h-274l162 397l-439 1042h285l283 -722h2l245 722h279z" />
    <glyph glyph-name="z" unicode="z" horiz-adv-x="1030" 
d="M958 0h-905v16l465 807v2h-426v219h834v-18l-467 -807v-2h499v-217z" />
    <glyph glyph-name="braceleft" unicode="{" horiz-adv-x="755" 
d="M688 -291q-181 0 -283 41.5t-145 130.5t-43 246v315l-127 125v8l127 125v316q0 157 43 246t145 130.5t283 41.5v-203q-140 0 -191 -52t-51 -167v-320l-116 -121l116 -120v-320q0 -115 51 -167t191 -52v-203z" />
    <glyph glyph-name="bar" unicode="|" horiz-adv-x="552" 
d="M379 -389h-205v2007h205v-2007z" />
    <glyph glyph-name="braceright" unicode="}" horiz-adv-x="755" 
d="M68 1434q181 0 282.5 -41.5t145 -130.5t43.5 -246v-316l127 -125v-8l-127 -125v-315q0 -157 -43.5 -246t-145 -130.5t-282.5 -41.5v203q140 0 190.5 51.5t50.5 167.5v320l117 120l-117 121v320q0 116 -50.5 167.5t-190.5 51.5v203z" />
    <glyph glyph-name="asciitilde" unicode="~" 
d="M991 535q-97 -107 -227 -107q-49 0 -108 19.5t-105.5 43t-103 43t-101.5 19.5q-70 0 -124.5 -31.5t-106.5 -91.5v203q101 104 229 104q49 0 108 -19t105 -42.5t102.5 -42.5t100.5 -19q72 0 126.5 31t104.5 90v-200z" />
    <glyph glyph-name="exclamdown" unicode="&#xa1;" horiz-adv-x="604" 
d="M438 -492h-272l29 1090h215zM426 791h-246v253h246v-253z" />
    <glyph glyph-name="cent" unicode="&#xa2;" horiz-adv-x="1079" 
d="M780 -291h-217v258q-222 21 -351.5 173.5t-129.5 412.5q0 253 130 409.5t351 176.5v258h217v-273q121 -29 203 -90v-268h-8q-75 100 -195 135v-698q117 33 201 137h8v-268q-78 -62 -209 -92v-271zM344 553q0 -141 56.5 -231t162.5 -119v700q-106 -28 -162.5 -117
t-56.5 -233z" />
    <glyph glyph-name="sterling" unicode="&#xa3;" horiz-adv-x="1122" 
d="M1001 0h-913v221h203l-39 357h-164v221h139l-10 102q-8 86 -8 129q0 178 121 291t334 113q97 0 191.5 -28t166.5 -81v-274h-6q-56 69 -145 111t-183 42q-104 0 -160.5 -59.5t-56.5 -155.5q0 -46 8 -112l8 -78h406v-221h-381l39 -357h450v-221z" />
    <glyph glyph-name="currency" unicode="&#xa4;" 
d="M879 582q0 -82 -43 -150l129 -129l-134 -131l-129 127q-68 -43 -149 -43q-78 0 -152 43l-131 -129l-131 131l131 133q-41 71 -41 148q0 76 41 147l-131 133l133 133l131 -131q68 43 150 43q81 0 149 -43l132 133l133 -133l-133 -131q45 -70 45 -151zM711 582
q0 69 -46 118.5t-114 49.5q-67 0 -112.5 -50t-45.5 -118t45.5 -118t112.5 -50q68 0 114 49.5t46 118.5z" />
    <glyph glyph-name="yen" unicode="&#xa5;" horiz-adv-x="1122" 
d="M713 0h-256v291h-369v201h369v116h-369v201h281l-303 588h280l238 -527h2l221 527h268l-282 -588h260v-201h-340v-116h340v-201h-340v-291z" />
    <glyph glyph-name="brokenbar" unicode="&#xa6;" horiz-adv-x="552" 
d="M379 801h-205v817h205v-817zM379 -389h-205v817h205v-817z" />
    <glyph glyph-name="section" unicode="&#xa7;" horiz-adv-x="1122" 
d="M1022 561q0 -133 -64 -221t-172 -127v-2q44 -24 72.5 -47.5t50 -67.5t21.5 -102q0 -144 -100.5 -233t-288.5 -89q-209 0 -338 90v230h6q55 -59 140.5 -92t170.5 -33q78 0 120 32t42 87q0 39 -17 66t-50 43.5t-66.5 27t-82.5 25t-83 30.5q-135 41 -210 138t-75 245
q0 131 63.5 219.5t170.5 128.5v2q-61 34 -95 81.5t-34 125.5q0 143 94.5 229.5t273.5 86.5q189 0 318 -93v-227h-6q-54 58 -133.5 91.5t-155.5 33.5q-71 0 -105 -30.5t-34 -84.5q0 -29 11 -51.5t26 -36.5t44.5 -27.5t51.5 -20.5t62 -18.5t63 -19.5q143 -33 226 -134t83 -255
zM758 561q0 90 -51.5 145.5t-143.5 55.5q-91 0 -146 -51.5t-55 -149.5q0 -91 51.5 -147t143.5 -56q91 0 146 52t55 151z" />
    <glyph glyph-name="dieresis" unicode="&#xa8;" horiz-adv-x="1024" 
d="M410 1315h-246v221h246v-221zM860 1315h-248v221h248v-221z" />
    <glyph glyph-name="dieresis" unicode="&#x308;" horiz-adv-x="1024" 
d="M410 1315h-246v221h246v-221zM860 1315h-248v221h248v-221z" />
    <glyph glyph-name="copyright" unicode="&#xa9;" horiz-adv-x="1601" 
d="M817 258q-167 0 -274 117t-107 323q0 199 104 319t273 120q144 0 254 -78v-193h-4q-38 44 -95.5 70.5t-119.5 26.5q-104 0 -164.5 -71t-60.5 -194t61 -195.5t166 -72.5q63 0 120 25.5t97 68.5h4v-188q-108 -78 -254 -78zM797 -37q-147 0 -275.5 49.5t-225.5 141.5
t-152.5 232t-55.5 312q0 171 55 310.5t151.5 232.5t227.5 143t283 50q147 0 275.5 -50t225 -142t152 -232.5t55.5 -311.5q0 -227 -95 -395.5t-256 -254t-365 -85.5zM793 92q120 0 223 38.5t181 112t122.5 190.5t44.5 265q0 143 -42.5 258.5t-117 191.5t-176 116.5
t-219.5 40.5q-95 0 -180 -23.5t-157 -73t-124 -120.5t-81 -170.5t-29 -219.5q0 -143 42.5 -258.5t117 -191t175.5 -116t220 -40.5z" />
    <glyph glyph-name="ordfeminine" unicode="&#xaa;" horiz-adv-x="770" 
d="M672 604h-178v49q-87 -73 -197 -73q-97 0 -163 59t-66 160t67 162t187 61q90 0 167 -41v49q0 65 -46.5 97t-120.5 32q-59 0 -114 -23t-93 -61h-6v164q109 70 249 70t227 -70.5t87 -216.5v-418zM672 274h-572v166h572v-166zM489 768v96q-57 31 -118 31q-59 0 -91 -23
t-32 -65q0 -40 28.5 -64t83.5 -24q77 0 129 49z" />
    <glyph glyph-name="guillemotleft" unicode="&#xab;" horiz-adv-x="1021" 
d="M561 150h-229l-258 391v12l258 391h229l-246 -397zM948 150h-229l-258 391v12l258 391h229l-246 -397z" />
    <glyph glyph-name="logicalnot" unicode="&#xac;" 
d="M1008 354h-189v346h-721v187h910v-533z" />
    <glyph glyph-name="registered" unicode="&#xae;" horiz-adv-x="1601" 
d="M686 279h-180v835h303q135 0 216 -65t81 -189q0 -90 -42 -144.5t-144 -90.5v-4l262 -342h-211l-271 393v6q125 20 175.5 57.5t50.5 102.5q0 55 -41 87.5t-109 32.5h-90v-679zM797 -37q-147 0 -275.5 49.5t-225.5 141.5t-152.5 232t-55.5 312q0 171 55 310.5t151.5 232.5
t227.5 143t283 50q147 0 275.5 -50t225 -142t152 -232.5t55.5 -311.5q0 -227 -95 -395.5t-256 -254t-365 -85.5zM793 92q120 0 223 38.5t181 112t122.5 190.5t44.5 265q0 143 -42.5 258.5t-117 191.5t-176 116.5t-219.5 40.5q-95 0 -180 -23.5t-157 -73t-124 -120.5
t-81 -170.5t-29 -219.5q0 -143 42.5 -258.5t117 -191t175.5 -116t220 -40.5z" />
    <glyph glyph-name="macron" unicode="&#xaf;" horiz-adv-x="1024" 
d="M868 1323h-712v190h712v-190z" />
    <glyph glyph-name="macron" unicode="&#x304;" horiz-adv-x="1024" 
d="M868 1323h-712v190h712v-190z" />
    <glyph glyph-name="macron" unicode="&#x2c9;" horiz-adv-x="1024" 
d="M868 1323h-712v190h712v-190z" />
    <glyph glyph-name="degree" unicode="&#xb0;" horiz-adv-x="694" 
d="M637 1159q0 -119 -79.5 -192.5t-209.5 -73.5q-129 0 -210 74t-81 192q0 117 80.5 190.5t210.5 73.5t209.5 -73t79.5 -191zM467 1159q0 66 -32.5 103.5t-86.5 37.5t-86.5 -37.5t-32.5 -103.5q0 -67 32 -104t87 -37t87 37t32 104z" />
    <glyph glyph-name="plusminus" unicode="&#xb1;" 
d="M1008 143h-910v187h910v-187zM647 414h-188v260h-361v184h359v281h188v-281h363v-184h-361v-260z" />
    <glyph glyph-name="twosuperior" unicode="&#xb2;" horiz-adv-x="739" 
d="M705 604h-650v133q215 174 291 277.5t76 202.5q0 74 -40 115.5t-106 41.5q-107 0 -198 -88h-4v176q114 74 239 74q132 0 217.5 -78t85.5 -219q0 -47 -7.5 -89t-27.5 -82.5t-36.5 -69.5t-54 -71t-59 -64.5t-70.5 -71.5l-25 -25v-2h369v-160z" />
    <glyph glyph-name="threesuperior" unicode="&#xb3;" horiz-adv-x="739" 
d="M678 836q0 -121 -86 -188.5t-230 -67.5q-154 0 -266 69v178h6q41 -39 105.5 -63.5t122.5 -24.5q70 0 112.5 32t42.5 93q0 53 -40 83t-113 30h-133v160h139q92 35 92 118q0 55 -36.5 87t-98.5 32q-106 0 -189 -86h-4v180q106 68 236 68q127 0 207 -67t80 -183
q0 -147 -136 -215v-2q85 -16 137 -77t52 -156z" />
    <glyph glyph-name="acute" unicode="&#xb4;" horiz-adv-x="1024" 
d="M481 1149h-217l244 387h252z" />
    <glyph glyph-name="acute" unicode="&#x301;" horiz-adv-x="1024" 
d="M481 1149h-217l244 387h252z" />
    <glyph glyph-name="acute" unicode="&#x2ca;" horiz-adv-x="1024" 
d="M481 1149h-217l244 387h252z" />
    <glyph glyph-name="mu" unicode="&#xb5;" horiz-adv-x="1265" 
d="M1102 0h-238v82h-2q-48 -52 -114.5 -85.5t-135.5 -33.5q-158 0 -223 107h-4q23 -223 31 -375l-246 -90h-4v1439h250v-622q0 -120 59.5 -178t157.5 -58q71 0 127.5 35.5t91.5 104.5v718h250v-1044z" />
    <glyph glyph-name="paragraph" unicode="&#xb6;" horiz-adv-x="1236" 
d="M1042 -291h-251v725q-365 35 -529 163t-164 361q0 110 38.5 195t107 137.5t158 79.5t196.5 27h444v-1688z" />
    <glyph glyph-name="periodcentered" unicode="&#xb7;" horiz-adv-x="552" 
d="M406 414h-259v268h259v-268z" />
    <glyph glyph-name="periodcentered" unicode="&#x2219;" horiz-adv-x="552" 
d="M406 414h-259v268h259v-268z" />
    <glyph glyph-name="cedilla" unicode="&#xb8;" horiz-adv-x="1024" 
d="M739 -236q0 -73 -64 -116t-179 -43q-129 0 -211 35v127h6q73 -43 158 -43q88 0 88 47q0 32 -39 44t-129 17l45 168h178l-23 -84q170 -28 170 -152z" />
    <glyph glyph-name="cedilla" unicode="&#x327;" horiz-adv-x="1024" 
d="M739 -236q0 -73 -64 -116t-179 -43q-129 0 -211 35v127h6q73 -43 158 -43q88 0 88 47q0 32 -39 44t-129 17l45 168h178l-23 -84q170 -28 170 -152z" />
    <glyph glyph-name="onesuperior" unicode="&#xb9;" horiz-adv-x="739" 
d="M528 604h-186v713l-207 -57h-4v176l393 100h4v-932z" />
    <glyph glyph-name="ordmasculine" unicode="&#xba;" horiz-adv-x="806" 
d="M688 274h-571v166h571v-166zM571 944q0 93 -45 147t-120 54q-78 0 -125.5 -53t-47.5 -148q0 -93 46 -148t122 -55t123 54t47 149zM764 944q0 -167 -100.5 -265.5t-262.5 -98.5q-158 0 -258 98.5t-100 265.5t100 266t263 99q158 0 258 -99t100 -266z" />
    <glyph glyph-name="guillemotright" unicode="&#xbb;" horiz-adv-x="1021" 
d="M303 150h-229l245 397l-245 397h229l258 -391v-12zM690 150h-229l246 397l-246 397h229l258 -391v-12z" />
    <glyph glyph-name="onequarter" unicode="&#xbc;" horiz-adv-x="1679" 
d="M1657 188h-117v-188h-188v188h-383v138l424 606h147v-596h117v-148zM1358 336v313h-2l-211 -311v-2h213zM528 489h-186v713l-207 -57h-4v176l393 100h4v-932zM600 0h-199l721 1397h199z" />
    <glyph glyph-name="onehalf" unicode="&#xbd;" horiz-adv-x="1783" 
d="M1749 0h-649v133q215 174 290.5 277t75.5 202q0 74 -39.5 116t-105.5 42q-108 0 -199 -88h-4v176q114 74 240 74q132 0 217.5 -78t85.5 -219q0 -47 -7.5 -88.5t-27.5 -82.5t-36.5 -69.5t-54 -70.5t-58.5 -64t-70 -71l-27 -27v-2h369v-160zM528 489h-186v713l-207 -57h-4
v176l393 100h4v-932zM600 0h-199l721 1397h199z" />
    <glyph glyph-name="threequarters" unicode="&#xbe;" horiz-adv-x="1722" 
d="M1700 188h-117v-188h-188v188h-383v138l424 606h147v-596h117v-148zM1401 336v313h-2l-211 -311v-2h213zM678 721q0 -121 -86 -188.5t-230 -67.5q-153 0 -266 70v178h6q41 -39 105.5 -63.5t122.5 -24.5q70 0 112.5 32t42.5 93q0 53 -40 82.5t-113 29.5h-133v160h139
q92 35 92 119q0 55 -36.5 87t-98.5 32q-106 0 -189 -86h-4v180q105 67 236 67q127 0 207 -67t80 -183q0 -147 -136 -215v-2q85 -16 137 -77t52 -156zM641 0h-199l721 1397h199z" />
    <glyph glyph-name="questiondown" unicode="&#xbf;" horiz-adv-x="1038" 
d="M467 598h215l6 -227q-156 -149 -223.5 -247.5t-67.5 -205.5q0 -102 61 -151.5t154 -49.5t182.5 36.5t151.5 101.5h8v-250q-160 -111 -391 -111q-199 0 -319.5 99t-120.5 274q0 78 22.5 148.5t71.5 142t103.5 132t140.5 144.5zM453 1044h243v-253h-243v253z" />
    <glyph glyph-name="Agrave" unicode="&#xc0;" horiz-adv-x="1404" 
d="M1378 0h-291l-131 358h-518l-131 -358h-280l557 1427l-172 211h260l127 -204h18zM870 592l-172 475h-2l-174 -475h348z" />
    <glyph glyph-name="Aacute" unicode="&#xc1;" horiz-adv-x="1404" 
d="M1378 0h-291l-131 358h-518l-131 -358h-280l559 1434h18l129 204h260l-174 -213zM870 592l-172 475h-2l-174 -475h348z" />
    <glyph glyph-name="Acircumflex" unicode="&#xc2;" horiz-adv-x="1404" 
d="M1030 1397h-199l547 -1397h-291l-131 358h-518l-131 -358h-280l544 1397h-196l221 262h213zM870 592l-172 475h-2l-174 -475h348zM702 1524l-79 -90h159l-77 90h-3z" />
    <glyph glyph-name="Atilde" unicode="&#xc3;" horiz-adv-x="1404" 
d="M848 1425q-21 0 -29 2l559 -1427h-291l-131 358h-518l-131 -358h-280l559 1434h205q-36 9 -108.5 43t-100.5 34q-15 0 -26.5 -5.5t-17.5 -9.5t-13.5 -20.5t-9 -21.5t-9.5 -29h-158q13 56 26 93.5t36.5 74.5t60 55.5t86.5 18.5q53 0 144.5 -43t121.5 -43q18 0 30.5 5
t21 20t12.5 24.5t12 36.5h158q-12 -58 -26 -97t-37 -74.5t-59.5 -53t-86.5 -17.5zM870 592l-172 475h-2l-174 -475h348z" />
    <glyph glyph-name="Adieresis" unicode="&#xc4;" horiz-adv-x="1404" 
d="M1378 0h-291l-131 358h-518l-131 -358h-280l559 1434h231zM870 592l-172 475h-2l-174 -475h348zM600 1473h-246v194h246v-194zM1051 1473h-248v194h248v-194z" />
    <glyph glyph-name="Aring" unicode="&#xc5;" horiz-adv-x="1404" 
d="M954 1587q0 -64 -35 -107.5t-96 -64.5l555 -1415h-291l-131 358h-518l-131 -358h-280l551 1413q-129 45 -129 174q0 92 71.5 140.5t184.5 48.5q111 0 180 -48.5t69 -140.5zM870 592l-172 475h-2l-174 -475h348zM801 1587q0 33 -27.5 52.5t-71.5 19.5q-45 0 -73.5 -19.5
t-28.5 -52.5q0 -35 28.5 -54.5t73.5 -19.5q44 0 71.5 20t27.5 54z" />
    <glyph glyph-name="AE" unicode="&#xc6;" horiz-adv-x="1898" 
d="M1774 0h-809v514h-361l-276 -514h-308l762 1397h938v-248h-491v-344h471v-248h-471v-309h545v-248zM958 1198l-231 -436h238v436h-7z" />
    <glyph glyph-name="Ccedilla" unicode="&#xc7;" horiz-adv-x="1253" 
d="M930 -236q0 -73 -64.5 -116t-179.5 -43q-129 0 -211 35v127h6q73 -43 158 -43q88 0 88 47q0 32 -39 44t-129 17l37 143q-229 41 -368.5 230.5t-139.5 492.5q0 337 173.5 536.5t453.5 199.5q255 0 426 -138v-305h-8q-67 92 -164.5 142.5t-206.5 50.5q-183 0 -290 -131.5
t-107 -354.5q0 -222 109 -353.5t296 -131.5q109 0 207.5 51.5t163.5 141.5h8v-306q-162 -124 -377 -135l-12 -49q170 -28 170 -152z" />
    <glyph glyph-name="Egrave" unicode="&#xc8;" horiz-adv-x="1124" 
d="M999 0h-809v1397h289l-196 241h260l151 -241h252v-248h-491v-309h471v-252h-471v-340h544v-248z" />
    <glyph glyph-name="Eacute" unicode="&#xc9;" horiz-adv-x="1124" 
d="M999 0h-809v1397h263l151 241h260l-196 -241h278v-248h-491v-309h471v-252h-471v-340h544v-248z" />
    <glyph glyph-name="Ecircumflex" unicode="&#xca;" horiz-adv-x="1124" 
d="M891 1397h55v-248h-491v-309h471v-252h-471v-340h544v-248h-809v1397h46l221 262h213zM563 1524l-112 -127h225l-111 127h-2z" />
    <glyph glyph-name="Edieresis" unicode="&#xcb;" horiz-adv-x="1124" 
d="M459 1473h-246v194h246v-194zM909 1473h-247v194h247v-194zM999 0h-809v1397h756v-248h-491v-309h471v-252h-471v-340h544v-248z" />
    <glyph glyph-name="Igrave" unicode="&#xcc;" horiz-adv-x="651" 
d="M432 1397h23v-1397h-265v1397h27l-197 241h261z" />
    <glyph glyph-name="Iacute" unicode="&#xcd;" horiz-adv-x="651" 
d="M430 1397h25v-1397h-265v1397h25l152 241h260z" />
    <glyph glyph-name="Icircumflex" unicode="&#xce;" horiz-adv-x="651" 
d="M653 1397h-198v-1397h-265v1397h-192l221 262h213zM326 1524l-113 -127h225l-110 127h-2z" />
    <glyph glyph-name="Idieresis" unicode="&#xcf;" horiz-adv-x="651" 
d="M455 0h-265v1397h265v-1397zM225 1473h-245v194h245v-194zM676 1473h-248v194h248v-194z" />
    <glyph glyph-name="Eth" unicode="&#xd0;" horiz-adv-x="1474" 
d="M1386 698q0 -138 -37 -253t-102.5 -196.5t-155.5 -138t-195 -83.5t-222 -27h-484v608h-190v211h190v578h484q146 0 273 -44t226 -128t156 -220t57 -307zM1118 698q0 146 -60 249.5t-160 152.5t-230 49h-213v-330h336v-211h-336v-360h213q130 0 229.5 48t160 151.5
t60.5 250.5z" />
    <glyph glyph-name="Ntilde" unicode="&#xd1;" horiz-adv-x="1566" 
d="M918 1425q-53 0 -145.5 43t-121.5 43q-15 0 -26.5 -5.5t-17.5 -9.5t-13.5 -20.5t-9 -21.5t-9.5 -29h-157q13 56 26 93.5t36.5 74.5t60 55.5t86.5 18.5q53 0 144.5 -43t121.5 -43q18 0 30.5 5t21 20t12.5 24.5t12 36.5h157q-12 -58 -25.5 -96.5t-36.5 -74.5t-59.5 -53.5
t-86.5 -17.5zM1376 -18h-213l-706 897h-2v-879h-265v1296l-63 88v13h274l709 -914h2v914h264v-1415z" />
    <glyph glyph-name="Ograve" unicode="&#xd2;" horiz-adv-x="1538" 
d="M1450 698q0 -171 -52 -310.5t-144 -232t-217 -142.5t-271 -50q-141 0 -264 49.5t-215.5 141.5t-145.5 232t-53 312q0 301 153.5 492.5t403.5 232.5l-174 215h260l131 -211q125 -15 232 -70.5t186.5 -146.5t124.5 -222.5t45 -289.5zM1176 698q0 230 -113 360t-289 130
q-178 0 -293.5 -128t-115.5 -362q0 -230 112.5 -360.5t288.5 -130.5q178 0 294 128.5t116 362.5z" />
    <glyph glyph-name="Oacute" unicode="&#xd3;" horiz-adv-x="1538" 
d="M1450 698q0 -171 -52 -310.5t-144 -232t-217 -142.5t-271 -50q-141 0 -264 49.5t-215.5 141.5t-145.5 232t-53 312q0 310 161.5 503t422.5 226l133 211h260l-174 -215q161 -25 285.5 -116t199 -249t74.5 -360zM1176 698q0 230 -113 360t-289 130q-178 0 -293.5 -128
t-115.5 -362q0 -230 112.5 -360.5t288.5 -130.5q178 0 294 128.5t116 362.5z" />
    <glyph glyph-name="Ocircumflex" unicode="&#xd4;" horiz-adv-x="1538" 
d="M1096 1397h-92q202 -68 324 -250t122 -449q0 -171 -52 -310.5t-144 -232t-217 -142.5t-271 -50q-141 0 -264 49.5t-215.5 141.5t-145.5 232t-53 312q0 266 121.5 447.5t327.5 251.5h-97l222 262h212zM1176 698q0 230 -113 360t-289 130q-178 0 -293.5 -128t-115.5 -362
q0 -230 112.5 -360.5t288.5 -130.5q178 0 294 128.5t116 362.5zM774 1434q24 0 78 -4l-82 94h-2l-84 -97q51 7 90 7z" />
    <glyph glyph-name="Otilde" unicode="&#xd5;" horiz-adv-x="1538" 
d="M924 1425q-53 0 -145.5 43t-121.5 43q-17 0 -29 -5.5t-19.5 -16.5t-12.5 -23t-11 -31q-2 -7 -3 -10h-158q13 56 26 93.5t36.5 74.5t60 55.5t86.5 18.5q53 0 144.5 -43t121.5 -43q18 0 30.5 5t21 20t12.5 24.5t12 36.5h158q-12 -58 -26 -97t-37 -74.5t-59.5 -53
t-86.5 -17.5zM1450 698q0 -171 -52 -310.5t-144 -232t-217 -142.5t-271 -50q-141 0 -264 49.5t-215.5 141.5t-145.5 232t-53 312q0 171 52.5 310.5t144.5 232.5t217.5 143t271.5 50q141 0 264 -50t214.5 -142t144.5 -232.5t53 -311.5zM1176 698q0 230 -113 360t-289 130
q-178 0 -293.5 -128t-115.5 -362q0 -230 112.5 -360.5t288.5 -130.5q178 0 294 128.5t116 362.5z" />
    <glyph glyph-name="Odieresis" unicode="&#xd6;" horiz-adv-x="1538" 
d="M666 1473h-246v194h246v-194zM1116 1473h-248v194h248v-194zM1450 698q0 -171 -52 -310.5t-144 -232t-217 -142.5t-271 -50q-141 0 -264 49.5t-215.5 141.5t-145.5 232t-53 312q0 171 52.5 310.5t144.5 232.5t217.5 143t271.5 50q141 0 264 -50t214.5 -142t144.5 -232.5
t53 -311.5zM1176 698q0 230 -113 360t-289 130q-178 0 -293.5 -128t-115.5 -362q0 -230 112.5 -360.5t288.5 -130.5q178 0 294 128.5t116 362.5z" />
    <glyph glyph-name="multiply" unicode="&#xd7;" 
d="M965 297l-134 -133l-280 278l-281 -278l-131 129l281 282l-281 279l133 133l279 -278l283 280l133 -131l-283 -283z" />
    <glyph glyph-name="Oslash" unicode="&#xd8;" horiz-adv-x="1538" 
d="M350 -37h-262l166 225q-166 200 -166 510q0 171 52.5 310.5t144.5 232.5t217.5 143t271.5 50q196 0 348 -93l68 93h260l-168 -228q168 -199 168 -508q0 -171 -52 -310.5t-144 -232t-217 -142.5t-271 -50q-189 0 -350 90zM1176 698q0 166 -64 285l-545 -721
q83 -51 199 -51q86 0 160 31t130 90.5t88 153.5t32 212zM365 698q0 -168 59 -280l545 717q-88 51 -195 51q-86 0 -160 -31t-129.5 -91t-87.5 -154t-32 -212z" />
    <glyph glyph-name="Ugrave" unicode="&#xd9;" horiz-adv-x="1370" 
d="M788 1397h-215l-196 241h260zM686 -37q-240 0 -378 123t-138 352v959h264v-930q0 -128 64 -192t182 -64q117 0 181.5 64t64.5 192v930h274v-959q0 -229 -137.5 -352t-376.5 -123z" />
    <glyph glyph-name="Uacute" unicode="&#xda;" horiz-adv-x="1370" 
d="M780 1397h-215l152 241h260zM686 -37q-240 0 -378 123t-138 352v959h264v-930q0 -128 64 -192t182 -64q117 0 181.5 64t64.5 192v930h274v-959q0 -229 -137.5 -352t-376.5 -123z" />
    <glyph glyph-name="Ucircumflex" unicode="&#xdb;" horiz-adv-x="1370" 
d="M1006 1397h194v-959q0 -229 -137.5 -352t-376.5 -123q-240 0 -378 123t-138 352v959h180l221 262h213zM926 467v930h-135l-111 127h-2l-113 -127h-131v-930q0 -128 64 -192t182 -64q117 0 181.5 64t64.5 192z" />
    <glyph glyph-name="Udieresis" unicode="&#xdc;" horiz-adv-x="1370" 
d="M575 1473h-245v194h245v-194zM1026 1473h-248v194h248v-194zM686 -37q-240 0 -378 123t-138 352v959h264v-930q0 -128 64 -192t182 -64q117 0 181.5 64t64.5 192v930h274v-959q0 -229 -137.5 -352t-376.5 -123z" />
    <glyph glyph-name="Yacute" unicode="&#xdd;" horiz-adv-x="1282" 
d="M774 0h-264v553l-494 844h316l307 -572h2l317 572h308l-492 -844v-553zM745 1397h-215l152 241h260z" />
    <glyph glyph-name="Thorn" unicode="&#xde;" horiz-adv-x="1245" 
d="M1147 836q0 -236 -164.5 -370t-527.5 -167v-299h-265v1397h265v-123h192q142 0 253.5 -48t179 -148.5t67.5 -241.5zM879 813q0 102 -69.5 159.5t-184.5 57.5h-170v-485q223 10 323.5 82.5t100.5 185.5z" />
    <glyph glyph-name="germandbls" unicode="&#xdf;" horiz-adv-x="1366" 
d="M874 -37q-206 0 -337 92v244h6q55 -62 141 -96.5t170 -34.5q164 0 164 106q0 39 -26.5 67t-68.5 46.5t-92.5 36.5t-101.5 44t-93 60.5t-68.5 94.5t-26.5 139q0 73 26 131t64.5 92.5t83.5 66t83.5 54t64.5 53t26 66.5q0 106 -207 106q-250 0 -250 -182v-1149h-250v825
h-104v11l104 208v136q0 173 131.5 271.5t374.5 98.5q227 0 346 -78.5t119 -226.5q0 -58 -20 -106t-52.5 -80t-71.5 -58.5t-78.5 -49t-72 -45t-52.5 -51.5t-20 -64q0 -45 26.5 -76.5t68 -50.5t92.5 -36.5t102 -42t92.5 -58.5t68 -94.5t26.5 -141.5q0 -148 -99.5 -238
t-288.5 -90z" />
    <glyph glyph-name="agrave" unicode="&#xe0;" horiz-adv-x="1161" 
d="M1010 0h-244v78h-2q-128 -115 -303 -115q-151 0 -251.5 90t-100.5 244q0 156 102.5 249t286.5 93q150 0 262 -64v74q0 109 -72 161t-192 52q-90 0 -174.5 -39.5t-143.5 -101.5h-6v250q157 110 375 110q100 0 182.5 -25t146 -76t99 -135.5t35.5 -195.5v-649zM760 276v105
q-86 53 -215 53q-189 0 -189 -125q0 -57 48.5 -95t136.5 -38q136 0 219 100zM692 1151h-217l-278 385h260z" />
    <glyph glyph-name="aacute" unicode="&#xe1;" horiz-adv-x="1161" 
d="M1010 0h-244v78h-2q-128 -115 -303 -115q-151 0 -251.5 90t-100.5 244q0 156 102.5 249t286.5 93q150 0 262 -64v74q0 109 -72 161t-192 52q-90 0 -174.5 -39.5t-143.5 -101.5h-6v250q157 110 375 110q100 0 182.5 -25t146 -76t99 -135.5t35.5 -195.5v-649zM760 276v105
q-86 53 -215 53q-189 0 -189 -125q0 -57 48.5 -95t136.5 -38q136 0 219 100zM672 1149h-217l243 387h252z" />
    <glyph glyph-name="acircumflex" unicode="&#xe2;" horiz-adv-x="1161" 
d="M1010 0h-244v78h-2q-128 -115 -303 -115q-151 0 -251.5 90t-100.5 244q0 156 102.5 249t286.5 93q150 0 262 -64v74q0 109 -72 161t-192 52q-90 0 -174.5 -39.5t-143.5 -101.5h-6v250q157 110 375 110q100 0 182.5 -25t146 -76t99 -135.5t35.5 -195.5v-649zM760 276v105
q-86 53 -215 53q-189 0 -189 -125q0 -57 48.5 -95t136.5 -38q136 0 219 100zM958 1151h-217l-168 227h-2l-170 -227h-217l289 395h197z" />
    <glyph glyph-name="atilde" unicode="&#xe3;" horiz-adv-x="1161" 
d="M1010 0h-244v78h-2q-128 -115 -303 -115q-151 0 -251.5 90t-100.5 244q0 156 102.5 249t286.5 93q150 0 262 -64v74q0 109 -72 161t-192 52q-90 0 -174.5 -39.5t-143.5 -101.5h-6v250q157 110 375 110q100 0 182.5 -25t146 -76t99 -135.5t35.5 -195.5v-649zM760 276v105
q-86 53 -215 53q-189 0 -189 -125q0 -57 48.5 -95t136.5 -38q136 0 219 100zM748 1235q-52 0 -115 30t-119 59.5t-92 29.5q-23 0 -39.5 -16.5t-22 -31t-20.5 -60.5q-3 -7 -4 -11h-156q13 73 28.5 124.5t40.5 93.5t62 62.5t88 20.5q52 0 115 -30t119 -59.5t92 -29.5
q23 0 39.5 16.5t22 31t20.5 60.5q3 7 4 11h156q-26 -152 -73.5 -226.5t-145.5 -74.5z" />
    <glyph glyph-name="adieresis" unicode="&#xe4;" horiz-adv-x="1161" 
d="M1010 0h-244v78h-2q-128 -115 -303 -115q-151 0 -251.5 90t-100.5 244q0 156 102.5 249t286.5 93q150 0 262 -64v74q0 109 -72 161t-192 52q-90 0 -174.5 -39.5t-143.5 -101.5h-6v250q157 110 375 110q100 0 182.5 -25t146 -76t99 -135.5t35.5 -195.5v-649zM760 276v105
q-86 53 -215 53q-189 0 -189 -125q0 -57 48.5 -95t136.5 -38q136 0 219 100zM469 1315h-246v221h246v-221zM920 1315h-248v221h248v-221z" />
    <glyph glyph-name="aring" unicode="&#xe5;" horiz-adv-x="1161" 
d="M1010 0h-244v78h-2q-128 -115 -303 -115q-151 0 -251.5 90t-100.5 244q0 156 102.5 249t286.5 93q150 0 262 -64v74q0 109 -72 161t-192 52q-90 0 -174.5 -39.5t-143.5 -101.5h-6v250q157 110 375 110q100 0 182.5 -25t146 -76t99 -135.5t35.5 -195.5v-649zM760 276v105
q-86 53 -215 53q-189 0 -189 -125q0 -57 48.5 -95t136.5 -38q136 0 219 100zM838 1380q0 -97 -72.5 -148.5t-183.5 -51.5t-182.5 51.5t-71.5 148.5q0 96 73 147.5t185 51.5q110 0 181 -51.5t71 -147.5zM674 1380q0 36 -23.5 57t-66.5 21q-45 0 -70 -21t-25 -57
q0 -40 24.5 -61t70.5 -21q90 0 90 82z" />
    <glyph glyph-name="ae" unicode="&#xe6;" horiz-adv-x="1828" 
d="M1305 -37q-135 0 -246.5 44.5t-184.5 129.5h-4q-166 -174 -409 -174q-151 0 -251.5 90t-100.5 244q0 155 102.5 248.5t286.5 93.5q150 0 262 -64v76q0 108 -73 159.5t-191 51.5q-89 0 -174 -39t-144 -100h-6v248q157 110 375 110q227 0 350 -141h4q56 67 147.5 104
t204.5 37q208 0 348 -136t140 -359q0 -88 -4 -121h-727q12 -137 103.5 -212t242.5 -75q95 0 182 38t148 99h6v-243q-153 -109 -387 -109zM543 176q68 0 133.5 32t111.5 81q-24 62 -26 92q-87 53 -203 53q-103 0 -153 -29.5t-50 -97.5q0 -58 47.5 -94.5t139.5 -36.5z
M1481 670q-7 89 -70 140.5t-162 51.5q-98 0 -160 -48t-79 -144h471z" />
    <glyph glyph-name="ccedilla" unicode="&#xe7;" horiz-adv-x="966" 
d="M772 -236q0 -73 -64.5 -116t-179.5 -43q-129 0 -211 35v127h7q73 -43 157 -43q88 0 88 47q0 32 -39 44t-129 17l39 145q-166 38 -268 180t-102 365q0 255 135 407t350 152q200 0 322 -102v-266h-7q-47 65 -121 106t-153 41q-120 0 -192 -94t-72 -246t77.5 -245t208.5 -93
q75 0 145 42.5t114 109.5h6v-266q-111 -88 -269 -103l-12 -49q170 -28 170 -152z" />
    <glyph glyph-name="egrave" unicode="&#xe8;" horiz-adv-x="1153" 
d="M1016 72q-153 -109 -387 -109q-249 0 -404 149t-155 410q0 257 138 408t370 151q101 0 190 -35t155 -98.5t104 -157.5t38 -206q0 -49 -4 -119h-727q12 -136 103.5 -210.5t242.5 -74.5q96 0 183 38t147 99h6v-245zM803 670q-5 84 -67 138t-158 54q-101 0 -165 -49.5
t-79 -142.5h469zM680 1151h-217l-279 385h260z" />
    <glyph glyph-name="eacute" unicode="&#xe9;" horiz-adv-x="1153" 
d="M666 1149h-217l243 387h252zM1016 72q-153 -109 -387 -109q-249 0 -404 149t-155 410q0 257 138 408t370 151q101 0 190 -35t155 -98.5t104 -157.5t38 -206q0 -49 -4 -119h-727q12 -136 103.5 -210.5t242.5 -74.5q96 0 183 38t147 99h6v-245zM803 670q-5 84 -67 138
t-158 54q-101 0 -165 -49.5t-79 -142.5h469z" />
    <glyph glyph-name="ecircumflex" unicode="&#xea;" horiz-adv-x="1153" 
d="M963 1151h-218l-167 227h-3l-169 -227h-218l289 395h197zM1016 72q-153 -109 -387 -109q-249 0 -404 149t-155 410q0 257 138 408t370 151q101 0 190 -35t155 -98.5t104 -157.5t38 -206q0 -49 -4 -119h-727q12 -136 103.5 -210.5t242.5 -74.5q96 0 183 38t147 99h6v-245z
M803 670q-5 84 -67 138t-158 54q-101 0 -165 -49.5t-79 -142.5h469z" />
    <glyph glyph-name="edieresis" unicode="&#xeb;" horiz-adv-x="1153" 
d="M475 1315h-246v221h246v-221zM926 1315h-248v221h248v-221zM1016 72q-153 -109 -387 -109q-249 0 -404 149t-155 410q0 257 138 408t370 151q101 0 190 -35t155 -98.5t104 -157.5t38 -206q0 -49 -4 -119h-727q12 -136 103.5 -210.5t242.5 -74.5q96 0 183 38t147 99h6
v-245zM803 670q-5 84 -67 138t-158 54q-101 0 -165 -49.5t-79 -142.5h469z" />
    <glyph glyph-name="igrave" unicode="&#xec;" horiz-adv-x="579" 
d="M416 0h-250v1044h250v-1044zM389 1151h-217l-278 385h260z" />
    <glyph glyph-name="iacute" unicode="&#xed;" horiz-adv-x="579" 
d="M416 0h-250v1044h250v-1044zM403 1149h-217l244 387h252z" />
    <glyph glyph-name="icircumflex" unicode="&#xee;" horiz-adv-x="579" 
d="M416 0h-250v1044h250v-1044zM678 1151h-217l-168 227h-2l-170 -227h-217l289 395h196z" />
    <glyph glyph-name="idieresis" unicode="&#xef;" horiz-adv-x="579" 
d="M416 0h-250v1044h250v-1044zM639 1315h-248v221h248v-221zM188 1315h-245v221h245v-221z" />
    <glyph glyph-name="eth" unicode="&#xf0;" horiz-adv-x="1224" 
d="M1006 1266l-187 -31l207 -322q65 -100 98 -193t33 -202q0 -254 -152 -404.5t-395 -150.5q-238 0 -389 150t-151 405q0 143 55 261t164.5 191.5t255.5 73.5q61 0 102 -10v2l-98 154l-320 -51v207l199 32l-96 154v4h297l71 -115l306 52v-207zM893 518q0 153 -76 237.5
t-203 84.5q-128 0 -205 -83t-77 -239q0 -154 76.5 -245t201.5 -91q127 0 205 89.5t78 246.5z" />
    <glyph glyph-name="ntilde" unicode="&#xf1;" horiz-adv-x="1282" 
d="M1126 0h-249v627q0 114 -61.5 172.5t-162.5 58.5q-142 0 -237 -117v-741h-250v1044h248v-83h2q133 120 317 120q82 0 152 -23t124.5 -67.5t85.5 -117.5t31 -166v-707zM819 1235q-52 0 -115 30t-118.5 59.5t-91.5 29.5q-23 0 -39.5 -16.5t-22 -31t-20.5 -60.5
q-3 -7 -4 -11h-156q13 73 28.5 124.5t40.5 93.5t62 62.5t88 20.5q52 0 115 -30t119 -59.5t92 -29.5q23 0 39.5 16.5t22 31t20.5 60.5q3 7 4 11h155q-26 -152 -73.5 -226.5t-145.5 -74.5z" />
    <glyph glyph-name="ograve" unicode="&#xf2;" horiz-adv-x="1224" 
d="M893 522q0 157 -76.5 248.5t-202.5 91.5q-127 0 -204.5 -90t-77.5 -250q0 -158 76 -249t202 -91q128 0 205.5 89.5t77.5 250.5zM1157 522q0 -257 -152 -408t-395 -151q-156 0 -277.5 66t-192 194t-70.5 299q0 257 150.5 408t393.5 151q239 0 391 -151t152 -408zM723 1151
h-217l-279 385h260z" />
    <glyph glyph-name="oacute" unicode="&#xf3;" horiz-adv-x="1224" 
d="M723 1149h-217l244 387h251zM893 522q0 157 -76.5 248.5t-202.5 91.5q-127 0 -204.5 -90t-77.5 -250q0 -158 76 -249t202 -91q128 0 205.5 89.5t77.5 250.5zM1157 522q0 -257 -152 -408t-395 -151q-156 0 -277.5 66t-192 194t-70.5 299q0 257 150.5 408t393.5 151
q239 0 391 -151t152 -408z" />
    <glyph glyph-name="ocircumflex" unicode="&#xf4;" horiz-adv-x="1224" 
d="M999 1151h-217l-168 227h-2l-170 -227h-217l289 395h197zM893 522q0 157 -76.5 248.5t-202.5 91.5q-127 0 -204.5 -90t-77.5 -250q0 -158 76 -249t202 -91q128 0 205.5 89.5t77.5 250.5zM1157 522q0 -257 -152 -408t-395 -151q-156 0 -277.5 66t-192 194t-70.5 299
q0 257 150.5 408t393.5 151q239 0 391 -151t152 -408z" />
    <glyph glyph-name="otilde" unicode="&#xf5;" horiz-adv-x="1224" 
d="M893 522q0 157 -76.5 248.5t-202.5 91.5q-127 0 -204.5 -90t-77.5 -250q0 -158 76 -249t202 -91q128 0 205.5 89.5t77.5 250.5zM1157 522q0 -257 -152 -408t-395 -151q-156 0 -277.5 66t-192 194t-70.5 299q0 257 150.5 408t393.5 151q239 0 391 -151t152 -408zM786 1235
q-52 0 -115 30t-118.5 59.5t-91.5 29.5q-23 0 -39.5 -16.5t-22 -31t-20.5 -60.5q-3 -7 -4 -11h-156q13 73 28.5 124.5t40.5 93.5t62 62.5t88 20.5q52 0 115 -30t119 -59.5t92 -29.5q23 0 39.5 16.5t22 31t20.5 60.5q3 7 4 11h156q-26 -151 -74 -226t-146 -75z" />
    <glyph glyph-name="odieresis" unicode="&#xf6;" horiz-adv-x="1224" 
d="M510 1315h-246v221h246v-221zM961 1315h-248v221h248v-221zM893 522q0 157 -76.5 248.5t-202.5 91.5q-127 0 -204.5 -90t-77.5 -250q0 -158 76 -249t202 -91q128 0 205.5 89.5t77.5 250.5zM1157 522q0 -257 -152 -408t-395 -151q-156 0 -277.5 66t-192 194t-70.5 299
q0 257 150.5 408t393.5 151q239 0 391 -151t152 -408z" />
    <glyph glyph-name="divide" unicode="&#xf7;" 
d="M1008 483h-910v187h910v-187zM670 840h-236v235h236v-235zM670 80h-236v233h236v-233z" />
    <glyph glyph-name="oslash" unicode="&#xf8;" horiz-adv-x="1224" 
d="M317 -37h-247l127 176q-127 149 -127 383q0 257 150.5 408t393.5 151q141 0 254 -55l39 55h250l-129 -178q129 -148 129 -381q0 -257 -152 -408t-395 -151q-142 0 -254 53zM332 522q0 -93 28 -166l371 480q-57 26 -117 26q-127 0 -204.5 -90t-77.5 -250zM893 522
q0 88 -29 164l-370 -479q55 -25 116 -25q128 0 205.5 89.5t77.5 250.5z" />
    <glyph glyph-name="ugrave" unicode="&#xf9;" horiz-adv-x="1239" 
d="M1087 1044v-634q0 -209 -125 -328t-346 -119q-216 0 -340 118.5t-124 328.5v634h249v-626q0 -119 56.5 -177.5t160.5 -58.5q103 0 161.5 59t58.5 177v626h249zM731 1151h-217l-278 385h260z" />
    <glyph glyph-name="uacute" unicode="&#xfa;" horiz-adv-x="1239" 
d="M717 1149h-217l243 387h252zM1087 1044v-634q0 -209 -125 -328t-346 -119q-216 0 -340 118.5t-124 328.5v634h249v-626q0 -119 56.5 -177.5t160.5 -58.5q103 0 161.5 59t58.5 177v626h249z" />
    <glyph glyph-name="ucircumflex" unicode="&#xfb;" horiz-adv-x="1239" 
d="M1006 1151h-218l-167 227h-3l-169 -227h-218l289 395h197zM1087 1044v-634q0 -209 -125 -328t-346 -119q-216 0 -340 118.5t-124 328.5v634h249v-626q0 -119 56.5 -177.5t160.5 -58.5q103 0 161.5 59t58.5 177v626h249z" />
    <glyph glyph-name="udieresis" unicode="&#xfc;" horiz-adv-x="1239" 
d="M516 1315h-246v221h246v-221zM967 1315h-248v221h248v-221zM1087 1044v-634q0 -209 -125 -328t-346 -119q-216 0 -340 118.5t-124 328.5v634h249v-626q0 -119 56.5 -177.5t160.5 -58.5q103 0 161.5 59t58.5 177v626h249z" />
    <glyph glyph-name="yacute" unicode="&#xfd;" horiz-adv-x="1140" 
d="M567 -395h-274l162 397l-439 1042h285l283 -722h2l245 722h279zM688 1149h-217l244 387h252z" />
    <glyph glyph-name="thorn" unicode="&#xfe;" horiz-adv-x="1267" 
d="M930 522q0 157 -77 246.5t-202 89.5q-140 0 -235 -117v-458q41 -43 99.5 -70t125.5 -27q132 0 210.5 88t78.5 248zM1194 522q0 -260 -136 -409.5t-353 -149.5q-172 0 -287 84h-2v-442h-250v1931h250v-573h2q134 118 313 118q204 0 333.5 -151.5t129.5 -407.5z" />
    <glyph glyph-name="ydieresis" unicode="&#xff;" horiz-adv-x="1140" 
d="M567 -395h-274l162 397l-439 1042h285l283 -722h2l245 722h279zM469 1315h-246v221h246v-221zM920 1315h-248v221h248v-221z" />
    <glyph glyph-name="Amacron" unicode="&#x100;" horiz-adv-x="1404" 
d="M1378 0h-291l-131 358h-518l-131 -358h-280l559 1434h231zM870 592l-172 475h-2l-174 -475h348zM1038 1495h-671v172h671v-172z" />
    <glyph glyph-name="amacron" unicode="&#x101;" horiz-adv-x="1161" 
d="M1010 0h-244v78h-2q-128 -115 -303 -115q-151 0 -251.5 90t-100.5 244q0 156 102.5 249t286.5 93q150 0 262 -64v74q0 109 -72 161t-192 52q-90 0 -174.5 -39.5t-143.5 -101.5h-6v250q157 110 375 110q100 0 182.5 -25t146 -76t99 -135.5t35.5 -195.5v-649zM760 276v105
q-86 53 -215 53q-189 0 -189 -125q0 -57 48.5 -95t136.5 -38q136 0 219 100zM928 1323h-713v190h713v-190z" />
    <glyph glyph-name="Abreve" unicode="&#x102;" horiz-adv-x="1404" 
d="M1378 0h-291l-131 358h-518l-131 -358h-280l559 1434h26q-99 19 -160 79t-73 154h180q28 -86 143 -86q117 0 142 86h182q-13 -94 -74.5 -154t-160.5 -79h26zM870 592l-172 475h-2l-174 -475h348z" />
    <glyph glyph-name="abreve" unicode="&#x103;" horiz-adv-x="1161" 
d="M1010 0h-244v78h-2q-128 -115 -303 -115q-151 0 -251.5 90t-100.5 244q0 156 102.5 249t286.5 93q150 0 262 -64v74q0 109 -72 161t-192 52q-90 0 -174.5 -39.5t-143.5 -101.5h-6v250q157 110 375 110q100 0 182.5 -25t146 -76t99 -135.5t35.5 -195.5v-649zM760 276v105
q-86 53 -215 53q-189 0 -189 -125q0 -57 48.5 -95t136.5 -38q136 0 219 100zM582 1202q-164 0 -255.5 91t-105.5 243h187q12 -76 57.5 -121t116.5 -45t116.5 45t57.5 121h186q-14 -152 -105 -243t-255 -91z" />
    <glyph glyph-name="Aogonek" unicode="&#x104;" horiz-adv-x="1404" 
d="M1364 -350q-92 -45 -205 -45q-108 0 -162.5 45t-54.5 114q0 110 145 236l-131 358h-518l-131 -358h-280l559 1434h231l561 -1434h-118q-67 -63 -94 -101.5t-27 -74.5q0 -32 22.5 -49t61.5 -17q67 0 135 52h6v-160zM870 592l-172 475h-2l-174 -475h348z" />
    <glyph glyph-name="aogonek" unicode="&#x105;" horiz-adv-x="1161" 
d="M1044 -350q-92 -45 -204 -45q-108 0 -162.5 45t-54.5 114q0 110 145 236h-2v78h-2q-128 -115 -303 -115q-151 0 -251.5 90t-100.5 244q0 156 102.5 249t286.5 93q150 0 262 -64v74q0 109 -72 161t-192 52q-90 0 -174.5 -39.5t-143.5 -101.5h-6v250q157 110 375 110
q100 0 182.5 -25t146 -76t99 -135.5t35.5 -195.5v-649h-70q-67 -63 -94 -101.5t-27 -74.5q0 -32 22.5 -49t61.5 -17q67 0 135 52h6v-160zM760 276v105q-86 53 -215 53q-189 0 -189 -125q0 -57 48.5 -95t136.5 -38q136 0 219 100z" />
    <glyph glyph-name="Cacute" unicode="&#x106;" horiz-adv-x="1253" 
d="M1149 406v-306q-180 -137 -426 -137q-135 0 -250.5 49t-201 140.5t-134.5 232t-49 313.5q0 306 144.5 499.5t385.5 227.5l134 213h260l-174 -215q174 -23 303 -127v-305h-8q-67 92 -164.5 142.5t-206.5 50.5q-183 0 -290 -131.5t-107 -354.5q0 -222 109 -353.5
t296 -131.5q109 0 207.5 51.5t163.5 141.5h8z" />
    <glyph glyph-name="cacute" unicode="&#x107;" horiz-adv-x="966" 
d="M629 1149h-217l243 387h252zM883 334v-266q-134 -105 -324 -105q-102 0 -190.5 37.5t-155 106.5t-105 176t-38.5 239q0 255 135 407t350 152q200 0 322 -102v-266h-7q-47 65 -121 106t-153 41q-120 0 -192 -94t-72 -246t77.5 -245t208.5 -93q75 0 145 42.5t114 109.5h6z
" />
    <glyph glyph-name="Ccircumflex" unicode="&#x108;" horiz-adv-x="1253" 
d="M1047 1397h-93q112 -40 187 -101v-305h-8q-67 92 -164.5 142.5t-206.5 50.5q-183 0 -290 -131.5t-107 -354.5q0 -222 109 -353.5t296 -131.5q109 0 207.5 51.5t163.5 141.5h8v-306q-180 -137 -426 -137q-135 0 -250.5 49t-201 140.5t-134.5 232t-49 313.5
q0 263 109.5 446.5t298.5 252.5h-105l221 262h213zM715 1434q30 0 88 -4l-82 94h-2l-84 -97q44 7 80 7z" />
    <glyph glyph-name="ccircumflex" unicode="&#x109;" horiz-adv-x="966" 
d="M932 1151h-217l-168 227h-2l-170 -227h-217l288 395h197zM883 334v-266q-134 -105 -324 -105q-102 0 -190.5 37.5t-155 106.5t-105 176t-38.5 239q0 255 135 407t350 152q200 0 322 -102v-266h-7q-47 65 -121 106t-153 41q-120 0 -192 -94t-72 -246t77.5 -245t208.5 -93
q75 0 145 42.5t114 109.5h6z" />
    <glyph glyph-name="Cdotaccent" unicode="&#x10a;" horiz-adv-x="1253" 
d="M850 1473h-266v194h266v-194zM1149 406v-306q-180 -137 -426 -137q-135 0 -250.5 49t-201 140.5t-134.5 232t-49 313.5q0 337 173.5 536.5t453.5 199.5q255 0 426 -138v-305h-8q-67 92 -164.5 142.5t-206.5 50.5q-183 0 -290 -131.5t-107 -354.5q0 -222 109 -353.5
t296 -131.5q109 0 207.5 51.5t163.5 141.5h8z" />
    <glyph glyph-name="cdotaccent" unicode="&#x10b;" horiz-adv-x="966" 
d="M883 334v-266q-134 -105 -324 -105q-102 0 -190.5 37.5t-155 106.5t-105 176t-38.5 239q0 255 135 407t350 152q200 0 322 -102v-266h-7q-47 65 -121 106t-153 41q-120 0 -192 -94t-72 -246t77.5 -245t208.5 -93q75 0 145 42.5t114 109.5h6zM657 1315h-266v221h266v-221z
" />
    <glyph glyph-name="Ccaron" unicode="&#x10c;" horiz-adv-x="1253" 
d="M1149 406v-306q-180 -137 -426 -137q-135 0 -250.5 49t-201 140.5t-134.5 232t-49 313.5q0 295 135 486.5t363 236.5l-191 228h215l111 -127h2l113 127h215l-193 -228q161 -30 283 -125v-305h-8q-67 92 -164.5 142.5t-206.5 50.5q-183 0 -290 -131.5t-107 -354.5
q0 -222 109 -353.5t296 -131.5q109 0 207.5 51.5t163.5 141.5h8z" />
    <glyph glyph-name="ccaron" unicode="&#x10d;" horiz-adv-x="966" 
d="M612 1139h-196l-289 397h217l168 -229h2l170 229h217zM883 334v-266q-134 -105 -324 -105q-102 0 -190.5 37.5t-155 106.5t-105 176t-38.5 239q0 255 135 407t350 152q200 0 322 -102v-266h-7q-47 65 -121 106t-153 41q-120 0 -192 -94t-72 -246t77.5 -245t208.5 -93
q75 0 145 42.5t114 109.5h6z" />
    <glyph glyph-name="Dcaron" unicode="&#x10e;" horiz-adv-x="1474" 
d="M1386 698q0 -138 -37 -253t-102.5 -196.5t-155.5 -138t-195 -83.5t-222 -27h-484v1397h330l-213 252h215l111 -127h2l113 127h215l-215 -256q134 -10 248 -59t202 -133t138 -213.5t50 -289.5zM1118 698q0 146 -60 249.5t-160 152.5t-230 49h-213v-901h213q130 0 229.5 48
t160 151.5t60.5 250.5z" />
    <glyph glyph-name="dcaron" unicode="&#x10f;" horiz-adv-x="1529" 
d="M1384 1128h-190l111 408h223zM1104 0h-248v82h-2q-138 -119 -317 -119q-204 0 -333.5 151.5t-129.5 407.5q0 259 136.5 409t352.5 150q166 0 289 -84h2v539h250v-1536zM854 303v457q-94 98 -227 98q-132 0 -210.5 -88t-78.5 -248q0 -158 76 -247t202 -89q143 0 238 117z
" />
    <glyph glyph-name="Dcroat" unicode="&#x110;" horiz-adv-x="1474" 
d="M1386 698q0 -138 -37 -253t-102.5 -196.5t-155.5 -138t-195 -83.5t-222 -27h-484v608h-190v211h190v578h484q146 0 273 -44t226 -128t156 -220t57 -307zM1118 698q0 146 -60 249.5t-160 152.5t-230 49h-213v-330h336v-211h-336v-360h213q130 0 229.5 48t160 151.5
t60.5 250.5z" />
    <glyph glyph-name="dcroat" unicode="&#x111;" horiz-adv-x="1267" 
d="M1104 0h-248v82h-2q-138 -119 -317 -119q-204 0 -333.5 151.5t-129.5 407.5q0 259 136.5 409t352.5 150q166 0 289 -84h2v201h-375v199h375v139h250v-139h164v-199h-164v-1198zM854 303v457q-94 98 -227 98q-132 0 -210.5 -88t-78.5 -248q0 -158 76 -247t202 -89
q143 0 238 117z" />
    <glyph glyph-name="Emacron" unicode="&#x112;" horiz-adv-x="1124" 
d="M903 1495h-672v172h672v-172zM999 0h-809v1397h756v-248h-491v-309h471v-252h-471v-340h544v-248z" />
    <glyph glyph-name="emacron" unicode="&#x113;" horiz-adv-x="1153" 
d="M1016 72q-153 -109 -387 -109q-249 0 -404 149t-155 410q0 257 138 408t370 151q101 0 190 -35t155 -98.5t104 -157.5t38 -206q0 -49 -4 -119h-727q12 -136 103.5 -210.5t242.5 -74.5q96 0 183 38t147 99h6v-245zM803 670q-5 84 -67 138t-158 54q-101 0 -165 -49.5
t-79 -142.5h469zM932 1323h-713v190h713v-190z" />
    <glyph glyph-name="Ebreve" unicode="&#x114;" horiz-adv-x="1124" 
d="M561 1425q-136 0 -222 63.5t-101 178.5h180q28 -86 143 -86q116 0 141 86h183q-15 -115 -101.5 -178.5t-222.5 -63.5zM999 0h-809v1397h756v-248h-491v-309h471v-252h-471v-340h544v-248z" />
    <glyph glyph-name="ebreve" unicode="&#x115;" horiz-adv-x="1153" 
d="M1016 72q-153 -109 -387 -109q-249 0 -404 149t-155 410q0 257 138 408t370 151q101 0 190 -35t155 -98.5t104 -157.5t38 -206q0 -49 -4 -119h-727q12 -136 103.5 -210.5t242.5 -74.5q96 0 183 38t147 99h6v-245zM803 670q-5 84 -67 138t-158 54q-101 0 -165 -49.5
t-79 -142.5h469zM575 1202q-164 0 -255 91t-105 243h186q12 -76 57.5 -121t116.5 -45t117 45t58 121h186q-14 -152 -105.5 -243t-255.5 -91z" />
    <glyph glyph-name="Edotaccent" unicode="&#x116;" horiz-adv-x="1124" 
d="M694 1473h-266v194h266v-194zM999 0h-809v1397h756v-248h-491v-309h471v-252h-471v-340h544v-248z" />
    <glyph glyph-name="edotaccent" unicode="&#x117;" horiz-adv-x="1153" 
d="M1016 72q-153 -109 -387 -109q-249 0 -404 149t-155 410q0 257 138 408t370 151q101 0 190 -35t155 -98.5t104 -157.5t38 -206q0 -49 -4 -119h-727q12 -136 103.5 -210.5t242.5 -74.5q96 0 183 38t147 99h6v-245zM803 670q-5 84 -67 138t-158 54q-101 0 -165 -49.5
t-79 -142.5h469zM709 1315h-267v221h267v-221z" />
    <glyph glyph-name="Eogonek" unicode="&#x118;" horiz-adv-x="1124" 
d="M999 0h-104q-67 -63 -94 -101.5t-27 -74.5q0 -32 22.5 -49t61.5 -17q67 0 135 52h6v-160q-92 -45 -204 -45q-108 0 -162.5 45t-54.5 114q0 110 145 236h-533v1397h756v-248h-491v-309h471v-252h-471v-340h544v-248z" />
    <glyph glyph-name="eogonek" unicode="&#x119;" horiz-adv-x="1153" 
d="M1016 -350q-92 -45 -205 -45q-107 0 -162 45t-55 114q0 95 108 203q-25 -4 -73 -4q-249 0 -404 149t-155 410q0 257 138 408t370 151q101 0 190 -35t155 -98.5t104 -157.5t38 -206q0 -49 -4 -119h-727q12 -136 103.5 -210.5t242.5 -74.5q96 0 183 38t147 99h6v-245
q-90 -53 -156.5 -126t-66.5 -122q0 -66 84 -66q68 0 133 52h6v-160zM803 670q-5 84 -67.5 138t-160.5 54q-99 0 -162.5 -48.5t-78.5 -143.5h469z" />
    <glyph glyph-name="Ecaron" unicode="&#x11a;" horiz-adv-x="1124" 
d="M999 0h-809v1397h256l-213 252h216l110 -127h2l113 127h215l-213 -252h270v-248h-491v-309h471v-252h-471v-340h544v-248z" />
    <glyph glyph-name="ecaron" unicode="&#x11b;" horiz-adv-x="1153" 
d="M674 1139h-197l-289 397h218l167 -229h2l170 229h218zM1016 72q-153 -109 -387 -109q-249 0 -404 149t-155 410q0 257 138 408t370 151q101 0 190 -35t155 -98.5t104 -157.5t38 -206q0 -49 -4 -119h-727q12 -136 103.5 -210.5t242.5 -74.5q96 0 183 38t147 99h6v-245z
M803 670q-5 84 -67 138t-158 54q-101 0 -165 -49.5t-79 -142.5h469z" />
    <glyph glyph-name="Gcircumflex" unicode="&#x11c;" horiz-adv-x="1449" 
d="M1092 1397h-64q116 -37 223 -107v-299h-8q-179 195 -434 195q-205 0 -324.5 -131.5t-119.5 -364.5q0 -241 107 -366t273 -125q147 0 240 79t100 248h-405v11l94 237h584q4 -54 4 -129q0 -174 -47 -307t-131.5 -213.5t-194 -121t-241.5 -40.5q-141 0 -261.5 49t-209 141
t-139 232t-50.5 313q0 263 120 446.5t327 252.5h-99l221 262h213zM774 1434q26 0 72 -4l-80 94h-2l-86 -97q54 7 96 7z" />
    <glyph glyph-name="gcircumflex" unicode="&#x11d;" horiz-adv-x="1243" 
d="M1018 1151h-217l-168 227h-2l-170 -227h-217l288 395h197zM838 322v450q-40 40 -95.5 63t-113.5 23q-130 0 -208.5 -84.5t-78.5 -232.5q0 -146 77 -232t199 -86q134 0 220 99zM608 -403q-110 0 -216 27t-181 83v246h8q136 -139 354 -139q130 0 197.5 63.5t67.5 163.5v74
h-2q-127 -115 -312 -115q-93 0 -174 35t-143 101.5t-97.5 170.5t-35.5 234q0 256 134 398t347 142q169 0 305 -102h2l219 82h6v-1002q0 -222 -130.5 -342t-348.5 -120z" />
    <glyph glyph-name="Gbreve" unicode="&#x11e;" horiz-adv-x="1449" 
d="M748 -37q-141 0 -261.5 49t-209 141t-139 232t-50.5 313q0 312 165 508t439 224q-110 14 -178.5 75.5t-81.5 161.5h180q28 -86 144 -86t141 86h182q-13 -97 -78.5 -157t-169.5 -78q233 -14 420 -142v-299h-8q-179 195 -434 195q-205 0 -324.5 -131.5t-119.5 -364.5
q0 -241 107 -366t273 -125q147 0 240 79t100 248h-405v11l94 237h584q4 -54 4 -129q0 -174 -47 -307t-131.5 -213.5t-194 -121t-241.5 -40.5z" />
    <glyph glyph-name="gbreve" unicode="&#x11f;" horiz-adv-x="1243" 
d="M838 322v450q-40 40 -95.5 63t-113.5 23q-130 0 -208.5 -84.5t-78.5 -232.5q0 -146 77 -232t199 -86q134 0 220 99zM608 -403q-110 0 -216 27t-181 83v246h8q136 -139 354 -139q130 0 197.5 63.5t67.5 163.5v74h-2q-127 -115 -312 -115q-93 0 -174 35t-143 101.5
t-97.5 170.5t-35.5 234q0 256 134 398t347 142q169 0 305 -102h2l219 82h6v-1002q0 -222 -130.5 -342t-348.5 -120zM631 1202q-164 0 -255.5 91t-105.5 243h187q12 -76 57.5 -121t116.5 -45t116.5 45t57.5 121h186q-14 -152 -105 -243t-255 -91z" />
    <glyph glyph-name="Gdotaccent" unicode="&#x120;" horiz-adv-x="1449" 
d="M899 1473h-266v194h266v-194zM748 -37q-141 0 -261.5 49t-209 141t-139 232t-50.5 313q0 223 86.5 390.5t242 256.5t357.5 89q266 0 477 -144v-299h-8q-179 195 -434 195q-205 0 -324.5 -131.5t-119.5 -364.5q0 -241 107 -366t273 -125q147 0 240 79t100 248h-405v11
l94 237h584q4 -54 4 -129q0 -174 -47 -307t-131.5 -213.5t-194 -121t-241.5 -40.5z" />
    <glyph glyph-name="gdotaccent" unicode="&#x121;" horiz-adv-x="1243" 
d="M838 322v450q-40 40 -95.5 63t-113.5 23q-130 0 -208.5 -84.5t-78.5 -232.5q0 -146 77 -232t199 -86q134 0 220 99zM608 -403q-110 0 -216 27t-181 83v246h8q136 -139 354 -139q130 0 197.5 63.5t67.5 163.5v74h-2q-127 -115 -312 -115q-93 0 -174 35t-143 101.5
t-97.5 170.5t-35.5 234q0 256 134 398t347 142q169 0 305 -102h2l219 82h6v-1002q0 -222 -130.5 -342t-348.5 -120zM764 1315h-266v221h266v-221z" />
    <glyph glyph-name="Gcommaaccent" unicode="&#x122;" horiz-adv-x="1449" 
d="M657 -395h-215l199 319h252zM748 -37q-141 0 -261.5 49t-209 141t-139 232t-50.5 313q0 223 86.5 390.5t242 256.5t357.5 89q266 0 477 -144v-299h-8q-179 195 -434 195q-205 0 -324.5 -131.5t-119.5 -364.5q0 -241 107 -366t273 -125q147 0 240 79t100 248h-405v11
l94 237h584q4 -54 4 -129q0 -174 -47 -307t-131.5 -213.5t-194 -121t-241.5 -40.5z" />
    <glyph glyph-name="gcommaaccent" unicode="&#x123;" horiz-adv-x="1243" 
d="M748 1217h-250l233 319h217zM838 322v450q-40 40 -95.5 63t-113.5 23q-130 0 -208.5 -84.5t-78.5 -232.5q0 -146 77 -232t199 -86q134 0 220 99zM608 -403q-110 0 -216 27t-181 83v246h8q136 -139 354 -139q130 0 197.5 63.5t67.5 163.5v74h-2q-127 -115 -312 -115
q-93 0 -174 35t-143 101.5t-97.5 170.5t-35.5 234q0 256 134 398t347 142q169 0 305 -102h2l219 82h6v-1002q0 -222 -130.5 -342t-348.5 -120z" />
    <glyph glyph-name="Hcircumflex" unicode="&#x124;" horiz-adv-x="1556" 
d="M1130 1397h259v-1397h-265v598h-647v-598h-264v1397h262l221 262h213zM1124 846v551h-209l-110 127h-2l-113 -127h-213v-551h647z" />
    <glyph glyph-name="hcircumflex" unicode="&#x125;" horiz-adv-x="1257" 
d="M680 1579h-217l-168 227h-2l-170 -227h-217l289 395h196zM1102 0h-250v627q0 114 -58 172.5t-153 58.5q-133 0 -225 -117v-741h-250v1536h250v-573h2q131 118 305 118q163 0 271 -96t108 -278v-707z" />
    <glyph glyph-name="Hbar" unicode="&#x126;" horiz-adv-x="1556" 
d="M1389 0h-265v600h-647v-600h-264v1022h-213v211h213v164h264v-164h647v164h265v-164h170v-211h-170v-1022zM477 848h647v174h-647v-174z" />
    <glyph glyph-name="hbar" unicode="&#x127;" horiz-adv-x="1257" 
d="M1102 0h-250v627q0 114 -58 172.5t-153 58.5q-133 0 -225 -117v-741h-250v1198h-166v199h166v139h250v-139h420v-199h-420v-235h2q131 118 305 118q163 0 271 -96t108 -278v-707z" />
    <glyph glyph-name="Itilde" unicode="&#x128;" horiz-adv-x="651" 
d="M455 0h-265v1397h265v-1397zM471 1425q-53 0 -145 43t-121 43q-15 0 -26.5 -5.5t-17.5 -9.5t-13.5 -20.5t-9 -21.5t-9.5 -29h-158q13 56 26 93.5t36.5 74.5t60 55.5t86.5 18.5q53 0 144.5 -43t121.5 -43q18 0 30.5 5t21 20t12.5 24.5t12 36.5h158q-12 -58 -26 -97
t-37 -74.5t-59.5 -53t-86.5 -17.5z" />
    <glyph glyph-name="itilde" unicode="&#x129;" horiz-adv-x="579" 
d="M416 0h-250v1044h250v-1044zM465 1235q-52 0 -115 30t-119 59.5t-92 29.5q-23 0 -39.5 -16.5t-22 -31t-20.5 -60.5q-3 -7 -4 -11h-155q13 73 28.5 124.5t40.5 93.5t62 62.5t88 20.5q52 0 115 -30t118.5 -59.5t91.5 -29.5q23 0 39.5 16.5t22 31t20.5 60.5q3 7 4 11h156
q-26 -152 -73.5 -226.5t-145.5 -74.5z" />
    <glyph glyph-name="Imacron" unicode="&#x12a;" horiz-adv-x="651" 
d="M455 0h-265v1397h265v-1397zM662 1495h-672v172h672v-172z" />
    <glyph glyph-name="imacron" unicode="&#x12b;" horiz-adv-x="579" 
d="M416 0h-250v1044h250v-1044zM647 1323h-713v190h713v-190z" />
    <glyph glyph-name="Ibreve" unicode="&#x12c;" horiz-adv-x="651" 
d="M455 0h-265v1397h265v-1397zM326 1425q-136 0 -222.5 63.5t-101.5 178.5h180q28 -86 144 -86t141 86h182q-15 -115 -101 -178.5t-222 -63.5z" />
    <glyph glyph-name="ibreve" unicode="&#x12d;" horiz-adv-x="579" 
d="M416 0h-250v1044h250v-1044zM291 1202q-164 0 -255.5 91t-105.5 243h187q12 -76 57.5 -121t116.5 -45t116.5 45t57.5 121h186q-14 -152 -105 -243t-255 -91z" />
    <glyph glyph-name="Iogonek" unicode="&#x12e;" horiz-adv-x="651" 
d="M502 -350q-92 -45 -205 -45q-108 0 -162.5 45t-54.5 114q0 110 145 236h-35v1397h265v-1397h-58q-67 -63 -94 -101.5t-27 -74.5q0 -32 22.5 -49t61.5 -17q68 0 136 52h6v-160z" />
    <glyph glyph-name="iogonek" unicode="&#x12f;" horiz-adv-x="579" 
d="M465 -350q-92 -45 -205 -45q-108 0 -162.5 45t-54.5 114q0 110 145 236h-22v1044h250v-1044h-56q-67 -62 -93.5 -101t-26.5 -75q0 -32 22.5 -49t61.5 -17q67 0 135 52h6v-160zM424 1315h-266v221h266v-221z" />
    <glyph glyph-name="Idotaccent" unicode="&#x130;" horiz-adv-x="651" 
d="M455 0h-265v1397h265v-1397zM457 1473h-267v194h267v-194z" />
    <glyph glyph-name="dotlessi" unicode="&#x131;" horiz-adv-x="579" 
d="M416 0h-250v1044h250v-1044z" />
    <glyph glyph-name="IJ" unicode="&#x132;" horiz-adv-x="1546" 
d="M455 0h-265v1397h265v-1397zM993 -37q-134 0 -229 64v280h8q34 -46 79 -70t91 -24q88 0 130 51.5t42 157.5v725h-364v10l96 240h530v-1024q0 -189 -93 -299.5t-290 -110.5z" />
    <glyph glyph-name="ij" unicode="&#x133;" horiz-adv-x="1159" 
d="M666 -395q-132 0 -215 51v235h6q64 -67 149 -67q67 0 103 40.5t36 119.5v1060h250v-1069q0 -184 -87.5 -277t-241.5 -93zM416 0h-250v1044h250v-1044zM1004 1315h-267v221h267v-221zM424 1315h-266v221h266v-221z" />
    <glyph glyph-name="Jcircumflex" unicode="&#x134;" horiz-adv-x="897" 
d="M762 1397h-37v-1024q0 -189 -93 -299.5t-290 -110.5q-134 0 -229 64v280h8q34 -46 79 -70t91 -24q88 0 130 51.5t42 157.5v725h-365v10l97 240h-89l222 262h213zM434 1524l-112 -127h225l-111 127h-2z" />
    <glyph glyph-name="jcircumflex" unicode="&#x135;" horiz-adv-x="579" 
d="M86 -395q-122 0 -215 57v199h6q62 -62 148 -62q65 0 103 45.5t38 137.5v1062h250v-1077q0 -177 -88.5 -269.5t-241.5 -92.5zM678 1151h-217l-168 227h-2l-170 -227h-217l289 395h196z" />
    <glyph glyph-name="Kcommaaccent" unicode="&#x136;" horiz-adv-x="1314" 
d="M612 -395h-215l199 319h252zM455 0h-265v1397h265v-1397zM1274 0h-320l-473 702v11l453 684h313l-461 -682v-4z" />
    <glyph glyph-name="kcommaaccent" unicode="&#x137;" horiz-adv-x="1140" 
d="M522 -395h-215l199 319h252zM416 0h-250v1536h250v-1536zM1110 0h-301l-373 524v8l357 512h292l-364 -512v-4z" />
    <glyph glyph-name="Lacute" unicode="&#x139;" horiz-adv-x="1030" 
d="M958 0h-768v1397h25l152 241h260l-197 -241h25v-1149h503v-248z" />
    <glyph glyph-name="lacute" unicode="&#x13a;" horiz-adv-x="579" 
d="M395 1577h-217l244 387h252zM416 0h-250v1536h250v-1536z" />
    <glyph glyph-name="Lcommaaccent" unicode="&#x13b;" horiz-adv-x="1030" 
d="M506 -395h-215l198 319h252zM958 0h-768v1397h265v-1149h503v-248z" />
    <glyph glyph-name="lcommaaccent" unicode="&#x13c;" horiz-adv-x="579" 
d="M184 -395h-215l199 319h252zM416 0h-250v1536h250v-1536z" />
    <glyph glyph-name="Lcaron" unicode="&#x13d;" horiz-adv-x="1030" 
d="M737 1128h-190l110 408h224zM958 0h-768v1397h265v-1149h503v-248z" />
    <glyph glyph-name="lcaron" unicode="&#x13e;" horiz-adv-x="811" 
d="M696 1128h-190l110 408h224zM416 0h-250v1536h250v-1536z" />
    <glyph glyph-name="Ldot" unicode="&#x13f;" horiz-adv-x="1089" 
d="M958 0h-768v1397h265v-1143h503v-254zM995 639h-260v268h260v-268z" />
    <glyph glyph-name="ldot" unicode="&#x140;" horiz-adv-x="845" 
d="M416 0h-250v1536h250v-1536zM836 414h-258v268h258v-268z" />
    <glyph glyph-name="Lslash" unicode="&#x141;" horiz-adv-x="1030" 
d="M958 0h-768v518l-190 -90v234l190 92v643h265v-516l350 168v-236l-350 -168v-397h503v-248z" />
    <glyph glyph-name="lslash" unicode="&#x142;" horiz-adv-x="579" 
d="M416 0h-250v700l-166 -77v221l166 80v612h250v-494l164 80v-223l-164 -78v-821z" />
    <glyph glyph-name="Nacute" unicode="&#x143;" horiz-adv-x="1566" 
d="M854 1397h-215l152 241h260zM1376 -18h-213l-706 897h-2v-879h-265v1296l-63 88v13h274l709 -914h2v914h264v-1415z" />
    <glyph glyph-name="nacute" unicode="&#x144;" horiz-adv-x="1282" 
d="M752 1149h-217l243 387h252zM1126 0h-249v627q0 114 -61.5 172.5t-162.5 58.5q-142 0 -237 -117v-741h-250v1044h248v-83h2q133 120 317 120q82 0 152 -23t124.5 -67.5t85.5 -117.5t31 -166v-707z" />
    <glyph glyph-name="Ncommaaccent" unicode="&#x145;" horiz-adv-x="1566" 
d="M731 -395h-215l199 319h252zM1376 -18h-213l-706 897h-2v-879h-265v1296l-63 88v13h274l709 -914h2v914h264v-1415z" />
    <glyph glyph-name="ncommaaccent" unicode="&#x146;" horiz-adv-x="1282" 
d="M567 -395h-215l199 319h252zM1126 0h-249v627q0 114 -61.5 172.5t-162.5 58.5q-142 0 -237 -117v-741h-250v1044h248v-83h2q133 120 317 120q82 0 152 -23t124.5 -67.5t85.5 -117.5t31 -166v-707z" />
    <glyph glyph-name="Ncaron" unicode="&#x147;" horiz-adv-x="1566" 
d="M889 1386h-213l-221 263h215l110 -127h2l113 127h215zM1376 -18h-213l-706 897h-2v-879h-265v1296l-63 88v13h274l709 -914h2v914h264v-1415z" />
    <glyph glyph-name="ncaron" unicode="&#x148;" horiz-adv-x="1282" 
d="M739 1139h-196l-289 397h217l168 -229h2l170 229h217zM1126 0h-249v627q0 114 -61.5 172.5t-162.5 58.5q-142 0 -237 -117v-741h-250v1044h248v-83h2q133 120 317 120q82 0 152 -23t124.5 -67.5t85.5 -117.5t31 -166v-707z" />
    <glyph glyph-name="Eng" unicode="&#x14a;" horiz-adv-x="1566" 
d="M1026 -395q-132 0 -213 63v234h8q29 -27 73 -43.5t87 -16.5q59 0 97 37t38 101v20l-659 866h-2v-866h-265v1296l-63 88v13h274l709 -932h2v932h264v-1415q0 -185 -91.5 -281t-258.5 -96z" />
    <glyph glyph-name="eng" unicode="&#x14b;" horiz-adv-x="1282" 
d="M807 -395q-124 0 -207 51v227h8q63 -59 133 -59q63 0 99.5 42.5t36.5 129.5v631q0 114 -61.5 172.5t-162.5 58.5q-142 0 -237 -117v-741h-250v1044h248v-83h2q133 120 317 120q82 0 152 -23t124.5 -67.5t85.5 -117.5t31 -166v-732q0 -178 -85.5 -274t-233.5 -96z" />
    <glyph glyph-name="Omacron" unicode="&#x14c;" horiz-adv-x="1538" 
d="M1104 1495h-672v172h672v-172zM1450 698q0 -171 -52 -310.5t-144 -232t-217 -142.5t-271 -50q-141 0 -264 49.5t-215.5 141.5t-145.5 232t-53 312q0 171 52.5 310.5t144.5 232.5t217.5 143t271.5 50q141 0 264 -50t214.5 -142t144.5 -232.5t53 -311.5zM1176 698
q0 230 -113 360t-289 130q-178 0 -293.5 -128t-115.5 -362q0 -230 112.5 -360.5t288.5 -130.5q178 0 294 128.5t116 362.5z" />
    <glyph glyph-name="omacron" unicode="&#x14d;" horiz-adv-x="1224" 
d="M969 1323h-713v190h713v-190zM893 522q0 157 -76.5 248.5t-202.5 91.5q-127 0 -204.5 -90t-77.5 -250q0 -158 76 -249t202 -91q128 0 205.5 89.5t77.5 250.5zM1157 522q0 -257 -152 -408t-395 -151q-156 0 -277.5 66t-192 194t-70.5 299q0 257 150.5 408t393.5 151
q239 0 391 -151t152 -408z" />
    <glyph glyph-name="Obreve" unicode="&#x14e;" horiz-adv-x="1538" 
d="M1450 698q0 -171 -52 -310.5t-144 -232t-217 -142.5t-271 -50q-141 0 -264 49.5t-215.5 141.5t-145.5 232t-53 312q0 160 46 292.5t127.5 224.5t193 147.5t243.5 67.5q-107 15 -174.5 77t-79.5 160h181q28 -86 143 -86q116 0 141 86h183q-13 -99 -80 -160.5t-172 -76.5
q130 -11 241 -65.5t193 -146.5t129 -225.5t47 -294.5zM1176 698q0 230 -113 360t-289 130q-178 0 -293.5 -128t-115.5 -362q0 -230 112.5 -360.5t288.5 -130.5q178 0 294 128.5t116 362.5z" />
    <glyph glyph-name="obreve" unicode="&#x14f;" horiz-adv-x="1224" 
d="M893 522q0 157 -76.5 248.5t-202.5 91.5q-127 0 -204.5 -90t-77.5 -250q0 -158 76 -249t202 -91q128 0 205.5 89.5t77.5 250.5zM1157 522q0 -257 -152 -408t-395 -151q-156 0 -277.5 66t-192 194t-70.5 299q0 257 150.5 408t393.5 151q239 0 391 -151t152 -408zM612 1202
q-164 0 -255 91t-105 243h186q12 -76 57.5 -121t116.5 -45t116.5 45t57.5 121h187q-14 -152 -105.5 -243t-255.5 -91z" />
    <glyph glyph-name="Ohungarumlaut" unicode="&#x150;" horiz-adv-x="1538" 
d="M1061 1397h-57q202 -68 324 -250t122 -449q0 -171 -52 -310.5t-144 -232t-217 -142.5t-271 -50q-141 0 -264 49.5t-215.5 141.5t-145.5 232t-53 312q0 266 121.5 447.5t327.5 251.5h-93l152 241h260l-168 -208q54 4 86 4q37 0 88 -7l133 211h260zM1176 698
q0 230 -113 360t-289 130q-178 0 -293.5 -128t-115.5 -362q0 -230 112.5 -360.5t288.5 -130.5q178 0 294 128.5t116 362.5z" />
    <glyph glyph-name="ohungarumlaut" unicode="&#x151;" horiz-adv-x="1224" 
d="M528 1149h-217l244 387h252zM918 1149h-218l244 387h252zM893 522q0 157 -76.5 248.5t-202.5 91.5q-127 0 -204.5 -90t-77.5 -250q0 -158 76 -249t202 -91q128 0 205.5 89.5t77.5 250.5zM1157 522q0 -257 -152 -408t-395 -151q-156 0 -277.5 66t-192 194t-70.5 299
q0 257 150.5 408t393.5 151q239 0 391 -151t152 -408z" />
    <glyph glyph-name="OE" unicode="&#x152;" horiz-adv-x="1961" 
d="M1839 0h-770v68q-137 -105 -340 -105q-103 0 -198.5 31t-176 93t-140 149t-93 206t-33.5 256q0 170 51.5 310.5t140 232.5t206 142.5t251.5 50.5q198 0 332 -107v70h717v-248h-492v-313h471v-248h-471v-340h545v-248zM1030 317v760q-109 109 -256 109q-179 0 -294 -126.5
t-115 -361.5q0 -229 112.5 -358t288.5 -129q158 0 264 106z" />
    <glyph glyph-name="oe" unicode="&#x153;" horiz-adv-x="1968" 
d="M1831 72q-156 -109 -387 -109q-142 0 -257.5 52.5t-176.5 152.5h-2q-59 -96 -163 -150.5t-235 -54.5q-156 0 -277.5 66t-192 194t-70.5 299q0 257 150.5 408t393.5 151q126 0 225.5 -51.5t159.5 -140.5h2q54 95 157.5 143.5t234.5 48.5q100 0 189 -35t155 -98
t104.5 -156.5t38.5 -205.5q0 -72 -6 -121h-727q13 -141 105 -213t241 -72q98 0 184 37t146 98h8v-243zM893 522q0 157 -76.5 248.5t-202.5 91.5q-127 0 -204.5 -90t-77.5 -250q0 -157 76 -248.5t202 -91.5q127 0 205 90t78 250zM1618 670q-6 84 -69.5 138t-159.5 54
q-97 0 -162 -50.5t-78 -141.5h469z" />
    <glyph glyph-name="Racute" unicode="&#x154;" horiz-adv-x="1337" 
d="M678 1397q218 -5 348.5 -113.5t130.5 -306.5q0 -156 -67.5 -260.5t-215.5 -169.5v-4l412 -543h-323l-482 653v11q226 35 317 102t91 176q0 98 -71 154.5t-200 56.5h-163v-1153h-265v1397h273l151 241h260z" />
    <glyph glyph-name="racute" unicode="&#x155;" horiz-adv-x="831" 
d="M532 1149h-217l244 387h252zM420 0h-250v1044h238v-88h2q132 125 262 125q61 0 108 -20v-248h-6q-61 39 -129 39q-60 0 -112 -27.5t-113 -81.5v-743z" />
    <glyph glyph-name="Rcommaaccent" unicode="&#x156;" horiz-adv-x="1337" 
d="M621 -395h-215l198 319h252zM1286 0h-323l-482 653v11q226 35 317 102t91 176q0 98 -71 154.5t-200 56.5h-163v-1153h-265v1397h474q224 0 358.5 -108.5t134.5 -311.5q0 -156 -67.5 -260.5t-215.5 -169.5v-4z" />
    <glyph glyph-name="rcommaaccent" unicode="&#x157;" horiz-adv-x="831" 
d="M203 -395h-215l198 319h252zM420 0h-250v1044h238v-88h2q132 125 262 125q61 0 108 -20v-248h-6q-61 39 -129 39q-60 0 -112 -27.5t-113 -81.5v-743z" />
    <glyph glyph-name="Rcaron" unicode="&#x158;" horiz-adv-x="1337" 
d="M1286 0h-323l-482 653v11q226 35 317 102t91 176q0 98 -71 154.5t-200 56.5h-163v-1153h-265v1397h308l-213 252h215l110 -127h2l113 127h215l-215 -254q198 -16 315 -123t117 -295q0 -156 -67.5 -260.5t-215.5 -169.5v-4z" />
    <glyph glyph-name="rcaron" unicode="&#x159;" horiz-adv-x="831" 
d="M547 1139h-197l-289 397h218l167 -229h3l169 229h218zM420 0h-250v1044h238v-88h2q132 125 262 125q61 0 108 -20v-248h-6q-61 39 -129 39q-60 0 -112 -27.5t-113 -81.5v-743z" />
    <glyph glyph-name="Sacute" unicode="&#x15a;" horiz-adv-x="1122" 
d="M1018 379q0 -181 -126 -298.5t-345 -117.5q-250 0 -412 125v283h6q71 -83 176 -128.5t209 -45.5q109 0 168.5 40.5t59.5 120.5q0 56 -34 98t-88 70.5t-119 56t-130.5 62.5t-119.5 81t-88 121t-34 173q0 72 20 136.5t60.5 120.5t108.5 95t157 53l134 213h260l-176 -215
q152 -25 264 -114v-283h-6q-68 85 -162.5 129.5t-190.5 44.5q-98 0 -150 -41t-52 -112q0 -55 33.5 -97.5t87.5 -71t119 -56t130 -63t119 -82t87.5 -123t33.5 -175.5z" />
    <glyph glyph-name="sacute" unicode="&#x15b;" horiz-adv-x="960" 
d="M565 1149h-217l244 387h252zM848 293q0 -153 -99.5 -241.5t-293.5 -88.5q-201 0 -332 92v248h6q56 -63 142 -99t175 -36q74 0 116 28t42 76q0 37 -26.5 65t-68.5 47t-92.5 37.5t-101.5 45t-93 61.5t-68.5 94t-26.5 136q0 149 94 236t271 87q191 0 319 -92v-250h-6
q-55 61 -132.5 99.5t-160.5 38.5q-66 0 -101.5 -29t-35.5 -74q0 -36 26 -63t68 -45.5t92.5 -37t100.5 -44.5t92 -60.5t68 -94t26 -136.5z" />
    <glyph glyph-name="Scircumflex" unicode="&#x15c;" horiz-adv-x="1122" 
d="M907 1397h-98q87 -31 160 -88v-283h-6q-68 85 -162.5 129.5t-190.5 44.5q-98 0 -150 -41t-52 -112q0 -55 33.5 -97.5t87.5 -71t119 -56t130 -63t119 -82t87.5 -123t33.5 -175.5q0 -181 -126 -298.5t-345 -117.5q-250 0 -412 125v283h6q71 -83 176 -128.5t209 -45.5
q109 0 168.5 40.5t59.5 120.5q0 56 -34 98t-88 70.5t-119 56t-130.5 62.5t-119.5 81t-88 121t-34 173q0 125 59 226.5t177 150.5h-125l221 262h213zM588 1434q22 0 76 -4l-82 94h-2l-86 -99q65 9 94 9z" />
    <glyph glyph-name="scircumflex" unicode="&#x15d;" horiz-adv-x="960" 
d="M868 1151h-217l-168 227h-2l-170 -227h-217l289 395h197zM848 293q0 -153 -99.5 -241.5t-293.5 -88.5q-201 0 -332 92v248h6q56 -63 142 -99t175 -36q74 0 116 28t42 76q0 37 -26.5 65t-68.5 47t-92.5 37.5t-101.5 45t-93 61.5t-68.5 94t-26.5 136q0 149 94 236t271 87
q191 0 319 -92v-250h-6q-55 61 -132.5 99.5t-160.5 38.5q-66 0 -101.5 -29t-35.5 -74q0 -36 26 -63t68 -45.5t92.5 -37t100.5 -44.5t92 -60.5t68 -94t26 -136.5z" />
    <glyph glyph-name="Scedilla" unicode="&#x15e;" horiz-adv-x="1122" 
d="M768 -236q0 -73 -64.5 -116t-179.5 -43q-129 0 -211 35v127h6q73 -43 158 -43q88 0 88 47q0 32 -39 44t-129 17l37 139q-177 21 -299 117v283h6q71 -83 176 -128.5t209 -45.5q109 0 168.5 40.5t59.5 120.5q0 56 -34 98t-88 70.5t-119 56t-130.5 62.5t-119.5 81t-88 121
t-34 173q0 82 25.5 154t77.5 131.5t140.5 94t203.5 34.5q106 0 206.5 -32t174.5 -93v-283h-6q-68 85 -162.5 129.5t-190.5 44.5q-98 0 -150 -41t-52 -112q0 -55 33.5 -97.5t87.5 -71t119 -56t130 -63t119 -82t87.5 -123t33.5 -175.5q0 -167 -108 -280.5t-300 -131.5l-12 -51
q170 -28 170 -152z" />
    <glyph glyph-name="scedilla" unicode="&#x15f;" horiz-adv-x="960" 
d="M698 -236q0 -73 -64 -116t-179 -43q-129 0 -211 35v127h6q73 -43 158 -43q88 0 88 47q0 32 -39 44t-129 17l37 137q-143 15 -242 86v248h6q56 -63 142 -99t175 -36q74 0 116 28t42 76q0 37 -26.5 65t-68.5 47t-92.5 37.5t-101.5 45t-93 61.5t-68.5 94t-26.5 136
q0 149 94 236t271 87q191 0 319 -92v-250h-6q-55 61 -132.5 99.5t-160.5 38.5q-66 0 -101.5 -29t-35.5 -74q0 -36 26 -63t68 -45.5t92.5 -37t100.5 -44.5t92 -60.5t68 -94t26 -136.5q0 -134 -77 -219t-228 -105l-15 -53q170 -28 170 -152z" />
    <glyph glyph-name="Scaron" unicode="&#x160;" horiz-adv-x="1122" 
d="M1018 379q0 -181 -126 -298.5t-345 -117.5q-250 0 -412 125v283h6q71 -83 176 -128.5t209 -45.5q109 0 168.5 40.5t59.5 120.5q0 56 -34 98t-88 70.5t-119 56t-130.5 62.5t-119.5 81t-88 121t-34 173q0 144 77.5 254t232.5 145l-193 230h215l111 -127h2l112 127h215
l-192 -230q150 -30 248 -110v-283h-6q-68 85 -162.5 129.5t-190.5 44.5q-98 0 -150 -41t-52 -112q0 -55 33.5 -97.5t87.5 -71t119 -56t130 -63t119 -82t87.5 -123t33.5 -175.5z" />
    <glyph glyph-name="scaron" unicode="&#x161;" horiz-adv-x="960" 
d="M578 1139h-197l-289 397h217l168 -229h2l170 229h217zM848 293q0 -153 -99.5 -241.5t-293.5 -88.5q-201 0 -332 92v248h6q56 -63 142 -99t175 -36q74 0 116 28t42 76q0 37 -26.5 65t-68.5 47t-92.5 37.5t-101.5 45t-93 61.5t-68.5 94t-26.5 136q0 149 94 236t271 87
q191 0 319 -92v-250h-6q-55 61 -132.5 99.5t-160.5 38.5q-66 0 -101.5 -29t-35.5 -74q0 -36 26 -63t68 -45.5t92.5 -37t100.5 -44.5t92 -60.5t68 -94t26 -136.5z" />
    <glyph glyph-name="Tcommaaccent" unicode="&#x162;" horiz-adv-x="1142" 
d="M467 -395h-215l199 319h251zM705 -2h-265v1149h-379v248h1020v-248h-376v-1149z" />
    <glyph glyph-name="Tcommaaccent" unicode="&#x21a;" horiz-adv-x="1142" 
d="M467 -395h-215l199 319h251zM705 -2h-265v1149h-379v248h1020v-248h-376v-1149z" />
    <glyph glyph-name="tcommaaccent" unicode="&#x163;" horiz-adv-x="724" 
d="M209 -395h-215l199 319h251zM432 0h-250v825h-104v11l104 208v312h250v-312h242v-219h-242v-825z" />
    <glyph glyph-name="tcommaaccent" unicode="&#x21b;" horiz-adv-x="724" 
d="M209 -395h-215l199 319h251zM432 0h-250v825h-104v11l104 208v312h250v-312h242v-219h-242v-825z" />
    <glyph glyph-name="Tcaron" unicode="&#x164;" horiz-adv-x="1142" 
d="M705 -2h-265v1149h-379v248h396l-213 254h215l110 -127h2l113 127h215l-215 -254h397v-248h-376v-1149z" />
    <glyph glyph-name="tcaron" unicode="&#x165;" horiz-adv-x="835" 
d="M715 1128h-191l111 408h223zM432 0h-250v825h-104v11l104 208v312h250v-312h242v-219h-242v-825z" />
    <glyph glyph-name="Tbar" unicode="&#x166;" horiz-adv-x="1142" 
d="M705 0h-265v494h-256v211h256v444h-379v248h1020v-248h-376v-444h253v-211h-253v-494z" />
    <glyph glyph-name="tbar" unicode="&#x167;" horiz-adv-x="724" 
d="M432 0h-250v369h-141v198h141v258h-104v11l104 208v312h250v-312h242v-219h-242v-258h217v-198h-217v-369z" />
    <glyph glyph-name="Utilde" unicode="&#x168;" horiz-adv-x="1370" 
d="M840 1425q-53 0 -145.5 43t-121.5 43q-17 0 -29 -5.5t-19.5 -16.5t-12.5 -23t-11 -31q-2 -7 -3 -10h-158q13 56 26 93.5t36.5 74.5t60 55.5t86.5 18.5q53 0 144.5 -43t121.5 -43q18 0 30.5 5t21 20t12.5 24.5t12 36.5h158q-12 -58 -26 -97t-37 -74.5t-59.5 -53
t-86.5 -17.5zM686 -37q-240 0 -378 123t-138 352v959h264v-930q0 -128 64 -192t182 -64q117 0 181.5 64t64.5 192v930h274v-959q0 -229 -137.5 -352t-376.5 -123z" />
    <glyph glyph-name="utilde" unicode="&#x169;" horiz-adv-x="1239" 
d="M1087 1044v-634q0 -209 -125 -328t-346 -119q-216 0 -340 118.5t-124 328.5v634h249v-626q0 -119 56.5 -177.5t160.5 -58.5q103 0 161.5 59t58.5 177v626h249zM803 1235q-52 0 -115 30t-119 59.5t-92 29.5q-23 0 -39.5 -16.5t-22 -31t-20.5 -60.5q-3 -7 -4 -11h-155
q13 73 28.5 124.5t40.5 93.5t62 62.5t88 20.5q52 0 115 -30t118.5 -59.5t91.5 -29.5q23 0 39.5 16.5t22 31t20.5 60.5q3 7 4 11h156q-26 -152 -73.5 -226.5t-145.5 -74.5z" />
    <glyph glyph-name="Umacron" unicode="&#x16a;" horiz-adv-x="1370" 
d="M1020 1495h-672v172h672v-172zM686 -37q-240 0 -378 123t-138 352v959h264v-930q0 -128 64 -192t182 -64q117 0 181.5 64t64.5 192v930h274v-959q0 -229 -137.5 -352t-376.5 -123z" />
    <glyph glyph-name="umacron" unicode="&#x16b;" horiz-adv-x="1239" 
d="M1087 1044v-634q0 -209 -125 -328t-346 -119q-216 0 -340 118.5t-124 328.5v634h249v-626q0 -119 56.5 -177.5t160.5 -58.5q103 0 161.5 59t58.5 177v626h249zM975 1323h-713v190h713v-190z" />
    <glyph glyph-name="Ubreve" unicode="&#x16c;" horiz-adv-x="1370" 
d="M680 1425q-136 0 -222.5 63.5t-101.5 178.5h181q28 -86 143 -86q116 0 141 86h183q-15 -115 -101.5 -178.5t-222.5 -63.5zM686 -37q-240 0 -378 123t-138 352v959h264v-930q0 -128 64 -192t182 -64q117 0 181.5 64t64.5 192v930h274v-959q0 -229 -137.5 -352t-376.5 -123
z" />
    <glyph glyph-name="ubreve" unicode="&#x16d;" horiz-adv-x="1239" 
d="M1087 1044v-634q0 -209 -125 -328t-346 -119q-216 0 -340 118.5t-124 328.5v634h249v-626q0 -119 56.5 -177.5t160.5 -58.5q103 0 161.5 59t58.5 177v626h249zM618 1202q-164 0 -255 91t-105 243h186q12 -76 57.5 -121t116.5 -45t117 45t58 121h186q-14 -152 -105.5 -243
t-255.5 -91z" />
    <glyph glyph-name="Uring" unicode="&#x16e;" horiz-adv-x="1370" 
d="M686 -37q-240 0 -378 123t-138 352v959h264v-930q0 -128 64 -192t182 -64q117 0 181.5 64t64.5 192v930h274v-959q0 -229 -137.5 -352t-376.5 -123zM938 1587q0 -93 -71 -141.5t-183 -48.5q-114 0 -183 48.5t-69 141.5q0 92 71.5 140.5t184.5 48.5q111 0 180.5 -48.5
t69.5 -140.5zM784 1587q0 33 -27 52.5t-71 19.5q-45 0 -73.5 -19.5t-28.5 -52.5q0 -35 28.5 -54.5t73.5 -19.5q44 0 71 19.5t27 54.5z" />
    <glyph glyph-name="uring" unicode="&#x16f;" horiz-adv-x="1239" 
d="M872 1380q0 -97 -72.5 -148.5t-183.5 -51.5t-182.5 51.5t-71.5 148.5q0 96 73.5 147.5t185.5 51.5q110 0 180.5 -51.5t70.5 -147.5zM709 1380q0 36 -23.5 57t-67.5 21q-45 0 -69.5 -21t-24.5 -57q0 -82 94 -82q91 0 91 82zM1087 1044v-634q0 -209 -125 -328t-346 -119
q-216 0 -340 118.5t-124 328.5v634h249v-626q0 -119 56.5 -177.5t160.5 -58.5q103 0 161.5 59t58.5 177v626h249z" />
    <glyph glyph-name="Uhungarumlaut" unicode="&#x170;" horiz-adv-x="1370" 
d="M969 1397h231v-959q0 -229 -137.5 -352t-376.5 -123q-240 0 -378 123t-138 352v959h182l152 241h260l-195 -241h-135v-930q0 -128 64 -192t182 -64q117 0 181.5 64t64.5 192v930h-174l151 241h260z" />
    <glyph glyph-name="uhungarumlaut" unicode="&#x171;" horiz-adv-x="1239" 
d="M1087 1044v-634q0 -209 -125 -328t-346 -119q-216 0 -340 118.5t-124 328.5v634h249v-626q0 -119 56.5 -177.5t160.5 -58.5q103 0 161.5 59t58.5 177v626h249zM526 1149h-217l244 387h252zM915 1149h-217l244 387h252z" />
    <glyph glyph-name="Uogonek" unicode="&#x172;" horiz-adv-x="1370" 
d="M920 -350q-92 -45 -205 -45q-108 0 -162.5 45t-54.5 114q0 99 110 203q-207 21 -322.5 141t-115.5 330v959h264v-930q0 -128 64 -192t182 -64q117 0 181.5 64t64.5 192v930h274v-959q0 -206 -110.5 -325.5t-307.5 -143.5q-88 -88 -88 -145q0 -32 22.5 -49t61.5 -17
q67 0 135 52h7v-160z" />
    <glyph glyph-name="uogonek" unicode="&#x173;" horiz-adv-x="1239" 
d="M1087 1044v-634q0 -179 -93.5 -293.5t-262.5 -143.5q-50 -50 -71 -83.5t-21 -65.5t22.5 -49t61.5 -17q67 0 135 52h6v-160q-92 -45 -205 -45q-108 0 -162.5 45t-54.5 114q0 94 109 203q-187 17 -293 133t-106 310v634h249v-626q0 -119 56.5 -177.5t160.5 -58.5
q103 0 161.5 59t58.5 177v626h249z" />
    <glyph glyph-name="Wcircumflex" unicode="&#x174;" horiz-adv-x="2021" 
d="M1307 1397h-215l-111 127h-2l-113 -127h195l319 -957h2l324 957h279l-498 -1434h-213l-262 742h-2l-262 -742h-213l-498 1434h289l331 -957h2l226 645l-103 312h-131l221 262h213z" />
    <glyph glyph-name="wcircumflex" unicode="&#x175;" horiz-adv-x="1732" 
d="M1253 1151h-217l-168 227h-2l-170 -227h-217l289 395h197zM1298 -37h-165l-265 578h-2l-266 -578h-168l-401 1081h280l226 -624h2l317 661h23l315 -661h2l225 624h279z" />
    <glyph glyph-name="Ycircumflex" unicode="&#x176;" horiz-adv-x="1282" 
d="M973 1397h293l-492 -844v-553h-264v553l-494 844h301l222 262h213zM641 825l317 572h-200l-111 127h-2l-113 -127h-200l307 -572h2z" />
    <glyph glyph-name="ycircumflex" unicode="&#x177;" horiz-adv-x="1140" 
d="M567 -395h-274l162 397l-439 1042h285l283 -722h2l245 722h279zM958 1151h-217l-168 227h-2l-170 -227h-217l289 395h197z" />
    <glyph glyph-name="Ydieresis" unicode="&#x178;" horiz-adv-x="1282" 
d="M774 0h-264v553l-494 844h316l307 -572h2l317 572h308l-492 -844v-553zM543 1473h-246v194h246v-194zM993 1473h-248v194h248v-194z" />
    <glyph glyph-name="Zacute" unicode="&#x179;" horiz-adv-x="1339" 
d="M750 1397h434v-17l-631 -1130v-2h676v-248h-1125v16l629 1131v2h-581v248h383l151 241h260z" />
    <glyph glyph-name="zacute" unicode="&#x17a;" horiz-adv-x="1030" 
d="M604 1149h-217l244 387h252zM958 0h-905v16l465 807v2h-426v219h834v-18l-467 -807v-2h499v-217z" />
    <glyph glyph-name="Zdotaccent" unicode="&#x17b;" horiz-adv-x="1339" 
d="M786 1473h-266v194h266v-194zM1229 0h-1125v16l629 1131v2h-581v248h1032v-17l-631 -1130v-2h676v-248z" />
    <glyph glyph-name="zdotaccent" unicode="&#x17c;" horiz-adv-x="1030" 
d="M958 0h-905v16l465 807v2h-426v219h834v-18l-467 -807v-2h499v-217zM633 1315h-266v221h266v-221z" />
    <glyph glyph-name="Zcaron" unicode="&#x17d;" horiz-adv-x="1339" 
d="M1229 0h-1125v16l629 1131v2h-581v248h401l-213 252h215l111 -127h2l112 127h215l-213 -252h402v-17l-631 -1130v-2h676v-248z" />
    <glyph glyph-name="zcaron" unicode="&#x17e;" horiz-adv-x="1030" 
d="M598 1139h-197l-288 397h217l168 -229h2l170 229h217zM958 0h-905v16l465 807v2h-426v219h834v-18l-467 -807v-2h499v-217z" />
    <glyph glyph-name="florin" unicode="&#x192;" horiz-adv-x="1114" 
d="M496 0h-256v580h-150v219h150v198q0 211 121 324t337 113q207 0 355 -109v-274h-9q-131 153 -319 153q-114 0 -171.5 -64t-57.5 -173v-168h424v-219h-424v-580z" />
    <glyph glyph-name="Aringacute" unicode="&#x1fa;" horiz-adv-x="1404" 
d="M954 1587q0 -64 -35 -107.5t-96 -64.5l555 -1415h-291l-131 358h-518l-131 -358h-280l551 1413q-129 45 -129 174q0 70 43.5 116.5t117.5 61.5l133 211h261l-179 -219q129 -45 129 -170zM870 592l-172 475h-2l-174 -475h348zM801 1587q0 33 -27.5 52.5t-71.5 19.5
q-45 0 -73.5 -19.5t-28.5 -52.5q0 -35 28.5 -54.5t73.5 -19.5q44 0 71.5 20t27.5 54z" />
    <glyph glyph-name="aringacute" unicode="&#x1fb;" horiz-adv-x="1161" 
d="M1010 0h-244v78h-2q-128 -115 -303 -115q-151 0 -251.5 90t-100.5 244q0 156 102.5 249t286.5 93q150 0 262 -64v74q0 109 -72 161t-192 52q-90 0 -174.5 -39.5t-143.5 -101.5h-6v250q157 110 375 110q100 0 182.5 -25t146 -76t99 -135.5t35.5 -195.5v-649zM760 276v105
q-86 53 -215 53q-189 0 -189 -125q0 -57 48.5 -95t136.5 -38q136 0 219 100zM682 1642h-217l244 388h252zM838 1380q0 -97 -72.5 -148.5t-183.5 -51.5t-182.5 51.5t-71.5 148.5q0 96 73 147.5t185 51.5q110 0 181 -51.5t71 -147.5zM674 1380q0 36 -23.5 57t-66.5 21
q-45 0 -70 -21t-25 -57q0 -40 24.5 -61t70.5 -21q90 0 90 82z" />
    <glyph glyph-name="AEacute" unicode="&#x1fc;" horiz-adv-x="1898" 
d="M1774 0h-809v514h-361l-276 -514h-308l762 1397h185l151 241h260l-196 -241h538v-248h-491v-344h471v-248h-471v-309h545v-248zM958 1198l-231 -436h238v436h-7z" />
    <glyph glyph-name="aeacute" unicode="&#x1fd;" horiz-adv-x="1828" 
d="M1006 1149h-218l244 387h252zM1305 -37q-135 0 -246.5 44.5t-184.5 129.5h-4q-166 -174 -409 -174q-151 0 -251.5 90t-100.5 244q0 155 102.5 248.5t286.5 93.5q150 0 262 -64v76q0 108 -73 159.5t-191 51.5q-89 0 -174 -39t-144 -100h-6v248q157 110 375 110
q227 0 350 -141h4q56 67 147.5 104t204.5 37q208 0 348 -136t140 -359q0 -88 -4 -121h-727q12 -137 103.5 -212t242.5 -75q95 0 182 38t148 99h6v-243q-153 -109 -387 -109zM543 176q68 0 133.5 32t111.5 81q-24 62 -26 92q-87 53 -203 53q-103 0 -153 -29.5t-50 -97.5
q0 -58 47.5 -94.5t139.5 -36.5zM1481 670q-7 89 -70 140.5t-162 51.5q-98 0 -160 -48t-79 -144h471z" />
    <glyph glyph-name="Oslashacute" unicode="&#x1fe;" horiz-adv-x="1538" 
d="M350 -37h-262l166 225q-166 200 -166 510t161.5 503t422.5 226l133 211h260l-174 -215q120 -17 231 -82l68 93h260l-168 -228q168 -199 168 -508q0 -171 -52 -310.5t-144 -232t-217 -142.5t-271 -50q-189 0 -350 90zM1176 698q0 166 -64 285l-545 -721q83 -51 199 -51
q86 0 160 31t130 90.5t88 153.5t32 212zM365 698q0 -168 59 -280l545 717q-88 51 -195 51q-86 0 -160 -31t-129.5 -91t-87.5 -154t-32 -212z" />
    <glyph glyph-name="oslashacute" unicode="&#x1ff;" horiz-adv-x="1224" 
d="M317 -37h-247l127 176q-127 149 -127 383q0 257 150.5 408t393.5 151q141 0 254 -55l39 55h250l-129 -178q129 -148 129 -381q0 -257 -152 -408t-395 -151q-142 0 -254 53zM332 522q0 -93 28 -166l371 480q-57 26 -117 26q-127 0 -204.5 -90t-77.5 -250zM893 522
q0 88 -29 164l-370 -479q55 -25 116 -25q128 0 205.5 89.5t77.5 250.5zM723 1149h-217l244 387h251z" />
    <glyph glyph-name="Scommaaccent" unicode="&#x218;" horiz-adv-x="1122" 
d="M461 -395h-215l198 319h252zM1018 379q0 -181 -126 -298.5t-345 -117.5q-250 0 -412 125v283h6q71 -83 176 -128.5t209 -45.5q109 0 168.5 40.5t59.5 120.5q0 56 -34 98t-88 70.5t-119 56t-130.5 62.5t-119.5 81t-88 121t-34 173q0 82 25.5 154t77.5 131.5t140.5 94
t203.5 34.5q106 0 206.5 -32t174.5 -93v-283h-6q-68 85 -162.5 129.5t-190.5 44.5q-98 0 -150 -41t-52 -112q0 -55 33.5 -97.5t87.5 -71t119 -56t130 -63t119 -82t87.5 -123t33.5 -175.5z" />
    <glyph glyph-name="scommaaccent" unicode="&#x219;" horiz-adv-x="960" 
d="M399 -395h-215l199 319h252zM848 293q0 -153 -99.5 -241.5t-293.5 -88.5q-201 0 -332 92v248h6q56 -63 142 -99t175 -36q74 0 116 28t42 76q0 37 -26.5 65t-68.5 47t-92.5 37.5t-101.5 45t-93 61.5t-68.5 94t-26.5 136q0 149 94 236t271 87q191 0 319 -92v-250h-6
q-55 61 -132.5 99.5t-160.5 38.5q-66 0 -101.5 -29t-35.5 -74q0 -36 26 -63t68 -45.5t92.5 -37t100.5 -44.5t92 -60.5t68 -94t26 -136.5z" />
    <glyph glyph-name="commaaccent.alt" unicode="&#x2bb;" horiz-adv-x="1024" 
d="M537 1217h-250l233 319h217z" />
    <glyph glyph-name="commaaccent.alt" unicode="&#xe026;" horiz-adv-x="1024" 
d="M537 1217h-250l233 319h217z" />
    <glyph glyph-name="commaaccent.alt" unicode="&#x312;" horiz-adv-x="1024" 
d="M537 1217h-250l233 319h217z" />
    <glyph glyph-name="circumflex" unicode="&#x2c6;" horiz-adv-x="1024" 
d="M899 1151h-217l-168 227h-2l-170 -227h-217l289 395h196z" />
    <glyph glyph-name="circumflex" unicode="&#x302;" horiz-adv-x="1024" 
d="M899 1151h-217l-168 227h-2l-170 -227h-217l289 395h196z" />
    <glyph glyph-name="caron" unicode="&#x2c7;" horiz-adv-x="1024" 
d="M610 1139h-196l-289 397h217l168 -229h2l170 229h217z" />
    <glyph glyph-name="caron" unicode="&#x30c;" horiz-adv-x="1024" 
d="M610 1139h-196l-289 397h217l168 -229h2l170 229h217z" />
    <glyph glyph-name="breve" unicode="&#x2d8;" horiz-adv-x="1024" 
d="M512 1202q-164 0 -255 91t-105 243h186q12 -76 57.5 -121t116.5 -45t116.5 45t57.5 121h186q-14 -152 -105 -243t-255 -91z" />
    <glyph glyph-name="breve" unicode="&#x306;" horiz-adv-x="1024" 
d="M512 1202q-164 0 -255 91t-105 243h186q12 -76 57.5 -121t116.5 -45t116.5 45t57.5 121h186q-14 -152 -105 -243t-255 -91z" />
    <glyph glyph-name="dotaccent" unicode="&#x2d9;" horiz-adv-x="1024" 
d="M645 1315h-266v221h266v-221z" />
    <glyph glyph-name="dotaccent" unicode="&#x307;" horiz-adv-x="1024" 
d="M645 1315h-266v221h266v-221z" />
    <glyph glyph-name="ring" unicode="&#x2da;" horiz-adv-x="1024" 
d="M766 1380q0 -97 -72.5 -148.5t-183.5 -51.5t-182.5 51.5t-71.5 148.5q0 96 73 147.5t185 51.5q110 0 181 -51.5t71 -147.5zM602 1380q0 36 -23.5 57t-66.5 21q-45 0 -69.5 -21t-24.5 -57q0 -82 94 -82q90 0 90 82z" />
    <glyph glyph-name="ring" unicode="&#x30a;" horiz-adv-x="1024" 
d="M766 1380q0 -97 -72.5 -148.5t-183.5 -51.5t-182.5 51.5t-71.5 148.5q0 96 73 147.5t185 51.5q110 0 181 -51.5t71 -147.5zM602 1380q0 36 -23.5 57t-66.5 21q-45 0 -69.5 -21t-24.5 -57q0 -82 94 -82q90 0 90 82z" />
    <glyph glyph-name="ogonek" unicode="&#x2db;" horiz-adv-x="1024" 
d="M723 -350q-92 -45 -205 -45q-108 0 -162.5 45t-54.5 114q0 64 42.5 124t125.5 130h170q-79 -72 -110 -114.5t-31 -79.5q0 -32 22.5 -49t61.5 -17q67 0 135 52h6v-160z" />
    <glyph glyph-name="ogonek" unicode="&#x328;" horiz-adv-x="1024" 
d="M723 -350q-92 -45 -205 -45q-108 0 -162.5 45t-54.5 114q0 64 42.5 124t125.5 130h170q-79 -72 -110 -114.5t-31 -79.5q0 -32 22.5 -49t61.5 -17q67 0 135 52h6v-160z" />
    <glyph glyph-name="tilde" unicode="&#x2dc;" horiz-adv-x="1024" 
d="M686 1235q-52 0 -115 30t-119 59.5t-92 29.5q-23 0 -39.5 -16.5t-22 -31t-20.5 -60.5q-3 -7 -4 -11h-155q13 73 28.5 124.5t40.5 93.5t62 62.5t88 20.5q52 0 115 -30t119 -59.5t92 -29.5q23 0 39.5 16.5t22 31t20.5 60.5q3 7 4 11h155q-26 -152 -73.5 -226.5
t-145.5 -74.5z" />
    <glyph glyph-name="tilde" unicode="&#x303;" horiz-adv-x="1024" 
d="M686 1235q-52 0 -115 30t-119 59.5t-92 29.5q-23 0 -39.5 -16.5t-22 -31t-20.5 -60.5q-3 -7 -4 -11h-155q13 73 28.5 124.5t40.5 93.5t62 62.5t88 20.5q52 0 115 -30t119 -59.5t92 -29.5q23 0 39.5 16.5t22 31t20.5 60.5q3 7 4 11h155q-26 -152 -73.5 -226.5
t-145.5 -74.5z" />
    <glyph glyph-name="hungarumlaut" unicode="&#x2dd;" horiz-adv-x="1024" 
d="M287 1149h-217l243 387h252zM676 1149h-217l243 387h252z" />
    <glyph glyph-name="hungarumlaut" unicode="&#x30b;" horiz-adv-x="1024" 
d="M287 1149h-217l243 387h252zM676 1149h-217l243 387h252z" />
    <glyph glyph-name="caronSlovak" unicode="&#x315;" horiz-adv-x="1024" 
d="M535 1128h-191l111 408h223z" />
    <glyph glyph-name="caronSlovak" unicode="&#xe01e;" horiz-adv-x="1024" 
d="M535 1128h-191l111 408h223z" />
    <glyph glyph-name="commaaccent" unicode="&#x326;" horiz-adv-x="1024" 
d="M502 -395h-215l198 319h252z" />
    <glyph glyph-name="uni037E" unicode="&#x37e;" horiz-adv-x="552" 
d="M406 776h-259v268h259v-268zM252 -283h-229l155 551h234v-10z" />
    <glyph glyph-name="tonos" unicode="&#x384;" horiz-adv-x="1024" 
d="M553 1149h-186l63 387h225z" />
    <glyph glyph-name="dieresistonos" unicode="&#x385;" horiz-adv-x="1024" 
d="M319 1223h-217v192h217v-192zM922 1223h-217v192h217v-192zM578 1149h-193l43 387h225z" />
    <glyph glyph-name="Alphatonos" unicode="&#x386;" horiz-adv-x="1435" 
d="M272 1010h-186l64 387h225zM1409 0h-291l-131 358h-518l-131 -358h-281l559 1434h232zM901 592l-172 475h-2l-174 -475h348z" />
    <glyph glyph-name="anoteleia" unicode="&#x387;" horiz-adv-x="561" 
d="M410 414h-258v268h258v-268z" />
    <glyph glyph-name="Epsilontonos" unicode="&#x388;" horiz-adv-x="1273" 
d="M166 1010h-186l63 387h225zM1149 0h-809v1397h756v-248h-492v-311h471v-248h-471v-342h545v-248z" />
    <glyph glyph-name="Etatonos" unicode="&#x389;" horiz-adv-x="1708" 
d="M166 1010h-186l63 387h225zM1516 0h-265v598h-647v-598h-264v1397h264v-551h647v551h265v-1397z" />
    <glyph glyph-name="Iotatonos" unicode="&#x38a;" horiz-adv-x="796" 
d="M166 1010h-186l63 387h225zM604 0h-264v1397h264v-1397z" />
    <glyph glyph-name="Omicrontonos" unicode="&#x38c;" horiz-adv-x="1648" 
d="M166 1010h-186l63 387h225zM1559 698q0 -171 -52.5 -310.5t-144.5 -232t-217 -142.5t-271 -50q-141 0 -264 49.5t-215 141.5t-145 232t-53 312q0 171 52.5 310.5t144.5 232.5t217.5 143t271.5 50q141 0 264 -50t214.5 -142t144.5 -232.5t53 -311.5zM1284 698
q0 229 -112.5 358.5t-288.5 129.5q-86 0 -160 -31t-130 -91t-88 -154t-32 -212q0 -229 112.5 -358t288.5 -129q86 0 160 31t130 90.5t88 153.5t32 212z" />
    <glyph glyph-name="Upsilontonos" unicode="&#x38e;" horiz-adv-x="1542" 
d="M166 1010h-186l63 387h225zM1034 0h-264v553l-494 844h316l307 -572h2l318 572h307l-492 -844v-553z" />
    <glyph glyph-name="Omegatonos" unicode="&#x38f;" horiz-adv-x="1658" 
d="M1556 0h-600v211q156 120 228.5 243t72.5 291q0 208 -103.5 324.5t-274.5 116.5q-172 0 -275.5 -116.5t-103.5 -324.5q0 -168 71.5 -291.5t227.5 -242.5v-211h-600v248h241v2q-106 110 -161.5 243.5t-55.5 315.5q0 192 85.5 335t233.5 216.5t337 73.5q188 0 335.5 -73.5
t233.5 -216.5t86 -335q0 -181 -56 -314.5t-161 -244.5v-2h239v-248zM178 1010h-186l63 387h226z" />
    <glyph glyph-name="iotadieresistonos" unicode="&#x390;" horiz-adv-x="579" 
d="M416 0h-250v1044h250v-1044zM385 1149h-192l43 387h225zM127 1223h-217v192h217v-192zM729 1223h-217v192h217v-192z" />
    <glyph glyph-name="Alpha" unicode="&#x391;" horiz-adv-x="1404" 
d="M1378 0h-291l-131 358h-518l-131 -358h-280l559 1434h231zM870 592l-172 475h-2l-174 -475h348z" />
    <glyph glyph-name="Beta" unicode="&#x392;" horiz-adv-x="1290" 
d="M1176 377q0 -377 -502 -377h-484v1397h465q200 0 320.5 -94t120.5 -263q0 -108 -51.5 -190t-135.5 -133v-2q51 -13 96.5 -40t85 -67.5t62.5 -100.5t23 -130zM907 418q0 83 -62.5 128.5t-170.5 45.5h-219v-363h204q248 0 248 189zM825 995q0 78 -57.5 125t-155.5 47h-157
v-354h217q81 27 117 71.5t36 110.5z" />
    <glyph glyph-name="Gamma" unicode="&#x393;" horiz-adv-x="1019" 
d="M455 0h-265v1397h768v-254h-503v-1143z" />
    <glyph glyph-name="uni0394" unicode="&#x394;" horiz-adv-x="1404" 
d="M1378 0h-1351l559 1434h231zM997 248l-299 827h-2l-301 -827h602z" />
    <glyph glyph-name="Epsilon" unicode="&#x395;" horiz-adv-x="1124" 
d="M999 0h-809v1397h756v-248h-491v-311h471v-248h-471v-342h544v-248z" />
    <glyph glyph-name="Zeta" unicode="&#x396;" horiz-adv-x="1339" 
d="M1229 0h-1125v16l629 1131v2h-581v248h1032v-17l-631 -1130v-2h676v-248z" />
    <glyph glyph-name="Eta" unicode="&#x397;" horiz-adv-x="1556" 
d="M1366 0h-264v598h-647v-598h-265v1397h265v-551h647v551h264v-1397z" />
    <glyph glyph-name="Theta" unicode="&#x398;" horiz-adv-x="1538" 
d="M1450 698q0 -171 -52 -310.5t-144 -232t-217 -142.5t-271 -50q-141 0 -264 49.5t-215.5 141.5t-145.5 232t-53 312q0 171 52.5 310.5t144.5 232.5t217.5 143t271.5 50q141 0 264 -50t214.5 -142t144.5 -232.5t53 -311.5zM1176 698q0 229 -113 358.5t-289 129.5
q-86 0 -160 -31t-129.5 -91t-87.5 -154t-32 -212q0 -229 112.5 -358t288.5 -129q86 0 160 31t130 90.5t88 153.5t32 212zM1018 575h-498v248h498v-248z" />
    <glyph glyph-name="Iota" unicode="&#x399;" horiz-adv-x="645" 
d="M455 0h-265v1397h265v-1397z" />
    <glyph glyph-name="Kappa" unicode="&#x39a;" horiz-adv-x="1314" 
d="M455 0h-265v1397h265v-1397zM1274 0h-320l-473 702v11l453 684h313l-461 -682v-4z" />
    <glyph glyph-name="Lambda" unicode="&#x39b;" horiz-adv-x="1374" 
d="M1348 0h-299l-367 1008h-2l-361 -1008h-292l553 1434h213z" />
    <glyph glyph-name="Mu" unicode="&#x39c;" horiz-adv-x="1804" 
d="M1653 0h-267l-71 782h-2l-402 -819h-18l-406 821h-2l-67 -784h-266l122 1415h211l416 -903h2l416 903h211z" />
    <glyph glyph-name="Nu" unicode="&#x39d;" horiz-adv-x="1566" 
d="M1376 -18h-213l-706 897h-2v-879h-265v1296l-63 88v13h274l709 -914h2v914h264v-1415z" />
    <glyph glyph-name="Xi" unicode="&#x39e;" horiz-adv-x="1273" 
d="M1155 0h-1036v248h1036v-248zM1110 1149h-948v248h948v-248zM1081 590h-888v248h888v-248z" />
    <glyph glyph-name="Omicron" unicode="&#x39f;" horiz-adv-x="1538" 
d="M1450 698q0 -171 -52 -310.5t-144 -232t-217 -142.5t-271 -50q-141 0 -264 49.5t-215.5 141.5t-145.5 232t-53 312q0 171 52.5 310.5t144.5 232.5t217.5 143t271.5 50q141 0 264 -50t214.5 -142t144.5 -232.5t53 -311.5zM1176 698q0 229 -113 358.5t-289 129.5
q-86 0 -160 -31t-129.5 -91t-87.5 -154t-32 -212q0 -229 112.5 -358t288.5 -129q86 0 160 31t130 90.5t88 153.5t32 212z" />
    <glyph glyph-name="Pi" unicode="&#x3a0;" horiz-adv-x="1525" 
d="M1335 0h-264v1149h-616v-1149h-265v1397h1145v-1397z" />
    <glyph glyph-name="Rho" unicode="&#x3a1;" horiz-adv-x="1245" 
d="M1147 958q0 -235 -164.5 -369t-527.5 -165v-424h-265v1397h457q142 0 253.5 -48t179 -149t67.5 -242zM879 936q0 103 -69.5 160t-184.5 57h-170v-485q223 10 323.5 82.5t100.5 185.5z" />
    <glyph glyph-name="Sigma" unicode="&#x3a3;" horiz-adv-x="1202" 
d="M1118 0h-1071v16l473 703v2l-444 659v17h1001v-248h-512v-2l283 -420v-16l-318 -461v-2h588v-248z" />
    <glyph glyph-name="Tau" unicode="&#x3a4;" horiz-adv-x="1142" 
d="M705 0h-265v1149h-379v248h1020v-248h-376v-1149z" />
    <glyph glyph-name="Upsilon" unicode="&#x3a5;" horiz-adv-x="1282" 
d="M774 0h-264v553l-494 844h316l307 -572h2l317 572h308l-492 -844v-553z" />
    <glyph glyph-name="Phi" unicode="&#x3a6;" horiz-adv-x="1675" 
d="M971 -16h-264v125q-137 8 -249.5 48.5t-196.5 112.5t-130.5 181t-46.5 247q0 137 46 245.5t130 180t196.5 112.5t250.5 50v127h264v-127q137 -9 249 -50t195.5 -113t129.5 -180.5t46 -244.5q0 -137 -46 -245.5t-129.5 -180.5t-195.5 -113t-249 -50v-125zM713 352v690
q-167 -9 -260 -97t-93 -247q0 -160 93.5 -248.5t259.5 -97.5zM967 352q163 9 255.5 97.5t92.5 248.5q0 158 -92.5 246.5t-255.5 97.5v-690z" />
    <glyph glyph-name="Chi" unicode="&#x3a7;" horiz-adv-x="1417" 
d="M1354 0h-318l-334 510h-2l-303 -510h-311l426 711l-451 686h316l323 -500h2l306 500h311l-426 -690z" />
    <glyph glyph-name="Psi" unicode="&#x3a8;" horiz-adv-x="1654" 
d="M958 0h-264v287q-289 15 -426 141.5t-137 394.5v574h262v-576q0 -141 71.5 -211t229.5 -80v867h264v-869q161 10 231.5 80t70.5 213v576h264v-574q0 -267 -138.5 -394t-427.5 -142v-287z" />
    <glyph glyph-name="uni03A9" unicode="&#x3a9;" horiz-adv-x="1562" 
d="M1460 0h-600v211q156 120 228.5 243t72.5 291q0 208 -104 324.5t-275 116.5q-172 0 -275.5 -116.5t-103.5 -324.5q0 -168 71.5 -291.5t227.5 -242.5v-211h-600v248h242v2q-106 110 -161.5 243.5t-55.5 315.5q0 192 85.5 335t233 216.5t336.5 73.5q188 0 336 -73.5
t234 -216.5t86 -335q0 -181 -56 -314.5t-161 -244.5v-2h239v-248z" />
    <glyph glyph-name="Iotadieresis" unicode="&#x3aa;" horiz-adv-x="651" 
d="M455 0h-265v1397h265v-1397zM225 1473h-245v194h245v-194zM676 1473h-248v194h248v-194z" />
    <glyph glyph-name="Upsilondieresis" unicode="&#x3ab;" horiz-adv-x="1275" 
d="M770 0h-264v553l-494 844h316l307 -572h2l317 572h308l-492 -844v-553zM539 1473h-246v194h246v-194zM989 1473h-248v194h248v-194z" />
    <glyph glyph-name="alphatonos" unicode="&#x3ac;" horiz-adv-x="1249" 
d="M752 1149h-187l64 387h225zM836 303v457q-91 98 -220 98q-128 0 -203 -88t-75 -248q0 -159 73 -247.5t195 -88.5q135 0 230 117zM1085 0h-249v82h-2q-135 -119 -308 -119q-202 0 -327 151.5t-125 407.5q0 259 133 409t346 150q166 0 303 -102h2l221 82h6v-1061z" />
    <glyph glyph-name="epsilontonos" unicode="&#x3ad;" horiz-adv-x="983" 
d="M647 1149h-186l63 387h226zM82 283q0 99 56 172t147 100v2q-146 76 -146 240q0 133 103 208.5t293 75.5q215 0 339 -96v-250h-6q-48 66 -121 104t-159 38q-85 0 -129.5 -34.5t-44.5 -84.5q0 -56 43 -88.5t116 -32.5h203v-205h-315q-55 -15 -85 -47.5t-30 -75.5
q0 -52 37.5 -85.5t83 -44.5t96.5 -11q103 0 185 35.5t131 103.5h6v-248q-126 -96 -379 -96q-202 0 -313 84.5t-111 235.5z" />
    <glyph glyph-name="etatonos" unicode="&#x3ae;" horiz-adv-x="1282" 
d="M772 1149h-186l63 387h225zM1126 -395h-249v1022q0 114 -61.5 172.5t-162.5 58.5q-142 0 -237 -117v-741h-250v1044h248v-83h2q133 120 317 120q82 0 152 -23t124.5 -67.5t85.5 -117.5t31 -166v-1102z" />
    <glyph glyph-name="iotatonos" unicode="&#x3af;" horiz-adv-x="579" 
d="M416 0h-250v1044h250v-1044zM389 1149h-186l63 387h226z" />
    <glyph glyph-name="upsilondieresistonos" unicode="&#x3b0;" horiz-adv-x="1243" 
d="M438 1223h-217v192h217v-192zM1040 1223h-217v192h217v-192zM696 1149h-192l43 387h225zM801 1044h260q37 -277 37 -497q0 -133 -28 -238t-86 -183.5t-153 -120.5t-223 -42q-215 0 -333.5 120t-118.5 331v630h250v-624q0 -238 206 -238q68 0 115 26.5t73 76.5t37 111.5
t11 142.5q0 241 -47 505z" />
    <glyph glyph-name="alpha" unicode="&#x3b1;" horiz-adv-x="1249" 
d="M836 303v457q-91 98 -220 98q-128 0 -203 -88t-75 -248q0 -159 73 -247.5t195 -88.5q135 0 230 117zM1085 0h-249v82h-2q-135 -119 -308 -119q-202 0 -327 151.5t-125 407.5q0 259 133 409t346 150q166 0 303 -102h2l221 82h6v-1061z" />
    <glyph glyph-name="beta" unicode="&#x3b2;" horiz-adv-x="1261" 
d="M1184 422q0 -210 -129.5 -334.5t-331.5 -124.5q-182 0 -295 84h-2v-352l-246 -90h-4v1521q0 212 111.5 318t341.5 106q211 0 330.5 -98.5t119.5 -277.5q0 -117 -51.5 -201.5t-159.5 -149.5v-2q63 -12 117.5 -40.5t100 -75t72 -119t26.5 -164.5zM922 451q0 123 -78.5 180
t-212.5 57h-109v223h133q89 38 127.5 93t38.5 131q0 88 -53.5 143t-144.5 55q-106 0 -151.5 -53t-45.5 -158v-839q91 -97 248 -97q106 0 177 67t71 198z" />
    <glyph glyph-name="gamma" unicode="&#x3b3;" horiz-adv-x="1095" 
d="M653 -309l-239 -86h-4q0 207 -28.5 353.5t-119.5 403.5l-242 682h279l168 -503q36 -107 61 -199h2l33 96q64 185 120 322.5t136 283.5h271q-32 -57 -63 -118t-54.5 -108.5t-55 -118.5t-48 -107.5t-50.5 -119.5t-45.5 -110.5t-50 -123.5t-47.5 -119l-45 -117
q22 -122 22 -311z" />
    <glyph glyph-name="delta" unicode="&#x3b4;" horiz-adv-x="1206" 
d="M1137 489q0 -234 -151 -380t-386 -146q-228 0 -379 144.5t-151 373.5q0 160 76.5 278t254.5 228q-85 56 -122 118t-37 152q0 135 97.5 214t289.5 79q199 0 370 -88v-254h-6q-73 64 -162 101t-172 37q-165 0 -165 -93q0 -38 38.5 -73.5t137.5 -92.5l92 -53q85 -47 148 -96
t117 -114t82 -149.5t28 -185.5zM874 487q0 222 -225 344l-47 27q-148 -75 -209 -166t-61 -205q0 -139 75.5 -222t196.5 -83q118 0 194 83t76 222z" />
    <glyph glyph-name="epsilon" unicode="&#x3b5;" horiz-adv-x="983" 
d="M82 283q0 99 56 172t147 100v2q-146 76 -146 240q0 133 103 208.5t293 75.5q215 0 339 -96v-250h-6q-48 66 -121 104t-159 38q-85 0 -129.5 -34.5t-44.5 -84.5q0 -56 43 -88.5t116 -32.5h203v-205h-315q-55 -15 -85 -47.5t-30 -75.5q0 -52 37.5 -85.5t83 -44.5t96.5 -11
q103 0 185 35.5t131 103.5h6v-248q-126 -96 -379 -96q-202 0 -313 84.5t-111 235.5z" />
    <glyph glyph-name="zeta" unicode="&#x3b6;" horiz-adv-x="968" 
d="M852 -291h-254q78 115 78 189q0 42 -25 67q-19 18 -60 27.5t-90.5 16t-103.5 17.5t-112 40t-103 75q-114 114 -114 316q0 88 20.5 170.5t56.5 158.5t99.5 164.5t134.5 170.5t176 194v2h-422v219h801v-176q-144 -142 -237 -240t-169 -190t-116.5 -164.5t-61 -142.5
t-20.5 -144q0 -102 59 -168q31 -36 81.5 -58t105 -31t109 -16t106 -22.5t83.5 -42.5q58 -47 58 -149q0 -123 -80 -283z" />
    <glyph glyph-name="eta" unicode="&#x3b7;" horiz-adv-x="1282" 
d="M1126 -395h-249v1022q0 114 -61.5 172.5t-162.5 58.5q-142 0 -237 -117v-741h-250v1044h248v-83h2q133 120 317 120q82 0 152 -23t124.5 -67.5t85.5 -117.5t31 -166v-1102z" />
    <glyph glyph-name="theta" unicode="&#x3b8;" horiz-adv-x="1163" 
d="M1083 698q0 -186 -38 -328.5t-106 -230.5t-158 -132t-199 -44q-86 0 -160.5 27.5t-137.5 85.5t-108 143.5t-70.5 207.5t-25.5 271q0 186 37.5 328.5t105.5 230.5t158.5 132.5t200.5 44.5q231 0 366 -184t135 -552zM582 1214q-101 0 -166.5 -98t-79.5 -311h489
q-25 409 -243 409zM582 182q101 0 165 97.5t78 306.5h-487q14 -208 79.5 -306t164.5 -98z" />
    <glyph glyph-name="iota" unicode="&#x3b9;" horiz-adv-x="579" 
d="M416 0h-250v1044h250v-1044z" />
    <glyph glyph-name="kappa" unicode="&#x3ba;" horiz-adv-x="1140" 
d="M416 0h-250v1044h250v-1044zM1110 0h-301l-373 524v8l357 512h292l-364 -512v-4z" />
    <glyph glyph-name="lambda" unicode="&#x3bb;" horiz-adv-x="1136" 
d="M1116 0h-280l-240 723h-2l-287 -723h-287l453 1042q-119 303 -262 494h293q128 -193 235 -496z" />
    <glyph glyph-name="uni03BC" unicode="&#x3bc;" horiz-adv-x="1265" 
d="M1102 0h-238v82h-2q-48 -52 -114.5 -85.5t-135.5 -33.5q-158 0 -223 107h-4q23 -223 31 -375l-246 -90h-4v1439h250v-622q0 -120 59.5 -178t157.5 -58q71 0 127.5 35.5t91.5 104.5v718h250v-1044z" />
    <glyph glyph-name="nu" unicode="&#x3bd;" horiz-adv-x="1122" 
d="M637 -37h-176l-441 1081h285l260 -731h2q165 334 260 731h269q-61 -264 -179.5 -529.5t-279.5 -551.5z" />
    <glyph glyph-name="xi" unicode="&#x3be;" horiz-adv-x="997" 
d="M881 -291h-254q78 113 78 189q0 46 -27 67q-24 20 -84 31.5t-122 18.5t-138.5 38.5t-130.5 87.5q-115 115 -115 295q0 147 81 246t226 131v2q-99 47 -161 140t-62 219q0 172 115.5 274t314.5 102q114 0 196 -25.5t150 -78.5v-246h-6q-121 146 -285 146q-100 0 -160.5 -54
t-60.5 -155q0 -100 72.5 -164t179.5 -64h158v-219h-305q-81 -20 -136 -80t-55 -147q0 -104 66 -164q45 -41 117 -63t135.5 -27t130.5 -21t104 -47q58 -50 58 -147q0 -132 -80 -285z" />
    <glyph glyph-name="omicron" unicode="&#x3bf;" horiz-adv-x="1224" 
d="M893 522q0 157 -76.5 248.5t-202.5 91.5q-127 0 -204.5 -90t-77.5 -250q0 -158 76 -249t202 -91q128 0 205.5 89.5t77.5 250.5zM1157 522q0 -257 -152 -408t-395 -151q-156 0 -277.5 66t-192 194t-70.5 299q0 257 150.5 408t393.5 151q239 0 391 -151t152 -408z" />
    <glyph glyph-name="pi" unicode="&#x3c0;" horiz-adv-x="1376" 
d="M1118 0h-250v825h-323q-3 -370 -62 -825h-250q59 462 62 825h-268v11l104 208h1194v-219h-207v-825z" />
    <glyph glyph-name="rho" unicode="&#x3c1;" horiz-adv-x="1253" 
d="M1180 522q0 -260 -136.5 -409.5t-353.5 -149.5q-172 0 -287 84h-2v-442h-249v954q0 259 133.5 390.5t369.5 131.5t380.5 -149t144.5 -410zM918 522q0 158 -73 251t-198 93q-246 0 -246 -315v-268q41 -43 100 -70t126 -27q132 0 211.5 88.5t79.5 247.5z" />
    <glyph glyph-name="sigma1" unicode="&#x3c2;" horiz-adv-x="913" 
d="M580 -33q-21 18 -73 32t-105 24t-118.5 44.5t-111.5 90.5q-102 125 -102 358q0 262 131.5 413.5t341.5 151.5q167 0 299 -104v-262h-6q-44 66 -110 106.5t-144 40.5q-110 0 -180 -94t-70 -246q0 -142 63 -217q38 -46 98 -70.5t112.5 -30t111 -20.5t92.5 -43
q53 -50 53 -149q0 -130 -80 -283h-254q43 67 60.5 108.5t17.5 80.5q0 48 -26 69z" />
    <glyph glyph-name="sigma" unicode="&#x3c3;" horiz-adv-x="1249" 
d="M1133 465q0 -224 -149.5 -363t-383.5 -139q-230 0 -380 146.5t-150 386.5q0 266 155 407t422 141h553v-221h-239q91 -74 131.5 -160t40.5 -198zM874 492q0 107 -47.5 185.5t-152.5 147.5h-25q-144 0 -230.5 -83.5t-86.5 -245.5q0 -143 74.5 -230.5t197.5 -87.5
q120 0 195 85.5t75 228.5z" />
    <glyph glyph-name="tau" unicode="&#x3c4;" horiz-adv-x="940" 
d="M594 0h-250v825h-293v219h838v-219h-295v-825z" />
    <glyph glyph-name="upsilon" unicode="&#x3c5;" horiz-adv-x="1243" 
d="M801 1044h260q37 -277 37 -497q0 -133 -28 -238t-86 -183.5t-153 -120.5t-223 -42q-215 0 -333.5 120t-118.5 331v630h250v-624q0 -238 206 -238q68 0 115 26.5t73 76.5t37 111.5t11 142.5q0 241 -47 505z" />
    <glyph glyph-name="phi" unicode="&#x3c6;" horiz-adv-x="1560" 
d="M659 178v688q-148 -5 -237.5 -93t-89.5 -251q0 -161 89.5 -248.5t237.5 -95.5zM1491 522q0 -166 -76.5 -289t-207.5 -188.5t-302 -75.5v-364h-250v364q-171 10 -301.5 75.5t-207 188.5t-76.5 289q0 249 158 393.5t427 159.5v461h250v-463q267 -14 426.5 -158.5
t159.5 -392.5zM1229 522q0 165 -89.5 252t-240.5 92v-688q149 6 239.5 94.5t90.5 249.5z" />
    <glyph glyph-name="chi" unicode="&#x3c7;" horiz-adv-x="1112" 
d="M1092 -395h-289l-248 530h-2l-238 -530h-282l340 714l-353 725h289l246 -534h2l244 534h282l-340 -725z" />
    <glyph glyph-name="psi" unicode="&#x3c8;" horiz-adv-x="1660" 
d="M958 -395h-249v364q-281 17 -417 140t-136 368v567h250v-567q0 -141 72 -213t231 -78v1350h249v-1348q164 10 236 96t72 263q0 214 -37 497h250q37 -318 37 -497q0 -281 -136 -420t-422 -158v-364z" />
    <glyph glyph-name="omega" unicode="&#x3c9;" horiz-adv-x="1636" 
d="M1122 -37q-217 0 -301 158h-4q-87 -158 -301 -158q-130 0 -222.5 75.5t-135.5 198.5t-43 279q0 157 28 277t99 251h278q-74 -133 -104.5 -252.5t-30.5 -275.5q0 -97 15 -169.5t52 -119.5t93 -47q149 0 149 213v375h250v-375q0 -213 150 -213q43 0 74 26t49.5 73.5t27 106
t8.5 130.5q0 158 -30 277.5t-105 250.5h277q71 -134 100 -253.5t29 -274.5q0 -156 -43.5 -279t-136 -198.5t-222.5 -75.5z" />
    <glyph glyph-name="iotadieresis" unicode="&#x3ca;" horiz-adv-x="579" 
d="M416 0h-250v1044h250v-1044zM639 1315h-248v221h248v-221zM188 1315h-245v221h245v-221z" />
    <glyph glyph-name="upsilondieresis" unicode="&#x3cb;" horiz-adv-x="1243" 
d="M510 1315h-246v221h246v-221zM961 1315h-248v221h248v-221zM801 1044h260q37 -277 37 -497q0 -133 -28 -238t-86 -183.5t-153 -120.5t-223 -42q-215 0 -333.5 120t-118.5 331v630h250v-624q0 -238 206 -238q68 0 115 26.5t73 76.5t37 111.5t11 142.5q0 241 -47 505z" />
    <glyph glyph-name="omicrontonos" unicode="&#x3cc;" horiz-adv-x="1224" 
d="M696 1149h-186l63 387h226zM893 522q0 157 -76.5 248.5t-202.5 91.5q-127 0 -204.5 -90t-77.5 -250q0 -158 76 -249t202 -91q128 0 205.5 89.5t77.5 250.5zM1157 522q0 -257 -152 -408t-395 -151q-156 0 -277.5 66t-192 194t-70.5 299q0 257 150.5 408t393.5 151
q239 0 391 -151t152 -408z" />
    <glyph glyph-name="upsilontonos" unicode="&#x3cd;" horiz-adv-x="1243" 
d="M702 1149h-186l64 387h225zM801 1044h260q37 -277 37 -497q0 -133 -28 -238t-86 -183.5t-153 -120.5t-223 -42q-215 0 -333.5 120t-118.5 331v630h250v-624q0 -238 206 -238q68 0 115 26.5t73 76.5t37 111.5t11 142.5q0 241 -47 505z" />
    <glyph glyph-name="omegatonos" unicode="&#x3ce;" horiz-adv-x="1636" 
d="M918 1149h-187l64 387h225zM1122 -37q-217 0 -301 158h-4q-87 -158 -301 -158q-130 0 -222.5 75.5t-135.5 198.5t-43 279q0 157 28 277t99 251h278q-74 -133 -104.5 -252.5t-30.5 -275.5q0 -97 15 -169.5t52 -119.5t93 -47q149 0 149 213v375h250v-375q0 -213 150 -213
q43 0 74 26t49.5 73.5t27 106t8.5 130.5q0 158 -30 277.5t-105 250.5h277q71 -134 100 -253.5t29 -274.5q0 -156 -43.5 -279t-136 -198.5t-222.5 -75.5z" />
    <glyph glyph-name="uni0400" unicode="&#x400;" horiz-adv-x="1124" 
d="M999 0h-809v1397h289l-196 241h260l151 -241h252v-248h-491v-309h471v-252h-471v-340h544v-248z" />
    <glyph glyph-name="uni0401" unicode="&#x401;" horiz-adv-x="1124" 
d="M459 1473h-246v194h246v-194zM909 1473h-247v194h247v-194zM999 0h-809v1397h756v-248h-491v-309h471v-252h-471v-340h544v-248z" />
    <glyph glyph-name="uni0402" unicode="&#x402;" horiz-adv-x="1499" 
d="M911 12v242q32 -12 80 -12q69 0 113.5 41.5t44.5 128.5q0 95 -61.5 138.5t-182.5 43.5h-198v-594h-267v1149h-379v248h1162v-248h-516v-311h190q518 0 518 -426q0 -86 -23 -156.5t-61 -117t-90.5 -78.5t-110 -46t-120.5 -14q-71 0 -99 12z" />
    <glyph glyph-name="uni0403" unicode="&#x403;" horiz-adv-x="1019" 
d="M455 0h-265v1397h259l151 241h260l-196 -241h294v-248h-503v-1149z" />
    <glyph glyph-name="uni0404" unicode="&#x404;" horiz-adv-x="1329" 
d="M758 -37q-140 0 -261 48t-212 139t-143 232t-52 316q0 170 49.5 309t137 232.5t209.5 144t266 50.5q257 0 446 -144v-289h-6q-158 185 -412 185q-175 0 -290 -96t-115 -252h735v-248h-735q0 -173 109.5 -276t293.5 -103q258 0 422 188h6v-293q-173 -143 -448 -143z" />
    <glyph glyph-name="uni0405" unicode="&#x405;" horiz-adv-x="1122" 
d="M1018 379q0 -181 -126 -298.5t-345 -117.5q-250 0 -412 125v287h6q70 -83 175 -126.5t210 -43.5q228 0 228 153q0 56 -34 98t-88 70.5t-119 56t-130.5 62.5t-119.5 81t-88 121t-34 173q0 82 25.5 154t77.5 131.5t140.5 94t203.5 34.5q106 0 206.5 -32t174.5 -93v-287h-6
q-68 84 -162 127t-191 43q-99 0 -150.5 -37.5t-51.5 -107.5q0 -55 33.5 -97.5t87.5 -71t119 -56t130 -63t119 -82t87.5 -123t33.5 -175.5z" />
    <glyph glyph-name="uni0406" unicode="&#x406;" horiz-adv-x="645" 
d="M455 0h-265v1397h265v-1397z" />
    <glyph glyph-name="uni0407" unicode="&#x407;" horiz-adv-x="651" 
d="M455 0h-265v1397h265v-1397zM225 1473h-245v194h245v-194zM676 1473h-248v194h248v-194z" />
    <glyph glyph-name="uni0408" unicode="&#x408;" horiz-adv-x="897" 
d="M342 -37q-134 0 -229 64v280h8q34 -46 79 -70t91 -24q88 0 130 51.5t42 157.5v725h-365v10l97 240h530v-1024q0 -189 -93 -299.5t-290 -110.5z" />
    <glyph glyph-name="uni0409" unicode="&#x409;" horiz-adv-x="1937" 
d="M1853 444q0 -225 -138 -334.5t-390 -109.5h-444v1149h-260l-33 -440q-15 -205 -51.5 -343t-102.5 -223.5t-157.5 -123t-223.5 -39.5v253q53 0 93.5 15.5t69.5 50.5t48.5 79t33 115t21.5 144t15 178l39 582h770v-506h182q251 0 389.5 -111t138.5 -336zM1587 444
q0 99 -69 151t-195 52h-180v-403h180q128 0 196 51t68 149z" />
    <glyph glyph-name="uni040A" unicode="&#x40a;" horiz-adv-x="2074" 
d="M1993 424q0 -424 -531 -424h-444v602h-563v-602h-265v1397h265v-547h563v547h262v-547h182q531 0 531 -426zM1726 424q0 182 -266 182h-180v-362h180q266 0 266 180z" />
    <glyph glyph-name="uni040B" unicode="&#x40b;" horiz-adv-x="1546" 
d="M1448 0h-264v346q0 120 -74.5 179t-214.5 59h-190v-584h-265v1149h-379v248h1063v-248h-419v-322h225q246 0 382 -108t136 -330v-389z" />
    <glyph glyph-name="uni040C" unicode="&#x40c;" horiz-adv-x="1314" 
d="M772 1397h-215l152 241h260zM455 0h-265v1397h265v-1397zM1274 0h-320l-473 702v11l453 684h313l-461 -682v-4z" />
    <glyph glyph-name="uni040D" unicode="&#x40d;" horiz-adv-x="1556" 
d="M891 1397h-215l-197 241h260zM1366 0h-264v975h-2l-666 -993h-244v1415h265v-975h2l665 993h244v-1415z" />
    <glyph glyph-name="uni040E" unicode="&#x40e;" horiz-adv-x="1280" 
d="M651 1425q-136 0 -222 63.5t-101 178.5h186q11 -43 45.5 -67.5t91.5 -24.5t91.5 24.5t43.5 67.5h189q-15 -115 -101.5 -178.5t-222.5 -63.5zM629 0h-283l172 379l-498 1018h306l327 -717h2l324 717h278z" />
    <glyph glyph-name="uni040F" unicode="&#x40f;" horiz-adv-x="1536" 
d="M1346 0h-455v-291h-246v291h-455v1397h265v-1149h626v1149h265v-1397z" />
    <glyph glyph-name="uni0410" unicode="&#x410;" horiz-adv-x="1404" 
d="M1378 0h-291l-131 358h-518l-131 -358h-280l559 1434h231zM870 592l-172 475h-2l-174 -475h348z" />
    <glyph glyph-name="uni0411" unicode="&#x411;" horiz-adv-x="1273" 
d="M1176 432q0 -219 -135.5 -325.5t-387.5 -106.5h-463v1397h834v-248h-569v-289h198q523 0 523 -428zM909 432q0 97 -65.5 140.5t-192.5 43.5h-196v-372h196q126 0 192 48t66 140z" />
    <glyph glyph-name="uni0412" unicode="&#x412;" horiz-adv-x="1290" 
d="M1176 377q0 -377 -502 -377h-484v1397h465q200 0 320.5 -94t120.5 -263q0 -108 -51.5 -190t-135.5 -133v-2q51 -13 96.5 -40t85 -67.5t62.5 -100.5t23 -130zM907 418q0 83 -62.5 128.5t-170.5 45.5h-219v-363h204q248 0 248 189zM825 995q0 78 -57.5 125t-155.5 47h-157
v-354h217q81 27 117 71.5t36 110.5z" />
    <glyph glyph-name="uni0413" unicode="&#x413;" horiz-adv-x="1019" 
d="M455 0h-265v1397h768v-248h-503v-1149z" />
    <glyph glyph-name="uni0414" unicode="&#x414;" horiz-adv-x="1521" 
d="M1430 -291h-244v291h-891v-291h-244v539h154q77 129 115 260t51 321l37 568h862v-1149h160v-539zM1008 248v905h-355l-22 -352q-11 -182 -46 -305t-102 -248h525z" />
    <glyph glyph-name="uni0415" unicode="&#x415;" horiz-adv-x="1124" 
d="M999 0h-809v1397h756v-248h-491v-311h471v-248h-471v-342h544v-248z" />
    <glyph glyph-name="uni0416" unicode="&#x416;" horiz-adv-x="1900" 
d="M356 0h-319l448 711v4l-426 682h314l418 -684v-11zM1081 0h-264v1397h264v-1397zM1864 0h-320l-434 702v11l418 684h313l-426 -682v-4z" />
    <glyph glyph-name="uni0417" unicode="&#x417;" horiz-adv-x="1165" 
d="M541 -37q-247 0 -406 103v280h6q63 -67 168.5 -108t206.5 -41q120 0 194 49.5t74 146.5q0 88 -67.5 135t-190.5 47h-237v244h254q157 60 157 189q0 95 -63.5 143.5t-171.5 48.5q-92 0 -174 -40t-141 -107h-7v280q147 101 361 101q210 0 338.5 -102.5t128.5 -280.5
q0 -219 -189 -332v-2q115 -28 192 -122t77 -239q0 -188 -138 -290.5t-372 -102.5z" />
    <glyph glyph-name="uni0418" unicode="&#x418;" horiz-adv-x="1556" 
d="M1366 0h-264v975h-2l-666 -993h-244v1415h265v-975h2l665 993h244v-1415z" />
    <glyph glyph-name="uni0419" unicode="&#x419;" horiz-adv-x="1556" 
d="M782 1425q-136 0 -222 63.5t-101 178.5h186q11 -43 45.5 -67.5t91.5 -24.5t92 24.5t44 67.5h188q-15 -115 -101.5 -178.5t-222.5 -63.5zM1366 0h-264v975h-2l-666 -993h-244v1415h265v-975h2l665 993h244v-1415z" />
    <glyph glyph-name="uni041A" unicode="&#x41a;" horiz-adv-x="1314" 
d="M455 0h-265v1397h265v-1397zM1274 0h-320l-473 702v11l453 684h313l-461 -682v-4z" />
    <glyph glyph-name="uni041B" unicode="&#x41b;" horiz-adv-x="1435" 
d="M1237 0h-264v1149h-352l-33 -440q-15 -205 -51.5 -343t-102.5 -223.5t-157.5 -123t-223.5 -39.5v253q53 0 93.5 15.5t69.5 50.5t48.5 79t33 115t21.5 144t15 178l39 582h864v-1397z" />
    <glyph glyph-name="uni041C" unicode="&#x41c;" horiz-adv-x="1804" 
d="M1653 0h-267l-71 782h-2l-402 -819h-18l-406 821h-2l-67 -784h-266l122 1415h211l416 -903h2l416 903h211z" />
    <glyph glyph-name="uni041D" unicode="&#x41d;" horiz-adv-x="1556" 
d="M1366 0h-264v600h-647v-600h-265v1397h265v-549h647v549h264v-1397z" />
    <glyph glyph-name="uni041E" unicode="&#x41e;" horiz-adv-x="1538" 
d="M1450 698q0 -171 -52 -310.5t-144 -232t-217 -142.5t-271 -50q-141 0 -264 49.5t-215.5 141.5t-145.5 232t-53 312q0 171 52.5 310.5t144.5 232.5t217.5 143t271.5 50q141 0 264 -50t214.5 -142t144.5 -232.5t53 -311.5zM1176 698q0 229 -113 358.5t-289 129.5
q-86 0 -160 -31t-129.5 -91t-87.5 -154t-32 -212q0 -229 112.5 -358t288.5 -129q86 0 160 31t130 90.5t88 153.5t32 212z" />
    <glyph glyph-name="uni041F" unicode="&#x41f;" horiz-adv-x="1536" 
d="M1346 0h-265v1149h-626v-1149h-265v1397h1156v-1397z" />
    <glyph glyph-name="uni0420" unicode="&#x420;" horiz-adv-x="1245" 
d="M1147 958q0 -235 -164.5 -369t-527.5 -165v-424h-265v1397h457q142 0 253.5 -48t179 -149t67.5 -242zM879 936q0 103 -69.5 160t-184.5 57h-170v-485q223 10 323.5 82.5t100.5 185.5z" />
    <glyph glyph-name="uni0421" unicode="&#x421;" horiz-adv-x="1253" 
d="M1149 406v-306q-180 -137 -426 -137q-135 0 -250.5 49t-201 140.5t-134.5 232t-49 313.5q0 337 173.5 536.5t453.5 199.5q255 0 426 -138v-305h-8q-67 92 -164.5 142.5t-206.5 50.5q-183 0 -290 -131.5t-107 -354.5q0 -222 109 -353.5t296 -131.5q109 0 207.5 51.5
t163.5 141.5h8z" />
    <glyph glyph-name="uni0422" unicode="&#x422;" horiz-adv-x="1142" 
d="M705 0h-265v1149h-379v248h1020v-248h-376v-1149z" />
    <glyph glyph-name="uni0423" unicode="&#x423;" horiz-adv-x="1280" 
d="M629 0h-283l172 379l-498 1018h306l327 -717h2l324 717h278z" />
    <glyph glyph-name="uni0424" unicode="&#x424;" horiz-adv-x="1675" 
d="M971 -16h-264v125q-137 8 -249.5 48.5t-196.5 112.5t-130.5 181t-46.5 247q0 137 46 245.5t130 180t196.5 112.5t250.5 50v127h264v-127q137 -9 249 -50t195.5 -113t129.5 -180.5t46 -244.5q0 -137 -46 -245.5t-129.5 -180.5t-195.5 -113t-249 -50v-125zM713 352v690
q-165 -9 -259 -100t-94 -244q0 -154 94.5 -245.5t258.5 -100.5zM967 352q161 9 254.5 100.5t93.5 245.5q0 153 -93.5 244t-254.5 100v-690z" />
    <glyph glyph-name="uni0425" unicode="&#x425;" horiz-adv-x="1417" 
d="M1354 0h-318l-334 510h-2l-303 -510h-311l426 711l-451 686h316l323 -500h2l306 500h311l-426 -690z" />
    <glyph glyph-name="uni0426" unicode="&#x426;" horiz-adv-x="1574" 
d="M1483 -291h-244v291h-1049v1397h265v-1149h606v1149h264v-1149h158v-539z" />
    <glyph glyph-name="uni0427" unicode="&#x427;" horiz-adv-x="1327" 
d="M1137 0h-265v410q-161 10 -280 30.5t-203.5 55.5t-139 78t-85.5 106.5t-43 132.5t-12 164v420h264v-406q0 -69 9.5 -114.5t39 -88.5t84 -68.5t145 -43t221.5 -23.5v744h265v-1397z" />
    <glyph glyph-name="uni0428" unicode="&#x428;" horiz-adv-x="2074" 
d="M1884 0h-1694v1397h265v-1149h450v1149h264v-1149h453v1149h262v-1397z" />
    <glyph glyph-name="uni0429" unicode="&#x429;" horiz-adv-x="2136" 
d="M2044 -291h-244v291h-1610v1397h265v-1149h450v1149h264v-1149h453v1149h262v-1149h160v-539z" />
    <glyph glyph-name="uni042A" unicode="&#x42a;" horiz-adv-x="1509" 
d="M1425 453q0 -230 -135.5 -341.5t-384.5 -111.5h-463v1147h-381v248h644v-494h200q248 0 384 -108.5t136 -339.5zM1159 453q0 204 -268 204h-186v-411h186q131 0 199.5 53t68.5 154z" />
    <glyph glyph-name="uni042B" unicode="&#x42b;" horiz-adv-x="1742" 
d="M1143 444q0 -225 -138 -334.5t-391 -109.5h-424v1397h265v-506h159q252 0 390.5 -109t138.5 -338zM879 444q0 102 -69.5 152.5t-197.5 50.5h-157v-403h157q128 0 197.5 51t69.5 149zM1552 0h-264v1397h264v-1397z" />
    <glyph glyph-name="uni042C" unicode="&#x42c;" horiz-adv-x="1257" 
d="M1176 453q0 -229 -138 -341t-385 -112h-463v1397h265v-494h198q162 0 276.5 -45t180.5 -147t66 -258zM909 453q0 103 -69 153.5t-197 50.5h-188v-411h188q129 0 197.5 53t68.5 154z" />
    <glyph glyph-name="uni042D" unicode="&#x42d;" horiz-adv-x="1329" 
d="M573 -37q-275 0 -448 143v293h6q164 -188 422 -188q184 0 293.5 103t109.5 276h-735v248h735q0 156 -115 252t-290 96q-254 0 -412 -185h-6v289q189 144 447 144q144 0 265.5 -50.5t209.5 -144t137 -232.5t49 -309q0 -175 -52 -316t-143 -232t-212 -139t-261 -48z" />
    <glyph glyph-name="uni042E" unicode="&#x42e;" horiz-adv-x="2113" 
d="M1339 -37q-128 0 -241.5 41.5t-203 120t-148 201t-72.5 274.5h-219v-600h-265v1397h265v-549h225q22 144 85 257.5t153.5 184.5t199.5 107.5t230 36.5q141 0 264 -50t215 -142t145 -232.5t53 -311.5t-52.5 -310.5t-144.5 -232t-217.5 -142.5t-271.5 -50zM1339 211
q86 0 160 31t130 90.5t88 153.5t32 212q0 229 -112.5 358.5t-288.5 129.5q-86 0 -160 -31t-130 -91t-88 -154t-32 -212q0 -229 112.5 -358t288.5 -129z" />
    <glyph glyph-name="uni042F" unicode="&#x42f;" horiz-adv-x="1298" 
d="M1106 0h-264v1153h-164q-129 0 -199.5 -56.5t-70.5 -154.5q0 -109 90.5 -176t316.5 -102v-11l-444 -653h-320l371 543v4q-148 65 -215.5 169.5t-67.5 260.5q0 203 135 311.5t359 108.5h473v-1397z" />
    <glyph glyph-name="uni0430" unicode="&#x430;" horiz-adv-x="1161" 
d="M1010 0h-244v78h-2q-128 -115 -303 -115q-151 0 -251.5 90t-100.5 244q0 156 102.5 249t286.5 93q150 0 262 -64v74q0 109 -72 161t-192 52q-90 0 -174.5 -39.5t-143.5 -101.5h-6v250q157 110 375 110q100 0 182.5 -25t146 -76t99 -135.5t35.5 -195.5v-649zM760 276v105
q-86 53 -215 53q-189 0 -189 -125q0 -57 48.5 -95t136.5 -38q136 0 219 100z" />
    <glyph glyph-name="uni0431" unicode="&#x431;" horiz-adv-x="1234" 
d="M1165 522q0 -258 -146 -408.5t-388 -150.5q-252 0 -397.5 171.5t-145.5 492.5q0 290 80 489q52 132 126.5 207.5t213.5 110.5q71 18 187 28t206 27.5t152 60.5h6v-241q-56 -29 -132.5 -45.5t-175.5 -29t-147 -22.5q-120 -25 -179 -104.5t-81 -214.5l4 -2q43 72 130 116
t188 44q103 0 192 -33t158.5 -97t109 -166.5t39.5 -232.5zM903 514q0 150 -74 232.5t-200 82.5q-130 0 -203.5 -86t-73.5 -208q0 -151 71 -252t206 -101q125 0 199.5 90t74.5 242z" />
    <glyph glyph-name="uni0432" unicode="&#x432;" horiz-adv-x="1138" 
d="M1049 281q0 -281 -375 -281h-508v1044h493q150 0 240 -70.5t90 -197.5q0 -168 -162 -237v-2q101 -20 161.5 -85.5t60.5 -170.5zM784 313q0 113 -163 113h-205v-221h192q88 0 132 25.5t44 82.5zM725 741q0 44 -41.5 71.5t-110.5 27.5h-157v-217h198q59 19 85 47t26 71z
" />
    <glyph glyph-name="uni0433" unicode="&#x433;" horiz-adv-x="923" 
d="M416 0h-250v1044h704v-219h-454v-825z" />
    <glyph glyph-name="uni0434" unicode="&#x434;" horiz-adv-x="1288" 
d="M1210 -291h-231v291h-713v-291h-231v510h123q60 102 89 199t38 246l22 380h756v-825h147v-510zM813 219v606h-281l-14 -225q-7 -121 -32.5 -209t-71.5 -172h399z" />
    <glyph glyph-name="uni0435" unicode="&#x435;" horiz-adv-x="1153" 
d="M1016 72q-153 -109 -387 -109q-249 0 -404 149t-155 410q0 257 138 408t370 151q101 0 190 -35t155 -98.5t104 -157.5t38 -206q0 -49 -4 -119h-727q12 -136 103.5 -210.5t242.5 -74.5q96 0 183 38t147 99h6v-245zM803 670q-5 84 -67 138t-158 54q-101 0 -165 -49.5
t-79 -142.5h469z" />
    <glyph glyph-name="uni0436" unicode="&#x436;" horiz-adv-x="1615" 
d="M332 0h-301l348 528v4l-324 512h293l314 -512v-8zM934 0h-250v1044h250v-1044zM1585 0h-301l-330 524v8l314 512h295l-324 -512v-4z" />
    <glyph glyph-name="uni0437" unicode="&#x437;" horiz-adv-x="989" 
d="M907 272q0 -145 -114 -227t-314 -82q-253 0 -377 90v254h7q52 -64 134.5 -101.5t176.5 -37.5q108 0 165.5 38.5t57.5 94.5q0 63 -50 97t-149 34h-233v205h260q102 39 102 125q0 44 -43.5 79.5t-123.5 35.5q-175 0 -285 -140h-6v248q125 96 340 96q186 0 288.5 -74
t102.5 -208q0 -84 -33 -138t-113 -104v-2q102 -35 154.5 -103t52.5 -180z" />
    <glyph glyph-name="uni0438" unicode="&#x438;" horiz-adv-x="1296" 
d="M1130 0h-249v672h-2l-482 -690h-231v1062h250v-673h2l479 692h233v-1063z" />
    <glyph glyph-name="uni0439" unicode="&#x439;" horiz-adv-x="1296" 
d="M655 1202q-164 0 -255 91t-105 243h192q13 -78 56 -125t112 -47t112 47t56 125h193q-14 -152 -105.5 -243t-255.5 -91zM1130 0h-249v672h-2l-482 -690h-231v1062h250v-673h2l479 692h233v-1063z" />
    <glyph glyph-name="uni043A" unicode="&#x43a;" horiz-adv-x="1140" 
d="M416 0h-250v1044h250v-1044zM1110 0h-301l-373 524v8l357 512h292l-364 -512v-4z" />
    <glyph glyph-name="uni043B" unicode="&#x43b;" horiz-adv-x="1196" 
d="M1032 0h-250v825h-268l-20 -282q-26 -310 -125.5 -436.5t-323.5 -126.5v215q49 0 84 19t58 52.5t38 90t22.5 119t12.5 153.5l27 415h745v-1044z" />
    <glyph glyph-name="uni043C" unicode="&#x43c;" horiz-adv-x="1484" 
d="M1356 0h-248l-51 539h-2l-301 -570h-23l-301 572h-2l-49 -541h-248l90 1063h234l288 -612h2l287 612h230z" />
    <glyph glyph-name="uni043D" unicode="&#x43d;" horiz-adv-x="1290" 
d="M1126 0h-249v430h-461v-430h-250v1044h250v-395h461v395h249v-1044z" />
    <glyph glyph-name="uni043E" unicode="&#x43e;" horiz-adv-x="1224" 
d="M893 522q0 157 -76.5 248.5t-202.5 91.5q-127 0 -204.5 -90t-77.5 -250q0 -158 76 -249t202 -91q128 0 205.5 89.5t77.5 250.5zM1157 522q0 -257 -152 -408t-395 -151q-156 0 -277.5 66t-192 194t-70.5 299q0 257 150.5 408t393.5 151q239 0 391 -151t152 -408z" />
    <glyph glyph-name="uni043F" unicode="&#x43f;" horiz-adv-x="1269" 
d="M1106 0h-250v825h-440v-825h-250v1044h940v-1044z" />
    <glyph glyph-name="uni0440" unicode="&#x440;" horiz-adv-x="1267" 
d="M1194 522q0 -260 -136 -409.5t-353 -149.5q-172 0 -287 84h-2v-442h-250v1439h248v-83h2q133 120 315 120q204 0 333.5 -151.5t129.5 -407.5zM930 522q0 157 -77 246.5t-202 89.5q-140 0 -235 -117v-458q41 -43 99.5 -70t125.5 -27q132 0 210.5 88t78.5 248z" />
    <glyph glyph-name="uni0441" unicode="&#x441;" horiz-adv-x="966" 
d="M883 334v-266q-134 -105 -324 -105q-102 0 -190.5 37.5t-155 106.5t-105 176t-38.5 239q0 255 135 407t350 152q200 0 322 -102v-266h-7q-47 65 -121 106t-153 41q-120 0 -192 -94t-72 -246t77.5 -245t208.5 -93q75 0 145 42.5t114 109.5h6z" />
    <glyph glyph-name="uni0442" unicode="&#x442;" horiz-adv-x="884" 
d="M567 0h-250v825h-266v219h783v-219h-267v-825z" />
    <glyph glyph-name="uni0443" unicode="&#x443;" horiz-adv-x="1140" 
d="M567 -395h-274l162 397l-439 1042h285l283 -722h2l245 722h279z" />
    <glyph glyph-name="uni0444" unicode="&#x444;" horiz-adv-x="1632" 
d="M1559 522q0 -251 -116 -405t-325 -154q-91 0 -176 29v-387h-250v387q-100 -29 -178 -29q-209 0 -324.5 154t-115.5 405q0 250 116 404.5t324 154.5q92 0 178 -28v483h250v-483q77 28 176 28q139 0 240 -72.5t151 -198t50 -288.5zM692 209v625q-58 24 -117 24
q-115 0 -176 -89t-61 -247t61 -247t176 -89q53 0 117 23zM1296 522q0 158 -62 247t-177 89q-57 0 -115 -24v-625q64 -23 115 -23q115 0 177 89t62 247z" />
    <glyph glyph-name="uni0445" unicode="&#x445;" horiz-adv-x="1130" 
d="M1106 0h-295l-248 360h-2l-227 -360h-287l336 528l-356 516h292l242 -356h2l230 356h288l-340 -516z" />
    <glyph glyph-name="uni0446" unicode="&#x446;" horiz-adv-x="1292" 
d="M1221 -291h-232v291h-823v1044h250v-827h415v827h250v-827h140v-508z" />
    <glyph glyph-name="uni0447" unicode="&#x447;" horiz-adv-x="1132" 
d="M967 0h-250v285q-180 11 -300.5 40.5t-190.5 83.5t-99 124.5t-29 171.5v339h256v-292q0 -48 7 -79.5t29 -62t61.5 -48.5t105 -31.5t160.5 -18.5v532h250v-1044z" />
    <glyph glyph-name="uni0448" unicode="&#x448;" horiz-adv-x="1789" 
d="M1624 0h-1458v1044h250v-825h354v825h250v-825h354v825h250v-1044z" />
    <glyph glyph-name="uni0449" unicode="&#x449;" horiz-adv-x="1849" 
d="M1772 -291h-232v291h-1374v1044h250v-827h354v827h250v-827h354v827h250v-827h148v-508z" />
    <glyph glyph-name="uni044A" unicode="&#x44a;" horiz-adv-x="1247" 
d="M901 350q0 63 -44 99t-128 36h-162v-280h152q97 0 139.5 35t42.5 110zM1165 346q0 -167 -99.5 -256.5t-281.5 -89.5h-467v825h-266v219h516v-354h236q177 0 269.5 -95t92.5 -249z" />
    <glyph glyph-name="uni044B" unicode="&#x44b;" horiz-adv-x="1509" 
d="M977 344q0 -165 -100.5 -254.5t-278.5 -89.5h-432v1044h250v-358h198q168 0 265.5 -94t97.5 -248zM713 344q0 67 -44 102t-128 35h-125v-276h114q183 0 183 139zM1343 0h-249v1044h249v-1044z" />
    <glyph glyph-name="uni044C" unicode="&#x44c;" horiz-adv-x="1095" 
d="M1014 346q0 -159 -102 -252.5t-279 -93.5h-467v1044h250v-354h217q178 0 279.5 -97t101.5 -247zM750 344q0 71 -48 107t-124 36h-162v-282h151q28 0 51 2.5t48.5 11t43 23t29 41t11.5 61.5z" />
    <glyph glyph-name="uni044D" unicode="&#x44d;" horiz-adv-x="1089" 
d="M469 -37q-224 0 -367 105v260h9q123 -148 340 -148q139 0 225 68.5t86 183.5h-553v205h553q-6 100 -89 162.5t-218 62.5q-104 0 -190 -38t-142 -107h-6v258q138 106 370 106q114 0 211.5 -38t169 -108.5t112 -176.5t40.5 -236q0 -245 -148 -402t-403 -157z" />
    <glyph glyph-name="uni044E" unicode="&#x44e;" horiz-adv-x="1703" 
d="M1090 -37q-212 0 -357.5 124t-171.5 345h-145v-432h-250v1044h250v-393h151q36 202 179 316t348 114q238 0 390 -151t152 -408t-151.5 -408t-394.5 -151zM1090 182q127 0 204.5 89.5t77.5 250.5q0 157 -76 248.5t-202 91.5q-127 0 -205 -90t-78 -250q0 -158 76.5 -249
t202.5 -91z" />
    <glyph glyph-name="uni044F" unicode="&#x44f;" horiz-adv-x="1163" 
d="M999 0h-249v827h-185q-90 0 -139 -32.5t-49 -96.5q0 -79 75.5 -129t276.5 -88v-8l-387 -473h-317l356 391v2q-270 88 -270 340q0 151 102.5 231t275.5 80h510v-1044z" />
    <glyph glyph-name="uni0450" unicode="&#x450;" horiz-adv-x="1153" 
d="M1016 72q-153 -109 -387 -109q-249 0 -404 149t-155 410q0 257 138 408t370 151q101 0 190 -35t155 -98.5t104 -157.5t38 -206q0 -49 -4 -119h-727q12 -136 103.5 -210.5t242.5 -74.5q96 0 183 38t147 99h6v-245zM803 670q-5 84 -67 138t-158 54q-101 0 -165 -49.5
t-79 -142.5h469zM721 1151h-217l-279 385h260z" />
    <glyph glyph-name="uni0451" unicode="&#x451;" horiz-adv-x="1153" 
d="M475 1315h-246v221h246v-221zM926 1315h-248v221h248v-221zM1016 72q-153 -109 -387 -109q-249 0 -404 149t-155 410q0 257 138 408t370 151q101 0 190 -35t155 -98.5t104 -157.5t38 -206q0 -49 -4 -119h-727q12 -136 103.5 -210.5t242.5 -74.5q96 0 183 38t147 99h6
v-245zM803 670q-5 84 -67 138t-158 54q-101 0 -165 -49.5t-79 -142.5h469z" />
    <glyph glyph-name="uni0452" unicode="&#x452;" horiz-adv-x="1257" 
d="M852 2v625q0 114 -58 172.5t-153 58.5q-133 0 -225 -117v-741h-250v1198h-166v199h166v139h250v-139h420v-199h-420v-235h2q131 118 305 118q163 0 271 -96t108 -278v-740q0 -176 -85 -269t-226 -93q-88 0 -179 33v219h6q43 -37 103 -37t95.5 44.5t35.5 137.5z" />
    <glyph glyph-name="uni0453" unicode="&#x453;" horiz-adv-x="923" 
d="M621 1149h-218l244 387h252zM416 0h-250v1044h704v-219h-454v-825z" />
    <glyph glyph-name="uni0454" unicode="&#x454;" horiz-adv-x="1089" 
d="M621 -37q-255 0 -403 157t-148 402q0 259 149.5 409t382.5 150t371 -106v-258h-6q-56 69 -142 107t-190 38q-135 0 -218 -62.5t-89 -162.5h553v-205h-553q0 -115 86 -183.5t225 -68.5q217 0 340 148h8v-260q-143 -105 -366 -105z" />
    <glyph glyph-name="uni0455" unicode="&#x455;" horiz-adv-x="960" 
d="M848 293q0 -153 -99.5 -241.5t-293.5 -88.5q-201 0 -332 92v248h6q56 -63 142 -99t175 -36q74 0 116 28t42 76q0 37 -26.5 65t-68.5 47t-92.5 37.5t-101.5 45t-93 61.5t-68.5 94t-26.5 136q0 149 94 236t271 87q191 0 319 -92v-250h-6q-55 61 -132.5 99.5t-160.5 38.5
q-66 0 -101.5 -29t-35.5 -74q0 -36 26 -63t68 -45.5t92.5 -37t100.5 -44.5t92 -60.5t68 -94t26 -136.5z" />
    <glyph glyph-name="uni0456" unicode="&#x456;" horiz-adv-x="579" 
d="M416 0h-250v1044h250v-1044zM424 1315h-266v221h266v-221z" />
    <glyph glyph-name="uni0457" unicode="&#x457;" horiz-adv-x="579" 
d="M416 0h-250v1044h250v-1044zM639 1315h-248v221h248v-221zM188 1315h-245v221h245v-221z" />
    <glyph glyph-name="uni0458" unicode="&#x458;" horiz-adv-x="579" 
d="M86 -395q-132 0 -215 51v235h6q64 -67 150 -67q67 0 103 40.5t36 119.5v1060h250v-1069q0 -184 -88 -277t-242 -93zM424 1315h-266v221h266v-221z" />
    <glyph glyph-name="uni0459" unicode="&#x459;" horiz-adv-x="1613" 
d="M1532 338q0 -162 -103.5 -250t-287.5 -88h-422v825h-205l-20 -282q-27 -298 -126 -420.5t-323 -122.5v215q60 0 100 26t63 83t34 126.5t18 178.5l27 415h682v-370h188q173 0 274 -90.5t101 -245.5zM1268 338q0 131 -172 131h-127v-264h116q96 0 139.5 33.5t43.5 99.5z
" />
    <glyph glyph-name="uni045A" unicode="&#x45a;" horiz-adv-x="1718" 
d="M1634 334q0 -154 -100 -244t-279 -90h-432v430h-407v-430h-250v1044h250v-395h407v395h250v-376h199q168 0 265 -95t97 -239zM1370 334q0 61 -42.5 95t-127.5 34h-127v-258h115q182 0 182 129z" />
    <glyph glyph-name="uni045B" unicode="&#x45b;" horiz-adv-x="1257" 
d="M1102 0h-250v627q0 114 -58 172.5t-153 58.5q-133 0 -225 -117v-741h-250v1198h-166v199h166v139h250v-139h420v-199h-420v-235h2q131 118 305 118q163 0 271 -96t108 -278v-707z" />
    <glyph glyph-name="uni045C" unicode="&#x45c;" horiz-adv-x="1140" 
d="M709 1149h-217l243 387h252zM416 0h-250v1044h250v-1044zM1110 0h-301l-373 524v8l357 512h292l-364 -512v-4z" />
    <glyph glyph-name="uni045D" unicode="&#x45d;" horiz-adv-x="1296" 
d="M1130 0h-249v672h-2l-482 -690h-231v1062h250v-673h2l479 692h233v-1063zM795 1151h-217l-279 385h260z" />
    <glyph glyph-name="uni045E" unicode="&#x45e;" horiz-adv-x="1140" 
d="M578 1202q-164 0 -255.5 91t-105.5 243h193q13 -78 56 -125t112 -47t111.5 46.5t55.5 125.5h193q-14 -152 -105 -243t-255 -91zM567 -395h-274l162 397l-439 1042h285l283 -722h2l245 722h279z" />
    <glyph glyph-name="uni045F" unicode="&#x45f;" horiz-adv-x="1269" 
d="M750 -291h-230v291h-354v1044h250v-827h440v827h250v-1044h-356v-291z" />
    <glyph glyph-name="uni0462" unicode="&#x462;" horiz-adv-x="1497" 
d="M1413 430q0 -212 -139.5 -321t-388.5 -109h-447v1047h-377v247h377v103h267v-103h458v-247h-458v-185h178q251 0 390.5 -108t139.5 -324zM1147 430q0 188 -256 188h-186v-374h186q256 0 256 186z" />
    <glyph glyph-name="uni0463" unicode="&#x463;" horiz-adv-x="1234" 
d="M1151 328q0 -153 -99.5 -240.5t-279.5 -87.5h-453v846h-268v198h268v355h250v-355h334v-198h-334v-191h222q168 0 264 -90.5t96 -236.5zM889 330q0 121 -170 121h-150v-246h140q93 0 136.5 30.5t43.5 94.5z" />
    <glyph glyph-name="uni0472" unicode="&#x472;" horiz-adv-x="1538" 
d="M1450 698q0 -171 -52 -310.5t-144 -232t-217 -142.5t-271 -50q-141 0 -264 49.5t-215.5 141.5t-145.5 232t-53 312q0 171 52.5 310.5t144.5 232.5t217.5 143t271.5 50q141 0 264 -50t214.5 -142t144.5 -232.5t53 -311.5zM766 211q155 0 264.5 97.5t136.5 279.5h-794
q26 -180 132 -278.5t261 -98.5zM774 1186q-150 0 -258 -91t-139 -259h786q-32 167 -137.5 258.5t-251.5 91.5z" />
    <glyph glyph-name="uni0473" unicode="&#x473;" horiz-adv-x="1224" 
d="M1157 522q0 -257 -152 -408t-395 -151q-156 0 -277.5 66t-192 194t-70.5 299q0 257 150.5 408t393.5 151q239 0 391 -151t152 -408zM610 182q103 0 175 60t96 172h-539q25 -110 95.5 -171t172.5 -61zM614 862q-104 0 -176 -60t-96 -171h539q-23 108 -94 169.5t-173 61.5z
" />
    <glyph glyph-name="uni0474" unicode="&#x474;" horiz-adv-x="1372" 
d="M784 -37h-213l-551 1434h293l369 -1032h2l180 530q61 186 108 296t113 206h283q-79 -114 -131 -228.5t-127 -314.5z" />
    <glyph glyph-name="uni0475" unicode="&#x475;" horiz-adv-x="1138" 
d="M662 -37h-187l-455 1081h285l264 -712h2l121 352q2 6 11 35.5t12 38.5t11.5 36t13 38.5t13.5 36.5t15 38.5t15 35t17.5 36.5t18.5 32.5t21 32.5h284q-20 -28 -38 -56.5t-35.5 -61.5t-29 -55.5t-28 -63t-23.5 -57.5t-26 -65t-24 -62z" />
    <glyph glyph-name="uni0490" unicode="&#x490;" horiz-adv-x="1019" 
d="M455 0h-265v1397h525v280h243v-526h-503v-1151z" />
    <glyph glyph-name="uni0491" unicode="&#x491;" horiz-adv-x="923" 
d="M416 0h-250v1044h477v291h227v-510h-454v-825z" />
    <glyph glyph-name="uni0492" unicode="&#x492;" horiz-adv-x="1019" 
d="M455 0h-265v520h-190v248h190v629h768v-248h-503v-381h313v-248h-313v-520z" />
    <glyph glyph-name="uni0493" unicode="&#x493;" horiz-adv-x="923" 
d="M416 0h-250v362h-148v201h148v481h704v-219h-454v-262h243v-201h-243v-362z" />
    <glyph glyph-name="uni0496" unicode="&#x496;" horiz-adv-x="1949" 
d="M356 0h-319l448 711v4l-426 682h314l418 -684v-11zM1081 0h-264v1397h264v-1397zM1708 244h201v-535h-244v291h-121l-434 702v11l418 684h313l-426 -682v-4z" />
    <glyph glyph-name="uni0497" unicode="&#x497;" horiz-adv-x="1691" 
d="M332 0h-301l348 528v4l-324 512h293l314 -512v-8zM934 0h-250v1044h250v-1044zM1284 0l-330 524v8l314 512h293l-322 -512v-4l203 -311h188v-508h-233v291h-113z" />
    <glyph glyph-name="uni049A" unicode="&#x49a;" horiz-adv-x="1353" 
d="M455 0h-265v1397h265v-1397zM1106 244h207v-535h-246v291h-113l-473 702v11l453 684h313l-461 -682v-4z" />
    <glyph glyph-name="uni049B" unicode="&#x49b;" horiz-adv-x="1212" 
d="M416 0h-250v1044h250v-1044zM950 217h201v-508h-233v291h-109l-373 524v8l355 512h294l-364 -512v-4z" />
    <glyph glyph-name="uni04A2" unicode="&#x4a2;" horiz-adv-x="1617" 
d="M1366 244h160v-535h-244v291h-180v600h-647v-600h-265v1397h265v-549h647v549h264v-1153z" />
    <glyph glyph-name="uni04A3" unicode="&#x4a3;" horiz-adv-x="1351" 
d="M1274 -291h-234v291h-163v430h-461v-430h-250v1044h250v-395h461v395h249v-827h148v-508z" />
    <glyph glyph-name="uni04AE" unicode="&#x4ae;" horiz-adv-x="1282" 
d="M774 0h-264v553l-494 844h316l307 -572h2l317 572h308l-492 -844v-553z" />
    <glyph glyph-name="uni04AF" unicode="&#x4af;" horiz-adv-x="1138" 
d="M444 -393v393l-424 1044h285l264 -727h2l265 727h280l-422 -1044v-393h-250z" />
    <glyph glyph-name="uni04B0" unicode="&#x4b0;" horiz-adv-x="1300" 
d="M784 0h-264v428h-241v209h192l-444 760h315l307 -572h2l318 572h307l-442 -760h190v-209h-240v-428z" />
    <glyph glyph-name="uni04B1" unicode="&#x4b1;" horiz-adv-x="1138" 
d="M694 -393h-250v225h-264v217h244l-404 995h285l264 -747h2l265 747h280l-403 -995h245v-217h-264v-225z" />
    <glyph glyph-name="uni04B2" unicode="&#x4b2;" horiz-adv-x="1443" 
d="M1192 244h211v-535h-244v291h-123l-334 510h-2l-303 -510h-311l426 711l-451 686h316l323 -500h2l306 500h311l-426 -690z" />
    <glyph glyph-name="uni04B3" unicode="&#x4b3;" horiz-adv-x="1222" 
d="M952 217h209v-508h-233v291h-117l-254 356h-2l-221 -356h-287l342 535l-362 509h292l248 -352h2l224 352h288l-346 -522z" />
    <glyph glyph-name="uni04B6" unicode="&#x4b6;" horiz-adv-x="1384" 
d="M1294 -291h-243v291h-179v410q-161 10 -280 30.5t-203.5 55.5t-139 78t-85.5 106.5t-43 132.5t-12 164v420h264v-406q0 -69 9.5 -114.5t39 -88.5t84 -68.5t145 -43t221.5 -23.5v744h263v-1153h159v-535z" />
    <glyph glyph-name="uni04B7" unicode="&#x4b7;" horiz-adv-x="1198" 
d="M973 217h147v-508h-233v291h-164v285q-179 11 -299.5 41t-191 83t-99.5 124t-29 172v339h258v-292q0 -48 7 -79.5t28.5 -62t61 -48.5t104.5 -31.5t160 -18.5v532h250v-827z" />
    <glyph glyph-name="uni04BA" unicode="&#x4ba;" horiz-adv-x="1296" 
d="M1198 0h-264v414q0 237 -289 237h-190v-651h-265v1399h265v-500h225q245 0 381.5 -109.5t136.5 -332.5v-457z" />
    <glyph glyph-name="uni04BB" unicode="&#x4bb;" horiz-adv-x="1257" 
d="M1102 0h-250v627q0 114 -58 172.5t-153 58.5q-133 0 -225 -117v-741h-250v1536h250v-573h2q131 118 305 118q163 0 271 -96t108 -278v-707z" />
    <glyph glyph-name="uni04C0" unicode="&#x4c0;" horiz-adv-x="645" 
d="M455 0h-265v1397h265v-1397z" />
    <glyph glyph-name="uni04D8" unicode="&#x4d8;" horiz-adv-x="1540" 
d="M193 1288q205 146 505 146q160 0 295 -49.5t233.5 -142t154 -232.5t55.5 -312q0 -339 -181 -537t-487 -198q-178 0 -322.5 77.5t-231.5 227.5t-87 348q0 74 6 138h969q-17 208 -140.5 319t-326.5 111q-131 0 -244.5 -52t-189.5 -145h-8v301zM461 504q8 -134 92 -213.5
t219 -79.5q129 0 217.5 78t108.5 215h-637z" />
    <glyph glyph-name="uni04D9" unicode="&#x4d9;" horiz-adv-x="1153" 
d="M127 973q151 108 387 108q249 0 404 -149t155 -410q0 -257 -138 -408t-370 -151q-135 0 -245.5 60t-176 174.5t-65.5 263.5q0 67 6 119h725q-12 135 -103 208.5t-243 73.5q-97 0 -184 -37t-146 -98h-6v246zM340 375q5 -84 68 -138.5t161 -54.5q99 0 162 49t78 144h-469z
" />
    <glyph glyph-name="uni04E2" unicode="&#x4e2;" horiz-adv-x="1556" 
d="M1118 1495h-672v172h672v-172zM1366 0h-264v975h-2l-666 -993h-244v1415h265v-975h2l665 993h244v-1415z" />
    <glyph glyph-name="uni04E3" unicode="&#x4e3;" horiz-adv-x="1296" 
d="M1130 0h-249v672h-2l-482 -690h-231v1062h250v-673h2l479 692h233v-1063zM1006 1323h-713v190h713v-190z" />
    <glyph glyph-name="uni04E8" unicode="&#x4e8;" horiz-adv-x="1538" 
d="M1450 698q0 -171 -52 -310.5t-144 -232t-217 -142.5t-271 -50q-141 0 -264 49.5t-215.5 141.5t-145.5 232t-53 312q0 171 52.5 310.5t144.5 232.5t217.5 143t271.5 50q141 0 264 -50t214.5 -142t144.5 -232.5t53 -311.5zM766 211q155 0 264.5 97.5t136.5 279.5h-794
q26 -180 132 -278.5t261 -98.5zM774 1186q-150 0 -258 -91t-139 -259h786q-32 167 -137.5 258.5t-251.5 91.5z" />
    <glyph glyph-name="uni04E9" unicode="&#x4e9;" horiz-adv-x="1224" 
d="M1157 522q0 -257 -152 -408t-395 -151q-156 0 -277.5 66t-192 194t-70.5 299q0 257 150.5 408t393.5 151q239 0 391 -151t152 -408zM610 182q103 0 175 60t96 172h-539q25 -110 95.5 -171t172.5 -61zM614 862q-104 0 -176 -60t-96 -171h539q-23 108 -94 169.5t-173 61.5z
" />
    <glyph glyph-name="uni04EE" unicode="&#x4ee;" horiz-adv-x="1280" 
d="M987 1495h-672v172h672v-172zM629 0h-283l172 379l-498 1018h306l327 -717h2l324 717h278z" />
    <glyph glyph-name="uni04EF" unicode="&#x4ef;" horiz-adv-x="1140" 
d="M930 1323h-713v190h713v-190zM567 -395h-274l162 397l-439 1042h285l283 -722h2l245 722h279z" />
    <glyph glyph-name="Wgrave" unicode="&#x1e80;" horiz-adv-x="2021" 
d="M1487 -37h-213l-262 742h-2l-262 -742h-213l-498 1434h289l331 -957h2l226 645l-103 312h86l-196 241h260l151 -241h-22l319 -957h2l324 957h279z" />
    <glyph glyph-name="wgrave" unicode="&#x1e81;" horiz-adv-x="1732" 
d="M1298 -37h-165l-265 578h-2l-266 -578h-168l-401 1081h280l226 -624h2l317 661h23l315 -661h2l225 624h279zM977 1151h-217l-279 385h260z" />
    <glyph glyph-name="Wacute" unicode="&#x1e82;" horiz-adv-x="2021" 
d="M1487 -37h-213l-262 742h-2l-262 -742h-213l-498 1434h289l331 -957h2l226 645l-103 312h78l152 241h260l-197 -241h-14l319 -957h2l324 957h279z" />
    <glyph glyph-name="wacute" unicode="&#x1e83;" horiz-adv-x="1732" 
d="M973 1149h-217l243 387h252zM1298 -37h-165l-265 578h-2l-266 -578h-168l-401 1081h280l226 -624h2l317 661h23l315 -661h2l225 624h279z" />
    <glyph glyph-name="Wdieresis" unicode="&#x1e84;" horiz-adv-x="2021" 
d="M897 1473h-246v194h246v-194zM1348 1473h-248v194h248v-194zM1487 -37h-213l-262 742h-2l-262 -742h-213l-498 1434h289l331 -957h2l226 645l-103 312h279l319 -957h2l324 957h279z" />
    <glyph glyph-name="wdieresis" unicode="&#x1e85;" horiz-adv-x="1732" 
d="M764 1315h-246v221h246v-221zM1214 1315h-247v221h247v-221zM1298 -37h-165l-265 578h-2l-266 -578h-168l-401 1081h280l226 -624h2l317 661h23l315 -661h2l225 624h279z" />
    <glyph glyph-name="Ygrave" unicode="&#x1ef2;" horiz-adv-x="1282" 
d="M774 0h-264v553l-494 844h316l307 -572h2l317 572h308l-492 -844v-553zM756 1397h-215l-197 241h260z" />
    <glyph glyph-name="ygrave" unicode="&#x1ef3;" horiz-adv-x="1140" 
d="M567 -395h-274l162 397l-439 1042h285l283 -722h2l245 722h279zM676 1151h-217l-279 385h260z" />
    <glyph glyph-name="endash" unicode="&#x2013;" 
d="M1085 444h-1065v207h1065v-207z" />
    <glyph glyph-name="emdash" unicode="&#x2014;" horiz-adv-x="2211" 
d="M2191 444h-2171v207h2171v-207z" />
    <glyph glyph-name="quoteleft" unicode="&#x2018;" horiz-adv-x="552" 
d="M305 846h-233v10l159 541h230z" />
    <glyph glyph-name="quoteright" unicode="&#x2019;" horiz-adv-x="552" 
d="M322 846h-230l156 551h233v-11z" />
    <glyph glyph-name="quotesinglbase" unicode="&#x201a;" horiz-adv-x="552" 
d="M274 -283h-229l156 551h233v-10z" />
    <glyph glyph-name="quotedblleft" unicode="&#x201c;" horiz-adv-x="946" 
d="M330 846h-234v10l160 541h229zM713 846h-234v10l160 541h229z" />
    <glyph glyph-name="quotedblright" unicode="&#x201d;" horiz-adv-x="946" 
d="M326 846h-230l156 551h233v-11zM711 846h-230l156 551h233v-11z" />
    <glyph glyph-name="quotedblbase" unicode="&#x201e;" horiz-adv-x="946" 
d="M299 -283h-229l155 551h234v-10zM682 -283h-229l155 551h234v-10z" />
    <glyph glyph-name="dagger" unicode="&#x2020;" horiz-adv-x="1122" 
d="M676 0h-230v877h-301v204h301v316h230v-316h301v-204h-301v-877z" />
    <glyph glyph-name="daggerdbl" unicode="&#x2021;" horiz-adv-x="1122" 
d="M676 0h-230v315h-301v205h301v357h-301v204h301v316h230v-316h301v-204h-301v-357h301v-205h-301v-315z" />
    <glyph glyph-name="bullet" unicode="&#x2022;" horiz-adv-x="843" 
d="M692 248h-540v604h540v-604z" />
    <glyph glyph-name="ellipsis" unicode="&#x2026;" horiz-adv-x="2048" 
d="M518 0h-258v268h258v-268zM1153 0h-258v268h258v-268zM1788 0h-258v268h258v-268z" />
    <glyph glyph-name="perthousand" unicode="&#x2030;" horiz-adv-x="2523" 
d="M713 944q0 -125 -27.5 -219.5t-76 -150t-109 -82.5t-131.5 -27t-131.5 27t-109 82.5t-76 150t-27.5 219.5t27.5 219.5t76 149.5t108.5 81.5t132 26.5t132 -26.5t108.5 -81.5t76 -149.5t27.5 -219.5zM522 944q0 305 -153 305q-72 0 -112 -69t-40 -236q0 -309 152 -309
q153 0 153 309zM1757 455q0 -125 -27.5 -219.5t-76 -150t-109 -83t-131.5 -27.5t-131.5 27.5t-109 83t-76 150t-27.5 219.5t27.5 219.5t76 149.5t108.5 81.5t132 26.5t132 -26.5t108.5 -81.5t76 -149.5t27.5 -219.5zM1567 455q0 305 -154 305q-72 0 -111.5 -69t-39.5 -236
q0 -310 151 -310q154 0 154 310zM2497 455q0 -100 -18.5 -181.5t-50 -136.5t-75.5 -92t-94 -53.5t-107 -16.5q-71 0 -131.5 27.5t-109 83t-76 150t-27.5 219.5t27.5 219.5t76 149.5t108.5 81.5t132 26.5t132 -26.5t109 -81.5t76.5 -149.5t27.5 -219.5zM2306 455
q0 305 -154 305q-72 0 -111.5 -69t-39.5 -236q0 -310 151 -310q154 0 154 310zM631 0h-199l721 1397h199z" />
    <glyph glyph-name="guilsinglleft" unicode="&#x2039;" horiz-adv-x="634" 
d="M561 150h-229l-258 391v12l258 391h229l-246 -397z" />
    <glyph glyph-name="guilsinglright" unicode="&#x203a;" horiz-adv-x="634" 
d="M303 150h-229l245 397l-245 397h229l258 -391v-12z" />
    <glyph glyph-name="fraction" unicode="&#x2044;" horiz-adv-x="366" 
d="M-78 0h-198l720 1397h199z" />
    <glyph glyph-name="zerosuperior" unicode="&#x2070;" horiz-adv-x="739" 
d="M713 1059q0 -125 -27.5 -219.5t-76 -150t-109 -82.5t-131.5 -27t-131.5 27t-109 82.5t-76 150t-27.5 219.5t27.5 219.5t76 149.5t108.5 81.5t132 26.5t132 -26.5t108.5 -81.5t76 -149.5t27.5 -219.5zM522 1059q0 305 -153 305q-72 0 -112 -69t-40 -236q0 -309 152 -309
q153 0 153 309z" />
    <glyph glyph-name="foursuperior" unicode="&#x2074;" horiz-adv-x="739" 
d="M717 793h-117v-189h-188v189h-383v137l424 606h147v-596h117v-147zM418 940v313h-2l-211 -311v-2h213z" />
    <glyph glyph-name="fivesuperior" unicode="&#x2075;" horiz-adv-x="739" 
d="M674 883q0 -143 -92 -223t-238 -80q-148 0 -252 69v178h4q41 -40 103 -64t123 -24q70 0 114.5 37.5t44.5 106.5q0 65 -50 104t-140 39q-98 0 -178 -41h-4l81 526h453v-161h-317l-33 -191q46 17 78 17q133 0 218 -78t85 -215z" />
    <glyph glyph-name="sixsuperior" unicode="&#x2076;" horiz-adv-x="739" 
d="M705 877q0 -142 -92.5 -219.5t-243.5 -77.5q-150 0 -242 79t-92 218q0 100 51 180l291 454h225v-2l-231 -354v-2q43 11 104 4q105 -21 167.5 -93.5t62.5 -186.5zM514 877q0 67 -38 107t-105 40q-65 0 -105.5 -38t-40.5 -109q0 -66 38 -106t104 -40q67 0 107 37.5
t40 108.5z" />
    <glyph glyph-name="sevensuperior" unicode="&#x2077;" horiz-adv-x="739" 
d="M303 606h-203v2l353 729h-410v176h680v-12z" />
    <glyph glyph-name="eightsuperior" unicode="&#x2078;" horiz-adv-x="739" 
d="M698 856q0 -130 -90 -203t-241 -73q-150 0 -239 73t-89 203q0 82 38 141t107 90v3q-112 61 -112 198q0 117 80.5 182.5t214.5 65.5q137 0 218 -65.5t81 -182.5q0 -135 -113 -198v-3q69 -30 107 -89.5t38 -141.5zM506 868q0 60 -36.5 96.5t-102.5 36.5q-63 0 -99.5 -36.5
t-36.5 -96.5q0 -62 36 -99.5t100 -37.5q65 0 102 38t37 99zM492 1268q0 52 -33 84t-92 32q-56 0 -88.5 -32t-32.5 -84q0 -54 32 -87.5t89 -33.5q59 0 92 33.5t33 87.5z" />
    <glyph glyph-name="ninesuperior" unicode="&#x2079;" horiz-adv-x="739" 
d="M362 604h-223v2l230 355v2q-34 -9 -105 -5q-104 21 -166.5 94.5t-62.5 186.5q0 143 93 220t243 77q151 0 242.5 -78.5t91.5 -218.5q0 -100 -64 -201zM514 1239q0 66 -37.5 105.5t-105.5 39.5q-65 0 -104.5 -36.5t-39.5 -108.5q0 -66 37.5 -106.5t104.5 -40.5q65 0 105 38
t40 109z" />
    <glyph glyph-name="plussuperior" unicode="&#x207a;" horiz-adv-x="739" 
d="M438 678h-139v254h-246v139h246v252h139v-252h246v-139h-246v-254z" />
    <glyph glyph-name="minussuperior" unicode="&#x207b;" horiz-adv-x="739" 
d="M684 932h-631v139h631v-139z" />
    <glyph glyph-name="equalsuperior" unicode="&#x207c;" horiz-adv-x="739" 
d="M684 782h-631v138h631v-138zM684 1085h-631v140h631v-140z" />
    <glyph glyph-name="parenleftsuperior" unicode="&#x207d;" horiz-adv-x="481" 
d="M467 446h-176q-98 112 -152.5 256.5t-54.5 303.5q0 160 54.5 304.5t152.5 256.5h176q-98 -113 -152.5 -257.5t-54.5 -303.5q0 -158 55 -302.5t152 -257.5z" />
    <glyph glyph-name="parenrightsuperior" unicode="&#x207e;" horiz-adv-x="481" 
d="M188 446h-174q97 113 152 257.5t55 302.5q0 159 -54.5 303.5t-152.5 257.5h174q100 -112 154.5 -256.5t54.5 -304.5q0 -159 -54.5 -303.5t-154.5 -256.5z" />
    <glyph glyph-name="zeroinferior" unicode="&#x2080;" horiz-adv-x="739" 
d="M713 260q0 -125 -27.5 -219.5t-76 -150t-109 -82.5t-131.5 -27t-131.5 27t-109 82.5t-76 150t-27.5 219.5t27.5 219.5t76 149.5t108.5 81.5t132 26.5t132 -26.5t108.5 -81.5t76 -149.5t27.5 -219.5zM522 260q0 305 -153 305q-72 0 -112 -69t-40 -236q0 -309 152 -309
q153 0 153 309z" />
    <glyph glyph-name="oneinferior" unicode="&#x2081;" horiz-adv-x="739" 
d="M528 -195h-186v713l-207 -57h-4v176l393 100h4v-932z" />
    <glyph glyph-name="twoinferior" unicode="&#x2082;" horiz-adv-x="739" 
d="M705 -195h-650v134q215 174 291 277t76 202q0 74 -40 115.5t-106 41.5q-107 0 -198 -88h-4v177q112 73 239 73q132 0 217.5 -78t85.5 -219q0 -47 -7.5 -89t-27.5 -82.5t-36.5 -69.5t-54 -71t-59 -64.5t-70.5 -71.5l-25 -25v-2h369v-160z" />
    <glyph glyph-name="threeinferior" unicode="&#x2083;" horiz-adv-x="739" 
d="M678 37q0 -121 -86 -188.5t-230 -67.5q-154 0 -266 69v179h6q41 -39 105.5 -63.5t122.5 -24.5q70 0 112.5 32t42.5 93q0 53 -40 82.5t-113 29.5h-133v160h139q92 35 92 119q0 55 -36.5 86.5t-98.5 31.5q-106 0 -189 -86h-4v181q105 67 236 67q127 0 207 -67t80 -183
q0 -147 -136 -215v-2q85 -16 137 -77t52 -156z" />
    <glyph glyph-name="fourinferior" unicode="&#x2084;" horiz-adv-x="739" 
d="M717 -6h-117v-189h-188v189h-383v137l424 606h147v-596h117v-147zM418 141v314h-2l-211 -312v-2h213z" />
    <glyph glyph-name="fiveinferior" unicode="&#x2085;" horiz-adv-x="739" 
d="M674 84q0 -143 -92 -223t-238 -80q-148 0 -252 69v179h4q41 -40 103 -64t123 -24q71 0 115 37t44 106q0 65 -50 104t-140 39q-98 0 -178 -41h-4l81 527h453v-162h-317l-33 -191q46 17 78 17q133 0 218 -78t85 -215z" />
    <glyph glyph-name="sixinferior" unicode="&#x2086;" horiz-adv-x="739" 
d="M705 78q0 -142 -92.5 -219.5t-243.5 -77.5q-150 0 -242 79t-92 218q0 100 51 180l291 455h225v-2l-231 -355v-2q43 11 104 4q105 -21 167.5 -93.5t62.5 -186.5zM514 78q0 67 -38 107t-105 40q-65 0 -105.5 -38t-40.5 -109q0 -66 38 -106t104 -40q67 0 107 37.5t40 108.5z
" />
    <glyph glyph-name="seveninferior" unicode="&#x2087;" horiz-adv-x="739" 
d="M303 -193h-203v3l353 729h-410v176h680v-13z" />
    <glyph glyph-name="eightinferior" unicode="&#x2088;" horiz-adv-x="739" 
d="M698 57q0 -130 -90 -203t-241 -73q-150 0 -239 73t-89 203q0 82 38 141.5t107 90.5v2q-112 61 -112 198q0 117 80.5 182.5t214.5 65.5q137 0 218 -65.5t81 -182.5q0 -135 -113 -198v-2q68 -30 106.5 -90t38.5 -142zM506 70q0 60 -36.5 96.5t-102.5 36.5
q-63 0 -99.5 -36.5t-36.5 -96.5q0 -62 36 -100t100 -38q65 0 102 38.5t37 99.5zM492 469q0 52 -33 84.5t-92 32.5q-56 0 -88.5 -32.5t-32.5 -84.5q0 -54 32 -87.5t89 -33.5q59 0 92 33.5t33 87.5z" />
    <glyph glyph-name="nineinferior" unicode="&#x2089;" horiz-adv-x="739" 
d="M362 -195h-223v2l230 355v2q-31 -8 -105 -4q-104 21 -166.5 94t-62.5 186q0 143 93 220t243 77q151 0 242.5 -78.5t91.5 -218.5q0 -99 -64 -200zM514 440q0 66 -37.5 106t-105.5 40q-65 0 -104.5 -37t-39.5 -109q0 -66 37.5 -106.5t104.5 -40.5q65 0 105 38t40 109z" />
    <glyph glyph-name="parenleftinferior" unicode="&#x208d;" horiz-adv-x="481" 
d="M467 -352h-176q-98 112 -152.5 256t-54.5 303q0 160 54.5 304.5t152.5 256.5h176q-98 -113 -152.5 -257.5t-54.5 -303.5q0 -158 54.5 -302t152.5 -257z" />
    <glyph glyph-name="parenrightinferior" unicode="&#x208e;" horiz-adv-x="481" 
d="M188 -352h-174q98 113 152.5 257t54.5 302q0 159 -54.5 303.5t-152.5 257.5h174q100 -112 154.5 -256.5t54.5 -304.5q0 -159 -54.5 -303t-154.5 -256z" />
    <glyph glyph-name="Euro" unicode="&#x20ac;" horiz-adv-x="1103" 
d="M1038 76q-63 -54 -148.5 -83.5t-176.5 -29.5q-87 0 -161 25t-140 79t-113.5 150t-69.5 227h-163v201h145v117h-145v201h165q44 242 170 356.5t308 114.5q198 0 323 -113v-248h-8q-47 66 -117 105t-157 39q-105 0 -170.5 -62t-94.5 -192h441v-201h-463q-2 -23 -2 -66v-51
h465v-201h-443q55 -264 269 -264q162 0 278 144h8v-248z" />
    <glyph glyph-name="litre" unicode="&#x2113;" horiz-adv-x="1122" 
d="M1004 39q-136 -76 -326 -76q-147 0 -256 83.5t-170 248.5q-71 -27 -162 -51v217q47 10 113 31q-17 122 -17 237q0 331 118.5 518t340.5 187q171 0 268 -102.5t97 -276.5q0 -204 -124.5 -374.5t-383.5 -283.5q65 -215 246 -215q66 0 133.5 25.5t113.5 68.5h9v-237z
M461 791q0 -122 4 -181q145 86 221 196t76 259q0 103 -32 153t-87 50q-182 0 -182 -477z" />
    <glyph glyph-name="numero" unicode="&#x2116;" horiz-adv-x="2373" 
d="M2255 274h-572v166h572v-166zM2138 944q0 93 -45 147t-121 54q-78 0 -125 -53t-47 -148q0 -93 46 -148t122 -55t123 54t47 149zM2331 944q0 -167 -100.5 -265.5t-262.5 -98.5q-158 0 -258 98.5t-100 265.5t99.5 266t262.5 99q158 0 258.5 -99t100.5 -266zM1376 -18h-213
l-706 897h-2v-879h-265v1296l-63 88v13h274l709 -914h2v914h264v-1415z" />
    <glyph glyph-name="published" unicode="&#x2117;" horiz-adv-x="1601" 
d="M733 279h-180v835h289q133 0 216 -69t83 -195q0 -138 -98.5 -216.5t-309.5 -101.5v-253zM733 690q119 4 173.5 43t54.5 101q0 58 -39.5 89t-104.5 31h-84v-264zM797 -37q-147 0 -275.5 49.5t-225.5 141.5t-152.5 232t-55.5 312q0 171 55 310.5t151.5 232.5t227.5 143
t283 50q147 0 275.5 -50t225 -142t152 -232.5t55.5 -311.5q0 -227 -95 -395.5t-256 -254t-365 -85.5zM793 92q120 0 223 38.5t181 112t122.5 190.5t44.5 265q0 143 -42.5 258.5t-117 191.5t-176 116.5t-219.5 40.5q-95 0 -180 -23.5t-157 -73t-124 -120.5t-81 -170.5
t-29 -219.5q0 -143 42.5 -258.5t117 -191t175.5 -116t220 -40.5z" />
    <glyph glyph-name="published" unicode="&#xe039;" horiz-adv-x="1601" 
d="M733 279h-180v835h289q133 0 216 -69t83 -195q0 -138 -98.5 -216.5t-309.5 -101.5v-253zM733 690q119 4 173.5 43t54.5 101q0 58 -39.5 89t-104.5 31h-84v-264zM797 -37q-147 0 -275.5 49.5t-225.5 141.5t-152.5 232t-55.5 312q0 171 55 310.5t151.5 232.5t227.5 143
t283 50q147 0 275.5 -50t225 -142t152 -232.5t55.5 -311.5q0 -227 -95 -395.5t-256 -254t-365 -85.5zM793 92q120 0 223 38.5t181 112t122.5 190.5t44.5 265q0 143 -42.5 258.5t-117 191.5t-176 116.5t-219.5 40.5q-95 0 -180 -23.5t-157 -73t-124 -120.5t-81 -170.5
t-29 -219.5q0 -143 42.5 -258.5t117 -191t175.5 -116t220 -40.5z" />
    <glyph glyph-name="trademark" unicode="&#x2122;" horiz-adv-x="1783" 
d="M434 561h-178v662h-221v174h622v-174h-223v-662zM1692 561h-183l-39 475h-2l-227 -495h-12l-230 495h-2l-39 -475h-180l74 846h143l240 -537h2l236 537h145z" />
    <glyph glyph-name="Omega" unicode="&#x2126;" horiz-adv-x="1562" 
d="M1460 0h-600v211q156 120 228.5 243t72.5 291q0 208 -104 324.5t-275 116.5q-172 0 -275.5 -116.5t-103.5 -324.5q0 -168 71.5 -291.5t227.5 -242.5v-211h-600v248h242v2q-106 110 -161.5 243.5t-55.5 315.5q0 192 85.5 335t233 216.5t336.5 73.5q188 0 336 -73.5
t234 -216.5t86 -335q0 -181 -56 -314.5t-161 -244.5v-2h239v-248z" />
    <glyph glyph-name="estimated" unicode="&#x212e;" horiz-adv-x="1695" 
d="M1260 352h206q-91 -186 -255.5 -287.5t-360.5 -101.5q-200 0 -356.5 91t-244 258t-87.5 384q0 164 51.5 302t142 233.5t217.5 149t275 53.5q312 0 496 -216t186 -577h-1077v-281q59 -109 162 -170t233 -61q134 0 239.5 61t172.5 162zM852 1268q-135 0 -237 -60t-162 -168
v-241h786v241q-61 107 -162 167.5t-225 60.5z" />
    <glyph glyph-name="arrowleft" unicode="&#x2190;" horiz-adv-x="1628" 
d="M760 104l-610 582v12l610 582h366l-503 -461h856v-254h-856l503 -461h-366z" />
    <glyph glyph-name="arrowup" unicode="&#x2191;" horiz-adv-x="1628" 
d="M1401 741v-364l-461 502v-856h-254v856l-461 -502v364l582 611h12z" />
    <glyph glyph-name="arrowright" unicode="&#x2192;" horiz-adv-x="1628" 
d="M868 104h-366l504 461h-856v254h856l-504 461h366l611 -582v-12z" />
    <glyph glyph-name="arrowdown" unicode="&#x2193;" horiz-adv-x="1628" 
d="M1401 635l-582 -612h-12l-582 612v364l461 -501v854h254v-854l461 501v-364z" />
    <glyph glyph-name="arrowupleft" unicode="&#x2196;" horiz-adv-x="1628" 
d="M586 86l-258 260l-21 842l8 10l844 -20l258 -260l-682 30l606 -606l-180 -178l-604 604z" />
    <glyph glyph-name="arrowupright" unicode="&#x2197;" horiz-adv-x="1628" 
d="M1300 346l-258 -260l29 682l-604 -604l-180 178l606 606l-682 -30l258 260l844 20l8 -10z" />
    <glyph glyph-name="arrowdownright" unicode="&#x2198;" horiz-adv-x="1628" 
d="M1042 1321l258 -260l21 -842l-8 -10l-844 20l-258 260l682 -30l-606 606l180 178l604 -604z" />
    <glyph glyph-name="arrowdownleft" unicode="&#x2199;" horiz-adv-x="1628" 
d="M328 1061l258 260l-29 -682l604 604l180 -178l-606 -606l682 30l-258 -260l-844 -20l-8 10z" />
    <glyph glyph-name="arrowtailleft" unicode="&#x21a2;" horiz-adv-x="1628" 
d="M762 1221v-402h717v-254h-717v-401h-17l-595 522v12l595 523h17z" />
    <glyph glyph-name="arrowtailright" unicode="&#x21a3;" horiz-adv-x="1628" 
d="M883 164h-17v401h-716v254h716v402h17l596 -523v-12z" />
    <glyph glyph-name="partialdiff" unicode="&#x2202;" horiz-adv-x="1171" 
d="M90 416q0 191 123.5 311.5t298.5 120.5q52 0 113 -14l2 2l-363 557v4h307l451 -705q82 -128 82 -276q0 -213 -139 -333t-369 -120q-108 0 -199.5 29t-160 84.5t-107.5 143t-39 196.5zM356 416q0 -120 67.5 -182t176.5 -62q115 0 177.5 66.5t62.5 177.5q0 120 -66.5 181.5
t-177.5 61.5q-113 0 -176.5 -66.5t-63.5 -176.5z" />
    <glyph glyph-name="Delta" unicode="&#x2206;" horiz-adv-x="1404" 
d="M1378 0h-1351l559 1434h231zM997 248l-299 827h-2l-301 -827h602z" />
    <glyph glyph-name="product" unicode="&#x220f;" horiz-adv-x="1556" 
d="M1366 -395h-264v1528h-647v-1528h-265v1792h1176v-1792z" />
    <glyph glyph-name="summation" unicode="&#x2211;" horiz-adv-x="1300" 
d="M1202 -395h-1124v16l545 889v2l-514 868v17h1050v-264h-575v-3l368 -610v-16l-397 -633v-2h647v-264z" />
    <glyph glyph-name="minus" unicode="&#x2212;" 
d="M1008 483h-910v187h910v-187z" />
    <glyph glyph-name="radical" unicode="&#x221a;" horiz-adv-x="1335" 
d="M856 0h-375l-268 932h-164v198h385l242 -897h10l328 1164h272z" />
    <glyph glyph-name="infinity" unicode="&#x221e;" horiz-adv-x="1329" 
d="M1276 582q0 -162 -85 -255.5t-208 -93.5q-185 0 -311 216h-4q-121 -216 -312 -216q-144 0 -223.5 95.5t-79.5 253.5q0 142 81.5 239t221.5 97q70 0 129 -31.5t98 -75.5t79 -111h2q35 54 60.5 86.5t62.5 66.5t81.5 49.5t100.5 15.5q145 0 226 -94t81 -242zM1094 580
q0 65 -37 105t-99 40q-56 0 -93.5 -38.5t-76.5 -111.5q33 -71 72.5 -110t95.5 -39q63 0 100.5 40.5t37.5 113.5zM369 426q62 0 102 38.5t74 113.5q-40 74 -79.5 111.5t-96.5 37.5q-59 0 -95 -42.5t-36 -104.5q0 -71 36 -112.5t95 -41.5z" />
    <glyph glyph-name="integral" unicode="&#x222b;" horiz-adv-x="614" 
d="M102 -395q-122 0 -215 57v199h7q62 -62 147 -62q65 0 103 45.5t38 137.5v1214q0 164 86 259t246 95q126 0 213 -51v-221h-6q-65 59 -150 59q-70 0 -104.5 -43t-34.5 -116v-1211q0 -178 -88 -270t-242 -92z" />
    <glyph glyph-name="approxequal" unicode="&#x2248;" 
d="M991 760q-97 -107 -227 -107q-49 0 -108 19t-105.5 42.5t-103 42.5t-101.5 19q-70 0 -124.5 -31t-106.5 -90v199q100 107 229 107q49 0 108 -19t105 -42.5t102.5 -42.5t100.5 -19q72 0 126 31.5t105 91.5v-201zM991 322q-97 -107 -227 -107q-49 0 -108 19t-105.5 42.5
t-103 42.5t-101.5 19q-70 0 -124.5 -31t-106.5 -90v201q103 106 229 106q49 0 108 -19.5t105 -43t102.5 -43t100.5 -19.5q72 0 126 31.5t105 91.5v-200z" />
    <glyph glyph-name="notequal" unicode="&#x2260;" 
d="M1008 268h-447l-80 -190h-176l80 190h-287v185h369l104 252h-473v186h555l82 203h176l-84 -203h181v-186h-260l-107 -252h367v-185z" />
    <glyph glyph-name="lessequal" unicode="&#x2264;" 
d="M1008 143h-910v187h910v-187zM1008 416l-910 256v188l910 256v-188l-650 -160v-4l650 -158v-190z" />
    <glyph glyph-name="greaterequal" unicode="&#x2265;" 
d="M1008 672l-910 -256v190l650 158v4l-650 160v188l910 -256v-188zM1008 143h-910v187h910v-187z" />
    <glyph glyph-name="blacksquare" unicode="&#x25a0;" horiz-adv-x="1628" 
d="M1513 0h-1398v1397h1398v-1397z" />
    <glyph glyph-name="whitesquare" unicode="&#x25a1;" horiz-adv-x="1628" 
d="M1513 0h-1398v1397h1398v-1397zM244 129h1140v1139h-1140v-1139z" />
    <glyph glyph-name="lozenge" unicode="&#x25ca;" 
d="M1051 580l-498 -541l-498 541l498 542zM823 580l-270 297l-272 -297l272 -295z" />
    <glyph glyph-name="whitecircle" unicode="&#x25cb;" horiz-adv-x="1628" 
d="M1591 698q0 -158 -61.5 -301t-165.5 -247t-248.5 -165t-302.5 -61t-301 61t-247 164.5t-165 246.5t-61 300q0 158 61.5 301t165 247t247.5 165t302 61t301.5 -61t247.5 -164.5t165.5 -246.5t61.5 -300zM1462 698q0 130 -51.5 249t-138.5 206t-207 138.5t-250 51.5
q-175 0 -324.5 -87.5t-237 -236.5t-87.5 -323q0 -130 51.5 -249t138.5 -206t207 -138.5t250 -51.5q175 0 324.5 87.5t237 236.5t87.5 323z" />
    <glyph glyph-name="blackcircle" unicode="&#x25cf;" horiz-adv-x="1628" 
d="M1591 698q0 -158 -61.5 -301t-165.5 -247t-248.5 -165t-302.5 -61t-301 61t-247 164.5t-165 246.5t-61 300q0 158 61.5 301t165 247t247.5 165t302 61t301.5 -61t247.5 -164.5t165.5 -246.5t61.5 -300z" />
    <glyph glyph-name="ballotboxwithx" unicode="&#x2612;" horiz-adv-x="1628" 
d="M1513 0h-1398v1397h1398v-1397zM1386 127v1143h-1144v-1143h1144zM1300 344l-133 -135l-354 354l-356 -356l-131 131l354 356l-354 355l135 135l352 -357l356 359l134 -133l-357 -359z" />
    <glyph glyph-name="pointingindexleftwhite" unicode="&#x261c;" horiz-adv-x="2252" 
d="M53 950q0 67 49.5 94t139.5 27h329q-22 18 -31 55t1 109h364q73 0 138 -27.5t113 -69t91 -84t91 -79.5t94 -49l16 98h635q45 -204 43 -411.5t-43 -417.5q-85 -1 -222.5 -40.5t-211.5 -39.5q-110 0 -166.5 75t-61.5 189q-93 -5 -239 -39.5t-262 -34.5h-56q-184 0 -184 133
q0 15 8 43q-48 6 -80.5 39.5t-32.5 87.5q0 19 7 47q-111 15 -111 123q0 17 8 49h-237q-90 0 -139.5 27t-49.5 96zM131 950q0 -30 24 -38.5t78 -8.5h652l14 -86h-340q-6 -18 -6 -33q0 -34 25 -45.5t90 -11.5h252l14 -84h-272q-9 -15 -9 -33q0 -33 25 -45t90 -12h188l15 -86
h-203q-6 -15 -6 -29q0 -32 32 -44.5t99 -12.5h27q107 0 261 37t289 41q27 213 -8 375q-51 10 -98 33.5t-83 52.5t-71 62.5t-68.5 64.5t-68 56t-78 40.5t-90.5 15.5h-287q-9 -43 17.5 -60.5t89.5 -17.5h231v-86h-723q-54 0 -78 -8.5t-24 -36.5zM1690 217q46 0 149.5 30.5
t159.5 35.5q30 161 30 332.5t-30 302.5h-447q21 -78 24 -188.5t-4 -227t-7 -119.5q0 -87 30.5 -126.5t94.5 -39.5zM1876 408q0 -46 -32.5 -78.5t-76.5 -32.5q-46 0 -78 32.5t-32 78.5t32 77t78 31q45 0 77 -31.5t32 -76.5z" />
    <glyph glyph-name="pointingindexrightwhite" unicode="&#x261e;" horiz-adv-x="2252" 
d="M2200 950q0 -69 -49.5 -96t-139.5 -27h-237q8 -32 8 -49q0 -108 -111 -123q6 -24 6 -47q0 -54 -32.5 -87.5t-79.5 -39.5q8 -28 8 -43q0 -133 -184 -133h-56q-116 0 -262.5 34.5t-239.5 39.5q-5 -114 -61 -189t-166 -75q-74 0 -211.5 39.5t-222.5 40.5q-41 210 -43 417.5
t43 411.5h635l16 -98q46 12 94 49t91 79.5t91 84t113 69t138 27.5h364q10 -72 0.5 -109t-31.5 -55h330q90 0 139.5 -27t49.5 -94zM2122 950q0 28 -24.5 36.5t-78.5 8.5h-723v86h232q62 0 88.5 17.5t17.5 60.5h-286q-47 0 -90.5 -15.5t-78 -40.5t-68 -56t-68.5 -64.5
t-71 -62.5t-83 -52.5t-98 -33.5q-35 -165 -9 -375q135 -4 289.5 -41t261.5 -37h27q67 0 99 12.5t32 44.5q0 14 -6 29h-203l14 86h189q65 0 89.5 12t24.5 45q0 20 -8 33h-272l14 84h252q65 0 90 11.5t25 45.5q0 15 -6 33h-340l14 86h651q54 0 78.5 8.5t24.5 38.5zM563 217
q64 0 94.5 39.5t30.5 126.5q0 4 -7.5 119.5t-4.5 226.5t24 189h-446q-30 -131 -30 -302.5t30 -332.5q56 -5 159.5 -35.5t149.5 -30.5zM377 408q0 45 31.5 76.5t76.5 31.5q46 0 78.5 -31.5t32.5 -76.5q0 -46 -32.5 -78.5t-78.5 -32.5q-44 0 -76 32.5t-32 78.5z" />
    <glyph glyph-name="checkmark" unicode="&#x2713;" horiz-adv-x="1335" 
d="M764 0h-336l-387 838h272l269 -605h10l428 1182h270z" />
    <glyph glyph-name="dingbatnegcircle1" unicode="&#x2776;" horiz-adv-x="1843" 
d="M918 -139q-136 0 -258 35t-223.5 105.5t-175.5 169.5t-115.5 234t-41.5 293q0 194 63 353.5t173.5 265t260.5 162.5t325 57q169 0 316 -56.5t257.5 -161t174 -264.5t63.5 -356q0 -195 -62.5 -354t-172.5 -264t-259.5 -162t-324.5 -57zM911 -10q142 0 263 44.5
t213.5 130.5t145 223t52.5 310q0 168 -50 303t-137.5 223.5t-206.5 135.5t-259 47q-141 0 -262 -44.5t-213.5 -130.5t-145.5 -223t-53 -311q0 -168 49.5 -303t137 -223t207 -135t259.5 -47zM1038 246h-186v712l-207 -57h-4v176l393 101h4v-932z" />
    <glyph glyph-name="dingbatnegcircle2" unicode="&#x2777;" horiz-adv-x="1843" 
d="M918 -139q-136 0 -258 35t-223.5 105.5t-175.5 169.5t-115.5 234t-41.5 293q0 194 63 353.5t173.5 265t260.5 162.5t325 57q169 0 316 -56.5t257.5 -161t174 -264.5t63.5 -356q0 -195 -62.5 -354t-172.5 -264t-259.5 -162t-324.5 -57zM911 -10q142 0 263 44.5
t213.5 130.5t145 223t52.5 310q0 168 -50 303t-137.5 223.5t-206.5 135.5t-259 47q-141 0 -262 -44.5t-213.5 -130.5t-145.5 -223t-53 -311q0 -168 49.5 -303t137 -223t207 -135t259.5 -47zM1276 246h-649v133q215 174 290.5 277t75.5 202q0 74 -39.5 116t-105.5 42
q-108 0 -199 -88h-4v176q114 74 240 74q132 0 217.5 -78t85.5 -219q0 -47 -7.5 -88.5t-27.5 -82.5t-36.5 -69.5t-54 -70.5t-58.5 -64t-70 -71l-27 -27v-2h369v-160z" />
    <glyph glyph-name="dingbatnegcircle3" unicode="&#x2778;" horiz-adv-x="1843" 
d="M918 -139q-136 0 -258 35t-223.5 105.5t-175.5 169.5t-115.5 234t-41.5 293q0 194 63 353.5t173.5 265t260.5 162.5t325 57q169 0 316 -56.5t257.5 -161t174 -264.5t63.5 -356q0 -195 -62.5 -354t-172.5 -264t-259.5 -162t-324.5 -57zM911 -10q142 0 263 44.5
t213.5 130.5t145 223t52.5 310q0 168 -50 303t-137.5 223.5t-206.5 135.5t-259 47q-141 0 -262 -44.5t-213.5 -130.5t-145.5 -223t-53 -311q0 -168 49.5 -303t137 -223t207 -135t259.5 -47zM1253 477q0 -121 -85.5 -188.5t-229.5 -67.5q-153 0 -266 70v178h6
q41 -39 105 -63.5t122 -24.5q70 0 113 32t43 93q0 53 -40.5 82.5t-113.5 29.5h-133v160h139q93 36 93 119q0 55 -37 87t-99 32q-105 0 -188 -86h-4v180q106 68 235 68q127 0 207 -67t80 -183q0 -148 -135 -215v-2q84 -15 136 -76.5t52 -157.5z" />
    <glyph glyph-name="dingbatnegcircle4" unicode="&#x2779;" horiz-adv-x="1843" 
d="M918 -139q-136 0 -258 35t-223.5 105.5t-175.5 169.5t-115.5 234t-41.5 293q0 194 63 353.5t173.5 265t260.5 162.5t325 57q169 0 316 -56.5t257.5 -161t174 -264.5t63.5 -356q0 -195 -62.5 -354t-172.5 -264t-259.5 -162t-324.5 -57zM911 -10q142 0 263 44.5
t213.5 130.5t145 223t52.5 310q0 168 -50 303t-137.5 223.5t-206.5 135.5t-259 47q-141 0 -262 -44.5t-213.5 -130.5t-145.5 -223t-53 -311q0 -168 49.5 -303t137 -223t207 -135t259.5 -47zM1225 434h-117v-188h-188v188h-383v137l424 607h147v-596h117v-148zM926 582v313
h-2l-211 -311v-2h213z" />
    <glyph glyph-name="dingbatnegcircle5" unicode="&#x277a;" horiz-adv-x="1843" 
d="M918 -139q-136 0 -258 35t-223.5 105.5t-175.5 169.5t-115.5 234t-41.5 293q0 194 63 353.5t173.5 265t260.5 162.5t325 57q169 0 316 -56.5t257.5 -161t174 -264.5t63.5 -356q0 -195 -62.5 -354t-172.5 -264t-259.5 -162t-324.5 -57zM911 -10q142 0 263 44.5
t213.5 130.5t145 223t52.5 310q0 168 -50 303t-137.5 223.5t-206.5 135.5t-259 47q-141 0 -262 -44.5t-213.5 -130.5t-145.5 -223t-53 -311q0 -168 49.5 -303t137 -223t207 -135t259.5 -47zM1217 524q0 -143 -92 -223t-238 -80t-252 70v178h4q41 -40 102.5 -64t122.5 -24
q71 0 115.5 37t44.5 106q0 66 -50.5 105t-139.5 39q-99 0 -179 -41h-4l82 526h453v-162h-318l-32 -190q43 16 77 16q133 0 218.5 -78t85.5 -215z" />
    <glyph glyph-name="dingbatnegcircle6" unicode="&#x277b;" horiz-adv-x="1843" 
d="M918 -139q-136 0 -258 35t-223.5 105.5t-175.5 169.5t-115.5 234t-41.5 293q0 194 63 353.5t173.5 265t260.5 162.5t325 57q169 0 316 -56.5t257.5 -161t174 -264.5t63.5 -356q0 -195 -62.5 -354t-172.5 -264t-259.5 -162t-324.5 -57zM911 -10q142 0 263 44.5
t213.5 130.5t145 223t52.5 310q0 168 -50 303t-137.5 223.5t-206.5 135.5t-259 47q-141 0 -262 -44.5t-213.5 -130.5t-145.5 -223t-53 -311q0 -168 49.5 -303t137 -223t207 -135t259.5 -47zM1237 518q0 -142 -92.5 -219.5t-243.5 -77.5q-150 0 -242 79t-92 218q0 100 51 180
l291 455h226v-2l-232 -354v-2q43 11 105 4q104 -21 166.5 -94t62.5 -187zM1047 518q0 67 -38.5 107.5t-105.5 40.5q-65 0 -105 -38.5t-40 -109.5q0 -66 37.5 -105.5t103.5 -39.5q67 0 107.5 37t40.5 108z" />
    <glyph glyph-name="dingbatnegcircle7" unicode="&#x277c;" horiz-adv-x="1843" 
d="M918 -139q-136 0 -258 35t-223.5 105.5t-175.5 169.5t-115.5 234t-41.5 293q0 194 63 353.5t173.5 265t260.5 162.5t325 57q169 0 316 -56.5t257.5 -161t174 -264.5t63.5 -356q0 -195 -62.5 -354t-172.5 -264t-259.5 -162t-324.5 -57zM911 -10q142 0 263 44.5
t213.5 130.5t145 223t52.5 310q0 168 -50 303t-137.5 223.5t-206.5 135.5t-259 47q-141 0 -262 -44.5t-213.5 -130.5t-145.5 -223t-53 -311q0 -168 49.5 -303t137 -223t207 -135t259.5 -47zM870 246h-202v2l352 729h-410v176h680v-12z" />
    <glyph glyph-name="dingbatnegcircle8" unicode="&#x277d;" horiz-adv-x="1843" 
d="M918 -139q-136 0 -258 35t-223.5 105.5t-175.5 169.5t-115.5 234t-41.5 293q0 194 63 353.5t173.5 265t260.5 162.5t325 57q169 0 316 -56.5t257.5 -161t174 -264.5t63.5 -356q0 -195 -62.5 -354t-172.5 -264t-259.5 -162t-324.5 -57zM911 -10q142 0 263 44.5
t213.5 130.5t145 223t52.5 310q0 168 -50 303t-137.5 223.5t-206.5 135.5t-259 47q-141 0 -262 -44.5t-213.5 -130.5t-145.5 -223t-53 -311q0 -168 49.5 -303t137 -223t207 -135t259.5 -47zM1247 498q0 -130 -90.5 -203.5t-241.5 -73.5q-150 0 -238.5 73.5t-88.5 203.5
q0 82 38 141t107 90v2q-112 61 -112 199q0 117 80 182.5t214 65.5q137 0 218 -65.5t81 -182.5q0 -137 -112 -199v-2q69 -30 107 -89.5t38 -141.5zM1055 510q0 60 -37 96.5t-103 36.5q-63 0 -99 -36.5t-36 -96.5q0 -62 35.5 -99.5t99.5 -37.5q65 0 102.5 38t37.5 99z
M1040 909q0 52 -33 84.5t-92 32.5q-56 0 -88 -32.5t-32 -84.5q0 -54 31.5 -87.5t88.5 -33.5q59 0 92 33.5t33 87.5z" />
    <glyph glyph-name="dingbatnegcircle9" unicode="&#x277e;" horiz-adv-x="1843" 
d="M918 -139q-136 0 -258 35t-223.5 105.5t-175.5 169.5t-115.5 234t-41.5 293q0 194 63 353.5t173.5 265t260.5 162.5t325 57q169 0 316 -56.5t257.5 -161t174 -264.5t63.5 -356q0 -195 -62.5 -354t-172.5 -264t-259.5 -162t-324.5 -57zM911 -10q142 0 263 44.5
t213.5 130.5t145 223t52.5 310q0 168 -50 303t-137.5 223.5t-206.5 135.5t-259 47q-141 0 -262 -44.5t-213.5 -130.5t-145.5 -223t-53 -311q0 -168 49.5 -303t137 -223t207 -135t259.5 -47zM918 246h-224v2l230 354v2q-31 -8 -105 -4q-104 21 -166.5 94.5t-62.5 186.5
q0 143 93 220t243 77q151 0 242.5 -78.5t91.5 -218.5q0 -100 -64 -201zM1069 881q0 66 -37.5 105.5t-105.5 39.5q-65 0 -104.5 -36.5t-39.5 -108.5q0 -66 37.5 -107t104.5 -41q65 0 105 38.5t40 109.5z" />
    <glyph glyph-name="dingbatnegcircle10" unicode="&#x277f;" horiz-adv-x="1843" 
d="M918 -139q-136 0 -258 35t-223.5 105.5t-175.5 169.5t-115.5 234t-41.5 293q0 194 63 353.5t173.5 265t260.5 162.5t325 57q169 0 316 -56.5t257.5 -161t174 -264.5t63.5 -356q0 -195 -62.5 -354t-172.5 -264t-259.5 -162t-324.5 -57zM911 -10q142 0 263 44.5
t213.5 130.5t145 223t52.5 310q0 168 -50 303t-137.5 223.5t-206.5 135.5t-259 47q-141 0 -262 -44.5t-213.5 -130.5t-145.5 -223t-53 -311q0 -168 49.5 -303t137 -223t207 -135t259.5 -47zM655 279h-161v829l159 35h2v-864zM1425 711q0 -226 -87 -335.5t-226 -109.5
q-138 0 -225.5 109.5t-87.5 335.5q0 227 87 334.5t226 107.5q140 0 226.5 -107t86.5 -335zM1257 711q0 159 -38 226t-107 67q-143 0 -143 -293q0 -295 143 -295q145 0 145 295z" />
    <glyph glyph-name="a.superior" unicode="&#xe000;" horiz-adv-x="770" 
d="M672 604h-178v49q-87 -73 -197 -73q-97 0 -163 59t-66 160t67 162t187 61q90 0 167 -41v49q0 65 -46.5 97t-120.5 32q-59 0 -114 -23t-93 -61h-6v164q109 70 249 70t227 -70.5t87 -216.5v-418zM489 768v96q-57 31 -118 31q-59 0 -91 -23t-32 -65q0 -40 28.5 -64t83.5 -24
q77 0 129 49z" />
    <glyph glyph-name="b.superior" unicode="&#xe001;" horiz-adv-x="831" 
d="M788 944q0 -168 -88 -266t-227 -98q-112 0 -203 65l-161 -55h-5v1012h183v-371q88 78 202 78q134 0 216.5 -99t82.5 -266zM596 944q0 96 -45.5 149.5t-120.5 53.5q-86 0 -143 -74v-270q58 -62 137 -62q78 0 125 53.5t47 149.5z" />
    <glyph glyph-name="c.superior" unicode="&#xe002;" horiz-adv-x="630" 
d="M575 823v-178q-87 -65 -208 -65q-140 0 -232 97.5t-92 266.5q0 165 89 265t230 100q124 0 209 -66v-178h-4q-24 35 -67 57.5t-94 22.5q-79 0 -126 -54.5t-47 -148.5q0 -90 47.5 -143.5t127.5 -53.5q49 0 92.5 21t70.5 57h4z" />
    <glyph glyph-name="d.superior" unicode="&#xe003;" horiz-adv-x="831" 
d="M727 604h-180v53h-2q-90 -77 -203 -77q-133 0 -216 99t-83 265q0 169 88 267t229 98q107 0 183 -56h2v349h182v-998zM545 815v270q-62 62 -137 62q-79 0 -127 -53t-48 -150q0 -95 46.5 -149t121.5 -54q87 0 144 74z" />
    <glyph glyph-name="e.superior" unicode="&#xe004;" horiz-adv-x="757" 
d="M672 649q-106 -69 -256 -69q-166 0 -269.5 97t-103.5 267q0 168 90.5 266.5t245.5 98.5q139 0 231 -87t92 -235q0 -47 -2 -67h-467q11 -92 68 -142.5t152 -50.5q61 0 118 23t95 61h6v-162zM512 1051q-5 60 -41.5 97.5t-93.5 37.5t-94.5 -35.5t-46.5 -99.5h276z" />
    <glyph glyph-name="f.superior" unicode="&#xe005;" horiz-adv-x="485" 
d="M299 604h-182v522h-74v7l74 151v92q0 110 58.5 173t166.5 63q83 0 145 -33v-160h-4q-45 39 -98 39q-86 0 -86 -94v-80h154v-158h-154v-522z" />
    <glyph glyph-name="g.superior" unicode="&#xe006;" horiz-adv-x="811" 
d="M539 827v267q-56 53 -129 53q-77 0 -124.5 -51t-47.5 -140q0 -88 45.5 -138t119.5 -50q86 0 136 59zM397 342q-164 0 -264 68v163h4q90 -90 232 -90q84 0 127 41t43 111v45h-2q-78 -72 -203 -72t-208 91t-83 257q0 167 87 260t224 93q107 0 199 -66h2l160 55h4v-651
q0 -147 -87.5 -226t-234.5 -79z" />
    <glyph glyph-name="h.superior" unicode="&#xe007;" horiz-adv-x="829" 
d="M731 604h-180v404q0 68 -35 103.5t-94 35.5q-78 0 -135 -74v-469h-183v998h183v-371q84 78 198 78q105 0 175.5 -63t70.5 -181v-461z" />
    <glyph glyph-name="i.superior" unicode="&#xe008;" horiz-adv-x="389" 
d="M287 604h-183v680h183v-680zM291 1446h-191v156h191v-156z" />
    <glyph glyph-name="j.superior" unicode="&#xe009;" horiz-adv-x="389" 
d="M63 348q-82 0 -145 37v139h4q40 -37 94 -37q41 0 64.5 28t23.5 85v684h183v-694q0 -119 -60.5 -180.5t-163.5 -61.5zM291 1446h-191v156h191v-156z" />
    <glyph glyph-name="k.superior" unicode="&#xe00a;" horiz-adv-x="765" 
d="M287 604h-183v998h183v-998zM745 604h-213l-233 340v8l223 332h207l-231 -332v-2z" />
    <glyph glyph-name="l.superior" unicode="&#xe00b;" horiz-adv-x="389" 
d="M287 604h-183v998h183v-998z" />
    <glyph glyph-name="m.superior" unicode="&#xe00c;" horiz-adv-x="1275" 
d="M1178 604h-183v404q0 68 -34.5 103.5t-92.5 35.5q-82 0 -143 -80q6 -27 6 -59v-404h-180v404q0 68 -35 103.5t-94 35.5q-78 0 -135 -74v-469h-183v680h181v-53h2q84 78 200 78q66 0 120.5 -27t86.5 -78h2q58 55 114 80t124 25q103 0 173.5 -63t70.5 -181v-461z" />
    <glyph glyph-name="n.superior" unicode="&#xe00d;" horiz-adv-x="845" 
d="M745 604h-178v404q0 68 -37 103.5t-98 35.5q-85 0 -145 -74v-469h-183v680h181v-53h2q88 78 205 78q109 0 181 -62.5t72 -181.5v-461z" />
    <glyph glyph-name="o.superior" unicode="&#xe00e;" horiz-adv-x="806" 
d="M571 944q0 98 -46 152.5t-122 54.5q-78 0 -124 -54.5t-46 -152.5q0 -95 46 -151t124 -56t123 56t45 151zM764 944q0 -167 -101 -265.5t-260 -98.5q-158 0 -259 98.5t-101 265.5q0 168 98.5 266.5t261.5 98.5q161 0 261 -99t100 -266z" />
    <glyph glyph-name="p.superior" unicode="&#xe00f;" horiz-adv-x="831" 
d="M788 944q0 -168 -88 -266t-227 -98q-108 0 -186 55v-287h-183v936h181v-53h2q88 78 202 78q134 0 216.5 -99t82.5 -266zM596 944q0 96 -45.5 149.5t-120.5 53.5q-86 0 -143 -74v-270q58 -62 137 -62q78 0 125 53.5t47 149.5z" />
    <glyph glyph-name="q.superior" unicode="&#xe010;" horiz-adv-x="831" 
d="M727 348h-182v309h-2q-87 -77 -201 -77q-133 0 -216 99t-83 265q0 169 88 267t229 98q105 0 201 -66h2l160 55h4v-950zM545 815v270q-62 62 -137 62q-79 0 -127 -53t-48 -150q0 -95 46.5 -149t121.5 -54q87 0 144 74z" />
    <glyph glyph-name="r.superior" unicode="&#xe011;" horiz-adv-x="552" 
d="M289 604h-183v680h175v-55h2q83 80 168 80q37 0 69 -13v-180h-4q-40 27 -84 27q-39 0 -71 -16.5t-72 -49.5v-473z" />
    <glyph glyph-name="s.superior" unicode="&#xe012;" horiz-adv-x="634" 
d="M563 797q0 -98 -66.5 -157.5t-193.5 -59.5q-137 0 -225 59v162h4q37 -37 94.5 -58.5t112.5 -21.5q98 0 98 67q0 30 -31.5 50t-76 35t-89.5 37t-76.5 69.5t-31.5 118.5q0 97 63 154t183 57q129 0 211 -60v-162h-4q-36 37 -89 58.5t-102 21.5q-42 0 -63 -17.5t-21 -47.5
q0 -25 22.5 -43t56 -28t73 -27.5t73 -39t56 -64.5t22.5 -103z" />
    <glyph glyph-name="t.superior" unicode="&#xe013;" horiz-adv-x="485" 
d="M299 604h-182v522h-74v7l74 151v203h182v-203h154v-158h-154v-522z" />
    <glyph glyph-name="u.superior" unicode="&#xe014;" horiz-adv-x="823" 
d="M725 1284v-405q0 -139 -83.5 -219t-231.5 -80q-145 0 -228.5 80t-83.5 219v405h183v-399q0 -72 34 -108t97 -36q62 0 96.5 36t34.5 108v399h182z" />
    <glyph glyph-name="v.superior" unicode="&#xe015;" horiz-adv-x="757" 
d="M449 580h-138l-299 704h207l160 -438h2l160 438h204z" />
    <glyph glyph-name="w.superior" unicode="&#xe016;" horiz-adv-x="1140" 
d="M860 580h-123l-166 370l-165 -370h-123l-265 704h203l137 -407h2l203 432h17l202 -432l138 407h202z" />
    <glyph glyph-name="x.superior" unicode="&#xe017;" horiz-adv-x="753" 
d="M739 604h-213l-149 230h-2l-137 -230h-207l215 346l-232 334h213l148 -227h2l139 227h207l-217 -334z" />
    <glyph glyph-name="y.superior" unicode="&#xe018;" horiz-adv-x="759" 
d="M395 348h-207l109 258l-287 678h207l166 -448h2l154 448h202z" />
    <glyph glyph-name="z.superior" unicode="&#xe019;" horiz-adv-x="681" 
d="M635 604h-604v12l295 508v2h-269v158h557v-12l-299 -508v-2h320v-158z" />
    <glyph glyph-name="grave.cap" unicode="&#xe01a;" horiz-adv-x="1024" 
d="M717 1397h-215l-197 241h260z" />
    <glyph glyph-name="acute.cap" unicode="&#xe01b;" horiz-adv-x="1024" 
d="M520 1397h-215l152 241h260z" />
    <glyph glyph-name="circumflex.cap" unicode="&#xe01c;" horiz-adv-x="1024" 
d="M840 1397h-215l-111 127h-2l-113 -127h-215l222 262h212z" />
    <glyph glyph-name="caron.cap" unicode="&#xe01d;" horiz-adv-x="1024" 
d="M618 1386h-212l-222 263h215l111 -127h2l113 127h215z" />
    <glyph glyph-name="tilde.cap" unicode="&#xe01f;" horiz-adv-x="1024" 
d="M657 1425q-53 0 -145 43t-121 43q-15 0 -26.5 -5.5t-17.5 -9.5t-13.5 -20.5t-9 -21.5t-9.5 -29h-157q13 56 26 93.5t36.5 74.5t60 55.5t86.5 18.5q53 0 144.5 -43t121.5 -43q18 0 30.5 5t21 20t12.5 24.5t12 36.5h157q-12 -58 -26 -97t-37 -74.5t-59.5 -53t-86.5 -17.5z
" />
    <glyph glyph-name="dieresis.cap" unicode="&#xe020;" horiz-adv-x="1024" 
d="M410 1473h-246v194h246v-194zM860 1473h-248v194h248v-194z" />
    <glyph glyph-name="macron.cap" unicode="&#xe021;" horiz-adv-x="1024" 
d="M848 1495h-672v172h672v-172z" />
    <glyph glyph-name="breve.cap" unicode="&#xe022;" horiz-adv-x="1024" 
d="M512 1425q-136 0 -222.5 63.5t-101.5 178.5h181q28 -86 143 -86q116 0 141 86h183q-15 -115 -101.5 -178.5t-222.5 -63.5z" />
    <glyph glyph-name="ring.cap" unicode="&#xe023;" horiz-adv-x="1024" 
d="M764 1587q0 -93 -71 -141.5t-183 -48.5q-114 0 -183 48.5t-69 141.5q0 92 71.5 140.5t184.5 48.5q111 0 180.5 -48.5t69.5 -140.5zM610 1587q0 33 -27 52.5t-71 19.5q-45 0 -73.5 -19.5t-28.5 -52.5q0 -35 28.5 -54.5t73.5 -19.5q44 0 71 19.5t27 54.5z" />
    <glyph glyph-name="hungarumlaut.cap" unicode="&#xe024;" horiz-adv-x="1024" 
d="M324 1397h-218l152 241h260zM723 1397h-217l151 241h261z" />
    <glyph glyph-name="dotaccent.cap" unicode="&#xe025;" horiz-adv-x="1024" 
d="M645 1473h-266v194h266v-194z" />
    <glyph glyph-name="hyphen.cap" unicode="&#xe027;" horiz-adv-x="552" 
d="M537 616h-521v232h521v-232z" />
    <glyph glyph-name="exclamdown.cap" unicode="&#xe028;" horiz-adv-x="604" 
d="M438 -139h-272l29 1089h215zM426 1143h-246v254h246v-254z" />
    <glyph glyph-name="guilsinglleft.cap" unicode="&#xe02a;" horiz-adv-x="634" 
d="M561 324h-229l-258 391v12l258 391h229l-246 -397z" />
    <glyph glyph-name="guilsinglright.cap" unicode="&#xe02b;" horiz-adv-x="634" 
d="M303 324h-229l245 397l-245 397h229l258 -391v-12z" />
    <glyph glyph-name="guillemotleft.cap" unicode="&#xe02c;" horiz-adv-x="1052" 
d="M561 324h-229l-258 391v12l258 391h229l-246 -397zM981 324h-229l-258 391v12l258 391h229l-246 -397z" />
    <glyph glyph-name="guillemotright.cap" unicode="&#xe02d;" horiz-adv-x="1052" 
d="M303 324h-229l245 397l-245 397h229l258 -391v-12zM723 324h-229l245 397l-245 397h229l258 -391v-12z" />
    <glyph glyph-name="endash.cap" unicode="&#xe02e;" 
d="M1085 618h-1065v207h1065v-207z" />
    <glyph glyph-name="emdash.cap" unicode="&#xe02f;" horiz-adv-x="2211" 
d="M2191 618h-2171v207h2171v-207z" />
    <glyph glyph-name="nbspace" unicode="&#xe030;" 
 />
    <glyph glyph-name="periodcentered.cap" unicode="&#xe031;" horiz-adv-x="552" 
d="M406 588h-259v268h259v-268z" />
    <glyph glyph-name="parenleft.cap" unicode="&#xe032;" horiz-adv-x="722" 
d="M698 -188h-241q-154 174 -239 395.5t-85 466.5t85 466.5t239 395.5h241q-152 -174 -236.5 -395.5t-84.5 -466.5t84.5 -466.5t236.5 -395.5z" />
    <glyph glyph-name="parenright.cap" unicode="&#xe033;" horiz-adv-x="722" 
d="M268 -188h-243q153 173 237 395t84 467t-84 467t-237 395h243q152 -174 237 -396t85 -466t-85 -466t-237 -396z" />
    <glyph glyph-name="bracketleft.cap" unicode="&#xe034;" horiz-adv-x="720" 
d="M643 -188h-471v1724h471v-203h-242v-1319h242v-202z" />
    <glyph glyph-name="bracketright.cap" unicode="&#xe035;" horiz-adv-x="720" 
d="M78 1536h471v-1724h-471v202h241v1319h-241v203z" />
    <glyph glyph-name="braceleft.cap" unicode="&#xe036;" horiz-adv-x="755" 
d="M688 -188q-182 0 -283.5 41t-144.5 130t-43 246v316l-127 125v8l127 125v315q0 157 43 246t145 130.5t283 41.5v-203q-140 0 -191 -52t-51 -167v-319l-116 -121l116 -121v-320q0 -115 51 -167t191 -52v-202z" />
    <glyph glyph-name="braceright.cap" unicode="&#xe037;" horiz-adv-x="755" 
d="M68 1536q181 0 282.5 -41.5t145 -130.5t43.5 -246v-315l127 -125v-8l-127 -125v-316q0 -157 -43.5 -246t-145 -130t-282.5 -41v202q140 0 190.5 51.5t50.5 167.5v320l117 121l-117 121v319q0 116 -50.5 167.5t-190.5 51.5v203z" />
    <glyph glyph-name="at.cap" unicode="&#xe038;" horiz-adv-x="1824" 
d="M918 440q115 0 190 92v383q-76 76 -182 76q-109 0 -174.5 -72.5t-65.5 -203.5q0 -130 63 -202.5t169 -72.5zM999 -168q-200 0 -367 58.5t-288 168t-188.5 277.5t-67.5 377q0 204 63 371t173.5 278t261 171t325.5 60q174 0 324 -51.5t262.5 -149t177 -248.5t64.5 -339
q0 -258 -117.5 -397.5t-333.5 -139.5h-166v70h-2q-113 -102 -268 -102q-175 0 -286 130t-111 349q0 223 116.5 351t302.5 128q152 0 267 -86h2l176 68h10v-738q107 0 166 94.5t59 258.5q0 127 -31 231t-87.5 177.5t-136 124.5t-175 75t-206.5 24q-138 0 -255 -47.5
t-203.5 -136t-135 -224t-48.5 -302.5q0 -331 198 -516t536 -185q356 0 546 164h9v-207q-97 -64 -250 -100.5t-316 -36.5z" />
    <glyph glyph-name="zero.slash" unicode="&#xe03a;" horiz-adv-x="1245" 
d="M1155 698q0 -155 -28 -279.5t-76.5 -208.5t-116.5 -140.5t-145.5 -81.5t-165.5 -25q-139 0 -256 66l-37 -66h-238l123 213q-125 191 -125 522q0 155 28 280t76.5 209t117 140.5t146 81.5t165.5 25q143 0 256 -68l36 68h236l-119 -217q123 -189 123 -519zM893 698
q0 500 -270 500q-269 0 -269 -500q0 -499 269 -499q270 0 270 499z" />
    <glyph glyph-name="Euro.LT" unicode="&#xe03b;" 
d="M1038 76q-63 -54 -148.5 -83.5t-176.5 -29.5q-87 0 -161 25t-140 79t-113.5 150t-69.5 227h-163v201h145v117h-145v201h165q44 242 170 356.5t308 114.5q198 0 323 -113v-248h-8q-47 66 -117 105t-157 39q-105 0 -170.5 -62t-94.5 -192h441v-201h-463q-2 -23 -2 -66v-51
h465v-201h-443q55 -264 269 -264q162 0 278 144h8v-248z" />
    <glyph glyph-name="dollar.LT" unicode="&#xe03c;" 
d="M659 -291h-219v258q-179 17 -307 109v254h8q101 -115 299 -140v424q-66 30 -113.5 61t-93.5 79.5t-70 118t-24 157.5q0 70 17.5 132t53.5 116t99.5 92t149.5 53v265h219v-263q141 -19 264 -104v-246h-8q-107 104 -256 127v-403q53 -25 92 -48t81.5 -59.5t69.5 -78.5
t44.5 -102t17.5 -132q0 -153 -83 -262t-241 -140v-268zM764 362q0 88 -105 152v-307q105 41 105 155zM360 1042q0 -84 99 -143v293q-99 -36 -99 -150z" />
    <glyph glyph-name="cent.LT" unicode="&#xe03d;" 
d="M791 -291h-218v258q-222 21 -351.5 173.5t-129.5 412.5q0 253 130 409.5t351 176.5v258h218v-273q119 -28 202 -90v-268h-8q-75 101 -194 135v-698q115 32 200 137h8v-268q-79 -62 -208 -92v-271zM354 553q0 -141 56.5 -231t162.5 -119v700q-106 -28 -162.5 -117
t-56.5 -233z" />
    <glyph glyph-name="sterling.LT" unicode="&#xe03e;" 
d="M993 0h-913v221h203l-39 357h-164v221h139l-10 102q-8 86 -8 129q0 178 120.5 291t333.5 113q98 0 192.5 -28t166.5 -81v-274h-6q-56 69 -145 111t-183 42q-104 0 -160.5 -59.5t-56.5 -155.5q0 -46 8 -112l8 -78h406v-221h-381l39 -357h450v-221z" />
    <glyph glyph-name="florin.LT" unicode="&#xe03f;" 
d="M477 0h-256v580h-149v219h149v198q0 211 121.5 324t337.5 113q206 0 354 -109v-274h-8q-131 153 -319 153q-114 0 -172 -64t-58 -173v-168h424v-219h-424v-580z" />
    <glyph glyph-name="yen.LT" unicode="&#xe040;" 
d="M705 0h-256v291h-369v201h369v116h-369v201h280l-303 588h281l237 -527h3l221 527h268l-283 -588h260v-201h-339v-116h339v-201h-339v-291z" />
    <glyph glyph-name="zero.LT" unicode="&#xe041;" 
d="M1053 698q0 -192 -39.5 -336.5t-109.5 -230t-158 -127t-193 -41.5q-107 0 -195.5 41.5t-158.5 127t-109 230t-39 336.5q0 193 39 338t109 230.5t158.5 126.5t195.5 41q83 0 156 -25t136.5 -81.5t109 -140.5t72 -209t26.5 -280zM788 698q0 258 -63 379t-172 121
q-238 0 -238 -500q0 -499 238 -499q109 0 172 120.5t63 378.5z" />
    <glyph glyph-name="one.LT" unicode="&#xe042;" 
d="M778 0h-258v1130l-313 -94h-6v244l571 154h6v-1434z" />
    <glyph glyph-name="two.LT" unicode="&#xe043;" 
d="M1059 0h-985v178q228 191 352.5 325.5t172.5 235t48 209.5q0 122 -63 191t-166 69q-88 0 -168.5 -42t-140.5 -115h-7v268q161 115 365 115q130 0 232 -51t163.5 -156t61.5 -250q0 -116 -27.5 -211.5t-103 -195.5t-129.5 -157t-183 -180l-10 -10v-2h588v-221z" />
    <glyph glyph-name="three.LT" unicode="&#xe044;" 
d="M1018 356q0 -186 -132 -289.5t-349 -103.5q-233 0 -398 107v266h6q63 -69 160.5 -109.5t188.5 -40.5q116 0 187 52.5t71 154.5q0 90 -67 141.5t-189 51.5h-199v221h215q156 58 156 201q0 94 -62 147t-164 53q-82 0 -156.5 -39t-131.5 -108h-7v268q160 105 355 105
q192 0 314 -103.5t122 -279.5q0 -217 -195 -330v-2q120 -30 197.5 -123.5t77.5 -239.5z" />
    <glyph glyph-name="four.LT" unicode="&#xe045;" 
d="M1083 291h-188v-291h-258v291h-608v201l669 942h197v-922h188v-221zM643 512v520h-2l-360 -518v-2h362z" />
    <glyph glyph-name="five.LT" unicode="&#xe046;" 
d="M1012 424q0 -219 -138 -340t-356 -121q-229 0 -385 105v266h8q62 -70 154.5 -110t185.5 -40q119 0 193 61t74 177q0 111 -80.5 175.5t-225.5 64.5q-144 0 -276 -66h-6l125 801h680v-226h-494l-53 -315q82 16 160 16q191 0 312.5 -123.5t121.5 -324.5z" />
    <glyph glyph-name="six.LT" unicode="&#xe047;" 
d="M1061 416q0 -109 -39 -196.5t-107.5 -143t-160 -84.5t-199.5 -29q-230 0 -369 120t-139 333q0 148 82 276l451 705h307v-4l-363 -557l2 -2q61 14 113 14q175 0 298.5 -120.5t123.5 -311.5zM795 416q0 110 -63.5 176.5t-176.5 66.5q-111 0 -177.5 -61.5t-66.5 -181.5
q0 -111 62.5 -177.5t177.5 -66.5q109 0 176.5 62t67.5 182z" />
    <glyph glyph-name="seven.LT" unicode="&#xe048;" 
d="M426 2h-281v4l564 1151v2h-652v240h1024v-17z" />
    <glyph glyph-name="eight.LT" unicode="&#xe049;" 
d="M1049 385q0 -198 -135.5 -310t-360.5 -112q-227 0 -362.5 112t-135.5 310q0 127 61.5 219t170.5 139v2q-88 43 -135.5 122t-47.5 188q0 178 122.5 278.5t326.5 100.5q203 0 324.5 -100.5t121.5 -278.5q0 -107 -47.5 -186t-134.5 -124v-2q109 -45 170.5 -137.5
t61.5 -220.5zM782 393q0 101 -60 161t-169 60q-111 0 -172.5 -60t-61.5 -161q0 -102 61 -161.5t173 -59.5q107 0 168 60t61 161zM756 1032q0 88 -53.5 140.5t-149.5 52.5q-97 0 -152 -52.5t-55 -140.5t54.5 -142t152.5 -54q95 0 149 54t54 142z" />
    <glyph glyph-name="nine.LT" unicode="&#xe04a;" 
d="M526 0h-307v4l363 557v2q-49 -14 -113 -14q-177 0 -299.5 119.5t-122.5 312.5q0 110 38.5 196.5t107 142.5t160 85t200.5 29q229 0 368.5 -120t139.5 -333q0 -85 -26.5 -157.5t-100.5 -188.5zM797 981q0 111 -63.5 177.5t-176.5 66.5q-111 0 -178.5 -62t-67.5 -182
q0 -110 63.5 -177t176.5 -67q111 0 178.5 62t67.5 182z" />
    <glyph glyph-name="Euro.OT" unicode="&#xe04b;" 
d="M66 600v201h182q55 164 177 253t284 89q94 0 179.5 -28t143.5 -79v-239h-8q-46 67 -118.5 103t-162.5 36q-159 0 -233 -135h416v-201h-463q-2 -16 -2 -47v-37h465v-201h-418q71 -145 242 -145q174 0 280 139h8v-239q-58 -50 -145 -78.5t-180 -28.5q-162 0 -288.5 90
t-180.5 262h-178v201h145v84h-145z" />
    <glyph glyph-name="dollar.OT" unicode="&#xe04c;" 
d="M983 301q0 -131 -84 -217t-240 -111v-264h-219v258q-198 16 -307 96v238h6q121 -121 301 -143v311q-51 14 -91 30.5t-81 44t-68 62t-44 86t-17 115.5q0 129 79.5 217.5t240.5 110.5v262h219v-260q169 -19 266 -95v-235h-8q-110 107 -258 135v-295q51 -15 91 -32t82 -45
t69.5 -63.5t45 -88t17.5 -117.5zM766 293q0 41 -27.5 67.5t-79.5 47.5v-238q107 33 107 123zM356 819q0 -39 26.5 -64t76.5 -46v225q-103 -28 -103 -115z" />
    </font>
</defs>
</svg>
