<svg xmlns="http://www.w3.org/2000/svg" width="367.762" height="45" viewBox="0 0 367.762 45">
  <path id="LOGO_Black" d="M49.105,1.223V44.238H37.577V27.31L24.921,39.979a.538.538,0,0,1-.73,0L11.529,27.31V44.238H0V1.223A.461.461,0,0,1,.781.89L24.556,24.665,48.33.89a.455.455,0,0,1,.775.333ZM131.554.762V21.2L106.46.877a.512.512,0,0,0-.833.4V44.238h11.529V23.8L142.25,44.122a.512.512,0,0,0,.833-.4V.762Zm186.2,0v20.45L292.66.9a.506.506,0,0,0-.833.391v42.97h11.529V23.819l25.094,20.316a.506.506,0,0,0,.833-.391V.775ZM99.87,22.5A22.5,22.5,0,1,1,77.37,0a22.5,22.5,0,0,1,22.5,22.5Zm-11.3,0a11.2,11.2,0,1,0-11.2,11.2A11.2,11.2,0,0,0,88.565,22.5ZM181.55.762H147.861V11.849h11.087V44.238h11.529V11.849h11.087ZM217.8,31.62a12.323,12.323,0,0,1-3.7,8.909c-2.459,2.459-5.444,3.728-10.561,3.728H186.2V.775h14.942c3.638,0,7.686-.3,11.458,2.562a12.3,12.3,0,0,1,4.72,9.53,11.977,11.977,0,0,1-4.1,8.967A12.169,12.169,0,0,1,217.8,31.62ZM196.851,9.485v8.448h5.719a4.227,4.227,0,0,0,0-8.448ZM206.945,30.1a4.349,4.349,0,0,0-4.349-4.349h-5.764v8.7H202.6a4.349,4.349,0,0,0,4.349-4.355Zm28.367,3.061V.775H223.783V44.257h22.609V33.17Zm33.356-32.1c-.128.282-20.162,43.194-20.162,43.194h12.47l8.108-17.831,8.14,17.831h12.47S269.686,1.345,269.558,1.063a.493.493,0,0,0-.89,0Zm78.138,21.456a11.463,11.463,0,0,1,11.734-11.285,14.328,14.328,0,0,1,6.085,1.281,15.649,15.649,0,0,1,3.138,1.845V2.216A23.858,23.858,0,0,0,357.662,0a22.5,22.5,0,1,0,0,45,23.858,23.858,0,0,0,10.088-2.2V30.685a15.07,15.07,0,0,1-3.138,1.845,14.328,14.328,0,0,1-6.085,1.281,11.489,11.489,0,0,1-11.734-11.292Z" transform="translate(0 0)"/>
</svg>
